<svg id="Grupo_131441" data-name="Grupo 131441" xmlns="http://www.w3.org/2000/svg" xmlns:xlink="http://www.w3.org/1999/xlink" width="149.975" height="150" viewBox="0 0 149.975 150">
  <defs>
    <clipPath id="clip-path">
      <rect id="Rectángulo_40455" data-name="Rectángulo 40455" width="149.975" height="150" fill="none"/>
    </clipPath>
  </defs>
  <g id="Grupo_131440" data-name="Grupo 131440" clip-path="url(#clip-path)">
    <path id="Trazado_261612" data-name="Trazado 261612" d="M32.763,221.258c-.7,2.5-2.069,3-4.168,1.486-1.266-.91-2.549-1.8-3.769-2.771a13.808,13.808,0,0,1-4.639-6.934c-2.432-7.9-4.891-15.8-7.315-23.7-1.89-6.164,1.817-11.156,8.225-11.119.188,0,.376-.027.691-.052-1.265-4.109-2.5-8.148-3.753-12.184-.847-2.74-.852-2.738-3.763-2.738-2,0-4,0-6,0-4.016-.011-6.476-1.687-7.949-5.42-.072-.182-.095-.374-.321-.429V126.926c.439-.257.362-.765.532-1.147,1.277-2.889,3.44-4.705,6.609-4.739q13.974-.15,27.95,0a7.218,7.218,0,0,1,7.12,7.274c.06,9.366.007,18.733-.015,28.1,0,.54-.1.987.529,1.343a7.973,7.973,0,0,1,3.029,3.266,8.407,8.407,0,0,1,7.278-2.191,8.5,8.5,0,0,1,5.931,4.546c4.754-3.439,9.822-2.775,12.6,1.638a9.332,9.332,0,0,1,.976,2.11c1.122,3.521,2.171,7.066,3.3,10.584a2.555,2.555,0,0,1-1.168,3.356c-1.892.124-2.514-.287-3.087-2.125-1.073-3.437-2.1-6.888-3.194-10.318-.761-2.387-2.741-3.562-4.791-2.934-2.069.633-3.028,2.708-2.323,5.092.5,1.679,1.051,3.342,1.555,5.02.5,1.659.013,2.757-1.362,3.179-1.324.407-2.337-.273-2.862-1.941-.408-1.3-.793-2.607-1.2-3.908-.766-2.462-1.484-4.941-2.326-7.378a3.69,3.69,0,1,0-7.048,2.182c.129.519.3,1.027.457,1.539,1.053,3.443,2.135,6.878,3.145,10.333a2.071,2.071,0,0,1-1.387,2.675,2.157,2.157,0,0,1-2.739-1.318,10.8,10.8,0,0,1-.351-1.114c-1.656-5.345-3.3-10.695-4.974-16.034-.752-2.393-2.734-3.569-4.775-2.912-2.146.691-3.045,2.632-2.31,5.069.927,3.075,1.881,6.141,2.824,9.211.772,2.512,1.561,5.019,2.314,7.536.458,1.532-.057,2.653-1.348,3.073-1.245.4-2.324-.275-2.844-1.793-.095-.276-.182-.555-.269-.833q-5.309-17.228-10.618-34.457c-.917-2.975-2.721-4.224-5.067-3.508-2.253.687-2.977,2.7-2.058,5.67q7.176,23.221,14.343,46.445a2.844,2.844,0,0,1,.173,2.265c-.646,1.253-1.237,2.544-1.989,3.731a1.968,1.968,0,0,1-2.806.726,2.067,2.067,0,0,1-.989-2.75,13.989,13.989,0,0,1,1-1.944,1.751,1.751,0,0,0,.175-1.509c-1.343-4.219-2.619-8.46-3.945-12.685a4.291,4.291,0,0,0-.753-1.4,3.685,3.685,0,0,0-6.33,3.518c2.415,7.912,4.906,15.8,7.285,23.722a10.944,10.944,0,0,0,4.53,6.237c.811.539,1.562,1.171,2.377,1.7a3.639,3.639,0,0,1,1.656,2.129M4.457,155.07c-.072,2.183,1,3.658,2.955,3.731,2.755.1,5.516.027,8.429.027L14.235,153.9c-.313-.891-1.126-1.5-1.115-2.613.063-6.146.018-12.292.038-18.439a2.18,2.18,0,0,1,2.452-2.429c1.609-.029,3.219-.017,4.829-.005,5.383.038,8.36,4.609,6.223,9.582-.195.453-.322.749.133,1.116a9.272,9.272,0,0,1,1.875,2.572c.657,5.188,2.716,9.976,4.092,15.064a18.869,18.869,0,0,1,2.651-1.643c.773-.358,1.968-.117,2.3-.922a7.88,7.88,0,0,0,.128-2.745c.007-.389,0-.779,0-1.169q0-11.618-.005-23.235c0-2.14-.77-3.12-2.665-3.528-9.306-.226-18.612-.123-27.918-.042a2.942,2.942,0,0,0-2.83,3.142c-.016,8.822.014,17.644.028,26.466m13.1-18.172c0,.535,0,1.071,0,1.606,0,.371.057.691.536.678a23.457,23.457,0,0,0,3.2-.12,1.946,1.946,0,0,0,1.7-2.209,2.018,2.018,0,0,0-2.085-2.017c-.824-.047-1.657.029-2.48-.032-.736-.054-.941.258-.874.927.039.385.007.778.009,1.167" transform="translate(0 -73.609)" fill="#040303"/>
    <path id="Trazado_261613" data-name="Trazado 261613" d="M246.232,0a15.767,15.767,0,0,1,2.934,1.374,7.367,7.367,0,0,1,3.225,6.088c.023,9.122.041,18.243-.006,27.365a7.315,7.315,0,0,1-7.193,7.376q-13.9.134-27.8,0a7.31,7.31,0,0,1-7.2-7.364q-.073-13.682,0-27.365A7.382,7.382,0,0,1,215.9.269c.186-.048.386-.032.448-.269ZM231.3,37.841c4.392,0,8.784.022,13.176-.009,2.333-.016,3.514-1.216,3.518-3.541q.021-13.176,0-26.353A3.216,3.216,0,0,0,244.438,4.4q-13.176-.024-26.351,0c-2.28,0-3.511,1.254-3.515,3.559q-.019,13.03.005,26.06c.006,2.726,1.108,3.807,3.835,3.817,4.294.015,8.588,0,12.883,0" transform="translate(-127.887)" fill="#040303"/>
    <path id="Trazado_261614" data-name="Trazado 261614" d="M36.03,0c2.881.9,5.075,2.521,5.952,5.577a8.774,8.774,0,0,1,.26,2.459q.011,13.088,0,26.176c-.011,4.908-3.1,8.018-8.041,8.038q-13.014.051-26.029,0c-4.11-.009-6.453-1.71-7.9-5.619-.044-.119-.176-.206-.267-.308V5.859A9.078,9.078,0,0,1,6.151,0h4.1a3.535,3.535,0,0,1,1.482,2.292c-.481,1.941-1.9,2.175-3.611,2.128C5.667,4.354,4.4,5.64,4.4,8.065q-.014,13.029.01,26.057c.006,2.528,1.169,3.7,3.663,3.708q13.028.026,26.056,0c2.548,0,3.689-1.14,3.693-3.652q.019-13.029,0-26.057c0-2.561-1.2-3.719-3.8-3.723-4.587-.009-9.174-.028-13.76.012a2.454,2.454,0,0,1-2.814-2.144A2.743,2.743,0,0,1,19.04,0Z" fill="#040303"/>
    <path id="Trazado_261615" data-name="Trazado 261615" d="M58.764,258.94a3.637,3.637,0,0,0-1.656-2.129c-.815-.532-1.565-1.164-2.377-1.7a10.943,10.943,0,0,1-4.53-6.236c-2.379-7.922-4.87-15.811-7.285-23.722a3.685,3.685,0,0,1,6.33-3.518,4.288,4.288,0,0,1,.753,1.4c1.326,4.225,2.6,8.465,3.945,12.685a1.751,1.751,0,0,1-.175,1.509,14.035,14.035,0,0,0-1,1.944,2.067,2.067,0,0,0,.989,2.75,1.968,1.968,0,0,0,2.806-.726c.752-1.188,1.344-2.478,1.989-3.731a2.843,2.843,0,0,0-.173-2.265Q51.21,211.971,44.034,188.75c-.919-2.973-.2-4.983,2.058-5.67,2.346-.716,4.15.533,5.067,3.508q5.309,17.228,10.618,34.456c.086.279.174.557.269.834.52,1.518,1.6,2.2,2.844,1.793,1.291-.419,1.806-1.54,1.348-3.073-.753-2.518-1.542-5.025-2.314-7.537-.943-3.069-1.9-6.137-2.824-9.211-.735-2.437.163-4.378,2.31-5.069,2.042-.657,4.024.519,4.775,2.913,1.677,5.338,3.318,10.688,4.974,16.034a10.859,10.859,0,0,0,.352,1.114,2.157,2.157,0,0,0,2.739,1.317,2.071,2.071,0,0,0,1.387-2.675c-1.01-3.455-2.092-6.89-3.145-10.333-.156-.512-.328-1.021-.457-1.539a3.69,3.69,0,1,1,7.048-2.182c.842,2.436,1.56,4.915,2.326,7.378.4,1.3.789,2.608,1.2,3.908.524,1.668,1.537,2.348,2.862,1.941,1.375-.423,1.859-1.521,1.362-3.179-.5-1.678-1.057-3.34-1.554-5.02-.705-2.384.254-4.458,2.323-5.092,2.05-.628,4.03.548,4.792,2.934,1.094,3.43,2.121,6.882,3.194,10.319.574,1.838,1.2,2.249,3.087,2.125l1.553,5.533a2.344,2.344,0,0,0-1.27,3.267c.322.863.553,1.76.833,2.639,1.227,3.845,2.475,7.684,2.371,11.8a37.737,37.737,0,0,0,2.558,14.249c.356.952.584,1.953.87,2.932q-7.6.034-15.21.065c-3.218.01-6.436,0-9.655,0-7.987,0-15.967-.473-23.956-.288" transform="translate(-26.001 -111.291)" fill="#fddbcc"/>
    <path id="Trazado_261616" data-name="Trazado 261616" d="M230.1,126.439l5.843,0c.384,1.769.961,2.254,2.815,2.26,4.146.013,8.293-.018,12.439.014,2.507.019,3.652,1.2,3.655,3.712q.014,13.026,0,26.052c0,2.454-1.23,3.681-3.689,3.692-3.708.018-7.415,0-11.122,0-5.025,0-10.049.016-15.074-.008-2.222-.011-3.518-1.239-3.525-3.4q-.041-13.392-.007-26.783a3.078,3.078,0,0,1,3.2-3.255c.925-.049,1.854,0,2.78-.025,1.713-.039,2.285-.528,2.684-2.256m-.689,18.907c0,2.977-.026,5.954.009,8.93.024,2.013.885,2.839,2.882,2.845q2.341.008,4.683-.061c4.268-.128,7.149-2.312,8.784-6.152a14.382,14.382,0,0,0,.186-10.716,9.2,9.2,0,0,0-9.147-6.428c-1.464-.015-2.928-.007-4.392,0-2.274.008-3,.709-3,2.947-.01,2.879,0,5.758,0,8.638" transform="translate(-134.741 -76.94)" fill="#22afd6"/>
    <path id="Trazado_261617" data-name="Trazado 261617" d="M223.251,123.095c-.4,1.729-.971,2.218-2.684,2.256-.926.021-1.855-.024-2.78.025a3.078,3.078,0,0,0-3.2,3.255q-.033,13.392.007,26.783c.007,2.162,1.3,3.391,3.525,3.4,5.024.024,10.049.008,15.074.008,3.707,0,7.415.013,11.122,0,2.459-.012,3.686-1.237,3.689-3.692q.015-13.026,0-26.051c0-2.51-1.148-3.693-3.655-3.712-4.146-.031-8.293,0-12.439-.013-1.853-.006-2.431-.491-2.815-2.26a2.275,2.275,0,0,1,2.624-2.141c4.344.018,8.689-.052,13.031.032a7.457,7.457,0,0,1,7.656,7.843q.031,13.252,0,26.5a7.567,7.567,0,0,1-7.939,7.894q-13.178.029-26.357,0a7.552,7.552,0,0,1-7.929-7.9q-.031-13.252,0-26.5a7.5,7.5,0,0,1,7.657-7.853c.926-.031,1.855.005,2.781-.016a2.286,2.286,0,0,1,2.631,2.143" transform="translate(-127.893 -73.596)" fill="#040303"/>
    <path id="Trazado_261618" data-name="Trazado 261618" d="M197.733,323.49c-.287-.979-.514-1.979-.87-2.932a37.729,37.729,0,0,1-2.558-14.249c.1-4.114-1.144-7.953-2.371-11.8-.281-.879-.511-1.776-.833-2.638a2.344,2.344,0,0,1,1.27-3.267c1.875-.079,2.382.263,2.956,2.073.85,2.683,1.66,5.379,2.523,8.057a19.587,19.587,0,0,1,.759,6.5c-.131,5.7,1.374,11.042,3.169,16.347.124.368.254.735.355,1.109a2.187,2.187,0,0,1-4.065,1.6c-.135-.254-.224-.533-.334-.8" transform="translate(-116.148 -175.621)" fill="#040303"/>
    <path id="Trazado_261619" data-name="Trazado 261619" d="M341.376,28.515c-2.539,0-5.078.014-7.616,0-1.649-.012-2.586-.78-2.633-2.1-.05-1.365.953-2.283,2.622-2.289q7.543-.031,15.086,0c1.689.007,2.68.9,2.638,2.278-.04,1.307-.993,2.095-2.628,2.107-2.49.019-4.98.005-7.47.005" transform="translate(-201.501 -14.672)" fill="#040303"/>
    <path id="Trazado_261620" data-name="Trazado 261620" d="M131.162,28.517c-2.489,0-4.979.014-7.468,0-1.76-.013-2.67-.788-2.654-2.2.015-1.383.967-2.179,2.711-2.184q7.468-.023,14.936,0c1.724.006,2.674.843,2.658,2.238s-.932,2.138-2.715,2.149c-2.489.015-4.979,0-7.468,0" transform="translate(-73.657 -14.674)" fill="#040303"/>
    <path id="Trazado_261621" data-name="Trazado 261621" d="M341.372,149.541c-2.483,0-4.965.006-7.448,0-1.8-.006-2.829-.833-2.809-2.231.02-1.358,1-2.158,2.722-2.161q7.449-.013,14.9,0c1.709,0,2.71.805,2.736,2.148.027,1.4-1.008,2.238-2.8,2.244-2.434.009-4.868,0-7.3,0" transform="translate(-201.495 -88.323)" fill="#040303"/>
    <path id="Trazado_261622" data-name="Trazado 261622" d="M131.289,145.142c2.482,0,4.964-.011,7.446,0,1.679.011,2.645.866,2.606,2.257-.037,1.325-.98,2.126-2.6,2.131q-7.592.019-15.184,0c-1.585-.005-2.528-.855-2.53-2.192s.929-2.182,2.519-2.193c2.579-.019,5.159-.005,7.738-.005" transform="translate(-73.652 -88.321)" fill="#040303"/>
    <path id="Trazado_261623" data-name="Trazado 261623" d="M128.167,197.946c-1.556,0-3.114.036-4.669-.009-1.6-.047-2.488-.914-2.454-2.276.033-1.307.889-2.088,2.444-2.1q4.742-.043,9.484,0a2.208,2.208,0,0,1,2.482,2.095,2.242,2.242,0,0,1-2.472,2.283c-1.6.046-3.21.01-4.815.011" transform="translate(-73.659 -117.774)" fill="#040303"/>
    <path id="Trazado_261624" data-name="Trazado 261624" d="M338.375,193.557c1.6,0,3.211-.03,4.815.008a2.187,2.187,0,1,1,.073,4.362q-4.959.082-9.921-.006a2.177,2.177,0,1,1,.072-4.352c1.652-.047,3.307-.011,4.961-.012" transform="translate(-201.501 -117.779)" fill="#040303"/>
    <path id="Trazado_261625" data-name="Trazado 261625" d="M338.24,76.969c-1.558,0-3.116.023-4.674-.007a2.231,2.231,0,0,1-2.455-2.144,2.208,2.208,0,0,1,2.49-2.24q4.746-.028,9.493,0a2.24,2.24,0,0,1,2.47,2.128,2.267,2.267,0,0,1-2.505,2.254c-1.606.028-3.213.006-4.82.006" transform="translate(-201.492 -44.158)" fill="#040303"/>
    <path id="Trazado_261626" data-name="Trazado 261626" d="M338.246,173.628c-1.606,0-3.212.028-4.817-.009a2.18,2.18,0,1,1-.105-4.356q5.034-.09,10.071.005a2.18,2.18,0,1,1-.186,4.353c-1.654.033-3.309.008-4.963.007" transform="translate(-201.502 -102.975)" fill="#040303"/>
    <path id="Trazado_261627" data-name="Trazado 261627" d="M128.323,48.439c1.605,0,3.211-.029,4.815.008a2.177,2.177,0,1,1,.117,4.35q-5.032.1-10.067,0a2.176,2.176,0,1,1,.173-4.347c1.653-.036,3.307-.008,4.961-.009" transform="translate(-73.66 -29.47)" fill="#040303"/>
    <path id="Trazado_261628" data-name="Trazado 261628" d="M338.448,48.442c1.605,0,3.212-.031,4.816.007a2.194,2.194,0,0,1,2.307,2.124,2.165,2.165,0,0,1-2.091,2.211c-3.452.073-6.907.075-10.358-.014a2.084,2.084,0,0,1-1.995-2.273,2.106,2.106,0,0,1,2.213-2.043c1.7-.045,3.405-.011,5.108-.013" transform="translate(-201.5 -29.471)" fill="#040303"/>
    <path id="Trazado_261629" data-name="Trazado 261629" d="M128.108,173.627c-1.557,0-3.114.023-4.671-.006-1.526-.028-2.384-.824-2.393-2.149a2.118,2.118,0,0,1,2.211-2.216q4.961-.086,9.924,0a2.188,2.188,0,1,1-.108,4.366c-1.654.031-3.308.007-4.962.007" transform="translate(-73.659 -102.971)" fill="#040303"/>
    <path id="Trazado_261630" data-name="Trazado 261630" d="M128.26,76.968c-1.558,0-3.115.017-4.672,0-1.6-.022-2.538-.838-2.554-2.171-.017-1.353.913-2.207,2.494-2.216q4.745-.026,9.491,0a2.2,2.2,0,1,1,.06,4.379c-1.6.039-3.212.009-4.818.01" transform="translate(-73.653 -44.157)" fill="#040303"/>
    <path id="Trazado_261631" data-name="Trazado 261631" d="M35.549,150.535a9.274,9.274,0,0,0-1.875-2.572c-.455-.366-.328-.662-.133-1.116,2.137-4.973-.84-9.544-6.223-9.582-1.61-.011-3.22-.024-4.829.005a2.179,2.179,0,0,0-2.452,2.429c-.02,6.146.024,12.293-.039,18.439-.011,1.115.8,1.721,1.115,2.612a36.37,36.37,0,0,1-9.778,1.171c-.014-8.822-.044-17.644-.027-26.466a2.941,2.941,0,0,1,2.83-3.141c9.306-.08,18.612-.184,27.917.042a27.2,27.2,0,0,1-2.1,10.907,19.666,19.666,0,0,1-4.407,7.271" transform="translate(-6.878 -80.46)" fill="#89ebd4"/>
    <path id="Trazado_261632" data-name="Trazado 261632" d="M73.239,150.748a19.666,19.666,0,0,0,4.407-7.271,27.2,27.2,0,0,0,2.1-10.907c1.9.408,2.663,1.388,2.665,3.528q.019,11.618.005,23.235c0,.39.006.779,0,1.169a7.881,7.881,0,0,1-.127,2.745c-.337.805-1.532.564-2.3.921a18.882,18.882,0,0,0-2.651,1.644c-1.376-5.088-3.435-9.877-4.092-15.064" transform="translate(-44.568 -80.673)" fill="#89ebd4"/>
    <path id="Trazado_261633" data-name="Trazado 261633" d="M11.379,206.274a36.386,36.386,0,0,0,9.778-1.171l1.606,4.929c-2.913,0-5.675.078-8.429-.026-1.958-.074-3.027-1.549-2.955-3.731" transform="translate(-6.922 -124.812)" fill="#89ebd4"/>
    <path id="Trazado_261634" data-name="Trazado 261634" d="M44.818,158.409c0-.389.031-.782-.008-1.167-.068-.669.138-.981.874-.927.823.061,1.656-.015,2.48.032a2.018,2.018,0,0,1,2.085,2.017,1.946,1.946,0,0,1-1.7,2.209,23.457,23.457,0,0,1-3.2.12c-.48.013-.538-.307-.536-.678,0-.535,0-1.071,0-1.606" transform="translate(-27.261 -95.12)" fill="#89ebd4"/>
    <path id="Trazado_261635" data-name="Trazado 261635" d="M238.148,44.667c-4.294,0-8.589.012-12.883,0-2.728-.01-3.83-1.091-3.836-3.816q-.027-13.03-.005-26.06c0-2.3,1.234-3.555,3.514-3.559q13.176-.024,26.351,0a3.217,3.217,0,0,1,3.551,3.536q.021,13.176,0,26.353c0,2.325-1.184,3.525-3.518,3.541-4.391.031-8.783.009-13.175.009m1.667-5.026a9.938,9.938,0,0,0,7.553-3.247,2.214,2.214,0,1,0-3.183-3.071,6.274,6.274,0,0,1-7.778,1.014,7.256,7.256,0,1,1,7.08-12.667,2.771,2.771,0,0,0,2.192.572,2.12,2.12,0,0,0,1.647-1.845,2.4,2.4,0,0,0-1.462-2.461,11.672,11.672,0,1,0-6.048,21.706" transform="translate(-134.739 -6.825)" fill="#22afd6"/>
    <path id="Trazado_261636" data-name="Trazado 261636" d="M18.566,5.817l5.717-.025A2.454,2.454,0,0,0,27.1,7.935c4.586-.04,9.173-.02,13.76-.012,2.6.005,3.793,1.163,3.8,3.724q.018,13.028,0,26.057c0,2.513-1.145,3.648-3.692,3.653q-13.028.022-26.056,0c-2.494-.005-3.657-1.18-3.663-3.708q-.031-13.029-.01-26.057c0-2.425,1.266-3.711,3.723-3.645,1.715.046,3.13-.188,3.612-2.128M37.631,33.941a6.393,6.393,0,0,0-.212-.819q-3.448-9.157-6.914-18.308a2.63,2.63,0,0,0-4.994-.014c-2.332,6.144-4.687,12.281-7,18.431a2.12,2.12,0,0,0,1.149,2.906A1.95,1.95,0,0,0,22.484,34.9c.583-3.193,2.59-3.637,5.255-3.23a6.867,6.867,0,0,0,1.024.007c3.236,0,3.234,0,4.493,2.965a3.436,3.436,0,0,0,.405.774,2.063,2.063,0,0,0,2.454.806,2.174,2.174,0,0,0,1.515-2.278" transform="translate(-6.831 -3.525)" fill="#22afd6"/>
    <path id="Trazado_261637" data-name="Trazado 261637" d="M241.816,156.725c0-2.879-.007-5.758,0-8.638.007-2.238.729-2.939,3-2.947,1.464-.005,2.928-.013,4.391,0a9.2,9.2,0,0,1,9.148,6.428,14.383,14.383,0,0,1-.186,10.716c-1.635,3.839-4.516,6.024-8.784,6.152q-2.34.07-4.683.061c-2-.006-2.857-.832-2.882-2.845-.036-2.976-.009-5.953-.009-8.93m4.4.046h.025c0,2.1,0,4.193,0,6.288,0,.415-.111.843.534,1.01a6.077,6.077,0,0,0,7.423-3.665,10.363,10.363,0,0,0-.1-7.568,4.8,4.8,0,0,0-4.839-3.3,12.506,12.506,0,0,1-1.607-.013c-1.093-.136-1.545.18-1.474,1.4.114,1.943.031,3.9.031,5.848" transform="translate(-147.148 -88.319)" fill="#040303"/>
    <path id="Trazado_261638" data-name="Trazado 261638" d="M250.4,47.542a11.672,11.672,0,1,1,6.048-21.706A2.4,2.4,0,0,1,257.91,28.3a2.12,2.12,0,0,1-1.647,1.845,2.771,2.771,0,0,1-2.192-.572,7.256,7.256,0,1,0-7.08,12.667,6.274,6.274,0,0,0,7.778-1.014,2.214,2.214,0,1,1,3.183,3.071,9.938,9.938,0,0,1-7.553,3.247" transform="translate(-145.324 -14.727)" fill="#040303"/>
    <path id="Trazado_261639" data-name="Trazado 261639" d="M48.655,45.148a2.174,2.174,0,0,1-1.515,2.278,2.063,2.063,0,0,1-2.454-.806,3.427,3.427,0,0,1-.4-.774c-1.259-2.963-1.257-2.964-4.493-2.965a6.866,6.866,0,0,1-1.024-.007c-2.665-.406-4.672.037-5.255,3.23a1.95,1.95,0,0,1-2.827,1.24,2.12,2.12,0,0,1-1.15-2.905c2.316-6.151,4.671-12.287,7-18.431a2.63,2.63,0,0,1,4.994.013Q45,35.17,48.444,44.329a6.327,6.327,0,0,1,.212.819M36.491,38.48c1.491,0,2.793-.025,4.095.01.668.018.9-.19.646-.837-.7-1.828-1.4-3.658-2.22-5.79L36.491,38.48" transform="translate(-17.856 -14.732)" fill="#040303"/>
    <path id="Trazado_261640" data-name="Trazado 261640" d="M253.021,163.553c0-1.95.083-3.9-.031-5.848-.071-1.217.381-1.533,1.474-1.4a12.5,12.5,0,0,0,1.607.013,4.8,4.8,0,0,1,4.839,3.3,10.363,10.363,0,0,1,.1,7.568,6.077,6.077,0,0,1-7.423,3.665c-.645-.166-.532-.6-.534-1.01-.008-2.1,0-4.192,0-6.288Z" transform="translate(-153.949 -95.101)" fill="#22afd6"/>
    <path id="Trazado_261641" data-name="Trazado 261641" d="M47.6,50.378l2.521-6.617c.817,2.132,1.515,3.962,2.22,5.79.25.647.022.856-.646.837-1.3-.035-2.6-.01-4.095-.01" transform="translate(-28.968 -26.63)" fill="#22afd6"/>
  </g>
</svg>
