<svg xmlns="http://www.w3.org/2000/svg" width="67.27" height="67.27" viewBox="0 0 67.27 67.27">
  <g id="Grupo_147258" data-name="Grupo 147258" transform="translate(-1135.086 -5053.227)">
    <g id="Grupo_147253" data-name="Grupo 147253">
      <g id="Grupo_147252" data-name="Grupo 147252">
        <path id="Trazado_277394" data-name="Trazado 277394" d="M33.635,0A33.635,33.635,0,1,1,0,33.635,33.635,33.635,0,0,1,33.635,0Z" transform="translate(1135.086 5053.227)" fill="#fff"/>
        <path id="Trazado_277404" data-name="Trazado 277404" d="M-12.236,0h-9.746V-1.934l4.6-4.9a11.347,11.347,0,0,0,1.4-1.807,2.9,2.9,0,0,0,.454-1.465,2.172,2.172,0,0,0-.479-1.489,1.727,1.727,0,0,0-1.367-.542,1.863,1.863,0,0,0-1.509.659,2.611,2.611,0,0,0-.552,1.733h-2.832a4.661,4.661,0,0,1,.62-2.373A4.371,4.371,0,0,1-19.893-13.8a5.328,5.328,0,0,1,2.568-.61,5.045,5.045,0,0,1,3.413,1.055A3.731,3.731,0,0,1-12.7-10.381a4.781,4.781,0,0,1-.547,2.148,11.939,11.939,0,0,1-1.875,2.549L-18.35-2.275h6.113Zm11.3-5.879A7.2,7.2,0,0,1-2.158-1.367,4.261,4.261,0,0,1-5.732.2,4.291,4.291,0,0,1-9.287-1.338a6.992,6.992,0,0,1-1.26-4.395V-8.35a7.109,7.109,0,0,1,1.235-4.521,4.293,4.293,0,0,1,3.56-1.543A4.3,4.3,0,0,1-2.2-12.886,6.97,6.97,0,0,1-.937-8.5ZM-3.76-8.756a5.207,5.207,0,0,0-.483-2.576,1.634,1.634,0,0,0-1.509-.806,1.6,1.6,0,0,0-1.47.767,4.873,4.873,0,0,0-.5,2.4v3.46a5.466,5.466,0,0,0,.474,2.586,1.612,1.612,0,0,0,1.519.846,1.585,1.585,0,0,0,1.494-.811A5.335,5.335,0,0,0-3.76-5.374ZM7.822,0H5V-10.894L1.631-9.854v-2.275L7.52-14.238h.3Zm7.49-8.359h1.5A2.119,2.119,0,0,0,18.408-8.9a1.968,1.968,0,0,0,.518-1.426,1.74,1.74,0,0,0-.513-1.338A1.987,1.987,0,0,0,17-12.139a2.083,2.083,0,0,0-1.357.444,1.421,1.421,0,0,0-.547,1.157H12.275a3.471,3.471,0,0,1,.6-2,4,4,0,0,1,1.68-1.382,5.606,5.606,0,0,1,2.378-.5,5.316,5.316,0,0,1,3.535,1.079,3.682,3.682,0,0,1,1.279,2.974,2.992,2.992,0,0,1-.6,1.8A3.87,3.87,0,0,1,19.59-7.3a3.533,3.533,0,0,1,1.792,1.289,3.5,3.5,0,0,1,.591,2.031A3.743,3.743,0,0,1,20.591-.947,5.556,5.556,0,0,1,16.934.2,5.268,5.268,0,0,1,13.452-.928,3.668,3.668,0,0,1,12.1-3.9h2.822a1.635,1.635,0,0,0,.6,1.309A2.213,2.213,0,0,0,17-2.08a2.224,2.224,0,0,0,1.577-.532,1.837,1.837,0,0,0,.571-1.411q0-2.129-2.344-2.129H15.313Z" transform="translate(1168.721 5093.863)" fill="#12263f"/>
      </g>
    </g>
  </g>
</svg>
