<svg xmlns="http://www.w3.org/2000/svg" xmlns:xlink="http://www.w3.org/1999/xlink" width="1124.701" height="156.757" viewBox="0 0 1124.701 156.757">
  <defs>
    <radialGradient id="radial-gradient" cx="0.5" cy="0.5" r="0.5" gradientTransform="matrix(0.045, 0.999, -0.999, 0.045, 0.977, -0.022)" gradientUnits="objectBoundingBox">
      <stop offset="0" stop-color="#063340"/>
      <stop offset="0.229" stop-color="#063340"/>
      <stop offset="0.368" stop-color="#063340"/>
      <stop offset="0.483" stop-color="#063340"/>
      <stop offset="0.584" stop-color="#063340" stop-opacity="0.812"/>
      <stop offset="0.677" stop-color="#063340" stop-opacity="0.702"/>
      <stop offset="0.763" stop-color="#063340" stop-opacity="0.565"/>
      <stop offset="0.845" stop-color="#063340" stop-opacity="0.408"/>
      <stop offset="0.922" stop-color="#063340" stop-opacity="0.22"/>
      <stop offset="0.994" stop-color="#063340" stop-opacity="0.016"/>
      <stop offset="1" stop-color="#f57c00" stop-opacity="0"/>
    </radialGradient>
  </defs>
  <g id="Grupo_147245" data-name="Grupo 147245" transform="translate(-237.649 -3936.092)">
    <path id="Trazado_277429" data-name="Trazado 277429" d="M-424.108,247.16a40.342,40.342,0,0,0-17.74-4.082,40.336,40.336,0,0,0-17.738,4.085,11.846,11.846,0,0,1-13.512-2.4l-7.422-7.422a11.643,11.643,0,0,1-2.95-11.71,40.541,40.541,0,0,0,1.789-15.032A40.67,40.67,0,0,0-519.3,172.962a40.545,40.545,0,0,0-43.372,40.45,40.371,40.371,0,0,0,1.859,12.144,11.72,11.72,0,0,1-2.918,11.793l-7.424,7.424a11.843,11.843,0,0,1-13.511,2.4,40.341,40.341,0,0,0-17.739-4.081,40.327,40.327,0,0,0-17.739,4.085,11.845,11.845,0,0,1-13.511-2.4l-7.423-7.421a11.642,11.642,0,0,1-2.95-11.71,40.54,40.54,0,0,0,1.789-15.032,40.67,40.67,0,0,0-37.615-37.64,40.547,40.547,0,0,0-43.374,40.45,40.4,40.4,0,0,0,1.859,12.144,11.72,11.72,0,0,1-2.918,11.793l-7.424,7.425a11.845,11.845,0,0,1-13.511,2.4,40.338,40.338,0,0,0-17.739-4.082,40.333,40.333,0,0,0-17.738,4.085,11.846,11.846,0,0,1-13.512-2.4l-7.445-7.444a11.778,11.778,0,0,1-2.894-11.88A39.878,39.878,0,0,0-802.7,214.02a40.547,40.547,0,0,0-43.23-41.04,40.674,40.674,0,0,0-37.756,37.655,40.539,40.539,0,0,0,1.792,15.032,11.646,11.646,0,0,1-2.948,11.711l-7.421,7.422a11.844,11.844,0,0,1-13.511,2.4,40.341,40.341,0,0,0-17.739-4.081,40.327,40.327,0,0,0-17.739,4.085,11.847,11.847,0,0,1-13.512-2.4l-7.422-7.421a11.643,11.643,0,0,1-2.95-11.71,40.547,40.547,0,0,0,1.789-15.033A40.671,40.671,0,0,0-1000.965,173a40.546,40.546,0,0,0-43.372,40.45,40.4,40.4,0,0,0,1.859,12.144,11.72,11.72,0,0,1-2.918,11.793l-7.424,7.425a11.845,11.845,0,0,1-13.511,2.4,40.338,40.338,0,0,0-17.739-4.082,40.34,40.34,0,0,0-17.739,4.085,11.845,11.845,0,0,1-13.511-2.4l-7.423-7.422a11.645,11.645,0,0,1-2.949-11.71,40.541,40.541,0,0,0,1.789-15.032,40.671,40.671,0,0,0-37.615-37.639,40.546,40.546,0,0,0-43.375,40.449,40.373,40.373,0,0,0,1.86,12.145,11.721,11.721,0,0,1-2.919,11.793l-7.423,7.424a11.843,11.843,0,0,1-13.511,2.4,40.345,40.345,0,0,0-17.74-4.081,40.322,40.322,0,0,0-17.738,4.085,11.847,11.847,0,0,1-13.512-2.4l-7.423-7.421a11.645,11.645,0,0,1-2.949-11.71,40.539,40.539,0,0,0,1.789-15.032,40.671,40.671,0,0,0-37.615-37.64,40.547,40.547,0,0,0-43.375,40.45,40.4,40.4,0,0,0,1.86,12.144,11.718,11.718,0,0,1-2.919,11.793l-7.423,7.425a11.845,11.845,0,0,1-13.511,2.4,40.342,40.342,0,0,0-17.739-4.082,40.34,40.34,0,0,0-17.739,4.085,11.845,11.845,0,0,1-13.511-2.4l-7.423-7.422a11.642,11.642,0,0,1-2.95-11.71,40.544,40.544,0,0,0,1.789-15.032A40.684,40.684,0,0,0-1483.443,173,40.545,40.545,0,0,0-1526,214.086a40.725,40.725,0,0,0,38.619,39.905,40.409,40.409,0,0,0,19.569-4,11.635,11.635,0,0,1,13.362,2.112l7.666,7.664a11.644,11.644,0,0,1,2.949,11.71,40.547,40.547,0,0,0-1.789,15.033,40.672,40.672,0,0,0,37.615,37.639,40.547,40.547,0,0,0,43.375-40.45,40.394,40.394,0,0,0-1.86-12.144,11.718,11.718,0,0,1,2.919-11.793l7.423-7.425a11.845,11.845,0,0,1,13.511-2.4,40.342,40.342,0,0,0,17.739,4.082,40.35,40.35,0,0,0,17.739-4.085,11.846,11.846,0,0,1,13.512,2.4l7.422,7.422a11.641,11.641,0,0,1,2.95,11.709,40.554,40.554,0,0,0-1.789,15.034,40.67,40.67,0,0,0,37.615,37.638,40.546,40.546,0,0,0,43.374-40.45,40.4,40.4,0,0,0-1.859-12.144,11.721,11.721,0,0,1,2.918-11.793l7.424-7.425a11.845,11.845,0,0,1,13.511-2.4,40.324,40.324,0,0,0,17.739,4.082,40.326,40.326,0,0,0,17.739-4.085,11.843,11.843,0,0,1,13.511,2.4l7.423,7.421a11.644,11.644,0,0,1,2.949,11.71,40.559,40.559,0,0,0-1.789,15.029,40.671,40.671,0,0,0,37.612,37.642,40.546,40.546,0,0,0,43.378-40.449,40.378,40.378,0,0,0-1.86-12.145,11.717,11.717,0,0,1,2.919-11.792l7.423-7.425a11.845,11.845,0,0,1,13.511-2.4,40.343,40.343,0,0,0,17.74,4.082,40.335,40.335,0,0,0,17.738-4.085,11.846,11.846,0,0,1,13.512,2.4l7.422,7.421a11.643,11.643,0,0,1,2.95,11.71,40.555,40.555,0,0,0-1.789,15.035,40.67,40.67,0,0,0,37.617,37.637,40.546,40.546,0,0,0,43.373-40.45,40.4,40.4,0,0,0-1.86-12.144,11.719,11.719,0,0,1,2.919-11.793l7.531-7.533a11.705,11.705,0,0,1,13.39-2.3,40.416,40.416,0,0,0,19.676,4.044,39.907,39.907,0,0,0,15.726-4.036,11.745,11.745,0,0,1,13.466,2.26l7.558,7.556a11.643,11.643,0,0,1,2.95,11.71,40.526,40.526,0,0,0-1.789,15.033A40.67,40.67,0,0,0-765.786,324.1a40.547,40.547,0,0,0,43.373-40.45,40.408,40.408,0,0,0-1.859-12.145,11.72,11.72,0,0,1,2.918-11.793l7.423-7.424a11.847,11.847,0,0,1,13.512-2.4,40.339,40.339,0,0,0,17.739,4.082,40.34,40.34,0,0,0,17.739-4.085,11.845,11.845,0,0,1,13.511,2.4l7.423,7.422a11.642,11.642,0,0,1,2.949,11.709,40.549,40.549,0,0,0-1.789,15.034,40.671,40.671,0,0,0,37.617,37.638,40.547,40.547,0,0,0,43.373-40.45,40.4,40.4,0,0,0-1.86-12.144,11.719,11.719,0,0,1,2.919-11.793l7.423-7.425a11.845,11.845,0,0,1,13.511-2.4,40.329,40.329,0,0,0,17.74,4.082,40.326,40.326,0,0,0,17.738-4.085,11.845,11.845,0,0,1,13.512,2.4l7.422,7.421a11.643,11.643,0,0,1,2.95,11.71,40.557,40.557,0,0,0-1.789,15.035,40.671,40.671,0,0,0,37.619,37.637,40.546,40.546,0,0,0,43.37-40.45,40.4,40.4,0,0,0-1.859-12.144C-406.565,256.645-419.591,249.364-424.108,247.16Z" transform="translate(1763.652 3763.227)" fill="#1a7b96"/>
    <g id="Grupo_147243" data-name="Grupo 147243" transform="translate(276.903 3973.512)">
      <path id="Trazado_101071" data-name="Trazado 101071" d="M-762.575,287.214a.977.977,0,0,1-.049-1.384h0a.977.977,0,0,1,1.383-.059h0a.989.989,0,0,1,.06,1.393h0a1,1,0,0,1-.726.314h0A.973.973,0,0,1-762.575,287.214Zm-321.025-.147a.99.99,0,0,1-.059-1.393h0a.99.99,0,0,1,1.393-.049h0a.978.978,0,0,1,.049,1.384h0a.947.947,0,0,1-.716.314h0A.95.95,0,0,1-1083.6,287.066Zm159.826-.1a.99.99,0,0,1-.069-1.393h0a.987.987,0,0,1,1.383-.069h0a.99.99,0,0,1,.069,1.393h0a1.015,1.015,0,0,1-.726.324h0A.989.989,0,0,1-923.774,286.968Zm-321.035-.167a.969.969,0,0,1-.049-1.384h0a.978.978,0,0,1,1.384-.059h0a.99.99,0,0,1,.049,1.393h0a.983.983,0,0,1-.716.314h0A.959.959,0,0,1-1244.809,286.8Zm642.934-.265a.977.977,0,0,1,.078-1.384h0a.97.97,0,0,1,1.384.069h0a.978.978,0,0,1-.07,1.384h0a1,1,0,0,1-.656.255h0A.983.983,0,0,1-601.876,286.537ZM-604.7,285.3a.99.99,0,0,1-.049-1.393h0a.978.978,0,0,1,1.383-.049h0a.979.979,0,0,1,.059,1.384h0a.969.969,0,0,1-.727.314h0A1.032,1.032,0,0,1-604.7,285.3Zm-637.281-.275a.978.978,0,0,1,.049-1.384h0a1,1,0,0,1,1.393.049h0a.99.99,0,0,1-.059,1.393h0a.949.949,0,0,1-.667.255h0A.947.947,0,0,1-1241.983,285.025Zm321.025-.147a.979.979,0,0,1,.058-1.384h0a.979.979,0,0,1,1.385.049h0a.978.978,0,0,1-.049,1.384h0a.98.98,0,0,1-.667.265h0A1,1,0,0,1-920.958,284.878Zm-159.806-.1a.987.987,0,0,1,.059-1.384h0a.981.981,0,0,1,1.393.059h0a.978.978,0,0,1-.069,1.384h0a.954.954,0,0,1-.658.265h0A.978.978,0,0,1-1080.764,284.78Zm321.006-.177a.977.977,0,0,1,.039-1.384h0a.989.989,0,0,1,1.393.039h0a.97.97,0,0,1-.049,1.384h0a.944.944,0,0,1-.667.275A.981.981,0,0,1-759.758,284.6Zm-5.692-.059a.979.979,0,0,1-.058-1.384h0a.99.99,0,0,1,1.393-.059h0a.99.99,0,0,1,.048,1.393h0a.963.963,0,0,1-.715.314h0A.981.981,0,0,1-765.451,284.545Zm-321.034-.147a.987.987,0,0,1-.049-1.384h0a.979.979,0,0,1,1.384-.059h0a.979.979,0,0,1,.059,1.384h0a.967.967,0,0,1-.726.314h0A.983.983,0,0,1-1086.485,284.4Zm159.8-.059a.979.979,0,0,1-.069-1.384h0a.97.97,0,0,1,1.384-.078h0a.99.99,0,0,1,.069,1.393h0a.988.988,0,0,1-.726.314h0A.978.978,0,0,1-926.688,284.339Zm-477.466-.108a.978.978,0,0,1,.069-1.384h0a.978.978,0,0,1,1.384.069h0a.99.99,0,0,1-.069,1.393h0a.978.978,0,0,1-.657.245h0A.962.962,0,0,1-1404.154,284.231Zm156.46-.1a.987.987,0,0,1-.049-1.384h0a.99.99,0,0,1,1.393-.059h0a1,1,0,0,1,.049,1.393h0a1,1,0,0,1-.726.314h0A.994.994,0,0,1-1247.694,284.132Zm648.733-.226a.987.987,0,0,1,.069-1.384h0a.98.98,0,0,1,1.392.069h0a.969.969,0,0,1-.078,1.384h0a.979.979,0,0,1-.647.255h0A.982.982,0,0,1-598.961,283.907Zm-808.038-.2a.979.979,0,0,1-.069-1.384h0a.979.979,0,0,1,1.384-.079h0a.979.979,0,0,1,.069,1.384h0a.988.988,0,0,1-.726.334h0A.989.989,0,0,1-1407,283.711Zm799.423-1.079a1,1,0,0,1-.06-1.393h0a1,1,0,0,1,1.393-.049h0a.977.977,0,0,1,.05,1.384h0a.932.932,0,0,1-.716.314h0A.963.963,0,0,1-607.577,282.631Zm-631.531-.265a.99.99,0,0,1,.059-1.393h0a.987.987,0,0,1,1.384.049h0a.99.99,0,0,1-.049,1.393h0a1,1,0,0,1-.667.265h0A1,1,0,0,1-1239.108,282.366Zm321.035-.157a.976.976,0,0,1,.049-1.384h0a.977.977,0,0,1,1.384.049h0a.968.968,0,0,1-.05,1.384h0a.955.955,0,0,1-.666.265h0A.981.981,0,0,1-918.073,282.209Zm-159.8-.079a.979.979,0,0,1,.069-1.384h0a.987.987,0,0,1,1.384.059h0a1,1,0,0,1-.059,1.393h0a1.033,1.033,0,0,1-.667.255h0A.977.977,0,0,1-1077.869,282.131Zm320.976-.216a.978.978,0,0,1,.039-1.384h0a.977.977,0,0,1,1.384.039h0a.989.989,0,0,1-.039,1.393h0a.976.976,0,0,1-.667.265h0A.965.965,0,0,1-756.893,281.915Zm-11.441-.039a.976.976,0,0,1-.049-1.384h0a.969.969,0,0,1,1.383-.049h0a.979.979,0,0,1,.059,1.384h0a1,1,0,0,1-.726.314h0A.993.993,0,0,1-768.335,281.876Zm-321.025-.147a.969.969,0,0,1-.049-1.384h0a.978.978,0,0,1,1.384-.059h0a.99.99,0,0,1,.049,1.393h0a.967.967,0,0,1-.716.314h0A.977.977,0,0,1-1089.36,281.728Zm159.757-.02a.99.99,0,0,1-.069-1.393h0a.987.987,0,0,1,1.384-.069h0a.99.99,0,0,1,.069,1.393h0a1,1,0,0,1-.726.324h0A.989.989,0,0,1-929.6,281.709Zm-471.647-.108a.979.979,0,0,1,.078-1.384h0a.978.978,0,0,1,1.384.069h0a.99.99,0,0,1-.069,1.393h0a.979.979,0,0,1-.657.245h0A.983.983,0,0,1-1401.25,281.6Zm150.681-.137a.978.978,0,0,1-.049-1.384h0a.978.978,0,0,1,1.384-.059h0a.981.981,0,0,1,.049,1.393h0a.967.967,0,0,1-.716.314h0A.976.976,0,0,1-1250.569,281.463Zm654.522-.186a.978.978,0,0,1,.069-1.384h0a.99.99,0,0,1,1.393.069h0a.988.988,0,0,1-.069,1.384h0a1.035,1.035,0,0,1-.667.255h0A.978.978,0,0,1-596.047,281.277Zm-813.867-.2a.978.978,0,0,1-.069-1.384h0a.97.97,0,0,1,1.384-.069h0a.978.978,0,0,1,.069,1.384h0a1.015,1.015,0,0,1-.726.324h0A.989.989,0,0,1-1409.914,281.081Zm799.462-1.119a.99.99,0,0,1-.059-1.393h0a1,1,0,0,1,1.393-.049h0a1,1,0,0,1,.048,1.393h0a.985.985,0,0,1-.715.3h0A.949.949,0,0,1-610.452,279.962Zm-625.772-.265a.99.99,0,0,1,.049-1.393h0a.978.978,0,0,1,1.384.059h0a.978.978,0,0,1-.049,1.384h0a.976.976,0,0,1-.667.265h0A.967.967,0,0,1-1236.223,279.7Zm321.025-.157a.977.977,0,0,1,.049-1.384h0a.99.99,0,0,1,1.393.049h0a.99.99,0,0,1-.059,1.393h0a.991.991,0,0,1-.657.255h0A1,1,0,0,1-915.2,279.54Zm-159.767-.059a.97.97,0,0,1,.059-1.384h0a.978.978,0,0,1,1.384.069h0a.969.969,0,0,1-.059,1.384h0a1,1,0,0,1-.667.255h0A.942.942,0,0,1-1074.965,279.481Zm320.927-.245a1,1,0,0,1,.049-1.393h0a.969.969,0,0,1,1.383.049h0a.978.978,0,0,1-.039,1.384h0a1,1,0,0,1-.677.265h0A.987.987,0,0,1-754.038,279.236Zm-17.172-.029a.978.978,0,0,1-.05-1.384h0a.979.979,0,0,1,1.385-.049h0a.968.968,0,0,1,.048,1.384h0a.965.965,0,0,1-.715.314h0A.977.977,0,0,1-771.21,279.207Zm-161.307-.128a.99.99,0,0,1-.069-1.393h0a.987.987,0,0,1,1.384-.069h0a.981.981,0,0,1,.069,1.393h0a1,1,0,0,1-.726.324h0A.989.989,0,0,1-932.517,279.079Zm-159.728-.02a.987.987,0,0,1-.049-1.384h0a.99.99,0,0,1,1.393-.059h0a1,1,0,0,1,.049,1.393h0a1,1,0,0,1-.726.314h0A.994.994,0,0,1-1092.245,279.059Zm-306.081-.078a.981.981,0,0,1,.069-1.393h0a.978.978,0,0,1,1.384.069h0a.99.99,0,0,1-.069,1.393h0a.979.979,0,0,1-.657.245h0A.973.973,0,0,1-1398.325,278.981Zm144.881-.186a.978.978,0,0,1-.059-1.384h0a.981.981,0,0,1,1.393-.049h0a.977.977,0,0,1,.049,1.384h0a.983.983,0,0,1-.716.314h0A.959.959,0,0,1-1253.444,278.794Zm660.311-.147a1,1,0,0,1,.069-1.393h0a1,1,0,0,1,1.393.078h0a.979.979,0,0,1-.078,1.384h0a.986.986,0,0,1-.648.255h0A.981.981,0,0,1-593.133,278.647Zm-819.7-.2a.978.978,0,0,1-.069-1.384h0a.979.979,0,0,1,1.384-.078h0a.99.99,0,0,1,.069,1.393h0a1.015,1.015,0,0,1-.726.324h0A.989.989,0,0,1-1412.828,278.451Zm799.492-1.158a.977.977,0,0,1-.049-1.384h0a.978.978,0,0,1,1.384-.059h0a.979.979,0,0,1,.059,1.384h0a.978.978,0,0,1-.726.324h0A.976.976,0,0,1-613.336,277.293Zm-620.012-.265a1,1,0,0,1,.049-1.393h0a.99.99,0,0,1,1.393.059h0a.979.979,0,0,1-.059,1.384h0a.959.959,0,0,1-.667.265h0A.983.983,0,0,1-1233.348,277.028Zm321.034-.157a.97.97,0,0,1,.05-1.384h0a.986.986,0,0,1,1.383.049h0a.989.989,0,0,1-.048,1.393h0a1.014,1.014,0,0,1-.667.255h0A.934.934,0,0,1-912.314,276.871Zm-159.756-.029a1,1,0,0,1,.059-1.393h0a.991.991,0,0,1,1.393.069h0a.979.979,0,0,1-.069,1.384h0a.943.943,0,0,1-.658.255h0A1,1,0,0,1-1072.07,276.842Zm320.9-.294a.969.969,0,0,1,.049-1.384h0a.978.978,0,0,1,1.384.039h0a.97.97,0,0,1-.049,1.384h0a.959.959,0,0,1-.667.265h0A.971.971,0,0,1-751.172,276.547Zm-22.912-.01a.977.977,0,0,1-.059-1.384h0a.99.99,0,0,1,1.393-.049h0a.977.977,0,0,1,.049,1.384h0a.984.984,0,0,1-.716.314h0A.959.959,0,0,1-774.085,276.538Zm-161.347-.088a.978.978,0,0,1-.069-1.384h0a.97.97,0,0,1,1.384-.079h0a.99.99,0,0,1,.069,1.393h0a1,1,0,0,1-.726.324h0A.989.989,0,0,1-935.431,276.449Zm-459.99-.108a.979.979,0,0,1,.078-1.384h0a.978.978,0,0,1,1.384.069h0a.99.99,0,0,1-.069,1.393h0a.979.979,0,0,1-.657.245h0A.983.983,0,0,1-1395.421,276.341Zm300.3.049a.978.978,0,0,1-.049-1.384h0a.978.978,0,0,1,1.384-.059h0a.99.99,0,0,1,.059,1.393h0a1,1,0,0,1-.726.314h0A.977.977,0,0,1-1095.12,276.39Zm-161.209-.265a.977.977,0,0,1-.049-1.384h0a.978.978,0,0,1,1.384-.049h0a.978.978,0,0,1,.059,1.384h0a1,1,0,0,1-.726.314h0A.994.994,0,0,1-1256.329,276.125Zm666.11-.108a.979.979,0,0,1,.07-1.384h0a.99.99,0,0,1,1.393.069h0a.979.979,0,0,1-.079,1.384h0a.989.989,0,0,1-.657.255h0A.981.981,0,0,1-590.219,276.018Zm-825.523-.2a.978.978,0,0,1-.069-1.384h0a.979.979,0,0,1,1.384-.078h0a.99.99,0,0,1,.069,1.393h0a.978.978,0,0,1-.726.324h0A.989.989,0,0,1-1415.743,275.821Zm799.531-1.2a.978.978,0,0,1-.059-1.384h0a.99.99,0,0,1,1.393-.059h0a.989.989,0,0,1,.048,1.393h0a.981.981,0,0,1-.715.314h0A.959.959,0,0,1-616.212,274.624Zm-614.261-.265a.99.99,0,0,1,.059-1.393h0a.978.978,0,0,1,1.384.059h0a.978.978,0,0,1-.049,1.384h0a1,1,0,0,1-.667.265h0A1,1,0,0,1-1230.473,274.359Zm321.035-.157a.977.977,0,0,1,.049-1.384h0a.977.977,0,0,1,1.384.049h0a.982.982,0,0,1-.049,1.393h0a.949.949,0,0,1-.667.255h0A.947.947,0,0,1-909.438,274.2Zm-159.737-.01a.978.978,0,0,1,.069-1.384h0a.97.97,0,0,1,1.384.059h0a.978.978,0,0,1-.069,1.384h0a.942.942,0,0,1-.657.255h0A.967.967,0,0,1-1069.175,274.192Zm320.868-.334a.978.978,0,0,1,.039-1.384h0a.989.989,0,0,1,1.393.039h0a1,1,0,0,1-.049,1.393h0a.976.976,0,0,1-.667.265h0A.983.983,0,0,1-748.307,273.859Zm-28.662.02a.989.989,0,0,1-.049-1.393h0a.977.977,0,0,1,1.383-.049h0a.977.977,0,0,1,.06,1.384h0a1,1,0,0,1-.726.314h0A1.014,1.014,0,0,1-776.969,273.878Zm-161.376-.059a.978.978,0,0,1-.069-1.384h0a.979.979,0,0,1,1.384-.078h0a.981.981,0,0,1,.069,1.393h0a.962.962,0,0,1-.726.324h0A.989.989,0,0,1-938.346,273.82Zm-454.161-.108a.979.979,0,0,1,.078-1.384h0a.978.978,0,0,1,1.384.069h0a.99.99,0,0,1-.069,1.393h0a1,1,0,0,1-.657.245h0A.983.983,0,0,1-1392.507,273.712Zm294.512.01a.978.978,0,0,1-.059-1.384h0a.981.981,0,0,1,1.393-.049h0a.977.977,0,0,1,.049,1.384h0a.983.983,0,0,1-.716.314h0A.959.959,0,0,1-1097.995,273.721Zm-161.209-.265a.977.977,0,0,1-.049-1.384h0a.978.978,0,0,1,1.384-.049h0a.978.978,0,0,1,.049,1.384h0a.967.967,0,0,1-.716.314h0A.976.976,0,0,1-1259.2,273.456Zm671.9-.069a.979.979,0,0,1,.068-1.384h0a.99.99,0,0,1,1.393.069h0a.98.98,0,0,1-.078,1.384h0a.99.99,0,0,1-.658.255h0A.976.976,0,0,1-587.3,273.388Zm-831.353-.2a.978.978,0,0,1-.069-1.384h0a.979.979,0,0,1,1.383-.078h0a.99.99,0,0,1,.069,1.393h0a.978.978,0,0,1-.726.324h0A.989.989,0,0,1-1418.657,273.192Zm799.56-1.236a.977.977,0,0,1-.049-1.384h0a.979.979,0,0,1,1.384-.059h0a.99.99,0,0,1,.059,1.393h0a1.007,1.007,0,0,1-.727.314h0A.994.994,0,0,1-619.1,271.955Zm-608.492-.265a.977.977,0,0,1,.049-1.384h0a.98.98,0,0,1,1.393.049h0a.978.978,0,0,1-.059,1.384h0a.977.977,0,0,1-.667.265h0A.967.967,0,0,1-1227.588,271.69Zm161.317-.147a.969.969,0,0,1,.059-1.384h0a.978.978,0,0,1,1.383.059h0a.981.981,0,0,1-.059,1.393h0a1,1,0,0,1-.667.255h0A.942.942,0,0,1-1066.271,271.543Zm159.708-.01a.987.987,0,0,1,.049-1.384h0a.988.988,0,0,1,1.392.049h0a1,1,0,0,1-.048,1.393h0a.985.985,0,0,1-.667.255h0A.966.966,0,0,1-906.563,271.533Zm161.111-.353a1,1,0,0,1,.049-1.393h0a.969.969,0,0,1,1.384.049h0a.978.978,0,0,1-.039,1.384h0a.982.982,0,0,1-.677.265h0A.987.987,0,0,1-745.452,271.18Zm-34.394.029a.982.982,0,0,1-.048-1.393h0a.977.977,0,0,1,1.384-.049h0a.979.979,0,0,1,.049,1.384h0a.932.932,0,0,1-.716.314h0A.97.97,0,0,1-779.846,271.209Zm-161.414-.02a.99.99,0,0,1-.069-1.393h0a.987.987,0,0,1,1.384-.069h0a.99.99,0,0,1,.069,1.393h0a.982.982,0,0,1-.726.324h0A.989.989,0,0,1-941.26,271.19Zm-448.332-.1a.99.99,0,0,1,.078-1.393h0a.978.978,0,0,1,1.384.069h0a1,1,0,0,1-.069,1.393h0a.979.979,0,0,1-.657.245h0A1.01,1.01,0,0,1-1389.592,271.092Zm288.713-.039a.986.986,0,0,1-.049-1.384h0a.981.981,0,0,1,1.393-.049h0a.986.986,0,0,1,.049,1.384h0a1,1,0,0,1-.716.314h0A1,1,0,0,1-1100.88,271.052Zm516.49-.294a.978.978,0,0,1,.069-1.384h0a.99.99,0,0,1,1.393.069h0a.979.979,0,0,1-.079,1.384h0a.991.991,0,0,1-.657.255h0A.977.977,0,0,1-584.39,270.758Zm-677.689.039a.99.99,0,0,1-.059-1.393h0a.99.99,0,0,1,1.393-.049h0a.987.987,0,0,1,.049,1.384h0a1,1,0,0,1-.726.314h0A.989.989,0,0,1-1262.079,270.8Zm-159.492-.236a.978.978,0,0,1-.069-1.384h0a.988.988,0,0,1,1.384-.078h0a.99.99,0,0,1,.069,1.393h0a.962.962,0,0,1-.726.324h0A.989.989,0,0,1-1421.571,270.562Zm799.6-1.276a.977.977,0,0,1-.049-1.384h0a.977.977,0,0,1,1.383-.059h0a.98.98,0,0,1,.05,1.393h0a.967.967,0,0,1-.716.314h0A.973.973,0,0,1-621.972,269.286Zm-602.742-.265a.986.986,0,0,1,.049-1.384h0a.99.99,0,0,1,1.393.049h0a.978.978,0,0,1-.059,1.384h0a.959.959,0,0,1-.667.265h0A1,1,0,0,1-1224.713,269.021Zm161.337-.128a.978.978,0,0,1,.059-1.384h0a.987.987,0,0,1,1.384.059h0a.981.981,0,0,1-.059,1.393h0a.989.989,0,0,1-.658.255h0A.978.978,0,0,1-1063.376,268.894Zm159.687-.029a.988.988,0,0,1,.06-1.384h0a.978.978,0,0,1,1.384.059h0a.977.977,0,0,1-.05,1.384h0a.972.972,0,0,1-.666.265h0A.981.981,0,0,1-903.689,268.864Zm-40.485-.3a.978.978,0,0,1-.069-1.384h0a.979.979,0,0,1,1.384-.078h0a.991.991,0,0,1,.078,1.393h0a1.02,1.02,0,0,1-.736.324h0A.989.989,0,0,1-944.174,268.56Zm161.455-.02a.99.99,0,0,1-.059-1.393h0a1,1,0,0,1,1.393-.049h0a.979.979,0,0,1,.049,1.384h0a.962.962,0,0,1-.717.314h0A.947.947,0,0,1-782.72,268.54Zm40.133-.049a.981.981,0,0,1,.049-1.393h0a.987.987,0,0,1,1.384.049h0a.97.97,0,0,1-.049,1.384h0a.959.959,0,0,1-.667.265h0A.987.987,0,0,1-742.587,268.491Zm-644.091-.039a.979.979,0,0,1,.078-1.384h0a.97.97,0,0,1,1.384.078h0a.971.971,0,0,1-.078,1.384h0a.973.973,0,0,1-.648.245h0A.983.983,0,0,1-1386.678,268.452Zm282.923-.069A.977.977,0,0,1-1103.8,267h0a.977.977,0,0,1,1.384-.049h0a.977.977,0,0,1,.049,1.384h0a.967.967,0,0,1-.716.314h0A.976.976,0,0,1-1103.755,268.383Zm522.279-.255a.977.977,0,0,1,.069-1.384h0a.991.991,0,0,1,1.393.069h0a.979.979,0,0,1-.078,1.384h0a.989.989,0,0,1-.657.255h0A.978.978,0,0,1-581.475,268.128Zm-683.489,0a.99.99,0,0,1-.049-1.393h0a.987.987,0,0,1,1.384-.049h0a.978.978,0,0,1,.059,1.384h0a.968.968,0,0,1-.726.314h0A1.033,1.033,0,0,1-1264.964,268.128Zm-159.522-.2a.978.978,0,0,1-.069-1.384h0a.979.979,0,0,1,1.384-.078h0a.991.991,0,0,1,.069,1.393h0a.962.962,0,0,1-.726.324h0A.989.989,0,0,1-1424.486,267.932Zm799.638-1.315a.979.979,0,0,1-.058-1.384h0a.981.981,0,0,1,1.393-.049h0a.978.978,0,0,1,.049,1.384h0a1,1,0,0,1-.716.314h0A.963.963,0,0,1-624.848,266.617Zm-596.981-.265a.969.969,0,0,1,.049-1.384h0a.969.969,0,0,1,1.384.049h0a.977.977,0,0,1-.049,1.384h0a.976.976,0,0,1-.667.265h0A.967.967,0,0,1-1221.828,266.352Zm161.347-.1a.991.991,0,0,1,.069-1.393h0a.979.979,0,0,1,1.384.069h0a.979.979,0,0,1-.069,1.384h0a.989.989,0,0,1-.657.255h0A1,1,0,0,1-1060.482,266.254Zm159.679-.049a1,1,0,0,1,.049-1.393h0a.99.99,0,0,1,1.393.059h0a.987.987,0,0,1-.049,1.384h0a1,1,0,0,1-.678.265h0A.982.982,0,0,1-900.8,266.205Zm-46.285-.275a.978.978,0,0,1-.069-1.384h0a.979.979,0,0,1,1.384-.079h0a.991.991,0,0,1,.079,1.393h0a.983.983,0,0,1-.736.324h0A.989.989,0,0,1-947.089,265.93Zm-436.675-.108a.978.978,0,0,1,.069-1.384h0a1,1,0,0,1,1.393.069h0a1,1,0,0,1-.069,1.393h0a1.022,1.022,0,0,1-.667.245h0A.978.978,0,0,1-1383.764,265.822Zm598.159.049a.991.991,0,0,1-.05-1.393h0a.988.988,0,0,1,1.385-.049h0a.991.991,0,0,1,.059,1.393h0a1.006,1.006,0,0,1-.726.314h0A.992.992,0,0,1-785.6,265.871Zm45.883-.069a.978.978,0,0,1,.039-1.384h0a.989.989,0,0,1,1.393.039h0a1,1,0,0,1-.049,1.393h0a.976.976,0,0,1-.667.265h0A.983.983,0,0,1-739.721,265.8Zm-366.908-.088a.978.978,0,0,1-.059-1.384h0a.989.989,0,0,1,1.393-.049h0a.987.987,0,0,1,.049,1.384h0a.983.983,0,0,1-.716.314h0A.959.959,0,0,1-1106.63,265.714Zm528.069-.216a.977.977,0,0,1,.069-1.384h0a.978.978,0,0,1,1.384.069h0a.978.978,0,0,1-.07,1.384h0a.985.985,0,0,1-.656.255h0A.976.976,0,0,1-578.561,265.5Zm-689.278-.039a.99.99,0,0,1-.059-1.393h0a1,1,0,0,1,1.393-.049h0a.978.978,0,0,1,.049,1.384h0a.932.932,0,0,1-.716.314h0A.966.966,0,0,1-1267.839,265.459ZM-1427.4,265.3a.978.978,0,0,1-.069-1.384h0a.97.97,0,0,1,1.384-.069h0a.978.978,0,0,1,.069,1.384h0a.963.963,0,0,1-.726.324h0A.989.989,0,0,1-1427.4,265.3Zm799.668-1.354a.977.977,0,0,1-.049-1.384h0a.978.978,0,0,1,1.384-.049h0a.979.979,0,0,1,.059,1.384h0a1,1,0,0,1-.726.314h0A.993.993,0,0,1-627.731,263.948Zm-591.222-.265a.978.978,0,0,1,.049-1.384h0a.99.99,0,0,1,1.393.049h0a.99.99,0,0,1-.059,1.393h0a1,1,0,0,1-.667.255h0A.983.983,0,0,1-1218.953,263.683Zm161.376-.078a.981.981,0,0,1,.059-1.393h0a.978.978,0,0,1,1.383.069h0a.978.978,0,0,1-.059,1.384h0a.967.967,0,0,1-.667.255h0A.967.967,0,0,1-1057.577,263.6Zm159.649-.069a.989.989,0,0,1,.059-1.393h0a.979.979,0,0,1,1.384.059h0a.977.977,0,0,1-.05,1.384h0a.99.99,0,0,1-.666.265h0A1,1,0,0,1-897.928,263.536ZM-950,263.3a.99.99,0,0,1-.069-1.393h0a.987.987,0,0,1,1.384-.069h0a.99.99,0,0,1,.078,1.393h0a1.02,1.02,0,0,1-.736.324h0A.989.989,0,0,1-950,263.3Zm-430.846-.1a.99.99,0,0,1,.069-1.393h0a1,1,0,0,1,1.393.069h0a.99.99,0,0,1-.078,1.393h0a.983.983,0,0,1-.648.255h0A1.06,1.06,0,0,1-1380.849,263.2Zm592.37,0a.968.968,0,0,1-.049-1.384h0a.978.978,0,0,1,1.384-.059h0a.979.979,0,0,1,.049,1.384h0a.957.957,0,0,1-.716.324h0A.959.959,0,0,1-788.48,263.2Zm51.623-.088a.978.978,0,0,1,.039-1.384h0a.969.969,0,0,1,1.384.049h0a.978.978,0,0,1-.039,1.384h0a.982.982,0,0,1-.677.265h0A.96.96,0,0,1-736.856,263.114Zm-372.658-.059a.989.989,0,0,1-.049-1.393h0a.978.978,0,0,1,1.384-.049h0a.978.978,0,0,1,.059,1.384h0a1,1,0,0,1-.726.314h0A1.033,1.033,0,0,1-1109.515,263.055Zm642.423-.088a.98.98,0,0,1-.088-1.384h0a.97.97,0,0,1,1.384-.088h0a.979.979,0,0,1,.088,1.384h0a1,1,0,0,1-.736.334h0A1.022,1.022,0,0,1-467.091,262.967Zm-108.556-.1a.979.979,0,0,1,.068-1.384h0a.978.978,0,0,1,1.384.069h0a.978.978,0,0,1-.068,1.384h0a.991.991,0,0,1-.657.255h0A.978.978,0,0,1-575.647,262.869Zm-695.067-.078a.979.979,0,0,1-.059-1.384h0a.979.979,0,0,1,1.384-.059h0a.99.99,0,0,1,.059,1.393h0a.989.989,0,0,1-.716.3h0A.949.949,0,0,1-1270.714,262.79Zm-159.6-.118a.978.978,0,0,1-.069-1.384h0a.988.988,0,0,1,1.383-.078h0a.99.99,0,0,1,.069,1.393h0a.963.963,0,0,1-.726.324h0A.989.989,0,0,1-1430.314,262.673Zm799.708-1.384a.982.982,0,0,1-.05-1.393h0a.979.979,0,0,1,1.384-.049h0a.977.977,0,0,1,.048,1.384h0a.965.965,0,0,1-.715.314h0A1.014,1.014,0,0,1-630.607,261.289Zm-585.472-.275a.978.978,0,0,1,.059-1.384h0a.978.978,0,0,1,1.384.049h0a.978.978,0,0,1-.059,1.384h0a.959.959,0,0,1-.667.265h0A1,1,0,0,1-1216.078,261.014Zm161.4-.059a.978.978,0,0,1,.059-1.384h0a.981.981,0,0,1,1.393.059h0a.978.978,0,0,1-.069,1.384h0a.942.942,0,0,1-.657.255h0A1,1,0,0,1-1054.682,260.955Zm159.639-.088a.989.989,0,0,1,.049-1.393h0a.978.978,0,0,1,1.384.059h0a.978.978,0,0,1-.049,1.384h0a.961.961,0,0,1-.668.265h0A.983.983,0,0,1-895.043,260.867Zm-57.874-.2a.978.978,0,0,1-.069-1.384h0a.99.99,0,0,1,1.393-.078h0a1,1,0,0,1,.069,1.393h0a.983.983,0,0,1-.736.324h0A1.028,1.028,0,0,1-952.917,260.671Zm-425.018-.1a.99.99,0,0,1,.069-1.393h0a.982.982,0,0,1,1.393.078h0a.98.98,0,0,1-.078,1.384h0a.979.979,0,0,1-.657.245h0A1,1,0,0,1-1377.935,260.573Zm586.571-.039a.988.988,0,0,1-.05-1.384h0a.98.98,0,0,1,1.385-.059h0a.99.99,0,0,1,.059,1.393h0a1,1,0,0,1-.716.314h0A1,1,0,0,1-791.364,260.533Zm57.364-.1a.981.981,0,0,1,.049-1.393h0a.987.987,0,0,1,1.384.049h0a.978.978,0,0,1-.039,1.384h0a1,1,0,0,1-.677.265h0A.987.987,0,0,1-734,260.435Zm-378.389-.049a.99.99,0,0,1-.049-1.393h0a.986.986,0,0,1,1.384-.049h0a.978.978,0,0,1,.049,1.384h0a.932.932,0,0,1-.716.314h0A1.013,1.013,0,0,1-1112.39,260.386Zm642.355-.01a.981.981,0,0,1-.1-1.384h0a.97.97,0,0,1,1.383-.088h0a.971.971,0,0,1,.089,1.384h0a.977.977,0,0,1-.736.334h0A.946.946,0,0,1-470.035,260.376Zm-102.7-.137a.978.978,0,0,1,.069-1.384h0a.978.978,0,0,1,1.384.069h0a.979.979,0,0,1-.069,1.384h0a.991.991,0,0,1-.657.255h0A.976.976,0,0,1-572.732,260.239Zm-700.867-.118a.978.978,0,0,1-.049-1.384h0a.978.978,0,0,1,1.383-.059h0a.981.981,0,0,1,.049,1.393h0a.967.967,0,0,1-.716.314h0A.977.977,0,0,1-1273.6,260.121Zm-159.629-.078a.978.978,0,0,1-.069-1.384h0a.979.979,0,0,1,1.384-.079h0a.982.982,0,0,1,.069,1.393h0a.962.962,0,0,1-.726.324h0A.989.989,0,0,1-1433.228,260.043Zm799.747-1.433a.977.977,0,0,1-.059-1.384h0a.99.99,0,0,1,1.393-.049h0a.979.979,0,0,1,.049,1.384h0a1,1,0,0,1-.727.314h0A.952.952,0,0,1-633.482,258.61Zm-579.712-.265a.969.969,0,0,1,.049-1.384h0a.977.977,0,0,1,1.384.049h0a.99.99,0,0,1-.049,1.393h0a1.014,1.014,0,0,1-.667.255h0A.932.932,0,0,1-1213.193,258.345Zm161.406-.039a.978.978,0,0,1,.069-1.384h0a.978.978,0,0,1,1.384.059h0a.978.978,0,0,1-.069,1.384h0a.953.953,0,0,1-.657.265h0A.977.977,0,0,1-1051.788,258.306Zm159.62-.108a.987.987,0,0,1,.048-1.384h0a.981.981,0,0,1,1.393.049h0a.986.986,0,0,1-.048,1.384h0a1,1,0,0,1-.677.265h0A1,1,0,0,1-892.168,258.2Zm-63.654-.157a.97.97,0,0,1-.078-1.384h0a.979.979,0,0,1,1.384-.078h0a.982.982,0,0,1,.078,1.393h0a.983.983,0,0,1-.736.324h0A.984.984,0,0,1-955.822,258.041Zm-419.2-.108a.979.979,0,0,1,.069-1.384h0a.991.991,0,0,1,1.393.078h0a.979.979,0,0,1-.078,1.384h0a.989.989,0,0,1-.657.255h0A.988.988,0,0,1-1375.021,257.933Zm580.78-.069a.979.979,0,0,1-.048-1.384h0a.978.978,0,0,1,1.384-.059h0a.981.981,0,0,1,.049,1.393h0a.967.967,0,0,1-.716.314h0A.981.981,0,0,1-794.24,257.864Zm63.105-.118a.969.969,0,0,1,.049-1.384h0a.978.978,0,0,1,1.384.039h0a.97.97,0,0,1-.049,1.384h0a.944.944,0,0,1-.667.275h0A.983.983,0,0,1-731.135,257.747Zm258.147.039a.97.97,0,0,1-.088-1.384h0a.969.969,0,0,1,1.383-.088h0a.987.987,0,0,1,.089,1.384h0a.993.993,0,0,1-.736.334h0A.954.954,0,0,1-472.989,257.786Zm-642.276-.069a.99.99,0,0,1-.059-1.393h0a1,1,0,0,1,1.393-.049h0a1,1,0,0,1,.049,1.393h0a.973.973,0,0,1-.716.3h0A.95.95,0,0,1-1115.265,257.717Zm545.446-.108a.978.978,0,0,1,.07-1.384h0a.978.978,0,0,1,1.384.069h0a.978.978,0,0,1-.069,1.384h0a.989.989,0,0,1-.657.255h0A.981.981,0,0,1-569.819,257.609Zm-706.655-.157a.978.978,0,0,1-.059-1.384h0a.99.99,0,0,1,1.393-.059h0a.99.99,0,0,1,.049,1.393h0a.983.983,0,0,1-.716.314h0A.959.959,0,0,1-1276.474,257.452Zm-159.669-.039a.978.978,0,0,1-.069-1.384h0a.97.97,0,0,1,1.384-.069h0a.988.988,0,0,1,.078,1.384h0a1,1,0,0,1-.736.324h0A.989.989,0,0,1-1436.143,257.413Zm799.776-1.462a.99.99,0,0,1-.05-1.393h0a.978.978,0,0,1,1.384-.049h0a.978.978,0,0,1,.06,1.384h0a.969.969,0,0,1-.726.314h0A.966.966,0,0,1-636.366,255.951Zm-573.952-.275a.978.978,0,0,1,.049-1.384h0a.99.99,0,0,1,1.393.059h0a.979.979,0,0,1-.059,1.384h0a.949.949,0,0,1-.667.255h0A.947.947,0,0,1-1210.318,255.676Zm161.425-.02a.979.979,0,0,1,.069-1.384h0a.987.987,0,0,1,1.383.059h0a1,1,0,0,1-.059,1.393h0a1,1,0,0,1-.667.255h0A.978.978,0,0,1-1048.893,255.657Zm159.6-.128a.979.979,0,0,1,.06-1.384h0a.978.978,0,0,1,1.384.049h0a.99.99,0,0,1-.049,1.393h0a1.014,1.014,0,0,1-.667.255h0A1.008,1.008,0,0,1-889.294,255.529Zm-69.452-.118a.987.987,0,0,1-.069-1.384h0a.99.99,0,0,1,1.393-.078h0a1,1,0,0,1,.069,1.393h0a1.02,1.02,0,0,1-.736.324h0A1.027,1.027,0,0,1-958.746,255.411Zm-413.361-.1a.99.99,0,0,1,.069-1.393h0a1,1,0,0,1,1.393.069h0a1,1,0,0,1-.079,1.393h0a.989.989,0,0,1-.657.255h0A1.015,1.015,0,0,1-1372.107,255.313Zm574.992-.118a.978.978,0,0,1-.059-1.384h0a.99.99,0,0,1,1.393-.059h0a.99.99,0,0,1,.049,1.393h0a.983.983,0,0,1-.717.314h0A.957.957,0,0,1-797.115,255.2Zm321.171,0a.988.988,0,0,1-.087-1.384h0a.971.971,0,0,1,1.384-.088h0a.97.97,0,0,1,.088,1.384h0a.977.977,0,0,1-.736.334h0A.977.977,0,0,1-475.943,255.2Zm-252.327-.137a.978.978,0,0,1,.039-1.384h0a.969.969,0,0,1,1.384.049h0a.978.978,0,0,1-.039,1.384h0a.977.977,0,0,1-.668.265h0A.965.965,0,0,1-728.27,255.058Zm-389.879-.01a.978.978,0,0,1-.049-1.384h0a.978.978,0,0,1,1.384-.059h0a.969.969,0,0,1,.049,1.384h0a.933.933,0,0,1-.716.314h0A.966.966,0,0,1-1118.15,255.048Zm551.246-.069a.978.978,0,0,1,.068-1.384h0a.979.979,0,0,1,1.385.069h0a.978.978,0,0,1-.07,1.384h0a.985.985,0,0,1-.657.255h0A.976.976,0,0,1-566.9,254.98Zm-712.455-.2a.987.987,0,0,1-.049-1.384h0a.978.978,0,0,1,1.383-.059h0a.99.99,0,0,1,.059,1.393h0a1,1,0,0,1-.726.314h0A.994.994,0,0,1-1279.359,254.783Zm-159.7,0a.978.978,0,0,1-.069-1.384h0a.988.988,0,0,1,1.384-.079h0a.981.981,0,0,1,.069,1.393h0a.947.947,0,0,1-.726.324h0A.989.989,0,0,1-1439.057,254.783Zm799.815-1.5a.991.991,0,0,1-.058-1.393h0a1,1,0,0,1,1.393-.049h0a.979.979,0,0,1,.049,1.384h0a.948.948,0,0,1-.716.314h0A.953.953,0,0,1-639.242,253.282Zm-406.746-.265a.99.99,0,0,1,.059-1.393h0a.991.991,0,0,1,1.393.069h0a.979.979,0,0,1-.069,1.384h0a.989.989,0,0,1-.657.255h0A1,1,0,0,1-1045.989,253.017Zm-161.455,0a.99.99,0,0,1,.059-1.393h0a.987.987,0,0,1,1.384.049h0a.99.99,0,0,1-.049,1.393h0a1,1,0,0,1-.667.265h0A1,1,0,0,1-1207.443,253.017Zm321.035-.157a.978.978,0,0,1,.049-1.384h0a.99.99,0,0,1,1.393.049h0a.988.988,0,0,1-.059,1.384h0a.976.976,0,0,1-.667.265h0A.983.983,0,0,1-886.408,252.86Zm-75.242-.079a.979.979,0,0,1-.078-1.384h0a.991.991,0,0,1,1.393-.079h0a.99.99,0,0,1,.069,1.393h0a.978.978,0,0,1-.726.324h0A.989.989,0,0,1-961.65,252.782Zm-407.542-.1a.99.99,0,0,1,.069-1.393h0a.991.991,0,0,1,1.393.079h0a.979.979,0,0,1-.078,1.384h0a.989.989,0,0,1-.657.255h0A1.015,1.015,0,0,1-1369.192,252.683Zm890.305-.079a.969.969,0,0,1-.087-1.384h0a.979.979,0,0,1,1.384-.088h0a.988.988,0,0,1,.088,1.384h0a.96.96,0,0,1-.736.334h0A.958.958,0,0,1-478.887,252.6ZM-800,252.526a.978.978,0,0,1-.048-1.384h0a.969.969,0,0,1,1.384-.049h0a.979.979,0,0,1,.059,1.384h0a1,1,0,0,1-.726.314h0A1,1,0,0,1-800,252.526Zm74.586-.147a1,1,0,0,1,.049-1.393h0a.969.969,0,0,1,1.384.049h0a.979.979,0,0,1-.039,1.384h0a1,1,0,0,1-.677.265h0A.987.987,0,0,1-725.415,252.379Zm161.425-.029a.978.978,0,0,1,.069-1.384h0a.977.977,0,0,1,1.383.069h0a.978.978,0,0,1-.068,1.384h0a.991.991,0,0,1-.657.255h0A.961.961,0,0,1-563.99,252.35Zm-557.035.029a.979.979,0,0,1-.059-1.384h0a.99.99,0,0,1,1.393-.059h0a.99.99,0,0,1,.049,1.393h0a.967.967,0,0,1-.716.314h0A.977.977,0,0,1-1121.025,252.379Zm-320.947-.226a.978.978,0,0,1-.069-1.384h0a.979.979,0,0,1,1.384-.078h0a.991.991,0,0,1,.079,1.393h0a.983.983,0,0,1-.736.324h0A.989.989,0,0,1-1441.971,252.154Zm159.737-.039a.969.969,0,0,1-.049-1.384h0a.978.978,0,0,1,1.384-.059h0a.981.981,0,0,1,.049,1.393h0a.967.967,0,0,1-.716.314h0A.976.976,0,0,1-1282.234,252.114Zm640.108-1.5a1,1,0,0,1-.049-1.393h0a.986.986,0,0,1,1.383-.049h0a.989.989,0,0,1,.06,1.393h0a.989.989,0,0,1-.717.3h0A.987.987,0,0,1-642.126,250.613Zm-400.968-.245a1,1,0,0,1,.059-1.393h0a.991.991,0,0,1,1.393.069h0a.978.978,0,0,1-.069,1.384h0a.943.943,0,0,1-.657.255h0A1,1,0,0,1-1043.094,250.368Zm-161.464-.02a.981.981,0,0,1,.049-1.393h0a.978.978,0,0,1,1.384.059h0a.969.969,0,0,1-.049,1.384h0a.976.976,0,0,1-.667.265h0A.967.967,0,0,1-1204.558,250.348Zm321.024-.157a.987.987,0,0,1,.05-1.384h0a.99.99,0,0,1,1.393.049h0a1,1,0,0,1-.05,1.393h0a1.028,1.028,0,0,1-.666.255h0A1.008,1.008,0,0,1-883.534,250.191Zm-81.031-.039a.979.979,0,0,1-.078-1.384h0a.981.981,0,0,1,1.393-.069h0a.978.978,0,0,1,.069,1.384h0a.977.977,0,0,1-.726.324h0A.989.989,0,0,1-964.565,250.152Zm-401.713-.1a.99.99,0,0,1,.069-1.393h0a.979.979,0,0,1,1.384.079h0a.978.978,0,0,1-.069,1.384h0a.989.989,0,0,1-.657.255h0A1.015,1.015,0,0,1-1366.278,250.054Zm884.438-.039a.986.986,0,0,1-.088-1.384h0a.98.98,0,0,1,1.384-.088h0a.97.97,0,0,1,.088,1.384h0a.946.946,0,0,1-.736.334h0A.972.972,0,0,1-481.839,250.014Zm-321.035-.157a.977.977,0,0,1-.049-1.384h0a.978.978,0,0,1,1.384-.049h0a.979.979,0,0,1,.049,1.384h0a.969.969,0,0,1-.717.314h0A.976.976,0,0,1-802.874,249.857Zm241.8-.137a.978.978,0,0,1,.069-1.384h0a.978.978,0,0,1,1.384.069h0a.978.978,0,0,1-.069,1.384h0a.944.944,0,0,1-.657.255h0A.961.961,0,0,1-561.075,249.72Zm-161.474-.029a.969.969,0,0,1,.049-1.384h0a.978.978,0,0,1,1.384.039h0a.978.978,0,0,1-.039,1.384h0a1,1,0,0,1-.677.265h0A.973.973,0,0,1-722.549,249.691Zm-401.35.02a.978.978,0,0,1-.059-1.384h0a.979.979,0,0,1,1.384-.059h0a.99.99,0,0,1,.059,1.393h0a1,1,0,0,1-.726.314h0A.953.953,0,0,1-1123.9,249.71Zm-320.986-.186a.978.978,0,0,1-.069-1.384h0a.97.97,0,0,1,1.384-.069h0a.978.978,0,0,1,.078,1.384h0a.983.983,0,0,1-.736.324h0A.989.989,0,0,1-1444.886,249.524Zm159.777-.079a.978.978,0,0,1-.059-1.384h0a.981.981,0,0,1,1.393-.049h0a.977.977,0,0,1,.049,1.384h0a1,1,0,0,1-.716.314h0A.959.959,0,0,1-1285.109,249.445Zm640.107-1.5a.979.979,0,0,1-.048-1.384h0a.978.978,0,0,1,1.384-.059h0a.99.99,0,0,1,.048,1.393h0a.963.963,0,0,1-.715.314h0A.981.981,0,0,1-645,247.944Zm-395.2-.226a.978.978,0,0,1,.069-1.384h0a.969.969,0,0,1,1.384.059h0a.987.987,0,0,1-.059,1.384h0a.965.965,0,0,1-.667.255h0A1,1,0,0,1-1040.2,247.718Zm-161.484-.039a.99.99,0,0,1,.059-1.393h0a.978.978,0,0,1,1.383.059h0a.979.979,0,0,1-.059,1.384h0a.959.959,0,0,1-.667.265h0A1,1,0,0,1-1201.683,247.679Zm321.035-.157a.969.969,0,0,1,.049-1.384h0a.978.978,0,0,1,1.384.049h0a.99.99,0,0,1-.049,1.393h0a.967.967,0,0,1-.668.255h0A.93.93,0,0,1-880.648,247.522Zm-86.831,0a.979.979,0,0,1-.078-1.384h0a.991.991,0,0,1,1.393-.079h0a.99.99,0,0,1,.069,1.393h0a.978.978,0,0,1-.726.324h0A.989.989,0,0,1-967.479,247.522Zm-395.885-.1a.99.99,0,0,1,.069-1.393h0a.987.987,0,0,1,1.383.069h0a.99.99,0,0,1-.069,1.393h0a.989.989,0,0,1-.657.255h0A1.015,1.015,0,0,1-1363.364,247.424Zm878.58,0a.979.979,0,0,1-.1-1.384h0a1,1,0,0,1,1.393-.088h0a.989.989,0,0,1,.088,1.384h0a.974.974,0,0,1-.736.334h0A.954.954,0,0,1-484.783,247.424ZM-805.75,247.2a.99.99,0,0,1-.06-1.393h0a.99.99,0,0,1,1.393-.049h0a.977.977,0,0,1,.05,1.384h0a1,1,0,0,1-.716.314h0A.993.993,0,0,1-805.75,247.2Zm247.588-.108a.978.978,0,0,1,.07-1.384h0a.978.978,0,0,1,1.384.069h0a.978.978,0,0,1-.07,1.384h0a.985.985,0,0,1-.656.255h0A.966.966,0,0,1-558.162,247.09ZM-719.684,247a.978.978,0,0,1,.039-1.384h0a.989.989,0,0,1,1.393.039h0a.981.981,0,0,1-.049,1.393h0a.977.977,0,0,1-.668.265h0A.982.982,0,0,1-719.684,247Zm-407.1.039a.978.978,0,0,1-.049-1.384h0a.978.978,0,0,1,1.384-.059h0a.981.981,0,0,1,.049,1.393h0a.967.967,0,0,1-.716.314h0A.976.976,0,0,1-1126.785,247.041Zm-321.015-.147a.978.978,0,0,1-.069-1.384h0a.978.978,0,0,1,1.384-.069h0a.978.978,0,0,1,.078,1.384h0a.983.983,0,0,1-.736.324h0A1.008,1.008,0,0,1-1447.8,246.894Zm159.806-.108a.99.99,0,0,1-.049-1.393h0a.978.978,0,0,1,1.384-.049h0a.978.978,0,0,1,.059,1.384h0a1,1,0,0,1-.726.314h0A1.013,1.013,0,0,1-1287.994,246.786Zm640.117-1.511a.978.978,0,0,1-.059-1.384h0a.99.99,0,0,1,1.393-.059h0a.99.99,0,0,1,.049,1.393h0a.984.984,0,0,1-.717.314h0A.957.957,0,0,1-647.876,245.275Zm-389.418-.206a.978.978,0,0,1,.059-1.384h0a.978.978,0,0,1,1.384.059h0a.981.981,0,0,1-.059,1.393h0a.989.989,0,0,1-.657.255h0A.947.947,0,0,1-1037.295,245.069Zm-161.513-.059a.99.99,0,0,1,.059-1.393h0a.978.978,0,0,1,1.384.059h0a.978.978,0,0,1-.049,1.384h0a.976.976,0,0,1-.667.265h0A1,1,0,0,1-1198.808,245.01Zm321.035-.157a.987.987,0,0,1,.048-1.384h0a1,1,0,0,1,1.393.049h0a.99.99,0,0,1-.058,1.393h0a.951.951,0,0,1-.667.255h0A.96.96,0,0,1-877.773,244.853Zm-92.62.039a.988.988,0,0,1-.078-1.384h0a1,1,0,0,1,1.393-.079h0a.991.991,0,0,1,.069,1.393h0a.977.977,0,0,1-.726.324h0A.989.989,0,0,1-970.393,244.892Zm-390.056-.1a.99.99,0,0,1,.069-1.393h0a.979.979,0,0,1,1.384.079h0a.978.978,0,0,1-.069,1.384h0a.989.989,0,0,1-.657.255h0A1.015,1.015,0,0,1-1360.449,244.794Zm872.712.039a.988.988,0,0,1-.088-1.384h0a.987.987,0,0,1,1.384-.088h0a.971.971,0,0,1,.088,1.384h0a.945.945,0,0,1-.736.334h0A.972.972,0,0,1-487.737,244.833Zm-320.9-.3a.99.99,0,0,1-.049-1.393h0a.978.978,0,0,1,1.384-.049h0a.977.977,0,0,1,.058,1.384h0a1,1,0,0,1-.725.314h0A1.014,1.014,0,0,1-808.634,244.529Zm253.388-.069a.97.97,0,0,1,.068-1.384h0a.98.98,0,0,1,1.385.069h0a.979.979,0,0,1-.069,1.384h0a.943.943,0,0,1-.657.255h0A.961.961,0,0,1-555.247,244.461Zm-574.413-.088a.978.978,0,0,1-.059-1.384h0a.99.99,0,0,1,1.393-.059h0a.99.99,0,0,1,.049,1.393h0a1,1,0,0,1-.716.314h0A.959.959,0,0,1-1129.66,244.372Zm412.841-.049a.989.989,0,0,1,.039-1.393h0a.969.969,0,0,1,1.384.049h0a.978.978,0,0,1-.039,1.384h0a.983.983,0,0,1-.677.265h0A.95.95,0,0,1-716.819,244.323Zm-733.885-.059a.97.97,0,0,1-.078-1.384h0a.97.97,0,0,1,1.384-.069h0a.979.979,0,0,1,.078,1.384h0a.983.983,0,0,1-.736.324h0A.984.984,0,0,1-1450.7,244.264Zm159.836-.147a.981.981,0,0,1-.049-1.393h0a.977.977,0,0,1,1.384-.049h0a.978.978,0,0,1,.049,1.384h0a.967.967,0,0,1-.716.314h0A1.014,1.014,0,0,1-1290.869,244.117Zm640.108-1.511a.979.979,0,0,1-.05-1.384h0a.97.97,0,0,1,1.385-.049h0a.978.978,0,0,1,.059,1.384h0a1.006,1.006,0,0,1-.726.314h0A.993.993,0,0,1-650.761,242.606Zm-383.639-.186a.987.987,0,0,1,.059-1.384h0a1,1,0,0,1,1.393.059h0a.99.99,0,0,1-.069,1.393h0a.989.989,0,0,1-.657.255h0A.977.977,0,0,1-1034.4,242.42Zm-161.523-.078a.978.978,0,0,1,.049-1.384h0a.969.969,0,0,1,1.384.049h0a.969.969,0,0,1-.049,1.384h0a.959.959,0,0,1-.667.265h0A.967.967,0,0,1-1195.923,242.341Zm222.616-.079a.97.97,0,0,1-.069-1.384h0a.97.97,0,0,1,1.384-.069h0a.978.978,0,0,1,.069,1.384h0a.978.978,0,0,1-.726.324h0A.989.989,0,0,1-973.307,242.263Zm98.409-.069a.99.99,0,0,1,.059-1.393h0a.978.978,0,0,1,1.383.059h0a.978.978,0,0,1-.049,1.384h0a.994.994,0,0,1-.667.265h0A1,1,0,0,1-874.9,242.194Zm384.208.049a.988.988,0,0,1-.088-1.384h0a.988.988,0,0,1,1.383-.088h0a.982.982,0,0,1,.1,1.384h0a.979.979,0,0,1-.746.334h0A.972.972,0,0,1-490.69,242.243Zm-866.845-.078a.99.99,0,0,1,.069-1.393h0a.979.979,0,0,1,1.384.078h0a.978.978,0,0,1-.069,1.384h0a.989.989,0,0,1-.657.255h0A.978.978,0,0,1-1357.535,242.164Zm805.2-.334a.978.978,0,0,1,.069-1.384h0a.978.978,0,0,1,1.384.069h0a.979.979,0,0,1-.069,1.384h0a.944.944,0,0,1-.657.255h0A.961.961,0,0,1-552.332,241.831Zm-259.177.029a.991.991,0,0,1-.06-1.393h0a.991.991,0,0,1,1.394-.049h0a.978.978,0,0,1,.049,1.384h0a.932.932,0,0,1-.716.314h0A.948.948,0,0,1-811.509,241.86Zm-321.035-.157a.977.977,0,0,1-.049-1.384h0a.969.969,0,0,1,1.383-.049h0a.978.978,0,0,1,.059,1.384h0a1,1,0,0,1-.726.314h0A1,1,0,0,1-1132.545,241.7Zm418.581-.069a1,1,0,0,1,.049-1.393h0a.987.987,0,0,1,1.383.049h0a.978.978,0,0,1-.039,1.384h0a1,1,0,0,1-.677.265h0A.989.989,0,0,1-713.964,241.635Zm-739.665,0a.987.987,0,0,1-.069-1.384h0a.99.99,0,0,1,1.393-.069h0a.978.978,0,0,1,.069,1.384h0a.983.983,0,0,1-.736.324h0A1.028,1.028,0,0,1-1453.629,241.635Zm159.885-.186a.99.99,0,0,1-.059-1.393h0a.99.99,0,0,1,1.393-.049h0a.987.987,0,0,1,.049,1.384h0a1,1,0,0,1-.726.314h0A.989.989,0,0,1-1293.744,241.448Zm640.108-1.511a.978.978,0,0,1-.049-1.384h0a.978.978,0,0,1,1.384-.059h0a.99.99,0,0,1,.049,1.393h0a.967.967,0,0,1-.716.314h0A.976.976,0,0,1-653.636,239.937Zm-377.869-.157a.99.99,0,0,1,.069-1.393h0a.979.979,0,0,1,1.384.069h0a.987.987,0,0,1-.059,1.384h0a.983.983,0,0,1-.667.255h0A1,1,0,0,1-1031.505,239.78Zm-161.543-.108a.978.978,0,0,1,.059-1.384h0a.978.978,0,0,1,1.384.049h0a.987.987,0,0,1-.049,1.384h0a.994.994,0,0,1-.667.265h0A1,1,0,0,1-1193.048,239.672Zm699.414-.01a.982.982,0,0,1-.088-1.393h0a.986.986,0,0,1,1.383-.088h0a.98.98,0,0,1,.089,1.384h0a.959.959,0,0,1-.736.334h0A.994.994,0,0,1-493.634,239.662Zm-482.588-.029a.988.988,0,0,1-.078-1.384h0a.99.99,0,0,1,1.393-.069h0a.978.978,0,0,1,.069,1.384h0a.977.977,0,0,1-.726.324h0A.989.989,0,0,1-976.222,239.633Zm-378.4-.1a.99.99,0,0,1,.069-1.393h0a.979.979,0,0,1,1.384.079h0a.978.978,0,0,1-.069,1.384h0a.989.989,0,0,1-.657.255h0A1.015,1.015,0,0,1-1354.621,239.535Zm482.607-.01a.99.99,0,0,1,.049-1.393h0a.989.989,0,0,1,1.392.059h0a.987.987,0,0,1-.058,1.384h0a.98.98,0,0,1-.667.265h0A.967.967,0,0,1-872.013,239.525Zm322.594-.324a.971.971,0,0,1,.07-1.384h0a.978.978,0,0,1,1.384.069h0a.978.978,0,0,1-.069,1.384h0a.989.989,0,0,1-.657.255h0A.95.95,0,0,1-549.419,239.2Zm-264.976-.01a1,1,0,0,1-.048-1.393h0a.987.987,0,0,1,1.384-.049h0a.978.978,0,0,1,.058,1.384h0a.964.964,0,0,1-.725.314h0A.987.987,0,0,1-814.4,239.191Zm-321.024-.157a.969.969,0,0,1-.049-1.384h0a.977.977,0,0,1,1.384-.049h0a.978.978,0,0,1,.049,1.384h0a.967.967,0,0,1-.716.314h0A.976.976,0,0,1-1135.42,239.034ZM-1456.533,239a.97.97,0,0,1-.078-1.384h0a.979.979,0,0,1,1.384-.069h0a.97.97,0,0,1,.078,1.384h0a.978.978,0,0,1-.726.324h0A.989.989,0,0,1-1456.533,239Zm745.435-.059a.969.969,0,0,1,.049-1.384h0a.978.978,0,0,1,1.384.039h0a.981.981,0,0,1-.049,1.393h0a.977.977,0,0,1-.668.265h0A.982.982,0,0,1-711.1,238.946Zm-585.531-.167a.99.99,0,0,1-.049-1.393h0a.987.987,0,0,1,1.384-.049h0a.978.978,0,0,1,.059,1.384h0a.967.967,0,0,1-.726.314h0A.966.966,0,0,1-1296.629,238.779Zm640.117-1.511a.978.978,0,0,1-.059-1.384h0a1,1,0,0,1,1.393-.059h0a1,1,0,0,1,.049,1.393h0a1,1,0,0,1-.716.314h0A.959.959,0,0,1-656.511,237.268Zm-372.089-.137a.981.981,0,0,1,.059-1.393h0a.978.978,0,0,1,1.384.069h0a.978.978,0,0,1-.059,1.384h0a.943.943,0,0,1-.657.255h0A.972.972,0,0,1-1028.6,237.131ZM-1190.173,237a.978.978,0,0,1,.059-1.384h0a.978.978,0,0,1,1.383.049h0a.977.977,0,0,1-.049,1.384h0a.977.977,0,0,1-.667.265h0A1,1,0,0,1-1190.173,237Zm693.585.069a.991.991,0,0,1-.088-1.384h0a.982.982,0,0,1,1.385-.1h0a.97.97,0,0,1,.087,1.384h0a.942.942,0,0,1-.736.334h0A1.017,1.017,0,0,1-496.589,237.072ZM-979.136,237a.978.978,0,0,1-.069-1.384h0a.979.979,0,0,1,1.384-.079h0a.991.991,0,0,1,.069,1.393h0a.978.978,0,0,1-.726.324h0A.989.989,0,0,1-979.136,237Zm-372.57-.1a.99.99,0,0,1,.069-1.393h0a.97.97,0,0,1,1.383.078h0a.978.978,0,0,1-.069,1.384h0a.989.989,0,0,1-.657.255h0A1.015,1.015,0,0,1-1351.706,236.9Zm482.567-.049a1,1,0,0,1,.05-1.393h0a.99.99,0,0,1,1.393.059h0a.978.978,0,0,1-.059,1.384h0a.959.959,0,0,1-.667.265h0A1,1,0,0,1-869.139,236.856Zm322.625-.285a.988.988,0,0,1,.079-1.384h0a.978.978,0,0,1,1.384.069h0a.978.978,0,0,1-.07,1.384h0a.939.939,0,0,1-.657.255h0A.986.986,0,0,1-546.514,236.571Zm-270.755-.049a.989.989,0,0,1-.049-1.393h0a.987.987,0,0,1,1.384-.049h0a1,1,0,0,1,.059,1.393h0a1.006,1.006,0,0,1-.727.314h0A.976.976,0,0,1-817.269,236.522Zm-321.025-.157a.978.978,0,0,1-.059-1.384h0a.978.978,0,0,1,1.383-.049h0a.978.978,0,0,1,.059,1.384h0a1,1,0,0,1-.716.314h0A.959.959,0,0,1-1138.295,236.365Zm-321.162.01a.987.987,0,0,1-.069-1.384h0a.99.99,0,0,1,1.393-.069h0a.978.978,0,0,1,.069,1.384h0a.977.977,0,0,1-.726.324h0A1.033,1.033,0,0,1-1459.457,236.375Zm751.224-.118a.978.978,0,0,1,.039-1.384h0a.99.99,0,0,1,1.393.039h0a1,1,0,0,1-.049,1.393h0a.977.977,0,0,1-.668.265h0A.965.965,0,0,1-708.233,236.257Zm-591.271-.147a.99.99,0,0,1-.059-1.393h0a1,1,0,0,1,1.393-.049h0a.978.978,0,0,1,.049,1.384h0a.947.947,0,0,1-.716.314h0A.949.949,0,0,1-1299.5,236.11ZM-659.4,234.6a.978.978,0,0,1-.048-1.384h0a.969.969,0,0,1,1.384-.049h0A.978.978,0,0,1-658,234.55h0a1,1,0,0,1-.725.314h0A1,1,0,0,1-659.4,234.6Zm-366.309-.118a.987.987,0,0,1,.059-1.384h0a.981.981,0,0,1,1.393.059h0a.978.978,0,0,1-.069,1.384h0a.953.953,0,0,1-.657.265h0A.977.977,0,0,1-1025.706,234.481Zm526.174,0a.971.971,0,0,1-.088-1.384h0a.981.981,0,0,1,1.385-.1h0a1,1,0,0,1,.087,1.393h0a.99.99,0,0,1-.736.334h0A1.008,1.008,0,0,1-499.532,234.481Zm-687.756-.147a.978.978,0,0,1,.049-1.384h0a.99.99,0,0,1,1.393.049h0a.99.99,0,0,1-.059,1.393h0a1,1,0,0,1-.667.255h0A.983.983,0,0,1-1187.288,234.334Zm205.238.039a.988.988,0,0,1-.078-1.384h0a.982.982,0,0,1,1.393-.069h0a.978.978,0,0,1,.069,1.384h0a.978.978,0,0,1-.726.324h0A.989.989,0,0,1-982.05,234.373Zm-366.742-.1a.99.99,0,0,1,.069-1.393h0a.979.979,0,0,1,1.384.079h0a.978.978,0,0,1-.069,1.384h0a.989.989,0,0,1-.657.255h0A.962.962,0,0,1-1348.792,234.275Zm482.529-.088a.977.977,0,0,1,.059-1.384h0a.969.969,0,0,1,1.384.049h0a.979.979,0,0,1-.049,1.384h0a.977.977,0,0,1-.668.265h0A1,1,0,0,1-866.263,234.187Zm322.664-.245a.979.979,0,0,1,.079-1.384h0a.977.977,0,0,1,1.383.069h0a.977.977,0,0,1-.068,1.384h0a.944.944,0,0,1-.657.255h0A.982.982,0,0,1-543.6,233.942Zm-276.545-.088a.978.978,0,0,1-.059-1.384h0a.989.989,0,0,1,1.392-.059h0a.989.989,0,0,1,.05,1.393h0a1,1,0,0,1-.716.314h0A.959.959,0,0,1-820.144,233.853Zm-642.217-.108a.979.979,0,0,1-.078-1.384h0a.99.99,0,0,1,1.393-.069h0a.978.978,0,0,1,.069,1.384h0a.977.977,0,0,1-.726.324h0A.989.989,0,0,1-1462.362,233.745Zm321.182-.039a.99.99,0,0,1-.049-1.393h0a.978.978,0,0,1,1.384-.049h0a.978.978,0,0,1,.059,1.384h0a.967.967,0,0,1-.726.314h0A1.014,1.014,0,0,1-1141.179,233.706Zm435.8-.128a.985.985,0,0,1,.049-1.384h0a.978.978,0,0,1,1.384.039h0a.979.979,0,0,1-.039,1.384h0a.982.982,0,0,1-.677.265h0A.988.988,0,0,1-705.378,233.579Zm-597.011-.137a1,1,0,0,1-.049-1.393h0a.987.987,0,0,1,1.384-.049h0a.99.99,0,0,1,.059,1.393h0a1,1,0,0,1-.726.314h0A1,1,0,0,1-1302.389,233.441Zm640.117-1.5a.99.99,0,0,1-.059-1.393h0a.99.99,0,0,1,1.393-.049h0a.979.979,0,0,1,.049,1.384h0a.984.984,0,0,1-.717.314h0A.993.993,0,0,1-662.271,231.94Zm-360.54-.108a.978.978,0,0,1,.069-1.384h0a.987.987,0,0,1,1.384.059h0a1,1,0,0,1-.059,1.393h0a1.033,1.033,0,0,1-.667.255h0A.978.978,0,0,1-1022.812,231.832Zm520.327.059a.979.979,0,0,1-.088-1.384h0a.97.97,0,0,1,1.384-.088h0a.97.97,0,0,1,.088,1.384h0a.993.993,0,0,1-.736.334h0A1.024,1.024,0,0,1-502.485,231.891Zm-482.48-.147a.978.978,0,0,1-.069-1.384h0a.978.978,0,0,1,1.384-.069h0a.978.978,0,0,1,.069,1.384h0a.978.978,0,0,1-.726.324h0A.989.989,0,0,1-984.965,231.744Zm-199.449-.079a.978.978,0,0,1,.059-1.384h0a.978.978,0,0,1,1.383.049h0a1,1,0,0,1-.049,1.393h0a1.033,1.033,0,0,1-.667.255h0A.968.968,0,0,1-1184.413,231.665Zm-161.464-.02a.99.99,0,0,1,.069-1.393h0a.979.979,0,0,1,1.384.078h0a.978.978,0,0,1-.069,1.384h0a.989.989,0,0,1-.657.255h0A1,1,0,0,1-1345.878,231.645Zm482.5-.128a.978.978,0,0,1,.048-1.384h0a.991.991,0,0,1,1.394.049h0a.979.979,0,0,1-.059,1.384h0a.976.976,0,0,1-.667.265h0A.965.965,0,0,1-863.378,231.518Zm322.693-.206a.979.979,0,0,1,.078-1.384h0a.978.978,0,0,1,1.384.069h0a.978.978,0,0,1-.069,1.384h0a.944.944,0,0,1-.657.255h0A.983.983,0,0,1-540.685,231.312Zm-282.344-.128a.987.987,0,0,1-.049-1.384h0a.979.979,0,0,1,1.384-.059h0a.99.99,0,0,1,.059,1.393h0a1.006,1.006,0,0,1-.727.314h0A.994.994,0,0,1-823.029,231.184Zm-642.247-.069a.979.979,0,0,1-.078-1.384h0a.99.99,0,0,1,1.393-.069h0a.978.978,0,0,1,.069,1.384h0a.977.977,0,0,1-.726.324h0A.989.989,0,0,1-1465.276,231.116Zm321.221-.078a.981.981,0,0,1-.049-1.393h0a.986.986,0,0,1,1.383-.049h0a.978.978,0,0,1,.049,1.384h0a.932.932,0,0,1-.716.314h0A.966.966,0,0,1-1144.055,231.037Zm441.542-.147a.969.969,0,0,1,.049-1.384h0a.978.978,0,0,1,1.384.039h0a.981.981,0,0,1-.049,1.393h0a.961.961,0,0,1-.668.265h0A.982.982,0,0,1-702.512,230.89Zm-602.752-.118a.978.978,0,0,1-.049-1.384h0a.978.978,0,0,1,1.384-.059h0a.99.99,0,0,1,.049,1.393h0a.967.967,0,0,1-.716.314h0A.977.977,0,0,1-1305.264,230.772Zm799.835-1.472a.98.98,0,0,1-.1-1.384h0a.982.982,0,0,1,1.393-.088h0a.988.988,0,0,1,.088,1.384h0a1.009,1.009,0,0,1-.736.334h0A.953.953,0,0,1-505.429,229.3Zm-159.728-.029a.991.991,0,0,1-.05-1.393h0a.99.99,0,0,1,1.393-.049h0a.987.987,0,0,1,.05,1.384h0a1.006,1.006,0,0,1-.726.314h0A1.031,1.031,0,0,1-665.156,229.271Zm-354.751-.088a.97.97,0,0,1,.059-1.384h0a.987.987,0,0,1,1.383.059h0a.99.99,0,0,1-.059,1.393h0a.989.989,0,0,1-.657.255h0A.948.948,0,0,1-1019.907,229.183Zm32.028-.069a.978.978,0,0,1-.069-1.384h0a.988.988,0,0,1,1.384-.079h0a.991.991,0,0,1,.069,1.393h0a.978.978,0,0,1-.726.324h0A.989.989,0,0,1-987.879,229.114Zm-355.084-.1a.99.99,0,0,1,.069-1.393h0a.979.979,0,0,1,1.384.079h0a.978.978,0,0,1-.069,1.384h0a.989.989,0,0,1-.658.255h0A.962.962,0,0,1-1342.963,229.016Zm161.435-.02a.978.978,0,0,1,.049-1.384h0a.977.977,0,0,1,1.384.049h0a.981.981,0,0,1-.049,1.393h0a.966.966,0,0,1-.667.255h0A.932.932,0,0,1-1181.528,229Zm321.025-.147a.978.978,0,0,1,.059-1.384h0a.978.978,0,0,1,1.383.049h0a.977.977,0,0,1-.06,1.384h0a.95.95,0,0,1-.657.265h0A1,1,0,0,1-860.5,228.849Zm322.733-.167a.978.978,0,0,1,.078-1.384h0a.978.978,0,0,1,1.384.069h0a.978.978,0,0,1-.069,1.384h0a.943.943,0,0,1-.657.255h0A.981.981,0,0,1-537.771,228.682Zm-288.134-.167a.978.978,0,0,1-.049-1.384h0a.968.968,0,0,1,1.383-.049h0a.977.977,0,0,1,.05,1.384h0a.967.967,0,0,1-.716.314h0A.973.973,0,0,1-825.9,228.515Zm-642.286-.029a.97.97,0,0,1-.069-1.384h0a.978.978,0,0,1,1.384-.069h0a.978.978,0,0,1,.069,1.384h0a.978.978,0,0,1-.726.324h0A.989.989,0,0,1-1468.19,228.486Zm321.251-.118a1,1,0,0,1-.049-1.393h0a.987.987,0,0,1,1.384-.049h0a.979.979,0,0,1,.059,1.384h0a.967.967,0,0,1-.726.314h0A.983.983,0,0,1-1146.939,228.368Zm447.292-.167a.978.978,0,0,1,.039-1.384h0a.981.981,0,0,1,1.393.049h0a.988.988,0,0,1-.049,1.384h0a.977.977,0,0,1-.668.265h0A.965.965,0,0,1-699.647,228.2Zm-608.492-.1a.978.978,0,0,1-.059-1.384h0a.99.99,0,0,1,1.393-.059h0a.99.99,0,0,1,.049,1.393h0a.983.983,0,0,1-.716.314h0A.959.959,0,0,1-1308.139,228.1Zm799.757-1.393a.98.98,0,0,1-.088-1.384h0a.97.97,0,0,1,1.384-.088h0a.97.97,0,0,1,.088,1.384h0a.993.993,0,0,1-.736.334h0A.97.97,0,0,1-508.382,226.71Zm-159.649-.108a.99.99,0,0,1-.049-1.393h0a.978.978,0,0,1,1.384-.049h0a.969.969,0,0,1,.049,1.384h0a.934.934,0,0,1-.716.314h0A.966.966,0,0,1-668.031,226.6Zm-348.981-.059a1,1,0,0,1,.059-1.393h0a.991.991,0,0,1,1.393.069h0a.979.979,0,0,1-.069,1.384h0a.989.989,0,0,1-.657.255h0A1,1,0,0,1-1017.012,226.543Zm26.219-.059a.978.978,0,0,1-.069-1.384h0a.97.97,0,0,1,1.384-.069h0a.978.978,0,0,1,.069,1.384h0a.978.978,0,0,1-.726.324h0A.989.989,0,0,1-990.793,226.484Zm-349.256-.1a.991.991,0,0,1,.069-1.393h0a.979.979,0,0,1,1.384.078h0a.978.978,0,0,1-.069,1.384h0a.989.989,0,0,1-.657.255h0A.962.962,0,0,1-1340.049,226.386Zm161.4-.059a.987.987,0,0,1,.049-1.384h0a.99.99,0,0,1,1.393.059h0a.987.987,0,0,1-.049,1.384h0a.99.99,0,0,1-.677.255h0A.947.947,0,0,1-1178.653,226.327Zm321.025-.147a.979.979,0,0,1,.058-1.384h0a.979.979,0,0,1,1.384.049h0a.99.99,0,0,1-.049,1.393h0a1.018,1.018,0,0,1-.667.255h0A1,1,0,0,1-857.628,226.18Zm322.771-.128a.981.981,0,0,1,.078-1.384h0a.98.98,0,0,1,1.385.069h0a.979.979,0,0,1-.069,1.384h0a.943.943,0,0,1-.658.255h0A.986.986,0,0,1-534.857,226.052Zm-936.247-.2a.988.988,0,0,1-.078-1.384h0a.99.99,0,0,1,1.393-.069h0a.978.978,0,0,1,.069,1.384h0a.977.977,0,0,1-.726.324h0A.989.989,0,0,1-1471.1,225.856Zm642.325-.01a.978.978,0,0,1-.059-1.384h0a.981.981,0,0,1,1.393-.049h0a.985.985,0,0,1,.048,1.384h0a.981.981,0,0,1-.715.314h0A.959.959,0,0,1-828.779,225.846Zm-321.035-.147a.978.978,0,0,1-.049-1.384h0a.978.978,0,0,1,1.383-.059h0a.99.99,0,0,1,.059,1.393h0a1,1,0,0,1-.726.314h0A.977.977,0,0,1-1149.814,225.7Zm453.033-.177a.988.988,0,0,1,.039-1.393h0a.987.987,0,0,1,1.384.049h0a.979.979,0,0,1-.039,1.384h0a.982.982,0,0,1-.677.265h0A.952.952,0,0,1-696.782,225.523Zm-614.242-.088a.986.986,0,0,1-.049-1.384h0a.969.969,0,0,1,1.384-.049h0a.978.978,0,0,1,.059,1.384h0a1,1,0,0,1-.726.314h0A1,1,0,0,1-1311.024,225.434Zm799.688-1.315a.988.988,0,0,1-.088-1.384h0a.97.97,0,0,1,1.383-.088h0a.979.979,0,0,1,.1,1.384h0a1.015,1.015,0,0,1-.746.334h0A.97.97,0,0,1-511.336,224.119Zm-502.782-.226a.978.978,0,0,1,.069-1.384h0a.97.97,0,0,1,1.384.059h0a.987.987,0,0,1-.059,1.384h0a.983.983,0,0,1-.667.255h0A1,1,0,0,1-1014.118,223.894Zm343.211.039a.979.979,0,0,1-.06-1.384h0a.991.991,0,0,1,1.394-.059h0a.978.978,0,0,1,.049,1.384h0a.947.947,0,0,1-.716.314h0A.948.948,0,0,1-670.906,223.933Zm-322.8-.078a.978.978,0,0,1-.069-1.384h0a.978.978,0,0,1,1.383-.069h0a.978.978,0,0,1,.069,1.384h0a.962.962,0,0,1-.726.324h0A.989.989,0,0,1-993.708,223.854Zm-343.437-.1a.991.991,0,0,1,.079-1.393h0a.988.988,0,0,1,1.383.079h0a.978.978,0,0,1-.069,1.384h0a.989.989,0,0,1-.657.255h0A.983.983,0,0,1-1337.145,223.756Zm161.366-.088a.99.99,0,0,1,.059-1.393h0a.978.978,0,0,1,1.384.059h0a.978.978,0,0,1-.049,1.384h0a.976.976,0,0,1-.667.265h0A1,1,0,0,1-1175.778,223.668Zm321.034-.157a.978.978,0,0,1,.05-1.384h0a.99.99,0,0,1,1.393.049h0a.989.989,0,0,1-.06,1.393h0a.991.991,0,0,1-.666.255h0A.987.987,0,0,1-854.744,223.511Zm322.8-.088a.979.979,0,0,1,.079-1.384h0a.979.979,0,0,1,1.384.069h0a.979.979,0,0,1-.069,1.384h0a.96.96,0,0,1-.657.255h0A.983.983,0,0,1-531.942,223.423Zm-942.077-.2a.97.97,0,0,1-.069-1.384h0a.978.978,0,0,1,1.384-.069h0a.978.978,0,0,1,.069,1.384h0a.977.977,0,0,1-.726.324h0A.989.989,0,0,1-1474.019,223.226Zm642.355-.049a.977.977,0,0,1-.049-1.384h0a.978.978,0,0,1,1.384-.049h0a.979.979,0,0,1,.059,1.384h0a1,1,0,0,1-.726.314h0A.994.994,0,0,1-831.664,223.177Zm-321.025-.147a.979.979,0,0,1-.059-1.384h0a.99.99,0,0,1,1.393-.059h0a.99.99,0,0,1,.049,1.393h0a.983.983,0,0,1-.716.314h0A.959.959,0,0,1-1152.689,223.03Zm458.763-.2a.969.969,0,0,1,.049-1.384h0a.978.978,0,0,1,1.384.039h0a.977.977,0,0,1-.039,1.384h0a.958.958,0,0,1-.678.265h0A.972.972,0,0,1-693.926,222.834Zm-619.972-.069a.969.969,0,0,1-.049-1.384h0a.987.987,0,0,1,1.384-.059h0a.99.99,0,0,1,.049,1.393h0a.967.967,0,0,1-.716.314h0A.976.976,0,0,1-1313.9,222.765Zm799.619-1.236a.97.97,0,0,1-.088-1.384h0a.969.969,0,0,1,1.383-.088h0a.987.987,0,0,1,.089,1.384h0a.96.96,0,0,1-.736.334h0A.952.952,0,0,1-514.279,221.529Zm-496.943-.285a.978.978,0,0,1,.069-1.384h0a.978.978,0,0,1,1.384.059h0a.99.99,0,0,1-.059,1.393h0a1,1,0,0,1-.667.255h0A.978.978,0,0,1-1011.223,221.244Zm337.431.02a.991.991,0,0,1-.048-1.393h0a.987.987,0,0,1,1.384-.049h0a.989.989,0,0,1,.058,1.393h0a1,1,0,0,1-.725.314h0A1,1,0,0,1-673.792,221.264Zm-322.83-.039a.978.978,0,0,1-.069-1.384h0a.978.978,0,0,1,1.384-.069h0a.978.978,0,0,1,.069,1.384h0a.962.962,0,0,1-.726.324h0A.989.989,0,0,1-996.622,221.225Zm-337.6-.1a.99.99,0,0,1,.069-1.393h0a.979.979,0,0,1,1.384.078h0a.978.978,0,0,1-.069,1.384h0a.989.989,0,0,1-.657.255h0A.948.948,0,0,1-1334.22,221.127Zm161.327-.128a.99.99,0,0,1,.049-1.393h0a.978.978,0,0,1,1.384.059h0a.969.969,0,0,1-.049,1.384h0a.976.976,0,0,1-.667.265h0A.983.983,0,0,1-1172.893,221Zm321.025-.157a.977.977,0,0,1,.059-1.384h0a.978.978,0,0,1,1.384.049h0a.99.99,0,0,1-.049,1.393h0a1.035,1.035,0,0,1-.667.255h0A.967.967,0,0,1-851.868,220.842Zm322.841-.049a.987.987,0,0,1,.069-1.384h0a.99.99,0,0,1,1.393.069h0a.987.987,0,0,1-.069,1.384h0a.979.979,0,0,1-.657.255h0A.981.981,0,0,1-529.028,220.793Zm-947.906-.2a.978.978,0,0,1-.069-1.384h0a.978.978,0,0,1,1.383-.069h0a.978.978,0,0,1,.069,1.384h0a.977.977,0,0,1-.726.324h0A.989.989,0,0,1-1476.933,220.6Zm642.394-.088a.977.977,0,0,1-.059-1.384h0a.981.981,0,0,1,1.393-.049h0a.977.977,0,0,1,.048,1.384h0a.981.981,0,0,1-.715.314h0A.977.977,0,0,1-834.539,220.508Zm-321.035-.147a.987.987,0,0,1-.049-1.384h0a.979.979,0,0,1,1.384-.059h0a.99.99,0,0,1,.059,1.393h0a1,1,0,0,1-.726.314h0A.994.994,0,0,1-1155.574,220.361Zm464.513-.216a.978.978,0,0,1,.039-1.384h0a.989.989,0,0,1,1.393.039h0a.99.99,0,0,1-.049,1.393h0a.977.977,0,0,1-.668.265h0A.983.983,0,0,1-691.061,220.145Zm-625.713-.049a.978.978,0,0,1-.059-1.384h0a.99.99,0,0,1,1.393-.049h0a.986.986,0,0,1,.049,1.384h0a1,1,0,0,1-.716.314h0A.959.959,0,0,1-1316.774,220.1Zm799.541-1.158a.989.989,0,0,1-.089-1.384h0a.989.989,0,0,1,1.385-.088h0a.969.969,0,0,1,.087,1.384h0a.942.942,0,0,1-.736.334h0A.972.972,0,0,1-517.233,218.938Zm-491.085-.343a.987.987,0,0,1,.059-1.384h0a1,1,0,0,1,1.393.059h0a.991.991,0,0,1-.069,1.393h0a.989.989,0,0,1-.657.255h0A.978.978,0,0,1-1008.318,218.595Zm331.652,0a.977.977,0,0,1-.049-1.384h0a.978.978,0,0,1,1.383-.059h0a.99.99,0,0,1,.049,1.393h0a.968.968,0,0,1-.717.314h0A.976.976,0,0,1-676.666,218.595Zm-322.87,0a.978.978,0,0,1-.069-1.384h0a.97.97,0,0,1,1.383-.069h0a.978.978,0,0,1,.069,1.384h0a.962.962,0,0,1-.726.324h0A.989.989,0,0,1-999.536,218.595Zm-331.78-.1a.979.979,0,0,1,.078-1.384h0a.97.97,0,0,1,1.384.069h0a.978.978,0,0,1-.069,1.384h0a.989.989,0,0,1-.657.255h0A.983.983,0,0,1-1331.316,218.5Zm161.3-.167a1,1,0,0,1,.049-1.393h0a.99.99,0,0,1,1.393.059h0a.987.987,0,0,1-.049,1.384h0a1,1,0,0,1-.667.265h0A1,1,0,0,1-1170.018,218.33Zm321.034-.157a.979.979,0,0,1,.05-1.384h0a.977.977,0,0,1,1.383.049h0a.98.98,0,0,1-.048,1.393h0a.966.966,0,0,1-.667.255h0A.934.934,0,0,1-848.984,218.173Zm322.87-.01a.978.978,0,0,1,.07-1.384h0a.99.99,0,0,1,1.393.069h0a.986.986,0,0,1-.07,1.384h0a.973.973,0,0,1-.657.255h0A.986.986,0,0,1-526.114,218.163Zm-953.733-.2a.978.978,0,0,1-.069-1.384h0a.978.978,0,0,1,1.384-.069h0a.978.978,0,0,1,.069,1.384h0a.978.978,0,0,1-.726.324h0A.989.989,0,0,1-1479.848,217.967Zm642.423-.118a1,1,0,0,1-.049-1.393h0a.99.99,0,0,1,1.393-.049h0a.987.987,0,0,1,.049,1.384h0a.97.97,0,0,1-.727.314h0A1.033,1.033,0,0,1-837.424,217.849Zm-321.025-.157a.978.978,0,0,1-.049-1.384h0a.978.978,0,0,1,1.384-.059h0a1,1,0,0,1,.059,1.393h0a1,1,0,0,1-.726.314h0A.976.976,0,0,1-1158.449,217.692Zm470.253-.226a.988.988,0,0,1,.039-1.393h0a.969.969,0,0,1,1.384.049h0a.979.979,0,0,1-.039,1.384h0a.983.983,0,0,1-.677.265h0A.952.952,0,0,1-688.2,217.466Zm-631.463-.029a.99.99,0,0,1-.049-1.393h0a.978.978,0,0,1,1.384-.049h0a.978.978,0,0,1,.059,1.384h0a1,1,0,0,1-.726.314h0A1.013,1.013,0,0,1-1319.659,217.437Zm799.482-1.089a.969.969,0,0,1-.089-1.384h0a.98.98,0,0,1,1.385-.088h0a.987.987,0,0,1,.087,1.384h0a.971.971,0,0,1-.736.334h0A.954.954,0,0,1-520.177,216.348Zm-485.247-.4a.979.979,0,0,1,.069-1.384h0a.987.987,0,0,1,1.384.059h0a1,1,0,0,1-.059,1.393h0a1.033,1.033,0,0,1-.667.255h0A.978.978,0,0,1-1005.424,215.946Zm2.973.02a.978.978,0,0,1-.069-1.384h0a.978.978,0,0,1,1.384-.069h0a.978.978,0,0,1,.069,1.384h0a.962.962,0,0,1-.726.324h0A.989.989,0,0,1-1002.451,215.965Zm-325.951-.1a.978.978,0,0,1,.078-1.384h0a.978.978,0,0,1,1.384.069h0a.978.978,0,0,1-.069,1.384h0a1.008,1.008,0,0,1-.657.255h0A.983.983,0,0,1-1328.4,215.867Zm648.86.059a.978.978,0,0,1-.059-1.384h0a.989.989,0,0,1,1.392-.059h0a.989.989,0,0,1,.05,1.393h0a1,1,0,0,1-.716.314h0A.959.959,0,0,1-679.541,215.926Zm-487.592-.265a.981.981,0,0,1,.049-1.393h0a.978.978,0,0,1,1.384.059h0a.978.978,0,0,1-.049,1.384h0a.976.976,0,0,1-.667.265h0A.967.967,0,0,1-1167.134,215.661Zm643.935-.128a.977.977,0,0,1,.069-1.384h0a.989.989,0,0,1,1.392.069h0a.977.977,0,0,1-.078,1.384h0a.939.939,0,0,1-.657.255h0A.975.975,0,0,1-523.2,215.533Zm-322.909-.029a.978.978,0,0,1,.049-1.384h0a1,1,0,0,1,1.393.049h0a.991.991,0,0,1-.059,1.393h0a.943.943,0,0,1-.658.255h0A.965.965,0,0,1-846.108,215.5Zm-636.654-.167a.978.978,0,0,1-.069-1.384h0a.978.978,0,0,1,1.384-.069h0a.978.978,0,0,1,.069,1.384h0a.978.978,0,0,1-.726.324h0A.989.989,0,0,1-1482.762,215.337Zm642.463-.157a.989.989,0,0,1-.049-1.393h0a.986.986,0,0,1,1.383-.049h0a.968.968,0,0,1,.05,1.384h0a.932.932,0,0,1-.716.314h0A.963.963,0,0,1-840.3,215.18Zm-321.025-.157a.978.978,0,0,1-.059-1.384h0a1,1,0,0,1,1.393-.059h0a.99.99,0,0,1,.049,1.393h0a1,1,0,0,1-.716.314h0A.959.959,0,0,1-1161.324,215.023Zm475.984-.245a1,1,0,0,1,.049-1.393h0a.987.987,0,0,1,1.384.049h0a.977.977,0,0,1-.039,1.384h0a1,1,0,0,1-.678.265h0A.988.988,0,0,1-685.341,214.778Zm-637.193-.01a.99.99,0,0,1-.059-1.393h0a.99.99,0,0,1,1.393-.049h0a.978.978,0,0,1,.049,1.384h0a.947.947,0,0,1-.716.314h0A1,1,0,0,1-1322.534,214.768Zm-2.954-1.531a.991.991,0,0,1,.079-1.393h0a.988.988,0,0,1,1.383.079h0a.978.978,0,0,1-.069,1.384h0a1.027,1.027,0,0,1-.657.255h0A.983.983,0,0,1-1325.487,213.237Zm643.061.02a.978.978,0,0,1-.049-1.384h0a.979.979,0,0,1,1.384-.059h0a.99.99,0,0,1,.059,1.393h0a1.006,1.006,0,0,1-.727.314h0A.976.976,0,0,1-682.426,213.257Zm-481.832-.265a.987.987,0,0,1,.049-1.384h0a.981.981,0,0,1,1.393.049h0a.978.978,0,0,1-.059,1.384h0a.959.959,0,0,1-.667.265h0A.983.983,0,0,1-1164.258,212.992Zm321.025-.147a.991.991,0,0,1,.058-1.393h0a.988.988,0,0,1,1.385.049h0a.99.99,0,0,1-.049,1.393h0a.976.976,0,0,1-.667.265h0A1,1,0,0,1-843.233,212.845Zm-642.443-.137a.978.978,0,0,1-.069-1.384h0a.978.978,0,0,1,1.384-.069h0a.978.978,0,0,1,.069,1.384h0a.977.977,0,0,1-.726.324h0A.943.943,0,0,1-1485.676,212.707Z" transform="translate(1485.999 -211.001)" fill="#fff"/>
    </g>
    <path id="Trazado_277430" data-name="Trazado 277430" d="M33.635,0A33.635,33.635,0,1,1,0,33.635,33.635,33.635,0,0,1,33.635,0Z" transform="translate(246.992 4019.59) rotate(-87.403)" fill="url(#radial-gradient)"/>
    <path id="Trazado_277431" data-name="Trazado 277431" d="M33.635,0A33.635,33.635,0,1,1,0,33.635,33.635,33.635,0,0,1,33.635,0Z" transform="matrix(0.045, -0.999, 0.999, 0.045, 327.276, 4089.801)" fill="url(#radial-gradient)"/>
    <path id="Trazado_277432" data-name="Trazado 277432" d="M33.635,0A33.635,33.635,0,1,1,0,33.635,33.635,33.635,0,0,1,33.635,0Z" transform="translate(407.548 4019.574) rotate(-87.403)" fill="url(#radial-gradient)"/>
    <path id="Trazado_277433" data-name="Trazado 277433" d="M33.635,0A33.635,33.635,0,1,1,0,33.635,33.635,33.635,0,0,1,33.635,0Z" transform="translate(568.103 4019.574) rotate(-87.403)" fill="url(#radial-gradient)"/>
    <path id="Trazado_277434" data-name="Trazado 277434" d="M33.635,0A33.635,33.635,0,1,1,0,33.635,33.635,33.635,0,0,1,33.635,0Z" transform="translate(728.658 4019.574) rotate(-87.403)" fill="url(#radial-gradient)"/>
    <path id="Trazado_277435" data-name="Trazado 277435" d="M33.635,0A33.635,33.635,0,1,1,0,33.635,33.635,33.635,0,0,1,33.635,0Z" transform="matrix(0.045, -0.999, 0.999, 0.045, 889.214, 4019.574)" fill="url(#radial-gradient)"/>
    <path id="Trazado_277436" data-name="Trazado 277436" d="M33.635,0A33.635,33.635,0,1,1,0,33.635,33.635,33.635,0,0,1,33.635,0Z" transform="matrix(0.045, -0.999, 0.999, 0.045, 1049.77, 4019.574)" fill="url(#radial-gradient)"/>
    <path id="Trazado_277437" data-name="Trazado 277437" d="M33.635,0A33.635,33.635,0,1,1,0,33.635,33.635,33.635,0,0,1,33.635,0Z" transform="matrix(0.045, -0.999, 0.999, 0.045, 1210.325, 4019.574)" fill="url(#radial-gradient)"/>
    <path id="Trazado_277438" data-name="Trazado 277438" d="M33.635,0A33.635,33.635,0,1,1,0,33.635,33.635,33.635,0,0,1,33.635,0Z" transform="translate(487.831 4089.787) rotate(-87.403)" fill="url(#radial-gradient)"/>
    <path id="Trazado_277439" data-name="Trazado 277439" d="M33.635,0A33.635,33.635,0,1,1,0,33.635,33.635,33.635,0,0,1,33.635,0Z" transform="translate(648.387 4089.787) rotate(-87.403)" fill="url(#radial-gradient)"/>
    <path id="Trazado_277440" data-name="Trazado 277440" d="M33.635,0A33.635,33.635,0,1,1,0,33.635,33.635,33.635,0,0,1,33.635,0Z" transform="matrix(0.045, -0.999, 0.999, 0.045, 808.942, 4089.787)" fill="url(#radial-gradient)"/>
    <path id="Trazado_277441" data-name="Trazado 277441" d="M33.635,0A33.635,33.635,0,1,1,0,33.635,33.635,33.635,0,0,1,33.635,0Z" transform="matrix(0.045, -0.999, 0.999, 0.045, 969.498, 4089.787)" fill="url(#radial-gradient)"/>
    <path id="Trazado_277442" data-name="Trazado 277442" d="M33.635,0A33.635,33.635,0,1,1,0,33.635,33.635,33.635,0,0,1,33.635,0Z" transform="matrix(0.045, -0.999, 0.999, 0.045, 1130.053, 4089.787)" fill="url(#radial-gradient)"/>
    <path id="Trazado_277443" data-name="Trazado 277443" d="M33.635,0A33.635,33.635,0,1,1,0,33.635,33.635,33.635,0,0,1,33.635,0Z" transform="matrix(0.045, -0.999, 0.999, 0.045, 1290.608, 4089.787)" fill="url(#radial-gradient)"/>
    <path id="Trazado_277444" data-name="Trazado 277444" d="M33.635,0A33.635,33.635,0,1,1,0,33.635,33.635,33.635,0,0,1,33.635,0Z" transform="translate(324.841 4013.297)" fill="#fff"/>
    <path id="Trazado_277445" data-name="Trazado 277445" d="M33.635,0A33.635,33.635,0,1,1,0,33.635,33.635,33.635,0,0,1,33.635,0Z" transform="translate(403.626 4008.785) rotate(-87.408)" fill="#fff"/>
    <path id="Trazado_277446" data-name="Trazado 277446" d="M33.635,0A33.635,33.635,0,1,1,0,33.635,33.635,33.635,0,0,1,33.635,0Z" transform="translate(485.396 4013.283)" fill="#fff"/>
    <path id="Trazado_277447" data-name="Trazado 277447" d="M33.635,0A33.635,33.635,0,1,1,0,33.635,33.635,33.635,0,0,1,33.635,0Z" transform="matrix(0.045, -0.999, 0.999, 0.045, 564.181, 4008.77)" fill="#fff"/>
    <path id="Trazado_277448" data-name="Trazado 277448" d="M33.635,0A33.635,33.635,0,1,1,0,33.635,33.635,33.635,0,0,1,33.635,0Z" transform="translate(645.951 4013.27)" fill="#fff"/>
    <path id="Trazado_277449" data-name="Trazado 277449" d="M33.635,0A33.635,33.635,0,1,1,0,33.635,33.635,33.635,0,0,1,33.635,0Z" transform="matrix(0.045, -0.999, 0.999, 0.045, 724.736, 4008.756)" fill="#fff"/>
    <path id="Trazado_277450" data-name="Trazado 277450" d="M33.635,0A33.635,33.635,0,1,1,0,33.635,33.635,33.635,0,0,1,33.635,0Z" transform="translate(806.507 4013.254)" fill="#fff"/>
    <path id="Trazado_277451" data-name="Trazado 277451" d="M33.635,0A33.635,33.635,0,1,1,0,33.635,33.635,33.635,0,0,1,33.635,0Z" transform="translate(885.292 4008.742) rotate(-87.408)" fill="#fff"/>
    <path id="Trazado_277452" data-name="Trazado 277452" d="M33.635,0A33.635,33.635,0,1,1,0,33.635,33.635,33.635,0,0,1,33.635,0Z" transform="translate(967.063 4013.24)" fill="#fff"/>
    <path id="Trazado_277453" data-name="Trazado 277453" d="M33.635,0A33.635,33.635,0,1,1,0,33.635,33.635,33.635,0,0,1,33.635,0Z" transform="matrix(0.045, -0.999, 0.999, 0.045, 1045.847, 4008.727)" fill="#fff"/>
    <path id="Trazado_277454" data-name="Trazado 277454" d="M33.635,0A33.635,33.635,0,1,1,0,33.635,33.635,33.635,0,0,1,33.635,0Z" transform="translate(1127.618 4013.227)" fill="#fff"/>
    <path id="Trazado_277455" data-name="Trazado 277455" d="M33.635,0A33.635,33.635,0,1,1,0,33.635,33.635,33.635,0,0,1,33.635,0Z" transform="matrix(0.045, -0.999, 0.999, 0.045, 1206.402, 4008.713)" fill="#fff"/>
    <path id="Trazado_277456" data-name="Trazado 277456" d="M33.635,0A33.635,33.635,0,1,1,0,33.635,33.635,33.635,0,0,1,33.635,0Z" transform="translate(1288.173 4013.211)" fill="#fff"/>
    <g id="Grupo_147244" data-name="Grupo 147244" transform="translate(-7.468 -1040)">
      <path id="Trazado_277414" data-name="Trazado 277414" d="M33.635,0A33.635,33.635,0,1,1,0,33.635,33.635,33.635,0,0,1,33.635,0Z" transform="translate(250.538 5048.799) rotate(-87.408)" fill="#fff"/>
    </g>
  </g>
</svg>
