<svg xmlns="http://www.w3.org/2000/svg" width="67.269" height="67.27" viewBox="0 0 67.269 67.27">
  <g id="Grupo_147258" data-name="Grupo 147258" transform="translate(-806.502 -2997.253)">
    <circle id="Elipse_7169" data-name="Elipse 7169" cx="33.635" cy="33.635" r="33.635" transform="translate(806.502 2997.253)" fill="#89ebd4"/>
    <path id="Trazado_277457" data-name="Trazado 277457" d="M-12.236,0h-9.746V-1.934l4.6-4.9a11.347,11.347,0,0,0,1.4-1.807,2.9,2.9,0,0,0,.454-1.465,2.172,2.172,0,0,0-.479-1.489,1.727,1.727,0,0,0-1.367-.542,1.863,1.863,0,0,0-1.509.659,2.611,2.611,0,0,0-.552,1.733h-2.832a4.661,4.661,0,0,1,.62-2.373A4.371,4.371,0,0,1-19.893-13.8a5.328,5.328,0,0,1,2.568-.61,5.045,5.045,0,0,1,3.413,1.055A3.731,3.731,0,0,1-12.7-10.381a4.781,4.781,0,0,1-.547,2.148,11.939,11.939,0,0,1-1.875,2.549L-18.35-2.275h6.113Zm11.3-5.879A7.2,7.2,0,0,1-2.158-1.367,4.261,4.261,0,0,1-5.732.2,4.291,4.291,0,0,1-9.287-1.338a6.992,6.992,0,0,1-1.26-4.395V-8.35a7.109,7.109,0,0,1,1.235-4.521,4.293,4.293,0,0,1,3.56-1.543A4.3,4.3,0,0,1-2.2-12.886,6.97,6.97,0,0,1-.937-8.5ZM-3.76-8.756a5.207,5.207,0,0,0-.483-2.576,1.634,1.634,0,0,0-1.509-.806,1.6,1.6,0,0,0-1.47.767,4.873,4.873,0,0,0-.5,2.4v3.46a5.466,5.466,0,0,0,.474,2.586,1.612,1.612,0,0,0,1.519.846,1.585,1.585,0,0,0,1.494-.811A5.335,5.335,0,0,0-3.76-5.374Zm14.3,2.878A7.2,7.2,0,0,1,9.316-1.367,4.261,4.261,0,0,1,5.742.2,4.291,4.291,0,0,1,2.188-1.338,6.992,6.992,0,0,1,.928-5.732V-8.35a7.109,7.109,0,0,1,1.235-4.521,4.293,4.293,0,0,1,3.56-1.543,4.3,4.3,0,0,1,3.555,1.528,6.97,6.97,0,0,1,1.26,4.39ZM7.715-8.756a5.207,5.207,0,0,0-.483-2.576,1.634,1.634,0,0,0-1.509-.806,1.6,1.6,0,0,0-1.47.767,4.873,4.873,0,0,0-.5,2.4v3.46a5.466,5.466,0,0,0,.474,2.586,1.612,1.612,0,0,0,1.519.846,1.585,1.585,0,0,0,1.494-.811,5.335,5.335,0,0,0,.479-2.483ZM22.188,0H12.441V-1.934l4.6-4.9a11.347,11.347,0,0,0,1.4-1.807,2.9,2.9,0,0,0,.454-1.465,2.172,2.172,0,0,0-.479-1.489,1.727,1.727,0,0,0-1.367-.542,1.863,1.863,0,0,0-1.509.659,2.611,2.611,0,0,0-.552,1.733H12.158a4.661,4.661,0,0,1,.62-2.373A4.371,4.371,0,0,1,14.531-13.8a5.328,5.328,0,0,1,2.568-.61,5.045,5.045,0,0,1,3.413,1.055,3.731,3.731,0,0,1,1.216,2.979,4.781,4.781,0,0,1-.547,2.148,11.939,11.939,0,0,1-1.875,2.549L16.074-2.275h6.113Z" transform="translate(838.635 3037.862)" fill="#12263f"/>
  </g>
</svg>
