<svg id="Grupo_145911" data-name="Grupo 145911" xmlns="http://www.w3.org/2000/svg" xmlns:xlink="http://www.w3.org/1999/xlink" width="98.565" height="100" viewBox="0 0 98.565 100">
  <defs>
    <clipPath id="clip-path">
      <rect id="Rectángulo_46141" data-name="Rectángulo 46141" width="98.565" height="100" fill="none"/>
    </clipPath>
  </defs>
  <g id="Grupo_145910" data-name="Grupo 145910" clip-path="url(#clip-path)">
    <path id="Trazado_276445" data-name="Trazado 276445" d="M48.444,0a16.073,16.073,0,0,1-1.411,7.787,14.365,14.365,0,0,1-13.383,8.349c-2.342.048-4.687.031-7.03-.007-.642-.011-.817.167-.816.812q.033,12.106,0,24.212c0,.651.189.813.821.808,3.71-.028,7.421.017,11.131-.037.849-.013,1,.246.983,1.026-.051,2.635-.041,5.272,0,7.907.009.62-.175.76-.764.745-1.626-.04-3.255.012-4.882-.027-.614-.015-.847.122-.837.795.039,2.636.007,5.272.019,7.908a5.575,5.575,0,0,0,2.914,5.063c2.847,1.692,5.684,3.4,8.527,5.1a8.7,8.7,0,0,1,4.33,10.28c-.244,1-.5,2.005-.782,3.114,1.338,0,2.6-.011,3.864.006.379.005.537-.127.5-.5-.016-.161,0-.325,0-.488,0-7.941-.012-15.881.019-23.821,0-.806-.195-1.037-1.014-1.016-2.2.057-2.2.016-2.2-2.18,0-2.246.015-4.491-.011-6.736-.006-.529.111-.718.685-.717q10.595.03,21.189,0c.554,0,.717.151.712.708q-.04,4.149,0,8.3c0,.519-.15.73-.664.647a.817.817,0,0,0-.195,0c-.768.067-1.816-.351-2.229.173-.385.489-.134,1.491-.135,2.268,0,7.452.009,14.9-.021,22.357,0,.77.119,1.05.977,1.029,2.635-.066,5.272-.044,7.909-.01.635.008.816-.168.814-.81q-.032-12.106,0-24.212c0-.659-.195-.841-.828-.81-.77.037-1.822.265-2.246-.131-.506-.473-.144-1.533-.152-2.336-.022-2.115.011-4.231-.019-6.346-.008-.586.078-.834.769-.831q10.5.044,20.994,0c.7,0,.863.205.854.874q-.055,3.953,0,7.908c.008.645-.11.933-.837.894-.768-.041-1.788-.349-2.255.123-.511.517-.155,1.543-.157,2.345-.014,7.419,0,14.84-.026,22.259,0,.807.115,1.119,1.03,1.083,2.089-.081,2.056-.019,2.3,2.031.524,4.423,1.062,8.844,1.659,13.258.1.743-.061.843-.739.842q-13.378-.031-26.755-.014-32.321,0-64.642.021c-.891,0-1.274-.2-1.494-1.113C3.414,92.7,1.853,86.535.319,80.361A8.623,8.623,0,0,1,4.288,70.7c2.863-1.729,5.72-3.469,8.621-5.134a6.013,6.013,0,0,0,3.273-5.759c-.053-2.472-.032-4.947,0-7.419.009-.639-.168-.837-.817-.819-1.626.046-3.255-.005-4.882.026-.554.011-.8-.071-.785-.723q.062-4.1,0-8.2c-.009-.626.186-.745.768-.741,3.71.026,7.421-.009,11.131.031.777.008,1.1-.143,1.04-.993a25.624,25.624,0,0,1,0-3.122c.028-.6-.133-.779-.749-.77-2.343.037-4.687.019-7.03.014A14.6,14.6,0,0,1,.013,21.608c.016-.387,0-.685.543-.675,4,.07,8.009-.153,12.005.116a13.994,13.994,0,0,1,9.476,4.657c.131.14.273.269.415.4.012.011.055-.013.171-.046,0-3.117-.01-6.259.008-9.4,0-.671-.447-.505-.8-.512-2.863-.055-5.73.123-8.589-.1A14.518,14.518,0,0,1,.029,2.147C.007,1.432.014.715.008,0H13.094c.063.059.122.165.191.172A13.37,13.37,0,0,1,19.4,2.481,15.067,15.067,0,0,1,24.2,7.826c.233-.364.406-.625.57-.891A14.281,14.281,0,0,1,32.155.892c.979-.363,2-.6,3.009-.892ZM27.378,9.206a3.18,3.18,0,0,0,.421-.227,21.245,21.245,0,0,1,10.314-4.04c2.251-.272,2.249-.294,2.247,1.915a2.616,2.616,0,0,0,0,.39c.1.64-.179.809-.808.841a17.576,17.576,0,0,0-10.467,4c-.257.209-.488.45-.9.832,2.748-.126,5.25.176,7.737-.219a11.314,11.314,0,0,0,8.977-8.585c.085-.431.274-.9-.53-.887-2.83.051-5.677-.129-8.487.123A10.364,10.364,0,0,0,27.3,9.121a1.394,1.394,0,0,0-.078.189c.107.062.135-.023.16-.1M24.235,96.738c5.143,0,10.286-.019,15.429.02.792.006,1.119-.2,1.31-.99,1.28-5.27,2.62-10.525,3.926-15.788.755-3.044-.139-5.155-2.835-6.772-2.842-1.7-5.692-3.4-8.532-5.106a8.572,8.572,0,0,1-4.459-7.813c.006-2.6-.029-5.208.019-7.81.014-.755-.224-.919-.937-.908-2.636.041-5.274.049-7.909,0-.774-.015-.9.251-.893.946.04,2.538,0,5.077.02,7.615A8.7,8.7,0,0,1,14.8,68.176q-4.4,2.612-8.781,5.259A5.358,5.358,0,0,0,3.473,79.63c1.339,5.422,2.709,10.837,4.034,16.263a.933.933,0,0,0,1.1.864c5.208-.034,10.416-.018,15.624-.018m69.491-9.745a.946.946,0,0,0-.481.725A8.049,8.049,0,0,1,77.778,87.7c-.171-.541-.421-.62-.893-.618-2.863.014-5.727.021-8.591-.006a.765.765,0,0,0-.874.643,8.032,8.032,0,0,1-15.445-.024.762.762,0,0,0-.9-.614c-1.3.023-2.6.034-3.9,0-.561-.016-.777.165-.908.724-.624,2.655-1.259,5.309-1.99,7.935-.259.931.038,1.013.834,1.011q13.765-.03,27.529-.013c7.126,0,14.253-.013,21.379.017.806,0,.99-.207.853-.991-.234-1.343-.353-2.706-.526-4.06-.2-1.529-.4-3.057-.612-4.7M80.67,72.215c0,4.359-.01,8.719,0,13.079a4.8,4.8,0,0,0,4.675,4.987,4.747,4.747,0,0,0,4.97-4.676c.1-1.98.01-3.968.045-5.952.01-.566-.249-.632-.708-.623-1.106.022-2.214-.025-3.318.019-.617.025-.833-.128-.833-.8,0-2.472-.03-2.472,2.45-2.472,2.506,0,2.485,0,2.414-2.515-.016-.578-.215-.712-.743-.7-1.138.032-2.278-.008-3.416.018-.473.011-.73-.077-.7-.631a17.5,17.5,0,0,0,0-2.049c-.027-.49.17-.6.619-.587,1.138.027,2.279-.028,3.416.023.637.029.821-.154.821-.8,0-2.406.024-2.406-2.345-2.406-2.608,0-2.591,0-2.516-2.613.015-.516.154-.664.663-.648,1.138.036,2.278-.019,3.416.024.578.021.811-.11.78-.742-.053-1.1-.046-2.213,0-3.317.025-.632-.162-.83-.818-.821-2.668.039-5.337.05-8,0-.77-.016-.894.233-.888.931.032,4.424.016,8.849.016,13.274m-25.787-.047c0,4.393-.012,8.785,0,13.178a4.811,4.811,0,1,0,9.62.078c.033-1.333.008-2.668.008-4,0-2.376,0-2.376-2.337-2.376-2.547,0-2.522,0-2.491-2.554.007-.637.225-.756.792-.733,1.04.041,2.085-.03,3.123.026.688.037.95-.1.935-.879-.043-2.318,0-2.319-2.322-2.319-2.62,0-2.606,0-2.524-2.617.016-.5.131-.681.653-.662,1.073.038,2.15-.035,3.221.027.744.043.988-.152.97-.941-.05-2.25-.011-2.251-2.29-2.251-2.709,0-2.694,0-2.555-2.685.025-.477.17-.6.624-.592,1.171.027,2.344-.02,3.514.021.564.02.718-.164.7-.712-.041-1.1-.044-2.213,0-3.318.025-.62-.131-.844-.8-.834q-4,.059-8.005,0c-.7-.011-.858.2-.853.868.03,4.425.015,8.85.016,13.276M21.075,9.294c0-.269.022-.344,0-.393a5.781,5.781,0,0,0-.345-.587,10.826,10.826,0,0,0-8.689-5.022c-2.595-.127-5.2-.014-7.8-.07-.784-.017-.857.295-.7.916A11.754,11.754,0,0,0,6.576,9.6c3.82,3.933,8.687,3.341,13.641,3.243a17.542,17.542,0,0,0-9.866-4.625c-2.405-.294-2.394-.247-2.29-2.712.022-.515.177-.662.681-.651a20.746,20.746,0,0,1,4.9.724,21.342,21.342,0,0,1,7.431,3.715M20.018,33.833c-.056-.368-.285-.463-.448-.6a17.2,17.2,0,0,0-10.6-4.149c-.735-.026-.923-.242-.917-.958.02-2.4-.009-2.4,2.5-2.17.291.027.582.062.87.108a20.9,20.9,0,0,1,9.609,4.176c.2-.349-.045-.545-.176-.744a10.97,10.97,0,0,0-9.16-5.274c-2.437-.087-4.881.02-7.32-.046-.882-.024-1.048.238-.836,1.028a11.722,11.722,0,0,0,4.612,6.672c3.643,2.625,7.79,1.856,11.857,1.956m4.11,14.558h9.08c2.329,0,2.291,0,2.336-2.32.016-.8-.235-.957-.982-.954-6.412.028-12.823.016-19.235.016-2.442,0-2.413,0-2.428,2.414,0,.7.2.865.878.858,3.45-.033,6.9-.015,10.35-.015m35.543,6.467h5.755c2.371,0,2.329,0,2.379-2.364.018-.826-.282-.939-1-.935-4.259.03-8.519.015-12.778.015-2.453,0-2.428,0-2.436,2.416,0,.666.158.9.861.884,2.405-.043,4.812-.016,7.218-.016m25.77-.026h5.753c2.378,0,2.343,0,2.38-2.343.012-.74-.191-.911-.915-.9-4.258.037-8.516.018-12.773.018-2.5,0-2.477,0-2.438,2.493.009.608.187.759.778.751,2.4-.033,4.81-.014,7.215-.014" transform="translate(0)" fill="#030303"/>
    <path id="Trazado_276446" data-name="Trazado 276446" d="M272.435,0a12.415,12.415,0,0,0,2.685.57A22.608,22.608,0,1,1,266.01.359c.45-.076.965,0,1.348-.359Zm-2.412,3.237A19.35,19.35,0,1,0,289.4,22.49,19.326,19.326,0,0,0,270.023,3.237" transform="translate(-197.429)" fill="#030303"/>
    <path id="Trazado_276447" data-name="Trazado 276447" d="M37.176,300.371c-5.208,0-10.416-.015-15.624.018a.933.933,0,0,1-1.1-.864c-1.325-5.426-2.694-10.841-4.034-16.263a5.358,5.358,0,0,1,2.544-6.195q4.375-2.655,8.781-5.259a8.7,8.7,0,0,0,4.576-8.047c-.022-2.538.02-5.077-.02-7.615-.011-.7.119-.962.893-.946,2.636.052,5.273.045,7.909,0,.713-.011.951.153.937.908-.048,2.6-.013,5.207-.019,7.81a8.572,8.572,0,0,0,4.459,7.813c2.84,1.708,5.69,3.4,8.532,5.106,2.7,1.617,3.589,3.728,2.835,6.772-1.305,5.264-2.646,10.519-3.926,15.789-.191.788-.518,1-1.31.99-5.143-.04-10.286-.02-15.429-.02M54.921,281.91a2.426,2.426,0,0,0-1.228-2.094q-1.746-1.066-3.505-2.108c-.694-.41-1.5-1.215-2.082-1.084-.686.154-.893,1.322-1.391,1.992-.362.487-.158.7.278.953,1.292.748,2.547,1.56,3.852,2.286a.85.85,0,0,1,.486,1.155c-.851,3.3-1.657,6.607-2.472,9.914-.177.72-.7,1.719-.41,2.1.373.493,1.4.471,2.135.719.624.211.9.081,1.059-.613.685-2.938,1.435-5.86,2.164-8.787.376-1.51.759-3.019,1.115-4.432M42.7,276.953a3.565,3.565,0,0,0,.874-1.242c.842-1.353.856-1.395-.377-2.311-.6-.447-.981-1.492-1.734-1.326-.674.148-1.193.952-1.81,1.429-.4.312-.432.543-.062.92a15.455,15.455,0,0,0,2.679,2.256l.431.274" transform="translate(-12.94 -203.632)" fill="#68d4f2"/>
    <path id="Trazado_276448" data-name="Trazado 276448" d="M268.18,430.518c.214,1.647.416,3.175.612,4.7.173,1.354.291,2.717.526,4.06.137.784-.047.994-.854.991-7.126-.029-14.252-.017-21.379-.017q-13.765,0-27.529.013c-.8,0-1.093-.081-.834-1.012.731-2.626,1.366-5.281,1.99-7.936.131-.558.348-.74.908-.724,1.3.037,2.6.027,3.9,0a.762.762,0,0,1,.9.614,8.032,8.032,0,0,0,15.445.024.765.765,0,0,1,.874-.643c2.863.027,5.727.02,8.59.006.472,0,.722.076.893.618a8.049,8.049,0,0,0,15.468.023.946.946,0,0,1,.481-.725" transform="translate(-174.453 -343.525)" fill="#dbd8b2"/>
    <path id="Trazado_276449" data-name="Trazado 276449" d="M399.165,301.286c0-4.425.016-8.849-.016-13.274-.005-.7.119-.947.889-.931,2.667.055,5.336.044,8,.005.656-.01.843.189.818.821-.044,1.1-.051,2.214,0,3.317.03.632-.2.764-.781.742-1.137-.043-2.278.012-3.416-.024-.508-.016-.648.132-.663.648-.075,2.614-.092,2.613,2.516,2.613,2.368,0,2.343,0,2.345,2.406,0,.649-.184.832-.821.8-1.136-.051-2.277,0-3.416-.023-.449-.01-.646.1-.619.587a17.457,17.457,0,0,1,0,2.049c-.034.554.222.641.7.631,1.138-.026,2.278.014,3.416-.018.529-.015.727.119.743.7.071,2.516.092,2.515-2.414,2.515-2.48,0-2.451,0-2.45,2.473,0,.669.216.822.833.8,1.1-.044,2.213,0,3.319-.019.459-.009.718.057.708.623-.035,1.984.05,3.972-.045,5.952a4.748,4.748,0,0,1-4.97,4.676,4.8,4.8,0,0,1-4.675-4.987c-.013-4.36,0-8.719,0-13.079" transform="translate(-318.494 -229.071)" fill="#ebf9ff"/>
    <path id="Trazado_276450" data-name="Trazado 276450" d="M271.552,301.294c0-4.425.014-8.85-.016-13.276,0-.672.158-.879.853-.868q4,.063,8.005,0c.671-.01.827.215.8.834-.044,1.1-.041,2.213,0,3.318.02.548-.134.732-.7.711-1.17-.042-2.343.005-3.514-.021-.453-.01-.6.115-.624.592-.139,2.685-.154,2.684,2.555,2.684,2.279,0,2.24,0,2.29,2.251.018.789-.226.984-.97.941-1.07-.062-2.148.011-3.221-.027-.523-.019-.638.164-.654.662-.082,2.618-.1,2.617,2.524,2.617,2.318,0,2.278,0,2.322,2.318.015.777-.247.916-.935.879-1.039-.055-2.083.015-3.123-.026-.567-.023-.785.1-.792.733-.031,2.555-.056,2.555,2.491,2.555,2.337,0,2.338,0,2.337,2.375,0,1.334.025,2.669-.008,4a4.811,4.811,0,1,1-9.62-.078c-.016-4.393,0-8.785,0-13.178" transform="translate(-216.668 -229.127)" fill="#ebf9ff"/>
    <path id="Trazado_276451" data-name="Trazado 276451" d="M34.779,22.021a21.343,21.343,0,0,0-7.431-3.715,20.756,20.756,0,0,0-4.9-.724c-.5-.011-.66.136-.681.651-.1,2.465-.116,2.417,2.29,2.712a17.541,17.541,0,0,1,9.865,4.625c-4.953.1-9.821.689-13.641-3.243a11.751,11.751,0,0,1-3.041-5.46c-.154-.621-.081-.933.7-.916,2.6.055,5.205-.057,7.8.07a10.827,10.827,0,0,1,8.689,5.022,5.908,5.908,0,0,1,.344.587c.026.049,0,.124,0,.393" transform="translate(-13.703 -12.726)" fill="#b1d97d"/>
    <path id="Trazado_276452" data-name="Trazado 276452" d="M33.707,129.3c-4.067-.1-8.214.669-11.857-1.956a11.722,11.722,0,0,1-4.611-6.672c-.213-.79-.046-1.052.836-1.028,2.439.067,4.883-.04,7.32.046a10.97,10.97,0,0,1,9.16,5.274c.131.2.375.4.176.744a20.9,20.9,0,0,0-9.609-4.175c-.289-.046-.579-.081-.87-.108-2.512-.232-2.484-.231-2.5,2.17-.006.716.181.932.917.958a17.2,17.2,0,0,1,10.6,4.149c.163.136.392.23.448.6" transform="translate(-13.689 -95.464)" fill="#b1d97d"/>
    <path id="Trazado_276453" data-name="Trazado 276453" d="M135.086,21.815a10.366,10.366,0,0,1,8.592-5.767c2.81-.252,5.657-.072,8.487-.123.8-.015.615.456.53.887a11.313,11.313,0,0,1-8.977,8.585c-2.487.4-4.989.093-7.737.219.409-.381.64-.622.9-.832a17.577,17.577,0,0,1,10.467-4c.628-.032.906-.2.807-.841a2.585,2.585,0,0,1,0-.39c0-2.209,0-2.186-2.248-1.915a21.247,21.247,0,0,0-10.314,4.04,3.228,3.228,0,0,1-.421.227l-.082-.085" transform="translate(-107.79 -12.694)" fill="#b1d97d"/>
    <path id="Trazado_276454" data-name="Trazado 276454" d="M75.071,226.549c-3.45,0-6.9-.018-10.35.015-.673.006-.882-.161-.878-.858.014-2.414-.014-2.414,2.428-2.414,6.412,0,12.823.012,19.235-.016.747,0,1,.158.982.954-.046,2.319-.007,2.32-2.336,2.32h-9.08" transform="translate(-50.943 -178.159)" fill="#68d4f2"/>
    <path id="Trazado_276455" data-name="Trazado 276455" d="M263.408,258.459c-2.406,0-4.813-.026-7.218.016-.7.013-.863-.218-.861-.884.007-2.416-.017-2.416,2.436-2.416,4.259,0,8.519.015,12.778-.014.716-.005,1.015.108,1,.934-.05,2.363-.007,2.363-2.379,2.363h-5.755" transform="translate(-203.736 -203.602)" fill="#b1d97d"/>
    <path id="Trazado_276456" data-name="Trazado 276456" d="M391.237,258.531c-2.405,0-4.811-.019-7.215.014-.591.008-.769-.142-.778-.751-.039-2.493-.061-2.493,2.438-2.493,4.258,0,8.516.019,12.773-.018.724-.006.927.165.915.9-.037,2.342,0,2.343-2.38,2.343h-5.753" transform="translate(-305.796 -203.699)" fill="#fff"/>
    <path id="Trazado_276457" data-name="Trazado 276457" d="M134.86,45.221c-.025.081-.052.166-.16.1a1.469,1.469,0,0,1,.078-.189l.082.085" transform="translate(-107.481 -36.016)" fill="#b1d97d"/>
    <path id="Trazado_276458" data-name="Trazado 276458" d="M282.956,16.019a19.35,19.35,0,1,1-19.323,19.376,19.385,19.385,0,0,1,19.323-19.376m.033,20.93a8.042,8.042,0,1,0,8.061-8.024,8.021,8.021,0,0,0-8.061,8.024M271.689,25.7a4.825,4.825,0,1,0,4.811-4.864,4.852,4.852,0,0,0-4.811,4.864m8.035,17.755a4.819,4.819,0,1,0-4.851,4.819,4.838,4.838,0,0,0,4.851-4.819" transform="translate(-210.362 -12.782)" fill="#ebf9ff"/>
    <path id="Trazado_276459" data-name="Trazado 276459" d="M174.613,366.461c-.356,1.413-.739,2.921-1.115,4.432-.729,2.927-1.479,5.85-2.164,8.787-.162.694-.435.824-1.059.612-.731-.247-1.762-.225-2.135-.719-.287-.379.233-1.378.411-2.1.816-3.307,1.621-6.616,2.472-9.914a.85.85,0,0,0-.486-1.155c-1.3-.726-2.56-1.538-3.852-2.286-.437-.253-.641-.466-.278-.953.5-.67.705-1.838,1.391-1.992.584-.131,1.387.673,2.082,1.084q1.761,1.041,3.505,2.108a2.427,2.427,0,0,1,1.228,2.094" transform="translate(-132.632 -288.183)" fill="#030303"/>
    <path id="Trazado_276460" data-name="Trazado 276460" d="M133.961,343.524l-.431-.274a15.454,15.454,0,0,1-2.679-2.256c-.37-.377-.342-.608.062-.92.617-.476,1.136-1.28,1.81-1.429.753-.166,1.132.879,1.734,1.326,1.233.916,1.219.957.377,2.311a3.566,3.566,0,0,1-.874,1.242" transform="translate(-104.203 -270.202)" fill="#030303"/>
    <path id="Trazado_276461" data-name="Trazado 276461" d="M359.425,87.916a8.042,8.042,0,1,1,8.023,8.067,8.012,8.012,0,0,1-8.023-8.067m8.067-4.819a4.843,4.843,0,1,0,4.823,4.864,4.889,4.889,0,0,0-4.823-4.864" transform="translate(-286.797 -63.748)" fill="#030303"/>
    <path id="Trazado_276462" data-name="Trazado 276462" d="M303.5,44.7a4.825,4.825,0,1,1,4.839,4.833A4.852,4.852,0,0,1,303.5,44.7m6.436-.057a1.606,1.606,0,1,0-1.589,1.624,1.6,1.6,0,0,0,1.589-1.624" transform="translate(-242.173 -31.786)" fill="#030303"/>
    <path id="Trazado_276463" data-name="Trazado 276463" d="M305.2,132.515a4.819,4.819,0,1,1-4.789-4.876,4.843,4.843,0,0,1,4.789,4.876m-4.821-1.611a1.592,1.592,0,0,0-1.613,1.605,1.611,1.611,0,0,0,1.66,1.566A1.632,1.632,0,0,0,302,132.511a1.6,1.6,0,0,0-1.614-1.607" transform="translate(-235.843 -101.847)" fill="#030303"/>
    <path id="Trazado_276464" data-name="Trazado 276464" d="M380.106,95.752a4.843,4.843,0,1,1-4.873,4.812,4.893,4.893,0,0,1,4.873-4.812m1.572,4.778c0-1.534,0-1.534-1.522-1.534-1.671,0-1.671,0-1.671,1.676,0,1.523,0,1.523,1.522,1.523,1.671,0,1.671,0,1.671-1.665" transform="translate(-299.411 -76.404)" fill="#89ebd4"/>
    <path id="Trazado_276465" data-name="Trazado 276465" d="M322.664,57.524a1.606,1.606,0,1,1-3.213.035,1.607,1.607,0,0,1,3.213-.035" transform="translate(-254.901 -44.667)" fill="#22afd6"/>
    <path id="Trazado_276466" data-name="Trazado 276466" d="M313.032,143.8a1.6,1.6,0,0,1,1.614,1.607,1.632,1.632,0,0,1-1.568,1.564,1.611,1.611,0,0,1-1.66-1.566,1.592,1.592,0,0,1,1.613-1.6" transform="translate(-248.492 -114.743)" fill="#2941a0"/>
    <path id="Trazado_276467" data-name="Trazado 276467" d="M394.519,113.339c0,1.665,0,1.665-1.671,1.665-1.522,0-1.522,0-1.522-1.523,0-1.676,0-1.676,1.671-1.676,1.522,0,1.522,0,1.522,1.534" transform="translate(-312.252 -89.213)" fill="#030303"/>
  </g>
</svg>
