<svg xmlns="http://www.w3.org/2000/svg" xmlns:xlink="http://www.w3.org/1999/xlink" width="187" height="187" viewBox="0 0 187 187">
  <defs>
    <clipPath id="clip-path">
      <circle id="Elipse_154" data-name="Elipse 154" cx="83.5" cy="83.5" r="83.5" transform="translate(0.08 0.269)" fill="#ebf9ff" stroke="#707070" stroke-width="1"/>
    </clipPath>
    <clipPath id="clip-path-2">
      <rect id="Rectángulo_45738" data-name="Rectángulo 45738" width="103.237" height="118.404" fill="none"/>
    </clipPath>
  </defs>
  <g id="Grupo_147242" data-name="Grupo 147242" transform="translate(-1017.053 -834.25)">
    <g id="Grupo_130165" data-name="Grupo 130165" transform="translate(1026.972 843.98)">
      <g id="Enmascarar_grupo_17" data-name="Enmascarar grupo 17" transform="translate(0 0.001)" clip-path="url(#clip-path)">
        <g id="Elipse_5506" data-name="Elipse 5506" transform="translate(-35.92 -35.731)" fill="#ebf9ff" stroke="#707070" stroke-width="1">
          <circle cx="120" cy="120" r="120" stroke="none"/>
          <circle cx="120" cy="120" r="119.5" fill="none"/>
        </g>
      </g>
      <g id="Elipse_157" data-name="Elipse 157" transform="translate(0.081 0.27)" fill="none" stroke="#00ffe6" stroke-linejoin="round" stroke-width="10">
        <circle cx="83.5" cy="83.5" r="83.5" stroke="none"/>
        <circle cx="83.5" cy="83.5" r="88.5" fill="none"/>
      </g>
    </g>
    <g id="Grupo_145024" data-name="Grupo 145024" transform="translate(1056.051 861.83)">
      <g id="Grupo_145023" data-name="Grupo 145023" clip-path="url(#clip-path-2)">
        <path id="Trazado_275615" data-name="Trazado 275615" d="M30.551,105.359c-2.3,1.973-4.4,3.8-6.521,5.585a14.454,14.454,0,0,1-23.653-7.6A13.6,13.6,0,0,1,0,100.156Q.007,75.04.007,49.925a7.628,7.628,0,0,1,15.244-.584,1.019,1.019,0,0,0,.653.968,5.6,5.6,0,0,1,3.192,5.3c.006,1.312-.011,2.625,0,3.937a9.5,9.5,0,0,1-2.935,7.176,1.6,1.6,0,0,0-.479,1.764c.957,4.093,1.833,8.2,2.738,12.312.407-.054.482-.412.651-.66A37.378,37.378,0,0,1,37.886,65.616a1.976,1.976,0,0,0,1.268-1.12c.572-1.263,1.639-2.457,1.736-3.738.1-1.373-1.637-2.022-2.447-3.1a19.2,19.2,0,0,1-4.063-11.591c-.041-4.852-.023-9.7,0-14.556,0-.645-.1-.913-.825-1.067a3.719,3.719,0,0,1-3-3.778c-.02-1.232-.023-2.466,0-3.7a3.759,3.759,0,0,1,3.263-3.806A1.044,1.044,0,0,0,34.9,18.23,19.358,19.358,0,0,1,52.629,3.866c.648-.037.8-.252.936-.841A3.754,3.754,0,0,1,57.345.014c1.193-.021,2.386-.015,3.579,0A3.769,3.769,0,0,1,64.842,3.15c.119.539.256.671.8.709a19.281,19.281,0,0,1,17.868,14.5c.16.574.387.711.942.788a3.78,3.78,0,0,1,3.373,3.831q.036,1.849,0,3.7a3.707,3.707,0,0,1-3.013,3.768C84.061,30.6,84,30.9,84,31.519c.021,4.574-.013,9.148.018,13.721A19.012,19.012,0,0,1,77.781,59.9c-.415.387-.609.7-.232,1.192a1.093,1.093,0,0,1,.159.319c.891,2.653,2.7,4.079,5.3,5.305,10.77,5.081,16.772,13.763,17.962,25.627.845,8.424,1.489,16.868,2.251,25.3.052.58-.025.822-.636.746a5.814,5.814,0,0,0-.715,0h-69.8c-1.522,0-1.522,0-1.522-1.584V105.359M57.282,95.52c0-5.927-.048-11.854.039-17.779.018-1.238-.4-1.475-1.484-1.569a26.81,26.81,0,0,1-15.508-6.6,1.264,1.264,0,0,0-1.472-.285A34.017,34.017,0,0,0,20.113,85.86a2.179,2.179,0,0,0-.225,1.592c.823,3.6,1.605,7.2,2.421,10.8.578,2.549.581,2.506-1.931,3.134-.986.247-1.319.01-1.537-1-2.22-10.2-4.509-20.381-6.734-30.577-.191-.877-.529-1.123-1.394-1.093-1.947.068-3.9.061-5.846,0-.8-.024-1.07.136-1.067,1.011.035,10.063.024,20.126.019,30.189A11.042,11.042,0,0,0,4.2,102.87a10.585,10.585,0,0,0,16.889,5.511c2.974-2.39,5.8-4.959,8.73-7.41a1.853,1.853,0,0,0,.746-1.606c-.033-4.216-.017-8.432-.017-12.648,0-2.706,0-2.663,2.678-2.723.926-.02,1.169.217,1.165,1.157-.038,9.466-.011,18.933-.044,28.4,0,.841.209,1.04,1.042,1.036q10.441-.054,20.882,0c.854,0,1.033-.23,1.028-1.05-.037-6.006-.02-12.012-.02-18.018m3.819-.064c0,5.965.024,11.93-.024,17.895-.008.959.176,1.251,1.2,1.243q10.259-.08,20.519,0c.965.006,1.245-.186,1.239-1.206-.047-8.908-.027-17.816-.027-26.723,0-2.647,0-2.6,2.613-2.669.979-.027,1.238.2,1.233,1.213-.045,9.425-.013,18.849-.048,28.274,0,.873.177,1.132,1.09,1.112,3.06-.066,6.124-.061,9.185,0,.881.017,1.047-.254.963-1.066-.277-2.688-.466-5.385-.729-8.075-.49-5.023-.56-10.1-1.451-15.067-1.837-10.243-7.8-17.223-17.412-21.129a1.07,1.07,0,0,0-1.271.2,26.915,26.915,0,0,1-16.053,6.764c-.92.07-1.054.405-1.049,1.222.034,6,.019,12.01.019,18.014M49.606,52.407c-.051-6.865,4.924-10.2,9.085-10.377,5.651-.244,9.2,3.321,10.173,10.308a7.319,7.319,0,0,0,3.658-6.195c.1-4.926.022-9.855.046-14.783,0-.6-.121-.817-.776-.815q-12.578.034-25.156,0c-.584,0-.829.1-.825.765.033,4.967-.041,9.936.057,14.9a7.386,7.386,0,0,0,3.738,6.192m9.477-25.668h22.3c2.633,0,2.576,0,2.655-2.634.031-1.028-.285-1.208-1.246-1.205q-22.838.048-45.677.023c-2.763,0-2.715,0-2.772,2.754-.019.929.267,1.087,1.124,1.083,7.871-.034,15.742-.02,23.614-.02M3.826,56.777h0c0,2.423.018,4.845-.012,7.268-.008.62.079.913.815.9,2.422-.048,4.845-.016,7.268-.02a1.157,1.157,0,0,0,.891-.206A6.267,6.267,0,0,0,15.225,60.5c.107-1.741.079-3.494.025-5.24a1.843,1.843,0,0,0-1.873-1.785,1.944,1.944,0,0,0-1.914,1.764c-.1.676.38,1.606-.268,1.97-.545.307-1.394.073-2.109.077-.318,0-.636-.012-.953,0-.344.016-.447-.126-.5-.473a6.028,6.028,0,0,1,3.083-6.434,1.128,1.128,0,0,0,.675-1.5,3.88,3.88,0,0,0-4.121-3.039A3.792,3.792,0,0,0,3.838,49.51c-.051,2.422-.012,4.845-.012,7.268M79.692,19.1C78.114,12.785,71.934,7.79,65.73,7.663c-.6-.012-.831.1-.825.755.031,3.333.022,6.667.006,10,0,.5.118.7.659.694,4.681-.018,9.362-.011,14.122-.011m-41,0c4.76,0,9.441-.008,14.122.011.541,0,.661-.2.659-.694-.017-3.333-.025-6.667.006-10,.006-.658-.223-.79-.825-.751A15.454,15.454,0,0,0,38.69,19.1M49.644,60.556c0-1.087-.044-2.078.015-3.063.04-.653-.186-.93-.787-1.22a11.234,11.234,0,0,1-6.856-10.665c-.047-4.052-.01-8.105-.01-12.158,0-2.959,0-2.939-2.957-2.907-.64.007-.882.124-.877.832.037,5.046-.052,10.093.053,15.137A15.046,15.046,0,0,0,49.644,60.556m19.105.008a15.094,15.094,0,0,0,11.41-14.089c.1-4.368.03-8.74.033-13.11,0-2.827,0-2.789-2.8-2.829-.842-.012-1.043.211-1.035,1.043.043,4.767.065,9.535.007,14.3a11.346,11.346,0,0,1-4.9,9.332c-.87.65-2.292.7-2.652,1.742a11.109,11.109,0,0,0-.132,3.311,1.506,1.506,0,0,0,.071.3m-3.834-1.332a5.725,5.725,0,1,0-5.7,5.692,5.757,5.757,0,0,0,5.7-5.692M57.281,70.514a3.805,3.805,0,0,1,.006-.714c.19-.97-.228-1.381-1.169-1.6a4,4,0,0,1-2-.983c-1.875-2.078-4.331-2.848-6.93-3.369-1.024-.206-2.067-1.413-2.876-.892s-1.046,1.888-1.582,2.858c-.266.482-.164.745.247,1.085a23.817,23.817,0,0,0,12.36,5.419c1.941.252,1.947.207,1.947-1.8m3.821.008c0,.4.028.8-.007,1.191-.052.6.09.824.778.758A24.327,24.327,0,0,0,74.381,67.7c1.607-1.2,1.6-1.209.73-2.952-.231-.461-.492-.909-.681-1.387-.247-.621-.544-.7-1.161-.391A16.529,16.529,0,0,1,67.49,64.7a1.525,1.525,0,0,0-1.064.659A8.462,8.462,0,0,1,62.253,68.2c-.934.265-1.338.651-1.159,1.609a3.946,3.946,0,0,1,.007.714M57.282,11.347v4.888c0,2.9,0,2.873,2.862,2.889.782,0,.982-.206.974-.981-.041-3.814-.019-7.63-.019-11.445,0-2.948,0-2.924-2.982-2.886-.675.008-.864.188-.851.859.041,2.225.015,4.45.015,6.676M64.86,51.523a5.269,5.269,0,0,0-3.745-5.143c0,.963.017,1.908-.008,2.851-.011.418.1.642.54.747a10.064,10.064,0,0,1,3.212,1.545M57.179,46.4a4.977,4.977,0,0,0-3.553,5.025,4.491,4.491,0,0,1,1.347-.745c2.577-.377,2.491-2.182,2.284-4.079a.819.819,0,0,0-.078-.2" transform="translate(0 0)" fill="#020202"/>
        <path id="Trazado_275616" data-name="Trazado 275616" d="M65.4,242.252c0,6.006-.017,12.012.02,18.018.005.82-.174,1.055-1.028,1.05q-10.441-.058-20.882,0c-.833,0-1.045-.195-1.042-1.036.033-9.466.006-18.933.044-28.4,0-.94-.239-1.178-1.165-1.157-2.677.06-2.678.017-2.678,2.723,0,4.216-.017,8.432.017,12.648a1.853,1.853,0,0,1-.746,1.606c-2.926,2.451-5.755,5.02-8.73,7.41A10.585,10.585,0,0,1,12.318,249.6a11.042,11.042,0,0,1-.383-2.944c0-10.063.015-20.126-.019-30.189,0-.875.269-1.035,1.067-1.011,1.947.059,3.9.065,5.846,0,.865-.03,1.2.215,1.394,1.093,2.225,10.2,4.514,20.38,6.734,30.578.219,1.005.551,1.242,1.538,1,2.512-.628,2.508-.585,1.93-3.134-.816-3.6-1.6-7.206-2.421-10.8a2.177,2.177,0,0,1,.225-1.592,34.014,34.014,0,0,1,18.743-16.575,1.264,1.264,0,0,1,1.471.285,26.812,26.812,0,0,0,15.509,6.6c1.084.094,1.5.331,1.484,1.569-.087,5.925-.039,11.852-.039,17.779" transform="translate(-8.115 -146.732)" fill="#89ebd4"/>
        <path id="Trazado_275617" data-name="Trazado 275617" d="M191.511,243.063c0-6,.016-12.01-.018-18.014,0-.817.129-1.153,1.049-1.222a26.915,26.915,0,0,0,16.053-6.764,1.07,1.07,0,0,1,1.271-.2c9.613,3.906,15.575,10.886,17.412,21.129.891,4.965.961,10.044,1.451,15.067.262,2.69.451,5.387.729,8.075.084.811-.082,1.083-.963,1.066-3.061-.058-6.124-.063-9.185,0-.913.02-1.093-.239-1.09-1.112.034-9.425,0-18.849.048-28.274,0-1.009-.255-1.24-1.233-1.213-2.611.072-2.613.022-2.613,2.669,0,8.908-.02,17.816.027,26.723.005,1.019-.274,1.212-1.239,1.206q-10.259-.068-20.519,0c-1.026.008-1.21-.284-1.2-1.244.047-5.965.024-11.93.024-17.895m19.093-1.891c0-2.9-.021-5.805.016-8.708.008-.673-.179-.859-.854-.855q-6.8.044-13.6,0c-.674,0-.857.181-.854.854q.039,8.707,0,17.415c0,.673.179.859.853.855q6.8-.044,13.6,0c.674,0,.863-.18.854-.854-.036-2.9-.016-5.805-.016-8.708" transform="translate(-130.41 -147.607)" fill="#89ebd4"/>
        <path id="Trazado_275618" data-name="Trazado 275618" d="M147.421,117.624a7.385,7.385,0,0,1-3.738-6.191c-.1-4.966-.024-9.935-.057-14.9,0-.669.241-.766.825-.765q12.578.024,25.156,0c.655,0,.779.216.776.815-.024,4.928.053,9.857-.046,14.783a7.318,7.318,0,0,1-3.658,6.195c-.971-6.986-4.522-10.551-10.173-10.308-4.161.179-9.136,3.512-9.085,10.377M149.37,99.6a1.9,1.9,0,1,0,1.9,1.875,1.913,1.913,0,0,0-1.9-1.875m13.371,1.81A1.9,1.9,0,1,0,164.7,99.6a1.925,1.925,0,0,0-1.963,1.81" transform="translate(-97.815 -65.218)" fill="#eeceb3"/>
        <path id="Trazado_275619" data-name="Trazado 275619" d="M132.413,75.634c-7.871,0-15.743-.014-23.614.02-.857,0-1.143-.154-1.124-1.083.057-2.753.009-2.754,2.772-2.754q22.838,0,45.677-.023c.961,0,1.276.178,1.246,1.205-.079,2.632-.022,2.634-2.655,2.634Z" transform="translate(-73.33 -48.895)" fill="#cbd0d8"/>
        <path id="Trazado_275620" data-name="Trazado 275620" d="M11.96,154.634c0-2.423-.039-4.846.012-7.268a3.793,3.793,0,0,1,3.428-3.662,3.879,3.879,0,0,1,4.12,3.039,1.128,1.128,0,0,1-.675,1.5,6.028,6.028,0,0,0-3.083,6.434c.057.347.159.489.5.473.317-.015.635,0,.953,0,.715,0,1.564.229,2.109-.077.647-.364.167-1.295.268-1.971a1.944,1.944,0,0,1,1.914-1.764,1.843,1.843,0,0,1,1.874,1.785c.054,1.745.082,3.5-.026,5.24a6.269,6.269,0,0,1-2.442,4.216,1.16,1.16,0,0,1-.891.206c-2.423,0-4.846-.028-7.268.02-.736.014-.822-.278-.814-.9.03-2.422.012-4.845.012-7.268Z" transform="translate(-8.134 -97.857)" fill="#eeceb3"/>
        <path id="Trazado_275621" data-name="Trazado 275621" d="M218.276,35.462c-4.76,0-9.442-.008-14.122.011-.541,0-.661-.2-.659-.694.017-3.333.025-6.667-.006-10-.006-.658.225-.767.825-.755,6.2.127,12.384,5.122,13.962,11.439" transform="translate(-138.584 -16.36)" fill="#89ebd4"/>
        <path id="Trazado_275622" data-name="Trazado 275622" d="M121.3,35.458a15.454,15.454,0,0,1,13.961-11.435c.6-.04.831.093.825.751-.031,3.333-.022,6.667-.006,10,0,.5-.118.7-.659.694-4.681-.018-9.362-.011-14.122-.011" transform="translate(-82.611 -16.356)" fill="#89ebd4"/>
        <path id="Trazado_275623" data-name="Trazado 275623" d="M131.149,125.758a15.046,15.046,0,0,1-11.418-14.043c-.105-5.044-.016-10.092-.053-15.137-.005-.708.237-.825.877-.832,2.957-.032,2.957-.052,2.957,2.907,0,4.053-.037,8.106.01,12.158a11.235,11.235,0,0,0,6.856,10.665c.6.289.826.566.787,1.219-.06.985-.016,1.976-.016,3.063" transform="translate(-81.505 -65.203)" fill="#22afd6"/>
        <path id="Trazado_275624" data-name="Trazado 275624" d="M215.264,125.763a1.527,1.527,0,0,1-.071-.3,11.122,11.122,0,0,1,.132-3.311c.36-1.046,1.783-1.092,2.652-1.742a11.345,11.345,0,0,0,4.9-9.332c.058-4.767.036-9.535-.007-14.3-.007-.832.193-1.054,1.035-1.043,2.8.04,2.8,0,2.8,2.829,0,4.37.064,8.741-.033,13.109a15.094,15.094,0,0,1-11.41,14.089" transform="translate(-146.514 -65.2)" fill="#22afd6"/>
        <path id="Trazado_275625" data-name="Trazado 275625" d="M179.074,173.4a5.725,5.725,0,1,1-5.631-5.759,5.763,5.763,0,0,1,5.631,5.759m-5.674-1.936a1.9,1.9,0,1,0,1.851,1.923,1.916,1.916,0,0,0-1.851-1.923" transform="translate(-114.158 -114.172)" fill="#a9b0bb"/>
        <path id="Trazado_275626" data-name="Trazado 275626" d="M148.2,204.656c0,2.009-.006,2.054-1.947,1.8a23.818,23.818,0,0,1-12.36-5.419c-.41-.34-.513-.6-.246-1.085.536-.97.777-2.339,1.582-2.858s1.852.686,2.876.892c2.6.521,5.054,1.291,6.93,3.369a4,4,0,0,0,2,.983c.94.22,1.358.632,1.169,1.6a3.778,3.778,0,0,0-.007.714" transform="translate(-90.917 -134.142)" fill="#22afd6"/>
        <path id="Trazado_275627" data-name="Trazado 275627" d="M191.461,204.6a3.976,3.976,0,0,0-.006-.714c-.18-.957.224-1.343,1.158-1.609a8.464,8.464,0,0,0,4.172-2.838,1.525,1.525,0,0,1,1.064-.659,16.531,16.531,0,0,0,5.778-1.73c.617-.312.914-.23,1.162.391.19.477.45.926.681,1.387.871,1.743.876,1.749-.73,2.952a24.328,24.328,0,0,1-12.509,4.769c-.688.066-.83-.162-.778-.758.034-.394.006-.794.006-1.191" transform="translate(-130.36 -134.079)" fill="#22afd6"/>
        <path id="Trazado_275628" data-name="Trazado 275628" d="M179.555,19.466c0-2.225.026-4.451-.016-6.676-.012-.671.177-.851.852-.859,2.982-.037,2.981-.061,2.981,2.887,0,3.814-.022,7.63.018,11.444.008.774-.192.986-.974.981-2.862-.016-2.862.016-2.862-2.889V19.466" transform="translate(-122.273 -8.12)" fill="#e5e8ec"/>
        <path id="Trazado_275629" data-name="Trazado 275629" d="M195.335,150.551a10.077,10.077,0,0,0-3.212-1.545c-.436-.1-.551-.329-.54-.747.025-.943.008-1.888.008-2.851a5.27,5.27,0,0,1,3.745,5.143" transform="translate(-130.475 -99.029)" fill="#a9b0bb"/>
        <path id="Trazado_275630" data-name="Trazado 275630" d="M171.631,145.459a.819.819,0,0,1,.078.2c.207,1.9.293,3.7-2.284,4.079a4.491,4.491,0,0,0-1.347.745,4.977,4.977,0,0,1,3.553-5.025" transform="translate(-114.453 -99.063)" fill="#a9b0bb"/>
        <path id="Trazado_275631" data-name="Trazado 275631" d="M218.774,272.925c0,2.9-.021,5.805.015,8.708.009.674-.18.859-.854.854q-6.8-.044-13.6,0c-.675,0-.856-.182-.853-.855q.039-8.708,0-17.415c0-.673.18-.859.854-.854q6.8.044,13.6,0c.675,0,.862.181.854.855-.036,2.9-.015,5.8-.015,8.707m-7.751-1.918H212.1c3.057,0,3.043,0,2.864-3.131-.029-.5-.134-.69-.669-.683q-3.161.042-6.323,0c-.549-.008-.629.209-.656.7-.171,3.119-.184,3.119,2.875,3.119h.835m0,7.637H212.1c3.056,0,3.042,0,2.861-3.134-.029-.506-.141-.686-.672-.679q-3.161.041-6.323,0c-.553-.008-.626.216-.653.7-.17,3.117-.181,3.116,2.878,3.116Z" transform="translate(-138.58 -179.36)" fill="#020202"/>
        <path id="Trazado_275632" data-name="Trazado 275632" d="M157.571,107.8a1.9,1.9,0,1,1-1.9,1.869,1.919,1.919,0,0,1,1.9-1.869" transform="translate(-106.015 -73.415)" fill="#020202"/>
        <path id="Trazado_275633" data-name="Trazado 275633" d="M203.55,109.606a1.9,1.9,0,1,1,1.78,1.993,1.917,1.917,0,0,1-1.78-1.993" transform="translate(-138.624 -73.412)" fill="#020202"/>
        <path id="Trazado_275634" data-name="Trazado 275634" d="M181.561,179.629a1.9,1.9,0,1,1-1.951,1.821,1.918,1.918,0,0,1,1.951-1.821" transform="translate(-122.32 -122.334)" fill="#020202"/>
        <path id="Trazado_275635" data-name="Trazado 275635" d="M219.07,279.187h-.835c-3.059,0-3.046,0-2.875-3.119.027-.486.107-.7.656-.7q3.161.044,6.323,0c.535-.007.64.181.669.683.179,3.132.193,3.131-2.864,3.131H219.07" transform="translate(-146.627 -187.539)" fill="#2941a0"/>
        <path id="Trazado_275636" data-name="Trazado 275636" d="M219.075,303.131h-.835c-3.059,0-3.047,0-2.878-3.116.026-.482.1-.706.653-.7q3.161.044,6.323,0c.531-.007.643.174.672.679.18,3.135.195,3.134-2.861,3.134Z" transform="translate(-146.63 -203.846)" fill="#2941a0"/>
      </g>
    </g>
  </g>
</svg>
