<svg id="Grupo_144999" data-name="Grupo 144999" xmlns="http://www.w3.org/2000/svg" xmlns:xlink="http://www.w3.org/1999/xlink" width="79.989" height="80" viewBox="0 0 79.989 80">
  <defs>
    <clipPath id="clip-path">
      <rect id="Rectángulo_45704" data-name="Rectángulo 45704" width="79.989" height="80" fill="none"/>
    </clipPath>
  </defs>
  <g id="Grupo_144998" data-name="Grupo 144998" clip-path="url(#clip-path)">
    <path id="Trazado_275362" data-name="Trazado 275362" d="M11.718,0h5.156c.051.048.1.133.152.137a29.685,29.685,0,0,1,11.45,3.537A24.3,24.3,0,0,0,38.865,6.414,25.533,25.533,0,0,0,52.148,3.365,29.593,29.593,0,0,1,59.958.556,13.584,13.584,0,0,0,62.806,0h5.312c.039.175.182.142.305.154A29.116,29.116,0,0,1,78.54,3.084a2.319,2.319,0,0,1,1.449,2.383q-.034,36.12-.017,72.24c0,1.829-.44,2.275-2.242,2.275Q40,79.982,2.279,80A2.331,2.331,0,0,1,0,78.888v-.156c.262-.2.151-.48.151-.724Q.158,41.551.15,5.094c0-.242.12-.527-.15-.72V4.218A4.311,4.311,0,0,1,1.5,3.069,30.732,30.732,0,0,1,8.654.58,20.793,20.793,0,0,0,11.718,0m28.14,62.5a1.606,1.606,0,0,1,2.58.073c1.24,1.227,2.48,2.454,3.7,3.7a3.582,3.582,0,0,1-.016,5.4c-1.516,1.54-3.054,3.059-4.577,4.591a1.109,1.109,0,0,0-.428.591H62.309q6.913,0,13.826,0c.4,0,.737.063.729-.572-.036-2.941-.023-5.884-.008-8.825,0-.437-.123-.588-.572-.583q-2.89.031-5.78,0c-.483,0-.584.119-.41.585.382,1.022.711,2.063,1.062,3.1A1.677,1.677,0,0,1,71.09,72a1.464,1.464,0,0,1-1.419.793,1.486,1.486,0,0,1-1.4-1.059c-.47-1.322-.981-2.634-1.357-3.983a1.025,1.025,0,0,0-1.266-.874c-.908.057-1.822.032-2.733,0a1.506,1.506,0,0,1-1.508-1.4,1.557,1.557,0,0,1,1.32-1.669,4.827,4.827,0,0,1,.856-.041c4.14,0,8.28-.018,12.42.014.675.005.868-.147.866-.85-.027-8.617-.017-17.235-.022-25.852a.829.829,0,0,0-.11-.636c-.174.232-.328.431-.476.635a32.256,32.256,0,0,1-2.719,3.708C69.6,44.835,65.572,48.793,61.578,52.79a2.031,2.031,0,0,1-1.538.63c-1.276-.017-2.552-.02-3.827,0a2.181,2.181,0,0,1-1.665-.705q-7.144-7.161-14.306-14.3a2.13,2.13,0,0,1-.669-1.6c.008-1.2.027-2.4-.007-3.593a2.553,2.553,0,0,1,.834-2.007q5.852-5.8,11.666-11.642a5.538,5.538,0,0,1,.7-.615q3.892-2.744,7.795-5.472a1.62,1.62,0,0,1,2.426.213q1.637,1.621,3.259,3.258c.968.975.966,1.756-.017,2.745-1.689,1.7-3.376,3.4-5.088,5.075-.384.376-.5.6-.045,1.041,2.07,2.016,4.108,4.066,6.135,6.126.355.36.546.371.906,0,1.636-1.677,3.305-3.322,4.963-4.979,1.265-1.264,1.875-1.265,3.14-.032.163.159.262.46.607.394q0-10.525.01-21.022a.778.778,0,0,0-.539-.819,25.812,25.812,0,0,0-9.877-2.343A26.875,26.875,0,0,0,53.175,6.328a28.12,28.12,0,0,1-23.78,1.194c-1.777-.681-3.4-1.672-5.149-2.42-.518-.222-.753-.13-1.043.341q-2.023,3.291-4.124,6.533a.822.822,0,0,0,.048,1.144,61.824,61.824,0,0,1,4.081,5.327c1.116,1.756,2.457,2.6,4.52,2.2a1.248,1.248,0,0,1,.312,0,1.613,1.613,0,0,1,1.624,1.565,1.568,1.568,0,0,1-1.7,1.546c-1.145.013-2.292-.024-3.437.013a1.962,1.962,0,0,1-1.792-.884c-.571-.792-1.2-1.546-1.843-2.377-.6,1.057-1.12,2.02-1.7,2.944a.92.92,0,0,0,.039,1.123q1.386,2.216,2.717,4.466a1.566,1.566,0,1,1-2.685,1.58c-1.129-1.84-2.226-3.7-3.368-5.532a1.844,1.844,0,0,1-.023-2.111c.888-1.5,1.705-3.04,2.609-4.529a.9.9,0,0,0-.1-1.229q-1.019-1.233-1.958-2.532a1.055,1.055,0,0,0-.972-.481c-2.4.02-4.791.014-7.186.008a1.63,1.63,0,0,1-1.842-1.572c.008-.922.752-1.547,1.868-1.55,2.343-.005,4.687-.009,7.03.006a.949.949,0,0,0,.951-.489q1.92-3.125,3.91-6.206c.284-.441.239-.566-.291-.68a25.454,25.454,0,0,0-16.087,1.7.968.968,0,0,0-.679,1.041q.023,34.8,0,69.591c0,.648.163.815.812.814,8.983-.022,17.966-.014,26.949-.021.212,0,.464.115.728-.22a8.186,8.186,0,0,1-.659-.538Q23.69,68.835,16.43,61.569a3.553,3.553,0,0,1-.77-4.66c.179-.358.044-.51-.169-.721-.851-.843-1.7-1.684-2.54-2.542a2.492,2.492,0,0,1,.012-3.744q2.141-2.167,4.308-4.308a2.5,2.5,0,0,1,3.745.009Q22.275,46.83,23.5,48.09c.26.266.443.388.849.168a3.52,3.52,0,0,1,4.427.657c1.118,1.091,2.219,2.2,3.314,3.314a1.61,1.61,0,0,1,.072,2.579,1.628,1.628,0,0,1-2.3-.385c-1.036-1.024-2.078-2.043-3.084-3.1-.456-.477-.793-.526-1.283-.029q-3.395,3.448-6.842,6.843c-.446.44-.489.756-.022,1.221q8.571,8.537,17.11,17.1c.42.421.722.465,1.159.023q3.456-3.5,6.954-6.952c.444-.438.4-.746-.022-1.159C42.618,67.2,41.43,66,40.239,64.8a1.62,1.62,0,0,1-.381-2.3M58.143,50.217c1.148.415,1.876-.255,2.645-1.038q4.484-4.572,9.053-9.061a22.275,22.275,0,0,0,2.9-3.457c.854-1.274,1.755-2.517,2.636-3.773,1-1.419.967-1.392-.2-2.626-.441-.467-.647-.342-1.02.039-1.675,1.712-3.376,3.4-5.073,5.088-1.024,1.021-1.786,1.022-2.8.009q-4.338-4.332-8.672-8.669c-1.061-1.061-1.057-1.779.017-2.856,1.71-1.714,3.416-3.433,5.143-5.129.326-.32.385-.491.024-.852-1.268-1.267-1.251-1.284-2.739-.24-.745.523-1.473,1.073-2.239,1.563a34.968,34.968,0,0,0-6.318,5.3c-2.366,2.456-4.752,4.9-7.25,7.217a4.191,4.191,0,0,0-1.58,3.851,2.248,2.248,0,0,0,.642,1.49q6.1,6.049,12.146,12.153c.765.777,1.5,1.342,2.68.99M21.659,50.7a2.183,2.183,0,0,0-.16-.208c-.716-.718-1.438-1.43-2.148-2.154-.273-.279-.4-.016-.545.128-1,.989-1.984,1.989-2.985,2.974-.239.235-.322.39-.024.666.667.618,1.312,1.264,1.931,1.93.272.293.427.226.666-.017.984-1,1.983-1.99,2.974-2.985.105-.106.2-.226.29-.335" fill="#020201"/>
    <path id="Trazado_275363" data-name="Trazado 275363" d="M0,20.949c.271.193.15.478.15.72q.008,36.457,0,72.914c0,.244.111.527-.151.724Z" transform="translate(0 -16.575)" fill="#343434"/>
    <path id="Trazado_275364" data-name="Trazado 275364" d="M44.015,66.652a1.61,1.61,0,0,0-.072-2.579c-1.1-1.114-2.2-2.222-3.314-3.314A3.52,3.52,0,0,0,36.2,60.1c-.406.22-.59.1-.849-.168q-1.227-1.258-2.484-2.487a2.5,2.5,0,0,0-3.745-.009q-2.168,2.139-4.308,4.308A2.492,2.492,0,0,0,24.8,65.49c.836.857,1.688,1.7,2.539,2.542.214.212.348.363.169.721a3.553,3.553,0,0,0,.77,4.66q7.258,7.268,14.528,14.524a8.186,8.186,0,0,0,.659.538c-.264.335-.516.22-.728.22-8.983.007-17.966,0-26.949.021-.648,0-.812-.166-.812-.814q.026-34.8,0-69.591a.968.968,0,0,1,.679-1.041,25.456,25.456,0,0,1,16.087-1.7c.531.114.575.239.291.68q-1.983,3.085-3.91,6.206a.949.949,0,0,1-.951.489c-2.343-.015-4.687-.011-7.03-.006-1.116,0-1.86.628-1.868,1.55a1.63,1.63,0,0,0,1.842,1.572c2.4.006,4.791.013,7.186-.007a1.054,1.054,0,0,1,.972.481q.94,1.295,1.958,2.532a.9.9,0,0,1,.1,1.229c-.9,1.489-1.721,3.03-2.609,4.529a1.844,1.844,0,0,0,.023,2.111c1.142,1.832,2.239,3.692,3.368,5.532a1.566,1.566,0,1,0,2.685-1.58q-1.329-2.251-2.717-4.466a.92.92,0,0,1-.039-1.122c.578-.925,1.094-1.887,1.7-2.944.648.83,1.272,1.584,1.843,2.377a1.962,1.962,0,0,0,1.792.884c1.145-.037,2.291,0,3.437-.013a1.568,1.568,0,0,0,1.7-1.546,1.613,1.613,0,0,0-1.624-1.565,1.248,1.248,0,0,0-.312,0c-2.063.4-3.4-.446-4.52-2.2a61.864,61.864,0,0,0-4.081-5.327.821.821,0,0,1-.048-1.144q2.095-3.245,4.124-6.533c.29-.471.525-.563,1.043-.341,1.745.748,3.372,1.739,5.149,2.42a28.12,28.12,0,0,0,23.78-1.194A26.875,26.875,0,0,1,78.3,14.985a25.812,25.812,0,0,1,9.877,2.343.778.778,0,0,1,.539.819q-.022,10.5-.01,21.022c-.345.066-.444-.235-.607-.394-1.265-1.233-1.875-1.232-3.14.032-1.657,1.656-3.326,3.3-4.963,4.979-.36.369-.551.358-.906,0-2.027-2.06-4.064-4.11-6.135-6.126-.456-.444-.338-.665.045-1.041,1.711-1.676,3.4-3.376,5.088-5.075.983-.989.985-1.77.017-2.745q-1.624-1.635-3.259-3.258a1.62,1.62,0,0,0-2.426-.213q-3.9,2.726-7.795,5.472a5.522,5.522,0,0,0-.7.615q-5.831,5.822-11.666,11.642a2.553,2.553,0,0,0-.834,2.007c.033,1.2.015,2.395.007,3.593a2.13,2.13,0,0,0,.669,1.6Q59.258,57.4,66.4,64.56a2.181,2.181,0,0,0,1.665.705c1.275-.022,2.552-.018,3.827,0a2.031,2.031,0,0,0,1.538-.63c3.993-4,8.026-7.955,11.962-12.008a32.255,32.255,0,0,0,2.719-3.708c.148-.2.3-.4.476-.635a.829.829,0,0,1,.11.636c0,8.617-.005,17.235.022,25.852,0,.7-.191.855-.866.85-4.14-.032-8.28-.017-12.42-.014a4.824,4.824,0,0,0-.856.041,1.557,1.557,0,0,0-1.32,1.669,1.506,1.506,0,0,0,1.508,1.4c.91.031,1.825.056,2.733,0a1.026,1.026,0,0,1,1.267.874c.376,1.349.887,2.661,1.356,3.983a1.486,1.486,0,0,0,1.4,1.059,1.464,1.464,0,0,0,1.419-.793,1.676,1.676,0,0,0,.066-1.434c-.35-1.034-.68-2.075-1.062-3.1-.174-.466-.073-.589.41-.585q2.89.026,5.78,0c.449,0,.574.147.572.583-.016,2.942-.028,5.884.008,8.825.008.635-.328.572-.729.572q-6.913,0-13.826,0H52.969a1.108,1.108,0,0,1,.428-.592c1.524-1.532,3.061-3.051,4.577-4.591a3.582,3.582,0,0,0,.016-5.4c-1.219-1.247-2.459-2.475-3.7-3.7a1.606,1.606,0,0,0-2.58-.073c0-.359-.3-.525-.5-.748a26.568,26.568,0,0,1-2.026-2.123c.512-.94.5-1.649-.054-2.2s-1.265-.584-2.206-.082a15.606,15.606,0,0,1-1.735-1.607c-.38-.323-.608-.843-1.175-.931M42.2,53.41A1.517,1.517,0,0,0,43.738,51.9,1.555,1.555,0,0,0,42.185,50.3a1.613,1.613,0,0,0-1.556,1.534A1.556,1.556,0,0,0,42.2,53.41m9.651-22.337a1.541,1.541,0,0,0,1.555-1.506,1.559,1.559,0,1,0-3.117.007,1.54,1.54,0,0,0,1.561,1.5m-26.7,16.671a1.509,1.509,0,0,0-1.5-1.544,1.565,1.565,0,0,0-1.6,1.544,1.619,1.619,0,0,0,1.6,1.567,1.55,1.55,0,0,0,1.5-1.567M66.093,72.9a1.536,1.536,0,0,0-1.576,1.561,1.557,1.557,0,1,0,3.113-.047A1.522,1.522,0,0,0,66.093,72.9" transform="translate(-11.853 -11.845)" fill="#c58964"/>
    <path id="Trazado_275365" data-name="Trazado 275365" d="M219.721,114.271c-1.18.352-1.915-.213-2.68-.99q-6.027-6.122-12.146-12.153a2.249,2.249,0,0,1-.642-1.49,4.192,4.192,0,0,1,1.58-3.852c2.5-2.318,4.885-4.761,7.25-7.216a34.97,34.97,0,0,1,6.318-5.3c.766-.49,1.494-1.04,2.239-1.563,1.488-1.044,1.47-1.027,2.739.24.36.36.3.531-.025.851-1.728,1.7-3.433,3.415-5.143,5.129-1.074,1.076-1.078,1.794-.018,2.856q4.334,4.337,8.672,8.669c1.014,1.013,1.777,1.011,2.8-.009,1.7-1.691,3.4-3.377,5.073-5.088.373-.381.58-.505,1.02-.038,1.164,1.234,1.193,1.207.2,2.626-.881,1.256-1.782,2.5-2.636,3.773a22.275,22.275,0,0,1-2.9,3.457q-4.561,4.5-9.053,9.061c-.768.783-1.5,1.453-2.645,1.038" transform="translate(-161.578 -64.054)" fill="#89ebd4"/>
    <path id="Trazado_275366" data-name="Trazado 275366" d="M101.51,247.871c.566.089.794.608,1.175.931a15.593,15.593,0,0,0,1.736,1.607,3.987,3.987,0,0,0-.383.756,1.457,1.457,0,0,0,.558,1.659,1.655,1.655,0,0,0,2.085-.13,26.493,26.493,0,0,0,2.026,2.123c.2.223.5.389.5.748a1.62,1.62,0,0,0,.381,2.3c1.191,1.2,2.38,2.4,3.593,3.58.427.413.466.721.023,1.159q-3.5,3.455-6.954,6.952c-.437.442-.739.4-1.159-.023q-8.541-8.566-17.11-17.1c-.467-.465-.423-.781.022-1.221q3.443-3.4,6.842-6.843c.49-.5.827-.449,1.283.029,1.006,1.053,2.048,2.072,3.084,3.1a1.628,1.628,0,0,0,2.3.385" transform="translate(-69.349 -193.063)" fill="#2941a0"/>
    <path id="Trazado_275367" data-name="Trazado 275367" d="M80.8,233.4c-.094.109-.185.229-.29.335-.991.995-1.99,1.982-2.974,2.985-.239.243-.395.31-.666.017-.619-.666-1.263-1.312-1.931-1.93-.3-.276-.215-.431.024-.666,1-.985,1.988-1.985,2.985-2.974.145-.144.271-.407.545-.128.71.724,1.432,1.435,2.148,2.154a2.184,2.184,0,0,1,.16.208" transform="translate(-59.142 -182.702)" fill="#fdfdfd"/>
    <path id="Trazado_275368" data-name="Trazado 275368" d="M168.536,275.592a1.655,1.655,0,0,1-2.085.13,1.457,1.457,0,0,1-.558-1.659,3.976,3.976,0,0,1,.383-.756c.941-.5,1.653-.475,2.206.082s.566,1.263.054,2.2" transform="translate(-131.205 -215.962)" fill="#020201"/>
    <path id="Trazado_275369" data-name="Trazado 275369" d="M139.393,187.3a1.556,1.556,0,0,1-1.573-1.575,1.613,1.613,0,0,1,1.556-1.534,1.554,1.554,0,0,1,1.553,1.595,1.517,1.517,0,0,1-1.536,1.514" transform="translate(-109.045 -145.731)" fill="#020201"/>
    <path id="Trazado_275370" data-name="Trazado 275370" d="M185.659,80.32a1.54,1.54,0,0,1-1.561-1.5,1.559,1.559,0,1,1,3.117-.007,1.541,1.541,0,0,1-1.555,1.506" transform="translate(-145.66 -61.092)" fill="#020201"/>
    <path id="Trazado_275371" data-name="Trazado 275371" d="M51.957,166.09a1.55,1.55,0,0,1-1.5,1.567,1.619,1.619,0,0,1-1.6-1.567,1.565,1.565,0,0,1,1.6-1.544,1.509,1.509,0,0,1,1.5,1.544" transform="translate(-38.653 -130.19)" fill="#020201"/>
    <path id="Trazado_275372" data-name="Trazado 275372" d="M253.811,292.414a1.522,1.522,0,0,1,1.538,1.513,1.557,1.557,0,1,1-3.113.047,1.536,1.536,0,0,1,1.576-1.561" transform="translate(-199.572 -231.362)" fill="#020201"/>
  </g>
</svg>
