<svg id="Grupo_145914" data-name="Grupo 145914" xmlns="http://www.w3.org/2000/svg" xmlns:xlink="http://www.w3.org/1999/xlink" width="82.909" height="100" viewBox="0 0 82.909 100">
  <defs>
    <clipPath id="clip-path">
      <rect id="Rectángulo_46142" data-name="Rectángulo 46142" width="82.908" height="100" fill="none"/>
    </clipPath>
  </defs>
  <g id="Grupo_145913" data-name="Grupo 145913" clip-path="url(#clip-path)">
    <path id="Trazado_276468" data-name="Trazado 276468" d="M17.421,91.377c0-1.4.2-1.652,1.582-1.991a90.26,90.26,0,0,1,19.6-2.447c.809-.018.938-.245.841-.984a29.8,29.8,0,0,0-3.072-10,.98.98,0,0,0-1.322-.634,22.6,22.6,0,0,1-27.343-19.2A19.819,19.819,0,0,1,7.6,51.834,1.894,1.894,0,0,1,9.159,50a21.517,21.517,0,0,1,17,1.655c8.27,4.579,12.414,11.641,12.115,21.181-.036,1.134.9,1.829,1.177,2.919.32-.329.2-.625.2-.874.008-7.517-.01-15.033.03-22.549,0-.861-.269-.974-1.035-.979-14.677-.1-24.89-10.927-27.434-22.571-.24-1.1-.006-1.491,1.129-2.038,1.331.117,1.432.323,1.932,2.1,2.754,9.785,8.836,16.3,18.8,18.924a18.87,18.87,0,0,0,5.15.642c-.213-.428-.345-.719-.5-1a83.632,83.632,0,0,0-9.371-13.528c-1.362-1.616-2.8-3.164-4.2-4.755a1.457,1.457,0,0,1,2.078-2.042c.195.172.374.362.551.553A93.361,93.361,0,0,1,39.95,45.371c.163.289.231.679.619.822a24.993,24.993,0,0,0-5.712-21.628,25.346,25.346,0,0,0-19.1-8.936c-1.033-.031-1.475.306-1.591,1.288-.114.966-.363,1.918-.442,2.886-.089,1.091-.436,1.895-1.633,2.074-1.291-.522-1.44-.757-1.33-2.089a25.977,25.977,0,0,1,1.113-5.526,1.775,1.775,0,0,1,1.73-1.42,27.075,27.075,0,0,1,18.523,5.276A28.173,28.173,0,0,1,43.658,36.57c.285-.094.275-.372.349-.6.649-1.972,1.279-3.95,1.959-5.912a1.173,1.173,0,0,0-.156-1.157A18.917,18.917,0,0,1,55.731.306C55.923.24,56.21.291,56.29,0h1.367A14.944,14.944,0,0,1,61.5,7.173a18.877,18.877,0,0,1-11.851,22.7,1.267,1.267,0,0,0-.852.929c-.7,2.216-1.453,4.418-2.192,6.644.425.214.586-.219.807-.446a28.472,28.472,0,0,1,15.93-8.581,27.7,27.7,0,0,1,9.989.1A1.842,1.842,0,0,1,74.967,30.2a37.821,37.821,0,0,1,.466,4.262,1.526,1.526,0,0,1-1.361,1.8c-1.273-.211-1.541-.521-1.6-1.761-.04-.811-.145-1.619-.182-2.43-.026-.544-.227-.776-.807-.848A25.318,25.318,0,0,0,43.1,51.466a21.377,21.377,0,0,0-.432,6.342c1.483-1.77,2.849-3.459,4.277-5.093A63.476,63.476,0,0,1,61.709,39.786c1.014-.613,1.791-.5,2.29.3.51.814.266,1.538-.722,2.185-1.087.712-2.2,1.386-3.245,2.16A79.27,79.27,0,0,0,44.377,60.534a1.841,1.841,0,0,0-.16.361,21.458,21.458,0,0,0,5.3.065,1.338,1.338,0,0,0,1.191-.764c3.629-6.129,8.968-9.5,16.13-9.845a1.493,1.493,0,0,0,1.348-.739,25.623,25.623,0,0,0,3.367-7.422c.352-1.336.655-1.564,1.935-1.577,1.165.666,1.3.98.949,2.288a28.336,28.336,0,0,1-2.886,6.892,1.873,1.873,0,0,0-.421.872c.921.3,1.836.593,2.753.883a1.83,1.83,0,0,1,1.365,1.977A19.206,19.206,0,0,1,59.61,72.091a18.292,18.292,0,0,1-9.312-.785.8.8,0,0,0-1.057.3A30.224,30.224,0,0,0,42.824,86.03c-.128.784.131.882.833.9A84.347,84.347,0,0,1,72.012,91.96a44.567,44.567,0,0,1,9.474,4.717A3.231,3.231,0,0,1,82.8,98.319c.329.97-.109,1.589-1.138,1.669-.227.018-.455.007-.683.007H2.1a2.447,2.447,0,0,1-1.421-.227,1.436,1.436,0,0,1-.167-2.327,18.309,18.309,0,0,1,3.8-2.541,51.36,51.36,0,0,1,6.253-2.924,1.56,1.56,0,0,1,2.169.645c.2,1.317.028,1.618-1.227,2.138A41.575,41.575,0,0,0,6.64,97H76.177c-.3-.164-.431-.246-.571-.314-10.259-4.918-21.2-6.611-32.446-6.86-.508-.011-.589.2-.578.63.023.91.039,1.824-.009,2.732a1.365,1.365,0,0,1-1.535,1.4,1.314,1.314,0,0,1-1.372-1.439A12.228,12.228,0,0,1,39.676,91c.15-1.059-.3-1.2-1.235-1.166a91.958,91.958,0,0,0-18.824,2.413,1.715,1.715,0,0,1-2.2-.871m36.723-81.21c1.449.649,1.621,1.066,1.03,2.579-1.656,4.235-3.154,8.527-4.608,12.835-.079.234-.255.46-.052.762a15.084,15.084,0,0,0,5.006-3.957A16.42,16.42,0,0,0,57.032,3.926c-.32-.534-.607-.859-1.289-.543a14.146,14.146,0,0,0-3,1.6,3.553,3.553,0,0,0-.423.238A16.071,16.071,0,0,0,45.6,20.043a13.528,13.528,0,0,0,1.782,5.712c.136-.387.231-.653.323-.92,1.546-4.476,3.079-8.957,4.817-13.365a1.754,1.754,0,0,1,1.62-1.3m3.121,59.188c7.314.067,14.945-7.42,15.025-14.723a.632.632,0,0,0-.557-.739,12.4,12.4,0,0,0-4.312-.57,2.219,2.219,0,0,0-.287-.043A16.123,16.123,0,0,0,52.251,63.964c-.071.226-.25.473-.039.722l-.127-.044-.023.079.14-.055c.185-.131.373-.257.554-.393a39.534,39.534,0,0,1,8.237-4.764c1.116-.478,1.947-.141,2.223.9.236.893-.226,1.411-1,1.749a38.514,38.514,0,0,0-6.633,3.666A25.109,25.109,0,0,0,52.045,68.7a11.323,11.323,0,0,0,5.219.652M34.88,68.632a1.611,1.611,0,0,0,.069-1.207,19.794,19.794,0,0,0-22.4-15.2c-2.581.459-2.1.072-2,2.508a11.288,11.288,0,0,0,.11,1.264A19.633,19.633,0,0,0,33.267,72.684c.917-.135.84-.347.358-.955A33.721,33.721,0,0,0,21.236,62c-1.049-.487-1.411-1.2-1.045-2.058s1.13-1.084,2.209-.62A33.633,33.633,0,0,1,28.864,63.1a37.443,37.443,0,0,1,6.016,5.528m7.708,7.706c.224.093.236-.074.284-.172a32.864,32.864,0,0,1,5.256-7.677,1.461,1.461,0,0,0,.368-.86c.13-.962.279-1.925.5-2.869.135-.583.1-.808-.594-.756a21.9,21.9,0,0,1-5.238-.269c-.543-.091-.582.116-.58.547q.014,6.036.006,12.057" transform="translate(0)" fill="#090908"/>
    <path id="Trazado_276469" data-name="Trazado 276469" d="M46.3,66.125c1.2-.179,1.544-.983,1.633-2.074.079-.967.328-1.92.442-2.886.116-.982.558-1.319,1.591-1.288a25.347,25.347,0,0,1,19.1,8.936,24.993,24.993,0,0,1,5.711,21.628c-.388-.144-.456-.534-.619-.822A93.354,93.354,0,0,0,60.992,71.882c-.177-.19-.356-.381-.551-.553a1.457,1.457,0,0,0-2.078,2.042c1.392,1.591,2.834,3.139,4.2,4.755a83.659,83.659,0,0,1,9.371,13.528c.153.279.286.57.5,1a18.858,18.858,0,0,1-5.149-.642c-9.962-2.623-16.044-9.139-18.8-18.924-.5-1.776-.6-1.982-1.932-2.1a29.25,29.25,0,0,1-.252-4.861" transform="translate(-34.209 -44.247)" fill="#9bbe41"/>
    <path id="Trazado_276470" data-name="Trazado 276470" d="M194.068,128.317c-1.28.013-1.583.241-1.935,1.577a25.624,25.624,0,0,1-3.367,7.422,1.493,1.493,0,0,1-1.348.739c-7.162.343-12.5,3.716-16.13,9.845a1.337,1.337,0,0,1-1.191.764,21.457,21.457,0,0,1-5.3-.065,1.81,1.81,0,0,1,.16-.361,79.263,79.263,0,0,1,15.654-16.108c1.042-.773,2.159-1.447,3.245-2.16.988-.648,1.232-1.371.722-2.185-.5-.8-1.276-.909-2.29-.3a63.47,63.47,0,0,0-14.768,12.929c-1.428,1.634-2.794,3.323-4.277,5.093a21.384,21.384,0,0,1,.432-6.342,25.319,25.319,0,0,1,28.383-20.247c.581.071.782.3.807.848.038.811.142,1.619.183,2.429.062,1.24.329,1.55,1.6,1.761-.273,1.442-.194,2.93-.586,4.356" transform="translate(-120.582 -87.704)" fill="#9bbe41"/>
    <path id="Trazado_276471" data-name="Trazado 276471" d="M36.219,345.7a1.715,1.715,0,0,0,2.2.871,91.976,91.976,0,0,1,18.824-2.414c.93-.032,1.385.107,1.235,1.166a12.228,12.228,0,0,0-.01,2.144,1.314,1.314,0,0,0,1.371,1.439,1.365,1.365,0,0,0,1.536-1.4c.048-.909.032-1.822.009-2.732-.011-.434.07-.641.578-.63,11.247.249,22.187,1.942,32.446,6.86.14.067.273.149.571.314H25.438a41.528,41.528,0,0,1,4.866-2.243c1.256-.52,1.432-.821,1.227-2.138,1.232-.162,2.348-.739,3.55-1.006.378-.084.758-.158,1.138-.237" transform="translate(-18.798 -254.323)" fill="#f4ca8f"/>
    <path id="Trazado_276472" data-name="Trazado 276472" d="M64.466,215.695a37.42,37.42,0,0,0-6.016-5.528,33.623,33.623,0,0,0-6.464-3.783c-1.079-.465-1.843-.241-2.209.62s0,1.571,1.045,2.058a33.719,33.719,0,0,1,12.389,9.73c.482.608.559.82-.358.955a19.633,19.633,0,0,1-22.608-16.689,11.293,11.293,0,0,1-.109-1.264c-.1-2.436-.578-2.049,2-2.508a19.793,19.793,0,0,1,22.4,15.2,1.611,1.611,0,0,1-.069,1.207" transform="translate(-29.586 -147.062)" fill="#c3e565"/>
    <path id="Trazado_276473" data-name="Trazado 276473" d="M199.566,215.53c-.212-.252-.033-.5.038-.724a16.123,16.123,0,0,1,14.882-10.685,2.218,2.218,0,0,1,.287.043c-.063.445-.16.888-.185,1.336a16.908,16.908,0,0,1-4.478,10.468,22.407,22.407,0,0,1-5.493,4.228,11.322,11.322,0,0,1-5.219-.652,25.074,25.074,0,0,1,3.543-2.878A38.475,38.475,0,0,1,209.573,213c.769-.338,1.231-.856.995-1.749-.275-1.04-1.106-1.377-2.223-.9a39.532,39.532,0,0,0-8.237,4.764c-.181.136-.369.262-.554.392Z" transform="translate(-147.353 -150.842)" fill="#c3e565"/>
    <path id="Trazado_276474" data-name="Trazado 276474" d="M195.5,14.208a14.152,14.152,0,0,1,3-1.6c.682-.316.969.009,1.289.543a16.419,16.419,0,0,1-1.512,18.459,15.081,15.081,0,0,1-5.006,3.957c-.2-.3-.027-.527.052-.762,1.454-4.307,2.952-8.6,4.608-12.835.591-1.512.419-1.93-1.03-2.579a17.961,17.961,0,0,0-1.4-5.186" transform="translate(-142.749 -9.228)" fill="#afd54a"/>
    <path id="Trazado_276475" data-name="Trazado 276475" d="M181.7,19.082a17.961,17.961,0,0,1,1.4,5.186,1.754,1.754,0,0,0-1.62,1.3c-1.737,4.408-3.271,8.889-4.817,13.365-.092.267-.187.532-.323.92a13.525,13.525,0,0,1-1.782-5.712,16.071,16.071,0,0,1,6.722-14.825,3.572,3.572,0,0,1,.423-.238" transform="translate(-128.951 -14.101)" fill="#c3e565"/>
    <path id="Trazado_276476" data-name="Trazado 276476" d="M219.394,220.244a22.424,22.424,0,0,0,5.493-4.228,16.908,16.908,0,0,0,4.477-10.469c.025-.447.122-.89.185-1.336a12.4,12.4,0,0,1,4.312.57.632.632,0,0,1,.557.738c-.08,7.3-7.71,14.791-15.025,14.724" transform="translate(-162.13 -150.889)" fill="#afd54a"/>
    <path id="Trazado_276477" data-name="Trazado 276477" d="M199.606,247.686l-.14.056.023-.079.127.045-.01-.021" transform="translate(-147.403 -183.02)" fill="#c3e565"/>
  </g>
</svg>
