<svg xmlns="http://www.w3.org/2000/svg" xmlns:xlink="http://www.w3.org/1999/xlink" width="187" height="187" viewBox="0 0 187 187">
  <defs>
    <clipPath id="clip-path">
      <rect id="Rectángulo_46260" data-name="Rectángulo 46260" width="117.133" height="117.188" fill="none"/>
    </clipPath>
  </defs>
  <g id="Grupo_147242" data-name="Grupo 147242" transform="translate(-417.001 -855.25)">
    <g id="Grupo_147241" data-name="Grupo 147241">
      <g id="Grupo_130166" data-name="Grupo 130166" transform="translate(426.92 864.98)">
        <g id="Elipse_5506" data-name="Elipse 5506" transform="translate(-4.92 -4.73)" fill="#12263f" stroke="#707070" stroke-width="1">
          <circle cx="89" cy="89" r="89" stroke="none"/>
          <circle cx="89" cy="89" r="88.5" fill="none"/>
        </g>
        <path id="Trazado_277106" data-name="Trazado 277106" d="M83.5,0A83.5,83.5,0,1,1,0,83.5,83.5,83.5,0,0,1,83.5,0Z" transform="translate(0.08 0.27)" fill="#ebf9ff"/>
        <g id="Elipse_157" data-name="Elipse 157" transform="translate(0.081 0.27)" fill="none" stroke="#00ffe6" stroke-linejoin="round" stroke-width="10">
          <circle cx="83.5" cy="83.5" r="83.5" stroke="none"/>
          <circle cx="83.5" cy="83.5" r="88.5" fill="none"/>
        </g>
        <g id="Grupo_146212" data-name="Grupo 146212" transform="translate(25.514 25.675)">
          <g id="Grupo_146211" data-name="Grupo 146211" clip-path="url(#clip-path)">
            <path id="Trazado_277107" data-name="Trazado 277107" d="M0,79.2a17.359,17.359,0,0,1,8.07,2.174,11.663,11.663,0,0,0,7.338,1.707c-.04-.492-.429-.784-.654-1.155a10.467,10.467,0,0,1,2.346-13.6,1.49,1.49,0,0,0,.625-2c-.379-1.2-.723-1.422-1.9-.952-1.964.785-2,.7-2.679-1.323-.1-.288-.183-.582-.305-.859-.241-.545-.1-.859.506-.952.184-.028.354-.144.538-.183a4.886,4.886,0,0,0,4.054-3.5c1.8-4.937,7.8-6.982,12.591-4.721a9.457,9.457,0,0,1,4.377,12.711c-.218.438-.478.856-.791,1.412a18.145,18.145,0,0,0,5.264-.8,24.589,24.589,0,0,0,7.851-3.825,4.514,4.514,0,0,1,5.06-.361,4.582,4.582,0,0,1,2.46,4.551,13.706,13.706,0,0,1-.42,3.393c-.244.813-.022.946.749.942q7.889-.042,15.778,0c.759,0,.947-.216.944-.957q-.041-10.524,0-21.048a.908.908,0,0,0-.82-1.072,11.009,11.009,0,0,1-8.322-8.361c-.158-.608-.441-.748-1.018-.786a11.271,11.271,0,0,1-5.616-20.637,1.344,1.344,0,0,0,.69-1.37A9.158,9.158,0,0,1,61.7,8.691a9.444,9.444,0,0,0,3.591-3.576c3.957-6.842,12.819-6.814,16.778.05A7.664,7.664,0,0,0,85,8.287a9.964,9.964,0,0,1,5.6,7.65,9.609,9.609,0,0,1,6.089-.523,9.122,9.122,0,0,1,5.925,4.5,10.616,10.616,0,0,0,4.047,4.058,9.046,9.046,0,0,1,4.714,8.645,1.527,1.527,0,0,0,.759,1.565A11.277,11.277,0,0,1,106.7,54.753a1.253,1.253,0,0,0-1.34,1.117,10.963,10.963,0,0,1-8.128,8c-.739.2-.952.476-.933,1.208.05,1.905.064,3.814,0,5.719-.031.855.2,1.079,1.064,1.073,6.174-.04,12.348,0,18.522-.044.951-.007,1.258.153,1.255,1.205q-.065,22.077-.03,44.155H0V79.2M15.576,95.2c-.047-.044-.122-.133-.136-.124-.125.078-.073.172,0,.26A44.558,44.558,0,0,1,19.445,105a1.334,1.334,0,0,0,2.251.664c3.566-3.029,7.76-3.843,12.28-3.51.785.058,1.81.526,2.278.187.485-.351.4-1.46.611-2.225.469-1.693.969-3.377,1.486-5.168a11.459,11.459,0,0,0-4.812,2.722c-1.07,1.031-2.144,2.062-3.15,3.154-.589.639-.807.481-1.138-.215-.879-1.852-1.825-3.671-2.808-5.63l-3.535,7.023c-.8-1.161-1.464-2.216-2.222-3.2A9.3,9.3,0,0,0,15.576,95.2m28.982-4.4c-.433.885-.806,1.669-1.2,2.445a35.659,35.659,0,0,0-3.161,9.493,1.455,1.455,0,0,0,.809,1.8c2.765,1.771,4.618,4.187,4.22,7.648-.145,1.255.263,1.228,1.184,1.228q32.758-.026,65.515-.013a4.288,4.288,0,0,1,.571,0c.669.09.828-.225.827-.85q-.023-14.013,0-28.026c0-.785-.27-.815-.869-.528A40.95,40.95,0,0,1,108.112,86a17.269,17.269,0,0,1-14.319-1.35,12.426,12.426,0,0,0-11.847-.083A26.47,26.47,0,0,1,78.842,86a16.575,16.575,0,0,1-12.98-.713,17.454,17.454,0,0,0-5.424-2c-3.359-.43-6.331.52-9.315,2a15.98,15.98,0,0,1-14.631-.051,18.981,18.981,0,0,0-3.979-1.69,13.7,13.7,0,0,0-10.033,1.464A16.42,16.42,0,0,1,10.74,86.531,25.042,25.042,0,0,1,5.2,84.171c-1.4-.67-1.409-.663-1.409.841q0,13.5,0,27,0,.458.007.915c0,.255.1.452.386.453,1.1.006,2.21.014,3.315,0,.332-.005.386-.324.473-.57a10.1,10.1,0,0,1,7-6.335c.8-.251.862-.512.637-1.263a40.082,40.082,0,0,0-7.157-13.29,2.179,2.179,0,0,1-.66-1.114c5.34-.419,10.368.041,14.456,4.074l4.195-8.35,4.3,8.568c3.884-3.713,8.55-4.74,13.815-4.3M96.326,60.188a6.519,6.519,0,0,0,2.029-.848,7.513,7.513,0,0,0,3.614-7.055c-.07-1.853-.046-1.864,1.725-1.5a8.4,8.4,0,0,0,4.4-.117,7.538,7.538,0,0,0,.207-14.253c-1.592-.632-1.592-.632-1.053-2.247a5.549,5.549,0,0,0-2.651-7.022,13.714,13.714,0,0,1-5.173-5.188,5.6,5.6,0,0,0-9.959-.008,13.882,13.882,0,0,1-5.17,5.192,5.533,5.533,0,0,0-2.627,7.119c.527,1.535.527,1.535-.947,2.107-3.956,1.534-5.946,5.251-4.887,9.128a7.5,7.5,0,0,0,8.853,5.354c2.239-.381,2.239-.381,2.229,1.932a7.567,7.567,0,0,0,4.758,7.157c.66.251.915.223.9-.608-.05-2.745-.036-5.492-.006-8.237a1.266,1.266,0,0,0-.712-1.278c-1.782-1.024-3.529-2.108-5.3-3.159-2.634-1.567-2.62-1.554-1.029-4.121.334-.539.57-.637,1.13-.283,1.673,1.058,3.4,2.036,5.081,3.076.644.4.843.277.822-.473a21.289,21.289,0,0,1,.021-3.771c.486-3.165-.65-5.466-3.087-7.493-2.285-1.9-2.131-2.049.028-4.12.48-.46.734-.44,1.179.019,1.673,1.723,3.379,3.415,5.093,5.1a1.621,1.621,0,0,1,.54,1.3c-.035,1.353-.012,2.707-.012,4.24,1.49-.891,2.816-1.692,4.151-2.479.782-.461,1.664-1.357,2.343-1.228.813.154,1.014,1.491,1.6,2.234.493.63.279.928-.341,1.29-2.368,1.38-4.7,2.818-7.059,4.219a1.1,1.1,0,0,0-.7,1.043c.023,4.956.013,9.913.013,14.98m-20.8-25.2c1.245-.752,2.345-1.341,1.964-3a4.343,4.343,0,0,1,.163-1.807,9.109,9.109,0,0,1,4.784-6.356,8.985,8.985,0,0,0,4.379-5.073,5.832,5.832,0,0,0-2.775-6.592,14.075,14.075,0,0,1-5.552-5.6,5.193,5.193,0,0,0-2.931-2.419A5.57,5.57,0,0,0,68.7,6.772a13.267,13.267,0,0,1-4.657,4.921c-3.5,2.1-4.306,4.22-2.943,8.02.313.874.046,1.133-.7,1.361a7.908,7.908,0,0,0-3.816,2.4,7.638,7.638,0,0,0-.826,8.65,7.517,7.517,0,0,0,7.85,3.693c.812-.133,1.852-.746,2.372-.3s.1,1.58.12,2.411a7.649,7.649,0,0,0,4.8,6.912c.614.232.927.3.91-.581-.055-2.782-.046-5.567,0-8.35a1.255,1.255,0,0,0-.759-1.238c-2.034-1.2-4.051-2.422-6.075-3.635-1.73-1.037-1.73-1.036-.7-2.756.915-1.524.912-1.518,2.431-.608,1.648.988,3.3,1.964,5.081,3.021a33.947,33.947,0,0,1,.036-4.653,7.668,7.668,0,0,0-3.119-7.592c-2.234-1.833-2.072-1.989-.005-4.026.5-.5.768-.512,1.26,0,1.61,1.677,3.259,3.318,4.928,4.936a2.014,2.014,0,0,1,.655,1.6c-.025,4.613-.013,9.226-.013,14.033M30.856,71.866h-1.6c-2.846,0-2.818,0-2.834-2.826,0-.752.172-1,.966-1.108a5.636,5.636,0,1,0-6.339-7.113,6.564,6.564,0,0,0,1.991,6.858c.548.507.568.81-.113,1.229a37.283,37.283,0,0,0-3.3,2.252,6.689,6.689,0,0,0-.378,10.29,1.11,1.11,0,0,0,1.5.223,15.849,15.849,0,0,1,4.293-1.8,16.968,16.968,0,0,1,12.577,1.7,2.2,2.2,0,0,0,2.138.124,22.662,22.662,0,0,0,6.111-3.717A14.234,14.234,0,0,0,50.982,67.53a1.129,1.129,0,0,0-.5-1.181c-.495-.3-.866-.066-1.249.21a28.4,28.4,0,0,1-18.378,5.307M45.537,82.95a7.887,7.887,0,0,0,3.372-.787,38.671,38.671,0,0,1,4.573-2.056,17.933,17.933,0,0,1,13.9,1.646,12.29,12.29,0,0,0,11.633.026,24.028,24.028,0,0,1,3.745-1.671A17.459,17.459,0,0,1,96.64,81.774a12.722,12.722,0,0,0,8.545,1.118c2.037-.329,3.734-1.482,5.558-2.32.835-.384,2.093-.254,2.454-1.128.337-.816.037-1.879.106-2.827.059-.816-.249-1.023-1.034-1.017-4.5.034-8.993.016-13.489.016q-22.52,0-45.04,0c-.552,0-1.072-.1-1.454.571a20.086,20.086,0,0,1-6.747,6.762m30-31.008c0,6.567.009,12.884-.013,19.2,0,.673.312.716.837.715q7.715-.018,15.429,0c.582,0,.8-.148.792-.764q-.05-3.144,0-6.289a.724.724,0,0,0-.656-.848A11.127,11.127,0,0,1,83.414,55.5c-.1-.371-.163-.718-.7-.718a11.134,11.134,0,0,1-7.18-2.839M25.478,107.6a9.991,9.991,0,0,1,4.412,5.437c.143.46.527.354.852.355,3.158,0,6.317-.02,9.474.02a1.066,1.066,0,0,0,1.184-.935c.447-1.561-.2-3.148-1.9-4.414a12.007,12.007,0,0,0-7.524-2.2,11.94,11.94,0,0,0-6.5,1.735m-13.632,5.675H25.929a7.837,7.837,0,0,0-6.985-3.6,7.869,7.869,0,0,0-7.1,3.6" transform="translate(0 0)" fill="#020303"/>
            <path id="Trazado_277108" data-name="Trazado 277108" d="M23.656,46.033c-3.54-6.216-8.528-8.779-15.7-6.549,2.1-7.089-.136-12.219-6.547-15.6,2.627-1.891,5.163-3.6,6.432-6.563a12.755,12.755,0,0,0,.2-8.813c1.018-.4,1.933.046,2.853.181A10.856,10.856,0,0,0,21.929,4.016c.54-.734,1.018-1.514,1.675-2.5,3.539,6.081,8.5,8.8,15.725,6.5-2.094,7.068.1,12.217,6.537,15.6-.935.7-1.719,1.29-2.51,1.873A10.916,10.916,0,0,0,38.8,37.1c.427,2.289.449,2.286-1.787,1.835a11.017,11.017,0,0,0-11.877,4.89c-.447.661-.889,1.324-1.483,2.208M23.638,7.982c-.177.157-.32.275-.452.4a14.453,14.453,0,0,1-9.817,4.241c-.629.024-.834.227-.858.863a14.43,14.43,0,0,1-4.234,9.822c-.327.336-.394.526-.024.9a14.365,14.365,0,0,1,4.258,9.809c.027.722.294.865.95.887a14.092,14.092,0,0,1,9.62,4.127c.475.461.7.417,1.159-.018a14.236,14.236,0,0,1,9.525-4.093c.8-.031,1-.278,1.027-1.05a13.9,13.9,0,0,1,4.016-9.433c.6-.621.438-.889-.059-1.417A13.973,13.973,0,0,1,34.8,13.68c-.026-.772-.238-1.029-1.021-1.058a14.285,14.285,0,0,1-9.617-4.153c-.159-.153-.323-.3-.522-.486" transform="translate(-0.977 -1.055)" fill="#020303"/>
            <path id="Trazado_277109" data-name="Trazado 277109" d="M53.155,279.493c-5.265-.443-9.931.584-13.815,4.3l-4.3-8.568-4.195,8.35c-4.089-4.034-9.117-4.494-14.456-4.074a2.179,2.179,0,0,0,.66,1.114A40.089,40.089,0,0,1,24.207,293.9c.225.751.161,1.011-.637,1.263a10.1,10.1,0,0,0-7,6.335c-.088.246-.141.564-.473.57-1.1.017-2.21.009-3.315,0-.289,0-.382-.2-.386-.453q-.007-.457-.008-.915,0-13.5,0-27c0-1.5.005-1.51,1.409-.841a25.015,25.015,0,0,0,5.545,2.36A16.418,16.418,0,0,0,31.075,273.7a13.7,13.7,0,0,1,10.034-1.464,18.982,18.982,0,0,1,3.979,1.69,15.98,15.98,0,0,0,14.631.051c2.984-1.48,5.955-2.429,9.315-2a17.439,17.439,0,0,1,5.424,2,16.576,16.576,0,0,0,12.98.713,26.518,26.518,0,0,0,3.1-1.435,12.423,12.423,0,0,1,11.847.083,17.271,17.271,0,0,0,14.319,1.35,41.012,41.012,0,0,0,4.346-2.007c.6-.288.871-.257.869.528q-.027,14.013,0,28.026c0,.625-.157.94-.827.85a4.294,4.294,0,0,0-.571,0q-32.758,0-65.515.014c-.921,0-1.328.027-1.184-1.228.4-3.461-1.454-5.877-4.22-7.647a1.456,1.456,0,0,1-.809-1.8,35.667,35.667,0,0,1,3.161-9.493c.391-.775.765-1.56,1.2-2.444m41.918,18.838a15.78,15.78,0,0,0,5.672-1.3c3.716-1.561,5.9-4.692,8.15-7.777.275-.377.114-.6-.108-.893-.718-.937-1.411-1.894-2.127-2.833a14.673,14.673,0,0,0-18.756-4.415c-2.048,1-4.1,2.008-6.117,3.068-.618.325-.915.22-1.268-.351-.781-1.262-1.649-2.47-2.445-3.722a1.339,1.339,0,0,0-1.287-.71,9.476,9.476,0,1,0-.023,18.949,1.3,1.3,0,0,0,1.292-.675c.8-1.293,1.709-2.522,2.508-3.818.342-.554.632-.586,1.175-.3,2.058,1.068,4.136,2.1,6.212,3.13a15.5,15.5,0,0,0,7.121,1.653" transform="translate(-8.597 -188.695)" fill="#68d4f2"/>
            <path id="Trazado_277110" data-name="Trazado 277110" d="M267.869,103.141c0-5.067.009-10.024-.013-14.98a1.1,1.1,0,0,1,.7-1.043c2.356-1.4,4.691-2.839,7.059-4.219.621-.361.834-.66.341-1.29-.581-.742-.782-2.079-1.6-2.233-.68-.129-1.562.767-2.343,1.228-1.335.787-2.661,1.588-4.151,2.479,0-1.533-.024-2.888.012-4.241a1.62,1.62,0,0,0-.54-1.3c-1.714-1.683-3.419-3.375-5.093-5.1-.445-.458-.7-.479-1.179-.019-2.16,2.071-2.313,2.219-.028,4.12,2.437,2.027,3.573,4.329,3.087,7.494a21.291,21.291,0,0,0-.021,3.771c.02.75-.178.871-.822.473-1.684-1.041-3.408-2.019-5.081-3.076-.56-.354-.8-.257-1.13.282-1.591,2.567-1.605,2.554,1.029,4.121,1.767,1.051,3.514,2.135,5.3,3.159a1.265,1.265,0,0,1,.712,1.278c-.031,2.746-.045,5.492.006,8.237.015.831-.239.86-.9.608a7.567,7.567,0,0,1-4.758-7.157c.009-2.314.009-2.314-2.229-1.932a7.494,7.494,0,0,1-8.853-5.354c-1.059-3.877.93-7.594,4.886-9.127,1.474-.572,1.474-.572.947-2.107a5.533,5.533,0,0,1,2.627-7.119A13.882,13.882,0,0,0,261,64.9a5.6,5.6,0,0,1,9.959.008,13.713,13.713,0,0,0,5.173,5.187,5.55,5.55,0,0,1,2.652,7.022c-.539,1.614-.539,1.614,1.053,2.247a7.538,7.538,0,0,1-.207,14.254,8.4,8.4,0,0,1-4.4.117c-1.771-.365-1.8-.353-1.725,1.5a7.513,7.513,0,0,1-3.614,7.055,6.511,6.511,0,0,1-2.029.848" transform="translate(-171.543 -42.953)" fill="#b1da7d"/>
            <path id="Trazado_277111" data-name="Trazado 277111" d="M199.931,43.628c0-4.806-.012-9.42.013-14.033a2.015,2.015,0,0,0-.655-1.6c-1.669-1.618-3.318-3.26-4.928-4.936-.493-.512-.758-.5-1.261,0-2.067,2.038-2.229,2.194.005,4.027a7.668,7.668,0,0,1,3.12,7.592,33.9,33.9,0,0,0-.036,4.653c-1.779-1.057-3.433-2.033-5.081-3.021-1.519-.911-1.516-.916-2.431.608-1.033,1.72-1.033,1.719.7,2.756,2.024,1.213,4.042,2.437,6.075,3.635a1.254,1.254,0,0,1,.759,1.238c-.045,2.783-.054,5.567,0,8.35.017.879-.3.813-.91.581a7.649,7.649,0,0,1-4.8-6.912c-.015-.831.41-1.956-.119-2.411s-1.559.167-2.372.3a7.518,7.518,0,0,1-7.851-3.693,7.639,7.639,0,0,1,.826-8.651,7.911,7.911,0,0,1,3.816-2.4c.75-.227,1.017-.487.7-1.36-1.363-3.8-.554-5.918,2.943-8.02a13.27,13.27,0,0,0,4.657-4.921,5.57,5.57,0,0,1,6.857-2.621,5.193,5.193,0,0,1,2.931,2.419,14.074,14.074,0,0,0,5.553,5.6A5.832,5.832,0,0,1,211.22,27.4a8.983,8.983,0,0,1-4.379,5.072,9.109,9.109,0,0,0-4.784,6.356,4.349,4.349,0,0,0-.163,1.807c.381,1.656-.719,2.245-1.964,3" transform="translate(-124.4 -8.637)" fill="#b1da7d"/>
            <path id="Trazado_277112" data-name="Trazado 277112" d="M69.5,200.716a28.4,28.4,0,0,0,18.378-5.307c.383-.276.754-.505,1.249-.21a1.131,1.131,0,0,1,.5,1.181,14.237,14.237,0,0,1-5.112,10.451,22.669,22.669,0,0,1-6.111,3.717,2.2,2.2,0,0,1-2.138-.124,16.97,16.97,0,0,0-12.577-1.7,15.858,15.858,0,0,0-4.293,1.8,1.11,1.11,0,0,1-1.5-.223,6.689,6.689,0,0,1,.378-10.29,37.283,37.283,0,0,1,3.3-2.252c.682-.419.661-.722.113-1.229a6.564,6.564,0,0,1-1.991-6.858,5.621,5.621,0,1,1,6.339,7.113c-.794.113-.971.357-.966,1.108.016,2.827-.012,2.827,2.834,2.827h1.6m-6.265-7.566A1.915,1.915,0,1,0,61.3,191.3a1.982,1.982,0,0,0,1.941,1.847" transform="translate(-38.647 -128.849)" fill="#fdfdfd"/>
            <path id="Trazado_277113" data-name="Trazado 277113" d="M148.934,254.607a20.086,20.086,0,0,0,6.747-6.762c.382-.671.9-.571,1.454-.571q22.52,0,45.04,0c4.5,0,8.993.017,13.489-.016.785-.006,1.093.2,1.034,1.017-.068.948.231,2.011-.106,2.827-.361.874-1.619.744-2.454,1.128-1.824.838-3.521,1.992-5.558,2.32a12.722,12.722,0,0,1-8.545-1.118,17.459,17.459,0,0,0-13.884-1.666,24.035,24.035,0,0,0-3.745,1.671,12.29,12.29,0,0,1-11.633-.026,17.933,17.933,0,0,0-13.9-1.646,38.653,38.653,0,0,0-4.573,2.056,7.887,7.887,0,0,1-3.372.787" transform="translate(-103.397 -171.657)" fill="#b1da7d"/>
            <path id="Trazado_277114" data-name="Trazado 277114" d="M50.628,310.793a9.3,9.3,0,0,1,5.11,3.613c.758.982,1.421,2.038,2.223,3.2l3.535-7.023c.983,1.959,1.93,3.778,2.808,5.63.33.7.549.854,1.137.215,1.006-1.092,2.08-2.123,3.15-3.155A11.463,11.463,0,0,1,73.4,310.55c-.517,1.791-1.017,3.476-1.486,5.168-.212.764-.127,1.874-.611,2.225-.468.338-1.494-.13-2.278-.188-4.52-.333-8.713.48-12.28,3.51A1.334,1.334,0,0,1,54.5,320.6a44.529,44.529,0,0,0-4.007-9.673,1.612,1.612,0,0,0,.138-.135" transform="translate(-35.052 -215.598)" fill="#b1da7d"/>
            <path id="Trazado_277115" data-name="Trazado 277115" d="M83.33,347.977a13.541,13.541,0,0,1,14.027.462c1.693,1.266,2.342,2.853,1.9,4.414a1.066,1.066,0,0,1-1.184.935c-3.158-.04-6.316-.015-9.474-.02-.325,0-.709.106-.852-.355a9.989,9.989,0,0,0-4.412-5.437" transform="translate(-57.852 -240.377)" fill="#c9ced6"/>
            <path id="Trazado_277116" data-name="Trazado 277116" d="M38.744,362.3a7.869,7.869,0,0,1,7.1-3.6,7.836,7.836,0,0,1,6.985,3.6Z" transform="translate(-26.898 -249.026)" fill="#c9ced6"/>
            <path id="Trazado_277117" data-name="Trazado 277117" d="M50.323,311.2c-.072-.088-.123-.182,0-.26.014-.009.089.081.136.124a1.809,1.809,0,0,1-.138.135" transform="translate(-34.886 -215.866)" fill="#b1da7d"/>
            <path id="Trazado_277118" data-name="Trazado 277118" d="M38.616,22.654c.2.185.362.334.522.487a14.282,14.282,0,0,0,9.617,4.153c.783.029.995.287,1.021,1.059A13.974,13.974,0,0,0,53.73,37.7c.5.527.656.8.058,1.417a13.9,13.9,0,0,0-4.016,9.433c-.026.772-.231,1.019-1.028,1.05a14.237,14.237,0,0,0-9.525,4.093c-.456.435-.684.478-1.159.017a14.089,14.089,0,0,0-9.62-4.126c-.656-.022-.923-.165-.95-.887a14.364,14.364,0,0,0-4.258-9.809c-.37-.377-.3-.567.024-.9a14.431,14.431,0,0,0,4.234-9.822c.024-.637.229-.84.858-.863a14.455,14.455,0,0,0,9.816-4.241c.132-.128.275-.245.452-.4M38.588,27.1a11.348,11.348,0,0,0,.068,22.7,11.348,11.348,0,1,0-.068-22.7" transform="translate(-15.955 -15.727)" fill="#f8d46e"/>
            <path id="Trazado_277119" data-name="Trazado 277119" d="M219.425,315.583a15.5,15.5,0,0,1-7.121-1.653c-2.076-1.033-4.154-2.062-6.212-3.13-.542-.281-.833-.249-1.175.3-.8,1.3-1.7,2.525-2.507,3.818a1.3,1.3,0,0,1-1.293.675,9.476,9.476,0,1,1,.023-18.949,1.339,1.339,0,0,1,1.287.71c.8,1.253,1.665,2.46,2.445,3.722.353.571.65.676,1.268.351,2.019-1.06,4.069-2.063,6.117-3.068a14.673,14.673,0,0,1,18.756,4.415c.716.939,1.409,1.9,2.127,2.833.222.29.383.516.108.893-2.249,3.084-4.434,6.215-8.15,7.777a15.8,15.8,0,0,1-5.673,1.3m-1.132-3.8a11.682,11.682,0,0,0,10.239-5.265.643.643,0,0,0-.019-.8,11.063,11.063,0,0,0-14.1-4.2c-2.4,1.134-4.759,2.37-7.145,3.541a1,1,0,0,0-.691,1.015,1.071,1.071,0,0,0,.709,1.119c2.358,1.141,4.682,2.352,7.034,3.5a9.96,9.96,0,0,0,3.969,1.079m-15.483-5.6a2.941,2.941,0,0,0-.719-2.5,19.914,19.914,0,0,1-1.575-2.368c-.4-.742-.888-.784-1.577-.486a5.551,5.551,0,0,0-3.634,5.06,5.671,5.671,0,0,0,3.184,5.361c1.01.516,1.705.493,2.257-.635a13.7,13.7,0,0,1,1.444-2.18,2.686,2.686,0,0,0,.619-2.251" transform="translate(-132.948 -205.947)" fill="#020303"/>
            <path id="Trazado_277120" data-name="Trazado 277120" d="M76.018,201.608a1.915,1.915,0,1,1,1.873-1.925,1.97,1.97,0,0,1-1.873,1.925" transform="translate(-51.427 -137.307)" fill="#020303"/>
            <path id="Trazado_277121" data-name="Trazado 277121" d="M48.376,37.195A11.348,11.348,0,1,1,37.082,48.561,11.376,11.376,0,0,1,48.376,37.195M55.946,48.5a7.547,7.547,0,1,0-7.516,7.566A7.556,7.556,0,0,0,55.946,48.5" transform="translate(-25.744 -25.822)" fill="#020303"/>
            <path id="Trazado_277122" data-name="Trazado 277122" d="M252.532,320.477a9.954,9.954,0,0,1-3.968-1.079c-2.352-1.153-4.677-2.363-7.034-3.5a1.071,1.071,0,0,1-.709-1.119,1,1,0,0,1,.691-1.015c2.386-1.171,4.742-2.407,7.145-3.541a11.063,11.063,0,0,1,14.1,4.2.643.643,0,0,1,.019.8,11.683,11.683,0,0,1-10.239,5.265m3.449-5.653a1.893,1.893,0,1,0-1.891-1.871,1.906,1.906,0,0,0,1.891,1.871" transform="translate(-167.188 -214.641)" fill="#f8d46e"/>
            <path id="Trazado_277123" data-name="Trazado 277123" d="M211.426,315.27a2.686,2.686,0,0,1-.619,2.251,13.7,13.7,0,0,0-1.444,2.18c-.552,1.128-1.247,1.151-2.257.635a5.671,5.671,0,0,1-3.184-5.361,5.551,5.551,0,0,1,3.634-5.06c.689-.3,1.172-.257,1.577.486a19.909,19.909,0,0,0,1.575,2.368,2.941,2.941,0,0,1,.719,2.5" transform="translate(-141.565 -215.037)" fill="#f8d46e"/>
            <path id="Trazado_277124" data-name="Trazado 277124" d="M64.506,57.065a7.547,7.547,0,1,1-7.561-7.537,7.527,7.527,0,0,1,7.561,7.537" transform="translate(-34.303 -34.385)" fill="#f8d46e"/>
            <path id="Trazado_277125" data-name="Trazado 277125" d="M286.113,319.064a1.893,1.893,0,0,1-.048-3.785,1.893,1.893,0,0,1,.048,3.785" transform="translate(-197.32 -218.881)" fill="#020303"/>
          </g>
        </g>
      </g>
    </g>
  </g>
</svg>
