<svg id="Grupo_145921" data-name="Grupo 145921" xmlns="http://www.w3.org/2000/svg" xmlns:xlink="http://www.w3.org/1999/xlink" width="66.669" height="79.999" viewBox="0 0 66.669 79.999">
  <defs>
    <clipPath id="clip-path">
      <rect id="Rectángulo_46145" data-name="Rectángulo 46145" width="66.669" height="79.999" fill="none"/>
    </clipPath>
  </defs>
  <g id="Grupo_145920" data-name="Grupo 145920" clip-path="url(#clip-path)">
    <path id="Trazado_276502" data-name="Trazado 276502" d="M5.335,48.582c0-8.36-.01-16.72.018-25.08,0-.7-.164-.86-.854-.851C1.483,22.689,0,21.186,0,18.176,0,16.593,0,15.01,0,13.427A3.865,3.865,0,0,1,4.066,9.339c4.277-.009,8.555-.016,12.832.013.614,0,.84-.174.991-.771.414-1.637.907-3.254,1.395-4.87A4.916,4.916,0,0,1,24.21.006q9.124-.012,18.248,0a4.906,4.906,0,0,1,4.9,3.626c.5,1.642,1,3.287,1.419,4.95.152.6.38.774.992.77,4.221-.029,8.443-.018,12.665-.014a3.893,3.893,0,0,1,4.229,4.258c0,1.666.008,3.333,0,5a3.875,3.875,0,0,1-4.08,4.075c-1.252.01-1.252.01-1.252,1.25q0,24.539,0,49.078c0,4.344-2.658,7-7,7h-42c-4.34,0-7-2.661-7-7q0-12.207,0-24.414M29.347,67.637a23.568,23.568,0,0,1-4.827-1.7c-.418-.218-.529-.072-.523.352.015,1.024,0,2.049,0,3.073,0,1.307,0,1.307,1.3,1.307s1.32,0,1.389,1.329c-.069,1.338-.069,1.338-1.4,1.338-5.5,0-11,.014-16.5-.017-.764,0-.892.262-.75.918a3.826,3.826,0,0,0,3.974,3.1q21.161,0,42.323,0c2.833,0,4.315-1.478,4.315-4.3q0-21.995,0-43.989c0-1.916-.012-3.833.008-5.748,0-.452-.1-.647-.6-.63-1.137.039-2.276.027-3.414.036-.194-.009-.387-.026-.581-.026q-22.054,0-44.109,0c-.221,0-.442.021-.664.032-1.292-.047-1.292-.047-1.292,1.2V69.433c0,1.246,0,1.246,1.291,1.2,1,.011,2-.028,2.993.049.809.063,1.059-.141,1.057-1.017q-.049-20.932-.023-41.864a4.832,4.832,0,0,0,0-.582c-.055-.45.149-.576.573-.557.692.031,1.387.015,2.08.019V37.723a24.81,24.81,0,0,1,5-5.432.967.967,0,0,0,.353-.871c0-1.58.007-3.159.013-4.739.637,0,1.276.025,1.909-.022.564-.043.792.114.753.721-.052.8-.006,1.605-.015,2.408,0,.329.1.5.433.32a26.834,26.834,0,0,1,4.9-1.767,24.321,24.321,0,0,1,8,.01,24.726,24.726,0,0,1,4.828,1.715c.431.228.523.053.515-.357-.015-.8.029-1.609-.015-2.41-.03-.535.173-.668.667-.639.663.039,1.329.017,1.994.021.006,1.5.049,2.994,0,4.488A1.537,1.537,0,0,0,46,32.558a18.275,18.275,0,0,1,3.673,3.934c.291.417.574.839.861,1.258l.151-.048V26.681a14.507,14.507,0,0,0,1.663-.025c.792-.1,1.009.157,1.007.978q-.043,20.723-.02,41.447c0,.36.015.721.023,1.081q.039.569-.529.529l-2.144-.037V58.279a24.954,24.954,0,0,1-5,5.433,1.038,1.038,0,0,0-.35.955c0,2-.009,3.991-.014,5.987-.637,0-1.277-.026-1.911.022-.568.044-.776-.12-.752-.723.047-1.218.006-2.438.018-3.658,0-.4-.077-.59-.513-.36a24.764,24.764,0,0,1-4.831,1.713,23.184,23.184,0,0,1-7.978-.011m4-36.968A17.33,17.33,0,1,0,50.661,47.988,17.369,17.369,0,0,0,33.343,30.669m.076-18.652V12Q18.881,12,4.344,12c-1.306,0-1.674.371-1.673,1.684,0,1.611,0,3.221.016,4.832.01,1.042.43,1.466,1.472,1.466q29.159.005,58.318,0c1.085,0,1.5-.426,1.507-1.517.008-1.583,0-3.166,0-4.749,0-1.326-.352-1.7-1.656-1.7q-14.454-.007-28.909,0m-.087-9.346c-3.024,0-6.048-.006-9.072,0a2.232,2.232,0,0,0-2.363,1.6c-.474,1.5-.866,3.035-1.32,4.546-.131.436.01.531.414.524.887-.017,1.777-.033,2.663.006.523.023.807-.117.948-.659.2-.776.495-1.527.746-2.29a1.419,1.419,0,0,1,1.5-1.065q6.492.012,12.984,0A1.423,1.423,0,0,1,41.321,6.4c.262.788.549,1.57.781,2.367.119.408.3.594.749.578.914-.033,1.831-.027,2.746,0,.484.013.632-.087.468-.609-.423-1.347-.774-2.716-1.172-4.07a2.354,2.354,0,0,0-2.655-1.993q-4.453-.005-8.905,0M16,58.3q0,5.974,0,11.948c0,.413.24.424.541.423,1.415,0,2.83-.017,4.244.007.452.008.561-.167.557-.584-.016-1.858-.012-3.717,0-5.576A.894.894,0,0,0,21,63.721,24.642,24.642,0,0,1,16,58.3M39.416,9.322C39.119,8,39.119,8,37.911,8h-9.22C27.452,8,27.452,8,27.3,9.322Z" transform="translate(0 0)" fill="#010101"/>
    <path id="Trazado_276503" data-name="Trazado 276503" d="M89.185,137.694A17.33,17.33,0,1,1,71.844,154.91a17.346,17.346,0,0,1,17.341-17.216M96.2,152.316c.11-.26.217-.509.32-.759a7.9,7.9,0,0,0-.708-7.685c-.854-1.326-.872-1.314-1.954-.233a3.882,3.882,0,0,1-.355.351c-.471.362-.535.653-.111,1.189a5,5,0,0,1,.958,4.388c-.088.386-.178.53-.588.262a7.8,7.8,0,0,0-9.124-.033c-.413.265-.534.219-.643-.252a5.562,5.562,0,0,1,.5-3.708c.228-.49.953-.837.755-1.362-.188-.5-.768-.85-1.176-1.266a1.149,1.149,0,0,1-.117-.118c-.278-.383-.5-.378-.824,0a8.092,8.092,0,0,0-1.955,4.923,8.65,8.65,0,0,0,.994,4.3A8.2,8.2,0,0,0,74.7,158.5c-.428,1.859-.427,1.812,1.447,1.881.794.029,1.062-.2,1.184-.982a4.934,4.934,0,0,1,3.858-4.115,8.2,8.2,0,0,0,5.188,8.615,4.749,4.749,0,0,1-2.275,1.519c-.522.193-1.3-.04-1.541.5-.215.49,0,1.153-.067,1.727-.09.726.294.763.825.7a7.9,7.9,0,0,0,5.45-3.013c.345-.441.488-.409.815.009a7.963,7.963,0,0,0,5.124,2.971c1.081.187,1.132.141,1.132-.92,0-.333-.027-.669.006-1,.05-.492-.076-.719-.635-.78a4.83,4.83,0,0,1-3.265-1.7,8.225,8.225,0,0,0,5.215-8.634A5.2,5.2,0,0,1,100.985,159c.343,1.355.343,1.355,1.736,1.355,1.287,0,1.287,0,1.025-1.3-.778-3.875-3.449-6.271-7.548-6.738" transform="translate(-55.842 -107.025)" fill="#ecab15"/>
    <path id="Trazado_276504" data-name="Trazado 276504" d="M42.737,53.9q14.454,0,28.908,0c1.3,0,1.655.375,1.657,1.7,0,1.583.006,3.166,0,4.749-.005,1.091-.422,1.517-1.507,1.517q-29.159,0-58.318,0c-1.042,0-1.462-.424-1.472-1.466-.015-1.611-.015-3.221-.016-4.832,0-1.313.368-1.684,1.673-1.684q14.538,0,29.075,0Z" transform="translate(-9.318 -41.886)" fill="#95c4d9"/>
    <path id="Trazado_276505" data-name="Trazado 276505" d="M104.974,11.983q4.453,0,8.905,0a2.354,2.354,0,0,1,2.655,1.993c.4,1.355.75,2.724,1.172,4.07.164.522.016.622-.468.609-.915-.025-1.832-.03-2.746,0-.451.016-.63-.17-.749-.578-.232-.8-.519-1.578-.781-2.367a1.423,1.423,0,0,0-1.494-1.069q-6.492.012-12.984,0a1.419,1.419,0,0,0-1.5,1.065c-.251.763-.544,1.515-.746,2.29-.141.541-.426.682-.948.659-.886-.039-1.775-.023-2.663-.006-.4.008-.545-.088-.414-.524.454-1.511.845-3.042,1.319-4.546a2.232,2.232,0,0,1,2.363-1.6c3.024-.008,6.048,0,9.072,0" transform="translate(-71.643 -9.313)" fill="#95c4d9"/>
    <path id="Trazado_276506" data-name="Trazado 276506" d="M86.6,102.362c0-.452-.1-.647-.6-.63-1.137.039-2.276.027-3.414.037-.194-.009-.387-.026-.581-.026q-22.054,0-44.109,0c-.221,0-.442.021-.664.032v47.93c1,.011,2-.028,2.992.049.81.063,1.06-.141,1.058-1.017q-.049-20.932-.023-41.864a4.825,4.825,0,0,0,0-.582c-.055-.45.149-.576.573-.557.692.031,1.387.015,2.08.019V116.8a24.816,24.816,0,0,1,5-5.432.967.967,0,0,0,.353-.871c0-1.579.007-3.159.013-4.739.637,0,1.276.026,1.909-.022.564-.043.792.114.753.721-.052.8-.006,1.605-.015,2.408,0,.329.1.5.433.32a26.854,26.854,0,0,1,4.9-1.767,24.3,24.3,0,0,1,8,.01,24.7,24.7,0,0,1,4.828,1.715c.431.228.523.053.515-.357-.015-.8.029-1.609-.016-2.41-.03-.535.173-.668.667-.639.663.039,1.329.017,1.994.021.006,1.5.049,2.994,0,4.488a1.537,1.537,0,0,0,.683,1.39,18.275,18.275,0,0,1,3.673,3.934c.291.417.574.839.861,1.258l.151-.048V105.753a14.556,14.556,0,0,0,1.663-.025c.792-.1,1.009.157,1.007.978q-.043,20.723-.02,41.447c0,.36.015.721.023,1.081q.039.569-.529.529a3.632,3.632,0,0,1-1.418,1,3.934,3.934,0,0,1-.4.133,3.934,3.934,0,0,0,.4-.133,3.632,3.632,0,0,0,1.418-1l-2.144-.037q0-6.187,0-12.374a24.947,24.947,0,0,1-5,5.433,1.037,1.037,0,0,0-.35.955c0,2-.009,3.991-.015,5.987-.637,0-1.277-.026-1.911.023-.568.043-.776-.12-.752-.723.047-1.218.006-2.438.018-3.658,0-.4-.077-.59-.513-.36a24.754,24.754,0,0,1-4.831,1.713,23.184,23.184,0,0,1-7.978-.011q0,1.523,0,3.046l2.641-.01c1.16,0,2.321-.014,3.481-.009-1.16-.005-2.321.007-3.481.009q.02.661.041,1.322l4.424,0-4.424,0c-.07,1.337-.07,1.337-1.443,1.337-1.209,0-1.209,0-1.278-1.337q.02-.656.04-1.312,0-1.523,0-3.046a23.563,23.563,0,0,1-4.827-1.7c-.418-.218-.529-.072-.523.352.015,1.024,0,2.049,0,3.073,0,1.307,0,1.307,1.3,1.307s1.32,0,1.389,1.329c-.069,1.338-.069,1.338-1.4,1.338-5.5,0-11,.015-16.5-.017-.764,0-.891.262-.75.918a3.827,3.827,0,0,0,3.974,3.1q21.161,0,42.323,0c2.833,0,4.315-1.478,4.315-4.3q0-21.995,0-43.989c0-1.916-.012-3.832.008-5.749m-21.353,45.52c0,.194,0,.387,0,.58,0-.193,0-.387,0-.58m3.555,3.192q4.424,0,8.847-.014-4.423.018-8.847.014" transform="translate(-27.928 -79.073)" fill="#95c4d9"/>
    <path id="Trazado_276507" data-name="Trazado 276507" d="M35.991,103.077v45.532c0,1.246,0,1.246,1.292,1.2q0-23.965,0-47.93c-1.292-.047-1.292-.047-1.292,1.2" transform="translate(-27.975 -79.176)" fill="#95c4d9"/>
    <path id="Trazado_276508" data-name="Trazado 276508" d="M72.373,274.106c1.415,0,2.83-.017,4.244.007.452.008.561-.167.557-.584-.016-1.858-.012-3.717,0-5.576a.9.9,0,0,0-.343-.793,24.646,24.646,0,0,1-4.992-5.424q0,5.974,0,11.947c0,.413.24.424.541.423" transform="translate(-55.833 -203.439)" fill="#95c4d9"/>
    <path id="Trazado_276509" data-name="Trazado 276509" d="M105.361,170.152c4.1.467,6.77,2.863,7.548,6.738.262,1.3.262,1.3-1.025,1.3-1.393,0-1.393,0-1.736-1.355a5.2,5.2,0,0,0-3.823-3.725,8.225,8.225,0,0,1-5.215,8.634,4.83,4.83,0,0,0,3.265,1.7c.56.061.685.287.635.78-.033.33-.006.666-.006,1,0,1.061-.052,1.107-1.132.92a7.964,7.964,0,0,1-5.124-2.971c-.326-.419-.47-.451-.815-.009a7.9,7.9,0,0,1-5.45,3.013c-.531.068-.915.031-.825-.7.071-.574-.149-1.238.067-1.727.239-.544,1.018-.311,1.541-.5a4.749,4.749,0,0,0,2.275-1.519,8.2,8.2,0,0,1-5.188-8.615,4.933,4.933,0,0,0-3.858,4.115c-.122.786-.39,1.011-1.184.982-1.874-.069-1.875-.022-1.447-1.881a8.2,8.2,0,0,1,7.466-6.181,8.648,8.648,0,0,1-.994-4.3,8.094,8.094,0,0,1,1.955-4.923c.32-.38.547-.386.824,0a1.15,1.15,0,0,0,.117.118c.408.416.988.767,1.176,1.266.2.524-.527.872-.755,1.362a5.559,5.559,0,0,0-.5,3.708c.108.471.229.517.643.252a7.8,7.8,0,0,1,9.124.033c.41.268.5.124.588-.262a5,5,0,0,0-.959-4.388c-.424-.536-.36-.827.111-1.189a3.853,3.853,0,0,0,.355-.351c1.082-1.082,1.1-1.093,1.954.233a7.9,7.9,0,0,1,.708,7.685c-.1.25-.21.5-.32.759M97,178a5.292,5.292,0,0,0-3.122-4.633c-.726-.351-.844-.276-.86.559a5.221,5.221,0,0,0,2.842,4.972c.964.54,1.146.412,1.14-.9m6.67-3.814c-.252-.239.422-1.168-.567-.934-2.018.478-3.806,3.477-3.4,5.5.107.529.337.494.745.327a5.388,5.388,0,0,0,3.218-4.9m-5.331-5.331a5.475,5.475,0,0,0-3.035.958c-.375.25-.414.428-.028.725a5.5,5.5,0,0,0,6.139-.007c.393-.306.321-.48-.04-.722a5.473,5.473,0,0,0-3.036-.954" transform="translate(-65.005 -124.861)" fill="#010101"/>
    <path id="Trazado_276510" data-name="Trazado 276510" d="M131.619,317.312l2.641-.01.041,1.322c-.07,1.337-.07,1.337-1.443,1.337-1.209,0-1.209,0-1.278-1.337q.02-.656.04-1.312" transform="translate(-102.272 -246.629)" fill="#010101"/>
    <path id="Trazado_276511" data-name="Trazado 276511" d="M129.745,221.734c.006,1.309-.176,1.436-1.14.9a5.22,5.22,0,0,1-2.842-4.972c.016-.834.134-.91.86-.559a5.292,5.292,0,0,1,3.122,4.634" transform="translate(-97.75 -168.591)" fill="#ecab15"/>
    <path id="Trazado_276512" data-name="Trazado 276512" d="M159.557,218.077a5.388,5.388,0,0,1-3.218,4.9c-.408.168-.638.2-.745-.326-.41-2.028,1.378-5.027,3.4-5.5.989-.234.314.7.567.934" transform="translate(-120.893 -168.749)" fill="#ecab15"/>
    <path id="Trazado_276513" data-name="Trazado 276513" d="M138.018,197.532a5.473,5.473,0,0,1,3.036.954c.361.242.433.417.04.722a5.5,5.5,0,0,1-6.139.007c-.386-.3-.346-.476.028-.725a5.475,5.475,0,0,1,3.035-.958" transform="translate(-104.685 -153.535)" fill="#ecab15"/>
  </g>
</svg>
