<svg id="Grupo_145909" data-name="Grupo 145909" xmlns="http://www.w3.org/2000/svg" xmlns:xlink="http://www.w3.org/1999/xlink" width="84" height="76.908" viewBox="0 0 84 76.908">
  <defs>
    <clipPath id="clip-path">
      <rect id="Rectángulo_46140" data-name="Rectángulo 46140" width="84" height="76.908" fill="#ebf9ff"/>
    </clipPath>
  </defs>
  <g id="Grupo_145908" data-name="Grupo 145908" clip-path="url(#clip-path)">
    <path id="Trazado_276419" data-name="Trazado 276419" d="M49.892,5.946c.764-.826,1.227-.87,2.195-.225A33.988,33.988,0,0,1,63.614,18.543a1.689,1.689,0,0,0,1.2.935c9.62,2.625,15.935,8.719,19,18.195.039.12,0,.282.184.312v2.133c-.045.024-.121.04-.131.074-.632,2.237-2.253,3.07-4.424,3.094-1.8.02-3.6.007-5.394.016a1.313,1.313,0,0,1-1.464-1.214c.272-1,.593-1.251,1.7-1.262,1.859-.019,3.719.015,5.576-.044,1.228-.039,1.75-.717,1.646-1.948a12.082,12.082,0,0,0-.572-1.959c-.177-.691-.367-.85-1.064-.407a8.536,8.536,0,0,1-12.43-4.2,8.4,8.4,0,0,1,1.081-8.094c.175-.25.674-.505-.035-.825A23.267,23.267,0,0,0,53.523,21.76,23.758,23.758,0,0,0,40.938,29,23.361,23.361,0,0,0,35.7,38.353c-.433,1.471.221,2.338,1.757,2.418.819.043,1.64.052,2.459.052q13.781,0,27.561,0c1.252,0,1.554.211,1.868,1.264A1.4,1.4,0,0,1,67.7,43.308c-1.093-.027-2.187.009-3.28-.015-.424-.009-.625.051-.615.561A133.92,133.92,0,0,0,64.89,59.3c.2,1.433.47,2.855.656,4.289.071.545.276.676.816.7A13.19,13.19,0,0,1,78.337,73.1c.76,2.147-.381,3.8-2.667,3.8q-29.606.011-59.212,0c-2.018,0-2.946-1.42-2.176-3.31a9.074,9.074,0,0,1,7.448-5.888.779.779,0,0,0,.748-.673c.705-2.524,1.226-5.09,1.747-7.654.179-.88.6-1.372,1.521-1.383.975.537,1.1.808.876,1.907-.418,2.082-.819,4.168-1.364,6.223-.132.5-.426,1.063-.3,1.492.147.49.889.347,1.337.568.049.024.1.045.149.066,1.316.555,1.316.555,2.094-.727a17.411,17.411,0,0,1,10.746-6.5c.6-.107.583-.334.491-.814a134.191,134.191,0,0,1-2.036-16.163c-.038-.572-.19-.77-.785-.85-3-.4-4.421-2.511-3.664-5.438A23.162,23.162,0,0,1,35.4,32.536c.131-.241.375-.459.306-.782H31.992c-.628-.013-1.26.019-1.882-.049-.787-.086-1.068.122-1.067,1A165.113,165.113,0,0,1,27.71,53.22c-.129,1.05-.438,1.377-1.467,1.52a1.4,1.4,0,0,1-1-1.721c.375-3.064.71-6.133.924-9.213q.4-5.809.458-11.632c.005-.55-.306-.46-.626-.46H18.292c-3.827,0-7.654.009-11.481-.006a11.793,11.793,0,0,1-3.319-.391A4.646,4.646,0,0,1,0,26.57a12.87,12.87,0,0,1,1.235-4.638A33.76,33.76,0,0,1,20.127,2.652,33.67,33.67,0,0,1,46.208,2.6c.859.339,1.023.768.818,1.855a1.564,1.564,0,0,1-2,.341,31.815,31.815,0,0,0-15.1-2.124c-.747.071-.778.281-.534.874a6.734,6.734,0,0,1,.434,2.489A8.606,8.606,0,0,1,13.644,10.21c-.319-.608-.5-.574-.97-.175a32.036,32.036,0,0,0-7.212,8.746,26.49,26.49,0,0,0-2.872,7.025,2.456,2.456,0,0,0,2.376,3.31,20.077,20.077,0,0,0,2.125.133q14.8.013,29.608.019a1.508,1.508,0,0,0,1.3-.631,25.879,25.879,0,0,1,21.924-9.871,1.9,1.9,0,0,0,.972-.07c-.133-.24-.231-.431-.341-.615a31.479,31.479,0,0,0-9.82-10.289,1.579,1.579,0,0,1-.842-1.846M23.438,4.066a.232.232,0,0,0-.277.128l-.547.186a25.788,25.788,0,0,0-6.351,3.029c-1.032.643-1.037.635-.376,1.687A6.011,6.011,0,0,0,21.9,12.22a6.179,6.179,0,0,0,4.941-8.543c-.159-.339-.286-.51-.725-.362-.876.3-1.781.506-2.674.751M57.092,67.523a13.042,13.042,0,0,1,5.55-2.827c.594-.124.544-.445.46-.887-.495-2.6-.824-5.228-1.093-7.861-.4-3.969-.6-7.951-.642-11.939-.007-.578-.177-.768-.745-.719-.677.058-1.36.047-2.04.066-.652-.02-1.311.009-1.955-.071-.748-.093-.887.207-.9.9a121.793,121.793,0,0,1-1.861,20.175.869.869,0,0,0,.325.924,12.868,12.868,0,0,1,2.045,2.224c.308.426.563.461.856.013M40.689,74.4v.025q5.78,0,11.56,0c.386,0,.755.053.85-.5A9.642,9.642,0,0,1,54.589,70.5a.911.911,0,0,0-.046-1.18,13.732,13.732,0,0,0-1.962-2.192,14.472,14.472,0,0,0-13.214-3.549,14.328,14.328,0,0,0-11.02,9.579c-.365.981-.163,1.24.864,1.241q5.738.006,11.477,0m6.068-31.1c-1.913,0-3.827.044-5.738-.022-.778-.027-.906.228-.829.92.2,1.763.32,3.536.505,5.3.373,3.557.881,7.095,1.571,10.6.062.314.035.638.533.642a16.5,16.5,0,0,1,8.331,2.327c.385.225.48.113.549-.3A133.852,133.852,0,0,0,53.29,43.933c.013-.517-.131-.65-.631-.643-1.967.026-3.935.01-5.9.01M65.862,74.438v.011h9.593c.394,0,.8.076.544-.591a10.248,10.248,0,0,0-8.567-6.969c-5.292-.737-9.51,1.783-11.645,6.655-.346.791-.289.891.564.893q4.755.007,9.511,0m3.511-44.672a5.7,5.7,0,0,0,3.389,4.89,5.883,5.883,0,0,0,6.332-.623c.323-.232.4-.4.179-.78a24.053,24.053,0,0,0-7.657-8.168c-.37-.244-.54-.165-.793.132a6.237,6.237,0,0,0-1.45,4.549M21.194,74.439v.01c1.229,0,2.457-.014,3.685.007.5.008.819-.027.789-.688a4.161,4.161,0,0,1,.3-1.429c.512-1.547.413-1.726-1.254-2.053-.16-.032-.319-.073-.479-.106a6.992,6.992,0,0,0-7.284,3.428c-.381.729-.33.826.476.83,1.256.006,2.512,0,3.767,0" transform="translate(0 0)" fill="#040302"/>
    <path id="Trazado_276420" data-name="Trazado 276420" d="M59.479,15.677a1.579,1.579,0,0,0,.842,1.846,31.478,31.478,0,0,1,9.82,10.289c.109.184.208.374.341.615a1.9,1.9,0,0,1-.972.07,25.878,25.878,0,0,0-21.924,9.871,1.508,1.508,0,0,1-1.3.631q-14.8-.028-29.608-.019a20.084,20.084,0,0,1-2.125-.133,2.456,2.456,0,0,1-2.376-3.31,26.5,26.5,0,0,1,2.872-7.025,32.03,32.03,0,0,1,7.212-8.746c.471-.4.651-.432.97.175a8.606,8.606,0,0,0,16.183-4.173,6.734,6.734,0,0,0-.434-2.489c-.244-.593-.213-.8.534-.874a31.811,31.811,0,0,1,15.1,2.124,1.565,1.565,0,0,0,2-.341,20.1,20.1,0,0,1,2.866,1.489M52.443,22.91A4.872,4.872,0,1,0,47.448,27.7a4.9,4.9,0,0,0,4.994-4.788M35.358,35.918a3.736,3.736,0,1,0-3.771-3.733,3.762,3.762,0,0,0,3.771,3.733" transform="translate(-9.587 -9.73)" fill="#89ebd4"/>
    <path id="Trazado_276421" data-name="Trazado 276421" d="M206.8,123.951c-.314-1.053-.617-1.264-1.868-1.264q-13.781,0-27.561,0c-.82,0-1.641-.009-2.459-.052-1.536-.08-2.19-.947-1.757-2.418a23.363,23.363,0,0,1,5.241-9.352,23.757,23.757,0,0,1,12.585-7.24,23.267,23.267,0,0,1,14.965,1.584c.709.32.21.575.035.825a8.4,8.4,0,0,0-1.081,8.095,8.536,8.536,0,0,0,12.43,4.2c.7-.442.887-.284,1.064.407a12.1,12.1,0,0,1,.572,1.959c.1,1.23-.418,1.909-1.645,1.948-1.857.059-3.717.024-5.576.044-1.1.011-1.426.263-1.7,1.262l-3.245,0m-20.65-3.423a4.976,4.976,0,0,0,4.963-5.03,5,5,0,1,0-4.963,5.03m15.162-12.407a3.7,3.7,0,0,0-3.638-3.677,3.772,3.772,0,0,0-3.739,3.692,3.709,3.709,0,0,0,3.714,3.688,3.633,3.633,0,0,0,3.663-3.7" transform="translate(-137.459 -81.86)" fill="#89ebd4"/>
    <path id="Trazado_276422" data-name="Trazado 276422" d="M124.893,189.99c-.778,1.282-.778,1.282-2.094.727-.05-.021-.1-.042-.149-.066-.448-.221-1.19-.078-1.337-.568-.129-.43.165-.994.3-1.492.545-2.055.946-4.141,1.363-6.223.221-1.1.1-1.369-.876-1.907l.5-3.254c1.03-.143,1.338-.471,1.467-1.52a165.152,165.152,0,0,0,1.334-20.52c0-.873.28-1.081,1.066-.995.622.068,1.254.036,1.882.049-.061,1.713-.047,3.426-.12,5.142-.14,3.258-.29,6.513-.509,9.768q-.3,4.469-.891,8.9a103.586,103.586,0,0,1-1.872,10.809c-.083.343-.4.754-.058,1.149" transform="translate(-96.351 -122.467)" fill="#ebf9ff"/>
    <path id="Trazado_276423" data-name="Trazado 276423" d="M149.6,318.692q-5.738,0-11.477,0c-1.027,0-1.228-.26-.864-1.241a15.055,15.055,0,0,1,24.233-6.03,13.739,13.739,0,0,1,1.962,2.192.911.911,0,0,1,.046,1.18,9.633,9.633,0,0,0-1.491,3.432c-.1.55-.464.5-.85.5q-5.78,0-11.559,0v-.025" transform="translate(-108.914 -244.292)" fill="#6c5148"/>
    <path id="Trazado_276424" data-name="Trazado 276424" d="M138.245,190.248c-.346-.4-.026-.806.058-1.149a103.588,103.588,0,0,0,1.872-10.809q.59-4.427.891-8.9c.219-3.255.369-6.51.509-9.768.074-1.715.059-3.428.12-5.142h3.716c.069.323-.176.541-.306.782A23.144,23.144,0,0,0,143,160.481c-.757,2.927.664,5.039,3.664,5.438.6.079.747.277.785.85a134.236,134.236,0,0,0,2.036,16.163c.091.48.107.708-.492.814a17.412,17.412,0,0,0-10.746,6.5" transform="translate(-109.703 -122.726)" fill="#ebf9ff"/>
    <path id="Trazado_276425" data-name="Trazado 276425" d="M280.706,332.47q-4.755,0-9.511,0c-.853,0-.911-.1-.564-.893,2.135-4.872,6.353-7.392,11.645-6.655a10.247,10.247,0,0,1,8.567,6.969c.255.667-.15.591-.544.591h-9.593Z" transform="translate(-214.844 -258.031)" fill="#6c5148"/>
    <path id="Trazado_276426" data-name="Trazado 276426" d="M278.662,210.642c.68-.019,1.363-.008,2.04-.066.567-.049.738.141.745.719.046,3.988.237,7.971.642,11.939.269,2.633.6,5.259,1.093,7.861.084.442.135.763-.459.887a13.041,13.041,0,0,0-5.551,2.827c-.21-.168-.147-.38-.111-.6.15-.908.338-1.814.425-2.729.3-3.133.61-6.266.814-9.406.186-2.85.246-5.709.345-8.564.033-.955.013-1.912.017-2.868" transform="translate(-220.08 -167.285)" fill="#ebf9ff"/>
    <path id="Trazado_276427" data-name="Trazado 276427" d="M266.674,210.587c0,.956.016,1.913-.017,2.868-.1,2.855-.159,5.714-.345,8.564-.2,3.14-.518,6.273-.814,9.406-.087.915-.274,1.821-.425,2.729-.036.22-.1.431.111.6-.293.448-.548.413-.856-.013a12.878,12.878,0,0,0-2.046-2.224.868.868,0,0,1-.325-.924,121.791,121.791,0,0,0,1.861-20.175c.013-.695.152-.995.9-.9.645.08,1.3.052,1.955.071" transform="translate(-208.091 -167.23)" fill="#ebf9ff"/>
    <path id="Trazado_276428" data-name="Trazado 276428" d="M84.016,16.989l.547-.186c.214.222.259.075.277-.128.893-.245,1.8-.454,2.674-.751.439-.149.567.023.725.362A6.179,6.179,0,0,1,83.3,24.829a6.011,6.011,0,0,1-6.01-3.124A26.341,26.341,0,0,1,82.6,17.984c.5-.285,1.11-.427,1.413-1" transform="translate(-61.402 -12.608)" fill="#ebf9ff"/>
    <path id="Trazado_276429" data-name="Trazado 276429" d="M337.484,126.161a6.237,6.237,0,0,1,1.45-4.549c.253-.3.423-.376.793-.132a24.052,24.052,0,0,1,7.657,8.168c.22.38.143.549-.18.781a5.882,5.882,0,0,1-6.331.623,5.7,5.7,0,0,1-3.389-4.89" transform="translate(-268.111 -96.394)" fill="#ebf9ff"/>
    <path id="Trazado_276430" data-name="Trazado 276430" d="M85.823,345.206c-1.256,0-2.512,0-3.767,0-.805,0-.856-.1-.476-.83a6.992,6.992,0,0,1,7.284-3.428c.16.033.318.074.479.106,1.667.327,1.766.505,1.254,2.053a4.16,4.16,0,0,0-.3,1.429c.03.66-.288.7-.789.688-1.228-.021-2.457-.007-3.685-.007v-.01" transform="translate(-64.629 -270.766)" fill="#6c5148"/>
    <path id="Trazado_276431" data-name="Trazado 276431" d="M82.257,21.312c-.3.569-.912.71-1.413,1a26.341,26.341,0,0,0-5.313,3.721c-.661-1.052-.656-1.045.376-1.687a25.8,25.8,0,0,1,6.351-3.029" transform="translate(-59.643 -16.931)" fill="#ebf9ff"/>
    <path id="Trazado_276432" data-name="Trazado 276432" d="M112.951,19.745c-.019.2-.063.35-.278.128a.232.232,0,0,1,.278-.128" transform="translate(-89.512 -15.679)" fill="#f0d39d"/>
    <path id="Trazado_276433" data-name="Trazado 276433" d="M170.835,44.742a4.872,4.872,0,1,1-4.867-5.014,4.879,4.879,0,0,1,4.867,5.014m-4.481,2.269a2.348,2.348,0,0,0,2.013-2.53,2.254,2.254,0,0,0-2.009-2.178,2.073,2.073,0,0,0-2.332.89,2.247,2.247,0,0,0-.144,2.669,2.218,2.218,0,0,0,2.472,1.148" transform="translate(-127.979 -31.562)" fill="#040302"/>
    <path id="Trazado_276434" data-name="Trazado 276434" d="M110.8,98.523a3.736,3.736,0,1,1,.009-7.471,3.8,3.8,0,0,1,3.731,3.707,3.762,3.762,0,0,1-3.74,3.764m.128-2.508a1.138,1.138,0,0,0,1.109-1.255,1.088,1.088,0,0,0-1.1-1.165c-.863-.02-1.4.409-1.438,1.149s.547,1.269,1.43,1.272" transform="translate(-85.027 -72.335)" fill="#040302"/>
    <path id="Trazado_276435" data-name="Trazado 276435" d="M217.424,149.476a5.013,5.013,0,0,1-5.036-4.974,5,5,0,0,1,10-.056,4.977,4.977,0,0,1-4.963,5.03m.666-7.376a2.423,2.423,0,0,0-2.737.888,2.491,2.491,0,0,0-.03,2.967,2.521,2.521,0,1,0,2.767-3.855" transform="translate(-168.73 -110.808)" fill="#040302"/>
    <path id="Trazado_276436" data-name="Trazado 276436" d="M282.136,113.546a3.633,3.633,0,0,1-3.663,3.7,3.709,3.709,0,0,1-3.714-3.688,3.772,3.772,0,0,1,3.739-3.692,3.7,3.7,0,0,1,3.638,3.677m-3.5,1.193a1.062,1.062,0,0,0,1.02-1.152,1.038,1.038,0,0,0-1-1.164,1.174,1.174,0,0,0-1.42,1.129c-.016.734.533,1.2,1.4,1.186" transform="translate(-218.281 -87.285)" fill="#040302"/>
    <path id="Trazado_276437" data-name="Trazado 276437" d="M175.7,56.63a2.218,2.218,0,0,1-2.472-1.148,2.247,2.247,0,0,1,.144-2.669,2.073,2.073,0,0,1,2.332-.89,4.537,4.537,0,0,0,0,4.708" transform="translate(-137.326 -41.181)" fill="#ebf9ff"/>
    <path id="Trazado_276438" data-name="Trazado 276438" d="M184.15,56.963a4.537,4.537,0,0,1,0-4.708,2.253,2.253,0,0,1,2.009,2.178,2.348,2.348,0,0,1-2.013,2.53" transform="translate(-145.776 -41.514)" fill="#ebf9ff"/>
    <path id="Trazado_276439" data-name="Trazado 276439" d="M120.463,105.843c-.883,0-1.467-.522-1.43-1.272s.575-1.169,1.438-1.149a4.623,4.623,0,0,0-.008,2.42" transform="translate(-94.564 -82.163)" fill="#ebf9ff"/>
    <path id="Trazado_276440" data-name="Trazado 276440" d="M125.388,105.845a4.623,4.623,0,0,1,.008-2.42,1.088,1.088,0,0,1,1.1,1.165,1.138,1.138,0,0,1-1.109,1.255" transform="translate(-99.489 -82.165)" fill="#ebf9ff"/>
    <path id="Trazado_276441" data-name="Trazado 276441" d="M227.616,156.558a2.408,2.408,0,0,1-2.785-.922,2.491,2.491,0,0,1,.03-2.967,2.424,2.424,0,0,1,2.738-.888,5.544,5.544,0,0,0-.675,2.718,7.7,7.7,0,0,0,.692,2.06" transform="translate(-178.238 -120.489)" fill="#ebf9ff"/>
    <path id="Trazado_276442" data-name="Trazado 276442" d="M237.523,157.006a7.7,7.7,0,0,1-.692-2.06,5.544,5.544,0,0,1,.675-2.718,2.477,2.477,0,0,1,.017,4.777" transform="translate(-188.145 -120.938)" fill="#ebf9ff"/>
    <path id="Trazado_276443" data-name="Trazado 276443" d="M288.185,124.591c-.869.013-1.418-.452-1.4-1.186a1.174,1.174,0,0,1,1.42-1.129,4.41,4.41,0,0,0-.018,2.316" transform="translate(-227.833 -97.137)" fill="#ebf9ff"/>
    <path id="Trazado_276444" data-name="Trazado 276444" d="M293.038,124.611a4.41,4.41,0,0,1,.018-2.316,1.038,1.038,0,0,1,1,1.164,1.062,1.062,0,0,1-1.02,1.152" transform="translate(-232.686 -97.157)" fill="#ebf9ff"/>
  </g>
</svg>
