<svg xmlns="http://www.w3.org/2000/svg" xmlns:xlink="http://www.w3.org/1999/xlink" width="187" height="187" viewBox="0 0 187 187">
  <defs>
    <clipPath id="clip-path">
      <circle id="Elipse_154" data-name="Elipse 154" cx="83.5" cy="83.5" r="83.5" transform="translate(0.08 0.269)" fill="#ebf9ff" stroke="#707070" stroke-width="1"/>
    </clipPath>
    <clipPath id="clip-path-2">
      <rect id="Rectángulo_40456" data-name="Rectángulo 40456" width="119.95" height="120" fill="none"/>
    </clipPath>
  </defs>
  <g id="Grupo_147241" data-name="Grupo 147241" transform="translate(-397.052 -834.25)">
    <g id="Grupo_131421" data-name="Grupo 131421" transform="translate(406.971 843.98)">
      <g id="Enmascarar_grupo_17" data-name="Enmascarar grupo 17" transform="translate(0 0.001)" clip-path="url(#clip-path)">
        <g id="Elipse_5506" data-name="Elipse 5506" transform="translate(-35.92 -35.731)" fill="#ebf9ff" stroke="#707070" stroke-width="1">
          <circle cx="120" cy="120" r="120" stroke="none"/>
          <circle cx="120" cy="120" r="119.5" fill="none"/>
        </g>
      </g>
      <g id="Elipse_157" data-name="Elipse 157" transform="translate(0.081 0.27)" fill="none" stroke="#00ffe6" stroke-linejoin="round" stroke-width="10">
        <circle cx="83.5" cy="83.5" r="83.5" stroke="none"/>
        <circle cx="83.5" cy="83.5" r="88.5" fill="none"/>
      </g>
    </g>
    <g id="Grupo_145022" data-name="Grupo 145022" transform="translate(431.155 867.83)">
      <g id="Grupo_131442" data-name="Grupo 131442" clip-path="url(#clip-path-2)">
        <path id="Trazado_261642" data-name="Trazado 261642" d="M0,55.085A13.481,13.481,0,0,0,.647,51.26,60.192,60.192,0,0,1,49.081,1.008C80.813-4.906,111.905,15.8,118.6,47.3a60.027,60.027,0,0,1-44.231,70.947A53.381,53.381,0,0,1,64.8,119.78c-.211.014-.483-.093-.588.22H55.072c-.119-.378-.448-.22-.689-.257-2.157-.328-4.335-.552-6.472-.979A60.2,60.2,0,0,1,.647,68.751,13.335,13.335,0,0,0,0,64.928Zm4.687,4.886A55.306,55.306,0,1,0,60,4.7,55.408,55.408,0,0,0,4.687,59.972" transform="translate(0 0)" fill="#010303"/>
        <path id="Trazado_261643" data-name="Trazado 261643" d="M14.966,70.279a55.5,55.5,0,0,1,33.553-50.8,54.661,54.661,0,0,1,21.755-4.467A55.306,55.306,0,1,1,14.966,70.279m27.449-39.4A36.727,36.727,0,0,0,37.85,34.5c-1.4-.867-2.474-.858-3.363.027s-.906,1.962-.025,3.356a37.672,37.672,0,0,0-3.629,4.571c-1.777-.616-2.646-.356-3.56,1.161C19.384,56.7,17.439,70.659,21.936,85.233a50.423,50.423,0,0,0,59.006,34.555c27.8-5.823,45.433-34.154,38.453-61.782C111.019,24.856,72.872,9.312,43.768,27.19c-1.695,1.041-1.991,1.849-1.353,3.689" transform="translate(-10.279 -10.308)" fill="#1a7b96"/>
        <path id="Trazado_261644" data-name="Trazado 261644" d="M51.389,62.991a37.672,37.672,0,0,1,3.629-4.571c1.361.81,2.416.8,3.278-.019.9-.855.932-1.947.11-3.364a36.727,36.727,0,0,1,4.565-3.623c1.39,1.25,2.129,1.315,3.75.34a45.334,45.334,0,0,1,34.294-5.669c26.055,5.76,41.827,33.346,33.59,58.689A45.939,45.939,0,1,1,51.729,66.737c.986-1.612.908-2.371-.34-3.746m74.962,35.362c1.69.056,2.758-.789,2.872-2.137a2.429,2.429,0,0,0-2.362-2.538,18.062,18.062,0,0,0-1.977-.21c-.686-.006-.946-.193-1.1-.948a7.259,7.259,0,0,0-5.3-5.829c-2.838-.834-5.614-.32-7.469,1.99-1.368,1.7-2.6,2.487-4.787,2.017a2.1,2.1,0,0,0-2.335,2.092,2.281,2.281,0,0,0,2.069,2.515,11.385,11.385,0,0,0,1.861.184c.777-.022.753.319.614.909a10.485,10.485,0,0,1-2.455,4.713c-1.05,1.162-1.054,1.157-1.918-.078-.29-.415-.564-.844-.88-1.24a2.336,2.336,0,1,0-3.831,2.673,21.469,21.469,0,0,0,1.344,1.912,1.048,1.048,0,0,1,.075,1.419,7.235,7.235,0,0,0-.025,7.969,7.445,7.445,0,0,0,7.13,3.611c1.039-.041,2.057-1.016,2.937-.486.845.509,1.315,1.612,2.012,2.4a2.274,2.274,0,0,0,3.243.335,2.338,2.338,0,0,0,.379-3.252c-.469-.67-.972-1.32-1.5-1.94-.324-.377-.329-.609.068-.94a22.382,22.382,0,0,0,4.147-4.586c.317-.464.578-.489,1.04-.253.935.477,1.878.951,2.854,1.332a2.326,2.326,0,0,0,1.934-4.227c-.506-.288-1.043-.522-1.571-.769-1.544-.722-1.537-.718-1-2.268.2-.587.385-1.184.546-1.784.241-.9.179-2.1.751-2.641.667-.626,1.839.137,2.636.055M94.424,83.623c5.371-.029,8.894-3.757,8.3-8.319-.254-1.94-.3-3.149,1.715-4.021,1.086-.47,1.175-1.972.532-2.993A2.274,2.274,0,0,0,102,67.429a10.411,10.411,0,0,0-1.521.864c-.488.334-.77.324-1.064-.257A31.083,31.083,0,0,0,97.84,65.3c-.324-.5-.311-.8.258-1.078a10.725,10.725,0,0,0,1.509-.888,2.289,2.289,0,0,0,.722-3.1,2.338,2.338,0,0,0-3.048-.923,5.818,5.818,0,0,0-1.016.576c-.745.536-1.236.607-1.974-.238a7.477,7.477,0,0,0-9.1-1.483,7.311,7.311,0,0,0-3.727,8.41c.412,1.4.122,2.054-1.128,2.5a1.609,1.609,0,0,0-.3.177,2.329,2.329,0,0,0-.983,3.295,2.364,2.364,0,0,0,3.356.74c1.9-1,1.9-1,2.958.839.389.675,1.117,1.387,1.059,2.025-.063.693-1.194.823-1.8,1.283-.062.047-.134.081-.2.127a2.332,2.332,0,0,0,2.261,4.054,7.135,7.135,0,0,0,1.32-.747c.629-.448,1.033-.477,1.615.214a6.767,6.767,0,0,0,4.8,2.535M77.71,115.514a2.259,2.259,0,0,0,2.079-1.266,2.151,2.151,0,0,0-.22-2.42,14.141,14.141,0,0,0-1.371-1.438c-.462-.442-.782-.779-.476-1.568.316-.816.8-.807,1.441-.792a15.244,15.244,0,0,0,1.755-.03,2.309,2.309,0,0,0,2.136-2.236,2.282,2.282,0,0,0-1.909-2.316,10.783,10.783,0,0,0-2.215-.088,1.169,1.169,0,0,1-1.306-.821,1.025,1.025,0,0,1,.349-1.391,13.417,13.417,0,0,0,1.373-1.436,2.292,2.292,0,0,0-.187-3.083,2.325,2.325,0,0,0-3.092-.154c-.307.236-.545.566-.858.793-.637.463-.892,1.52-2.158.948-1.179-.533-.508-1.381-.689-2.073a4.137,4.137,0,0,1-.017-.817A2.3,2.3,0,0,0,70.1,92.959a2.352,2.352,0,0,0-2.414,2.218,9.944,9.944,0,0,0-.013,1.754,1.264,1.264,0,0,1-.885,1.489c-.81.354-1.046-.174-1.445-.538-.374-.342-.705-.732-1.086-1.065a2.339,2.339,0,1,0-3.263,3.352,11.454,11.454,0,0,0,1.162,1.155,1.217,1.217,0,0,1,.385,1.6c-.29.789-.8.708-1.375.712a16.528,16.528,0,0,0-1.87.052,2.227,2.227,0,0,0-2,2.216,2.2,2.2,0,0,0,1.873,2.321,9.345,9.345,0,0,0,2.215.079c.772-.066,1.038.308,1.36.928.374.721-.086.981-.454,1.355-.41.417-.849.81-1.227,1.255a2.324,2.324,0,0,0,3.247,3.312,11.479,11.479,0,0,0,1.331-1.315,1.182,1.182,0,0,1,1.574-.4c.772.3.716.772.718,1.356a12.47,12.47,0,0,0,.081,1.983,2.3,2.3,0,0,0,4.575-.246,17.056,17.056,0,0,0,.017-2.106.956.956,0,0,1,.672-1.047,1.181,1.181,0,0,1,1.609.28c.785.825,1.452,1.9,2.826,1.857m13.216,5.233A2.325,2.325,0,1,0,93.252,123a2.316,2.316,0,0,0-2.326-2.258m27.1-49.912a2.319,2.319,0,1,0,2.316,2.287,2.316,2.316,0,0,0-2.316-2.287M63.846,77.582a2.319,2.319,0,1,0-2.309-2.4,2.33,2.33,0,0,0,2.309,2.4M92.928,94.961a2.339,2.339,0,1,0-2.414,2.306,2.333,2.333,0,0,0,2.414-2.306" transform="translate(-30.834 -30.842)" fill="#89ebd4"/>
        <path id="Trazado_261645" data-name="Trazado 261645" d="M40.907,52.7c1.248,1.375,1.327,2.134.341,3.746a45.932,45.932,0,1,0,82.874,38.036c8.237-25.343-7.535-52.929-33.59-58.688a45.333,45.333,0,0,0-34.294,5.669c-1.621.975-2.36.91-3.75-.34-.638-1.841-.342-2.649,1.353-3.69,29.1-17.878,67.251-2.334,75.627,30.817,6.98,27.628-10.652,55.959-38.453,61.782A50.422,50.422,0,0,1,32.01,95.481c-4.5-14.574-2.552-28.529,5.337-41.616.915-1.517,1.783-1.777,3.56-1.161" transform="translate(-20.352 -20.556)" fill="#010303"/>
        <path id="Trazado_261646" data-name="Trazado 261646" d="M79.168,75.84c.822,1.416.787,2.508-.11,3.364-.862.823-1.916.829-3.278.019-.881-1.394-.873-2.462.025-3.356s1.963-.894,3.362-.027" transform="translate(-51.596 -51.645)" fill="#010303"/>
        <path id="Trazado_261647" data-name="Trazado 261647" d="M244.853,189.159c-.8.082-1.969-.682-2.636-.056-.572.537-.51,1.739-.751,2.641-.16.6-.341,1.2-.546,1.784-.541,1.551-.547,1.546,1,2.269.528.247,1.065.481,1.571.769a2.326,2.326,0,0,1-1.934,4.228c-.976-.381-1.919-.855-2.854-1.332-.462-.236-.723-.21-1.04.254a22.4,22.4,0,0,1-4.147,4.586c-.4.331-.391.563-.068.94.533.62,1.036,1.27,1.5,1.94a2.337,2.337,0,0,1-.379,3.252,2.273,2.273,0,0,1-3.243-.335c-.7-.787-1.168-1.89-2.012-2.4-.879-.53-1.9.445-2.937.486a7.445,7.445,0,0,1-7.131-3.611,7.234,7.234,0,0,1,.026-7.969,1.048,1.048,0,0,0-.075-1.419,21.45,21.45,0,0,1-1.344-1.912,2.336,2.336,0,1,1,3.831-2.673c.316.395.589.824.88,1.24.864,1.235.869,1.24,1.918.078a10.487,10.487,0,0,0,2.455-4.713c.139-.59.163-.931-.614-.909a11.39,11.39,0,0,1-1.861-.184,2.281,2.281,0,0,1-2.068-2.515,2.1,2.1,0,0,1,2.335-2.092c2.184.47,3.419-.314,4.787-2.017,1.854-2.31,4.631-2.824,7.469-1.99a7.259,7.259,0,0,1,5.3,5.829c.157.754.417.942,1.1.947a18.057,18.057,0,0,1,1.977.21,2.429,2.429,0,0,1,2.362,2.538c-.114,1.347-1.182,2.193-2.872,2.137m-7.211-3.544c0-.2,0-.39,0-.585a2.848,2.848,0,0,0-2.683-3.077,2.8,2.8,0,0,0-2.917,2.717c-.105.93-.11,1.875-.276,2.792a15.313,15.313,0,0,1-7.317,10.624,2.821,2.821,0,1,0,2.957,4.78,21.019,21.019,0,0,0,10.236-17.251" transform="translate(-149.336 -121.649)" fill="#010303"/>
        <path id="Trazado_261648" data-name="Trazado 261648" d="M168.57,110.707a6.767,6.767,0,0,1-4.8-2.535c-.582-.691-.986-.662-1.616-.214a7.123,7.123,0,0,1-1.32.747,2.332,2.332,0,0,1-2.26-4.054c.063-.046.134-.08.2-.127.608-.46,1.74-.589,1.8-1.283.058-.638-.67-1.35-1.059-2.025-1.058-1.837-1.059-1.836-2.958-.839a2.364,2.364,0,0,1-3.355-.741,2.329,2.329,0,0,1,.983-3.295,1.612,1.612,0,0,1,.3-.177c1.249-.443,1.54-1.1,1.128-2.5a7.31,7.31,0,0,1,3.727-8.41,7.477,7.477,0,0,1,9.1,1.483c.738.845,1.228.775,1.974.238a5.782,5.782,0,0,1,1.016-.576,2.339,2.339,0,0,1,3.048.923,2.289,2.289,0,0,1-.722,3.1,10.7,10.7,0,0,1-1.509.888c-.57.275-.581.574-.258,1.078a31.092,31.092,0,0,1,1.578,2.73c.293.581.576.591,1.064.257a10.412,10.412,0,0,1,1.522-.864,2.274,2.274,0,0,1,2.964.862c.643,1.021.554,2.522-.532,2.992-2.014.872-1.969,2.081-1.715,4.021.6,4.562-2.925,8.291-8.3,8.319M162.93,89.119a2.8,2.8,0,0,0-2.431,4.255c2.082,3.743,4.242,7.444,6.414,11.136a2.847,2.847,0,1,0,4.944-2.823c-2.1-3.731-4.267-7.428-6.419-11.132a2.732,2.732,0,0,0-2.507-1.436" transform="translate(-104.981 -57.927)" fill="#010303"/>
        <path id="Trazado_261649" data-name="Trazado 261649" d="M104.9,220.883c-1.375.046-2.041-1.031-2.827-1.856a1.181,1.181,0,0,0-1.608-.28.955.955,0,0,0-.672,1.047,16.936,16.936,0,0,1-.017,2.106,2.3,2.3,0,0,1-4.575.246,12.5,12.5,0,0,1-.081-1.982c0-.584.054-1.054-.718-1.356a1.182,1.182,0,0,0-1.574.4,11.449,11.449,0,0,1-1.331,1.315,2.324,2.324,0,0,1-3.247-3.312c.378-.444.817-.837,1.227-1.254.368-.374.828-.634.454-1.355-.322-.62-.588-.995-1.359-.928a9.315,9.315,0,0,1-2.215-.079,2.2,2.2,0,0,1-1.873-2.321,2.227,2.227,0,0,1,2-2.216,16.462,16.462,0,0,1,1.87-.053c.58,0,1.085.078,1.375-.712a1.216,1.216,0,0,0-.385-1.6,11.418,11.418,0,0,1-1.161-1.155,2.339,2.339,0,1,1,3.263-3.352c.381.333.712.723,1.086,1.065.4.364.635.893,1.445.538a1.263,1.263,0,0,0,.885-1.489,9.979,9.979,0,0,1,.013-1.755,2.352,2.352,0,0,1,2.414-2.218,2.3,2.3,0,0,1,2.245,2.367,4.159,4.159,0,0,0,.017.816c.181.692-.49,1.541.689,2.073,1.266.572,1.521-.485,2.159-.948.313-.227.55-.557.857-.793a2.326,2.326,0,0,1,3.092.154,2.293,2.293,0,0,1,.187,3.083,13.415,13.415,0,0,1-1.374,1.436,1.025,1.025,0,0,0-.349,1.391,1.17,1.17,0,0,0,1.306.821,10.779,10.779,0,0,1,2.214.088,2.282,2.282,0,0,1,1.909,2.316,2.308,2.308,0,0,1-2.136,2.236,15.166,15.166,0,0,1-1.754.03c-.641-.015-1.125-.024-1.441.792-.306.79.014,1.127.477,1.568a14.2,14.2,0,0,1,1.371,1.438,2.152,2.152,0,0,1,.22,2.42,2.256,2.256,0,0,1-2.078,1.264m-10.985-9.634a3.489,3.489,0,0,0,3.441,3.419,3.458,3.458,0,1,0-.084-6.915,3.475,3.475,0,0,0-3.357,3.5" transform="translate(-58.021 -136.212)" fill="#010303"/>
        <path id="Trazado_261650" data-name="Trazado 261650" d="M186.776,287.053a2.325,2.325,0,0,1,.016,4.649,2.325,2.325,0,1,1-.016-4.649" transform="translate(-126.684 -197.149)" fill="#010303"/>
        <path id="Trazado_261651" data-name="Trazado 261651" d="M273.229,127.693a2.319,2.319,0,1,1-2.359,2.233,2.33,2.33,0,0,1,2.359-2.233" transform="translate(-186.034 -87.699)" fill="#010303"/>
        <path id="Trazado_261652" data-name="Trazado 261652" d="M100.334,139.064a2.319,2.319,0,1,1,2.365-2.354,2.313,2.313,0,0,1-2.365,2.354" transform="translate(-67.323 -92.325)" fill="#010303"/>
        <path id="Trazado_261653" data-name="Trazado 261653" d="M188,199.608a2.339,2.339,0,1,1-2.272-2.331A2.335,2.335,0,0,1,188,199.608" transform="translate(-125.907 -135.49)" fill="#010303"/>
        <path id="Trazado_261654" data-name="Trazado 261654" d="M249.576,196.2a21.019,21.019,0,0,1-10.236,17.251,2.821,2.821,0,1,1-2.957-4.78,15.313,15.313,0,0,0,7.317-10.624c.166-.917.171-1.862.276-2.792a2.8,2.8,0,0,1,2.917-2.717,2.848,2.848,0,0,1,2.683,3.077c0,.2,0,.39,0,.585" transform="translate(-161.27 -132.231)" fill="#dbd8b2"/>
        <path id="Trazado_261655" data-name="Trazado 261655" d="M178.819,99.592a2.732,2.732,0,0,1,2.507,1.436c2.153,3.7,4.317,7.4,6.419,11.132a2.847,2.847,0,1,1-4.944,2.823c-2.173-3.692-4.333-7.392-6.414-11.136a2.8,2.8,0,0,1,2.431-4.255" transform="translate(-120.87 -68.4)" fill="#2941a0"/>
        <path id="Trazado_261656" data-name="Trazado 261656" d="M114.6,231.915a3.475,3.475,0,0,1,3.357-3.5,3.458,3.458,0,1,1,.084,6.915,3.489,3.489,0,0,1-3.441-3.419" transform="translate(-78.706 -156.877)" fill="#22afd6"/>
      </g>
    </g>
  </g>
</svg>
