<svg id="Grupo_146216" data-name="Grupo 146216" xmlns="http://www.w3.org/2000/svg" xmlns:xlink="http://www.w3.org/1999/xlink" width="79.994" height="80.001" viewBox="0 0 79.994 80.001">
  <defs>
    <clipPath id="clip-path">
      <rect id="Rectángulo_46308" data-name="Rectángulo 46308" width="79.994" height="80.001" fill="none"/>
    </clipPath>
  </defs>
  <g id="Grupo_146216-2" data-name="Grupo 146216" clip-path="url(#clip-path)">
    <path id="Trazado_277350" data-name="Trazado 277350" d="M10.775,118.92c3.039,0,6.078-.023,9.117.018.659.009.8-.2.767-.8a20.513,20.513,0,0,1,0-2.5c.033-.531-.167-.6-.635-.6a14.71,14.71,0,0,1-3.216-.121,6.429,6.429,0,0,1-3.118-11.022,1.516,1.516,0,0,0,.533-1.08,7.733,7.733,0,0,1,15.425.06c.056.925.911,1.124,1.251,1.761a.249.249,0,0,0,.2-.036c.364-.642,1.166-.892,1.227-1.859a7.664,7.664,0,0,1,5.954-6.881,7.76,7.76,0,0,1,8.468,3.721,6.792,6.792,0,0,1,.978,3.284c.012.935.9,1.129,1.245,1.765a.237.237,0,0,0,.2-.024c.363-.643,1.174-.886,1.233-1.856a7.651,7.651,0,0,1,5.789-6.851,7.758,7.758,0,0,1,8.287,3.129,7.626,7.626,0,0,1,1.336,3.829,1.258,1.258,0,0,0,.441.958,6.364,6.364,0,0,1,1.757,7.051,6.439,6.439,0,0,1-6.03,4.187c-.081,0-.162,0-.242,0-.769.051-1.824-.339-2.229.149-.387.467-.12,1.483-.123,2.258-.007,1.465,0,1.465,1.44,1.465H78.174c1.6,0,2,.5,1.749,2.067A39.6,39.6,0,0,1,66.86,144.87a38.622,38.622,0,0,1-22.041,9.881c-13.686,1.45-25.314-2.876-34.708-12.923A38.725,38.725,0,0,1,.138,121.186,6.276,6.276,0,0,1,0,120.231c-.006-.815.554-1.306,1.5-1.308,3.093-.008,6.186,0,9.278,0m43.37,2.583H42.125c-3.5,0-6.991.011-10.487-.011-.522,0-.7.13-.673.666.043.939-.013,1.882.02,2.822a2.146,2.146,0,0,1-.632,1.582,13.227,13.227,0,0,1-5.424,3.911,3.764,3.764,0,0,0-2.658,3.066c-.09.475-.184.863.175,1.253a8.146,8.146,0,0,1,2.075,6.973.348.348,0,0,0,0,.081,1.643,1.643,0,0,1-.787,1.568c-1.215.888-2.4,1.814-3.625,2.691-.432.31-.477.449.02.75a40.136,40.136,0,0,0,8.63,3.919c.48.153.677-.027.927-.343,1.3-1.644,2.621-3.273,3.918-4.92a2.046,2.046,0,0,1,1.329-.812c1.348-.235,2.682-.551,4.03-.788.613-.108.857-.295.684-.988-.344-1.379-.578-2.785-.869-4.177a1.4,1.4,0,0,1,.7-1.642q3.113-1.857,6.216-3.732a1.346,1.346,0,0,1,1.647.073c.772.583,1.573,1.132,2.314,1.751a10.59,10.59,0,0,0,5.045,2.443,11.685,11.685,0,0,0,6.386-.117c.553-.206.644-.408.538-.9-.3-1.417-.567-2.843-.877-4.258a1.6,1.6,0,0,1,.468-1.61q1.81-1.784,3.6-3.591a1.4,1.4,0,0,1,1.611-.372c.908.329,1.838.594,2.749.915a1.485,1.485,0,0,0,1.018.039c1.855-.628,3.71-1.256,5.572-1.865a.79.79,0,0,0,.617-.641c.215-.969.457-1.932.721-2.889.177-.641.052-.864-.688-.861-7.421.029-14.843.017-22.264.017m20.947,7.326a20.889,20.889,0,0,0-2.184.736,6.489,6.489,0,0,1-6.146.059.734.734,0,0,0-.987.22c-.637.691-1.311,1.35-2,1.995a.938.938,0,0,0-.308.994c.351,1.626.665,3.261.994,4.892.22,1.091-.09,1.594-1.194,1.879-1.559.4-3.122.783-4.681,1.184a2.25,2.25,0,0,1-1.034.007q-2.762-.559-5.529-1.1a3.779,3.779,0,0,1-1.667-.743c-1.163-.912-2.366-1.772-3.537-2.674a.642.642,0,0,0-.853-.072c-1.347.834-2.709,1.644-4.075,2.447a.6.6,0,0,0-.338.773c.347,1.572.638,3.157.954,4.736.226,1.13-.1,1.651-1.255,1.9-1.732.369-3.47.713-5.206,1.069-.2.042-.429.013-.587.211-1.118,1.4-2.241,2.8-3.385,4.228,16.416,3.885,35.811-4.722,43.014-22.74m-46.7-5.43c0-1.9,0-1.9-1.79-1.9H25.555q-10.972,0-21.945-.005c-.5,0-.913-.039-.7.7.3,1.057.491,2.147.8,3.2A37.043,37.043,0,0,0,16.768,144.5c.273.213.491.556.951.193,1.266-1,2.572-1.945,3.862-2.913a.7.7,0,0,0,.363-.58c.019-1.418.135-2.828-.966-4a15.453,15.453,0,0,1-1.312-1.93,1.5,1.5,0,0,1-.183-1.448c.4-1.111.774-2.231,1.117-3.36a1.882,1.882,0,0,1,1.057-1.232,33.137,33.137,0,0,0,4.229-2.154c1.3-.875,2.893-1.73,2.508-3.677m-5.165-16.02c.167-.064.241-.085.308-.119.541-.275,1.045-1.041,1.545-.84s.756.989,1.149,1.5c.256.33.237.532-.133.757-.619.377-1.176.872-1.823,1.184a1.794,1.794,0,0,0-1.063,2.067c.043.406.122.569.553.549.7-.032,1.4,0,2.1-.012a3.877,3.877,0,0,0,3.641-2.689,3.76,3.76,0,0,0-1.5-4.325,1.849,1.849,0,0,1-.924-1.87,5.141,5.141,0,1,0-10.276,0,1.872,1.872,0,0,1-.926,1.87,3.584,3.584,0,0,0-1.625,3.774,3.73,3.73,0,0,0,2.89,3.122,7.96,7.96,0,0,0,2.085.114c1.539.015,1.51.006,1.435-1.508-.029-.577-.494-.646-.8-.9-.291-.236-.62-.426-.933-.634-1.7-1.128-1.688-1.122-.428-2.783.227-.3.388-.359.712-.144a5.138,5.138,0,0,0,1.44.854,14.193,14.193,0,0,1,.021-2.156c.158-.993.98-.362,1.479-.435.332-.049,1.045-.432,1.077.435.026.7.005,1.4.005,2.187m15.495.061c0-.356,0-.589,0-.822.006-2.029,0-2.018,2.083-1.91.378.02.521.118.507.506-.025.707-.007,1.415-.007,2.2.69-.411,1.3-1.067,1.82-1.005.565.066.768,1.011,1.193,1.524.286.345.182.538-.163.75a20.024,20.024,0,0,1-1.823,1.183,1.793,1.793,0,0,0-1.046,2.078c.043.438.18.539.577.525.7-.025,1.4.005,2.1-.011a3.877,3.877,0,0,0,3.625-2.711,3.736,3.736,0,0,0-1.464-4.266,1.987,1.987,0,0,1-.968-2.01,5.14,5.14,0,1,0-10.279.047,1.94,1.94,0,0,1-.94,1.944,3.567,3.567,0,0,0-1.6,3.781,3.729,3.729,0,0,0,2.908,3.106,8.153,8.153,0,0,0,2.086.109c1.473.015,1.46.005,1.409-1.449a.768.768,0,0,0-.409-.709c-.5-.31-.987-.65-1.479-.978-1.425-.948-1.4-.932-.488-2.371.358-.565.645-.788,1.215-.267a8.84,8.84,0,0,0,1.151.754m20.66-.005c.681-.423,1.243-1.056,1.764-1.023.623.039.781.98,1.211,1.475.3.342.259.568-.14.812-.733.448-1.438.942-2.152,1.42a1.769,1.769,0,0,0-.655,2.077c.241.561.843.2,1.276.255a8.871,8.871,0,0,0,1.369.009,3.879,3.879,0,0,0,3.611-2.729,3.744,3.744,0,0,0-1.483-4.261,1.915,1.915,0,0,1-.954-1.935,5.14,5.14,0,1,0-10.277,0A1.946,1.946,0,0,1,52,105.476a3.571,3.571,0,0,0-1.584,3.788,3.73,3.73,0,0,0,2.844,3.072,7.981,7.981,0,0,0,2.164.123c1.466.015,1.457,0,1.387-1.468a.706.706,0,0,0-.356-.656c-.458-.28-.9-.594-1.342-.892-1.7-1.13-1.688-1.122-.483-2.773.241-.33.425-.412.768-.153.418.316.871.586,1.405.941,0-.358,0-.569,0-.78.008-2.041.008-2.023,2.021-1.974.479.011.59.173.57.61-.03.665-.008,1.332-.008,2.12M30.96,118.92h6.047c1.718,0,1.73,0,1.711-1.751-.007-.689.308-1.631-.129-2-.416-.348-1.327-.132-2.019-.119a6.451,6.451,0,0,1-5.28-2.268c-.3-.346-.41-.234-.651.039a6.393,6.393,0,0,1-5.059,2.225c-.591,0-1.184.026-1.773-.009-.441-.027-.61.089-.588.564a24.363,24.363,0,0,1,0,2.578c-.035.583.1.768.729.757,2.337-.044,4.676-.018,7.014-.018m18.028,0c1.962,0,3.924,0,5.886,0,.614,0,1.433.209,1.788-.1.421-.367.113-1.208.133-1.842.02-.613.215-1.432-.095-1.788-.367-.421-1.21-.147-1.842-.13a6.571,6.571,0,0,1-5.51-2.3c-.333-.393-.445-.137-.646.092a6.419,6.419,0,0,1-3.162,1.972,12.025,12.025,0,0,1-3.525.209c-.535-.01-.763.082-.721.682a16.462,16.462,0,0,1,0,2.5c-.054.65.2.728.764.721,2.311-.031,4.622-.013,6.933-.013" transform="translate(0 -75.023)" fill="#020202"/>
    <path id="Trazado_277351" data-name="Trazado 277351" d="M23.076,25.68c-.457,0-.915.014-1.371,0-.867-.033-1.632-.168-1.888,1.115a2.078,2.078,0,0,1-2.2,1.46c-2.662.023-5.325.044-7.986-.006a3.864,3.864,0,0,1,.025-7.722c1.155-.035,2.312-.019,3.469,0,.367.005.522-.055.613-.483a2.534,2.534,0,0,1,2.661-2.1c2.958-.008,5.916-.017,8.874,0a3.87,3.87,0,1,1-.023,7.74c-.726.01-1.452,0-2.178,0m-.46-2.584c.86,0,1.721.015,2.581,0a1.291,1.291,0,1,0-.019-2.571c-2.8-.013-5.592,0-8.388-.011-.334,0-.483.042-.575.44a2.562,2.562,0,0,1-2.79,2.147c-1.156,0-2.312-.01-3.468,0a1.3,1.3,0,1,0,.02,2.574c2.312.011,4.624-.008,6.936.014.442,0,.618-.081.723-.564A2.515,2.515,0,0,1,20.2,23.1c.806-.013,1.613,0,2.42,0" transform="translate(-4.657 -14.06)" fill="#020202"/>
    <path id="Trazado_277352" data-name="Trazado 277352" d="M171.91,23.142a5.164,5.164,0,1,1-5.164-5.184,5.172,5.172,0,0,1,5.164,5.184m-5.155,2.546a2.567,2.567,0,1,0-2.577-2.556,2.585,2.585,0,0,0,2.577,2.556" transform="translate(-126.73 -14.085)" fill="#020202"/>
    <path id="Trazado_277353" data-name="Trazado 277353" d="M316.767,21.844c-.62-.027-1.211.178-1.577-.734s-1.758-.713-2.155.264a.618.618,0,0,1-.746.476,6.339,6.339,0,0,0-1.048,0c-.529.038-.936.013-1.124-.649A1.041,1.041,0,0,0,309,20.561a1.061,1.061,0,0,0-1.079.7c-.162.591-.528.623-1,.584-.187-.015-.376,0-.564,0-1.383,0-1.439-.087-.916-1.421a3.807,3.807,0,0,1,5.609-1.844.838.838,0,0,0,1.1.03,3.8,3.8,0,0,1,5.8,2.3c.234.93.234.93-.7.931h-.484" transform="translate(-239.322 -14.096)" fill="#020202"/>
    <path id="Trazado_277354" data-name="Trazado 277354" d="M276.864,51.782c-1.746,0-1.881-.221-1.218-1.643a3.816,3.816,0,0,1,5.522-1.618.886.886,0,0,0,1.167-.016,3.846,3.846,0,0,1,5.827,2.65c.083.468.011.706-.54.636a7.264,7.264,0,0,0-1.128-.007c-.481.014-.916.082-1.07-.608a1.023,1.023,0,0,0-1.088-.676,1.074,1.074,0,0,0-1.137.733c-.152.567-.493.585-.94.553a6.544,6.544,0,0,0-.887,0c-.522.034-.88,0-1.134-.637a1.17,1.17,0,0,0-2.089-.082,1.061,1.061,0,0,1-1.284.715" transform="translate(-215.903 -37.579)" fill="#020202"/>
    <path id="Trazado_277355" data-name="Trazado 277355" d="M156.214,10.854a11.922,11.922,0,0,0-.958.742c-1.125,1.108-1.121,1.113-2.218.016-.731-.731-.731-.731.012-1.474,1.089-1.088,1.083-1.082,2.217.029a9,9,0,0,0,.947.687" transform="translate(-119.6 -7.315)" fill="#020202"/>
    <path id="Trazado_277356" data-name="Trazado 277356" d="M206.805,11.189a2.546,2.546,0,0,0-.586.327c-1.371,1.374-1.356,1.367-2.738,0-.35-.346-.425-.536-.027-.929,1.418-1.4,1.4-1.416,2.79.016.128.132.255.266.561.586" transform="translate(-159.36 -7.478)" fill="#020202"/>
    <path id="Trazado_277357" data-name="Trazado 277357" d="M156.231,61.549c-.439.377-.757.621-1.04.9-.936.92-.931.925-1.875-.018-.887-.886-.887-.886-.016-1.757.959-.959.954-.954,1.932.01.28.276.594.516,1,.865" transform="translate(-119.724 -47.025)" fill="#020202"/>
    <path id="Trazado_277358" data-name="Trazado 277358" d="M205.176,57.79c.363.459.554.753.795,1,1.044,1.062,1.049,1.057,0,2.1-.784.785-.784.785-1.587-.017-1.026-1.026-1.02-1.02-.014-2.047a12.589,12.589,0,0,0,.8-1.034" transform="translate(-159.701 -45.325)" fill="#020202"/>
    <path id="Trazado_277359" data-name="Trazado 277359" d="M180.753,2.583c-1.218,0-1.218,0-1.218-1.2C179.535,0,179.535,0,180.9,0c1.218,0,1.218,0,1.218,1.2,0,1.379,0,1.379-1.366,1.379" transform="translate(-140.811)" fill="#020202"/>
    <path id="Trazado_277360" data-name="Trazado 277360" d="M146.2,37.26c0,1.238,0,1.238-1.264,1.238-1.319,0-1.319,0-1.319-1.345,0-1.238,0-1.238,1.265-1.238,1.319,0,1.319,0,1.319,1.345" transform="translate(-112.638 -28.168)" fill="#020202"/>
    <path id="Trazado_277361" data-name="Trazado 277361" d="M218.037,37.218c0,1.279,0,1.279-1.3,1.279-1.28,0-1.28,0-1.28-1.3,0-1.279,0-1.279,1.3-1.279,1.28,0,1.28,0,1.28,1.3" transform="translate(-168.982 -28.168)" fill="#020202"/>
    <path id="Trazado_277362" data-name="Trazado 277362" d="M180.784,74.412c-1.249,0-1.249,0-1.249-1.253,0-1.33,0-1.33,1.334-1.33,1.249,0,1.249,0,1.249,1.254,0,1.33,0,1.33-1.334,1.33" transform="translate(-140.811 -56.336)" fill="#020202"/>
    <path id="Trazado_277363" data-name="Trazado 277363" d="M126.039,215.43c7.422,0,14.843.011,22.264-.017.74,0,.865.22.688.861q-.4,1.435-.721,2.889a.79.79,0,0,1-.617.641c-1.861.609-3.717,1.237-5.572,1.865a1.485,1.485,0,0,1-1.018-.039c-.911-.32-1.842-.586-2.749-.915a1.4,1.4,0,0,0-1.611.372q-1.791,1.8-3.6,3.591a1.6,1.6,0,0,0-.468,1.61c.311,1.416.575,2.841.877,4.258.106.5.014.7-.538.9a11.682,11.682,0,0,1-6.385.117,10.588,10.588,0,0,1-5.045-2.443c-.741-.62-1.542-1.168-2.314-1.751a1.346,1.346,0,0,0-1.647-.073q-3.1,1.875-6.217,3.732a1.4,1.4,0,0,0-.7,1.642c.291,1.392.525,2.8.869,4.177.173.693-.071.88-.684.988-1.348.238-2.682.553-4.03.788a2.046,2.046,0,0,0-1.329.811c-1.3,1.647-2.617,3.276-3.918,4.92-.25.316-.447.5-.927.344a40.138,40.138,0,0,1-8.63-3.919c-.5-.3-.451-.44-.02-.75,1.223-.877,2.41-1.8,3.625-2.691a1.643,1.643,0,0,0,.787-1.569.347.347,0,0,1,0-.08,8.146,8.146,0,0,0-2.075-6.973c-.359-.39-.264-.778-.175-1.253a3.764,3.764,0,0,1,2.658-3.066,13.225,13.225,0,0,0,5.424-3.911,2.147,2.147,0,0,0,.633-1.582c-.033-.94.023-1.883-.021-2.822-.025-.536.151-.669.673-.666,3.5.022,6.991.011,10.487.011h12.019" transform="translate(-71.894 -168.95)" fill="#6792cb"/>
    <path id="Trazado_277364" data-name="Trazado 277364" d="M191.734,249.458c-7.2,18.018-26.6,26.625-43.014,22.739,1.144-1.428,2.267-2.826,3.385-4.227.157-.2.382-.169.587-.211,1.735-.356,3.473-.7,5.205-1.069,1.154-.246,1.481-.768,1.255-1.9-.316-1.579-.606-3.164-.954-4.736a.6.6,0,0,1,.338-.773c1.366-.8,2.728-1.614,4.075-2.447a.642.642,0,0,1,.854.072c1.171.9,2.374,1.762,3.537,2.674a3.779,3.779,0,0,0,1.667.743q2.768.534,5.529,1.1a2.253,2.253,0,0,0,1.034-.006c1.559-.4,3.123-.782,4.681-1.184,1.1-.284,1.414-.788,1.194-1.879-.329-1.631-.643-3.266-.994-4.892a.937.937,0,0,1,.308-.994c.685-.644,1.359-1.3,2-1.995a.735.735,0,0,1,.987-.22,6.488,6.488,0,0,0,6.146-.059,20.885,20.885,0,0,1,2.184-.736" transform="translate(-116.642 -195.652)" fill="#69ca9e"/>
    <path id="Trazado_277365" data-name="Trazado 277365" d="M38.765,217.367c.385,1.947-1.209,2.8-2.508,3.677a33.108,33.108,0,0,1-4.229,2.154,1.881,1.881,0,0,0-1.057,1.232c-.343,1.129-.721,2.249-1.118,3.36a1.5,1.5,0,0,0,.183,1.448,15.474,15.474,0,0,0,1.312,1.93c1.1,1.177.984,2.587.966,4a.7.7,0,0,1-.363.58c-1.29.968-2.6,1.915-3.862,2.913-.46.363-.677.019-.951-.193a37.043,37.043,0,0,1-13.054-19.106c-.314-1.053-.5-2.143-.8-3.2-.212-.74.2-.7.7-.7q10.972.012,21.944.005h1.049c1.79,0,1.79,0,1.79,1.9" transform="translate(-10.371 -168.992)" fill="#69ca9e"/>
    <path id="Trazado_277366" data-name="Trazado 277366" d="M74.809,116.868c0-.791.021-1.49-.005-2.187-.032-.867-.745-.483-1.077-.435-.5.073-1.321-.558-1.48.434a14.226,14.226,0,0,0-.021,2.157,5.149,5.149,0,0,1-1.44-.854c-.323-.215-.485-.155-.711.144-1.259,1.661-1.267,1.655.428,2.783.313.208.641.4.933.634.311.251.775.32.8.9.075,1.514.1,1.523-1.435,1.508a7.96,7.96,0,0,1-2.085-.114,3.73,3.73,0,0,1-2.89-3.122,3.584,3.584,0,0,1,1.624-3.774,1.872,1.872,0,0,0,.926-1.87,5.141,5.141,0,1,1,10.276,0,1.849,1.849,0,0,0,.924,1.87,3.76,3.76,0,0,1,1.5,4.325,3.877,3.877,0,0,1-3.641,2.689c-.7.014-1.4-.02-2.1.012-.431.02-.509-.144-.553-.549a1.794,1.794,0,0,1,1.063-2.067c.647-.311,1.2-.806,1.823-1.183.37-.225.389-.427.133-.757-.393-.507-.648-1.295-1.149-1.5s-1,.566-1.545.84c-.067.034-.141.055-.308.119" transform="translate(-51.58 -84.512)" fill="#57b187"/>
    <path id="Trazado_277367" data-name="Trazado 277367" d="M156.037,116.928a8.863,8.863,0,0,1-1.151-.754c-.57-.521-.857-.3-1.215.267-.912,1.438-.937,1.422.488,2.37.492.328.976.668,1.479.978a.768.768,0,0,1,.409.709c.051,1.454.065,1.464-1.408,1.449a8.173,8.173,0,0,1-2.086-.109,3.729,3.729,0,0,1-2.908-3.106,3.567,3.567,0,0,1,1.6-3.781,1.94,1.94,0,0,0,.94-1.944,5.14,5.14,0,1,1,10.279-.047,1.988,1.988,0,0,0,.968,2.01,3.736,3.736,0,0,1,1.464,4.266,3.877,3.877,0,0,1-3.625,2.711c-.7.016-1.4-.014-2.1.011-.4.014-.535-.087-.577-.525a1.793,1.793,0,0,1,1.046-2.078,20.148,20.148,0,0,0,1.823-1.183c.345-.213.449-.405.163-.75-.425-.513-.628-1.457-1.193-1.524-.523-.062-1.13.594-1.82,1.005,0-.788-.018-1.5.007-2.2.014-.388-.129-.487-.507-.506-2.078-.109-2.077-.12-2.083,1.91,0,.233,0,.466,0,.822" transform="translate(-117.313 -84.511)" fill="#57b187"/>
    <path id="Trazado_277368" data-name="Trazado 277368" d="M242.433,116.924c0-.789-.022-1.456.008-2.12.02-.437-.091-.6-.571-.61-2.013-.048-2.012-.067-2.02,1.975,0,.211,0,.421,0,.78-.535-.355-.987-.625-1.405-.941-.343-.259-.527-.178-.768.153-1.205,1.65-1.214,1.643.483,2.773.447.3.884.613,1.343.892a.706.706,0,0,1,.356.656c.069,1.473.079,1.483-1.387,1.468a7.983,7.983,0,0,1-2.165-.123,3.73,3.73,0,0,1-2.844-3.072,3.571,3.571,0,0,1,1.585-3.788,1.946,1.946,0,0,0,.957-1.936,5.14,5.14,0,1,1,10.277,0,1.915,1.915,0,0,0,.954,1.935,3.744,3.744,0,0,1,1.483,4.261,3.879,3.879,0,0,1-3.611,2.729,8.871,8.871,0,0,1-1.369-.009c-.434-.056-1.036.305-1.276-.255a1.769,1.769,0,0,1,.655-2.077c.715-.478,1.419-.972,2.152-1.42.4-.244.438-.47.14-.812-.43-.494-.589-1.436-1.211-1.475-.521-.033-1.084.6-1.764,1.023" transform="translate(-183.048 -84.512)" fill="#57b187"/>
    <path id="Trazado_277369" data-name="Trazado 277369" d="M32.022,32.494c-.806,0-1.613-.01-2.42,0a2.515,2.515,0,0,0-2.559,2.026c-.105.482-.282.568-.723.564-2.312-.021-4.624,0-6.936-.014a1.3,1.3,0,1,1-.02-2.574c1.156-.015,2.312,0,3.468,0a2.562,2.562,0,0,0,2.79-2.147c.092-.4.241-.441.575-.44,2.8.01,5.592,0,8.388.011a1.291,1.291,0,1,1,.019,2.571c-.86.019-1.72,0-2.581,0" transform="translate(-14.063 -23.456)" fill="#abc2e4"/>
    <path id="Trazado_277370" data-name="Trazado 277370" d="M176.192,35.126a2.567,2.567,0,1,1,2.559-2.575,2.584,2.584,0,0,1-2.559,2.575" transform="translate(-136.168 -23.523)" fill="#57b187"/>
  </g>
</svg>
