<svg xmlns="http://www.w3.org/2000/svg" xmlns:xlink="http://www.w3.org/1999/xlink" width="1095.467" height="248.535" viewBox="0 0 1095.467 248.535">
  <defs>
    <clipPath id="clip-path">
      <rect id="Rectángulo_46168" data-name="Rectángulo 46168" width="125.467" height="211.071" fill="#2594b2"/>
    </clipPath>
    <clipPath id="clip-path-7">
      <rect id="Rectángulo_46169" data-name="Rectángulo 46169" width="69.292" height="69.282" fill="#fff"/>
    </clipPath>
    <clipPath id="clip-path-8">
      <rect id="Rectángulo_46170" data-name="Rectángulo 46170" width="75.413" height="70.678" fill="#fff"/>
    </clipPath>
    <clipPath id="clip-path-9">
      <rect id="Rectángulo_46171" data-name="Rectángulo 46171" width="70.601" height="68.999" fill="#fff"/>
    </clipPath>
    <clipPath id="clip-path-10">
      <rect id="Rectángulo_46172" data-name="Rectángulo 46172" width="77.309" height="73.204" fill="#fff"/>
    </clipPath>
    <clipPath id="clip-path-11">
      <rect id="Rectángulo_46173" data-name="Rectángulo 46173" width="53.789" height="73.205" fill="#fff"/>
    </clipPath>
    <clipPath id="clip-path-12">
      <rect id="Rectángulo_46174" data-name="Rectángulo 46174" width="50.362" height="69.063" fill="#fff"/>
    </clipPath>
  </defs>
  <g id="Grupo_147241" data-name="Grupo 147241" transform="translate(-254 -2963.25)">
    <g id="Grupo_145931" data-name="Grupo 145931" transform="translate(254 2963.25)">
      <g id="Enmascarar_grupo_145930" data-name="Enmascarar grupo 145930" transform="translate(0 0)" clip-path="url(#clip-path)">
        <path id="Trazado_276891" data-name="Trazado 276891" d="M120.8,1.214V194.327c0,3.434-7.276,6.54-18.948,8.732-10.681,1.994-25.039,3.224-40.851,3.224-3.99,0-7.892-.074-11.657-.225-3.091-.119-6.108-.284-9-.509-1.8-.121-3.541-.272-5.253-.435-5.5-.541-10.545-1.23-14.958-2.056a85.735,85.735,0,0,1-9.8-2.372c-5.806-1.846-9.152-4.02-9.152-6.36V1.214Z" transform="translate(1.741 1.785)" fill="#1a7b96"/>
        <path id="Trazado_276892" data-name="Trazado 276892" d="M90.573,1.214V203.059c-10.681,1.994-25.039,3.224-40.851,3.224-3.99,0-7.892-.074-11.657-.225-3.091-.119-6.108-.284-9-.509-1.8-.121-3.538-.272-5.25-.435-5.5-.541-10.545-1.23-14.958-2.056V1.214Z" transform="translate(13.02 1.785)" fill="#2594b2"/>
        <path id="Trazado_276893" data-name="Trazado 276893" d="M29.642,1.214v203.9c-10.187-.991-18.768-2.537-24.754-4.428V1.214Z" transform="translate(7.189 1.785)" fill="#1fa6cb"/>
        <path id="Trazado_276894" data-name="Trazado 276894" d="M34.357,1.214V206.058c-5.947-.119-11.751-.284-17.325-.509V1.214Z" transform="translate(25.05 1.785)" fill="#1987a5"/>
        <path id="Trazado_276895" data-name="Trazado 276895" d="M125.467,81.205c0,14.792-60.175,14.958-62.725,14.958C60.175,96.163,0,96,0,81.205a2.881,2.881,0,0,1,.3-1.3A2.974,2.974,0,0,1,3,78.206c.03.494.734,1.89,2.789,3.3,3.046,2.07,21.619,8.657,56.951,8.657,35.314,0,53.963-6.96,56.918-8.9,1.245-.81,2.822-1.784,2.822-3.135a3.1,3.1,0,0,1,2.985,3.076" transform="translate(0 114.908)" fill="#136076"/>
        <rect id="Rectángulo_46167" data-name="Rectángulo 46167" width="9.001" height="203.399" transform="translate(88.734 2.999)" fill="#1a87a5"/>
        <path id="Trazado_276896" data-name="Trazado 276896" d="M124.987,79.9c-4.4,13.112-59.98,13.263-62.426,13.263S4.516,93.011.121,79.9a2.974,2.974,0,0,1,2.7-1.695c.03.494.736,1.89,2.789,3.3,3.046,2.07,21.619,8.655,56.951,8.655s53.963-6.96,56.918-8.895c1.245-.81,2.822-1.786,2.822-3.135a2.953,2.953,0,0,1,2.686,1.769" transform="translate(0.178 114.909)" fill="#20a6cb"/>
        <path id="Trazado_276897" data-name="Trazado 276897" d="M125.467,59.342c0,3.195-2.369,6.827-20.028,9.6-11.432,1.786-26.6,2.775-42.7,2.775-16.114,0-31.282-.988-42.714-2.775C2.372,66.169,0,62.537,0,59.342a3.1,3.1,0,0,1,.284-1.29A3.016,3.016,0,0,1,3,56.343C3,57.526,4.487,58.278,5.957,59c3.9,1.907,24.334,6.723,56.785,6.723,32.433,0,52.958-5.028,56.844-6.723,1.408-.615,2.878-1.364,2.878-2.654a3.026,3.026,0,0,1,2.715,1.71v.015a3.047,3.047,0,0,1,.287,1.275" transform="translate(0 82.866)" fill="#136076"/>
        <path id="Trazado_276898" data-name="Trazado 276898" d="M125.011,58.053v.015c-1.035,2.73-5.206,5.6-19.744,7.877-11.432,1.784-26.6,2.775-42.7,2.775s-31.28-.991-42.712-2.775C5.291,63.649,1.135,60.783.115,58.053a3.012,3.012,0,0,1,2.715-1.71c0,1.183,1.485,1.935,2.955,2.654,3.9,1.907,24.334,6.723,56.785,6.723s52.96-5.025,56.844-6.723c1.411-.615,2.881-1.364,2.881-2.654a3.026,3.026,0,0,1,2.715,1.71" transform="translate(0.169 82.866)" fill="#20a6cb"/>
        <path id="Trazado_276899" data-name="Trazado 276899" d="M125.467,25.655c0,3.15-1.831,4.561-20.3,5.777-11.343.749-26.422,1.154-42.428,1.154-16.023,0-31.1-.405-42.442-1.154C1.831,30.216,0,28.806,0,25.655a3.157,3.157,0,0,1,.316-1.366A3,3,0,0,1,3,22.656c0,.524,1.485.944,2.325,1.154,3.721.9,23.568,2.775,57.415,2.775,33.829,0,53.694-1.814,57.519-2.955.749-.225,2.2-.479,2.2-.973a2.968,2.968,0,0,1,2.686,1.665,2.821,2.821,0,0,1,.316,1.334" transform="translate(0 33.321)" fill="#136076"/>
        <path id="Trazado_276900" data-name="Trazado 276900" d="M124.964,24.32c-1.035,2.026-5.132,3.135-19.983,4.111-11.341.749-26.42,1.154-42.428,1.154s-31.1-.405-42.442-1.154C5.185,27.456,1.133,26.346.127,24.291a3.007,3.007,0,0,1,2.686-1.636c0,.526,1.485.946,2.325,1.156,3.721.9,23.571,2.775,57.415,2.775s53.694-1.816,57.521-2.955c.749-.225,2.2-.482,2.2-.976a2.968,2.968,0,0,1,2.686,1.665" transform="translate(0.187 33.32)" fill="#20a6cb"/>
        <path id="Trazado_276901" data-name="Trazado 276901" d="M125.467,3a3,3,0,0,1-3,3H3A3,3,0,1,1,3,0H122.465a2.99,2.99,0,0,1,3,3" transform="translate(0 0)" fill="#106076"/>
        <path id="Trazado_276902" data-name="Trazado 276902" d="M125.467,3H0A2.99,2.99,0,0,1,3,0H122.465a2.99,2.99,0,0,1,3,3" transform="translate(0 0)" fill="#20a6cb"/>
        <path id="Trazado_276903" data-name="Trazado 276903" d="M30.242,2.215H5.491A1.008,1.008,0,1,1,5.491.2H30.242a1.008,1.008,0,1,1,0,2.016" transform="translate(6.589 0.293)" fill="#28c6f2"/>
        <path id="Trazado_276904" data-name="Trazado 276904" d="M30.241,27.166c-2.147,0-13.315-.267-24.861-1.507a1.008,1.008,0,1,1,.215-2C16.23,24.794,27.383,25.15,30.241,25.15a1.008,1.008,0,1,1,0,2.016" transform="translate(6.59 34.782)" fill="#28c6f2"/>
        <path id="Trazado_276905" data-name="Trazado 276905" d="M30.241,64.019h-.017c-5.774-.1-16.272-1.6-24.959-3.588a1.008,1.008,0,0,1,.447-1.967C14.145,60.39,24.7,61.909,30.259,62a1.008,1.008,0,0,1-.017,2.016" transform="translate(6.59 85.947)" fill="#28c6f2"/>
        <path id="Trazado_276906" data-name="Trazado 276906" d="M30.242,87.379l-.082,0C23.116,86.8,10.138,84.812,5.1,82.7a1.009,1.009,0,0,1,.781-1.86c4.665,1.954,17.382,3.951,24.443,4.524a1.008,1.008,0,0,1-.079,2.014" transform="translate(6.589 118.782)" fill="#28c6f2"/>
      </g>
    </g>
    <g id="Grupo_145932" data-name="Grupo 145932" transform="translate(446.533 2963.25)">
      <g id="Enmascarar_grupo_145930-2" data-name="Enmascarar grupo 145930" transform="translate(0 0)" clip-path="url(#clip-path)">
        <path id="Trazado_276891-2" data-name="Trazado 276891" d="M120.8,1.214V194.327c0,3.434-7.276,6.54-18.948,8.732-10.681,1.994-25.039,3.224-40.851,3.224-3.99,0-7.892-.074-11.657-.225-3.091-.119-6.108-.284-9-.509-1.8-.121-3.541-.272-5.253-.435-5.5-.541-10.545-1.23-14.958-2.056a85.735,85.735,0,0,1-9.8-2.372c-5.806-1.846-9.152-4.02-9.152-6.36V1.214Z" transform="translate(1.741 1.785)" fill="#1a7b96"/>
        <path id="Trazado_276892-2" data-name="Trazado 276892" d="M90.573,1.214V203.059c-10.681,1.994-25.039,3.224-40.851,3.224-3.99,0-7.892-.074-11.657-.225-3.091-.119-6.108-.284-9-.509-1.8-.121-3.538-.272-5.25-.435-5.5-.541-10.545-1.23-14.958-2.056V1.214Z" transform="translate(13.02 1.785)" fill="#2594b2"/>
        <path id="Trazado_276893-2" data-name="Trazado 276893" d="M29.642,1.214v203.9c-10.187-.991-18.768-2.537-24.754-4.428V1.214Z" transform="translate(7.189 1.785)" fill="#1fa6cb"/>
        <path id="Trazado_276894-2" data-name="Trazado 276894" d="M34.357,1.214V206.058c-5.947-.119-11.751-.284-17.325-.509V1.214Z" transform="translate(25.05 1.785)" fill="#1987a5"/>
        <path id="Trazado_276895-2" data-name="Trazado 276895" d="M125.467,81.205c0,14.792-60.175,14.958-62.725,14.958C60.175,96.163,0,96,0,81.205a2.881,2.881,0,0,1,.3-1.3A2.974,2.974,0,0,1,3,78.206c.03.494.734,1.89,2.789,3.3,3.046,2.07,21.619,8.657,56.951,8.657,35.314,0,53.963-6.96,56.918-8.9,1.245-.81,2.822-1.784,2.822-3.135a3.1,3.1,0,0,1,2.985,3.076" transform="translate(0 114.908)" fill="#136076"/>
        <rect id="Rectángulo_46167-2" data-name="Rectángulo 46167" width="9.001" height="203.399" transform="translate(88.734 2.999)" fill="#1a87a5"/>
        <path id="Trazado_276896-2" data-name="Trazado 276896" d="M124.987,79.9c-4.4,13.112-59.98,13.263-62.426,13.263S4.516,93.011.121,79.9a2.974,2.974,0,0,1,2.7-1.695c.03.494.736,1.89,2.789,3.3,3.046,2.07,21.619,8.655,56.951,8.655s53.963-6.96,56.918-8.895c1.245-.81,2.822-1.786,2.822-3.135a2.953,2.953,0,0,1,2.686,1.769" transform="translate(0.178 114.909)" fill="#20a6cb"/>
        <path id="Trazado_276897-2" data-name="Trazado 276897" d="M125.467,59.342c0,3.195-2.369,6.827-20.028,9.6-11.432,1.786-26.6,2.775-42.7,2.775-16.114,0-31.282-.988-42.714-2.775C2.372,66.169,0,62.537,0,59.342a3.1,3.1,0,0,1,.284-1.29A3.016,3.016,0,0,1,3,56.343C3,57.526,4.487,58.278,5.957,59c3.9,1.907,24.334,6.723,56.785,6.723,32.433,0,52.958-5.028,56.844-6.723,1.408-.615,2.878-1.364,2.878-2.654a3.026,3.026,0,0,1,2.715,1.71v.015a3.047,3.047,0,0,1,.287,1.275" transform="translate(0 82.866)" fill="#136076"/>
        <path id="Trazado_276898-2" data-name="Trazado 276898" d="M125.011,58.053v.015c-1.035,2.73-5.206,5.6-19.744,7.877-11.432,1.784-26.6,2.775-42.7,2.775s-31.28-.991-42.712-2.775C5.291,63.649,1.135,60.783.115,58.053a3.012,3.012,0,0,1,2.715-1.71c0,1.183,1.485,1.935,2.955,2.654,3.9,1.907,24.334,6.723,56.785,6.723s52.96-5.025,56.844-6.723c1.411-.615,2.881-1.364,2.881-2.654a3.026,3.026,0,0,1,2.715,1.71" transform="translate(0.169 82.866)" fill="#20a6cb"/>
        <path id="Trazado_276899-2" data-name="Trazado 276899" d="M125.467,25.655c0,3.15-1.831,4.561-20.3,5.777-11.343.749-26.422,1.154-42.428,1.154-16.023,0-31.1-.405-42.442-1.154C1.831,30.216,0,28.806,0,25.655a3.157,3.157,0,0,1,.316-1.366A3,3,0,0,1,3,22.656c0,.524,1.485.944,2.325,1.154,3.721.9,23.568,2.775,57.415,2.775,33.829,0,53.694-1.814,57.519-2.955.749-.225,2.2-.479,2.2-.973a2.968,2.968,0,0,1,2.686,1.665,2.821,2.821,0,0,1,.316,1.334" transform="translate(0 33.321)" fill="#136076"/>
        <path id="Trazado_276900-2" data-name="Trazado 276900" d="M124.964,24.32c-1.035,2.026-5.132,3.135-19.983,4.111-11.341.749-26.42,1.154-42.428,1.154s-31.1-.405-42.442-1.154C5.185,27.456,1.133,26.346.127,24.291a3.007,3.007,0,0,1,2.686-1.636c0,.526,1.485.946,2.325,1.156,3.721.9,23.571,2.775,57.415,2.775s53.694-1.816,57.521-2.955c.749-.225,2.2-.482,2.2-.976a2.968,2.968,0,0,1,2.686,1.665" transform="translate(0.187 33.32)" fill="#20a6cb"/>
        <path id="Trazado_276901-2" data-name="Trazado 276901" d="M125.467,3a3,3,0,0,1-3,3H3A3,3,0,1,1,3,0H122.465a2.99,2.99,0,0,1,3,3" transform="translate(0 0)" fill="#106076"/>
        <path id="Trazado_276902-2" data-name="Trazado 276902" d="M125.467,3H0A2.99,2.99,0,0,1,3,0H122.465a2.99,2.99,0,0,1,3,3" transform="translate(0 0)" fill="#20a6cb"/>
        <path id="Trazado_276903-2" data-name="Trazado 276903" d="M30.242,2.215H5.491A1.008,1.008,0,1,1,5.491.2H30.242a1.008,1.008,0,1,1,0,2.016" transform="translate(6.589 0.293)" fill="#28c6f2"/>
        <path id="Trazado_276904-2" data-name="Trazado 276904" d="M30.241,27.166c-2.147,0-13.315-.267-24.861-1.507a1.008,1.008,0,1,1,.215-2C16.23,24.794,27.383,25.15,30.241,25.15a1.008,1.008,0,1,1,0,2.016" transform="translate(6.59 34.782)" fill="#28c6f2"/>
        <path id="Trazado_276905-2" data-name="Trazado 276905" d="M30.241,64.019h-.017c-5.774-.1-16.272-1.6-24.959-3.588a1.008,1.008,0,0,1,.447-1.967C14.145,60.39,24.7,61.909,30.259,62a1.008,1.008,0,0,1-.017,2.016" transform="translate(6.59 85.947)" fill="#28c6f2"/>
        <path id="Trazado_276906-2" data-name="Trazado 276906" d="M30.242,87.379l-.082,0C23.116,86.8,10.138,84.812,5.1,82.7a1.009,1.009,0,0,1,.781-1.86c4.665,1.954,17.382,3.951,24.443,4.524a1.008,1.008,0,0,1-.079,2.014" transform="translate(6.589 118.782)" fill="#28c6f2"/>
      </g>
    </g>
    <g id="Grupo_145933" data-name="Grupo 145933" transform="translate(641 2963.25)">
      <g id="Enmascarar_grupo_145930-3" data-name="Enmascarar grupo 145930" transform="translate(0 0)" clip-path="url(#clip-path)">
        <path id="Trazado_276891-3" data-name="Trazado 276891" d="M120.8,1.214V194.327c0,3.434-7.276,6.54-18.948,8.732-10.681,1.994-25.039,3.224-40.851,3.224-3.99,0-7.892-.074-11.657-.225-3.091-.119-6.108-.284-9-.509-1.8-.121-3.541-.272-5.253-.435-5.5-.541-10.545-1.23-14.958-2.056a85.735,85.735,0,0,1-9.8-2.372c-5.806-1.846-9.152-4.02-9.152-6.36V1.214Z" transform="translate(1.741 1.785)" fill="#1a7b96"/>
        <path id="Trazado_276892-3" data-name="Trazado 276892" d="M90.573,1.214V203.059c-10.681,1.994-25.039,3.224-40.851,3.224-3.99,0-7.892-.074-11.657-.225-3.091-.119-6.108-.284-9-.509-1.8-.121-3.538-.272-5.25-.435-5.5-.541-10.545-1.23-14.958-2.056V1.214Z" transform="translate(13.02 1.785)" fill="#2594b2"/>
        <path id="Trazado_276893-3" data-name="Trazado 276893" d="M29.642,1.214v203.9c-10.187-.991-18.768-2.537-24.754-4.428V1.214Z" transform="translate(7.189 1.785)" fill="#1fa6cb"/>
        <path id="Trazado_276894-3" data-name="Trazado 276894" d="M34.357,1.214V206.058c-5.947-.119-11.751-.284-17.325-.509V1.214Z" transform="translate(25.05 1.785)" fill="#1987a5"/>
        <path id="Trazado_276895-3" data-name="Trazado 276895" d="M125.467,81.205c0,14.792-60.175,14.958-62.725,14.958C60.175,96.163,0,96,0,81.205a2.881,2.881,0,0,1,.3-1.3A2.974,2.974,0,0,1,3,78.206c.03.494.734,1.89,2.789,3.3,3.046,2.07,21.619,8.657,56.951,8.657,35.314,0,53.963-6.96,56.918-8.9,1.245-.81,2.822-1.784,2.822-3.135a3.1,3.1,0,0,1,2.985,3.076" transform="translate(0 114.908)" fill="#136076"/>
        <rect id="Rectángulo_46167-3" data-name="Rectángulo 46167" width="9.001" height="203.399" transform="translate(88.734 2.999)" fill="#1a87a5"/>
        <path id="Trazado_276896-3" data-name="Trazado 276896" d="M124.987,79.9c-4.4,13.112-59.98,13.263-62.426,13.263S4.516,93.011.121,79.9a2.974,2.974,0,0,1,2.7-1.695c.03.494.736,1.89,2.789,3.3,3.046,2.07,21.619,8.655,56.951,8.655s53.963-6.96,56.918-8.895c1.245-.81,2.822-1.786,2.822-3.135a2.953,2.953,0,0,1,2.686,1.769" transform="translate(0.178 114.909)" fill="#20a6cb"/>
        <path id="Trazado_276897-3" data-name="Trazado 276897" d="M125.467,59.342c0,3.195-2.369,6.827-20.028,9.6-11.432,1.786-26.6,2.775-42.7,2.775-16.114,0-31.282-.988-42.714-2.775C2.372,66.169,0,62.537,0,59.342a3.1,3.1,0,0,1,.284-1.29A3.016,3.016,0,0,1,3,56.343C3,57.526,4.487,58.278,5.957,59c3.9,1.907,24.334,6.723,56.785,6.723,32.433,0,52.958-5.028,56.844-6.723,1.408-.615,2.878-1.364,2.878-2.654a3.026,3.026,0,0,1,2.715,1.71v.015a3.047,3.047,0,0,1,.287,1.275" transform="translate(0 82.866)" fill="#136076"/>
        <path id="Trazado_276898-3" data-name="Trazado 276898" d="M125.011,58.053v.015c-1.035,2.73-5.206,5.6-19.744,7.877-11.432,1.784-26.6,2.775-42.7,2.775s-31.28-.991-42.712-2.775C5.291,63.649,1.135,60.783.115,58.053a3.012,3.012,0,0,1,2.715-1.71c0,1.183,1.485,1.935,2.955,2.654,3.9,1.907,24.334,6.723,56.785,6.723s52.96-5.025,56.844-6.723c1.411-.615,2.881-1.364,2.881-2.654a3.026,3.026,0,0,1,2.715,1.71" transform="translate(0.169 82.866)" fill="#20a6cb"/>
        <path id="Trazado_276899-3" data-name="Trazado 276899" d="M125.467,25.655c0,3.15-1.831,4.561-20.3,5.777-11.343.749-26.422,1.154-42.428,1.154-16.023,0-31.1-.405-42.442-1.154C1.831,30.216,0,28.806,0,25.655a3.157,3.157,0,0,1,.316-1.366A3,3,0,0,1,3,22.656c0,.524,1.485.944,2.325,1.154,3.721.9,23.568,2.775,57.415,2.775,33.829,0,53.694-1.814,57.519-2.955.749-.225,2.2-.479,2.2-.973a2.968,2.968,0,0,1,2.686,1.665,2.821,2.821,0,0,1,.316,1.334" transform="translate(0 33.321)" fill="#136076"/>
        <path id="Trazado_276900-3" data-name="Trazado 276900" d="M124.964,24.32c-1.035,2.026-5.132,3.135-19.983,4.111-11.341.749-26.42,1.154-42.428,1.154s-31.1-.405-42.442-1.154C5.185,27.456,1.133,26.346.127,24.291a3.007,3.007,0,0,1,2.686-1.636c0,.526,1.485.946,2.325,1.156,3.721.9,23.571,2.775,57.415,2.775s53.694-1.816,57.521-2.955c.749-.225,2.2-.482,2.2-.976a2.968,2.968,0,0,1,2.686,1.665" transform="translate(0.187 33.32)" fill="#20a6cb"/>
        <path id="Trazado_276901-3" data-name="Trazado 276901" d="M125.467,3a3,3,0,0,1-3,3H3A3,3,0,1,1,3,0H122.465a2.99,2.99,0,0,1,3,3" transform="translate(0 0)" fill="#106076"/>
        <path id="Trazado_276902-3" data-name="Trazado 276902" d="M125.467,3H0A2.99,2.99,0,0,1,3,0H122.465a2.99,2.99,0,0,1,3,3" transform="translate(0 0)" fill="#20a6cb"/>
        <path id="Trazado_276903-3" data-name="Trazado 276903" d="M30.242,2.215H5.491A1.008,1.008,0,1,1,5.491.2H30.242a1.008,1.008,0,1,1,0,2.016" transform="translate(6.589 0.293)" fill="#28c6f2"/>
        <path id="Trazado_276904-3" data-name="Trazado 276904" d="M30.241,27.166c-2.147,0-13.315-.267-24.861-1.507a1.008,1.008,0,1,1,.215-2C16.23,24.794,27.383,25.15,30.241,25.15a1.008,1.008,0,1,1,0,2.016" transform="translate(6.59 34.782)" fill="#28c6f2"/>
        <path id="Trazado_276905-3" data-name="Trazado 276905" d="M30.241,64.019h-.017c-5.774-.1-16.272-1.6-24.959-3.588a1.008,1.008,0,0,1,.447-1.967C14.145,60.39,24.7,61.909,30.259,62a1.008,1.008,0,0,1-.017,2.016" transform="translate(6.59 85.947)" fill="#28c6f2"/>
        <path id="Trazado_276906-3" data-name="Trazado 276906" d="M30.242,87.379l-.082,0C23.116,86.8,10.138,84.812,5.1,82.7a1.009,1.009,0,0,1,.781-1.86c4.665,1.954,17.382,3.951,24.443,4.524a1.008,1.008,0,0,1-.079,2.014" transform="translate(6.589 118.782)" fill="#28c6f2"/>
      </g>
    </g>
    <g id="Grupo_145934" data-name="Grupo 145934" transform="translate(834.767 2963.25)">
      <g id="Enmascarar_grupo_145930-4" data-name="Enmascarar grupo 145930" transform="translate(0 0)" clip-path="url(#clip-path)">
        <path id="Trazado_276891-4" data-name="Trazado 276891" d="M120.8,1.214V194.327c0,3.434-7.276,6.54-18.948,8.732-10.681,1.994-25.039,3.224-40.851,3.224-3.99,0-7.892-.074-11.657-.225-3.091-.119-6.108-.284-9-.509-1.8-.121-3.541-.272-5.253-.435-5.5-.541-10.545-1.23-14.958-2.056a85.735,85.735,0,0,1-9.8-2.372c-5.806-1.846-9.152-4.02-9.152-6.36V1.214Z" transform="translate(1.741 1.785)" fill="#1a7b96"/>
        <path id="Trazado_276892-4" data-name="Trazado 276892" d="M90.573,1.214V203.059c-10.681,1.994-25.039,3.224-40.851,3.224-3.99,0-7.892-.074-11.657-.225-3.091-.119-6.108-.284-9-.509-1.8-.121-3.538-.272-5.25-.435-5.5-.541-10.545-1.23-14.958-2.056V1.214Z" transform="translate(13.02 1.785)" fill="#2594b2"/>
        <path id="Trazado_276893-4" data-name="Trazado 276893" d="M29.642,1.214v203.9c-10.187-.991-18.768-2.537-24.754-4.428V1.214Z" transform="translate(7.189 1.785)" fill="#1fa6cb"/>
        <path id="Trazado_276894-4" data-name="Trazado 276894" d="M34.357,1.214V206.058c-5.947-.119-11.751-.284-17.325-.509V1.214Z" transform="translate(25.05 1.785)" fill="#1987a5"/>
        <path id="Trazado_276895-4" data-name="Trazado 276895" d="M125.467,81.205c0,14.792-60.175,14.958-62.725,14.958C60.175,96.163,0,96,0,81.205a2.881,2.881,0,0,1,.3-1.3A2.974,2.974,0,0,1,3,78.206c.03.494.734,1.89,2.789,3.3,3.046,2.07,21.619,8.657,56.951,8.657,35.314,0,53.963-6.96,56.918-8.9,1.245-.81,2.822-1.784,2.822-3.135a3.1,3.1,0,0,1,2.985,3.076" transform="translate(0 114.908)" fill="#136076"/>
        <rect id="Rectángulo_46167-4" data-name="Rectángulo 46167" width="9.001" height="203.399" transform="translate(88.734 2.999)" fill="#1a87a5"/>
        <path id="Trazado_276896-4" data-name="Trazado 276896" d="M124.987,79.9c-4.4,13.112-59.98,13.263-62.426,13.263S4.516,93.011.121,79.9a2.974,2.974,0,0,1,2.7-1.695c.03.494.736,1.89,2.789,3.3,3.046,2.07,21.619,8.655,56.951,8.655s53.963-6.96,56.918-8.895c1.245-.81,2.822-1.786,2.822-3.135a2.953,2.953,0,0,1,2.686,1.769" transform="translate(0.178 114.909)" fill="#20a6cb"/>
        <path id="Trazado_276897-4" data-name="Trazado 276897" d="M125.467,59.342c0,3.195-2.369,6.827-20.028,9.6-11.432,1.786-26.6,2.775-42.7,2.775-16.114,0-31.282-.988-42.714-2.775C2.372,66.169,0,62.537,0,59.342a3.1,3.1,0,0,1,.284-1.29A3.016,3.016,0,0,1,3,56.343C3,57.526,4.487,58.278,5.957,59c3.9,1.907,24.334,6.723,56.785,6.723,32.433,0,52.958-5.028,56.844-6.723,1.408-.615,2.878-1.364,2.878-2.654a3.026,3.026,0,0,1,2.715,1.71v.015a3.047,3.047,0,0,1,.287,1.275" transform="translate(0 82.866)" fill="#136076"/>
        <path id="Trazado_276898-4" data-name="Trazado 276898" d="M125.011,58.053v.015c-1.035,2.73-5.206,5.6-19.744,7.877-11.432,1.784-26.6,2.775-42.7,2.775s-31.28-.991-42.712-2.775C5.291,63.649,1.135,60.783.115,58.053a3.012,3.012,0,0,1,2.715-1.71c0,1.183,1.485,1.935,2.955,2.654,3.9,1.907,24.334,6.723,56.785,6.723s52.96-5.025,56.844-6.723c1.411-.615,2.881-1.364,2.881-2.654a3.026,3.026,0,0,1,2.715,1.71" transform="translate(0.169 82.866)" fill="#20a6cb"/>
        <path id="Trazado_276899-4" data-name="Trazado 276899" d="M125.467,25.655c0,3.15-1.831,4.561-20.3,5.777-11.343.749-26.422,1.154-42.428,1.154-16.023,0-31.1-.405-42.442-1.154C1.831,30.216,0,28.806,0,25.655a3.157,3.157,0,0,1,.316-1.366A3,3,0,0,1,3,22.656c0,.524,1.485.944,2.325,1.154,3.721.9,23.568,2.775,57.415,2.775,33.829,0,53.694-1.814,57.519-2.955.749-.225,2.2-.479,2.2-.973a2.968,2.968,0,0,1,2.686,1.665,2.821,2.821,0,0,1,.316,1.334" transform="translate(0 33.321)" fill="#136076"/>
        <path id="Trazado_276900-4" data-name="Trazado 276900" d="M124.964,24.32c-1.035,2.026-5.132,3.135-19.983,4.111-11.341.749-26.42,1.154-42.428,1.154s-31.1-.405-42.442-1.154C5.185,27.456,1.133,26.346.127,24.291a3.007,3.007,0,0,1,2.686-1.636c0,.526,1.485.946,2.325,1.156,3.721.9,23.571,2.775,57.415,2.775s53.694-1.816,57.521-2.955c.749-.225,2.2-.482,2.2-.976a2.968,2.968,0,0,1,2.686,1.665" transform="translate(0.187 33.32)" fill="#20a6cb"/>
        <path id="Trazado_276901-4" data-name="Trazado 276901" d="M125.467,3a3,3,0,0,1-3,3H3A3,3,0,1,1,3,0H122.465a2.99,2.99,0,0,1,3,3" transform="translate(0 0)" fill="#106076"/>
        <path id="Trazado_276902-4" data-name="Trazado 276902" d="M125.467,3H0A2.99,2.99,0,0,1,3,0H122.465a2.99,2.99,0,0,1,3,3" transform="translate(0 0)" fill="#20a6cb"/>
        <path id="Trazado_276903-4" data-name="Trazado 276903" d="M30.242,2.215H5.491A1.008,1.008,0,1,1,5.491.2H30.242a1.008,1.008,0,1,1,0,2.016" transform="translate(6.589 0.293)" fill="#28c6f2"/>
        <path id="Trazado_276904-4" data-name="Trazado 276904" d="M30.241,27.166c-2.147,0-13.315-.267-24.861-1.507a1.008,1.008,0,1,1,.215-2C16.23,24.794,27.383,25.15,30.241,25.15a1.008,1.008,0,1,1,0,2.016" transform="translate(6.59 34.782)" fill="#28c6f2"/>
        <path id="Trazado_276905-4" data-name="Trazado 276905" d="M30.241,64.019h-.017c-5.774-.1-16.272-1.6-24.959-3.588a1.008,1.008,0,0,1,.447-1.967C14.145,60.39,24.7,61.909,30.259,62a1.008,1.008,0,0,1-.017,2.016" transform="translate(6.59 85.947)" fill="#28c6f2"/>
        <path id="Trazado_276906-4" data-name="Trazado 276906" d="M30.242,87.379l-.082,0C23.116,86.8,10.138,84.812,5.1,82.7a1.009,1.009,0,0,1,.781-1.86c4.665,1.954,17.382,3.951,24.443,4.524a1.008,1.008,0,0,1-.079,2.014" transform="translate(6.589 118.782)" fill="#28c6f2"/>
      </g>
    </g>
    <g id="Grupo_145935" data-name="Grupo 145935" transform="translate(1031 2963.25)">
      <g id="Enmascarar_grupo_145930-5" data-name="Enmascarar grupo 145930" transform="translate(0 0)" clip-path="url(#clip-path)">
        <path id="Trazado_276891-5" data-name="Trazado 276891" d="M120.8,1.214V194.327c0,3.434-7.276,6.54-18.948,8.732-10.681,1.994-25.039,3.224-40.851,3.224-3.99,0-7.892-.074-11.657-.225-3.091-.119-6.108-.284-9-.509-1.8-.121-3.541-.272-5.253-.435-5.5-.541-10.545-1.23-14.958-2.056a85.735,85.735,0,0,1-9.8-2.372c-5.806-1.846-9.152-4.02-9.152-6.36V1.214Z" transform="translate(1.741 1.785)" fill="#1a7b96"/>
        <path id="Trazado_276892-5" data-name="Trazado 276892" d="M90.573,1.214V203.059c-10.681,1.994-25.039,3.224-40.851,3.224-3.99,0-7.892-.074-11.657-.225-3.091-.119-6.108-.284-9-.509-1.8-.121-3.538-.272-5.25-.435-5.5-.541-10.545-1.23-14.958-2.056V1.214Z" transform="translate(13.02 1.785)" fill="#2594b2"/>
        <path id="Trazado_276893-5" data-name="Trazado 276893" d="M29.642,1.214v203.9c-10.187-.991-18.768-2.537-24.754-4.428V1.214Z" transform="translate(7.189 1.785)" fill="#1fa6cb"/>
        <path id="Trazado_276894-5" data-name="Trazado 276894" d="M34.357,1.214V206.058c-5.947-.119-11.751-.284-17.325-.509V1.214Z" transform="translate(25.05 1.785)" fill="#1987a5"/>
        <path id="Trazado_276895-5" data-name="Trazado 276895" d="M125.467,81.205c0,14.792-60.175,14.958-62.725,14.958C60.175,96.163,0,96,0,81.205a2.881,2.881,0,0,1,.3-1.3A2.974,2.974,0,0,1,3,78.206c.03.494.734,1.89,2.789,3.3,3.046,2.07,21.619,8.657,56.951,8.657,35.314,0,53.963-6.96,56.918-8.9,1.245-.81,2.822-1.784,2.822-3.135a3.1,3.1,0,0,1,2.985,3.076" transform="translate(0 114.908)" fill="#136076"/>
        <rect id="Rectángulo_46167-5" data-name="Rectángulo 46167" width="9.001" height="203.399" transform="translate(88.734 2.999)" fill="#1a87a5"/>
        <path id="Trazado_276896-5" data-name="Trazado 276896" d="M124.987,79.9c-4.4,13.112-59.98,13.263-62.426,13.263S4.516,93.011.121,79.9a2.974,2.974,0,0,1,2.7-1.695c.03.494.736,1.89,2.789,3.3,3.046,2.07,21.619,8.655,56.951,8.655s53.963-6.96,56.918-8.895c1.245-.81,2.822-1.786,2.822-3.135a2.953,2.953,0,0,1,2.686,1.769" transform="translate(0.178 114.909)" fill="#20a6cb"/>
        <path id="Trazado_276897-5" data-name="Trazado 276897" d="M125.467,59.342c0,3.195-2.369,6.827-20.028,9.6-11.432,1.786-26.6,2.775-42.7,2.775-16.114,0-31.282-.988-42.714-2.775C2.372,66.169,0,62.537,0,59.342a3.1,3.1,0,0,1,.284-1.29A3.016,3.016,0,0,1,3,56.343C3,57.526,4.487,58.278,5.957,59c3.9,1.907,24.334,6.723,56.785,6.723,32.433,0,52.958-5.028,56.844-6.723,1.408-.615,2.878-1.364,2.878-2.654a3.026,3.026,0,0,1,2.715,1.71v.015a3.047,3.047,0,0,1,.287,1.275" transform="translate(0 82.866)" fill="#136076"/>
        <path id="Trazado_276898-5" data-name="Trazado 276898" d="M125.011,58.053v.015c-1.035,2.73-5.206,5.6-19.744,7.877-11.432,1.784-26.6,2.775-42.7,2.775s-31.28-.991-42.712-2.775C5.291,63.649,1.135,60.783.115,58.053a3.012,3.012,0,0,1,2.715-1.71c0,1.183,1.485,1.935,2.955,2.654,3.9,1.907,24.334,6.723,56.785,6.723s52.96-5.025,56.844-6.723c1.411-.615,2.881-1.364,2.881-2.654a3.026,3.026,0,0,1,2.715,1.71" transform="translate(0.169 82.866)" fill="#20a6cb"/>
        <path id="Trazado_276899-5" data-name="Trazado 276899" d="M125.467,25.655c0,3.15-1.831,4.561-20.3,5.777-11.343.749-26.422,1.154-42.428,1.154-16.023,0-31.1-.405-42.442-1.154C1.831,30.216,0,28.806,0,25.655a3.157,3.157,0,0,1,.316-1.366A3,3,0,0,1,3,22.656c0,.524,1.485.944,2.325,1.154,3.721.9,23.568,2.775,57.415,2.775,33.829,0,53.694-1.814,57.519-2.955.749-.225,2.2-.479,2.2-.973a2.968,2.968,0,0,1,2.686,1.665,2.821,2.821,0,0,1,.316,1.334" transform="translate(0 33.321)" fill="#136076"/>
        <path id="Trazado_276900-5" data-name="Trazado 276900" d="M124.964,24.32c-1.035,2.026-5.132,3.135-19.983,4.111-11.341.749-26.42,1.154-42.428,1.154s-31.1-.405-42.442-1.154C5.185,27.456,1.133,26.346.127,24.291a3.007,3.007,0,0,1,2.686-1.636c0,.526,1.485.946,2.325,1.156,3.721.9,23.571,2.775,57.415,2.775s53.694-1.816,57.521-2.955c.749-.225,2.2-.482,2.2-.976a2.968,2.968,0,0,1,2.686,1.665" transform="translate(0.187 33.32)" fill="#20a6cb"/>
        <path id="Trazado_276901-5" data-name="Trazado 276901" d="M125.467,3a3,3,0,0,1-3,3H3A3,3,0,1,1,3,0H122.465a2.99,2.99,0,0,1,3,3" transform="translate(0 0)" fill="#106076"/>
        <path id="Trazado_276902-5" data-name="Trazado 276902" d="M125.467,3H0A2.99,2.99,0,0,1,3,0H122.465a2.99,2.99,0,0,1,3,3" transform="translate(0 0)" fill="#20a6cb"/>
        <path id="Trazado_276903-5" data-name="Trazado 276903" d="M30.242,2.215H5.491A1.008,1.008,0,1,1,5.491.2H30.242a1.008,1.008,0,1,1,0,2.016" transform="translate(6.589 0.293)" fill="#28c6f2"/>
        <path id="Trazado_276904-5" data-name="Trazado 276904" d="M30.241,27.166c-2.147,0-13.315-.267-24.861-1.507a1.008,1.008,0,1,1,.215-2C16.23,24.794,27.383,25.15,30.241,25.15a1.008,1.008,0,1,1,0,2.016" transform="translate(6.59 34.782)" fill="#28c6f2"/>
        <path id="Trazado_276905-5" data-name="Trazado 276905" d="M30.241,64.019h-.017c-5.774-.1-16.272-1.6-24.959-3.588a1.008,1.008,0,0,1,.447-1.967C14.145,60.39,24.7,61.909,30.259,62a1.008,1.008,0,0,1-.017,2.016" transform="translate(6.59 85.947)" fill="#28c6f2"/>
        <path id="Trazado_276906-5" data-name="Trazado 276906" d="M30.242,87.379l-.082,0C23.116,86.8,10.138,84.812,5.1,82.7a1.009,1.009,0,0,1,.781-1.86c4.665,1.954,17.382,3.951,24.443,4.524a1.008,1.008,0,0,1-.079,2.014" transform="translate(6.589 118.782)" fill="#28c6f2"/>
      </g>
    </g>
    <g id="Grupo_145936" data-name="Grupo 145936" transform="translate(1224 2963.25)">
      <g id="Enmascarar_grupo_145930-6" data-name="Enmascarar grupo 145930" transform="translate(0 0)" clip-path="url(#clip-path)">
        <path id="Trazado_276891-6" data-name="Trazado 276891" d="M120.8,1.214V194.327c0,3.434-7.276,6.54-18.948,8.732-10.681,1.994-25.039,3.224-40.851,3.224-3.99,0-7.892-.074-11.657-.225-3.091-.119-6.108-.284-9-.509-1.8-.121-3.541-.272-5.253-.435-5.5-.541-10.545-1.23-14.958-2.056a85.735,85.735,0,0,1-9.8-2.372c-5.806-1.846-9.152-4.02-9.152-6.36V1.214Z" transform="translate(1.741 1.785)" fill="#1a7b96"/>
        <path id="Trazado_276892-6" data-name="Trazado 276892" d="M90.573,1.214V203.059c-10.681,1.994-25.039,3.224-40.851,3.224-3.99,0-7.892-.074-11.657-.225-3.091-.119-6.108-.284-9-.509-1.8-.121-3.538-.272-5.25-.435-5.5-.541-10.545-1.23-14.958-2.056V1.214Z" transform="translate(13.02 1.785)" fill="#2594b2"/>
        <path id="Trazado_276893-6" data-name="Trazado 276893" d="M29.642,1.214v203.9c-10.187-.991-18.768-2.537-24.754-4.428V1.214Z" transform="translate(7.189 1.785)" fill="#1fa6cb"/>
        <path id="Trazado_276894-6" data-name="Trazado 276894" d="M34.357,1.214V206.058c-5.947-.119-11.751-.284-17.325-.509V1.214Z" transform="translate(25.05 1.785)" fill="#1987a5"/>
        <path id="Trazado_276895-6" data-name="Trazado 276895" d="M125.467,81.205c0,14.792-60.175,14.958-62.725,14.958C60.175,96.163,0,96,0,81.205a2.881,2.881,0,0,1,.3-1.3A2.974,2.974,0,0,1,3,78.206c.03.494.734,1.89,2.789,3.3,3.046,2.07,21.619,8.657,56.951,8.657,35.314,0,53.963-6.96,56.918-8.9,1.245-.81,2.822-1.784,2.822-3.135a3.1,3.1,0,0,1,2.985,3.076" transform="translate(0 114.908)" fill="#136076"/>
        <rect id="Rectángulo_46167-6" data-name="Rectángulo 46167" width="9.001" height="203.399" transform="translate(88.734 2.999)" fill="#1a87a5"/>
        <path id="Trazado_276896-6" data-name="Trazado 276896" d="M124.987,79.9c-4.4,13.112-59.98,13.263-62.426,13.263S4.516,93.011.121,79.9a2.974,2.974,0,0,1,2.7-1.695c.03.494.736,1.89,2.789,3.3,3.046,2.07,21.619,8.655,56.951,8.655s53.963-6.96,56.918-8.895c1.245-.81,2.822-1.786,2.822-3.135a2.953,2.953,0,0,1,2.686,1.769" transform="translate(0.178 114.909)" fill="#20a6cb"/>
        <path id="Trazado_276897-6" data-name="Trazado 276897" d="M125.467,59.342c0,3.195-2.369,6.827-20.028,9.6-11.432,1.786-26.6,2.775-42.7,2.775-16.114,0-31.282-.988-42.714-2.775C2.372,66.169,0,62.537,0,59.342a3.1,3.1,0,0,1,.284-1.29A3.016,3.016,0,0,1,3,56.343C3,57.526,4.487,58.278,5.957,59c3.9,1.907,24.334,6.723,56.785,6.723,32.433,0,52.958-5.028,56.844-6.723,1.408-.615,2.878-1.364,2.878-2.654a3.026,3.026,0,0,1,2.715,1.71v.015a3.047,3.047,0,0,1,.287,1.275" transform="translate(0 82.866)" fill="#136076"/>
        <path id="Trazado_276898-6" data-name="Trazado 276898" d="M125.011,58.053v.015c-1.035,2.73-5.206,5.6-19.744,7.877-11.432,1.784-26.6,2.775-42.7,2.775s-31.28-.991-42.712-2.775C5.291,63.649,1.135,60.783.115,58.053a3.012,3.012,0,0,1,2.715-1.71c0,1.183,1.485,1.935,2.955,2.654,3.9,1.907,24.334,6.723,56.785,6.723s52.96-5.025,56.844-6.723c1.411-.615,2.881-1.364,2.881-2.654a3.026,3.026,0,0,1,2.715,1.71" transform="translate(0.169 82.866)" fill="#20a6cb"/>
        <path id="Trazado_276899-6" data-name="Trazado 276899" d="M125.467,25.655c0,3.15-1.831,4.561-20.3,5.777-11.343.749-26.422,1.154-42.428,1.154-16.023,0-31.1-.405-42.442-1.154C1.831,30.216,0,28.806,0,25.655a3.157,3.157,0,0,1,.316-1.366A3,3,0,0,1,3,22.656c0,.524,1.485.944,2.325,1.154,3.721.9,23.568,2.775,57.415,2.775,33.829,0,53.694-1.814,57.519-2.955.749-.225,2.2-.479,2.2-.973a2.968,2.968,0,0,1,2.686,1.665,2.821,2.821,0,0,1,.316,1.334" transform="translate(0 33.321)" fill="#136076"/>
        <path id="Trazado_276900-6" data-name="Trazado 276900" d="M124.964,24.32c-1.035,2.026-5.132,3.135-19.983,4.111-11.341.749-26.42,1.154-42.428,1.154s-31.1-.405-42.442-1.154C5.185,27.456,1.133,26.346.127,24.291a3.007,3.007,0,0,1,2.686-1.636c0,.526,1.485.946,2.325,1.156,3.721.9,23.571,2.775,57.415,2.775s53.694-1.816,57.521-2.955c.749-.225,2.2-.482,2.2-.976a2.968,2.968,0,0,1,2.686,1.665" transform="translate(0.187 33.32)" fill="#20a6cb"/>
        <path id="Trazado_276901-6" data-name="Trazado 276901" d="M125.467,3a3,3,0,0,1-3,3H3A3,3,0,1,1,3,0H122.465a2.99,2.99,0,0,1,3,3" transform="translate(0 0)" fill="#106076"/>
        <path id="Trazado_276902-6" data-name="Trazado 276902" d="M125.467,3H0A2.99,2.99,0,0,1,3,0H122.465a2.99,2.99,0,0,1,3,3" transform="translate(0 0)" fill="#20a6cb"/>
        <path id="Trazado_276903-6" data-name="Trazado 276903" d="M30.242,2.215H5.491A1.008,1.008,0,1,1,5.491.2H30.242a1.008,1.008,0,1,1,0,2.016" transform="translate(6.589 0.293)" fill="#28c6f2"/>
        <path id="Trazado_276904-6" data-name="Trazado 276904" d="M30.241,27.166c-2.147,0-13.315-.267-24.861-1.507a1.008,1.008,0,1,1,.215-2C16.23,24.794,27.383,25.15,30.241,25.15a1.008,1.008,0,1,1,0,2.016" transform="translate(6.59 34.782)" fill="#28c6f2"/>
        <path id="Trazado_276905-6" data-name="Trazado 276905" d="M30.241,64.019h-.017c-5.774-.1-16.272-1.6-24.959-3.588a1.008,1.008,0,0,1,.447-1.967C14.145,60.39,24.7,61.909,30.259,62a1.008,1.008,0,0,1-.017,2.016" transform="translate(6.59 85.947)" fill="#28c6f2"/>
        <path id="Trazado_276906-6" data-name="Trazado 276906" d="M30.242,87.379l-.082,0C23.116,86.8,10.138,84.812,5.1,82.7a1.009,1.009,0,0,1,.781-1.86c4.665,1.954,17.382,3.951,24.443,4.524a1.008,1.008,0,0,1-.079,2.014" transform="translate(6.589 118.782)" fill="#28c6f2"/>
      </g>
    </g>
    <g id="Grupo_145938" data-name="Grupo 145938" transform="translate(281.824 3035.645)">
      <g id="Grupo_145937" data-name="Grupo 145937" clip-path="url(#clip-path-7)">
        <path id="Trazado_276907" data-name="Trazado 276907" d="M72.233,213.73a44.009,44.009,0,0,1-4.589-.769,19.808,19.808,0,0,1-4.989-1.854,8.168,8.168,0,0,1-3.593-3.993c-2.337-5.437-1.283-14.081,2.312-18.78a13.752,13.752,0,0,1,5.46-4.094c2.842-1.283,5.865-2.058,8.776-3.148a96.431,96.431,0,0,0,12.4-5.367c.89-.484,1.747-1.029,2.628-1.529a2.1,2.1,0,0,1,1.89-.122,2.254,2.254,0,0,1,.669,3.785,21.942,21.942,0,0,1-3.925,2.976,45.893,45.893,0,0,1-6.032,3.037,6.155,6.155,0,0,0-1.024.512,1.029,1.029,0,0,0-.432,1.188,1,1,0,0,0,.96.812c.314.022.63.026.946.027q11.361,0,22.722.005a9.611,9.611,0,0,1,1.413.1,2.542,2.542,0,0,1,2.149,2.36,2.615,2.615,0,0,1-1.829,2.561,4.281,4.281,0,0,1-1.271.138q-8.69,0-17.38,0a4.645,4.645,0,0,0-.877.034,1.116,1.116,0,0,0-.007,2.192,5.21,5.21,0,0,0,.944.04q12.24,0,24.48.005a6.817,6.817,0,0,1,1.209.095,2.446,2.446,0,0,1,2.076,2.464,2.476,2.476,0,0,1-2.041,2.5A6.228,6.228,0,0,1,114,199q-10.448,0-20.9,0a7.182,7.182,0,0,0-.878.029,1.063,1.063,0,0,0-.965,1.051,1.094,1.094,0,0,0,.931,1.153,5.84,5.84,0,0,0,.877.032q8.791,0,17.582,0a2.668,2.668,0,0,1,2.912,2,2.493,2.493,0,0,1-1.954,3.045,8.73,8.73,0,0,1-1.48.106q-10.245.01-20.49.006a8.211,8.211,0,0,0-.945.031,1.054,1.054,0,0,0-.99,1.086,1.089,1.089,0,0,0,.9,1.112,3.3,3.3,0,0,0,.807.042c3.855,0,7.709-.009,11.564.007a2.551,2.551,0,0,1,2.655,3.166,2.849,2.849,0,0,1-1.641,1.862Z" transform="translate(-48.023 -144.448)" fill="#fff"/>
        <path id="Trazado_276908" data-name="Trazado 276908" d="M0,19.346a9.061,9.061,0,0,1,1.3-2.653A6.227,6.227,0,0,1,6.1,14.318c1.193-.049,2.389,0,3.583-.018a.747.747,0,0,1,.786.488c1.851,4.047,5.189,6,9.431,6.691,1.83.3,3.689.159,5.521.4a11.431,11.431,0,0,1,7.878,4.24c.131.167.392.333.266.571s-.408.127-.622.127q-13.287.007-26.573,0A6.2,6.2,0,0,1,.2,22.282c-.054-.171-.132-.335-.2-.5V19.346m5.047-1.269A1.059,1.059,0,0,0,6.14,19.193a1.042,1.042,0,0,0,1.149-1.051,1.09,1.09,0,0,0-1.112-1.181,1.152,1.152,0,0,0-1.131,1.115m8.442,4.915a1.047,1.047,0,0,0-1.128-1.062,1.056,1.056,0,0,0-1.108,1.152,1.119,1.119,0,1,0,2.236-.09M6.148,24.17a1.086,1.086,0,0,0,1.136-1.078,1.045,1.045,0,0,0-1.111-1.151A1.073,1.073,0,0,0,5.051,23.03a1.151,1.151,0,0,0,1.1,1.14" transform="translate(0 -11.873)" fill="#fff"/>
        <path id="Trazado_276909" data-name="Trazado 276909" d="M89.709,14.236q6.219,0,12.439,0c.961,0,.964,0,.965.987q0,5.307,0,10.613c0,.9-.023.834-.9.935A3.094,3.094,0,0,1,98.9,25.12c-2.14-3.272-5.4-4.925-9.226-5.52a37.223,37.223,0,0,0-4.037-.293,12.2,12.2,0,0,1-7.2-2.35,7.6,7.6,0,0,1-1.731-1.88c-.139-.215-.418-.448-.262-.717.135-.232.456-.12.694-.12q6.287-.008,12.574,0" transform="translate(-63.454 -11.805)" fill="#fff"/>
        <path id="Trazado_276910" data-name="Trazado 276910" d="M250.237,8.7c0,2.183,0,4.365,0,6.548a5.662,5.662,0,0,1-.1,1.139,1.228,1.228,0,0,1-1.267,1,1.2,1.2,0,0,1-1.208-.984,4.843,4.843,0,0,1-.108-1.138q-.01-6.582,0-13.163a4.56,4.56,0,0,1,.111-1.137,1.27,1.27,0,0,1,2.461-.012,4.466,4.466,0,0,1,.114,1.136c.01,2.205,0,4.41,0,6.615" transform="translate(-205.609 0.001)" fill="#fff"/>
        <path id="Trazado_276911" data-name="Trazado 276911" d="M316.907,162.532a3.037,3.037,0,0,1-2.877-4.217,20.005,20.005,0,0,1,2.563-4.188c.215-.3.408-.3.625,0a20.027,20.027,0,0,1,2.563,4.188,3.037,3.037,0,0,1-2.874,4.219" transform="translate(-260.642 -127.83)" fill="#fff"/>
        <path id="Trazado_276912" data-name="Trazado 276912" d="M306.14,85.055a3.179,3.179,0,0,1-2.536,3.232,2.953,2.953,0,0,1-3.283-1.8,20.466,20.466,0,0,1-1.143-4.577c-.069-.392.05-.618.5-.542a18.811,18.811,0,0,1,4.764,1.212,2.789,2.789,0,0,1,1.7,2.475" transform="translate(-248.485 -67.572)" fill="#fff"/>
      </g>
    </g>
    <text id="Corrosivo" transform="translate(264.733 3205.785)" fill="#22afd6" font-size="24" font-family="Roboto-Bold, Roboto" font-weight="700"><tspan x="0" y="0">C</tspan><tspan y="0" fill="#12263f">orrosivo</tspan></text>
    <text id="Reactivo" transform="translate(462.267 3205.785)" fill="#22afd6" font-size="24" font-family="Roboto-Bold, Roboto" font-weight="700"><tspan x="0" y="0">R</tspan><tspan y="0" fill="#12263f">eactivo</tspan></text>
    <text id="Explosivo" transform="translate(652.232 3205.785)" fill="#22afd6" font-size="24" font-family="Roboto-Bold, Roboto" font-weight="700"><tspan x="0" y="0">E</tspan><tspan y="0" fill="#12263f">xplosivo</tspan></text>
    <text id="Tóxico" transform="translate(862.5 3205.785)" fill="#22afd6" font-size="24" font-family="Roboto-Bold, Roboto" font-weight="700"><tspan x="0" y="0">T</tspan><tspan y="0" fill="#12263f">óxico</tspan></text>
    <text id="Inflamable" transform="translate(1036.233 3205.785)" fill="#22afd6" font-size="24" font-family="Roboto-Bold, Roboto" font-weight="700"><tspan x="0" y="0">I</tspan><tspan y="0" fill="#12263f">nflamable</tspan></text>
    <text id="Biológico" transform="translate(1236.233 3205.785)" fill="#22afd6" font-size="24" font-family="Roboto-Bold, Roboto" font-weight="700"><tspan x="0" y="0">B</tspan><tspan y="0" fill="#12263f">iológico</tspan></text>
    <g id="Grupo_145940" data-name="Grupo 145940" transform="translate(471.293 3035.645)">
      <g id="Grupo_145939" data-name="Grupo 145939" clip-path="url(#clip-path-8)">
        <path id="Trazado_276913" data-name="Trazado 276913" d="M249.142,182.582a49.975,49.975,0,0,1-1.107,6.283,37.6,37.6,0,0,1-17.063,22.958,3.231,3.231,0,0,1-4.757-1.131q-4.752-7.952-9.445-15.94a3.2,3.2,0,0,1,1.1-4.545,12.5,12.5,0,0,0,6.075-10.633,3.292,3.292,0,0,1,3.493-3.137c4.019.045,8.039.041,12.058.125,1.984.041,3.97.125,5.953.078a3.456,3.456,0,0,1,3.7,2.41Z" transform="translate(-173.729 -141.746)" fill="#fff"/>
        <path id="Trazado_276914" data-name="Trazado 276914" d="M110.115,0A36.881,36.881,0,0,1,127.758,4.67a3.209,3.209,0,0,1,1.417,4.72q-4.517,8.092-9.093,16.15a3.149,3.149,0,0,1-4.424,1.317,12.576,12.576,0,0,0-12.189-.026,3.175,3.175,0,0,1-4.523-1.368q-4.531-8-9.019-16.023a3.206,3.206,0,0,1,1.405-4.775A38.161,38.161,0,0,1,110.115,0" transform="translate(-71.803 0)" fill="#fff"/>
        <path id="Trazado_276915" data-name="Trazado 276915" d="M15.262,176.446c2.182,0,4.364,0,6.546,0a3.321,3.321,0,0,1,3.463,3.33,12.289,12.289,0,0,0,5.742,10.219c2.07,1.379,2.471,3,1.208,5.135q-4.531,7.662-9.073,15.318c-1.246,2.1-3.03,2.553-5.1,1.252A37.473,37.473,0,0,1,.511,185.835,29.268,29.268,0,0,1,0,179.985a3.176,3.176,0,0,1,3.268-3.319c4-.018,7.993-.006,11.99-.006v-.215" transform="translate(0 -141.753)" fill="#fff"/>
        <path id="Trazado_276916" data-name="Trazado 276916" d="M162.7,153.259a9.47,9.47,0,1,1-9.488-9.451,9.4,9.4,0,0,1,9.488,9.451" transform="translate(-115.492 -115.533)" fill="#fff"/>
      </g>
    </g>
    <g id="Grupo_145942" data-name="Grupo 145942" transform="translate(668.433 3037.324)">
      <g id="Grupo_145941" data-name="Grupo 145941" clip-path="url(#clip-path-9)">
        <path id="Trazado_276917" data-name="Trazado 276917" d="M.5,94.482c.484-.4.9-.226,1.356.1q13.209,9.4,26.429,18.785l10.024,7.122c.224.159.45.317.663.489a.6.6,0,0,1,.178.9.607.607,0,0,1-.912.122c-.925-.635-1.838-1.287-2.753-1.937Q18.319,107.865,1.156,95.668c-.224-.159-.437-.332-.656-.5v-.687" transform="translate(-0.408 -76.946)" fill="#fff"/>
        <path id="Trazado_276918" data-name="Trazado 276918" d="M38.259,121.825a.858.858,0,0,1-.482-.168c-.825-.567-1.654-1.156-2.456-1.726l-.3-.212Q17.858,107.525.694,95.329c-.154-.11-.305-.227-.451-.341l-.207-.16L0,94.8v-.775L.033,94a1.073,1.073,0,0,1,1.468.093q11.071,7.88,22.152,15.747l14.378,10.215c.2.139.4.283.591.438a.729.729,0,0,1-.363,1.335M.184,94.71l.172.133c.144.112.294.229.445.336q17.164,12.2,34.33,24.391l.3.212c.8.569,1.63,1.158,2.453,1.724a.523.523,0,0,0,.786-.1c.2-.272.146-.524-.161-.772-.187-.151-.388-.293-.582-.431L23.546,109.987Q12.468,102.117,1.394,94.24c-.455-.324-.8-.449-1.211-.129Z" transform="translate(0 -76.532)" fill="#fff"/>
        <path id="Trazado_276919" data-name="Trazado 276919" d="M.5,305.721c.42-.9.536-.938,1.61-.832q8.226.813,16.454,1.61c1.866.183,3.731.375,5.6.565a.316.316,0,0,1,.244.153c-.808.052-1.614.126-2.422.153-3.477.115-6.954.2-10.431.327q-4.768.168-9.534.4A1.314,1.314,0,0,1,.5,307.232Z" transform="translate(-0.408 -248.884)" fill="#fff"/>
        <path id="Trazado_276920" data-name="Trazado 276920" d="M1.434,307.782a1.361,1.361,0,0,1-1.429-.925L0,306.825l.009-1.551c.445-.95.61-.992,1.7-.884q5.09.5,10.182,1l6.272.613q2.354.23,4.706.474l.891.091a.412.412,0,0,1,.31.191l.094.134L24,306.9c-.254.017-.507.035-.761.054-.545.04-1.109.082-1.665.1q-2.29.076-4.58.142c-1.918.057-3.9.116-5.852.185-3.554.125-6.672.255-9.532.4-.058,0-.118,0-.178,0m-1.251-.974c.227.6.64.824,1.42.786,2.861-.142,5.98-.271,9.535-.4,1.951-.069,3.934-.128,5.852-.185q2.29-.068,4.579-.142c.552-.018,1.114-.06,1.657-.1l.436-.032-.812-.083q-2.352-.24-4.7-.474l-6.272-.613q-5.092-.5-10.182-1c-1.042-.1-1.12-.068-1.509.761Z" transform="translate(0 -248.477)" fill="#fff"/>
        <path id="Trazado_276921" data-name="Trazado 276921" d="M199.653,259a21.6,21.6,0,0,0,5.515-.53,2.8,2.8,0,0,0,2.439-3.02c.013-.251.014-.5.032-.754s.134-.383.4-.332c.112.021.224.049.337.064a3.118,3.118,0,0,0,3.837-2.194c.213-.5.359-1.036.545-1.552.05-.138.032-.361.256-.345.153.011.187.186.238.307a11.735,11.735,0,0,0,1.1,2.13c1.1,1.6,2.121,1.764,3.664.588a12.3,12.3,0,0,0,1.927-1.948c.1-.115.189-.306.375-.238s.129.275.128.424a4.374,4.374,0,0,0,1.457,3.348c1.523,1.441,1.763,3.375,1.782,5.316a11.732,11.732,0,0,1-2.706,8.02c-4.254,4.961-10.889,6.724-17.2,2.662a4.059,4.059,0,0,0-3.014-.8c-1.038.174-1.275-.235-.879-1.222A8.878,8.878,0,0,0,200.6,267a2.171,2.171,0,0,0-2.137-2.718,9.142,9.142,0,0,0-2.527.142c-.147.03-.337.131-.444-.036-.1-.152.031-.307.109-.442a9.077,9.077,0,0,0,1.238-4.514c0-.4.247-.435.545-.434h2.266m16.293,7.78c-.044-.479-.08-.934-.128-1.388-.05-.47-.232-.539-.6-.221a13.293,13.293,0,0,1-5.805,2.8c-.145.034-.354-.012-.384.2-.021.152.129.232.235.314a7.9,7.9,0,0,0,3.339,1.665,2.535,2.535,0,0,0,3.192-2.1c.085-.424.106-.861.154-1.269" transform="translate(-159.578 -204.379)" fill="#fff"/>
        <path id="Trazado_276922" data-name="Trazado 276922" d="M210.61,272.863a13.421,13.421,0,0,1-7.283-2.25,4,4,0,0,0-2.949-.785c-.532.089-.874.029-1.046-.184s-.161-.6.066-1.163c.073-.181.154-.361.232-.535a5.36,5.36,0,0,0,.473-1.369,2.307,2.307,0,0,0-.386-1.832,2.268,2.268,0,0,0-1.668-.781,9.106,9.106,0,0,0-2.5.14c-.026.005-.054.013-.083.021-.133.038-.334.094-.457-.1a.431.431,0,0,1,.07-.478l.036-.06a9.025,9.025,0,0,0,1.226-4.469c0-.526.417-.522.637-.526h2.266a21.5,21.5,0,0,0,5.492-.527,2.705,2.705,0,0,0,2.371-2.935c.005-.1.008-.207.012-.31,0-.149.01-.3.02-.446a.467.467,0,0,1,.157-.356.429.429,0,0,1,.354-.06l.112.023c.073.015.146.031.22.04a3.037,3.037,0,0,0,3.74-2.139c.133-.314.242-.646.347-.967.064-.194.128-.388.2-.58a.787.787,0,0,0,.024-.091c.027-.124.071-.336.325-.314.186.013.25.187.293.3.008.021.016.042.024.062a11.677,11.677,0,0,0,1.094,2.113,2.072,2.072,0,0,0,3.533.567,12.215,12.215,0,0,0,1.913-1.934c.016-.019.031-.04.047-.061.084-.113.211-.284.43-.2s.2.29.193.43c0,.028,0,.055,0,.081a4.288,4.288,0,0,0,1.428,3.281c1.559,1.476,1.792,3.459,1.811,5.382a11.839,11.839,0,0,1-2.728,8.081,13.186,13.186,0,0,1-10.036,4.93m-9.653-3.268a4.492,4.492,0,0,1,2.47.863c5.8,3.732,12.5,2.693,17.08-2.645a11.661,11.661,0,0,0,2.683-7.96c-.019-1.883-.244-3.822-1.754-5.25a4.463,4.463,0,0,1-1.486-3.415c0-.029,0-.061,0-.093.011-.159,0-.217-.073-.244s-.122.011-.22.141c-.018.024-.036.048-.054.069a12.374,12.374,0,0,1-1.942,1.962,2.246,2.246,0,0,1-3.8-.61,11.85,11.85,0,0,1-1.112-2.146c-.009-.022-.018-.045-.027-.069-.046-.125-.075-.178-.134-.183-.08,0-.1.02-.133.17a.943.943,0,0,1-.03.114c-.068.19-.132.383-.195.575-.107.325-.217.661-.352.982-.8,1.908-1.871,2.519-3.933,2.249-.078-.01-.156-.026-.234-.043l-.108-.022a.257.257,0,0,0-.208.025.3.3,0,0,0-.086.223c-.01.146-.015.293-.019.439,0,.1-.007.209-.012.313a2.887,2.887,0,0,1-2.508,3.1,21.614,21.614,0,0,1-5.538.533h-2.269c-.316,0-.449.048-.451.343a9.2,9.2,0,0,1-1.25,4.559c-.012.021-.025.043-.039.065-.077.126-.121.207-.072.283s.1.063.252.02c.033-.009.065-.018.1-.024a9.259,9.259,0,0,1,2.553-.144,2.446,2.446,0,0,1,1.8.85,2.484,2.484,0,0,1,.423,1.974,5.5,5.5,0,0,1-.487,1.417c-.078.172-.158.35-.229.528-.195.485-.226.815-.094.979s.418.194.872.118a3.676,3.676,0,0,1,.609-.052m11.908.3a3.755,3.755,0,0,1-.691-.067,8.03,8.03,0,0,1-3.378-1.682l-.045-.033c-.106-.076-.251-.181-.225-.366.034-.235.236-.254.356-.265a.762.762,0,0,0,.1-.013,13.155,13.155,0,0,0,5.766-2.781c.138-.119.342-.269.518-.2s.217.307.235.48c.033.313.061.627.089.948l.04.451v.009c-.015.126-.027.255-.039.386a8.556,8.556,0,0,1-.116.89,2.555,2.555,0,0,1-2.608,2.243m2.3-5.241c-.045,0-.135.028-.3.172a13.33,13.33,0,0,1-5.845,2.821.919.919,0,0,1-.123.017c-.143.013-.18.027-.191.108s.05.119.15.192l.049.036a7.866,7.866,0,0,0,3.3,1.648,2.446,2.446,0,0,0,3.085-2.032,8.432,8.432,0,0,0,.113-.871c.012-.129.024-.256.039-.38l-.039-.432c-.028-.32-.056-.633-.089-.945-.028-.265-.093-.319-.12-.329a.075.075,0,0,0-.027,0" transform="translate(-159.169 -203.969)" fill="#fff"/>
        <path id="Trazado_276923" data-name="Trazado 276923" d="M115.477,41.906q-1.7-2.574-3.39-5.148-8.113-12.372-16.223-24.746c-.59-.9-1.181-1.8-1.763-2.7a1.279,1.279,0,0,1,.191-1.9A3.779,3.779,0,0,1,96.665,6.3,1.142,1.142,0,0,1,97.9,6.98c.429.834.867,1.664,1.293,2.5q8.023,15.751,16.041,31.5a1.238,1.238,0,0,1,.247.922" transform="translate(-76.555 -5.133)" fill="#fff"/>
        <path id="Trazado_276924" data-name="Trazado 276924" d="M115.107,41.725l-1.171-1.778q-1.169-1.773-2.334-3.547-7.58-11.559-15.158-23.121l-1.323-2.018c-.5-.769-1.008-1.537-1.506-2.31a1.366,1.366,0,0,1,.2-2.008A3.847,3.847,0,0,1,96.245,5.8a1.236,1.236,0,0,1,1.324.732q.265.515.533,1.028c.255.49.51.98.76,1.472q8.023,15.751,16.041,31.5c.022.043.045.086.069.129a1.121,1.121,0,0,1,.186.857ZM96.434,5.971a1.369,1.369,0,0,0-.166.01A3.671,3.671,0,0,0,93.95,7.07a1.193,1.193,0,0,0-.18,1.782c.5.773,1,1.541,1.5,2.309L96.6,13.179q7.578,11.561,15.158,23.12,1.164,1.775,2.334,3.547L115,41.221a1.313,1.313,0,0,0-.185-.47c-.024-.044-.049-.089-.071-.133Q106.723,24.864,98.7,9.114c-.25-.492-.505-.982-.76-1.471q-.267-.514-.533-1.028a1.051,1.051,0,0,0-.972-.644" transform="translate(-76.146 -4.725)" fill="#fff"/>
        <path id="Trazado_276925" data-name="Trazado 276925" d="M35.68,169.983c-1.951-.867-3.745-1.661-5.537-2.459q-12.476-5.556-24.952-11.112c-1.548-.689-1.759-1.316-.9-2.805a3.687,3.687,0,0,1,.351-.507c.619-.747,1.042-.819,1.893-.323q6.377,3.712,12.752,7.426,7.858,4.577,15.715,9.158a1.262,1.262,0,0,1,.675.622" transform="translate(-3.095 -124.472)" fill="#fff"/>
        <path id="Trazado_276926" data-name="Trazado 276926" d="M35.463,169.757l-2.1-.933c-1.254-.557-2.461-1.092-3.666-1.629l-8.189-3.648q-8.381-3.733-16.763-7.464c-.841-.374-1.26-.72-1.4-1.157a2.264,2.264,0,0,1,.463-1.778,3.769,3.769,0,0,1,.36-.519,1.3,1.3,0,0,1,2.009-.344q6.053,3.523,12.1,7.048l1.578.919q7.394,4.307,14.786,8.617c.033.019.067.037.1.056a1.218,1.218,0,0,1,.608.6ZM5.236,152.138c-.321,0-.588.2-.93.609a3.6,3.6,0,0,0-.343.494c-.438.757-.572,1.244-.447,1.629s.513.695,1.3,1.046q8.383,3.73,16.763,7.464l8.188,3.648c1.206.537,2.412,1.072,3.666,1.629l1.595.708a1.106,1.106,0,0,0-.373-.276c-.037-.02-.074-.039-.109-.06q-7.391-4.312-14.785-8.617l-1.578-.919-12.1-7.048a1.772,1.772,0,0,0-.846-.306" transform="translate(-2.684 -124.061)" fill="#fff"/>
        <path id="Trazado_276927" data-name="Trazado 276927" d="M224.079,34.605q-.56-2.606-1.119-5.212Q220.1,15.935,217.237,2.477c-.247-1.163-.084-1.454,1.06-1.788a1.572,1.572,0,0,1,.2-.058c1.4-.211,2.267-.423,2.439,1.617.279,3.3.656,6.6,1,9.9.341,3.275.7,6.548,1.039,9.823.3,2.843.587,5.686.882,8.529.113,1.092.234,2.182.353,3.273a1.013,1.013,0,0,1-.129.837" transform="translate(-177.276 -0.409)" fill="#fff"/>
        <path id="Trazado_276928" data-name="Trazado 276928" d="M223.633,34.412l-.4-1.843q-.384-1.782-.765-3.565L220.29,18.74q-1.77-8.327-3.541-16.653c-.258-1.213-.059-1.55,1.124-1.9l.063-.021a.85.85,0,0,1,.147-.04l.151-.023c.768-.118,1.375-.211,1.8.126a2.191,2.191,0,0,1,.591,1.6c.208,2.462.475,4.96.733,7.377q.135,1.259.267,2.517.273,2.62.554,5.238.244,2.292.485,4.584.257,2.45.508,4.9.187,1.814.375,3.627.14,1.345.289,2.69l.074.67a1,1,0,0,1-.157.815ZM219.225.183a6.779,6.779,0,0,0-.964.105l-.152.023A.657.657,0,0,0,218,.344l-.071.023c-1.1.32-1.235.556-1,1.681Q218.7,10.375,220.47,18.7l2.182,10.263q.379,1.783.764,3.564l.3,1.4a1.075,1.075,0,0,0,.011-.473l-.074-.673q-.147-1.345-.289-2.691-.189-1.814-.375-3.628-.252-2.451-.508-4.9-.24-2.292-.485-4.584-.279-2.619-.554-5.239-.131-1.258-.267-2.516c-.258-2.418-.526-4.917-.734-7.381a2.043,2.043,0,0,0-.522-1.469,1.086,1.086,0,0,0-.7-.193" transform="translate(-176.877 0)" fill="#fff"/>
        <path id="Trazado_276929" data-name="Trazado 276929" d="M107.586,115.28a.636.636,0,0,1-.4.592.629.629,0,0,1-.743-.2q-1.146-1.231-2.281-2.472-6.728-7.383-13.451-14.769-3.374-3.705-6.745-7.414a2.6,2.6,0,0,1-.336-.431.558.558,0,0,1,.147-.74.536.536,0,0,1,.7-.071,2.876,2.876,0,0,1,.5.466q10.39,11.383,20.777,22.769l1.48,1.624a1.131,1.131,0,0,1,.357.649" transform="translate(-68.212 -73.213)" fill="#fff"/>
        <path id="Trazado_276930" data-name="Trazado 276930" d="M106.537,115.606a.778.778,0,0,1-.569-.283c-.632-.679-1.462-1.573-2.282-2.473q-6.727-7.383-13.451-14.769-3.374-3.705-6.745-7.414a2.661,2.661,0,0,1-.347-.446.645.645,0,0,1,.165-.854.626.626,0,0,1,.809-.08,2.892,2.892,0,0,1,.505.472q9.459,10.363,18.9,20.711l1.885,2.066,1.48,1.624a1.209,1.209,0,0,1,.381.7v.014a.727.727,0,0,1-.453.67.712.712,0,0,1-.277.059M83.765,89.359a.5.5,0,0,0-.333.144.465.465,0,0,0-.13.627,2.51,2.51,0,0,0,.325.415q3.37,3.709,6.745,7.414,6.725,7.386,13.451,14.769c.819.9,1.649,1.793,2.28,2.471a.533.533,0,0,0,.64.18.545.545,0,0,0,.341-.506,1.053,1.053,0,0,0-.333-.589l-1.48-1.624-1.885-2.066q-9.445-10.352-18.892-20.7a2.815,2.815,0,0,0-.48-.452.447.447,0,0,0-.25-.081" transform="translate(-67.801 -72.804)" fill="#fff"/>
        <path id="Trazado_276931" data-name="Trazado 276931" d="M320.751,32.189c0-1.208-.072-2.422.016-3.624.14-1.92.1-3.842.187-5.763.177-4.137.222-8.28.338-12.42.057-2.012.145-4.024.236-6.035.036-.8.433-1.09,1.284-.991,1.008.117,1.306.442,1.213,1.261-.492,4.293-.97,8.586-1.463,12.879q-.723,6.3-1.461,12.6c-.081.7-.15,1.4-.225,2.1l-.126-.01" transform="translate(-261.846 -2.725)" fill="#fff"/>
        <path id="Trazado_276932" data-name="Trazado 276932" d="M320.55,31.888l-.3-.022v-.085c0-.374-.007-.748-.014-1.122-.015-.823-.031-1.675.03-2.509.084-1.146.105-2.314.126-3.443.014-.759.028-1.544.061-2.316.115-2.682.175-5.411.233-8.05.032-1.432.064-2.913.1-4.369.057-2.031.148-4.1.236-6.036a1.157,1.157,0,0,1,.34-.876,1.331,1.331,0,0,1,1.047-.2c1.043.121,1.393.49,1.293,1.363q-.361,3.152-.716,6.305-.371,3.287-.747,6.573-.443,3.861-.894,7.721-.284,2.441-.567,4.882c-.055.478-.105.957-.155,1.436Zm1.557-28.867a.932.932,0,0,0-.621.178.99.99,0,0,0-.275.744c-.088,1.94-.179,4-.236,6.033-.041,1.456-.074,2.936-.105,4.368-.058,2.64-.118,5.371-.233,8.054-.033.77-.047,1.554-.061,2.312-.021,1.132-.042,2.3-.126,3.453-.06.826-.045,1.673-.03,2.492,0,.206.008.411.01.617l.016-.154c.05-.48.1-.959.155-1.438q.282-2.441.567-4.882.449-3.86.894-7.721.377-3.286.747-6.573.356-3.153.716-6.306c.088-.768-.187-1.05-1.132-1.159a2.493,2.493,0,0,0-.286-.018" transform="translate(-261.437 -2.317)" fill="#fff"/>
        <path id="Trazado_276933" data-name="Trazado 276933" d="M295.2,105.412c.1-5.606.167-11.213.3-16.818.037-1.533.063-3.065.092-4.6a3.53,3.53,0,0,1,.018-.411c.057-.407.254-.717.7-.688.412.027.583.341.578.724-.018,1.51-.047,3.021-.076,4.531,0,.251-.038.5-.041.754-.062,4.165-.082,8.332-.2,12.5-.061,2.2-.07,4.393-.115,6.59a3.746,3.746,0,0,1-.036.547c-.067.392-.241.734-.7.7s-.566-.393-.565-.8c0-1.007,0-2.015,0-3.022h.033" transform="translate(-240.98 -67.677)" fill="#fff"/>
        <path id="Trazado_276934" data-name="Trazado 276934" d="M295.392,108.921q-.037,0-.077,0c-.433-.035-.651-.335-.649-.892q0-1.081,0-2.163v-.951h.034q.038-2.251.073-4.5c.064-4.007.129-8.151.228-12.226.028-1.145.049-2.29.07-3.435L295.1,83.5a2.638,2.638,0,0,1,.018-.336c.073-.524.358-.795.8-.767a.711.711,0,0,1,.664.817c-.017,1.424-.044,2.871-.071,4.271l0,.261c0,.125-.012.25-.021.375s-.019.252-.02.379q-.029,1.91-.049,3.821c-.034,2.844-.068,5.784-.148,8.676-.036,1.3-.054,2.617-.072,3.892-.012.9-.025,1.8-.043,2.7v.042a3.463,3.463,0,0,1-.036.519c-.088.515-.329.776-.718.776m-.541-3.824v.766q0,1.082,0,2.163c0,.462.147.681.481.708.208.017.5-.028.6-.62a3.36,3.36,0,0,0,.033-.491v-.043c.019-.9.031-1.8.043-2.7.018-1.276.036-2.6.072-3.895.08-2.89.115-5.83.148-8.673q.023-1.911.049-3.821c0-.13.011-.26.021-.389s.018-.243.02-.365l0-.261c.027-1.4.054-2.846.071-4.269,0-.223-.058-.6-.493-.631-.339-.021-.544.183-.6.609a2.5,2.5,0,0,0-.016.313l-.023,1.25c-.021,1.145-.043,2.291-.07,3.436-.1,4.074-.165,8.217-.229,12.224q-.036,2.3-.075,4.593l0,.091Z" transform="translate(-240.572 -67.269)" fill="#fff"/>
        <path id="Trazado_276935" data-name="Trazado 276935" d="M205.652,121.437c0,.372-.116.608-.422.7a.565.565,0,0,1-.714-.257,7.007,7.007,0,0,1-.374-.882q-3.619-9.384-7.232-18.77c-.182-.473-.561-1.068.162-1.352s.845.406,1.027.88q3.67,9.512,7.33,19.027c.09.234.163.474.223.651" transform="translate(-160.546 -82.306)" fill="#fff"/>
        <path id="Trazado_276936" data-name="Trazado 276936" d="M204.6,121.859a.628.628,0,0,1-.568-.341,5.655,5.655,0,0,1-.321-.739l-.059-.154q-3.619-9.384-7.232-18.77c-.023-.061-.05-.123-.077-.187a1.226,1.226,0,0,1-.147-.907.881.881,0,0,1,1.018-.4c.277.127.4.468.5.768.022.064.044.127.067.187q3.67,9.512,7.33,19.027c.064.167.119.334.168.483.02.061.039.119.057.171l.005.015v.016a.732.732,0,0,1-.487.789.861.861,0,0,1-.254.041M196.971,100.5a.756.756,0,0,0-.273.06.552.552,0,0,0-.337.276,1.1,1.1,0,0,0,.147.764c.028.066.055.131.079.193q3.61,9.387,7.232,18.77l.059.155a5.519,5.519,0,0,0,.31.716.481.481,0,0,0,.607.213c.243-.075.351-.255.357-.6-.017-.049-.034-.1-.052-.158-.048-.146-.1-.312-.165-.474q-3.662-9.515-7.33-19.027c-.024-.062-.046-.127-.069-.193-.1-.279-.2-.567-.4-.661a.383.383,0,0,0-.162-.034" transform="translate(-160.139 -81.896)" fill="#fff"/>
        <path id="Trazado_276937" data-name="Trazado 276937" d="M269.136,68.362c0,.067,0,.3,0,.524-.007.429-.124.811-.632.806-.489-.005-.641-.373-.663-.8-.047-.914-.1-1.828-.131-2.742q-.294-7.374-.584-14.748c-.014-.342-.084-.685-.068-1.025.02-.4.2-.721.673-.7.429.019.573.307.594.7.076,1.439.173,2.878.233,4.317.116,2.812.2,5.626.319,8.439.069,1.691.167,3.382.26,5.235" transform="translate(-218.029 -40.554)" fill="#fff"/>
        <path id="Trazado_276938" data-name="Trazado 276938" d="M268.105,69.376h-.011c-.323,0-.716-.16-.754-.89l-.012-.232c-.042-.823-.086-1.674-.12-2.511q-.144-3.609-.286-7.218-.148-3.765-.3-7.531c-.005-.132-.02-.269-.034-.4a4.136,4.136,0,0,1-.034-.633c.026-.521.306-.808.769-.788.426.019.655.282.682.784q.041.778.088,1.556c.052.905.107,1.841.145,2.762q.089,2.155.163,4.31.075,2.064.156,4.129c.047,1.158.108,2.307.171,3.524.029.557.059,1.126.088,1.71v.072c0,.1,0,.281,0,.458,0,.222-.015.9-.714.9m-.825-20.02c-.338,0-.52.206-.54.614a3.935,3.935,0,0,0,.033.6c.014.135.029.274.034.412q.15,3.765.3,7.531.142,3.609.286,7.217c.033.836.077,1.687.12,2.509l.012.232c.033.637.342.713.572.716.377,0,.531-.21.54-.716,0-.176,0-.353,0-.454v-.066c-.029-.584-.059-1.151-.088-1.708-.064-1.218-.124-2.368-.171-3.526q-.084-2.064-.156-4.13-.078-2.155-.163-4.309c-.038-.92-.092-1.855-.145-2.759-.03-.519-.06-1.038-.088-1.557-.021-.408-.178-.6-.507-.611h-.038" transform="translate(-217.621 -40.146)" fill="#fff"/>
        <path id="Trazado_276939" data-name="Trazado 276939" d="M34.012,66.1a2.221,2.221,0,0,1,1,.216,7.738,7.738,0,0,1,4.035,4.024,3.4,3.4,0,0,1,.2.654c.224.983-.3,1.536-1.285,1.314a7.55,7.55,0,0,1-4.831-4.7c-.276-.97.06-1.508.879-1.512" transform="translate(-26.974 -53.961)" fill="#fff"/>
        <path id="Trazado_276940" data-name="Trazado 276940" d="M37.953,72.037a1.927,1.927,0,0,1-.421-.05,6.564,6.564,0,0,1-3.2-2,6.5,6.5,0,0,1-1.694-2.764,1.421,1.421,0,0,1,.088-1.265A1.038,1.038,0,0,1,33.6,65.6a2.314,2.314,0,0,1,1.039.224,7.858,7.858,0,0,1,4.082,4.07,3.5,3.5,0,0,1,.209.672,1.259,1.259,0,0,1-.222,1.2,1.029,1.029,0,0,1-.752.273m-4.272-6.259-.077,0h0a.868.868,0,0,0-.733.291,1.275,1.275,0,0,0-.058,1.1,6.326,6.326,0,0,0,1.649,2.686,6.232,6.232,0,0,0,3.114,1.947,1.059,1.059,0,0,0,1-.174,1.089,1.089,0,0,0,.173-1.031,3.346,3.346,0,0,0-.2-.637,7.679,7.679,0,0,0-3.989-3.978,2.162,2.162,0,0,0-.881-.21" transform="translate(-26.561 -53.553)" fill="#fff"/>
        <path id="Trazado_276941" data-name="Trazado 276941" d="M335.432,166.86c.031-.143.068-.345.117-.545q1.621-6.494,3.245-12.988c.044-.178.09-.355.147-.529.127-.389.359-.669.807-.545s.526.485.43.879c-.336,1.379-.687,2.753-1.032,4.13q-1.179,4.694-2.36,9.388a3.847,3.847,0,0,1-.158.525.586.586,0,0,1-.708.4c-.343-.071-.484-.316-.487-.714" transform="translate(-273.854 -124.278)" fill="#fff"/>
        <path id="Trazado_276942" data-name="Trazado 276942" d="M335.668,167.278a.874.874,0,0,1-.175-.019c-.373-.078-.557-.341-.56-.8v-.01l.031-.149c.025-.123.054-.266.09-.408q1.621-6.495,3.245-12.988c.043-.173.09-.357.149-.535.213-.651.617-.688.919-.6a.729.729,0,0,1,.495.989c-.251,1.033-.516,2.081-.771,3.094l-.261,1.036q-1.179,4.694-2.36,9.388a3.916,3.916,0,0,1-.162.537.673.673,0,0,1-.636.473m-.552-.814c0,.367.133.557.414.616a.493.493,0,0,0,.6-.344,3.733,3.733,0,0,0,.151-.5q1.186-4.71,2.363-9.4l.261-1.036c.256-1.013.52-2.06.771-3.093.1-.416-.022-.674-.365-.769s-.557.061-.7.485c-.057.173-.1.353-.145.523q-1.624,6.494-3.245,12.988c-.035.139-.063.28-.088.4Z" transform="translate(-273.446 -123.874)" fill="#fff"/>
        <path id="Trazado_276943" data-name="Trazado 276943" d="M22.079,276.241c-.547-.118-1.173-.254-1.8-.388L12.093,274.1a4.061,4.061,0,0,1-.468-.108c-.335-.115-.573-.335-.505-.712a.61.61,0,0,1,.759-.525c.631.105,1.255.254,1.881.387q4.028.856,8.054,1.716a3.862,3.862,0,0,1,.595.161.6.6,0,0,1,.446.685c-.067.363-.325.534-.776.537" transform="translate(-9.069 -222.673)" fill="#fff"/>
        <path id="Trazado_276944" data-name="Trazado 276944" d="M21.662,275.925,21.1,275.8l-1.251-.27-8.187-1.752-.125-.025a2.608,2.608,0,0,1-.353-.086.723.723,0,1,1,.3-1.415c.47.078.942.182,1.4.282l.487.106q4.027.856,8.054,1.716a3.9,3.9,0,0,1,.609.165.688.688,0,0,1,.5.787c-.074.4-.365.609-.866.612Zm-10.336-3.5a.508.508,0,0,0-.523.462c-.052.285.1.49.445.609a2.429,2.429,0,0,0,.329.079l.129.026,8.187,1.752,1.251.27.538.116c.4,0,.619-.152.676-.462a.516.516,0,0,0-.389-.583,3.781,3.781,0,0,0-.581-.157q-4.027-.861-8.054-1.716l-.488-.106c-.454-.1-.924-.2-1.389-.28a.793.793,0,0,0-.13-.011" transform="translate(-8.661 -222.265)" fill="#fff"/>
        <path id="Trazado_276945" data-name="Trazado 276945" d="M50.238,237.784a10.955,10.955,0,0,1-5.66-1.906c-.251-.185-.607-.378-.522-.735s.507-.383.8-.392a9.858,9.858,0,0,1,6.4,1.995c.192.144.428.332.335.621-.08.248-.344.271-.569.307-.27.043-.542.077-.788.111" transform="translate(-35.958 -191.651)" fill="#fff"/>
        <path id="Trazado_276946" data-name="Trazado 276946" d="M49.83,237.468h-.011a10.858,10.858,0,0,1-5.706-1.924l-.094-.067c-.245-.173-.551-.389-.463-.763.1-.44.6-.454.89-.463a9.986,9.986,0,0,1,6.459,2.013c.18.136.483.363.367.722-.092.285-.371.328-.6.362l-.047.007c-.191.03-.383.056-.566.081Zm-5.038-3.039c-.113,0-.226,0-.34.005-.34.01-.651.042-.717.322-.055.235.119.379.39.57l.1.07a10.677,10.677,0,0,0,5.6,1.888l.214-.029c.182-.024.372-.05.562-.08l.048-.008c.236-.036.4-.072.448-.237.07-.217-.1-.364-.3-.52a9.758,9.758,0,0,0-6-1.982" transform="translate(-35.548 -191.243)" fill="#fff"/>
        <path id="Trazado_276947" data-name="Trazado 276947" d="M101.127,264.177c-.374-.108-.791-.228-1.208-.35l-6.583-1.933c-.132-.039-.262-.081-.394-.119-.427-.123-.715-.369-.576-.845.146-.5.559-.484.957-.374.772.212,1.537.448,2.305.673q2.6.761,5.2,1.524a4.075,4.075,0,0,1,.706.261.555.555,0,0,1,.314.687.668.668,0,0,1-.723.477" transform="translate(-75.382 -212.672)" fill="#fff"/>
        <path id="Trazado_276948" data-name="Trazado 276948" d="M100.708,263.857l-.384-.111-.838-.243L92.9,261.57l-.18-.055c-.071-.022-.142-.044-.214-.065a.945.945,0,0,1-.6-.406.707.707,0,0,1-.035-.553c.2-.677.854-.5,1.07-.437.531.146,1.066.305,1.585.459l.722.214,1.476.432q1.863.545,3.726,1.092a4.139,4.139,0,0,1,.722.267.649.649,0,0,1,.361.794.753.753,0,0,1-.809.543Zm-8.183-3.684a.451.451,0,0,0-.477.37.524.524,0,0,0,.02.414.776.776,0,0,0,.493.318l.218.066.177.054,6.583,1.933.837.243.356.1c.353-.012.545-.139.623-.41a.465.465,0,0,0-.268-.58,3.994,3.994,0,0,0-.69-.255q-1.861-.549-3.725-1.092L95.2,260.9l-.723-.214c-.517-.154-1.052-.313-1.581-.458a1.417,1.417,0,0,0-.368-.059" transform="translate(-74.974 -212.26)" fill="#fff"/>
        <path id="Trazado_276949" data-name="Trazado 276949" d="M171.6,357.592c-.18.019-.267-.1-.345-.205-.453-.633-.9-1.27-1.351-1.9-.2-.282-.1-.459.188-.587.92-.409,1.841-.816,2.756-1.234a.437.437,0,0,1,.63.207c.446.72.9,1.434,1.35,2.152.193.309.173.517-.258.529a4.408,4.408,0,0,0-2.8.952.869.869,0,0,1-.167.09" transform="translate(-138.626 -288.688)" fill="#fff"/>
        <path id="Trazado_276950" data-name="Trazado 276950" d="M171.149,357.274a.465.465,0,0,1-.38-.246q-.412-.576-.819-1.154l-.531-.75a.484.484,0,0,1-.109-.407.528.528,0,0,1,.335-.317l.468-.208c.751-.334,1.528-.678,2.288-1.026a.524.524,0,0,1,.746.242q.391.631.788,1.259.281.446.561.893c.131.209.163.368.1.488s-.2.175-.432.182a4.314,4.314,0,0,0-2.747.931.6.6,0,0,1-.14.08l-.043.02-.033.01-.049,0m1.531-3.994a.5.5,0,0,0-.205.054c-.761.348-1.538.693-2.289,1.027l-.468.208c-.135.06-.213.126-.232.2a.319.319,0,0,0,.082.252q.267.374.532.75.408.577.819,1.153c.077.108.134.176.245.169l.036-.016a.435.435,0,0,0,.1-.054,4.492,4.492,0,0,1,2.86-.974c.15,0,.248-.034.276-.085.017-.031.027-.112-.093-.3q-.279-.447-.561-.893-.4-.629-.789-1.26c-.1-.153-.189-.226-.309-.226" transform="translate(-138.217 -288.276)" fill="#fff"/>
        <path id="Trazado_276951" data-name="Trazado 276951" d="M185.88,69.829c-.02.137-.034.344-.08.544-.195.835-.707,1.023-1.406.525a4.6,4.6,0,0,1-1.487-4.076c.213-.8.8-1.008,1.441-.466a4.573,4.573,0,0,1,1.533,3.472" transform="translate(-149.267 -53.928)" fill="#fff"/>
        <path id="Trazado_276952" data-name="Trazado 276952" d="M184.669,70.854a1.317,1.317,0,0,1-.739-.291,4.678,4.678,0,0,1-1.523-4.174,1.055,1.055,0,0,1,.63-.8,1.022,1.022,0,0,1,.959.292,4.614,4.614,0,0,1,1.566,3.537v.018c-.006.039-.011.083-.016.132a3.675,3.675,0,0,1-.066.42,1.052,1.052,0,0,1-.568.826.679.679,0,0,1-.242.043m-1.415-5.117a.534.534,0,0,0-.162.024.884.884,0,0,0-.508.676,4.535,4.535,0,0,0,1.452,3.977.707.707,0,0,0,1.264-.471,3.51,3.51,0,0,0,.062-.4c.006-.047.01-.09.016-.128a4.439,4.439,0,0,0-1.5-3.4,1.006,1.006,0,0,0-.623-.281" transform="translate(-148.857 -53.519)" fill="#fff"/>
        <path id="Trazado_276953" data-name="Trazado 276953" d="M133.679,335.883a.609.609,0,0,1-.7-.51c-.071-.413.2-.64.556-.743.987-.282,1.979-.549,2.97-.819,1.167-.318,2.335-.631,3.5-.948a.639.639,0,0,1,.88.416.589.589,0,0,1-.465.786c-2.175.61-4.356,1.2-6.535,1.8a1.171,1.171,0,0,1-.2.021" transform="translate(-108.554 -271.724)" fill="#fff"/>
        <path id="Trazado_276954" data-name="Trazado 276954" d="M133.233,335.564a.692.692,0,0,1-.757-.586c-.071-.411.15-.712.622-.847.835-.238,1.687-.47,2.51-.694l.461-.125,1.789-.484,1.714-.464a.724.724,0,0,1,.991.476.677.677,0,0,1-.03.538.787.787,0,0,1-.5.364c-1.753.492-3.539.979-5.266,1.45l-1.27.346a.751.751,0,0,1-.162.021l-.058,0h-.045m6.646-3.062a1,1,0,0,0-.26.039l-1.714.464-1.788.484-.461.125c-.823.224-1.674.455-2.508.693-.38.108-.546.323-.491.639a.516.516,0,0,0,.608.433l.062,0a.6.6,0,0,0,.123-.014l1.27-.346c1.727-.471,3.512-.958,5.265-1.45a.606.606,0,0,0,.385-.274.491.491,0,0,0,.018-.4.5.5,0,0,0-.508-.394" transform="translate(-108.145 -271.313)" fill="#fff"/>
        <path id="Trazado_276955" data-name="Trazado 276955" d="M285.161,17.541a4.421,4.421,0,0,1-.46,2.268c-.29.528-.629.541-.879,0a5.109,5.109,0,0,1,.015-4.493c.239-.506.567-.492.841,0a4.171,4.171,0,0,1,.483,2.23" transform="translate(-231.3 -12.197)" fill="#fff"/>
        <path id="Trazado_276956" data-name="Trazado 276956" d="M283.829,19.894h-.012c-.131,0-.323-.088-.493-.455a5.188,5.188,0,0,1,.016-4.571c.163-.345.349-.422.476-.427s.33.064.528.417a4.244,4.244,0,0,1,.494,2.277,4.464,4.464,0,0,1-.472,2.312c-.2.368-.4.448-.538.448m0-5.27h-.006c-.108,0-.22.118-.316.322a5.011,5.011,0,0,0-.015,4.416c.1.221.22.345.332.349s.255-.121.383-.353a4.3,4.3,0,0,0,.449-2.223v0a4.061,4.061,0,0,0-.471-2.182c-.118-.209-.244-.324-.356-.324" transform="translate(-230.885 -11.789)" fill="#fff"/>
        <path id="Trazado_276957" data-name="Trazado 276957" d="M361.018,257.044a.638.638,0,0,1-.573-.357.548.548,0,0,1,.1-.693c1.043-.915,2.094-1.823,3.161-2.711a.574.574,0,0,1,.81.051.545.545,0,0,1,.047.8,34.1,34.1,0,0,1-3.317,2.832.694.694,0,0,1-.231.075" transform="translate(-294.212 -206.668)" fill="#fff"/>
        <path id="Trazado_276958" data-name="Trazado 276958" d="M360.623,256.732h-.017a.726.726,0,0,1-.649-.408.641.641,0,0,1,.125-.8c1.2-1.053,2.2-1.915,3.163-2.712a.668.668,0,0,1,.934.057.725.725,0,0,1,.229.512.583.583,0,0,1-.183.422,34.382,34.382,0,0,1-3.326,2.84.5.5,0,0,1-.206.077c-.02,0-.038.008-.053.012Zm3.056-3.907a.494.494,0,0,0-.317.123c-.956.8-1.96,1.658-3.159,2.709a.46.46,0,0,0-.082.583.545.545,0,0,0,.483.306l.052-.012a.358.358,0,0,0,.132-.044,34.166,34.166,0,0,0,3.308-2.824.4.4,0,0,0,.128-.291.543.543,0,0,0-.175-.381.525.525,0,0,0-.37-.169" transform="translate(-293.806 -206.264)" fill="#fff"/>
        <path id="Trazado_276959" data-name="Trazado 276959" d="M156.395,274.421c.019-.132-.065-.286.1-.366.121-.059.217.036.3.106q1.236,1.027,2.468,2.058c.29.242.277.44-.068.613-.611.306-1.222.613-1.828.93-.348.183-.5.067-.545-.3-.137-1.015-.287-2.028-.432-3.042" transform="translate(-127.68 -223.729)" fill="#fff"/>
        <path id="Trazado_276960" data-name="Trazado 276960" d="M156.691,277.528a.307.307,0,0,1-.143-.033.543.543,0,0,1-.22-.43c-.1-.73-.2-1.459-.309-2.188l-.124-.865,0-.013a.482.482,0,0,0,0-.1.3.3,0,0,1,.155-.338.34.34,0,0,1,.382.1l.019.016q.706.586,1.409,1.175l1.059.883c.175.145.252.281.237.416s-.121.249-.322.349c-.565.283-1.206.6-1.826.929a.7.7,0,0,1-.315.1m-.611-3.519.121.84c.105.73.211,1.459.309,2.19.022.163.063.261.122.292s.2-.013.289-.062c.621-.326,1.263-.647,1.829-.931.138-.069.215-.14.222-.206s-.052-.154-.172-.254L157.742,275q-.7-.588-1.409-1.174l-.02-.017c-.085-.072-.131-.1-.183-.077s-.06.053-.052.158a.692.692,0,0,1,0,.124" transform="translate(-127.273 -223.319)" fill="#fff"/>
        <path id="Trazado_276961" data-name="Trazado 276961" d="M355.489,103.283a4.177,4.177,0,0,1-1.441,2.751c-.191.16-.418.34-.682.21a.605.605,0,0,1-.259-.663,4.342,4.342,0,0,1,1.371-2.838c.2-.182.437-.406.727-.291.35.14.239.5.284.83" transform="translate(-288.278 -83.619)" fill="#fff"/>
        <path id="Trazado_276962" data-name="Trazado 276962" d="M353.142,105.972a.5.5,0,0,1-.223-.054c-.17-.084-.361-.283-.31-.755a4.446,4.446,0,0,1,1.4-2.9c.209-.192.483-.444.823-.308.318.127.323.411.328.661a2.1,2.1,0,0,0,.014.241l0,.012,0,.013A4.28,4.28,0,0,1,353.7,105.7a.929.929,0,0,1-.558.276m1.495-3.867a.832.832,0,0,0-.5.29,4.275,4.275,0,0,0-1.35,2.788c-.033.3.036.485.209.57.2.1.375-.026.582-.2a4.045,4.045,0,0,0,1.407-2.68,2.3,2.3,0,0,1-.014-.25c0-.263-.017-.416-.212-.494a.338.338,0,0,0-.126-.025" transform="translate(-287.87 -83.21)" fill="#fff"/>
        <path id="Trazado_276963" data-name="Trazado 276963" d="M357.382,230.656c.081-.636.18-1.315.252-2,.05-.474.259-.474.58-.234.532.4,1.057.8,1.6,1.188.433.307.271.485-.1.661-.58.273-1.151.565-1.733.834-.554.256-.627.2-.6-.452" transform="translate(-291.77 -186.362)" fill="#fff"/>
        <path id="Trazado_276964" data-name="Trazado 276964" d="M357.144,230.934a.239.239,0,0,1-.138-.039c-.128-.086-.142-.279-.125-.651v-.007c.024-.187.05-.379.075-.573.061-.463.125-.942.176-1.422.027-.253.1-.4.224-.452.168-.073.367.053.5.154l.486.366c.362.273.736.555,1.111.822.215.153.309.288.3.427-.016.182-.218.3-.413.392-.265.124-.528.253-.791.382-.313.153-.626.306-.942.452a1.263,1.263,0,0,1-.464.151m-.079-.678c-.006.135-.02.443.044.486s.323-.08.422-.126c.315-.146.627-.3.938-.451.264-.129.528-.258.794-.383.2-.093.3-.175.308-.242,0-.037-.021-.12-.22-.261-.377-.268-.753-.551-1.115-.825l-.485-.365c-.2-.149-.286-.147-.319-.133s-.091.073-.115.3c-.051.482-.115.963-.177,1.427q-.039.289-.075.568" transform="translate(-291.361 -185.954)" fill="#fff"/>
        <path id="Trazado_276965" data-name="Trazado 276965" d="M101.215,352.861a3.91,3.91,0,0,1-.581-.062c-.447-.118-.591-.392-.23-.731a3.393,3.393,0,0,1,2.954-.951c.54.084.617.415.2.8a3.755,3.755,0,0,1-2.34.941" transform="translate(-81.806 -286.623)" fill="#fff"/>
        <path id="Trazado_276966" data-name="Trazado 276966" d="M100.807,352.543H100.8c-.07-.007-.137-.011-.2-.015a2.011,2.011,0,0,1-.394-.05c-.352-.093-.462-.255-.492-.375s-.013-.291.223-.512a3.468,3.468,0,0,1,3.031-.975c.369.057.491.215.528.337s.022.342-.283.625a3.811,3.811,0,0,1-2.4.965Zm1.575-1.79a3.318,3.318,0,0,0-2.322.971c-.094.088-.2.218-.17.333.026.1.157.189.361.243a1.853,1.853,0,0,0,.359.044c.064,0,.13.008.2.014a3.631,3.631,0,0,0,2.277-.916c.181-.168.265-.327.232-.437s-.166-.175-.381-.209a3.611,3.611,0,0,0-.555-.044" transform="translate(-81.398 -286.212)" fill="#fff"/>
        <path id="Trazado_276967" data-name="Trazado 276967" d="M7.171,359.815a5,5,0,0,1-.537-.111c-.475-.146-.56-.426-.246-.815a2.692,2.692,0,0,1,2.391-.681c.538.185.614.5.2.9a2.9,2.9,0,0,1-1.809.705" transform="translate(-5.064 -292.391)" fill="#fff"/>
        <path id="Trazado_276968" data-name="Trazado 276968" d="M6.758,359.507l-.014,0-.131-.023a3.26,3.26,0,0,1-.415-.09.534.534,0,0,1-.29-.96,2.8,2.8,0,0,1,2.492-.71c.3.1.475.25.517.436a.694.694,0,0,1-.282.618,3,3,0,0,1-1.863.731Zm1.129-1.679a2.684,2.684,0,0,0-1.836.717c-.094.116-.2.282-.157.415s.217.211.358.255a3.065,3.065,0,0,0,.392.085l.122.022a2.828,2.828,0,0,0,1.741-.678c.124-.121.265-.3.232-.447s-.235-.247-.4-.3a1.413,1.413,0,0,0-.454-.065" transform="translate(-4.655 -291.99)" fill="#fff"/>
        <path id="Trazado_276969" data-name="Trazado 276969" d="M367.816,26.05a1.979,1.979,0,0,1,.606-1.345c.405-.379.75-.268.894.264a2.1,2.1,0,0,1-.69,1.825c-.152.1-.317.207-.5.093-.292-.18-.3-.482-.308-.837" transform="translate(-300.293 -19.987)" fill="#fff"/>
        <path id="Trazado_276970" data-name="Trazado 276970" d="M367.88,26.62a.4.4,0,0,1-.213-.063c-.342-.211-.347-.568-.352-.914v-.008a2.072,2.072,0,0,1,.634-1.405.652.652,0,0,1,.628-.232c.134.038.316.163.418.539a2.18,2.18,0,0,1-.727,1.925.725.725,0,0,1-.388.158m-.381-.976c.006.372.027.609.265.756.129.079.243.016.4-.091a2.026,2.026,0,0,0,.653-1.725c-.062-.229-.165-.375-.291-.411s-.282.03-.452.19a1.89,1.89,0,0,0-.576,1.28" transform="translate(-299.885 -19.579)" fill="#fff"/>
        <path id="Trazado_276971" data-name="Trazado 276971" d="M274.542,189.579c.276.086.906-.043,1.094.343s-.377.695-.616,1.032c-.126.177-.253.467-.481.437-.307-.041-.225-.4-.3-.62a8.289,8.289,0,0,1-.206-.857c-.078-.319.059-.421.513-.334" transform="translate(-223.707 -154.752)" fill="#fff"/>
        <path id="Trazado_276972" data-name="Trazado 276972" d="M274.168,191.077a.338.338,0,0,1-.047,0c-.288-.038-.318-.295-.341-.482a.953.953,0,0,0-.037-.2,4.084,4.084,0,0,1-.146-.575c-.02-.1-.04-.2-.063-.292a.392.392,0,0,1,.052-.381c.1-.1.272-.122.567-.065l.01,0a1.436,1.436,0,0,0,.3.035c.307.017.69.038.844.355.162.333-.116.6-.361.84a2.214,2.214,0,0,0-.263.285c-.023.032-.045.068-.068.1-.107.168-.238.374-.453.374m-.292-1.843c-.1,0-.14.022-.156.039-.038.04-.024.137-.006.211.024.1.044.2.065.3a3.86,3.86,0,0,0,.139.549,1.094,1.094,0,0,1,.046.238c.026.215.05.3.183.322s.207-.109.32-.287c.025-.039.049-.078.073-.112a2.392,2.392,0,0,1,.285-.31c.266-.258.42-.429.324-.628-.107-.221-.416-.237-.69-.252a1.576,1.576,0,0,1-.343-.042,1.319,1.319,0,0,0-.239-.027" transform="translate(-223.301 -154.345)" fill="#fff"/>
      </g>
    </g>
    <g id="Grupo_145944" data-name="Grupo 145944" transform="translate(1248.079 3033.182)">
      <g id="Grupo_145943" data-name="Grupo 145943" clip-path="url(#clip-path-10)">
        <path id="Trazado_276973" data-name="Trazado 276973" d="M77.309,51.059A29.618,29.618,0,0,1,76,56.695a17.153,17.153,0,0,1-1.015,2.284,17.326,17.326,0,0,0-.612-14.131,16.321,16.321,0,0,0-11.044-8.871A16.964,16.964,0,1,0,72,63.643l.127.167c-.371.453-.723.924-1.116,1.357a23.373,23.373,0,0,1-14.556,7.823,21.025,21.025,0,0,1-17.13-5.128c-.479-.411-.738-.452-1.235-.016a20.521,20.521,0,0,1-12.7,5.28c-8.256.448-14.817-2.87-20.008-9.153-.042-.051-.048-.13-.031-.274a17.135,17.135,0,0,0,13.488,5.69,16.379,16.379,0,0,0,12.919-6.741A16.974,16.974,0,0,0,10.632,37.231a16.517,16.517,0,0,0-6.364,5.524,16.771,16.771,0,0,0-2.924,7.82,19.955,19.955,0,0,0,.991,8.412c-.13-.295-.262-.589-.389-.885-.139-.323-.292-.642-.406-.974-2.668-7.781-1.959-15.16,2.82-21.954a20.25,20.25,0,0,1,10.47-7.657c.587-.194.722-.415.6-1A21.778,21.778,0,0,1,24.813,4.042,23.9,23.9,0,0,1,35.577.027c.112-.013.239-.094.392.117A16.951,16.951,0,0,0,23.3,9.809a16.7,16.7,0,0,0-1.088,11.252,16.973,16.973,0,0,0,32.877.274A16.339,16.339,0,0,0,52.924,7.691,17.219,17.219,0,0,0,41.454.081a18.467,18.467,0,0,1,6.212,1.387,22.734,22.734,0,0,1,12.856,11.96,20.451,20.451,0,0,1,1.489,12.878c-.146.715-.032,1,.71,1.268,7.448,2.7,12.053,7.993,14.005,15.63.254.994.391,2.017.582,3.027Z" transform="translate(0 0)" fill="#fff"/>
        <path id="Trazado_276974" data-name="Trazado 276974" d="M150.409,102.362a21.262,21.262,0,0,1,12.154,3.84c.566.39.637.711.252,1.267a20.757,20.757,0,0,1-2.4,2.989.772.772,0,0,1-1.157.1,15.529,15.529,0,0,0-17.818.073.628.628,0,0,1-.92-.063,17.7,17.7,0,0,1-2.66-3.355c-.246-.391-.135-.623.212-.869a21.072,21.072,0,0,1,9.784-3.823,15.47,15.47,0,0,1,2.554-.159" transform="translate(-111.712 -83.02)" fill="#fff"/>
        <path id="Trazado_276975" data-name="Trazado 276975" d="M98.564,203.325c.251,6.229,3.033,10.916,8.569,13.87.681.363.9.68.667,1.442a24.747,24.747,0,0,1-1.272,3.378c-.257.547-.546.662-1.114.4A20.772,20.772,0,0,1,94.4,210.5a20.024,20.024,0,0,1-1.226-9.027c.054-.574.248-.818.828-.779a18.558,18.558,0,0,1,4,.67.659.659,0,0,1,.565.752c-.025.4-.005.8-.005,1.206" transform="translate(-75.502 -162.785)" fill="#fff"/>
        <path id="Trazado_276976" data-name="Trazado 276976" d="M253.076,203.238c-.393,8.526-4.229,15.031-12.048,19.034-1.042.534-1.075.5-1.578-.528a18,18,0,0,1-1.194-3.326c-.153-.576.025-.85.542-1.113a15.48,15.48,0,0,0,8.536-11.289,15.9,15.9,0,0,0,.206-3.827.7.7,0,0,1,.578-.816,19.522,19.522,0,0,1,4-.66c.525-.034.8.153.805.718s.088,1.1.15,1.805" transform="translate(-193.209 -162.798)" fill="#fff"/>
      </g>
    </g>
    <g id="Grupo_145946" data-name="Grupo 145946" transform="translate(1066.839 3033.182)">
      <g id="Grupo_145945" data-name="Grupo 145945" clip-path="url(#clip-path-11)">
        <path id="Trazado_276977" data-name="Trazado 276977" d="M27.043,0c1.531,2.467,3.053,4.939,4.594,7.4q5.117,8.171,10.249,16.333c.459.731.469.732,1.087.087q2.792-2.913,5.577-5.834c.312-.328.574-.559.754.109,1.3,4.848,2.971,9.607,3.938,14.531C54.9,41.09,52.747,48.652,47.291,55.3a22.812,22.812,0,0,1-3.078,3.074c-.19.158-.339.4-.713.369.316-.862.653-1.69.926-2.538a18.888,18.888,0,0,0-.043-11.31c-1.215-4.181-2.359-8.382-3.542-12.572-.069-.243-.043-.61-.3-.683s-.415.268-.589.447c-1.243,1.282-2.474,2.575-3.713,3.86-.6.618-.617.614-1.066-.1l-7.7-12.285c-.568-.907-.569-.907-1.14,0Q22.5,29.67,18.669,35.783c-.491.784-.493.788-1.152.1q-1.934-2.005-3.858-4.019c-.271-.283-.459-.422-.6.107-1.362,4.98-2.9,9.911-4.11,14.931a17.442,17.442,0,0,0,1.1,11.1c.1.227.286.443.189.774A5.008,5.008,0,0,1,8.778,57.66a27.076,27.076,0,0,1-8.6-16.879,28.993,28.993,0,0,1,1.3-11.971c1.03-3.466,1.965-6.96,2.946-10.441.069-.244.047-.6.309-.68.322-.1.472.261.658.455q2.774,2.881,5.526,5.783c.383.406.587.482.93-.066Q19.19,12.11,26.565.382c.075-.12.129-.254.192-.382Z" transform="translate(0)" fill="#fff"/>
        <path id="Trazado_276978" data-name="Trazado 276978" d="M95.721,183.142a13.936,13.936,0,0,1-27.784,1.691,16.209,16.209,0,0,1,.793-6.681c.491-1.565.888-3.159,1.334-4.738.194-.686.3-.714.809-.191.813.836,1.631,1.668,2.408,2.537.406.455.615.409.929-.1,2.282-3.68,4.59-7.344,6.888-11.015.71-1.135.7-1.136,1.4-.03,2.3,3.67,4.608,7.333,6.886,11.016.337.545.553.575.976.1.793-.886,1.64-1.723,2.453-2.592.36-.385.583-.341.712.172.675,2.673,1.616,5.276,2.1,8a13.843,13.843,0,0,1,.1,1.828" transform="translate(-54.906 -132.531)" fill="#fff"/>
        <path id="Trazado_276979" data-name="Trazado 276979" d="M45.532,364.88H24.109c-.979,0-.98,0-.982-.982,0-.9.022-1.81-.007-2.713-.017-.533.193-.745.711-.692a4.219,4.219,0,0,0,.428,0h42.7c1.124,0,1.124,0,1.125,1.125,0,.833-.03,1.667.009,2.5.028.6-.2.774-.784.771-3.856-.019-7.712-.01-11.568-.009H45.532" transform="translate(-18.707 -291.685)" fill="#fff"/>
      </g>
    </g>
    <g id="Grupo_145948" data-name="Grupo 145948" transform="translate(872.318 3037.324)">
      <g id="Grupo_145947" data-name="Grupo 145947" clip-path="url(#clip-path-12)">
        <path id="Trazado_276980" data-name="Trazado 276980" d="M71.694,38.615c-1.158,1.851-2.879,1.856-4.024.009A2.224,2.224,0,0,1,65.7,39.989a2.153,2.153,0,0,1-2.044-1.381,2.227,2.227,0,0,1-1.975,1.382,2.123,2.123,0,0,1-2.012-1.326c-.236.074-.252.31-.366.463a2.1,2.1,0,0,1-2.262.788,2.038,2.038,0,0,1-1.488-1.869c-.029-.643-.034-1.288,0-1.931.022-.487-.135-.668-.649-.725a4.235,4.235,0,0,1-3.915-3.412,4.128,4.128,0,0,1,2.363-4.657c.634-.286.569-.455.2-.946A18.809,18.809,0,0,1,49.619,14.29a14.384,14.384,0,0,1,9.7-13.038C65.451-.981,71.322-.3,76.475,3.857c4.061,3.274,5.615,7.727,5.122,12.888a18.8,18.8,0,0,1-3.989,9.834c-.252.327-.235.454.153.64a4.244,4.244,0,0,1-1.4,8.175c-.5.058-.613.263-.6.7.022.551.009,1.1,0,1.655a2.078,2.078,0,0,1-3.931,1.094c-.036-.058-.072-.115-.146-.231M59.254,22.127c2.942.039,4.061-1.052,4.016-3.38a7.884,7.884,0,0,0-1.831-4.876,4.591,4.591,0,1,0-6.509,6.4,7.706,7.706,0,0,0,4.324,1.859m12.662,0a7.557,7.557,0,0,0,4.963-2.352,4.579,4.579,0,0,0-6.233-6.668,7.4,7.4,0,0,0-2.6,5.647c-.078,2.3,1.057,3.393,3.87,3.373m-7.469,8.625a1.4,1.4,0,0,0,.8-.319c.287-.28.507-.269.819-.009a1.269,1.269,0,0,0,1.6.092,1.4,1.4,0,0,0,.626-1.552A4.508,4.508,0,0,0,65.919,26a.464.464,0,0,0-.522,0A4.431,4.431,0,0,0,63,29.1a1.441,1.441,0,0,0,1.446,1.659" transform="translate(-40.464 0.001)" fill="#fff"/>
        <path id="Trazado_276981" data-name="Trazado 276981" d="M.113,197.738a3.769,3.769,0,0,1,3.144-3.8c.559-.089.551-.229.353-.681a3.857,3.857,0,1,1,7.278-2.412,3.383,3.383,0,0,1-.188,2.228c-.207.446-.149.656.314.894,4.146,2.139,8.277,4.307,12.413,6.466q9.381,4.9,18.757,9.806c.589.31.918.383,1.373-.271a3.717,3.717,0,0,1,4.485-1.271,3.858,3.858,0,0,1,2.394,4.088,3.8,3.8,0,0,1-3.094,3.271c-.512.1-.566.254-.371.725a3.86,3.86,0,0,1-5.871,4.638,3.815,3.815,0,0,1-1.2-4.576c.19-.461.019-.592-.332-.774q-7.522-3.916-15.034-7.85-8.129-4.244-16.254-8.494c-.574-.3-.866-.294-1.257.3a3.749,3.749,0,0,1-4.287,1.369,3.773,3.773,0,0,1-2.627-3.654" transform="translate(-0.092 -153.171)" fill="#fff"/>
        <path id="Trazado_276982" data-name="Trazado 276982" d="M3.182,298.345a2.792,2.792,0,0,1,.3-1.391c.316-.572.065-.7-.45-.78a3.26,3.26,0,0,1-1.649-.814,3.708,3.708,0,0,1-1.244-3.918,3.644,3.644,0,0,1,3.12-2.846A3.584,3.584,0,0,1,6.98,290.17c.368.524.632.554,1.153.277,2.657-1.417,5.337-2.789,7.993-4.208a1.368,1.368,0,0,1,1.466-.012c1.8.978,3.621,1.9,5.43,2.858.189.1.515.131.5.4-.018.246-.328.29-.525.393-3.991,2.09-7.979,4.184-11.982,6.251-.479.248-.614.438-.386.982a3.722,3.722,0,0,1-.959,4.169,3.718,3.718,0,0,1-4.159.744,3.832,3.832,0,0,1-2.323-3.679" transform="translate(0 -233.292)" fill="#fff"/>
        <path id="Trazado_276983" data-name="Trazado 276983" d="M166.062,191.671a3.307,3.307,0,0,1-.367,1.671c-.176.338-.194.5.28.575a3.851,3.851,0,1,1-3.807,5.9c-.272-.416-.481-.42-.878-.211-2.746,1.446-5.509,2.859-8.251,4.313a1.277,1.277,0,0,1-1.346-.008c-1.823-.978-3.663-1.925-5.494-2.887-.177-.093-.461-.137-.465-.36-.006-.271.309-.3.5-.4,3.991-2.091,7.981-4.184,11.987-6.247.514-.265.61-.473.4-1.036a3.652,3.652,0,0,1,.94-4.113,3.777,3.777,0,0,1,4.223-.745,3.711,3.711,0,0,1,2.282,3.546" transform="translate(-118.867 -153.164)" fill="#fff"/>
      </g>
    </g>
  </g>
</svg>
