<svg xmlns="http://www.w3.org/2000/svg" xmlns:xlink="http://www.w3.org/1999/xlink" width="187" height="187" viewBox="0 0 187 187">
  <defs>
    <clipPath id="clip-path">
      <circle id="Elipse_154" data-name="Elipse 154" cx="83.5" cy="83.5" r="83.5" transform="translate(0.08 0.269)" fill="#ebf9ff" stroke="#707070" stroke-width="1"/>
    </clipPath>
    <clipPath id="clip-path-2">
      <rect id="Rectángulo_46166" data-name="Rectángulo 46166" width="91.982" height="120" fill="none"/>
    </clipPath>
  </defs>
  <g id="Grupo_147241" data-name="Grupo 147241" transform="translate(-285.001 -2619.25)">
    <g id="Grupo_131420" data-name="Grupo 131420" transform="translate(294.92 2628.98)">
      <g id="Enmascarar_grupo_17" data-name="Enmascarar grupo 17" transform="translate(0 0.001)" clip-path="url(#clip-path)">
        <g id="Elipse_5506" data-name="Elipse 5506" transform="translate(-35.92 -35.731)" fill="#ebf9ff" stroke="#707070" stroke-width="1">
          <circle cx="120" cy="120" r="120" stroke="none"/>
          <circle cx="120" cy="120" r="119.5" fill="none"/>
        </g>
      </g>
      <g id="Elipse_157" data-name="Elipse 157" transform="translate(0.081 0.27)" fill="none" stroke="#00ffe6" stroke-linejoin="round" stroke-width="10">
        <circle cx="83.5" cy="83.5" r="83.5" stroke="none"/>
        <circle cx="83.5" cy="83.5" r="88.5" fill="none"/>
      </g>
    </g>
    <g id="Grupo_145929" data-name="Grupo 145929" transform="translate(332.51 2649.75)">
      <g id="Grupo_145928" data-name="Grupo 145928" clip-path="url(#clip-path-2)">
        <path id="Trazado_276879" data-name="Trazado 276879" d="M75.509,0c1.422.289,2.853.543,4.266.874a34,34,0,0,1,26.4,35.2,29.065,29.065,0,0,1-1.336,7.467A3.9,3.9,0,0,0,105,46.359a14.473,14.473,0,0,1-2.174,15.187,11.7,11.7,0,0,1-9.959,4.507c-1.961-.044-2.613.568-2.621,2.521-.005,1.133.023,2.266-.007,3.4A5.99,5.99,0,0,1,84.2,78q-11.95.068-23.9,0A6,6,0,0,1,54.213,71.9c-.023-1.132,0-2.265-.006-3.4-.011-1.8-.553-2.376-2.328-2.5-7.22-.484-12.427-5.131-13.522-12.146a12.776,12.776,0,0,1,1.045-7.43,3.926,3.926,0,0,0,.2-2.924A34.062,34.062,0,0,1,60.9,1.935c1.238-.439,2.28-.443,3.12.693.473,1.687.07,2.408-1.718,3.072C47.076,11.352,39.058,26.943,43.46,42.442A7.757,7.757,0,0,1,43.1,48a9.9,9.9,0,0,0,3.372,12.174c1.958,1.421,4.213,1.7,6.527,1.919a5.764,5.764,0,0,1,5.191,5.681c.033,1.288-.007,2.578.018,3.867a2.121,2.121,0,0,0,2.29,2.381q11.718.031,23.436,0a2.123,2.123,0,0,0,2.321-2.352c.029-1.327-.019-2.657.021-3.984a5.974,5.974,0,0,1,6.445-5.67,7.819,7.819,0,0,0,6.229-2.138,10.69,10.69,0,0,0,2.362-11.97,7.542,7.542,0,0,1-.315-5.452,28.877,28.877,0,0,0,.7-14.12A30.08,30.08,0,0,0,72.667,4c-1.673-.039-2.241-.563-2.484-2.292A3.349,3.349,0,0,1,71.525,0Z" transform="translate(-26.234)"/>
        <path id="Trazado_276880" data-name="Trazado 276880" d="M79,5.449c.243,1.729.811,2.253,2.484,2.292a30.08,30.08,0,0,1,29.022,24.336,28.877,28.877,0,0,1-.7,14.12,7.542,7.542,0,0,0,.315,5.452,10.691,10.691,0,0,1-2.361,11.97,7.82,7.82,0,0,1-6.23,2.138,5.974,5.974,0,0,0-6.445,5.67c-.04,1.327.008,2.657-.021,3.984a2.123,2.123,0,0,1-2.321,2.352q-11.718.028-23.436,0a2.121,2.121,0,0,1-2.29-2.381c-.025-1.289.014-2.579-.018-3.867a5.764,5.764,0,0,0-5.191-5.682c-2.314-.221-4.569-.5-6.527-1.919a9.9,9.9,0,0,1-3.372-12.174,7.757,7.757,0,0,0,.364-5.556c-4.4-15.5,3.616-31.089,18.838-36.741,1.789-.664,2.192-1.385,1.718-3.072A45,45,0,0,1,79,5.449M69.1,57.7a9.3,9.3,0,0,0,9.4-12.226c-1.835-4.957-9.017-9.466-15.026-7.077a10.034,10.034,0,0,0-6.368,8.381,9.427,9.427,0,0,0,5.527,9.488A13.673,13.673,0,0,0,69.1,57.7m23.993-.006a14.521,14.521,0,0,0,5.441-1.011,9.729,9.729,0,0,0,6.239-11.327,10.051,10.051,0,0,0-12.959-7.1c-3.672,1.226-6.67,3.4-8.147,7.046-2.319,5.72,2.283,12.831,9.426,12.393M90.4,67.6a5.67,5.67,0,0,0-1.371-3.436c-1.27-1.529-2.534-3.065-3.856-4.548a5.421,5.421,0,0,0-8.007-.235A58.635,58.635,0,0,0,72.8,64.555a5.584,5.584,0,0,0,.233,7.031,5.653,5.653,0,0,0,7.059,1.523,1.822,1.822,0,0,1,1.9,0A5.874,5.874,0,0,0,90.4,67.6" transform="translate(-35.054 -3.742)" fill="#ebf9ff"/>
        <path id="Trazado_276881" data-name="Trazado 276881" d="M29.615,250.149c-1.521-.622-2.807-1.155-4.1-1.675-3.322-1.34-6.654-2.659-9.965-4.026a1.035,1.035,0,0,0-1.384.31A8.125,8.125,0,1,1,2.534,233.43a1.711,1.711,0,0,0,.558-1.418,8.056,8.056,0,0,1,8.082-8.464,8.016,8.016,0,0,1,8.121,8.411,1.051,1.051,0,0,0,.8,1.176q12.579,5.045,25.142,10.133a1.9,1.9,0,0,0,1.55-.02q12.509-5.064,25.035-10.086a1.124,1.124,0,0,0,.861-1.26,8.108,8.108,0,1,1,16.208.072,1.832,1.832,0,0,0,.621,1.506A8.137,8.137,0,1,1,77.9,244.872c-.37-.387-.6-.785-1.336-.481-4.533,1.88-9.1,3.686-13.647,5.521a2.27,2.27,0,0,0-.377.3c2.147.864,4.222,1.674,6.273,2.543.553.234.678-.152.924-.419a8.121,8.121,0,0,1,14.217,5.92,7.67,7.67,0,0,1-2.42,5.3,1.813,1.813,0,0,0-.636,1.5,8.106,8.106,0,1,1-16.2.1,1.108,1.108,0,0,0-.852-1.249q-8.522-3.392-17.019-6.846a2,2,0,0,0-1.662,0q-8.494,3.458-17.017,6.85a1.113,1.113,0,0,0-.855,1.25,8.112,8.112,0,1,1-16.214-.083,1.824,1.824,0,0,0-.609-1.514,8.129,8.129,0,0,1,.06-11.728,8.047,8.047,0,0,1,11.612.415,1.07,1.07,0,0,0,1.457.348c1.9-.814,3.82-1.562,6.015-2.449m-14.28-18.72A3.816,3.816,0,0,0,13.054,228a3.874,3.874,0,0,0-4.3.389,3.973,3.973,0,0,0-1.558,4.251c.4,1.869.31,2.1-1.294,3.179a4.236,4.236,0,0,0-1.81,4.278,4.124,4.124,0,0,0,3.638,3.313,4.077,4.077,0,0,0,4.016-2.071c1.113-1.9,1.629-2.082,3.7-1.249Q41.32,250.518,67.2,260.948c1.786.72,2.079,1.333,1.6,3.272a4.148,4.148,0,1,0,7.941.046c-.4-1.607-.213-2.052,1.23-2.991a4.089,4.089,0,0,0,1.934-4.312,4.214,4.214,0,0,0-3.516-3.327,4.148,4.148,0,0,0-4.2,2.183c-.965,1.682-1.664,1.934-3.443,1.217q-17.363-6.992-34.724-13.989-8.681-3.5-17.359-7c-1.576-.636-1.987-1.415-1.52-2.992a6.214,6.214,0,0,0,.2-1.622m36.048,14.28c1.814.738,3.3,1.313,4.762,1.95a2.112,2.112,0,0,0,1.777-.027q9.363-3.816,18.741-7.6c1.939-.786,2.569-.566,3.578,1.278a4.114,4.114,0,0,0,7.658-1.266,4.012,4.012,0,0,0-1.958-4.284c-1.345-.881-1.561-1.378-1.182-2.927a4.323,4.323,0,0,0,.027-2.193,4.146,4.146,0,1,0-7.954,2.334c.458,1.694.094,2.42-1.535,3.076q-7.372,2.969-14.743,5.941c-2.953,1.192-5.9,2.39-9.171,3.714m-10.8,8.871c-1.647-.672-3.033-1.163-4.349-1.8a2.762,2.762,0,0,0-2.449.005c-3.461,1.418-6.938,2.8-10.411,4.184-1.974.789-2.55.59-3.615-1.225a4.1,4.1,0,0,0-6.73-.731,4.018,4.018,0,0,0,.818,6.113c1.32.883,1.974,1.828,1.3,3.391a1.534,1.534,0,0,0-.08.575,4.061,4.061,0,0,0,2.131,3.885,3.857,3.857,0,0,0,4.4-.243,4.064,4.064,0,0,0,1.566-4.563c-.433-1.864-.128-2.512,1.571-3.2,3.034-1.225,6.074-2.437,9.109-3.66,2.148-.866,4.292-1.742,6.738-2.735" transform="translate(0 -153.526)"/>
        <path id="Trazado_276882" data-name="Trazado 276882" d="M82.375,128.489a13.671,13.671,0,0,1-6.465-1.435,9.427,9.427,0,0,1-5.528-9.488,10.034,10.034,0,0,1,6.369-8.381c6.009-2.388,13.191,2.121,15.026,7.077a9.305,9.305,0,0,1-9.4,12.227m-.053-4.025c.234,0,.468.011.7,0a5.112,5.112,0,0,0,4.679-2.953,4.756,4.756,0,0,0-.608-5.45,9.542,9.542,0,0,0-6.019-3.5A6.062,6.062,0,0,0,74.862,116a5.4,5.4,0,0,0,1.385,6.483c1.714,1.581,3.884,1.832,6.075,1.981" transform="translate(-48.327 -74.533)"/>
        <path id="Trazado_276883" data-name="Trazado 276883" d="M163.3,128.462c-7.143.439-11.745-6.673-9.426-12.393,1.477-3.644,4.476-5.82,8.147-7.046a10.051,10.051,0,0,1,12.959,7.1,9.729,9.729,0,0,1-6.239,11.327,14.515,14.515,0,0,1-5.441,1.011m-.169-4a10.665,10.665,0,0,0,4.652-.951,5.641,5.641,0,0,0,.911-9.89c-2.425-1.679-5.546-1.464-8.272.583-1.483,1.114-2.881,2.351-3.079,4.345-.348,3.49,2.051,5.9,5.788,5.913" transform="translate(-105.262 -74.512)"/>
        <path id="Trazado_276884" data-name="Trazado 276884" d="M135.623,182.216a5.874,5.874,0,0,1-8.411,5.506,1.823,1.823,0,0,0-1.9,0,5.652,5.652,0,0,1-7.059-1.523,5.584,5.584,0,0,1-.234-7.031A58.687,58.687,0,0,1,122.389,174a5.421,5.421,0,0,1,8.007.235c1.322,1.483,2.585,3.02,3.856,4.548a5.672,5.672,0,0,1,1.371,3.436m-9.316.693a4.092,4.092,0,0,1,2.159.857c1.026.794,1.851.787,2.6.039a1.8,1.8,0,0,0-.068-2.7q-1.656-1.961-3.323-3.913a1.654,1.654,0,0,0-2.838.035q-1.622,1.914-3.25,3.821c-.864,1.013-.922,1.885-.175,2.7.765.833,1.547.862,2.682.02a4.065,4.065,0,0,1,2.215-.863" transform="translate(-80.272 -118.36)"/>
        <path id="Trazado_276885" data-name="Trazado 276885" d="M24.131,240.154a6.212,6.212,0,0,1-.2,1.622c-.468,1.577-.056,2.356,1.52,2.993q8.679,3.5,17.359,7,17.361,7,34.724,13.989c1.779.716,2.478.465,3.443-1.218a4.148,4.148,0,0,1,4.2-2.183,4.214,4.214,0,0,1,3.517,3.327A4.09,4.09,0,0,1,86.762,270c-1.443.939-1.626,1.384-1.23,2.991a4.15,4.15,0,1,1-7.941-.046c.483-1.939.19-2.552-1.6-3.272q-25.878-10.431-51.759-20.856c-2.068-.833-2.583-.655-3.7,1.249a4.077,4.077,0,0,1-4.016,2.071,4.124,4.124,0,0,1-3.638-3.313,4.235,4.235,0,0,1,1.81-4.278c1.6-1.075,1.691-1.31,1.294-3.179a3.974,3.974,0,0,1,1.558-4.251,3.874,3.874,0,0,1,4.3-.389,3.817,3.817,0,0,1,2.281,3.427" transform="translate(-8.796 -162.251)" fill="#ebf9ff"/>
        <path id="Trazado_276886" data-name="Trazado 276886" d="M164.039,254.514c3.269-1.324,6.219-2.522,9.171-3.714q7.37-2.974,14.743-5.941c1.629-.656,1.993-1.382,1.535-3.076a4.146,4.146,0,1,1,7.953-2.334,4.319,4.319,0,0,1-.027,2.193c-.379,1.549-.163,2.045,1.182,2.927a4.126,4.126,0,1,1-5.7,5.551c-1.009-1.844-1.639-2.063-3.578-1.278q-9.371,3.8-18.741,7.6a2.112,2.112,0,0,1-1.777.027c-1.461-.637-2.948-1.212-4.763-1.95" transform="translate(-112.657 -162.331)" fill="#ebf9ff"/>
        <path id="Trazado_276887" data-name="Trazado 276887" d="M66.823,318.05c-2.446.993-4.59,1.869-6.738,2.735-3.035,1.223-6.075,2.435-9.109,3.66-1.7.686-2,1.334-1.571,3.2a4.064,4.064,0,0,1-1.566,4.563,3.857,3.857,0,0,1-4.4.243,4.061,4.061,0,0,1-2.131-3.885,1.533,1.533,0,0,1,.08-.575c.675-1.563.02-2.509-1.3-3.391a4.018,4.018,0,0,1-.818-6.113,4.1,4.1,0,0,1,6.73.731c1.066,1.816,1.641,2.014,3.615,1.225,3.473-1.388,6.95-2.766,10.411-4.184a2.762,2.762,0,0,1,2.449-.005c1.316.636,2.7,1.128,4.349,1.8" transform="translate(-26.242 -216.996)" fill="#ebf9ff"/>
        <path id="Trazado_276888" data-name="Trazado 276888" d="M90.983,133.158c-2.191-.148-4.361-.4-6.075-1.981a5.4,5.4,0,0,1-1.385-6.483,6.062,6.062,0,0,1,6.214-3.438,9.542,9.542,0,0,1,6.019,3.5,4.756,4.756,0,0,1,.608,5.45,5.112,5.112,0,0,1-4.679,2.953c-.233.012-.468,0-.7,0" transform="translate(-56.988 -83.227)" fill="#12263f"/>
        <path id="Trazado_276889" data-name="Trazado 276889" d="M171.993,133.222c-3.737-.012-6.136-2.423-5.788-5.913.2-1.994,1.6-3.231,3.079-4.345,2.725-2.047,5.847-2.262,8.272-.583a5.641,5.641,0,0,1-.911,9.89,10.666,10.666,0,0,1-4.652.951" transform="translate(-114.121 -83.277)" fill="#12263f"/>
        <path id="Trazado_276890" data-name="Trazado 276890" d="M135.091,191.824a4.064,4.064,0,0,0-2.215.863c-1.135.843-1.917.813-2.682-.02-.748-.814-.689-1.685.175-2.7q1.628-1.908,3.25-3.821a1.654,1.654,0,0,1,2.838-.035q1.666,1.952,3.323,3.913a1.8,1.8,0,0,1,.068,2.7c-.745.748-1.571.755-2.6-.039a4.092,4.092,0,0,0-2.159-.857" transform="translate(-89.056 -127.275)" fill="#12263f"/>
      </g>
    </g>
  </g>
</svg>
