<svg id="Grupo_145017" data-name="Grupo 145017" xmlns="http://www.w3.org/2000/svg" xmlns:xlink="http://www.w3.org/1999/xlink" width="80.048" height="80" viewBox="0 0 80.048 80">
  <defs>
    <clipPath id="clip-path">
      <rect id="Rectángulo_45735" data-name="Rectángulo 45735" width="80.048" height="80" fill="none"/>
    </clipPath>
  </defs>
  <g id="Grupo_145016" data-name="Grupo 145016" clip-path="url(#clip-path)">
    <path id="Trazado_275558" data-name="Trazado 275558" d="M17.651,74.861l-2.58-2.87c.929-.838.935-.842.233-1.9a19.76,19.76,0,0,1-3.191-10.108A18.376,18.376,0,0,1,14.917,49.7c1.485-2.579,3.367-4.889,4.957-7.4a18.7,18.7,0,0,0,3.234-12.387c-.021-.184-.162-.436.123-.587a5.982,5.982,0,0,1,2.237,4.556c.048,1.747-.094,3.494.091,5.243a6.534,6.534,0,0,0,8.072,5.923,8.391,8.391,0,0,0,6.38-10.319A33.686,33.686,0,0,0,37.7,28.6a14.633,14.633,0,0,1-1.285-8.02,7.978,7.978,0,0,1,7.044-6.88c-.173.432-.342.83-.493,1.234A17.32,17.32,0,0,0,41.6,22.318a6.852,6.852,0,0,0,4.03,6.152,7.415,7.415,0,0,0,7.6-.564,6.041,6.041,0,0,0,2.525-4.929,13.642,13.642,0,0,0-.484-4.65c.152.012.223-.005.256.023,3.248,2.74,4.744,5.779,3.779,9.791A43.373,43.373,0,0,1,56.6,35.1a12.985,12.985,0,0,0-1.186,6.31,7.015,7.015,0,0,0,6.419,6.254,8.336,8.336,0,0,0,8.427-5.65,13.589,13.589,0,0,0,.239-8.425c-.188-.73-.392-1.456-.621-2.3.308.164.485.243.647.347.419.27.852.527,1.244.833a9.058,9.058,0,0,1,3.842,8.684,24.64,24.64,0,0,1-1.428,5.113,31.707,31.707,0,0,0-1.857,6.63c-.4,3.334,1.273,6.117,4.249,6.918a6.685,6.685,0,0,0,7.266-3.337c.143-.237.159-.6.532-.682a19.632,19.632,0,0,1,1.536,3.868c1.378,4.865,1.293,9.545-1.843,13.807-.2.279-.095.445.067.645a13.472,13.472,0,0,1-2,2.559,9.166,9.166,0,0,0-7.016-5.754c-.373-.066-.461-.3-.522-.635a8.837,8.837,0,0,0-3.154-5.417c-.447-.367-.437-.6-.19-1.076a7.3,7.3,0,0,0,.676-5.008,1.537,1.537,0,0,0-1.318-1.306,7.315,7.315,0,0,0-5.081.722.612.612,0,0,1-.942-.179,9.122,9.122,0,0,0-7.3-3.375q-7.83-.011-15.66,0A9.292,9.292,0,0,0,32.279,62.2a.68.68,0,0,1-.615.626,9.133,9.133,0,0,0-7.4,7.512.632.632,0,0,1-.571.592,9.216,9.216,0,0,0-6.038,3.931m27.776-28.2v-.666c0-2.093,0-2.074-2.092-2.027-.5.011-.6.183-.584.629.029.915.008,1.831.008,2.747,0,2.028,0,2.028,2.049,1.972a1.063,1.063,0,0,1,.166,0c.384.05.464-.153.456-.491-.017-.721-.005-1.443,0-2.164m-25.333,9.4v-.749c0-2.087,0-2.087-2.1-2a.518.518,0,0,1-.083,0c-.35-.043-.49.088-.486.462.017,1.471.011,2.941,0,4.412,0,.29.054.429.4.47,2.189.258,2.271.2,2.271-1.929V56.06M81.427,66.645c0-.638.015-1.277,0-1.914-.043-1.516-1.182-.5-1.777-.726-.557-.211-.98-.025-.9.767.08.853.018,1.719.018,2.579,0,2.023,0,2.008,2.061,1.971.456-.008.644-.106.616-.6-.04-.691-.01-1.387-.01-2.081" transform="translate(-9.397 -10.646)" fill="#e043ac"/>
    <path id="Trazado_275559" data-name="Trazado 275559" d="M74.736,63.47c-.162-.2-.272-.366-.067-.645,3.136-4.262,3.22-8.942,1.843-13.807a19.627,19.627,0,0,0-1.536-3.868c-.373.086-.389.445-.532.682a6.685,6.685,0,0,1-7.266,3.337c-2.975-.8-4.653-3.584-4.249-6.918a31.722,31.722,0,0,1,1.857-6.63,24.646,24.646,0,0,0,1.429-5.114,9.058,9.058,0,0,0-3.843-8.684c-.392-.306-.824-.562-1.244-.833-.161-.1-.339-.183-.647-.347.229.845.433,1.571.621,2.3a13.592,13.592,0,0,1-.239,8.425,8.336,8.336,0,0,1-8.427,5.651,7.016,7.016,0,0,1-6.419-6.254,12.989,12.989,0,0,1,1.187-6.31,43.392,43.392,0,0,0,2.708-6.963c.965-4.012-.531-7.051-3.779-9.791-.033-.028-.1-.011-.257-.023a13.637,13.637,0,0,1,.484,4.65,6.041,6.041,0,0,1-2.525,4.929,7.415,7.415,0,0,1-7.6.564,6.852,6.852,0,0,1-4.03-6.152,17.318,17.318,0,0,1,1.366-7.386c.151-.4.32-.8.493-1.234a7.978,7.978,0,0,0-7.044,6.88A14.634,14.634,0,0,0,28.3,17.95a33.67,33.67,0,0,1,2.313,6.136,8.391,8.391,0,0,1-6.38,10.319,6.534,6.534,0,0,1-8.072-5.923c-.186-1.749-.043-3.5-.091-5.244a5.982,5.982,0,0,0-2.237-4.556c-.285.151-.144.4-.123.588a18.7,18.7,0,0,1-3.234,12.386c-1.59,2.507-3.472,4.818-4.957,7.4A18.371,18.371,0,0,0,2.715,49.338,19.758,19.758,0,0,0,5.907,59.446c.7,1.058.7,1.062-.232,1.9-1.185.782-1.229.809-1.99-.437-4.608-7.548-5-15.215-.579-23C4.259,35.883,5.628,34,6.972,32.095a20.367,20.367,0,0,0,3.953-8.516,14.706,14.706,0,0,0-.55-7.228,1.426,1.426,0,0,1,.231-1.62,1.412,1.412,0,0,1,1.613-.258,10.1,10.1,0,0,1,6.506,8.58c.09,1.72-.086,3.444.1,5.163a3.907,3.907,0,0,0,5.1,3.522c3.175-.793,4.89-3.935,4.017-7.373a52.555,52.555,0,0,0-2.516-6.409A15.468,15.468,0,0,1,24.6,8.412c1.128-4.651,4.4-7.054,8.878-8.075A11.072,11.072,0,0,1,36.119,0a1.342,1.342,0,0,1,1.313,2.081,26.321,26.321,0,0,0-2.479,7.2,7.293,7.293,0,0,0,.25,3.776c1.268,3.289,5.275,3.417,7.188,1.963a3.649,3.649,0,0,0,1.31-2.857,17.389,17.389,0,0,0-1.394-7.044,4.666,4.666,0,0,1-.283-.864,1.264,1.264,0,0,1,1.8-1.408C47.8,5.131,51.27,7.925,52.577,12.6a12.391,12.391,0,0,1-.617,7.433c-.649,1.917-1.551,3.73-2.345,5.587a10.868,10.868,0,0,0-.97,3.932,4.447,4.447,0,0,0,6.3,4.456c2.533-1.005,3.55-3.131,3.915-5.649.412-2.846-.435-5.49-1.419-8.1-.234-.622-.516-1.227-.725-1.856a1.289,1.289,0,0,1,.353-1.448,1.251,1.251,0,0,1,1.4-.237A22.27,22.27,0,0,1,64.854,20.4c3.98,3.648,4.965,8.089,3.429,13.189-.711,2.36-1.718,4.621-2.318,7.016a7.932,7.932,0,0,0-.276,3.7,3.026,3.026,0,0,0,3.584,2.322c2.353-.542,4.028-3.2,3.322-5.246a1.34,1.34,0,0,1,2.377-1.219,24.11,24.11,0,0,1,4.915,12.09A16.518,16.518,0,0,1,77.342,63.7c-.78,1.183-.781,1.179-1.871.306-.236-.189-.489-.355-.735-.532" transform="translate(0 0)" fill="#040303"/>
    <path id="Trazado_275560" data-name="Trazado 275560" d="M8.307,217.73a9.217,9.217,0,0,1,6.038-3.931.631.631,0,0,0,.571-.592,9.134,9.134,0,0,1,7.4-7.512.68.68,0,0,0,.615-.626,9.291,9.291,0,0,1,9.347-7.554q7.83-.018,15.66,0a9.123,9.123,0,0,1,7.3,3.375.612.612,0,0,0,.942.179,7.317,7.317,0,0,1,5.081-.722,1.537,1.537,0,0,1,1.318,1.306,7.3,7.3,0,0,1-.676,5.008c-.247.472-.257.709.19,1.076a8.837,8.837,0,0,1,3.154,5.416c.061.337.149.569.522.635a9.167,9.167,0,0,1,7.016,5.754,3,3,0,0,0,2.323,2.655c3.174,1.178,4.765,3.737,4.962,7.119.053.913.027,1.832.007,2.748a1.342,1.342,0,0,1-1.458,1.447c-.194.007-.388,0-.583,0H2.084c-1.649,0-2.009-.35-2-1.992a14.869,14.869,0,0,1,.226-3.894,7.908,7.908,0,0,1,5.944-5.892c.441-.118.632-.245.713-.715a10.461,10.461,0,0,1,1.337-3.29m49.273-9.351a6.633,6.633,0,0,0-1.4-.2,1.324,1.324,0,0,1-1.435-1.385,6.677,6.677,0,0,0-7.084-6.608q-7.582,0-15.164,0a6.666,6.666,0,0,0-7.083,6.6,1.3,1.3,0,0,1-1.348,1.386,6.731,6.731,0,0,0-6.663,6.8,1.293,1.293,0,0,1-1.361,1.372,10.261,10.261,0,0,0-1.243.083,6.668,6.668,0,0,0-5.38,6.263c-.065.954-.478,1.417-1.334,1.5-3.5.32-5.443,2.531-5.351,6.04.014.536.2.644.682.636,1.471-.025,2.944-.007,4.416-.009l17.246-.03c.194.01.388.029.581.029H76.578c.139,0,.278-.006.417,0,.262.008.4-.083.422-.376a5.474,5.474,0,0,0-5.008-6.276c-1.266-.119-1.574-.4-1.671-1.676a6.6,6.6,0,0,0-6.451-6.174c-1.073-.034-1.507-.492-1.54-1.624a6.609,6.609,0,0,0-5.166-6.339m2.519-4.81c.125-.642-.191-.78-.751-.718a4.945,4.945,0,0,0-1.824.515c-.241.13-.7.189-.559.588.2.556.038,1.328.586,1.652,1.223.721,1.947.378,2.331-.982.1-.345.146-.7.217-1.055" transform="translate(-0.053 -153.515)" fill="#020101"/>
    <path id="Trazado_275561" data-name="Trazado 275561" d="M14.753,110.292v.666c0,2.206,0,2.2-2.253,2.008-.322-.027-.423-.109-.42-.431q.021-2.249,0-4.5c0-.328.1-.461.426-.416a.452.452,0,0,0,.083,0c2.164-.1,2.164-.1,2.164,2.086v.583" transform="translate(-9.389 -83.624)" fill="#020101"/>
    <path id="Trazado_275562" data-name="Trazado 275562" d="M332.008,110.364v.583c0,2.2,0,2.194-2.248,2.012-.316-.026-.429-.1-.425-.425q.022-2.249,0-4.5c0-.321.092-.468.421-.421a.453.453,0,0,0,.083,0c2.169-.108,2.169-.108,2.169,2.082v.666" transform="translate(-255.978 -83.618)" fill="#020101"/>
    <path id="Trazado_275563" data-name="Trazado 275563" d="M152.417,152.23c0,.721-.012,1.443,0,2.164.008.337-.072.541-.456.49a1.089,1.089,0,0,0-.166,0c-2.049.056-2.049.056-2.049-1.972,0-.916.02-1.832-.008-2.747-.014-.446.089-.617.584-.629,2.092-.047,2.092-.066,2.092,2.027q0,.333,0,.666" transform="translate(-116.387 -116.219)" fill="#020101"/>
    <path id="Trazado_275564" data-name="Trazado 275564" d="M38.694,194.2v.666c0,2.128-.082,2.187-2.271,1.928-.346-.041-.4-.18-.4-.47.008-1.471.014-2.942,0-4.412,0-.373.137-.5.486-.462a.5.5,0,0,0,.083,0c2.1-.087,2.1-.087,2.1,2Z" transform="translate(-27.997 -148.785)" fill="#020101"/>
    <path id="Trazado_275565" data-name="Trazado 275565" d="M313.978,241.753c0,.694-.03,1.389.01,2.081.029.491-.16.588-.616.6-2.062.037-2.061.052-2.061-1.971,0-.86.062-1.726-.018-2.579-.075-.792.348-.979.9-.767.6.226,1.735-.79,1.777.726.018.638,0,1.276,0,1.914" transform="translate(-241.949 -185.754)" fill="#020101"/>
    <path id="Trazado_275566" data-name="Trazado 275566" d="M34.381,240.136l-17.246.03c-1.472,0-2.944-.016-4.416.009-.482.008-.668-.1-.682-.636-.092-3.509,1.849-5.72,5.351-6.04.857-.078,1.27-.541,1.334-1.5a6.668,6.668,0,0,1,5.38-6.263,10.255,10.255,0,0,1,1.243-.083,1.293,1.293,0,0,0,1.361-1.372,6.731,6.731,0,0,1,6.663-6.8,1.3,1.3,0,0,0,1.348-1.386,6.666,6.666,0,0,1,7.083-6.6q7.582,0,15.164,0a6.677,6.677,0,0,1,7.084,6.608,1.324,1.324,0,0,0,1.435,1.385,6.63,6.63,0,0,1,1.4.2,22.434,22.434,0,0,1-4.182,5.143c-.686,0-1.374.019-2.059-.017-.482-.026-.611.165-.6.619.022.795-.011,1.591-.021,2.387a.844.844,0,0,0-.55.333,48.9,48.9,0,0,1-3.774,3.177c-.116-.249-.234-.5-.35-.746a7.637,7.637,0,0,0-8.467-4.265,1.479,1.479,0,0,0-1.281,1.142,7.936,7.936,0,0,0-.2,1.562,7.729,7.729,0,0,0,3.488,6.63,5.065,5.065,0,0,1-1.576,1.034,76.88,76.88,0,0,1-12.128,4.966c-.29.093-.694.048-.8.473M34.088,226.6l-.15.232h-1.3c-1.989,0-1.968,0-1.938,2.033.008.528.179.653.673.645,1.581-.027,3.162.012,4.742-.022a1.519,1.519,0,0,1,1.231.523c1.038,1.079,2.111,2.125,3.17,3.184,1.269,1.268,1.246,1.245,2.521.029.51-.486.578-.761.025-1.3-2.934-2.871-5.82-5.79-8.722-8.693-1.387-1.387-1.368-1.369-2.758.021-.43.43-.386.686.033,1.057.84.745,1.648,1.527,2.469,2.293m20.619-10.433c1.534-.022,1.33.185,1.341-1.033.015-1.635,0-1.635-1.071-1.635-1.593,0-1.593,0-1.594,1.116,0,1.552,0,1.552,1.324,1.552M44.051,217.5c-.022-1.53.185-1.323-1.039-1.334-1.628-.015-1.628,0-1.628,1.077,0,1.587,0,1.587,1.122,1.587,1.545,0,1.545,0,1.545-1.33m-17.26,14.662c-1.407,0-1.407,0-1.408,1.052,0,1.616,0,1.616,1.093,1.616,1.574,0,1.574,0,1.574-1.135,0-1.533,0-1.533-1.26-1.533" transform="translate(-9.353 -162.836)" fill="#2941a0"/>
    <path id="Trazado_275567" data-name="Trazado 275567" d="M140.678,251.455a22.439,22.439,0,0,0,4.182-5.143,6.609,6.609,0,0,1,5.166,6.339c.033,1.132.468,1.59,1.54,1.624a6.6,6.6,0,0,1,6.451,6.174c.1,1.28.4,1.557,1.67,1.676A5.473,5.473,0,0,1,164.7,268.4c-.025.293-.159.384-.422.376-.139,0-.278,0-.417,0H112.943c-.194,0-.388-.019-.582-.029.106-.425.51-.38.8-.473a76.885,76.885,0,0,0,12.128-4.966,5.061,5.061,0,0,0,1.576-1.034,7.911,7.911,0,0,0,5.673,1.008,1.613,1.613,0,0,0,1.34-1.386,8.842,8.842,0,0,0-.2-3.945,48.935,48.935,0,0,0,3.773-3.177.845.845,0,0,1,.55-.333c.01.138.027.276.029.414.029,1.993.029,1.981,2.039,1.932.44-.011.65-.091.64-.593-.033-1.58-.023-3.161-.029-4.742m9.35,10.657c-1.515.022-1.318-.183-1.329,1.045-.014,1.622,0,1.622,1.083,1.623,1.581,0,1.581,0,1.581-1.128,0-1.54,0-1.54-1.336-1.54" transform="translate(-87.334 -191.448)" fill="#2941a0"/>
    <path id="Trazado_275568" data-name="Trazado 275568" d="M258.542,222.165c-.071.352-.12.71-.217,1.055-.384,1.359-1.108,1.7-2.331.982-.548-.324-.388-1.1-.586-1.652-.143-.4.318-.458.559-.588a4.945,4.945,0,0,1,1.824-.515c.56-.063.876.076.751.718" transform="translate(-198.496 -172.111)" fill="#89ebd4"/>
    <path id="Trazado_275569" data-name="Trazado 275569" d="M172.114,280.484a8.839,8.839,0,0,1,.2,3.945,1.614,1.614,0,0,1-1.34,1.386,7.912,7.912,0,0,1-5.674-1.008,7.73,7.73,0,0,1-3.488-6.63,7.951,7.951,0,0,1,.2-1.562,1.479,1.479,0,0,1,1.281-1.142,7.637,7.637,0,0,1,8.467,4.265q.174.373.35.746m-7.017-2.5c-.625-.012-.641.005-.621.652a5.031,5.031,0,0,0,4.7,4.677c.545.018.65-.172.629-.665a5.016,5.016,0,0,0-4.7-4.664" transform="translate(-125.771 -213.98)" fill="#020101"/>
    <path id="Trazado_275570" data-name="Trazado 275570" d="M99.206,270.913c-.821-.766-1.629-1.548-2.469-2.293-.419-.371-.463-.628-.033-1.057,1.389-1.39,1.371-1.408,2.758-.021,2.9,2.9,5.789,5.822,8.722,8.693.553.541.484.817-.025,1.3-1.276,1.215-1.253,1.239-2.522-.029-1.059-1.059-2.132-2.105-3.17-3.184a1.52,1.52,0,0,0-1.231-.523c-1.58.035-3.162,0-4.742.022-.494.008-.665-.117-.673-.645-.03-2.033-.051-2.033,1.938-2.033h1.3l.15-.232" transform="translate(-74.472 -207.148)" fill="#020101"/>
    <path id="Trazado_275571" data-name="Trazado 275571" d="M230.143,269.331c.006,1.581,0,3.162.029,4.742.011.5-.2.582-.64.593-2.01.049-2.009.061-2.039-1.932,0-.138-.019-.276-.029-.414.01-.8.043-1.592.021-2.387-.012-.454.117-.644.6-.619.684.037,1.372.014,2.059.017" transform="translate(-176.799 -209.325)" fill="#020101"/>
    <path id="Trazado_275572" data-name="Trazado 275572" d="M198.994,230.126c-1.324,0-1.324,0-1.324-1.552,0-1.116,0-1.116,1.593-1.116,1.075,0,1.086,0,1.071,1.635-.011,1.218.193,1.01-1.34,1.033" transform="translate(-153.641 -176.794)" fill="#020101"/>
    <path id="Trazado_275573" data-name="Trazado 275573" d="M146.464,240.765c0,1.331,0,1.331-1.545,1.33-1.123,0-1.123,0-1.122-1.587,0-1.082,0-1.092,1.629-1.077,1.224.011,1.017-.2,1.039,1.334" transform="translate(-111.767 -186.097)" fill="#020101"/>
    <path id="Trazado_275574" data-name="Trazado 275574" d="M73.373,311.261c1.26,0,1.26,0,1.26,1.533,0,1.136,0,1.136-1.574,1.135-1.094,0-1.094,0-1.093-1.616,0-1.052,0-1.052,1.408-1.052" transform="translate(-55.935 -241.93)" fill="#020101"/>
    <path id="Trazado_275575" data-name="Trazado 275575" d="M276.818,317.243c1.336,0,1.336,0,1.336,1.54,0,1.129,0,1.129-1.581,1.128-1.088,0-1.1,0-1.083-1.623.01-1.228-.186-1.023,1.329-1.045" transform="translate(-214.124 -246.58)" fill="#020101"/>
    <path id="Trazado_275576" data-name="Trazado 275576" d="M174.37,287.347a5.016,5.016,0,0,1,4.7,4.664c.021.493-.084.683-.629.665a5.031,5.031,0,0,1-4.7-4.677c-.021-.647,0-.664.621-.652" transform="translate(-135.044 -223.341)" fill="#89ebd4"/>
  </g>
</svg>
