<svg id="Grupo_145019" data-name="Grupo 145019" xmlns="http://www.w3.org/2000/svg" xmlns:xlink="http://www.w3.org/1999/xlink" width="79.539" height="80" viewBox="0 0 79.539 80">
  <defs>
    <clipPath id="clip-path">
      <rect id="Rectángulo_45736" data-name="Rectángulo 45736" width="79.539" height="80" fill="none"/>
    </clipPath>
  </defs>
  <g id="Grupo_145018" data-name="Grupo 145018" clip-path="url(#clip-path)">
    <path id="Trazado_275577" data-name="Trazado 275577" d="M70.511,79.4A8.42,8.42,0,0,1,73,82.483l-3.437.033c-1.418.014-1.967.733-1.578,2.109.73,2.585,1.465,5.17,2.227,7.746.158.536.085.819-.491.989a13.122,13.122,0,0,0-2.642,1.217c-1.405.782-1.4.783-.664,2.081a10.529,10.529,0,0,0-1.723,1.393,2.488,2.488,0,0,0-1.381-.376c-4.363.014-8.727,0-13.09.01-1.367,0-1.922.741-1.549,2.065.744,2.645,1.486,5.292,2.272,7.925.165.554.059.78-.469,1.009a15.531,15.531,0,0,0-8.616,9.1c-.88,2.325-1.019,4.813-1.442,7.237a12.808,12.808,0,0,0-.26,4.357,8.927,8.927,0,0,0,3.2,5.329c-.26.34-.632.189-.954.195-1.169.019-2.337.01-3.506.012a1.364,1.364,0,0,1-.024-.342c.156-.849-.154-1.1-1.035-1.066-1.978.078-3.965-.056-5.942.042a5.63,5.63,0,0,1-5.969-6.436c.471-3.9.845-7.816,1.271-11.723.778-7.13,1.629-14.253,2.331-21.391a23.264,23.264,0,0,1,17.26-20.385,5.882,5.882,0,0,1,2.713-.351c-.276.368-.473.638-.677.9q-2.853,3.67-5.708,7.339c-1.2,1.542-1.186,1.521.306,2.733.5.4.759.434,1.181-.123,2.029-2.674,4.107-5.312,6.173-7.958.125-.16.2-.4.5-.441V85.992c0,2.056,0,2.031,2.014,2.057.589.008.767-.121.762-.741-.033-3.56-.016-7.121-.016-10.681V75.51C56.125,78.2,58.072,80.7,60.021,83.2c1.206,1.549,1.19,1.522,2.733.367.527-.395.586-.631.16-1.17-2.381-3.017-4.718-6.07-7.07-9.11q.063-.057.122-.118a7.545,7.545,0,0,1,.853.07,23.332,23.332,0,0,1,11.8,6c.926.872.924.873,1.893.158" transform="translate(-19.917 -56.317)" fill="#e1e2e0"/>
    <path id="Trazado_275578" data-name="Trazado 275578" d="M187.278,172.415A10.5,10.5,0,0,1,189,171.023c.863.994.859.986,2.014.325a14.045,14.045,0,0,1,1.457-.738,8.614,8.614,0,0,1,2.59-.819c-.042.41-.307.571-.486.782-1.561,1.839-3.116,3.683-4.708,5.5-.375.428-.45.66.031,1.079,1.558,1.354,1.539,1.376,2.878-.219.037-.044.07-.091.108-.134l4.42-5.141v6.659c0,2.055,0,2.029,2.073,2.026.6,0,.7-.209.7-.742-.025-2.384-.015-4.768,0-7.152,0-.2-.131-.452.148-.623,1.462,1.707,2.924,3.4,4.372,5.111,1.346,1.588,1.321,1.571,2.881.219.484-.42.405-.655.032-1.081-1.61-1.835-3.186-3.7-4.767-5.559-.166-.195-.438-.348-.411-.674a.89.89,0,0,1,.216-.026,3.852,3.852,0,0,1,.417.1,15.153,15.153,0,0,1,10.028,9.1c1.039,2.485,1.093,5.148,1.366,7.765.509,4.88.933,9.769,1.461,14.647a5.54,5.54,0,0,1-5.727,6.472q-5.644.011-11.289,0c-1.45,0-1.45,0-1.519,1.381l-4.754-.026a8.4,8.4,0,0,0,3.422-8.679c-.27-1.55-.489-3.11-.722-4.667-.9-6.008-4-10.38-9.584-12.9-.461-.208-.571-.384-.423-.884.782-2.633,1.5-5.284,2.282-7.918a1.935,1.935,0,0,0-.22-1.79" transform="translate(-142.504 -130.68)" fill="#0092b8"/>
    <path id="Trazado_275579" data-name="Trazado 275579" d="M61.347,23.079c-.969.715-.968.714-1.893-.158a23.332,23.332,0,0,0-11.8-6,7.554,7.554,0,0,0-.854-.07c-.041-.027-.1-.088-.121-.077-.108.056-.052.129,0,.2,2.352,3.04,4.688,6.093,7.07,9.11.425.539.367.776-.16,1.17-1.544,1.156-1.527,1.182-2.733-.367-1.95-2.5-3.9-5.008-5.986-7.694v1.116c0,3.56-.017,7.121.016,10.681.006.62-.173.749-.762.741-2.013-.026-2.014,0-2.014-2.057V19.4c-.3.043-.375.281-.5.441-2.066,2.646-4.144,5.283-6.173,7.958-.423.557-.684.527-1.181.123-1.492-1.211-1.507-1.191-.306-2.733q2.856-3.668,5.708-7.339c.2-.263.4-.533.677-.9a5.879,5.879,0,0,0-2.713.351,23.263,23.263,0,0,0-17.26,20.384c-.7,7.138-1.552,14.261-2.331,21.391-.426,3.907-.8,7.821-1.271,11.723a5.63,5.63,0,0,0,5.969,6.436c1.976-.1,3.964.036,5.942-.042.881-.035,1.191.217,1.035,1.066a1.363,1.363,0,0,0,.024.342c-.07,1.376-.07,1.376-1.493,1.376H22.81c-5.828,0-9.451-4.212-8.753-10.011C14.8,63.783,15.4,57.583,16.1,51.395c.618-5.417.882-10.889,1.886-16.244,1.8-9.61,7.472-16.153,16.533-19.763.589-.234.765-.4.579-1.07-1.118-4-2.176-8.015-3.256-12.024C31.414.688,31.922,0,33.56,0q9.823,0,19.647,0c1.629,0,2.138.667,1.691,2.224-1.161,4.046-2.315,8.094-3.507,12.131-.151.511-.058.665.429.828a26.541,26.541,0,0,1,9.9,6.048c.637.6.7.984-.04,1.462a1.828,1.828,0,0,0-.334.385M43.31,2.76c-2.613,0-5.225.007-7.838-.007-.461,0-.65.015-.488.6.969,3.475,1.9,6.961,2.811,10.451.128.489.347.569.787.478a24.479,24.479,0,0,1,9.409-.075c.537.1.613-.1.731-.518q1.461-5.121,2.969-10.227c.173-.583.059-.718-.545-.711-2.612.03-5.225.013-7.837.013" transform="translate(-10.754 0)" fill="#030303"/>
    <path id="Trazado_275580" data-name="Trazado 275580" d="M112.057,179.928a1.935,1.935,0,0,1,.22,1.79c-.779,2.634-1.5,5.285-2.283,7.918-.148.5-.038.676.423.884,5.58,2.521,8.687,6.892,9.584,12.9.232,1.557.451,3.117.722,4.667a8.4,8.4,0,0,1-3.422,8.679,10.1,10.1,0,0,1-5.655,1.419c-4.791-.05-9.584-.064-14.375.005a10.935,10.935,0,0,1-6.55-1.6,8.927,8.927,0,0,1-3.2-5.329,12.8,12.8,0,0,1,.26-4.357c.423-2.424.562-4.912,1.442-7.237a15.531,15.531,0,0,1,8.616-9.1c.527-.229.634-.455.469-1.009-.785-2.633-1.527-5.28-2.272-7.925-.372-1.324.182-2.063,1.549-2.065,4.363-.006,8.727,0,13.09-.01a2.488,2.488,0,0,1,1.381.376M101.1,192.513c-.281-.207-.561-.039-.809.047a12.923,12.923,0,0,0-9.047,10.229c-.4,1.967-.628,3.966-.97,5.944a5.534,5.534,0,0,0,5.57,6.674q8.315.023,16.63,0a5.531,5.531,0,0,0,5.57-6.674c-.288-1.667-.533-3.342-.792-5.014-.855-5.513-3.842-9.275-9.145-11.127-.271-.095-.561-.318-.875-.088l.043-.1-.062-.02.035.115c1.442,2.035,2.846,4.1,4.346,6.089.533.707.459,1.022-.259,1.487-1.43.927-1.4.969-2.426-.46l-3.37-4.707v4.63c0,2.16,0,2.141-2.153,2.1-.5-.009-.627-.154-.617-.634.029-1.405.01-2.812.01-4.218V194.9c-1.183,1.653-2.2,3.076-3.218,4.5-1.193,1.661-1.176,1.634-2.854.469-.54-.375-.449-.621-.126-1.066,1.517-2.087,3-4.2,4.5-6.3a.467.467,0,0,0,.029-.079c0-.008-.023-.02-.035-.03l.027.118m8.121-10.194c-3.284,0-6.462,0-9.641,0-.327,0-.481.067-.373.437q.924,3.171,1.826,6.348a.377.377,0,0,0,.493.323,16.623,16.623,0,0,1,5.305,0,.341.341,0,0,0,.44-.283c.638-2.25,1.284-4.5,1.95-6.825" transform="translate(-67.283 -138.193)" fill="#010202"/>
    <path id="Trazado_275581" data-name="Trazado 275581" d="M208.484,166.029c.07-1.381.07-1.381,1.519-1.381q5.644,0,11.289,0a5.54,5.54,0,0,0,5.727-6.472c-.527-4.878-.952-9.767-1.46-14.647-.273-2.617-.327-5.28-1.366-7.765a15.153,15.153,0,0,0-10.028-9.1,3.822,3.822,0,0,0-.417-.1.886.886,0,0,0-.216.026c-.027.325.246.479.411.674,1.581,1.86,3.157,3.724,4.767,5.559.373.426.452.661-.032,1.081-1.56,1.353-1.535,1.369-2.881-.219-1.448-1.708-2.91-3.4-4.372-5.111-.278.171-.147.425-.148.623-.011,2.384-.021,4.768,0,7.152.006.533-.1.741-.7.742-2.073,0-2.073.029-2.073-2.026V128.4l-4.42,5.141c-.038.044-.071.09-.108.134-1.339,1.6-1.32,1.573-2.878.219-.482-.419-.407-.652-.031-1.079,1.591-1.813,3.146-3.657,4.708-5.5.179-.211.444-.372.486-.782a8.618,8.618,0,0,0-2.59.819,14.028,14.028,0,0,0-1.457.738c-1.155.66-1.15.668-2.013-.325-.741-1.3-.741-1.3.664-2.082a13.105,13.105,0,0,1,2.642-1.217c.576-.17.649-.453.491-.989-.761-2.576-1.5-5.161-2.227-7.746-.389-1.376.161-2.1,1.579-2.109l3.437-.033,9.47.033c1.643.005,2.162.7,1.706,2.291-.716,2.5-1.427,5.009-2.172,7.5-.165.553-.122.806.487,1.055,7.014,2.866,10.886,8.125,11.7,15.627.6,5.5,1.1,11.017,1.677,16.524.208,1.984.38,3.959-.513,5.828a7.978,7.978,0,0,1-7.376,4.918c-4.217.1-8.439.02-12.658.041-.489,0-.668-.129-.607-.617a4.875,4.875,0,0,0-.02-.772m6.472-49.64c-3.289,0-6.466,0-9.643-.005-.448,0-.44.194-.341.533q.888,3.047,1.749,6.1c.089.317.205.5.582.447a18.152,18.152,0,0,1,5.222,0,.389.389,0,0,0,.5-.326c.627-2.223,1.27-4.442,1.934-6.752" transform="translate(-153.712 -87.43)" fill="#010202"/>
    <path id="Trazado_275582" data-name="Trazado 275582" d="M2.75,92.255c.632-5.5.847-11,3.116-16.116A32.216,32.216,0,0,1,15.6,63.557c.388-.3.577-.308.844.115.365.58,1.087,1.106,1.114,1.681.026.553-.889.856-1.376,1.284A28.794,28.794,0,0,0,6.189,86.181c-.2,2.112-.464,4.219-.677,6.33-.041.406-.168.55-.59.474-.535-.1-1.081-.135-1.623-.187-.384-.036-.7-.112-.549-.543" transform="translate(-2.086 -48.751)" fill="#030303"/>
    <path id="Trazado_275583" data-name="Trazado 275583" d="M295.745,161.047c-.658.083-.477-.49-.527-.766a20.747,20.747,0,0,0-3.294-8.037,20.273,20.273,0,0,0-7.555-6.732c-.508-.262-.636-.469-.361-1.021.95-1.905.943-1.943,2.744-.829a23.515,23.515,0,0,1,11.234,16.413c.1.545-.015.718-.535.757-.57.043-1.137.141-1.7.215" transform="translate(-218.478 -109.999)" fill="#030303"/>
    <path id="Trazado_275584" data-name="Trazado 275584" d="M2.923,204.645c-.379.4.475,1.586-.639,1.59-.7,0-2.009.482-2.153-.722-.074-.621-.484-2.139.666-2.1,2.635.1,2.241-.068,2.126,1.229" transform="translate(0 -156.559)" fill="#030303"/>
    <path id="Trazado_275585" data-name="Trazado 275585" d="M113.33,11.937c2.613,0,5.225.017,7.837-.013.6-.007.718.128.545.711q-1.517,5.1-2.969,10.227c-.118.414-.195.615-.731.518a24.479,24.479,0,0,0-9.409.075c-.44.091-.659.011-.787-.478C106.9,19.486,105.973,16,105,12.526c-.162-.581.027-.6.488-.6,2.613.014,5.225.007,7.838.007" transform="translate(-80.773 -9.177)" fill="#e1e2e0"/>
    <path id="Trazado_275586" data-name="Trazado 275586" d="M155.769,73.028c-.051-.066-.107-.139,0-.2.021-.011.08.05.121.077q-.059.061-.122.118" transform="translate(-119.841 -56.055)" fill="#e1e2e0"/>
    <path id="Trazado_275587" data-name="Trazado 275587" d="M110.293,235.444c-1.5,2.1-2.984,4.211-4.5,6.3-.323.444-.414.69.126,1.066,1.678,1.165,1.661,1.193,2.854-.469,1.02-1.42,2.035-2.844,3.218-4.5v1.881c0,1.406.019,2.812-.01,4.218-.01.48.119.625.617.634,2.153.04,2.153.059,2.153-2.1v-4.63l3.37,4.707c1.023,1.429,1,1.387,2.426.46.718-.465.791-.78.259-1.487-1.5-1.991-2.9-4.054-4.346-6.089l-.019.008c.316-.231.606-.008.877.087,5.3,1.852,8.291,5.614,9.145,11.127.259,1.672.5,3.347.792,5.014a5.531,5.531,0,0,1-5.57,6.674q-8.315.025-16.63,0a5.534,5.534,0,0,1-5.57-6.674c.343-1.978.574-3.977.97-5.944A12.923,12.923,0,0,1,109.5,235.5c.249-.086.528-.254.81-.047Z" transform="translate(-76.495 -181.132)" fill="#55c1bf"/>
    <path id="Trazado_275588" data-name="Trazado 275588" d="M148.493,191.552c-.667,2.328-1.313,4.575-1.95,6.825a.341.341,0,0,1-.44.283,16.623,16.623,0,0,0-5.305,0,.377.377,0,0,1-.493-.323q-.9-3.178-1.826-6.348c-.108-.37.047-.438.373-.437,3.178.006,6.357,0,9.641,0" transform="translate(-106.555 -147.426)" fill="#55c1bf"/>
    <path id="Trazado_275589" data-name="Trazado 275589" d="M146.718,235.426l-.027-.118c.012.01.036.022.035.029a.586.586,0,0,1-.028.08l.02.009" transform="translate(-112.901 -181.106)" fill="#55c1bf"/>
    <path id="Trazado_275590" data-name="Trazado 275590" d="M173.378,235.365l-.035-.115.062.02-.044.1.018-.008" transform="translate(-133.414 -181.061)" fill="#55c1bf"/>
    <path id="Trazado_275591" data-name="Trazado 275591" d="M232.337,125.7c-.664,2.31-1.306,4.529-1.934,6.752a.389.389,0,0,1-.5.326,18.153,18.153,0,0,0-5.222,0c-.377.056-.493-.13-.582-.447q-.86-3.055-1.749-6.1c-.1-.338-.107-.534.341-.533,3.177.01,6.354.005,9.643.005" transform="translate(-171.093 -96.744)" fill="#0092b8"/>
  </g>
</svg>
