<svg xmlns="http://www.w3.org/2000/svg" xmlns:xlink="http://www.w3.org/1999/xlink" width="187" height="187" viewBox="0 0 187 187">
  <defs>
    <clipPath id="clip-path">
      <circle id="Elipse_154" data-name="Elipse 154" cx="83.5" cy="83.5" r="83.5" transform="translate(0.08 0.269)" fill="#ebf9ff" stroke="#707070" stroke-width="1"/>
    </clipPath>
    <clipPath id="clip-path-2">
      <rect id="Rectángulo_46197" data-name="Rectángulo 46197" width="96.195" height="106.574" fill="none"/>
    </clipPath>
  </defs>
  <g id="Grupo_147241" data-name="Grupo 147241" transform="translate(-397.001 -5447.25)">
    <g id="Grupo_131421" data-name="Grupo 131421" transform="translate(406.92 5456.98)">
      <g id="Enmascarar_grupo_17" data-name="Enmascarar grupo 17" transform="translate(0 0.001)" clip-path="url(#clip-path)">
        <g id="Elipse_5506" data-name="Elipse 5506" transform="translate(-35.92 -35.731)" fill="#ebf9ff" stroke="#707070" stroke-width="1">
          <circle cx="120" cy="120" r="120" stroke="none"/>
          <circle cx="120" cy="120" r="119.5" fill="none"/>
        </g>
      </g>
      <g id="Elipse_157" data-name="Elipse 157" transform="translate(0.081 0.27)" fill="none" stroke="#00ffe6" stroke-linejoin="round" stroke-width="10">
        <circle cx="83.5" cy="83.5" r="83.5" stroke="none"/>
        <circle cx="83.5" cy="83.5" r="88.5" fill="none"/>
      </g>
    </g>
    <g id="Grupo_146178" data-name="Grupo 146178" transform="translate(5 3)">
      <g id="Grupo_146175" data-name="Grupo 146175" transform="translate(422 5479.887)">
        <g id="Grupo_146174" data-name="Grupo 146174" clip-path="url(#clip-path-2)">
          <path id="Trazado_277027" data-name="Trazado 277027" d="M21.042,86.792c.437-1.4.762-1.638,2.229-1.641,1.6,0,3.191-.023,4.786.012.541.012.7-.131.7-.687-.019-7.6-.011-15.191-.018-22.787a.851.851,0,0,0-.2-.744c-5.089-5.064-9.675-10.59-14.512-15.886-4.3-4.712-8.536-9.486-12.8-14.235C-.5,28.9-.4,27.284,1.531,25.552Q3.12,24.129,4.7,22.7c2.1-1.9,3.635-1.838,5.506.245q8.971,9.981,17.936,19.968c.139.154.282.3.476.511a2.1,2.1,0,0,0,.116-1.115q.009-18.989.005-37.979C28.742,1.363,30.1,0,33.05,0H91.944c2.818,0,4.235,1.4,4.236,4.193,0,6.416-.014,12.833.015,19.249.005,1.122-.337,1.883-1.475,2.166-1.361-.33-1.66-.692-1.661-2.066,0-6.412-.016-12.824.015-19.235,0-.892-.233-1.267-1.171-1.2-1.069.077-2.146.04-3.219.052a1.342,1.342,0,0,0-.205-.031q-27.833,0-55.666-.019c-.841,0-.958.388-.958,1.087q.018,21.069,0,42.139a1.751,1.751,0,0,0,.505,1.29c1.34,1.452,2.65,2.933,3.978,4.4a3.188,3.188,0,0,1,1.013,2.1,5.541,5.541,0,0,0,.441,1.9q.907,2.429,1.795,4.864c.5,1.385.348,2.409-.515,3.137a2.609,2.609,0,0,1-3.182.171c-1.3-.689-2.631-1.307-4.023-1.991,0,7.5.012,14.849-.019,22.2,0,.719.287.75.848.748q9.26-.023,18.521-.009,6.971,0,13.942,0c2.753,0,4.182,1.417,4.189,4.138,0,.867-.008,1.734,0,2.6A11.487,11.487,0,0,0,82.032,103.4a6.128,6.128,0,0,0,2.153-.258,11.418,11.418,0,0,0,8.869-11.45q.019-20.805.005-41.61c0-1.473.277-1.821,1.681-2.154,1.132.3,1.457,1.064,1.455,2.179-.022,13.906,0,27.811-.018,41.717a14.477,14.477,0,0,1-12.49,14.563c-.075.012-.134.122-.2.187H14.171c-.233-.385-.665-.3-1-.383A14.613,14.613,0,0,1,1.911,92.259c-.018-1.108-.021-2.216,0-3.324A3.645,3.645,0,0,1,5.622,85.16c3.324-.034,6.648,0,9.972-.015a1.773,1.773,0,0,1,1.913,1.645,1.883,1.883,0,0,1-2.147,1.5c-3.052-.052-6.105.01-9.157-.035-.923-.014-1.256.31-1.184,1.21.055.689.009,1.387.011,2.08.022,6.966,4.96,11.9,11.944,11.9q26.849.01,53.7-.005c.285,0,.609.132.91-.151a14.7,14.7,0,0,1-4.833-7.475,17.983,17.983,0,0,1-.54-4.215c-.03-1.055.494-2.391-.25-3.093s-2.057-.225-3.118-.226q-19.773-.026-39.545.006c-1.166,0-1.948-.327-2.252-1.5M36.051,60.53l0,.056.009-.031-1-2.576L33.46,59.452c1,.314,1.667.977,2.59,1.078m-1.786-6.088c-.245-.286-.4-.471-.556-.649Q22.806,41.653,11.9,29.516c-.279-.31-.455-.751-1.038-.25-.628.54-.187.787.124,1.132L23.279,44.083q4.757,5.3,9.519,10.588c.175.194.3.639.716.367.255-.165.478-.378.749-.6m-3.376,2.913c-.221-.267-.407-.509-.61-.735q-6-6.693-12.013-13.382-4.828-5.375-9.654-10.751c-.338-.378-.565-.723-1.1-.165-.5.523-.045.721.2.993q6.521,7.276,13.055,14.542,4.376,4.872,8.758,9.739c.166.184.291.565.628.4a3.9,3.9,0,0,0,.737-.64m-26-27.118c.375,0,.515-.228.69-.382.729-.641,1.448-1.295,2.171-1.943,1.647-1.474,1.634-1.461.026-3.037-.335-.328-.517-.311-.833-.017-.964.9-1.967,1.756-2.923,2.662-.278.264-.923.508-.7.889a12.666,12.666,0,0,0,1.565,1.828" transform="translate(0 0)" fill="#020201"/>
          <path id="Trazado_277028" data-name="Trazado 277028" d="M39.992,415.2c.3,1.172,1.087,1.5,2.253,1.5q19.773-.042,39.545-.006c1.06,0,2.388-.464,3.118.226s.22,2.039.25,3.094a17.994,17.994,0,0,0,.54,4.215A14.7,14.7,0,0,0,90.53,431.7c-.3.283-.624.151-.91.151q-26.849.012-53.7.005c-6.983,0-11.921-4.936-11.943-11.9,0-.694.044-1.391-.011-2.081-.072-.9.261-1.224,1.184-1.211,3.052.045,6.106-.018,9.157.035a1.883,1.883,0,0,0,2.147-1.5l3.536,0" transform="translate(-18.95 -328.41)" fill="#9bc5da"/>
          <path id="Trazado_277029" data-name="Trazado 277029" d="M405.144,59.661c-1.4.332-1.681.68-1.681,2.154q0,20.8-.005,41.61a11.418,11.418,0,0,1-8.869,11.451,6.123,6.123,0,0,1-2.153.258c.253-.179.5-.359.759-.536a12.571,12.571,0,0,0,5.863-10.648q.1-44.528.03-89.056c1.073-.012,2.151.026,3.219-.052.938-.068,1.175.307,1.171,1.2-.031,6.412-.018,12.823-.015,19.235,0,1.375.3,1.736,1.661,2.066q-.007,1.791-.014,3.581c-1.362.351-1.647.7-1.648,2.078q-.006,5.5,0,11.01c0,1.37.3,1.734,1.661,2.064q.01,1.793.019,3.587" transform="translate(-310.405 -11.732)" fill="#bcdef2"/>
          <path id="Trazado_277030" data-name="Trazado 277030" d="M209.185,14.928q0,44.528-.03,89.056a12.57,12.57,0,0,1-5.863,10.648c-.255.176-.506.357-.759.536a11.487,11.487,0,0,1-12.683-11.51c-.011-.867,0-1.734,0-2.6-.007-2.721-1.436-4.136-4.189-4.138q-6.971-.005-13.942,0-9.26,0-18.521.009c-.561,0-.852-.029-.848-.748.031-7.352.019-14.7.019-22.2,1.392.685,2.726,1.3,4.023,1.991a2.61,2.61,0,0,0,3.182-.171c.863-.728,1.02-1.752.515-3.138q-.888-2.436-1.795-4.864a5.546,5.546,0,0,1-.441-1.9,3.188,3.188,0,0,0-1.013-2.1c-1.328-1.463-2.638-2.944-3.978-4.4a1.75,1.75,0,0,1-.505-1.29q.021-21.07,0-42.139c0-.7.116-1.088.957-1.087q27.833.029,55.666.019a1.339,1.339,0,0,1,.205.031m-26.223,6.661q-10.25,0-20.5,0c-1.614,0-2.145.522-2.149,2.1q-.01,4.006,0,8.013c0,1.576.539,2.1,2.149,2.1q20.5,0,41,0c1.639,0,2.15-.528,2.153-2.2q.006-3.85,0-7.7c0-1.856-.466-2.311-2.36-2.311q-10.146,0-20.292,0m5.354,45.893H175.847c-1.623,0-2.352.467-2.371,1.515-.02,1.08.77,1.608,2.416,1.608q12.469,0,24.938,0a5.812,5.812,0,0,0,1.136-.068,1.427,1.427,0,0,0,1.255-1.634,1.408,1.408,0,0,0-1.4-1.4c-.309-.031-.623-.018-.934-.018H188.315m-.048-13.407h1.143c4.018,0,8.036.008,12.054-.005,1.178,0,1.849-.667,1.766-1.672-.078-.944-.759-1.442-2.04-1.443q-12.834-.008-25.668,0c-1.292,0-2.035.584-2.048,1.56-.014.991.7,1.557,2.01,1.559q6.391.007,12.782,0m.14,29.9h-7.691c-1.871,0-3.742-.016-5.612.01a1.528,1.528,0,0,0-1.629,1.52,1.6,1.6,0,0,0,1.594,1.588c.172.015.346.005.519.005h25.567a2.567,2.567,0,0,0,1.122-.145,1.47,1.47,0,0,0,.931-1.67A1.409,1.409,0,0,0,201.916,84a6.283,6.283,0,0,0-.934-.025H188.407m-23.453-13.7a5.324,5.324,0,1,0-5.3-5.389,5.287,5.287,0,0,0,5.3,5.389M165,43.137a5.318,5.318,0,0,0-5.35,5.337,5.33,5.33,0,0,0,10.66.023,5.278,5.278,0,0,0-5.31-5.36m5.31,38.256a5.33,5.33,0,1,0-5.3,5.368,5.321,5.321,0,0,0,5.3-5.368m8.573-31.048c1.213,0,2.426.022,3.638-.007a1.559,1.559,0,1,0-.005-3.1c-2.425-.029-4.85-.025-7.275,0a1.593,1.593,0,0,0-1.766,1.616c.033.894.689,1.471,1.772,1.492,1.212.024,2.425.006,3.638,0m.019,16.514c1.178,0,2.356.022,3.533-.006,1.148-.028,1.794-.629,1.785-1.588s-.653-1.516-1.827-1.524q-3.534-.024-7.067,0c-1.151.007-1.836.59-1.853,1.514-.017.956.7,1.582,1.9,1.6s2.356,0,3.533,0m-.062,16.488c1.213,0,2.427.018,3.639-.005a1.567,1.567,0,0,0,1.742-1.524c.024-.953-.646-1.58-1.766-1.587q-3.588-.024-7.175,0c-1.12.007-1.82.632-1.811,1.559s.72,1.54,1.836,1.555c1.178.016,2.357,0,3.535,0m-2.274-38.83a1.562,1.562,0,0,0-1.451-1.7,1.589,1.589,0,0,0-1.632,1.429,1.537,1.537,0,0,0,1.465,1.675,1.5,1.5,0,0,0,1.618-1.4m.006,16.374A1.543,1.543,0,0,0,175,59.314a1.578,1.578,0,0,0-1.525,1.537,1.539,1.539,0,0,0,1.591,1.556,1.489,1.489,0,0,0,1.506-1.515m0,16.5a1.491,1.491,0,0,0-1.467-1.552,1.525,1.525,0,0,0-1.632,1.506,1.591,1.591,0,0,0,1.589,1.584,1.549,1.549,0,0,0,1.51-1.538" transform="translate(-120.502 -11.768)" fill="#e1f2fd"/>
          <path id="Trazado_277031" data-name="Trazado 277031" d="M74.162,164.323a9.585,9.585,0,0,1-.749.6c-.42.272-.541-.174-.716-.368q-4.771-5.284-9.519-10.588-6.146-6.843-12.293-13.685c-.31-.346-.751-.592-.123-1.132.582-.5.759-.06,1.037.25Q62.7,151.534,73.607,163.675c.159.178.311.363.556.649" transform="translate(-39.898 -109.882)" fill="#9bc5da"/>
          <path id="Trazado_277032" data-name="Trazado 277032" d="M58.456,178.549a3.911,3.911,0,0,1-.737.64c-.337.166-.462-.215-.628-.4q-4.387-4.862-8.758-9.739-6.53-7.269-13.055-14.542c-.244-.272-.7-.47-.2-.993.535-.557.762-.212,1.1.165q4.82,5.382,9.654,10.75,6.008,6.69,12.013,13.382c.2.226.389.468.61.735" transform="translate(-27.567 -121.195)" fill="#9bc5da"/>
          <path id="Trazado_277033" data-name="Trazado 277033" d="M17.278,123.445a12.666,12.666,0,0,1-1.565-1.828c-.227-.382.418-.626.7-.889.957-.906,1.959-1.763,2.923-2.662.316-.295.5-.312.833.017,1.609,1.577,1.621,1.563-.026,3.037-.724.648-1.442,1.3-2.171,1.943-.175.154-.316.379-.69.382" transform="translate(-12.391 -93.208)" fill="#22afd6"/>
          <path id="Trazado_277034" data-name="Trazado 277034" d="M162.663,279.92c-.924-.1-1.593-.766-2.591-1.08l1.608-1.473,1,2.576Z" transform="translate(-126.612 -219.389)" fill="#9bc5da"/>
          <path id="Trazado_277035" data-name="Trazado 277035" d="M172.479,289.6l-.009.031,0-.055.014.024" transform="translate(-136.415 -229.046)" fill="#9bc5da"/>
          <path id="Trazado_277036" data-name="Trazado 277036" d="M213.085,46.983h20.291c1.894,0,2.359.455,2.36,2.311q0,3.85,0,7.7c0,1.676-.513,2.2-2.153,2.2q-20.5,0-41,0c-1.609,0-2.144-.525-2.148-2.1q-.011-4.006,0-8.012c0-1.579.536-2.1,2.149-2.1q10.25-.006,20.5,0m-.1,9.1c6.24,0,12.481-.012,18.721.016.726,0,.962-.189.929-.925a35.77,35.77,0,0,1,.006-3.95c.062-.935-.237-1.143-1.147-1.139-8.667.037-17.334.022-26,.022-3.675,0-7.35.019-11.024-.016-.73-.007-.959.2-.929.929.056,1.35.069,2.706,0,4.054-.045.838.231,1.033,1.04,1.028,6.136-.034,12.272-.018,18.409-.018" transform="translate(-150.625 -37.161)" fill="#020201"/>
          <path id="Trazado_277037" data-name="Trazado 277037" d="M268.265,266.529h12.573c.312,0,.625-.013.934.018a1.409,1.409,0,0,1,1.4,1.4,1.427,1.427,0,0,1-1.256,1.634,5.812,5.812,0,0,1-1.136.068q-12.469.005-24.938,0c-1.646,0-2.436-.528-2.416-1.609.019-1.048.748-1.515,2.371-1.515h12.469" transform="translate(-200.452 -210.815)" fill="#020201"/>
          <path id="Trazado_277038" data-name="Trazado 277038" d="M268.214,190.578q-6.391,0-12.782,0c-1.307,0-2.024-.567-2.01-1.559.013-.975.756-1.559,2.048-1.56q12.834-.008,25.668,0c1.281,0,1.962.5,2.04,1.443.083,1.005-.588,1.669-1.766,1.672-4.018.013-8.036.005-12.054.005h-1.143" transform="translate(-200.449 -148.27)" fill="#020201"/>
          <path id="Trazado_277039" data-name="Trazado 277039" d="M268.353,345.4h12.576a6.257,6.257,0,0,1,.934.024,1.41,1.41,0,0,1,1.292,1.283,1.47,1.47,0,0,1-.931,1.67,2.565,2.565,0,0,1-1.122.145H255.534c-.173,0-.347.01-.519-.005a1.6,1.6,0,0,1-1.594-1.588,1.528,1.528,0,0,1,1.629-1.52c1.87-.026,3.741-.01,5.612-.01h7.691" transform="translate(-200.448 -273.197)" fill="#020201"/>
          <path id="Trazado_277040" data-name="Trazado 277040" d="M192.6,239.6a5.324,5.324,0,1,1,5.361-5.311A5.333,5.333,0,0,1,192.6,239.6m2.2-5.313a2.131,2.131,0,0,0-2.153-2.187,2.177,2.177,0,1,0-.025,4.353,2.146,2.146,0,0,0,2.178-2.166" transform="translate(-148.15 -181.098)" fill="#020201"/>
          <path id="Trazado_277041" data-name="Trazado 277041" d="M192.654,150.068a5.278,5.278,0,0,1,5.31,5.36,5.33,5.33,0,1,1-5.31-5.36m-.059,3.162a2.164,2.164,0,0,0-2.144,2.209,2.237,2.237,0,0,0,2.237,2.148,2.193,2.193,0,0,0,2.118-2.242,2.1,2.1,0,0,0-2.21-2.115" transform="translate(-148.152 -118.699)" fill="#020201"/>
          <path id="Trazado_277042" data-name="Trazado 277042" d="M197.963,313.042a5.33,5.33,0,0,1-10.659.143,5.33,5.33,0,1,1,10.659-.143m-5.271,2.207a2.1,2.1,0,0,0,2.114-2.212,2.19,2.19,0,0,0-2.216-2.144,2.235,2.235,0,0,0-2.138,2.244,2.164,2.164,0,0,0,2.241,2.111" transform="translate(-148.151 -243.417)" fill="#020201"/>
          <path id="Trazado_277043" data-name="Trazado 277043" d="M258.838,172.7c-1.213,0-2.426.019-3.638-.005-1.082-.022-1.739-.6-1.772-1.493a1.593,1.593,0,0,1,1.766-1.616q3.637-.036,7.275,0a1.559,1.559,0,1,1,.005,3.1c-1.212.029-2.425.007-3.638.007" transform="translate(-200.453 -134.122)" fill="#020201"/>
          <path id="Trazado_277044" data-name="Trazado 277044" d="M258.858,251.712c-1.178,0-2.356.015-3.533,0s-1.913-.645-1.9-1.6c.017-.924.7-1.506,1.853-1.514q3.533-.022,7.067,0c1.174.008,1.817.57,1.827,1.524s-.637,1.56-1.784,1.588c-1.177.029-2.356.006-3.533.006" transform="translate(-200.454 -196.62)" fill="#020201"/>
          <path id="Trazado_277045" data-name="Trazado 277045" d="M258.78,330.594c-1.178,0-2.357.013-3.536,0-1.115-.015-1.827-.633-1.835-1.555s.691-1.553,1.811-1.559q3.588-.021,7.175,0c1.121.008,1.79.635,1.766,1.588a1.567,1.567,0,0,1-1.742,1.524c-1.213.023-2.426.005-3.639.005" transform="translate(-200.438 -259.015)" fill="#020201"/>
          <path id="Trazado_277046" data-name="Trazado 277046" d="M256.535,150.223a1.5,1.5,0,0,1-1.618,1.4,1.538,1.538,0,0,1-1.465-1.675,1.588,1.588,0,0,1,1.632-1.429,1.562,1.562,0,0,1,1.451,1.7" transform="translate(-200.467 -117.475)" fill="#020201"/>
          <path id="Trazado_277047" data-name="Trazado 277047" d="M256.532,229.034a1.489,1.489,0,0,1-1.506,1.515,1.539,1.539,0,0,1-1.591-1.556,1.578,1.578,0,0,1,1.525-1.537,1.543,1.543,0,0,1,1.572,1.577" transform="translate(-200.459 -179.911)" fill="#020201"/>
          <path id="Trazado_277048" data-name="Trazado 277048" d="M256.532,308.036a1.549,1.549,0,0,1-1.51,1.538,1.591,1.591,0,0,1-1.589-1.584,1.525,1.525,0,0,1,1.632-1.506,1.491,1.491,0,0,1,1.467,1.552" transform="translate(-200.457 -242.418)" fill="#020201"/>
          <path id="Trazado_277049" data-name="Trazado 277049" d="M224.711,67.8c-6.136,0-12.273-.015-18.409.018-.81,0-1.085-.19-1.04-1.028.073-1.348.06-2.7,0-4.054-.03-.732.2-.936.929-.929,3.675.036,7.35.016,11.024.016,8.667,0,17.334.015,26-.022.91,0,1.209.2,1.147,1.139a35.774,35.774,0,0,0-.006,3.95c.032.736-.2.929-.929.925-6.24-.028-12.48-.016-18.721-.016" transform="translate(-162.352 -48.886)" fill="#22afd6"/>
          <path id="Trazado_277050" data-name="Trazado 277050" d="M206.706,246.2a2.146,2.146,0,0,1-2.178,2.166,2.177,2.177,0,1,1,.025-4.353,2.131,2.131,0,0,1,2.153,2.187" transform="translate(-160.05 -193.007)" fill="#89ebd4"/>
          <path id="Trazado_277051" data-name="Trazado 277051" d="M204.5,165.194a2.1,2.1,0,0,1,2.21,2.115,2.193,2.193,0,0,1-2.118,2.242,2.237,2.237,0,0,1-2.237-2.148,2.164,2.164,0,0,1,2.144-2.209" transform="translate(-160.055 -130.663)" fill="#89ebd4"/>
          <path id="Trazado_277052" data-name="Trazado 277052" d="M204.6,327.158a2.164,2.164,0,0,1-2.241-2.111A2.235,2.235,0,0,1,204.5,322.8a2.19,2.19,0,0,1,2.216,2.144,2.1,2.1,0,0,1-2.114,2.212" transform="translate(-160.06 -255.326)" fill="#89ebd4"/>
        </g>
      </g>
      <g id="Elipse_7352" data-name="Elipse 7352" transform="translate(495 5503.25)" fill="#89ebd4" stroke="#000" stroke-width="3">
        <circle cx="27.5" cy="27.5" r="27.5" stroke="none"/>
        <circle cx="27.5" cy="27.5" r="26" fill="none"/>
      </g>
      <path id="Trazado_277058" data-name="Trazado 277058" d="M122.338,204.183a7.188,7.188,0,0,1-5.144-2.251c-.624-.665-.94-.729-1.629-.036a7.381,7.381,0,0,1-7.9,1.867c-1.243-.382-1.722-1.161-1.417-2.152.273-.887,1.138-1.2,2.338-.841a4.585,4.585,0,0,0,6.054-3.309,4.646,4.646,0,0,0-3.788-5.708,4.711,4.711,0,0,0-5.178,3.207c-.039.123-.042.258-.08.382a1.675,1.675,0,0,1-1.948,1.349,1.641,1.641,0,0,1-1.077-2.184,7.568,7.568,0,0,1,3.54-4.82,5.718,5.718,0,0,1,2.248-.9c.751-.087.8-.344.594-1.008a7.543,7.543,0,0,1,2.168-8.093,1.667,1.667,0,0,1,1.658-.6,1.557,1.557,0,0,1,.676,2.685,5.464,5.464,0,0,0-1.621,2.607,4.634,4.634,0,0,0,2.628,5.309,4.7,4.7,0,0,0,5.728-1.562,4.618,4.618,0,0,0-.4-5.838c-.134-.142-.281-.271-.417-.412a1.575,1.575,0,1,1,2.15-2.282A7.8,7.8,0,0,1,124,183.8a7.309,7.309,0,0,1-.25,4.125c-.2.562-.059.7.5.833a7.491,7.491,0,0,1,5.878,5.618c.328,1.171-.065,2.027-1,2.3-.885.256-1.678-.333-2.012-1.492a4.7,4.7,0,0,0-5.1-3.465,4.756,4.756,0,0,0-4.077,4.938,4.653,4.653,0,0,0,5.6,4.258c.379-.089.749-.219,1.129-.3a1.5,1.5,0,0,1,1.8.959,1.477,1.477,0,0,1-.726,1.914,7.522,7.522,0,0,1-3.4.7" transform="translate(406.139 5339.143)"/>
    </g>
  </g>
</svg>
