<svg xmlns="http://www.w3.org/2000/svg" xmlns:xlink="http://www.w3.org/1999/xlink" width="187" height="187" viewBox="0 0 187 187">
  <defs>
    <clipPath id="clip-path">
      <circle id="Elipse_154" data-name="Elipse 154" cx="83.5" cy="83.5" r="83.5" transform="translate(0.08 0.269)" fill="#ebf9ff" stroke="#707070" stroke-width="1"/>
    </clipPath>
    <clipPath id="clip-path-2">
      <rect id="Rectángulo_46198" data-name="Rectángulo 46198" width="81.243" height="100" fill="none"/>
    </clipPath>
  </defs>
  <g id="Grupo_147242" data-name="Grupo 147242" transform="translate(-1017.002 -5447.25)">
    <g id="Grupo_130165" data-name="Grupo 130165" transform="translate(1026.921 5456.98)">
      <g id="Enmascarar_grupo_17" data-name="Enmascarar grupo 17" transform="translate(0 0.001)" clip-path="url(#clip-path)">
        <g id="Elipse_5506" data-name="Elipse 5506" transform="translate(-35.92 -35.731)" fill="#ebf9ff" stroke="#707070" stroke-width="1">
          <circle cx="120" cy="120" r="120" stroke="none"/>
          <circle cx="120" cy="120" r="119.5" fill="none"/>
        </g>
      </g>
      <g id="Elipse_157" data-name="Elipse 157" transform="translate(0.081 0.27)" fill="none" stroke="#00ffe6" stroke-linejoin="round" stroke-width="10">
        <circle cx="83.5" cy="83.5" r="83.5" stroke="none"/>
        <circle cx="83.5" cy="83.5" r="88.5" fill="none"/>
      </g>
    </g>
    <g id="Grupo_146177" data-name="Grupo 146177" transform="translate(1070.379 5483.408)">
      <g id="Grupo_146176" data-name="Grupo 146176" clip-path="url(#clip-path-2)">
        <path id="Trazado_277053" data-name="Trazado 277053" d="M53.713,0c1.14,1,1.225,1.443.525,2.842q-2.373,4.749-4.761,9.491c-.249.491-.318.769.225,1.184a4.285,4.285,0,0,1,1.721,4.645c-.213.9.419.695.829.736A23.474,23.474,0,0,1,73.437,42.454c0,13.505.018,27.011-.033,40.516,0,1.1.283,1.425,1.338,1.6a7.748,7.748,0,0,1,.751,15.135A8.575,8.575,0,0,1,73.18,100q-32.556-.007-65.112-.007A7.765,7.765,0,0,1,6.715,84.541c.962-.161,1.128-.5,1.126-1.382-.029-13.635-.149-27.272.022-40.906.127-10.1,5.064-17.294,14.2-21.573a19.73,19.73,0,0,1,6.951-1.769c.626-.047.969-.077.782-.947a4.189,4.189,0,0,1,1.689-4.39c.595-.455.545-.758.252-1.331-1.6-3.121-3.151-6.264-4.717-9.4-.7-1.4-.62-1.816.525-2.842ZM40.588,96.871H55.429c5.988,0,11.977.015,17.965-.007a4.642,4.642,0,0,0,4.363-6.4A4.789,4.789,0,0,0,73.113,87.5c-2.619-.051-2.8-.215-2.8-2.858q0-21.043,0-42.086a22.872,22.872,0,0,0-.365-4.069A20.331,20.331,0,0,0,50.285,21.882c-6.444-.032-12.888-.007-19.332-.005a18.562,18.562,0,0,0-5.281.791A20.311,20.311,0,0,0,10.948,42.381q-.01,21.092.013,42.184c0,2.348-.136,3.037-2.932,2.956a4.615,4.615,0,0,0-4.181,2.267,4.252,4.252,0,0,0-.124,4.628A4.534,4.534,0,0,0,7.88,96.867q16.354.009,32.709,0m-9.9-93.706c1.528,3.053,3,5.979,4.452,8.915.2.412.518.422.887.422,3.056,0,6.113-.014,9.169.01a1,1,0,0,0,1.05-.649C47.1,10.077,48,8.31,48.887,6.537l1.685-3.372ZM40.61,18.749c2.015,0,4.03.009,6.044,0a1.572,1.572,0,0,0,1.781-1.515c.027-.96-.665-1.6-1.792-1.6q-6-.014-11.991,0c-1.149,0-1.834.605-1.83,1.564s.686,1.549,1.841,1.554c1.982.01,3.965,0,5.947,0" transform="translate(0)"/>
        <path id="Trazado_277054" data-name="Trazado 277054" d="M49.363,158.783q-16.354,0-32.709,0a4.534,4.534,0,0,1-4.156-2.451,4.253,4.253,0,0,1,.124-4.628,4.615,4.615,0,0,1,4.181-2.267c2.8.081,2.937-.608,2.932-2.956q-.045-21.092-.013-42.184A20.31,20.31,0,0,1,34.447,84.579a18.559,18.559,0,0,1,5.281-.791c6.444,0,12.888-.026,19.332.005A20.331,20.331,0,0,1,78.725,100.4a22.852,22.852,0,0,1,.365,4.069q-.012,21.043,0,42.086c0,2.643.182,2.807,2.8,2.858a4.789,4.789,0,0,1,4.645,2.961,4.642,4.642,0,0,1-4.363,6.4c-5.988.021-11.977.006-17.965.006H49.363m6.012-24.99a7.522,7.522,0,0,0,3.4-.7,1.477,1.477,0,0,0,.726-1.914,1.5,1.5,0,0,0-1.8-.959c-.38.083-.75.213-1.129.3a4.653,4.653,0,0,1-5.6-4.258,4.756,4.756,0,0,1,4.077-4.938,4.7,4.7,0,0,1,5.1,3.465c.335,1.16,1.128,1.748,2.012,1.492.934-.27,1.328-1.125,1-2.3a7.491,7.491,0,0,0-5.878-5.618c-.557-.13-.694-.271-.5-.833a7.309,7.309,0,0,0,.25-4.125,7.8,7.8,0,0,0-2.478-4.214,1.575,1.575,0,1,0-2.15,2.282c.136.14.283.27.417.412a4.618,4.618,0,0,1,.4,5.838,4.7,4.7,0,0,1-5.728,1.562,4.634,4.634,0,0,1-2.628-5.309,5.464,5.464,0,0,1,1.621-2.607,1.557,1.557,0,0,0-.676-2.685,1.667,1.667,0,0,0-1.658.6,7.543,7.543,0,0,0-2.168,8.093c.2.665.157.921-.594,1.008a5.718,5.718,0,0,0-2.248.9,7.568,7.568,0,0,0-3.54,4.82,1.641,1.641,0,0,0,1.077,2.184,1.675,1.675,0,0,0,1.948-1.349c.037-.124.04-.259.08-.382a4.71,4.71,0,0,1,5.178-3.207,4.646,4.646,0,0,1,3.788,5.708,4.585,4.585,0,0,1-6.054,3.309c-1.2-.357-2.065-.046-2.338.841-.305.992.174,1.771,1.417,2.152a7.381,7.381,0,0,0,7.9-1.867c.689-.693,1-.629,1.629.036a7.188,7.188,0,0,0,5.144,2.251" transform="translate(-8.775 -61.912)" fill="#89ebd4"/>
        <path id="Trazado_277055" data-name="Trazado 277055" d="M117.562,12.126H137.45L135.765,15.5c-.885,1.773-1.783,3.54-2.646,5.325a1,1,0,0,1-1.05.649c-3.056-.024-6.112-.013-9.169-.009-.369,0-.683-.01-.887-.422-1.452-2.936-2.924-5.862-4.452-8.915" transform="translate(-86.878 -8.961)" fill="#89ebd4"/>
        <path id="Trazado_277056" data-name="Trazado 277056" d="M133.54,62.981c-1.982,0-3.965.007-5.947,0-1.155-.005-1.837-.595-1.841-1.554s.681-1.562,1.83-1.564q6-.011,11.991,0c1.128,0,1.819.642,1.792,1.6a1.572,1.572,0,0,1-1.781,1.516c-2.015.013-4.03,0-6.044,0" transform="translate(-92.93 -44.232)" fill="#22afd6"/>
        <path id="Trazado_277057" data-name="Trazado 277057" d="M122.338,204.183a7.188,7.188,0,0,1-5.144-2.251c-.624-.665-.94-.729-1.629-.036a7.381,7.381,0,0,1-7.9,1.867c-1.243-.382-1.722-1.161-1.417-2.152.273-.887,1.138-1.2,2.338-.841a4.585,4.585,0,0,0,6.054-3.309,4.646,4.646,0,0,0-3.788-5.708,4.711,4.711,0,0,0-5.178,3.207c-.039.123-.042.258-.08.382a1.675,1.675,0,0,1-1.948,1.349,1.641,1.641,0,0,1-1.077-2.184,7.568,7.568,0,0,1,3.54-4.82,5.718,5.718,0,0,1,2.248-.9c.751-.087.8-.344.594-1.008a7.543,7.543,0,0,1,2.168-8.093,1.667,1.667,0,0,1,1.658-.6,1.557,1.557,0,0,1,.676,2.685,5.464,5.464,0,0,0-1.621,2.607,4.634,4.634,0,0,0,2.628,5.309,4.7,4.7,0,0,0,5.728-1.562,4.618,4.618,0,0,0-.4-5.838c-.134-.142-.281-.271-.417-.412a1.575,1.575,0,1,1,2.15-2.282A7.8,7.8,0,0,1,124,183.8a7.309,7.309,0,0,1-.25,4.125c-.2.562-.059.7.5.833a7.491,7.491,0,0,1,5.878,5.618c.328,1.171-.065,2.027-1,2.3-.885.256-1.678-.333-2.012-1.492a4.7,4.7,0,0,0-5.1-3.465,4.756,4.756,0,0,0-4.077,4.938,4.653,4.653,0,0,0,5.6,4.258c.379-.089.749-.219,1.129-.3a1.5,1.5,0,0,1,1.8.959,1.477,1.477,0,0,1-.726,1.914,7.522,7.522,0,0,1-3.4.7" transform="translate(-75.739 -132.303)"/>
      </g>
    </g>
  </g>
</svg>
