<svg xmlns="http://www.w3.org/2000/svg" xmlns:xlink="http://www.w3.org/1999/xlink" width="68.876" height="80" viewBox="0 0 68.876 80">
  <defs>
    <clipPath id="clip-path">
      <rect id="Rectángulo_46309" data-name="Rectángulo 46309" width="68.876" height="80" fill="none"/>
    </clipPath>
  </defs>
  <g id="Grupo_146219" data-name="Grupo 146219" clip-path="url(#clip-path)">
    <path id="Trazado_277371" data-name="Trazado 277371" d="M37.844,0c.4.3.91.246,1.349.45a5.148,5.148,0,0,1,3.326,4.437A2.753,2.753,0,0,1,39.95,7.94c-3.73.562-6.131,2.867-7.746,6.09-.657,1.312-.425,1.771.81,2.549a3.836,3.836,0,0,1,1.878,2.905,8.914,8.914,0,0,1,.119,1.476A2.241,2.241,0,0,0,36.574,23.3a16.856,16.856,0,0,0,4.372,1.077,14.933,14.933,0,0,1,3.512.672,9.142,9.142,0,0,1,4.122,3.574,1.286,1.286,0,0,0,1.064.64c1.556.111,3.118.2,4.66.423,3.654.526,5.313,3.382,4.045,6.844a8.494,8.494,0,0,1-1.056,2.076,1.587,1.587,0,0,0-.157,1.677,15.976,15.976,0,0,1,1.1,2.989,2.828,2.828,0,0,1-.33,2.1,1.194,1.194,0,0,0-.087,1.165,41.117,41.117,0,0,1,1.456,3.937c.878,3.574-2.566,5.2-4.869,4.416a13.462,13.462,0,0,1-2.858-1.569,3.839,3.839,0,0,0-1.323-.642c-.477-.09-.753-.021-.527.6a5.569,5.569,0,0,1,.378,3.205A3.408,3.408,0,0,1,47.6,59.226c-.149.044-.3.1-.444.145-.854.282-.954.493-.572,1.3a11.625,11.625,0,0,1,1.008,2.855,5.868,5.868,0,0,1-.213,3.452,12.114,12.114,0,0,0-.716,5.975,13.158,13.158,0,0,1-.068,3.5,4.187,4.187,0,0,1-3.909,3.534A3.191,3.191,0,0,1,39.4,77.747c-.513-1.257-.675-2.611-1.072-3.9-.612-1.988-1.3-2.41-3.34-1.961a13.061,13.061,0,0,1-4.626.484A4.193,4.193,0,0,1,26.715,69.6a.951.951,0,0,0-.629-.6,3.017,3.017,0,0,1-1.995-2.4.942.942,0,0,0-.619-.786,2.793,2.793,0,0,1-1.581-2.1,1.491,1.491,0,0,0-.755-1.014,28.7,28.7,0,0,0-6.476-2.827.84.84,0,0,0-.921.169,2.881,2.881,0,0,1-3.474.331A13.228,13.228,0,0,1,7.686,58.5,10.473,10.473,0,0,0,3.744,56.3,5.482,5.482,0,0,1,.065,52.176a1.824,1.824,0,0,1,.342-1.632A1.689,1.689,0,0,0,.79,49.2,2.475,2.475,0,0,1,2.369,46.6a5.548,5.548,0,0,1,2.2-.484,1.958,1.958,0,0,0,1.691-.942A6.824,6.824,0,0,0,7.4,40.576c-.115-1.261.074-1.588,1.2-2.153l30.3.011q7.185,0,14.37-.008c.23,0,.551.166.687-.173.408-1.016,1.154-1.854,1.5-2.9.485-1.468.071-2.238-1.447-2.55a23.623,23.623,0,0,0-3.65-.317c-1.927-.093-3.57-.57-4.644-2.436A4.972,4.972,0,0,0,41.6,27.6a19.046,19.046,0,0,1-6.492-1.535A5.072,5.072,0,0,1,31.958,22a13.933,13.933,0,0,1-.085-1.558A1.53,1.53,0,0,0,31,19.016a4.245,4.245,0,0,1-2.117-4.846,7.054,7.054,0,0,1,.723-2.05,14.275,14.275,0,0,1,9.674-7.357A2.561,2.561,0,0,0,36.1,3.184a9.041,9.041,0,0,0-4.111,2.287,10.151,10.151,0,0,1-2.529,1.665,47.518,47.518,0,0,1-7,2.37,1.807,1.807,0,0,0-1.436,1.416,12.536,12.536,0,0,1-2.3,4.478,3.64,3.64,0,0,1-1.915,1.529,1.423,1.423,0,0,0-.962.776,5.658,5.658,0,0,1-4.559,3.25,1.453,1.453,0,0,0-.711.288A4.689,4.689,0,0,0,8.56,25.41a1.941,1.941,0,0,1-.909,1.983c-1.338.263-2.025-.228-2.2-1.572-.431-3.36,2.055-7.34,5.108-7.869a3.6,3.6,0,0,0,2.753-2.106c.171-.32.343-.641.543-.944.292-.443.678-.946,1.183-.941,1.121.013,1.462-.81,1.926-1.529a10.107,10.107,0,0,0,1.192-2.776A4.068,4.068,0,0,1,21.067,6.69c2.2-.677,4.435-1.272,6.569-2.162a8.239,8.239,0,0,0,2.311-1.412,11.842,11.842,0,0,1,5.631-3c.033-.006.053-.077.079-.118ZM32.52,41.561c-7.057,0-14.113.009-21.17-.015-.638,0-.811.177-.863.809A9.078,9.078,0,0,1,8.7,47.113a4.8,4.8,0,0,1-3.825,2.1c-.586.019-1.085.036-.861.91a2.046,2.046,0,0,1-.4,1.553c-.1.159-.355.305-.157.535.386.449.708,1.058,1.331,1.142A8.534,8.534,0,0,1,9.026,55.55c.747.608,1.493,1.215,2.251,1.809.189.148.4.37.646.031a2.323,2.323,0,0,1,2.535-.746,16.191,16.191,0,0,1,2.843.817,2.764,2.764,0,0,0,.984.2q12.655-.011,25.31-.006a.836.836,0,0,0,.718-.2,3.875,3.875,0,0,1,2.032-1.093c.673-.157.81-.583.658-1.167s-.358-1.141-.5-1.719a2.723,2.723,0,0,1,1.651-3.512,4.22,4.22,0,0,1,3.976.106c.918.482,1.776,1.079,2.671,1.608.414.245.9.447,1.319.124s.075-.786-.041-1.148c-.421-1.309-1.118-2.519-1.425-3.871a3.048,3.048,0,0,1,.251-2.489,1.033,1.033,0,0,0,.056-1.149,4.309,4.309,0,0,1-.335-.787c-.165-.678-.567-.817-1.243-.814-6.952.03-13.9.019-20.857.019M23.805,60.78a2.969,2.969,0,0,1,1.028,1.847c.036.314.2.414.493.491a1.95,1.95,0,0,1,1.734,2.214c0,.522.137.812.691.924a2.06,2.06,0,0,1,1.772,1.826,1.31,1.31,0,0,0,1.383,1.2,11.2,11.2,0,0,0,3.386-.452c3.585-.835,5.98.548,7.02,4.1.336,1.145.617,2.307.908,3.465.132.527.436.5.808.289a1.026,1.026,0,0,0,.471-.767,9.952,9.952,0,0,0,.049-2.721,13.749,13.749,0,0,1,.655-6.534,4.731,4.731,0,0,0-.171-4.062,6.061,6.061,0,0,1-.534-1.208c-.123-.578-.451-.624-.943-.623q-8.94.021-17.879.009Z" transform="translate(0 0.001)" fill="#020202"/>
    <path id="Trazado_277372" data-name="Trazado 277372" d="M36.639,39.16a1.941,1.941,0,0,0,.909-1.983,4.688,4.688,0,0,1,2.015-4.168,1.45,1.45,0,0,1,.711-.288,5.658,5.658,0,0,0,4.558-3.25A1.423,1.423,0,0,1,45.8,28.7a3.641,3.641,0,0,0,1.915-1.529,12.539,12.539,0,0,0,2.3-4.478,1.807,1.807,0,0,1,1.436-1.416,47.527,47.527,0,0,0,7-2.37,10.15,10.15,0,0,0,2.529-1.665,9.036,9.036,0,0,1,4.111-2.287,2.561,2.561,0,0,1,3.185,1.58A14.277,14.277,0,0,0,58.6,23.888a7.059,7.059,0,0,0-.723,2.05,4.245,4.245,0,0,0,2.117,4.846,1.531,1.531,0,0,1,.868,1.429,13.938,13.938,0,0,0,.085,1.558A5.072,5.072,0,0,0,64.1,37.832a19.037,19.037,0,0,0,6.492,1.535,4.972,4.972,0,0,1,4.121,2.449c1.074,1.866,2.717,2.344,4.644,2.436A23.6,23.6,0,0,1,83,44.57c1.518.313,1.933,1.083,1.447,2.55-.347,1.048-1.093,1.886-1.5,2.9-.136.34-.457.173-.687.173q-7.185.016-14.37.008l-30.3-.011.185-3.872c1.1-.211,1.607-.735,1.584-1.639-.022-.866-.541-1.361-1.607-1.534a9.658,9.658,0,0,0-1.115-3.986" transform="translate(-28.988 -11.767)" fill="#fdc044"/>
    <path id="Trazado_277373" data-name="Trazado 277373" d="M36.287,150.274c1.066.173,1.585.668,1.607,1.534.023.9-.483,1.428-1.584,1.639-1.013-.261-1.518-.783-1.526-1.578s.505-1.338,1.5-1.6" transform="translate(-27.521 -118.895)" fill="#070605"/>
    <path id="Trazado_277374" data-name="Trazado 277374" d="M45.364,198.969c6.952,0,13.9.012,20.857-.018.675,0,1.077.136,1.243.813a4.3,4.3,0,0,0,.335.788,1.033,1.033,0,0,1-.056,1.149,3.047,3.047,0,0,0-.251,2.489c.307,1.352,1,2.562,1.425,3.871.117.362.469.817.041,1.148s-.9.121-1.318-.124c-.895-.53-1.752-1.126-2.671-1.608a4.22,4.22,0,0,0-3.976-.106,2.723,2.723,0,0,0-1.652,3.512c.147.578.354,1.142.5,1.719s.015,1.01-.658,1.167a3.875,3.875,0,0,0-2.032,1.093.835.835,0,0,1-.718.2q-12.655,0-25.31.006a2.768,2.768,0,0,1-.984-.2,16.206,16.206,0,0,0-2.843-.816,2.323,2.323,0,0,0-2.535.746c-.25.339-.458.117-.646-.031-.758-.594-1.5-1.2-2.251-1.809a8.536,8.536,0,0,0-4.232-2.193c-.623-.084-.944-.693-1.331-1.142-.2-.23.056-.376.157-.535a2.046,2.046,0,0,0,.4-1.553c-.224-.875.275-.892.861-.91a4.8,4.8,0,0,0,3.825-2.1,9.077,9.077,0,0,0,1.783-4.757c.052-.633.225-.811.863-.81,7.056.023,14.113.015,21.17.015" transform="translate(-12.844 -157.407)" fill="#5fa3fe"/>
    <path id="Trazado_277375" data-name="Trazado 277375" d="M114,291.04h.871q8.939,0,17.879-.009c.492,0,.82.045.943.623a6.061,6.061,0,0,0,.534,1.208,4.731,4.731,0,0,1,.171,4.062,13.749,13.749,0,0,0-.655,6.534,9.952,9.952,0,0,1-.049,2.721,1.026,1.026,0,0,1-.471.767c-.372.208-.676.238-.808-.289-.29-1.158-.572-2.32-.908-3.465-1.04-3.549-3.435-4.932-7.02-4.1a11.2,11.2,0,0,1-3.386.452,1.309,1.309,0,0,1-1.383-1.2,2.06,2.06,0,0,0-1.772-1.826c-.554-.112-.687-.4-.691-.924a1.95,1.95,0,0,0-1.734-2.214c-.29-.077-.456-.177-.493-.491A2.969,2.969,0,0,0,114,291.04" transform="translate(-90.198 -230.26)" fill="#fd5957"/>
    <path id="Trazado_277376" data-name="Trazado 277376" d="M128.809,112.218a1.5,1.5,0,0,1,.407-1.427c1.367-1.731,2.691-3.5,4.082-5.207a.8.8,0,0,0-.012-1.217,31.783,31.783,0,0,1-5.135-9.1,16.739,16.739,0,0,1-.18-11.469,20.33,20.33,0,0,1,5.359-7.892,44.887,44.887,0,0,1,13.425-8.359A96.471,96.471,0,0,1,167.533,61.4c1.142-.211,1.509.065,1.588,1.218a91.207,91.207,0,0,1-1.516,25.357,38.085,38.085,0,0,1-4.547,12.125c-2.887,4.722-6.826,8.029-12.469,8.911a22.4,22.4,0,0,1-9.1-.647,37.457,37.457,0,0,1-5.8-2.033.569.569,0,0,0-.826.217c-1.4,1.835-2.84,3.646-4.242,5.483a1.231,1.231,0,0,1-1.314.578l-.5-.387m10.714-11.7c-.9,1.16-1.791,2.33-2.713,3.474-.342.424-.261.6.222.8a30.464,30.464,0,0,0,8.388,2.341c5.959.7,10.907-1.14,14.616-5.958a27.8,27.8,0,0,0,1.9-3.023c.214-.369-.01-.389-.261-.406-.795-.052-1.59-.093-2.385-.139q-8.1-.466-16.2-.939a1,1,0,0,0-.952.459c-.859,1.139-1.746,2.259-2.622,3.385m-1.5-1.167c.9-1.16,1.795-2.327,2.712-3.474a.857.857,0,0,0,.169-.911c-.515-1.552-1-3.115-1.49-4.674q-2.017-6.387-4.034-12.774c-.236-.746-.282-.771-.831-.18a29.16,29.16,0,0,0-3.065,3.643,14.494,14.494,0,0,0-2.062,11.773,27.815,27.815,0,0,0,5.109,10.145c.28.381.476.354.754-.014.9-1.188,1.824-2.357,2.738-3.533m27.8-12.4a.761.761,0,0,0-.152-.05q-7.255-.431-14.51-.862a.693.693,0,0,0-.636.319q-3.089,3.984-6.185,7.962c-.086.111-.24.215-.185.375.073.214.279.133.436.142q8.448.508,16.9,1.014c1.527.092,1.557.11,2.126-1.312a41.672,41.672,0,0,0,2.208-7.589m-19.886,2.224c1.03-1.325,2.057-2.653,3.1-3.973a.718.718,0,0,0,.174-.737q-2.135-6.744-4.243-13.5c-.1-.331-.2-.418-.552-.242a47.484,47.484,0,0,0-7.235,4.407.673.673,0,0,0-.288.882q2.715,8.506,5.41,17.019c.046.145.022.386.237.395.179.007.247-.2.347-.33q1.531-1.959,3.055-3.924m8.076-10.212c.953-1.225,1.9-2.455,2.863-3.673a.754.754,0,0,0,.158-.8q-1.208-3.607-2.372-7.228c-.137-.426-.3-.546-.768-.394-2.314.755-4.556,1.693-6.815,2.588-.5.2-.464.46-.331.878q1.922,6.084,3.815,12.177c.048.155.052.37.23.417.2.053.264-.172.36-.294q1.437-1.832,2.862-3.674m13.029-2.443c-.095-.006-.218-.016-.342-.024-2.573-.151-5.147-.294-7.718-.464a.757.757,0,0,0-.721.378c-.87,1.131-1.749,2.255-2.625,3.382q-1.507,1.938-3.012,3.878c-.1.124-.279.246-.168.432.084.142.264.1.407.1.544.033,1.088.06,1.632.092q5.585.334,11.17.673c.363.022.592-.03.651-.46.351-2.533.645-5.072.828-7.624.009-.122.053-.252-.1-.369m.249-11.717c-2.385,3.067-4.659,6-6.945,8.921-.31.4-.154.475.245.5,2.007.119,4.014.228,6.018.383.526.041.709-.094.715-.627.021-1.9.108-3.808.112-5.711a24.723,24.723,0,0,0-.145-3.464m-1.446-1.056a1.938,1.938,0,0,0-.344-.008c-2.945.646-5.873,1.357-8.753,2.255-.379.118-.36.336-.266.626q.958,2.958,1.91,5.918c.134.419.27.457.551.093,2.27-2.934,4.55-5.86,6.9-8.884" transform="translate(-100.513 -48.524)"/>
    <path id="Trazado_277377" data-name="Trazado 277377" d="M175.744,234.425c.876-1.127,1.763-2.246,2.622-3.385a1,1,0,0,1,.951-.459q8.1.481,16.2.939c.8.046,1.591.087,2.385.139.25.016.475.037.261.406a27.8,27.8,0,0,1-1.9,3.023c-3.709,4.818-8.657,6.654-14.616,5.958a30.457,30.457,0,0,1-8.388-2.341c-.483-.205-.564-.381-.222-.8.922-1.144,1.811-2.314,2.713-3.474" transform="translate(-136.734 -182.43)" fill="#20943c"/>
    <path id="Trazado_277378" data-name="Trazado 277378" d="M145.392,158.435c-.915,1.176-1.839,2.345-2.738,3.534-.278.368-.473.395-.754.014a27.815,27.815,0,0,1-5.109-10.145,14.494,14.494,0,0,1,2.062-11.773,29.162,29.162,0,0,1,3.065-3.643c.549-.591.595-.566.831.18q2.019,6.386,4.034,12.774c.492,1.559.975,3.122,1.49,4.674a.857.857,0,0,1-.169.911c-.917,1.148-1.81,2.314-2.712,3.474" transform="translate(-107.878 -107.607)" fill="#20943c"/>
    <path id="Trazado_277379" data-name="Trazado 277379" d="M230.635,180.579a41.675,41.675,0,0,1-2.208,7.589c-.569,1.422-.6,1.4-2.126,1.312q-8.448-.51-16.9-1.014c-.157-.009-.363.072-.436-.142-.055-.161.1-.264.185-.375q3.091-3.982,6.185-7.962a.693.693,0,0,1,.636-.319q7.255.435,14.51.862a.753.753,0,0,1,.152.05" transform="translate(-165.323 -142.149)" fill="#20943c"/>
    <path id="Trazado_277380" data-name="Trazado 277380" d="M183.026,124.454q-1.526,1.963-3.055,3.924c-.1.127-.167.337-.347.33-.215-.009-.191-.25-.237-.395q-2.707-8.509-5.41-17.019a.673.673,0,0,1,.288-.882A47.492,47.492,0,0,1,181.5,106c.352-.176.449-.088.552.242q2.11,6.752,4.243,13.5a.718.718,0,0,1-.174.738c-1.038,1.32-2.065,2.648-3.1,3.973" transform="translate(-137.6 -83.799)" fill="#20943c"/>
    <path id="Trazado_277381" data-name="Trazado 277381" d="M228.364,99.731q-1.43,1.838-2.862,3.674c-.1.122-.158.347-.36.294-.178-.047-.182-.262-.23-.417Q223.007,97.193,221.1,91.1c-.132-.419-.165-.682.331-.878,2.26-.895,4.5-1.833,6.815-2.588.466-.152.631-.032.768.394q1.166,3.621,2.372,7.228a.754.754,0,0,1-.158.8c-.962,1.218-1.91,2.448-2.863,3.673" transform="translate(-174.863 -69.289)" fill="#20943c"/>
    <path id="Trazado_277382" data-name="Trazado 277382" d="M263.207,132.237c.153.117.109.247.1.369-.184,2.551-.477,5.09-.828,7.624-.06.429-.288.482-.651.46q-5.584-.345-11.17-.673c-.544-.033-1.088-.06-1.632-.092-.143-.009-.323.037-.407-.1-.11-.186.072-.308.169-.432q1.5-1.942,3.012-3.878c.876-1.126,1.755-2.25,2.625-3.381a.758.758,0,0,1,.721-.379c2.572.17,5.146.312,7.719.464.124.007.248.017.342.024" transform="translate(-196.677 -104.236)" fill="#20943c"/>
    <path id="Trazado_277383" data-name="Trazado 277383" d="M292.867,77.983a24.685,24.685,0,0,1,.145,3.464c0,1.9-.09,3.808-.112,5.712-.006.533-.189.668-.715.627-2-.154-4.011-.264-6.018-.383-.4-.024-.555-.1-.245-.5,2.286-2.922,4.559-5.854,6.945-8.921" transform="translate(-226.088 -61.699)" fill="#20943c"/>
    <path id="Trazado_277384" data-name="Trazado 277384" d="M277.18,72.869c-2.352,3.024-4.632,5.95-6.9,8.884-.282.364-.417.326-.551-.093q-.947-2.962-1.91-5.918c-.094-.29-.113-.508.266-.626,2.88-.9,5.808-1.609,8.753-2.255a1.938,1.938,0,0,1,.344.008" transform="translate(-211.847 -57.642)" fill="#20943c"/>
  </g>
</svg>
