<svg id="Grupo_145916" data-name="Grupo 145916" xmlns="http://www.w3.org/2000/svg" xmlns:xlink="http://www.w3.org/1999/xlink" width="97.288" height="100" viewBox="0 0 97.288 100">
  <defs>
    <clipPath id="clip-path">
      <rect id="Rectángulo_46143" data-name="Rectángulo 46143" width="97.288" height="100" fill="none"/>
    </clipPath>
  </defs>
  <g id="Grupo_145915" data-name="Grupo 145915" clip-path="url(#clip-path)">
    <path id="Trazado_276478" data-name="Trazado 276478" d="M45.919,0a6.181,6.181,0,0,1,3.467,2.858c1.541,2.29,3.17,4.521,4.714,6.809a2.391,2.391,0,0,0,1.524,1.045C70.567,14.525,81.056,23.563,87.185,37.69a29.436,29.436,0,0,1,1.783,5.343c.2.9.519.828,1.141.445a19.621,19.621,0,0,1,2.052-1.111,2.5,2.5,0,0,1,3.789,1.966c.33,3.067.469,6.157.646,9.239.049.844-.566,1.255-1.291,1.505-1.292-.272-1.589-.622-1.685-2.084-.154-2.333-.309-4.667-.421-7-.032-.658-.17-.815-.78-.458-1.23.72-2.487,1.393-3.733,2.085-2.057,1.111-4.126,2.2-6.168,3.339-3.26,1.818-6.692,3.357-9.568,5.8-4.606,3.918-7.406,8.7-6.9,14.955a13.377,13.377,0,0,0,4.743,9.313c.491.426.744.415,1.041-.2.468-.963,1-1.9,1.542-2.822a1.687,1.687,0,0,0,.173-1.474c-.582-1.893-1.12-3.8-1.66-5.7-.326-1.151.027-1.938.949-2.186.848-.228,1.517.268,1.861,1.4s.671,2.251,1.06,3.555c.275-.468.445-.739.6-1.019q2.679-4.868,5.354-9.738a5.708,5.708,0,0,1,.3-.5,1.456,1.456,0,0,1,2.552,1.4c-.649,1.376-1.559,2.617-2.111,4.044a.381.381,0,0,0-.076.045c-.007.007.005.035.009.054l.047-.113a15,15,0,0,0,3.463-.847c1.113-.255,1.906.031,2.171.876.272.868-.253,1.614-1.4,1.952-1.931.571-3.862,1.143-5.8,1.689a1.305,1.305,0,0,0-.9.655q-2.482,4.586-4.992,9.156a6.777,6.777,0,0,1-.45.742c-.611.774-.34,1.066.539,1.31a13.369,13.369,0,0,0,9.6-.814c5.5-2.614,8.2-7.263,9.3-13.037A33.127,33.127,0,0,0,94.14,60.6a1.652,1.652,0,0,1,1.38-2,1.6,1.6,0,0,1,1.532,1.5c.356,4.135.45,8.266-.748,12.3-2.175,7.317-6.7,12.274-14.328,14.041a13.967,13.967,0,0,1-3.98.289,1.454,1.454,0,0,0-1.205.441A44.1,44.1,0,0,1,51.983,99.479a44.017,44.017,0,0,1-34.307-8.934A44.243,44.243,0,0,1,.937,63.772,45.325,45.325,0,0,1,27.512,13.121a42.5,42.5,0,0,1,7.585-2.45,1.855,1.855,0,0,0,1.234-.829c1.652-2.415,3.367-4.787,5-7.215A6.056,6.056,0,0,1,44.552,0ZM20.677,35.2a1.73,1.73,0,0,1,.272,2.362,40.711,40.711,0,0,0-3.079,6.827c-2.617,7.6-3.048,15.208.04,22.78A29.583,29.583,0,0,0,48.835,85.312a25.048,25.048,0,0,0,6.5-1.617c-4.5-4.053-5.6-9.126-4.735-14.736.654-4.237,1.552-8.436,2.334-12.654.457-2.462,2.122-3.149,4.155-1.7,2.647,1.889,5.3,3.77,7.926,5.688.526.384.748.324,1.092-.224a23.988,23.988,0,0,1,7.576-7.483,1.393,1.393,0,0,0,.71-1.666A42.564,42.564,0,0,0,70.84,39.928c-2.217-4.67-5.317-8.777-8.251-12.989q-8-11.487-16.035-22.953C45.579,2.592,44.978,2.6,44,3.976c-.132.185-.26.374-.391.56q-9.218,13.2-18.438,26.391c-.819,1.172-1.207,1.3-2.438.855a1.7,1.7,0,0,1-.05-2.441c3.036-4.3,6.04-8.63,9.054-12.949.475-.68.948-1.362,1.471-2.114A42.088,42.088,0,0,0,3.19,50.249C1.11,69.5,12.165,87.394,30.582,94.41c16.262,6.2,33.536.978,43.072-8.474A14.11,14.11,0,0,1,70.5,84.4a.822.822,0,0,0-1.115.037A10.772,10.772,0,0,1,59.373,85.85a2.072,2.072,0,0,0-1.561.052c-8.515,3.49-17.1,3.644-25.467-.211C20.134,80.064,13.494,70.423,12.9,56.9c-.329-7.516,1.993-14.41,5.565-20.93.519-.947,1.016-1.1,2.211-.772M57.454,14.229a1.754,1.754,0,0,0,.483.895q5.322,7.638,10.657,15.267a48.648,48.648,0,0,1,8.539,19.451c.146.822.466.453.81.265,2.678-1.459,5.342-2.946,8.039-4.371.541-.286.541-.554.408-1.066A42.145,42.145,0,0,0,65.1,17.368a36.794,36.794,0,0,0-7.647-3.139M53.293,73.065a10.6,10.6,0,0,0,4.151,8.468,8.428,8.428,0,0,0,9.331,1.092c.661-.319.914-.592.268-1.224a9.022,9.022,0,0,1-1.3-1.7,17.534,17.534,0,0,1-1.68-15.441.978.978,0,0,0-.428-1.35c-2.349-1.635-4.657-3.329-6.979-5-.951-.685-.939-.685-1.157.522-.295,1.63-.638,3.251-.907,4.885-.473,2.881-1.321,5.705-1.3,9.755" transform="translate(0)" fill="#030403"/>
    <path id="Trazado_276479" data-name="Trazado 276479" d="M305.567,186.964a1.652,1.652,0,0,0-1.38,2,33.127,33.127,0,0,1-.173,8.849c-1.1,5.773-3.8,10.423-9.3,13.037a13.369,13.369,0,0,1-9.6.814c-.879-.244-1.15-.535-.539-1.31a6.794,6.794,0,0,0,.45-.742c.2.249.452.208.713.151a16.192,16.192,0,0,0,7.916-4.155c4.086-3.9,5.743-8.852,6.045-14.34a38.231,38.231,0,0,0-.147-5.547c-.231-2.55-.25-5.118-.465-7.67a4.456,4.456,0,0,0-.353-2.069c1.246-.692,2.5-1.365,3.733-2.085.609-.357.748-.2.78.458.112,2.335.267,4.669.421,7,.1,1.462.394,1.812,1.685,2.084q.107,1.758.214,3.517" transform="translate(-210.047 -128.37)" fill="#4ebf22"/>
    <path id="Trazado_276480" data-name="Trazado 276480" d="M67.311,40.109c1.232.448,1.619.317,2.438-.855q9.22-13.194,18.437-26.39c.13-.187.259-.375.391-.56.981-1.377,1.582-1.384,2.558.01Q99.16,23.785,107.17,35.267c2.934,4.212,6.033,8.318,8.25,12.989a42.551,42.551,0,0,1,3.553,10.994,1.393,1.393,0,0,1-.71,1.666,23.988,23.988,0,0,0-7.576,7.483c-.344.548-.566.608-1.092.224-2.626-1.918-5.279-3.8-7.926-5.689-2.033-1.45-3.7-.763-4.155,1.7-.782,4.218-1.68,8.417-2.334,12.654-.866,5.61.24,10.683,4.735,14.736a25.046,25.046,0,0,1-6.5,1.617A29.583,29.583,0,0,1,62.49,75.493c-3.088-7.572-2.657-15.185-.04-22.78a40.689,40.689,0,0,1,3.079-6.827,1.73,1.73,0,0,0-.272-2.362,37.457,37.457,0,0,1,2.053-3.414" transform="translate(-44.58 -8.328)" fill="#98e5fb"/>
    <path id="Trazado_276481" data-name="Trazado 276481" d="M31.053,72.2A37.458,37.458,0,0,0,29,75.613c-1.2-.325-1.693-.175-2.212.772C23.217,82.9,20.895,89.8,21.224,97.315c.593,13.525,7.232,23.167,19.444,28.795,8.363,3.854,16.952,3.7,25.467.211a2.071,2.071,0,0,1,1.561-.052,10.772,10.772,0,0,0,10.017-1.413.822.822,0,0,1,1.115-.037,14.11,14.11,0,0,0,3.149,1.536c-9.536,9.452-26.81,14.67-43.072,8.474-18.417-7.016-29.471-24.909-27.392-44.161A42.089,42.089,0,0,1,41.529,54.695c-.523.752-1,1.434-1.471,2.114C37.043,61.128,34.04,65.454,31,69.758a1.7,1.7,0,0,0,.05,2.441" transform="translate(-8.323 -40.418)" fill="#f6f0ee"/>
    <path id="Trazado_276482" data-name="Trazado 276482" d="M275.5,182.419a4.459,4.459,0,0,1,.353,2.069c.214,2.552.234,5.12.465,7.67a38.161,38.161,0,0,1,.147,5.547c-.3,5.488-1.958,10.443-6.044,14.34a16.192,16.192,0,0,1-7.916,4.155c-.261.056-.517.1-.713-.151q2.5-4.576,4.992-9.156a1.306,1.306,0,0,1,.9-.655c1.938-.546,3.869-1.117,5.8-1.688,1.143-.338,1.668-1.084,1.4-1.952-.265-.845-1.058-1.13-2.171-.876a15.013,15.013,0,0,1-3.463.847l.021.015c.552-1.428,1.463-2.669,2.111-4.045a1.456,1.456,0,0,0-2.552-1.4,5.7,5.7,0,0,0-.3.5q-2.677,4.869-5.354,9.738c-.154.28-.323.551-.6,1.019-.388-1.3-.717-2.432-1.06-3.556s-1.014-1.625-1.861-1.4c-.922.248-1.275,1.036-.949,2.186.54,1.905,1.077,3.812,1.66,5.7a1.687,1.687,0,0,1-.173,1.474c-.544.924-1.074,1.859-1.542,2.822-.3.611-.55.623-1.041.2a13.376,13.376,0,0,1-4.742-9.313c-.508-6.254,2.293-11.036,6.9-14.955,2.876-2.447,6.309-3.986,9.568-5.8,2.042-1.139,4.111-2.228,6.168-3.339" transform="translate(-186.817 -134.801)" fill="#7fd060"/>
    <path id="Trazado_276483" data-name="Trazado 276483" d="M220.1,54.51a36.794,36.794,0,0,1,7.647,3.139,42.143,42.143,0,0,1,21.288,27.3c.133.512.133.78-.408,1.066-2.7,1.426-5.36,2.912-8.039,4.371-.344.187-.664.557-.81-.265a48.651,48.651,0,0,0-8.538-19.451Q225.9,63.045,220.584,55.4a1.754,1.754,0,0,1-.483-.895" transform="translate(-162.646 -40.281)" fill="#f6f0ee"/>
    <path id="Trazado_276484" data-name="Trazado 276484" d="M204.158,235.674c-.021-4.049.827-6.874,1.3-9.755.268-1.634.612-3.255.907-4.885.218-1.207.206-1.207,1.157-.522,2.322,1.674,4.63,3.368,6.979,5a.978.978,0,0,1,.428,1.35,17.534,17.534,0,0,0,1.68,15.441,9.022,9.022,0,0,0,1.3,1.7c.646.633.394.906-.268,1.224a8.427,8.427,0,0,1-9.331-1.092,10.6,10.6,0,0,1-4.151-8.468" transform="translate(-150.865 -162.609)" fill="#4ebf22"/>
    <path id="Trazado_276485" data-name="Trazado 276485" d="M315.616,259.6l-.047.113c0-.018-.016-.047-.009-.053a.372.372,0,0,1,.076-.045l-.021-.015" transform="translate(-233.186 -191.837)" fill="#7fd060"/>
  </g>
</svg>
