<svg xmlns="http://www.w3.org/2000/svg" xmlns:xlink="http://www.w3.org/1999/xlink" width="187" height="187" viewBox="0 0 187 187">
  <defs>
    <clipPath id="clip-path">
      <circle id="Elipse_154" data-name="Elipse 154" cx="83.5" cy="83.5" r="83.5" transform="translate(0.08 0.269)" fill="#ebf9ff" stroke="#707070" stroke-width="1"/>
    </clipPath>
    <clipPath id="clip-path-2">
      <rect id="Rectángulo_46259" data-name="Rectángulo 46259" width="121.349" height="121.345" fill="none"/>
    </clipPath>
  </defs>
  <g id="Grupo_147243" data-name="Grupo 147243" transform="translate(-916.002 -888.25)">
    <g id="Grupo_130165" data-name="Grupo 130165" transform="translate(925.921 897.98)">
      <g id="Enmascarar_grupo_17" data-name="Enmascarar grupo 17" transform="translate(0 0.001)" clip-path="url(#clip-path)">
        <g id="Elipse_5506" data-name="Elipse 5506" transform="translate(-35.92 -35.731)" fill="#ebf9ff" stroke="#707070" stroke-width="1">
          <circle cx="120" cy="120" r="120" stroke="none"/>
          <circle cx="120" cy="120" r="119.5" fill="none"/>
        </g>
      </g>
      <g id="Elipse_157" data-name="Elipse 157" transform="translate(0.081 0.27)" fill="none" stroke="#00ffe6" stroke-linejoin="round" stroke-width="10">
        <circle cx="83.5" cy="83.5" r="83.5" stroke="none"/>
        <circle cx="83.5" cy="83.5" r="88.5" fill="none"/>
      </g>
    </g>
    <g id="Grupo_146210" data-name="Grupo 146210" transform="translate(948.827 917.076)">
      <g id="Grupo_146209" data-name="Grupo 146209" clip-path="url(#clip-path-2)">
        <path id="Trazado_277088" data-name="Trazado 277088" d="M169.275,125.912c-.437.281-.294.782-.391,1.168a14.246,14.246,0,0,1-13.638,10.885c-3.627.055-7.256.023-10.884.013-1.727,0-2.454-.626-2.852-2.358.364-1.806,1.056-2.375,2.922-2.379,3.632-.008,7.268.1,10.894-.045a8.976,8.976,0,0,0,8.491-5.936,8.835,8.835,0,0,0-1.993-10.052,8.989,8.989,0,0,0-10.106-2.251c-2.061.735-2.858.441-3.973-1.462a13.237,13.237,0,0,0-22.429-1.021,2.623,2.623,0,0,1-2.558,1.355,4.884,4.884,0,0,1-1.6-.722c-4.083-2.045-8.06-1.842-11.666.958a10.657,10.657,0,0,0,4.9,18.97c3.322.526,6.7.127,10.049.2,1.865.041,2.552.574,2.922,2.385-.4,1.738-1.129,2.379-2.86,2.353-3.472-.053-6.959.27-10.414-.17a15.378,15.378,0,0,1-13.529-15.549c0-.307,0-.615,0-1a39.437,39.437,0,0,1-6.154.969,29.856,29.856,0,0,1-7.827-59.036c16.512-3.6,33.167,7.992,35.579,24.741a29.484,29.484,0,0,1-3.072,18.341c-.341.65-.431.827.464,1.252,2.17,1.029,3.439.244,5.1-1.222a17.8,17.8,0,0,1,25.809,2.72,1.7,1.7,0,0,0,1.985.841,14.1,14.1,0,0,1,16.6,11.447c.031.16.046.306.238.343Zm-101.71-33.5a30.111,30.111,0,0,0,.231,3.54c1.992,15.639,18.853,25.69,33.6,20.023a2,2,0,0,0,1.11-.956,15.17,15.17,0,0,1,9.525-7.429,2.236,2.236,0,0,0,1.366-1,25.11,25.11,0,1,0-45.832-14.18" transform="translate(-47.926 -47.701)" fill="#030302"/>
        <path id="Trazado_277089" data-name="Trazado 277089" d="M427.159,471.776a4.184,4.184,0,0,0-.379-.415,2.327,2.327,0,0,1-.21-3.769q3.683-3.751,7.435-7.435a2.372,2.372,0,1,1,3.33,3.361c-2.741,2.771-5.517,5.507-8.279,8.257Z" transform="translate(-324.771 -350.43)" fill="#060606"/>
        <path id="Trazado_277090" data-name="Trazado 277090" d="M194.724,471.814c-2.04-1.5-2.14-2.8-.347-4.6q3.426-3.433,6.861-6.856c1.2-1.194,2.651-1.291,3.647-.277s.935,2.374-.238,3.561c-2.411,2.44-4.855,4.847-7.263,7.29-.316.321-.815.42-1,.878Z" transform="translate(-147.322 -350.469)" fill="#030302"/>
        <path id="Trazado_277091" data-name="Trazado 277091" d="M310.926,471.8c-2.007-1.7-2.044-2.816-.155-4.705q3.345-3.344,6.69-6.686c1.27-1.264,2.7-1.376,3.726-.31.987,1.027.863,2.4-.364,3.639q-3.5,3.523-7.026,7.02c-.377.374-.807.7-1.212,1.042Z" transform="translate(-236.031 -350.457)" fill="#030302"/>
        <path id="Trazado_277092" data-name="Trazado 277092" d="M181.728,0a3.3,3.3,0,0,1,1.632,3.356c-.083,1.414,0,2.837-.021,4.256-.019,1.712-.945,2.8-2.369,2.811-1.452.015-2.356-1.03-2.371-2.768-.013-1.419.078-2.844-.025-4.256A3.469,3.469,0,0,1,180.069,0Z" transform="translate(-136.222)" fill="#050505"/>
        <path id="Trazado_277093" data-name="Trazado 277093" d="M0,180.077a3.471,3.471,0,0,1,3.4-1.491c1.49.105,2.994.006,4.492.029a2.333,2.333,0,0,1,2.53,2.245,2.383,2.383,0,0,1-2.456,2.476c-1.811.058-3.626.009-5.439.018A2.954,2.954,0,0,1,0,181.736Z" transform="translate(0 -136.232)" fill="#050505"/>
        <path id="Trazado_277094" data-name="Trazado 277094" d="M263.961,277.92c-.371-1.811-1.057-2.345-2.923-2.385-3.351-.073-6.727.326-10.049-.2a10.657,10.657,0,0,1-4.9-18.97c3.606-2.8,7.583-3,11.666-.958a4.883,4.883,0,0,0,1.6.722,2.623,2.623,0,0,0,2.558-1.355,13.237,13.237,0,0,1,22.429,1.021c1.115,1.9,1.911,2.2,3.973,1.462a8.989,8.989,0,0,1,10.106,2.251,8.835,8.835,0,0,1,1.994,10.052,8.976,8.976,0,0,1-8.491,5.936c-3.626.148-7.262.037-10.894.045-1.866,0-2.557.573-2.922,2.379h-4.671c-.329-1.622-1.092-2.376-2.405-2.376s-2.081.758-2.405,2.376h-4.671" transform="translate(-184.528 -190.001)" fill="#71d6fd"/>
        <path id="Trazado_277095" data-name="Trazado 277095" d="M389.423,414.528a2.289,2.289,0,0,1-2.211-1.279,2.069,2.069,0,0,1,.275-2.534q4.169-4.274,8.438-8.45a2.337,2.337,0,0,1,3.332,3.253c-2.8,2.882-5.667,5.7-8.524,8.527a1.75,1.75,0,0,1-1.31.482" transform="translate(-295.171 -306.429)" fill="#030302"/>
        <path id="Trazado_277096" data-name="Trazado 277096" d="M286.942,414.51a2.319,2.319,0,0,1-2.29-1.309,2.124,2.124,0,0,1,.293-2.536c2.784-2.844,5.587-5.671,8.446-8.438a2.219,2.219,0,0,1,3.191.178,2.178,2.178,0,0,1,.1,3.1c-2.768,2.859-5.606,5.651-8.431,8.455a1.843,1.843,0,0,1-1.31.547" transform="translate(-216.945 -306.404)" fill="#030302"/>
        <path id="Trazado_277097" data-name="Trazado 277097" d="M58.434,61.045a2.369,2.369,0,0,1-1.607-.856c-1.225-1.226-2.467-2.435-3.672-3.681a2.38,2.38,0,1,1,3.365-3.336q1.951,1.892,3.84,3.847a2.257,2.257,0,0,1,.476,2.617,2.349,2.349,0,0,1-2.4,1.409" transform="translate(-39.892 -39.894)" fill="#060606"/>
        <path id="Trazado_277098" data-name="Trazado 277098" d="M178.716,338.477c0-.945-.032-1.891.008-2.834a2.3,2.3,0,0,1,2.222-2.306,2.24,2.24,0,0,1,2.438,2.073,58.321,58.321,0,0,1,0,6.252,2.211,2.211,0,0,1-2.438,2.057,2.272,2.272,0,0,1-2.221-2.29c-.041-.983-.008-1.968-.008-2.952" transform="translate(-136.332 -254.3)" fill="#050505"/>
        <path id="Trazado_277099" data-name="Trazado 277099" d="M338.577,178.729c.984,0,1.97-.036,2.952.011a2.234,2.234,0,0,1,2.19,2.063,2.161,2.161,0,0,1-1.786,2.523,27.97,27.97,0,0,1-6.707.018,2.193,2.193,0,0,1-1.869-2.476,2.29,2.29,0,0,1,2.266-2.132c.983-.041,1.968-.008,2.953-.007" transform="translate(-254.311 -136.342)" fill="#050505"/>
        <path id="Trazado_277100" data-name="Trazado 277100" d="M290.346,61a2.265,2.265,0,0,1-2.181-1.3,2.1,2.1,0,0,1,.311-2.529c1.406-1.487,2.848-2.946,4.347-4.338a2.336,2.336,0,0,1,3.281,3.3c-1.39,1.5-2.875,2.914-4.337,4.347a1.9,1.9,0,0,1-1.422.523" transform="translate(-219.625 -39.866)" fill="#030302"/>
        <path id="Trazado_277101" data-name="Trazado 277101" d="M61.054,290.563a2.364,2.364,0,0,1-.846,1.61c-1.228,1.222-2.44,2.462-3.682,3.67a2.37,2.37,0,0,1-3.468.2,2.341,2.341,0,0,1,.135-3.547q1.9-1.945,3.848-3.838a2.2,2.2,0,0,1,2.6-.5,2.373,2.373,0,0,1,1.409,2.4" transform="translate(-39.907 -219.665)" fill="#030302"/>
        <path id="Trazado_277102" data-name="Trazado 277102" d="M354.715,363.166c.324-1.618,1.091-2.376,2.405-2.376s2.076.754,2.405,2.376c-.364,1.559-1.231,2.385-2.463,2.35-1.2-.034-2-.831-2.347-2.35" transform="translate(-270.612 -275.247)" fill="#050505"/>
        <path id="Trazado_277103" data-name="Trazado 277103" d="M82.827,107.794a25.093,25.093,0,1,1,45.832,14.18,2.237,2.237,0,0,1-1.366,1,15.17,15.17,0,0,0-9.525,7.429,2,2,0,0,1-1.11.956c-14.747,5.666-31.607-4.384-33.6-20.023a30.164,30.164,0,0,1-.232-3.54m6.266-.577a2.6,2.6,0,0,0,1.117,2.575c1.631,1.038,3.51-.056,3.61-2.148A14.186,14.186,0,0,1,99.77,96.335c1.418-1.047,1.718-2.372.849-3.552s-2.232-1.306-3.646-.266a18.752,18.752,0,0,0-7.88,14.7m18.783-13.5a2.384,2.384,0,0,0,2.42-2.367,2.437,2.437,0,0,0-4.872.034,2.382,2.382,0,0,0,2.453,2.333" transform="translate(-63.189 -63.083)" fill="#ffeb00"/>
        <path id="Trazado_277104" data-name="Trazado 277104" d="M109.231,136.567a18.752,18.752,0,0,1,7.88-14.7c1.413-1.04,2.774-.917,3.646.266s.569,2.5-.849,3.552a14.186,14.186,0,0,0-5.951,11.309c-.1,2.092-1.979,3.186-3.61,2.148a2.6,2.6,0,0,1-1.117-2.575" transform="translate(-83.327 -92.434)" fill="#030302"/>
        <path id="Trazado_277105" data-name="Trazado 277105" d="M180.581,113.95a2.382,2.382,0,0,1-2.453-2.333,2.437,2.437,0,0,1,4.872-.034,2.384,2.384,0,0,1-2.42,2.367" transform="translate(-135.894 -83.321)" fill="#050505"/>
      </g>
    </g>
  </g>
</svg>
