<svg id="Grupo_145918" data-name="Grupo 145918" xmlns="http://www.w3.org/2000/svg" xmlns:xlink="http://www.w3.org/1999/xlink" width="99.882" height="100" viewBox="0 0 99.882 100">
  <defs>
    <clipPath id="clip-path">
      <rect id="Rectángulo_46144" data-name="Rectángulo 46144" width="99.882" height="100" fill="#c6edff"/>
    </clipPath>
  </defs>
  <g id="Grupo_145917" data-name="Grupo 145917" clip-path="url(#clip-path)">
    <path id="Trazado_276486" data-name="Trazado 276486" d="M99.881,53.868a14.378,14.378,0,0,0-.518,3.2c-3.3,19.193-13.995,32.55-32.055,39.683-18.222,7.2-39.736,2.127-53.285-12.071A48.367,48.367,0,0,1,.234,54.957c-1.5-16.984,4.215-31.3,16.958-42.657A48.5,48.5,0,0,1,45.34.2c.175-.018.4.065.477-.2h7.807c.05.218.227.18.382.191A43.508,43.508,0,0,1,67.348,3.161c17.97,7.323,28.716,20.521,32.015,39.7a20.1,20.1,0,0,0,.518,3.391Zm-3.24-3.941A46.725,46.725,0,1,0,49.9,96.69,46.754,46.754,0,0,0,96.641,49.927" transform="translate(0 0.001)" fill="#030304"/>
    <path id="Trazado_276487" data-name="Trazado 276487" d="M109.253,62.734A46.725,46.725,0,1,1,62.54,16.046a46.769,46.769,0,0,1,46.714,46.688M46.421,82.14c-.062-.842-.1-1.688-.192-2.526A14.419,14.419,0,0,0,44.1,73.605a4.765,4.765,0,0,1,.02-5.553,13.206,13.206,0,0,0,1.6-3.64A17.467,17.467,0,0,0,43.091,49.3a6.367,6.367,0,0,0-7.2-2.319,6.526,6.526,0,0,0-4.44,6.03c-.052,1.836.889,3.283,1.652,4.816a3.738,3.738,0,0,1,0,3.457c-.284.583-.59,1.156-.9,1.727a16.875,16.875,0,0,0-1.772,10.1A18.512,18.512,0,0,0,32.963,80.1a3.944,3.944,0,0,1-.009,4.073c-.316.566-.628,1.137-.9,1.727a6.351,6.351,0,0,0,4.3,8.87,1.322,1.322,0,0,1,1.011.892,5.528,5.528,0,0,0,2.079,2.517c6.026,3.959,12.265,4.525,18.654.98a5.185,5.185,0,0,1,5.565-.018c6.346,3.558,12.566,2.99,18.585-.869A6.392,6.392,0,0,0,84.9,91.346a6.494,6.494,0,0,0-5.635-4.807,7.073,7.073,0,0,0-4.522,1.2,4.3,4.3,0,0,1-4.939.077c-.328-.208-.687-.366-1.029-.552a16.959,16.959,0,0,0-10.388-1.755,19.46,19.46,0,0,0-6.969,2.608,3.657,3.657,0,0,1-3.547.018c-.522-.262-1.019-.577-1.552-.811-.455-.2-.621-.4-.461-.945a14.663,14.663,0,0,0,.567-4.242M81.445,28.954a7.831,7.831,0,0,0-6.611,4.166c-1.072,1.837-1.052,3.85-1,5.868a1.88,1.88,0,0,1-.487,1.4,4.648,4.648,0,0,0-.308,5.683.848.848,0,0,1,.018,1.156,4.158,4.158,0,0,0-.124,5.013,5.228,5.228,0,0,1,.9,3.525,12.756,12.756,0,0,0,.051,1.364,8.029,8.029,0,0,0,15.005,3.111,11.081,11.081,0,0,0,1.027-5.865,1.781,1.781,0,0,1,.381-1.342,4.551,4.551,0,0,0,.375-5.824c-.328-.486-.214-.74.054-1.162a4.242,4.242,0,0,0,.064-5.025,4.84,4.84,0,0,1-.879-3.335,11.249,11.249,0,0,0-.046-1.266,8.1,8.1,0,0,0-8.415-7.464M59.9,41.835a5.232,5.232,0,0,0-4.145,1.641A15.7,15.7,0,0,0,51.6,50.627a12.606,12.606,0,0,0,2.338,10.856,1.011,1.011,0,0,1,.007,1.5,10.236,10.236,0,0,0-1.08,1.728,6.194,6.194,0,0,0,1.415,7.91,6.516,6.516,0,0,0,8.708-.355A15.334,15.334,0,0,0,66.8,66a12.664,12.664,0,0,0-2.176-11.69.917.917,0,0,1-.019-1.336,12.419,12.419,0,0,0,1.129-1.811c2.393-4.475-.554-9.333-5.833-9.326M70.57,31.2a5.357,5.357,0,0,0-1.775-4.359,15.888,15.888,0,0,0-6.366-3.837,12.676,12.676,0,0,0-11.6,2.223c-.493.379-.843.439-1.318.014A9.135,9.135,0,0,0,47.62,24.06a6.205,6.205,0,0,0-7.775,1.373,6.533,6.533,0,0,0,.1,8.574,14.955,14.955,0,0,0,6.281,3.963A12.591,12.591,0,0,0,58.1,35.845a.908.908,0,0,1,1.33-.016,12.036,12.036,0,0,0,1.808,1.139c4.429,2.374,9.307-.532,9.336-5.766M80.75,83.687A11.454,11.454,0,0,0,88.212,81.3a1.634,1.634,0,0,1,2.377.02,6.743,6.743,0,0,0,5.461,1.528,6.041,6.041,0,0,0,5.014-4.826,6.425,6.425,0,0,0-2.57-6.876c-.528-.378-1.066-.743-1.6-1.116a12.657,12.657,0,0,0-15.01.037,1.532,1.532,0,0,1-2.214-.011,6.771,6.771,0,0,0-5.541-1.58,5.928,5.928,0,0,0-5.007,4.931,6.26,6.26,0,0,0,2.567,6.769c.523.385,1.068.74,1.6,1.115a12.143,12.143,0,0,0,7.461,2.392" transform="translate(-12.612 -12.806)" fill="#e4e7eb"/>
    <path id="Trazado_276488" data-name="Trazado 276488" d="M103.754,203.121a14.671,14.671,0,0,1-.567,4.242c-.159.547.007.746.461.945.533.234,1.03.549,1.552.811a3.658,3.658,0,0,0,3.547-.018,19.461,19.461,0,0,1,6.969-2.608,16.96,16.96,0,0,1,10.388,1.755c.342.187.7.344,1.029.552a4.3,4.3,0,0,0,4.939-.077,7.073,7.073,0,0,1,4.522-1.2,6.5,6.5,0,0,1,5.635,4.807,6.392,6.392,0,0,1-2.638,6.922c-6.019,3.858-12.239,4.426-18.585.869a5.185,5.185,0,0,0-5.565.018c-6.389,3.544-12.629,2.978-18.654-.98a5.528,5.528,0,0,1-2.079-2.517,1.322,1.322,0,0,0-1.011-.892,6.351,6.351,0,0,1-4.3-8.87c.267-.59.579-1.161.9-1.727a3.944,3.944,0,0,0,.009-4.073,18.513,18.513,0,0,1-2.525-6.993,16.876,16.876,0,0,1,1.772-10.1c.308-.571.614-1.144.9-1.727a3.737,3.737,0,0,0,0-3.457c-.763-1.533-1.7-2.981-1.652-4.816a6.525,6.525,0,0,1,4.44-6.03,6.367,6.367,0,0,1,7.2,2.319,17.467,17.467,0,0,1,2.637,15.116,13.209,13.209,0,0,1-1.6,3.639,4.765,4.765,0,0,0-.02,5.553,14.42,14.42,0,0,1,2.124,6.009c.1.839.13,1.684.192,2.526m-3.232-22.737a14.128,14.128,0,0,0-2.691-8.154,2.953,2.953,0,0,0-3.239-1.284,3.094,3.094,0,0,0-2.481,2.454A4.162,4.162,0,0,0,93,176.682a7.5,7.5,0,0,1,.882,5.63,11.32,11.32,0,0,1-1.388,2.99,13.165,13.165,0,0,0-1.521,4.689,14.431,14.431,0,0,0,2.086,9.411,7.064,7.064,0,0,1,.015,7.417,12.731,12.731,0,0,0-.837,1.643,3.184,3.184,0,0,0,1.414,3.863,3.143,3.143,0,0,0,4.04-.744,14.229,14.229,0,0,0,2.257-4.5,13.7,13.7,0,0,0-1.378-11.07,7.958,7.958,0,0,1-1.188-3.058,7.609,7.609,0,0,1,1.026-5.046,13.894,13.894,0,0,0,2.117-7.522m29.009,38.824a14.128,14.128,0,0,0,8.3-2.689,3.172,3.172,0,0,0-.264-5.382,3.266,3.266,0,0,0-3.427.12,9.622,9.622,0,0,1-3.485,1.429A8.923,8.923,0,0,1,125,211.339a13.135,13.135,0,0,0-13.555.028c-3.037,1.733-5.928,1.911-8.88,0-.576-.373-.862-.294-1.162.331a7.4,7.4,0,0,1-2.771,3.317c-.954.575-1,.762-.094,1.4a14.454,14.454,0,0,0,6.506,2.669,14.037,14.037,0,0,0,9.417-2.052,7.321,7.321,0,0,1,5.542-.85A10.977,10.977,0,0,1,123,217.566a13.571,13.571,0,0,0,6.535,1.643" transform="translate(-69.945 -133.786)" fill="#020303"/>
    <path id="Trazado_276489" data-name="Trazado 276489" d="M304.12,79.965a8.1,8.1,0,0,1,8.415,7.464,11.192,11.192,0,0,1,.046,1.266,4.84,4.84,0,0,0,.879,3.335,4.242,4.242,0,0,1-.064,5.025c-.268.422-.382.675-.054,1.162a4.552,4.552,0,0,1-.375,5.824,1.781,1.781,0,0,0-.381,1.342,11.08,11.08,0,0,1-1.027,5.865,8.029,8.029,0,0,1-15.005-3.111,12.692,12.692,0,0,1-.051-1.364,5.23,5.23,0,0,0-.9-3.525,4.158,4.158,0,0,1,.124-5.013.848.848,0,0,0-.018-1.156,4.648,4.648,0,0,1,.308-5.683,1.881,1.881,0,0,0,.487-1.4c-.051-2.018-.071-4.031,1-5.868a7.831,7.831,0,0,1,6.611-4.166m.376,9.628h3.414c1.544,0,1.544,0,1.477-1.57a4.836,4.836,0,0,0-7.423-4.092c-1.809,1.153-2.33,2.927-2.289,4.968.011.563.178.719.724.706,1.365-.034,2.731-.011,4.1-.011m.08,16.15h-3.508c-1.43,0-1.434,0-1.373,1.4.013.291.056.581.1.87a4.77,4.77,0,0,0,5.543,4.065,5.129,5.129,0,0,0,4.066-5.952c-.088-.46-.365-.375-.636-.377-1.4-.007-2.793,0-4.19,0m-.151-3.262c1.59,0,3.181.017,4.771-.006a1.594,1.594,0,1,0,0-3.168q-4.625-.029-9.249,0a1.623,1.623,0,0,0-1.833,1.584c0,.935.715,1.573,1.837,1.586,1.493.018,2.986,0,4.479,0m.173-9.627c-1.558,0-3.116-.016-4.673.005a1.623,1.623,0,0,0-1.815,1.6,1.643,1.643,0,0,0,1.854,1.571q4.576.02,9.152,0c1.148-.005,1.832-.608,1.849-1.561.018-.986-.678-1.6-1.888-1.614-1.493-.017-2.986,0-4.478,0" transform="translate(-235.287 -63.817)" fill="#020303"/>
    <path id="Trazado_276490" data-name="Trazado 276490" d="M199.95,143.729c5.279-.007,8.226,4.851,5.833,9.326a12.429,12.429,0,0,1-1.129,1.812.917.917,0,0,0,.019,1.336,12.663,12.663,0,0,1,2.176,11.69,15.331,15.331,0,0,1-3.812,6.265,6.516,6.516,0,0,1-8.708.355,6.194,6.194,0,0,1-1.415-7.91,10.234,10.234,0,0,1,1.08-1.728,1.011,1.011,0,0,0-.007-1.5,12.605,12.605,0,0,1-2.338-10.856,15.7,15.7,0,0,1,4.156-7.151,5.232,5.232,0,0,1,4.145-1.641M198.576,172.7a2.857,2.857,0,0,0,2.589-1.271c.508-.674,1-1.362,1.464-2.067a9.626,9.626,0,0,0,1.378-7.083,12.085,12.085,0,0,0-2.429-4.927,2.97,2.97,0,0,1-.019-3.623c.449-.675.918-1.341,1.312-2.048.955-1.711.617-3.354-.839-4.274a3.412,3.412,0,0,0-4.581.933c-.442.6-.88,1.208-1.3,1.827a9.62,9.62,0,0,0-1.446,7.256,12,12,0,0,0,2.4,4.836,3.015,3.015,0,0,1,.017,3.709,24.5,24.5,0,0,0-1.354,2.135c-1.264,2.363.125,4.615,2.809,4.6" transform="translate(-152.659 -114.699)" fill="#030304"/>
    <path id="Trazado_276491" data-name="Trazado 276491" d="M159.454,56.608c-.029,5.234-4.907,8.14-9.336,5.766a12.017,12.017,0,0,1-1.808-1.139.908.908,0,0,0-1.331.016,12.589,12.589,0,0,1-11.87,2.124,14.957,14.957,0,0,1-6.281-3.963,6.533,6.533,0,0,1-.1-8.574,6.205,6.205,0,0,1,7.775-1.373,9.142,9.142,0,0,1,1.894,1.183c.475.425.825.366,1.318-.014a12.676,12.676,0,0,1,11.6-2.223,15.889,15.889,0,0,1,6.366,3.837,5.356,5.356,0,0,1,1.775,4.359m-19.259,4.141a8.816,8.816,0,0,0,4.045-1.492c.577-.362,1.119-.781,1.687-1.159a2.9,2.9,0,0,1,3.457,0c.814.533,1.628,1.07,2.474,1.548a2.6,2.6,0,0,0,1.97.316,2.9,2.9,0,0,0,2.31-2.244,3.155,3.155,0,0,0-1-3.445,27.047,27.047,0,0,0-2.728-1.875,9.261,9.261,0,0,0-6.375-1.16,11.993,11.993,0,0,0-5.127,2.45,3.016,3.016,0,0,1-3.711.006c-.779-.526-1.578-1.027-2.394-1.492a2.661,2.661,0,0,0-2.35-.161,3.3,3.3,0,0,0-.848,5.6c.758.609,1.576,1.148,2.39,1.682a10.108,10.108,0,0,0,6.2,1.423" transform="translate(-101.495 -38.212)" fill="#020303"/>
    <path id="Trazado_276492" data-name="Trazado 276492" d="M290.781,287.375a12.143,12.143,0,0,1-7.461-2.392c-.53-.376-1.075-.73-1.6-1.115a6.26,6.26,0,0,1-2.567-6.769,5.928,5.928,0,0,1,5.007-4.931,6.771,6.771,0,0,1,5.541,1.58,1.532,1.532,0,0,0,2.214.01,12.657,12.657,0,0,1,15.01-.037c.531.374,1.069.738,1.6,1.116a6.425,6.425,0,0,1,2.57,6.876,6.041,6.041,0,0,1-5.014,4.826,6.743,6.743,0,0,1-5.461-1.528,1.634,1.634,0,0,0-2.377-.02,11.454,11.454,0,0,1-7.461,2.383m-8.533-8.648a2.84,2.84,0,0,0,1.342,2.5c.557.394,1.111.793,1.671,1.183a9.541,9.541,0,0,0,11.048.047c.456-.312.906-.633,1.367-.936a2.946,2.946,0,0,1,3.464-.018c.818.526,1.632,1.063,2.474,1.549a2.646,2.646,0,0,0,2.251.254,2.9,2.9,0,0,0,2.08-2.347,3.188,3.188,0,0,0-1.1-3.326c-.609-.486-1.261-.918-1.9-1.361a9.542,9.542,0,0,0-10.973-.059c-.512.345-1.009.712-1.53,1.043a2.8,2.8,0,0,1-3.2.017c-.8-.5-1.564-1.054-2.389-1.5-2.346-1.272-4.617.124-4.6,2.955" transform="translate(-222.642 -216.494)" fill="#020303"/>
    <path id="Trazado_276493" data-name="Trazado 276493" d="M113.213,193.136a13.894,13.894,0,0,1-2.117,7.522,7.61,7.61,0,0,0-1.026,5.046,7.958,7.958,0,0,0,1.188,3.058,13.7,13.7,0,0,1,1.378,11.07,14.233,14.233,0,0,1-2.257,4.5,3.143,3.143,0,0,1-4.04.744,3.184,3.184,0,0,1-1.414-3.863,12.757,12.757,0,0,1,.837-1.643,7.064,7.064,0,0,0-.015-7.417,14.43,14.43,0,0,1-2.086-9.411,13.169,13.169,0,0,1,1.521-4.689,11.32,11.32,0,0,0,1.388-2.99,7.5,7.5,0,0,0-.881-5.63,4.162,4.162,0,0,1-.886-3.281,3.1,3.1,0,0,1,2.481-2.454,2.954,2.954,0,0,1,3.239,1.284,14.128,14.128,0,0,1,2.69,8.154" transform="translate(-82.636 -146.538)" fill="#89ebd4"/>
    <path id="Trazado_276494" data-name="Trazado 276494" d="M170.021,384.516a13.571,13.571,0,0,1-6.535-1.643,10.976,10.976,0,0,0-2.992-1.385,7.321,7.321,0,0,0-5.542.85,14.037,14.037,0,0,1-9.417,2.052,14.454,14.454,0,0,1-6.506-2.669c-.9-.637-.86-.823.094-1.4A7.4,7.4,0,0,0,141.893,377c.3-.625.586-.7,1.162-.331,2.952,1.912,5.843,1.734,8.88,0a13.135,13.135,0,0,1,13.555-.028,8.923,8.923,0,0,0,5.653,1.349,9.622,9.622,0,0,0,3.485-1.429,3.266,3.266,0,0,1,3.427-.12,3.172,3.172,0,0,1,.264,5.382,14.128,14.128,0,0,1-8.3,2.689" transform="translate(-110.435 -299.093)" fill="#2941a0"/>
    <path id="Trazado_276495" data-name="Trazado 276495" d="M323.663,102.206c-1.366,0-2.732-.023-4.1.011-.546.014-.713-.142-.724-.706-.042-2.041.48-3.814,2.289-4.967a4.836,4.836,0,0,1,7.423,4.092c.067,1.57.067,1.57-1.477,1.57h-3.414" transform="translate(-254.453 -76.43)" fill="#22afd6"/>
    <path id="Trazado_276496" data-name="Trazado 276496" d="M323.754,207.612c1.4,0,2.793,0,4.19,0,.271,0,.548-.083.636.377a5.129,5.129,0,0,1-4.066,5.952,4.77,4.77,0,0,1-5.543-4.065,8.709,8.709,0,0,1-.1-.87c-.061-1.4-.057-1.4,1.373-1.4h3.508" transform="translate(-254.465 -165.685)" fill="#22afd6"/>
    <path id="Trazado_276497" data-name="Trazado 276497" d="M317.411,178.865c-1.493,0-2.986.014-4.479,0-1.122-.014-1.838-.652-1.837-1.586a1.623,1.623,0,0,1,1.833-1.584q4.625-.024,9.25,0a1.594,1.594,0,1,1,0,3.168c-1.59.022-3.181.006-4.771.006" transform="translate(-248.272 -140.201)" fill="#1a7b96"/>
    <path id="Trazado_276498" data-name="Trazado 276498" d="M317.584,143.766c1.493,0,2.986-.014,4.478,0,1.21.014,1.906.627,1.888,1.614-.018.953-.7,1.556-1.849,1.561q-4.576.02-9.152,0a1.643,1.643,0,0,1-1.854-1.571,1.623,1.623,0,0,1,1.815-1.6c1.558-.022,3.116-.005,4.673-.006" transform="translate(-248.272 -114.729)" fill="#1a7b96"/>
    <path id="Trazado_276499" data-name="Trazado 276499" d="M211.427,185.237c-2.685.015-4.073-2.236-2.809-4.6a24.506,24.506,0,0,1,1.354-2.135,3.015,3.015,0,0,0-.017-3.709,12,12,0,0,1-2.4-4.836A9.62,9.62,0,0,1,209,162.7c.419-.618.856-1.225,1.3-1.827a3.412,3.412,0,0,1,4.581-.933c1.455.92,1.794,2.563.839,4.274-.395.707-.864,1.372-1.312,2.048a2.97,2.97,0,0,0,.019,3.623,12.085,12.085,0,0,1,2.429,4.927,9.626,9.626,0,0,1-1.378,7.083c-.464.7-.956,1.393-1.464,2.067a2.857,2.857,0,0,1-2.589,1.271" transform="translate(-165.51 -127.233)" fill="#23778e"/>
    <path id="Trazado_276500" data-name="Trazado 276500" d="M152.949,73.546a10.108,10.108,0,0,1-6.2-1.423c-.815-.534-1.632-1.073-2.39-1.682a3.3,3.3,0,0,1,.848-5.6,2.661,2.661,0,0,1,2.35.161c.816.465,1.615.966,2.394,1.492a3.016,3.016,0,0,0,3.711-.006,11.994,11.994,0,0,1,5.127-2.45,9.261,9.261,0,0,1,6.375,1.16,27.046,27.046,0,0,1,2.728,1.875,3.155,3.155,0,0,1,1,3.445,2.9,2.9,0,0,1-2.31,2.244,2.6,2.6,0,0,1-1.97-.316c-.846-.479-1.66-1.015-2.474-1.548a2.9,2.9,0,0,0-3.457,0c-.568.378-1.11.8-1.687,1.159a8.816,8.816,0,0,1-4.045,1.492" transform="translate(-114.25 -51.009)" fill="#22afd6"/>
    <path id="Trazado_276501" data-name="Trazado 276501" d="M295.151,291.5c-.017-2.831,2.253-4.227,4.6-2.955.825.447,1.593,1,2.389,1.5a2.8,2.8,0,0,0,3.2-.017c.521-.33,1.019-.7,1.53-1.043a9.542,9.542,0,0,1,10.973.059c.641.444,1.293.876,1.9,1.361a3.188,3.188,0,0,1,1.1,3.326,2.9,2.9,0,0,1-2.08,2.347,2.647,2.647,0,0,1-2.251-.254c-.842-.485-1.656-1.022-2.474-1.549a2.946,2.946,0,0,0-3.464.018c-.462.3-.911.624-1.367.936a9.541,9.541,0,0,1-11.048-.047c-.56-.39-1.114-.789-1.671-1.183a2.84,2.84,0,0,1-1.342-2.5" transform="translate(-235.545 -229.266)" fill="#dbd8b2"/>
  </g>
</svg>
