<svg xmlns="http://www.w3.org/2000/svg" width="70.243" height="70.243" viewBox="0 0 70.243 70.243">
  <g id="Grupo_147247" data-name="Grupo 147247" transform="translate(-564.176 -1518.569)">
    <circle id="Elipse_7082" data-name="Elipse 7082" cx="33.635" cy="33.635" r="33.635" transform="matrix(0.045, -0.999, 0.999, 0.045, 564.176, 1585.77)" fill="#89ebd4"/>
    <path id="Trazado_277457" data-name="Trazado 277457" d="M-15.127,0h-2.822V-10.894l-3.369,1.04v-2.275l5.889-2.109h.3ZM-3.906-5.684A3.564,3.564,0,0,1-6.484-4.6,3.811,3.811,0,0,1-9.5-5.894a5.114,5.114,0,0,1-1.133-3.491,5.447,5.447,0,0,1,.61-2.563,4.477,4.477,0,0,1,1.7-1.816,4.728,4.728,0,0,1,2.461-.649,4.522,4.522,0,0,1,2.5.7,4.623,4.623,0,0,1,1.7,2.021,7.258,7.258,0,0,1,.615,3.018v1.045A8.224,8.224,0,0,1-2.812-2.041,6.683,6.683,0,0,1-7.822.127l-.693.01V-2.217l.625-.01Q-4.209-2.393-3.906-5.684ZM-5.791-6.758a1.974,1.974,0,0,0,1.177-.352,2.349,2.349,0,0,0,.747-.85V-9.121a3.881,3.881,0,0,0-.547-2.227,1.7,1.7,0,0,0-1.465-.791,1.648,1.648,0,0,0-1.4.776,3.3,3.3,0,0,0-.547,1.948A3.212,3.212,0,0,0-7.29-7.5,1.734,1.734,0,0,0-5.791-6.758ZM7.568-5.684A3.564,3.564,0,0,1,4.99-4.6,3.811,3.811,0,0,1,1.973-5.894,5.114,5.114,0,0,1,.84-9.385a5.447,5.447,0,0,1,.61-2.563,4.477,4.477,0,0,1,1.7-1.816,4.728,4.728,0,0,1,2.461-.649,4.522,4.522,0,0,1,2.5.7,4.623,4.623,0,0,1,1.7,2.021,7.258,7.258,0,0,1,.615,3.018v1.045A8.224,8.224,0,0,1,8.662-2.041,6.683,6.683,0,0,1,3.652.127l-.693.01V-2.217l.625-.01Q7.266-2.393,7.568-5.684ZM5.684-6.758A1.974,1.974,0,0,0,6.86-7.109a2.349,2.349,0,0,0,.747-.85V-9.121a3.881,3.881,0,0,0-.547-2.227A1.7,1.7,0,0,0,5.6-12.139a1.648,1.648,0,0,0-1.4.776,3.3,3.3,0,0,0-.547,1.948A3.212,3.212,0,0,0,4.185-7.5,1.734,1.734,0,0,0,5.684-6.758Zm9.629-1.6h1.5A2.119,2.119,0,0,0,18.408-8.9a1.968,1.968,0,0,0,.518-1.426,1.74,1.74,0,0,0-.513-1.338A1.987,1.987,0,0,0,17-12.139a2.083,2.083,0,0,0-1.357.444,1.421,1.421,0,0,0-.547,1.157H12.275a3.471,3.471,0,0,1,.6-2,4,4,0,0,1,1.68-1.382,5.606,5.606,0,0,1,2.378-.5,5.316,5.316,0,0,1,3.535,1.079,3.682,3.682,0,0,1,1.279,2.974,2.992,2.992,0,0,1-.6,1.8A3.87,3.87,0,0,1,19.59-7.3a3.533,3.533,0,0,1,1.792,1.289,3.5,3.5,0,0,1,.591,2.031A3.743,3.743,0,0,1,20.591-.947,5.556,5.556,0,0,1,16.934.2,5.268,5.268,0,0,1,13.452-.928,3.668,3.668,0,0,1,12.1-3.9h2.822a1.635,1.635,0,0,0,.6,1.309A2.213,2.213,0,0,0,17-2.08a2.224,2.224,0,0,0,1.577-.532,1.837,1.837,0,0,0,.571-1.411q0-2.129-2.344-2.129H15.313Z" transform="translate(598.527 1560.25)" fill="#12263f"/>
  </g>
</svg>
