<svg xmlns="http://www.w3.org/2000/svg" width="70.243" height="70.243" viewBox="0 0 70.243 70.243">
  <g id="Grupo_147259" data-name="Grupo 147259" transform="translate(-724.73 -2481.555)">
    <g id="Grupo_147258" data-name="Grupo 147258">
      <circle id="Elipse_7140" data-name="Elipse 7140" cx="33.635" cy="33.635" r="33.635" transform="matrix(0.045, -0.999, 0.999, 0.045, 724.73, 2548.756)" fill="#89ebd4"/>
    </g>
    <path id="Trazado_277457" data-name="Trazado 277457" d="M-15.127,0h-2.822V-10.894l-3.369,1.04v-2.275l5.889-2.109h.3ZM-3.906-5.684A3.564,3.564,0,0,1-6.484-4.6,3.811,3.811,0,0,1-9.5-5.894a5.114,5.114,0,0,1-1.133-3.491,5.447,5.447,0,0,1,.61-2.563,4.477,4.477,0,0,1,1.7-1.816,4.728,4.728,0,0,1,2.461-.649,4.522,4.522,0,0,1,2.5.7,4.623,4.623,0,0,1,1.7,2.021,7.258,7.258,0,0,1,.615,3.018v1.045A8.224,8.224,0,0,1-2.812-2.041,6.683,6.683,0,0,1-7.822.127l-.693.01V-2.217l.625-.01Q-4.209-2.393-3.906-5.684ZM-5.791-6.758a1.974,1.974,0,0,0,1.177-.352,2.349,2.349,0,0,0,.747-.85V-9.121a3.881,3.881,0,0,0-.547-2.227,1.7,1.7,0,0,0-1.465-.791,1.648,1.648,0,0,0-1.4.776,3.3,3.3,0,0,0-.547,1.948A3.212,3.212,0,0,0-7.29-7.5,1.734,1.734,0,0,0-5.791-6.758ZM7.568-5.684A3.564,3.564,0,0,1,4.99-4.6,3.811,3.811,0,0,1,1.973-5.894,5.114,5.114,0,0,1,.84-9.385a5.447,5.447,0,0,1,.61-2.563,4.477,4.477,0,0,1,1.7-1.816,4.728,4.728,0,0,1,2.461-.649,4.522,4.522,0,0,1,2.5.7,4.623,4.623,0,0,1,1.7,2.021,7.258,7.258,0,0,1,.615,3.018v1.045A8.224,8.224,0,0,1,8.662-2.041,6.683,6.683,0,0,1,3.652.127l-.693.01V-2.217l.625-.01Q7.266-2.393,7.568-5.684ZM5.684-6.758A1.974,1.974,0,0,0,6.86-7.109a2.349,2.349,0,0,0,.747-.85V-9.121a3.881,3.881,0,0,0-.547-2.227A1.7,1.7,0,0,0,5.6-12.139a1.648,1.648,0,0,0-1.4.776,3.3,3.3,0,0,0-.547,1.948A3.212,3.212,0,0,0,4.185-7.5,1.734,1.734,0,0,0,5.684-6.758Zm16.025-3.682A3.307,3.307,0,0,1,21.191-8.6a3.725,3.725,0,0,1-1.426,1.279,4.124,4.124,0,0,1,1.641,1.372A3.52,3.52,0,0,1,22.012-3.9,3.727,3.727,0,0,1,20.723-.9,5.229,5.229,0,0,1,17.217.2,5.253,5.253,0,0,1,13.7-.908,3.718,3.718,0,0,1,12.4-3.9a3.542,3.542,0,0,1,.605-2.061,4.049,4.049,0,0,1,1.631-1.367A3.687,3.687,0,0,1,13.218-8.6a3.331,3.331,0,0,1-.513-1.836,3.685,3.685,0,0,1,1.211-2.9,4.768,4.768,0,0,1,3.291-1.079,4.8,4.8,0,0,1,3.286,1.069A3.671,3.671,0,0,1,21.709-10.439ZM19.18-4.1a2.047,2.047,0,0,0-.537-1.484A1.915,1.915,0,0,0,17.2-6.143a1.912,1.912,0,0,0-1.436.552A2.044,2.044,0,0,0,15.225-4.1a2.042,2.042,0,0,0,.527,1.465,1.921,1.921,0,0,0,1.465.557,1.916,1.916,0,0,0,1.44-.537A2.039,2.039,0,0,0,19.18-4.1Zm-.293-6.2a1.953,1.953,0,0,0-.439-1.333,1.559,1.559,0,0,0-1.24-.5,1.57,1.57,0,0,0-1.23.488,1.942,1.942,0,0,0-.439,1.348,2.041,2.041,0,0,0,.439,1.367,1.538,1.538,0,0,0,1.24.518,1.523,1.523,0,0,0,1.235-.518A2.056,2.056,0,0,0,18.887-10.3Z" transform="translate(759.527 2523.25)" fill="#12263f"/>
  </g>
</svg>
