<svg xmlns="http://www.w3.org/2000/svg" width="67.269" height="67.27" viewBox="0 0 67.269 67.27">
  <g id="Grupo_147253" data-name="Grupo 147253" transform="translate(-492.863 -5053.283)">
    <g id="Grupo_147252" data-name="Grupo 147252">
      <g id="Grupo_147250" data-name="Grupo 147250">
        <g id="Grupo_147251" data-name="Grupo 147251">
          <path id="Trazado_277397" data-name="Trazado 277397" d="M33.635,0A33.635,33.635,0,1,1,0,33.635,33.635,33.635,0,0,1,33.635,0Z" transform="translate(492.863 5053.283)" fill="#fff"/>
          <path id="Trazado_277406" data-name="Trazado 277406" d="M-15.127,0h-2.822V-10.894l-3.369,1.04v-2.275l5.889-2.109h.3ZM-3.906-5.684A3.564,3.564,0,0,1-6.484-4.6,3.811,3.811,0,0,1-9.5-5.894a5.114,5.114,0,0,1-1.133-3.491,5.447,5.447,0,0,1,.61-2.563,4.477,4.477,0,0,1,1.7-1.816,4.728,4.728,0,0,1,2.461-.649,4.522,4.522,0,0,1,2.5.7,4.623,4.623,0,0,1,1.7,2.021,7.258,7.258,0,0,1,.615,3.018v1.045A8.224,8.224,0,0,1-2.812-2.041,6.683,6.683,0,0,1-7.822.127l-.693.01V-2.217l.625-.01Q-4.209-2.393-3.906-5.684ZM-5.791-6.758a1.974,1.974,0,0,0,1.177-.352,2.349,2.349,0,0,0,.747-.85V-9.121a3.881,3.881,0,0,0-.547-2.227,1.7,1.7,0,0,0-1.465-.791,1.648,1.648,0,0,0-1.4.776,3.3,3.3,0,0,0-.547,1.948A3.212,3.212,0,0,0-7.29-7.5,1.734,1.734,0,0,0-5.791-6.758ZM7.568-5.684A3.564,3.564,0,0,1,4.99-4.6,3.811,3.811,0,0,1,1.973-5.894,5.114,5.114,0,0,1,.84-9.385a5.447,5.447,0,0,1,.61-2.563,4.477,4.477,0,0,1,1.7-1.816,4.728,4.728,0,0,1,2.461-.649,4.522,4.522,0,0,1,2.5.7,4.623,4.623,0,0,1,1.7,2.021,7.258,7.258,0,0,1,.615,3.018v1.045A8.224,8.224,0,0,1,8.662-2.041,6.683,6.683,0,0,1,3.652.127l-.693.01V-2.217l.625-.01Q7.266-2.393,7.568-5.684ZM5.684-6.758A1.974,1.974,0,0,0,6.86-7.109a2.349,2.349,0,0,0,.747-.85V-9.121a3.881,3.881,0,0,0-.547-2.227A1.7,1.7,0,0,0,5.6-12.139a1.648,1.648,0,0,0-1.4.776,3.3,3.3,0,0,0-.547,1.948A3.212,3.212,0,0,0,4.185-7.5,1.734,1.734,0,0,0,5.684-6.758ZM19.3,0H16.475V-10.894l-3.369,1.04v-2.275l5.889-2.109h.3Z" transform="translate(526 5093.934)" fill="#12263f"/>
        </g>
      </g>
    </g>
  </g>
</svg>
