<svg xmlns="http://www.w3.org/2000/svg" width="70.243" height="70.243" viewBox="0 0 70.243 70.243">
  <g id="Grupo_147252" data-name="Grupo 147252" transform="translate(-403.621 -593.585)">
    <circle id="Elipse_7038" data-name="Elipse 7038" cx="33.635" cy="33.635" r="33.635" transform="translate(403.621 660.785) rotate(-87.408)" fill="#89ebd4"/>
    <path id="Trazado_277458" data-name="Trazado 277458" d="M-15.127,0h-2.822V-10.894l-3.369,1.04v-2.275l5.889-2.109h.3ZM-3.906-5.684A3.564,3.564,0,0,1-6.484-4.6,3.811,3.811,0,0,1-9.5-5.894a5.114,5.114,0,0,1-1.133-3.491,5.447,5.447,0,0,1,.61-2.563,4.477,4.477,0,0,1,1.7-1.816,4.728,4.728,0,0,1,2.461-.649,4.522,4.522,0,0,1,2.5.7,4.623,4.623,0,0,1,1.7,2.021,7.258,7.258,0,0,1,.615,3.018v1.045A8.224,8.224,0,0,1-2.812-2.041,6.683,6.683,0,0,1-7.822.127l-.693.01V-2.217l.625-.01Q-4.209-2.393-3.906-5.684ZM-5.791-6.758a1.974,1.974,0,0,0,1.177-.352,2.349,2.349,0,0,0,.747-.85V-9.121a3.881,3.881,0,0,0-.547-2.227,1.7,1.7,0,0,0-1.465-.791,1.648,1.648,0,0,0-1.4.776,3.3,3.3,0,0,0-.547,1.948A3.212,3.212,0,0,0-7.29-7.5,1.734,1.734,0,0,0-5.791-6.758Zm16.025-3.682A3.307,3.307,0,0,1,9.717-8.6,3.725,3.725,0,0,1,8.291-7.324,4.124,4.124,0,0,1,9.932-5.952,3.52,3.52,0,0,1,10.537-3.9,3.727,3.727,0,0,1,9.248-.9,5.229,5.229,0,0,1,5.742.2a5.253,5.253,0,0,1-3.516-1.1A3.718,3.718,0,0,1,.928-3.9a3.542,3.542,0,0,1,.605-2.061A4.049,4.049,0,0,1,3.164-7.324,3.687,3.687,0,0,1,1.743-8.6a3.331,3.331,0,0,1-.513-1.836,3.685,3.685,0,0,1,1.211-2.9,4.768,4.768,0,0,1,3.291-1.079,4.8,4.8,0,0,1,3.286,1.069A3.671,3.671,0,0,1,10.234-10.439ZM7.705-4.1a2.047,2.047,0,0,0-.537-1.484,1.915,1.915,0,0,0-1.445-.557,1.912,1.912,0,0,0-1.436.552A2.044,2.044,0,0,0,3.75-4.1a2.042,2.042,0,0,0,.527,1.465,1.921,1.921,0,0,0,1.465.557,1.916,1.916,0,0,0,1.44-.537A2.039,2.039,0,0,0,7.705-4.1Zm-.293-6.2a1.953,1.953,0,0,0-.439-1.333,1.559,1.559,0,0,0-1.24-.5,1.57,1.57,0,0,0-1.23.488A1.942,1.942,0,0,0,4.063-10.3,2.041,2.041,0,0,0,4.5-8.936a1.538,1.538,0,0,0,1.24.518,1.523,1.523,0,0,0,1.235-.518A2.056,2.056,0,0,0,7.412-10.3ZM19.043-5.684A3.564,3.564,0,0,1,16.465-4.6a3.811,3.811,0,0,1-3.018-1.294,5.114,5.114,0,0,1-1.133-3.491,5.447,5.447,0,0,1,.61-2.563,4.477,4.477,0,0,1,1.7-1.816,4.728,4.728,0,0,1,2.461-.649,4.522,4.522,0,0,1,2.5.7,4.623,4.623,0,0,1,1.7,2.021A7.258,7.258,0,0,1,21.9-8.672v1.045a8.224,8.224,0,0,1-1.768,5.586A6.683,6.683,0,0,1,15.127.127l-.693.01V-2.217l.625-.01Q18.74-2.393,19.043-5.684ZM17.158-6.758a1.974,1.974,0,0,0,1.177-.352,2.349,2.349,0,0,0,.747-.85V-9.121a3.881,3.881,0,0,0-.547-2.227,1.7,1.7,0,0,0-1.465-.791,1.648,1.648,0,0,0-1.4.776,3.3,3.3,0,0,0-.547,1.948A3.212,3.212,0,0,0,15.659-7.5,1.734,1.734,0,0,0,17.158-6.758Z" transform="translate(437.527 635.25)" fill="#12263f"/>
  </g>
</svg>
