<svg xmlns="http://www.w3.org/2000/svg" width="70.243" height="70.243" viewBox="0 0 70.243 70.243">
  <g id="Grupo_147251" data-name="Grupo 147251" transform="translate(-1053.314 -4981.526)">
    <g id="Grupo_147250" data-name="Grupo 147250">
      <path id="Trazado_277419" data-name="Trazado 277419" d="M33.635,0A33.635,33.635,0,1,1,0,33.635,33.635,33.635,0,0,1,33.635,0Z" transform="matrix(0.045, -0.999, 0.999, 0.045, 1053.314, 5048.727)" fill="#fff"/>
      <path id="Trazado_277425" data-name="Trazado 277425" d="M-12.236,0h-9.746V-1.934l4.6-4.9a11.347,11.347,0,0,0,1.4-1.807,2.9,2.9,0,0,0,.454-1.465,2.172,2.172,0,0,0-.479-1.489,1.727,1.727,0,0,0-1.367-.542,1.863,1.863,0,0,0-1.509.659,2.611,2.611,0,0,0-.552,1.733h-2.832a4.661,4.661,0,0,1,.62-2.373A4.371,4.371,0,0,1-19.893-13.8a5.328,5.328,0,0,1,2.568-.61,5.045,5.045,0,0,1,3.413,1.055A3.731,3.731,0,0,1-12.7-10.381a4.781,4.781,0,0,1-.547,2.148,11.939,11.939,0,0,1-1.875,2.549L-18.35-2.275h6.113Zm11.3-5.879A7.2,7.2,0,0,1-2.158-1.367,4.261,4.261,0,0,1-5.732.2,4.291,4.291,0,0,1-9.287-1.338a6.992,6.992,0,0,1-1.26-4.395V-8.35a7.109,7.109,0,0,1,1.235-4.521,4.293,4.293,0,0,1,3.56-1.543A4.3,4.3,0,0,1-2.2-12.886,6.97,6.97,0,0,1-.937-8.5ZM-3.76-8.756a5.207,5.207,0,0,0-.483-2.576,1.634,1.634,0,0,0-1.509-.806,1.6,1.6,0,0,0-1.47.767,4.873,4.873,0,0,0-.5,2.4v3.46a5.466,5.466,0,0,0,.474,2.586,1.612,1.612,0,0,0,1.519.846,1.585,1.585,0,0,0,1.494-.811A5.335,5.335,0,0,0-3.76-5.374Zm14.3,2.878A7.2,7.2,0,0,1,9.316-1.367,4.261,4.261,0,0,1,5.742.2,4.291,4.291,0,0,1,2.188-1.338,6.992,6.992,0,0,1,.928-5.732V-8.35a7.109,7.109,0,0,1,1.235-4.521,4.293,4.293,0,0,1,3.56-1.543,4.3,4.3,0,0,1,3.555,1.528,6.97,6.97,0,0,1,1.26,4.39ZM7.715-8.756a5.207,5.207,0,0,0-.483-2.576,1.634,1.634,0,0,0-1.509-.806,1.6,1.6,0,0,0-1.47.767,4.873,4.873,0,0,0-.5,2.4v3.46a5.466,5.466,0,0,0,.474,2.586,1.612,1.612,0,0,0,1.519.846,1.585,1.585,0,0,0,1.494-.811,5.335,5.335,0,0,0,.479-2.483Zm13.994-1.683A3.307,3.307,0,0,1,21.191-8.6a3.725,3.725,0,0,1-1.426,1.279,4.124,4.124,0,0,1,1.641,1.372A3.52,3.52,0,0,1,22.012-3.9,3.727,3.727,0,0,1,20.723-.9,5.229,5.229,0,0,1,17.217.2,5.253,5.253,0,0,1,13.7-.908,3.718,3.718,0,0,1,12.4-3.9a3.542,3.542,0,0,1,.605-2.061,4.049,4.049,0,0,1,1.631-1.367A3.687,3.687,0,0,1,13.218-8.6a3.331,3.331,0,0,1-.513-1.836,3.685,3.685,0,0,1,1.211-2.9,4.768,4.768,0,0,1,3.291-1.079,4.8,4.8,0,0,1,3.286,1.069A3.671,3.671,0,0,1,21.709-10.439ZM19.18-4.1a2.047,2.047,0,0,0-.537-1.484A1.915,1.915,0,0,0,17.2-6.143a1.912,1.912,0,0,0-1.436.552A2.044,2.044,0,0,0,15.225-4.1a2.042,2.042,0,0,0,.527,1.465,1.921,1.921,0,0,0,1.465.557,1.916,1.916,0,0,0,1.44-.537A2.039,2.039,0,0,0,19.18-4.1Zm-.293-6.2a1.953,1.953,0,0,0-.439-1.333,1.559,1.559,0,0,0-1.24-.5,1.57,1.57,0,0,0-1.23.488,1.942,1.942,0,0,0-.439,1.348,2.041,2.041,0,0,0,.439,1.367,1.538,1.538,0,0,0,1.24.518,1.523,1.523,0,0,0,1.235-.518A2.056,2.056,0,0,0,18.887-10.3Z" transform="translate(1088 5023.25)" fill="#12263f"/>
    </g>
  </g>
</svg>
