<svg xmlns="http://www.w3.org/2000/svg" width="67.27" height="67.27" viewBox="0 0 67.27 67.27">
  <g id="Grupo_147260" data-name="Grupo 147260" transform="translate(-1295.641 -5053.211)">
    <g id="Grupo_147257" data-name="Grupo 147257">
      <g id="Grupo_147256" data-name="Grupo 147256">
        <path id="Trazado_277395" data-name="Trazado 277395" d="M33.635,0A33.635,33.635,0,1,1,0,33.635,33.635,33.635,0,0,1,33.635,0Z" transform="translate(1295.641 5053.211)" fill="#fff"/>
        <path id="Trazado_277405" data-name="Trazado 277405" d="M-12.236,0h-9.746V-1.934l4.6-4.9a11.347,11.347,0,0,0,1.4-1.807,2.9,2.9,0,0,0,.454-1.465,2.172,2.172,0,0,0-.479-1.489,1.727,1.727,0,0,0-1.367-.542,1.863,1.863,0,0,0-1.509.659,2.611,2.611,0,0,0-.552,1.733h-2.832a4.661,4.661,0,0,1,.62-2.373A4.371,4.371,0,0,1-19.893-13.8a5.328,5.328,0,0,1,2.568-.61,5.045,5.045,0,0,1,3.413,1.055A3.731,3.731,0,0,1-12.7-10.381a4.781,4.781,0,0,1-.547,2.148,11.939,11.939,0,0,1-1.875,2.549L-18.35-2.275h6.113Zm11.3-5.879A7.2,7.2,0,0,1-2.158-1.367,4.261,4.261,0,0,1-5.732.2,4.291,4.291,0,0,1-9.287-1.338a6.992,6.992,0,0,1-1.26-4.395V-8.35a7.109,7.109,0,0,1,1.235-4.521,4.293,4.293,0,0,1,3.56-1.543A4.3,4.3,0,0,1-2.2-12.886,6.97,6.97,0,0,1-.937-8.5ZM-3.76-8.756a5.207,5.207,0,0,0-.483-2.576,1.634,1.634,0,0,0-1.509-.806,1.6,1.6,0,0,0-1.47.767,4.873,4.873,0,0,0-.5,2.4v3.46a5.466,5.466,0,0,0,.474,2.586,1.612,1.612,0,0,0,1.519.846,1.585,1.585,0,0,0,1.494-.811A5.335,5.335,0,0,0-3.76-5.374ZM7.822,0H5V-10.894L1.631-9.854v-2.275L7.52-14.238h.3ZM22.109-12.643,16.611,0H13.633l5.508-11.943H12.07v-2.275H22.109Z" transform="translate(1329.972 5093.863)" fill="#12263f"/>
      </g>
    </g>
  </g>
</svg>
