<svg id="Grupo_145021" data-name="Grupo 145021" xmlns="http://www.w3.org/2000/svg" xmlns:xlink="http://www.w3.org/1999/xlink" width="79.957" height="80" viewBox="0 0 79.957 80">
  <defs>
    <clipPath id="clip-path">
      <rect id="Rectángulo_45737" data-name="Rectángulo 45737" width="79.957" height="80" fill="none"/>
    </clipPath>
  </defs>
  <g id="Grupo_145020" data-name="Grupo 145020" clip-path="url(#clip-path)">
    <path id="Trazado_275592" data-name="Trazado 275592" d="M28.42,0a5.262,5.262,0,0,0,1.542.374,14.7,14.7,0,0,1,11.351,14.4q.023,1.678,0,3.356c-.007.435.064.664.571.816a6.622,6.622,0,0,1-.229,12.783.777.777,0,0,0-.665.693A17.13,17.13,0,0,1,31.067,45.11a.64.64,0,0,0-.44.706,11.022,11.022,0,0,1,0,1.56c-.044.51.173.593.627.6a31.53,31.53,0,0,1,5.683.211,13.171,13.171,0,0,1,9.018,6.108c.055.087.124.165.263.349a16.684,16.684,0,0,1,4-6.181,16.23,16.23,0,0,1,6.209-3.727c.061-.3-.171-.39-.287-.537A6.544,6.544,0,0,1,54.647,40.1c-.011-1.353-.017-2.706,0-4.059a2.645,2.645,0,0,1,2.619-2.732c.493-.029.988-.011,1.483-.006a2.657,2.657,0,0,0,2.3-.728c.886-.943,4.845-.838,5.877-.032a2.481,2.481,0,0,1,1.02,2.014c.006,1.951.03,3.9-.019,5.854a6.53,6.53,0,0,1-1.866,4.248c.553.222,1.063.4,1.548.624,6.092,2.861,9.349,7.67,9.66,14.379.142,3.064.041,6.14.018,9.21a1.959,1.959,0,0,0,.756,1.682,5.312,5.312,0,0,1-6.216,8.585,2.262,2.262,0,0,0-1.976-.29,32.433,32.433,0,0,1-17.177-.018,2.1,2.1,0,0,0-1.834.268,5.094,5.094,0,0,1-5.056.371,1.083,1.083,0,0,0-1.019.014,5.12,5.12,0,0,1-2.268.472q-18.538,0-37.075-.005A5.307,5.307,0,0,1,.261,76.27C.2,76.091.244,75.837,0,75.741V59.5c.278-.251.213-.616.284-.927A13.233,13.233,0,0,1,7.72,49.215a15.991,15.991,0,0,1,7.614-1.261c.64.015,1.478.287,1.874-.117s.048-1.24.129-1.878c.069-.54-.179-.758-.634-.981A17.087,17.087,0,0,1,7.011,32.558a.938.938,0,0,0-.8-.847,6.469,6.469,0,0,1-4.889-6.2,6.568,6.568,0,0,1,4.492-6.444c.7-.225.916-.518.88-1.234-.062-1.259.126-1.466,1.271-1.883a2.355,2.355,0,0,0,2.229.071c6.162-2.74,12.636-3.188,19.238-2.366a29.948,29.948,0,0,1,8.512,2.411c.593.264.721.106.686-.472-.038-.622-.011-1.248-.04-1.871A12.005,12.005,0,0,0,28.338,2.787a59.954,59.954,0,0,0-6.777-.124A11.972,11.972,0,0,0,9.641,11.969c-.259,1.01-.575,1.271-1.616,1.335-1.024-.412-1.285-.914-.956-2.1A14.57,14.57,0,0,1,17.76.444,7.047,7.047,0,0,0,19.519,0ZM74.633,64.157c-.088-1.676.082-3.7-.117-5.732A13.327,13.327,0,0,0,47.954,60.2c-.006,2.759-.061,5.519.02,8.275a4.8,4.8,0,0,1-1.807,4.252,2.325,2.325,0,0,0-.794,2.534,2.622,2.622,0,0,0,4.076,1.559,4.571,4.571,0,0,1,3.939-.555,29.568,29.568,0,0,0,15.852-.009,4.443,4.443,0,0,1,3.8.506,2.653,2.653,0,1,0,3.108-4.3,4,4,0,0,1-1.523-3.269c.025-1.561.006-3.123.006-5.033M9.372,21.937c0,2.439.006,4.7,0,6.953a15.135,15.135,0,0,0,.225,3.182,14.637,14.637,0,0,0,28.979-1.782c.113-2.648.04-5.3.049-7.957,0-.1.01-.213-.131-.237-2.486,2-3.719,2.22-6.827,1.44a30.531,30.531,0,0,0-15.42.028c-2.573.678-4.822.45-6.873-1.626m10.67,32.752a2.46,2.46,0,0,0-.051.309q0,10.846-.015,21.692c0,.566.238.62.7.616,2.132-.017,4.266-.034,6.4.008.688.014.919-.14.915-.883-.031-7-.017-13.993-.022-20.989a1.036,1.036,0,0,0-.1-.7,6.761,6.761,0,0,1-7.825-.051m-12.064-2.6A10.334,10.334,0,0,0,2.7,60.809c-.151,4.6-.056,9.209-.033,13.814a2.635,2.635,0,0,0,2.687,2.67c.6.019,1.2-.049,1.793.018.727.083.843-.22.841-.875Q7.959,64.69,7.978,52.943Zm32,0V63.806c0,4.267.009,8.534-.011,12.8,0,.537.131.746.691.7a16.754,16.754,0,0,1,1.794-.007c.581.017.855-.022.557-.766a5.19,5.19,0,0,1,1.608-6.041A1.7,1.7,0,0,0,45.3,69.02q-.026-3.863,0-7.727a9.952,9.952,0,0,0-.332-2.621,10.686,10.686,0,0,0-4.988-6.585M37.813,18.96a19.11,19.11,0,0,0-3.15-1.323,34.432,34.432,0,0,0-16.841-1.179,26.8,26.8,0,0,0-7.113,2.224c-.2.092-.572.086-.3.51a4.084,4.084,0,0,0,4.71,1.89,34.6,34.6,0,0,1,18.009.063,3.184,3.184,0,0,0,3.075-.628c.546-.475,1.046-1,1.615-1.556M65.281,37.817v-1.17c0-2.108,0-2.1-2.123-2-.4.019-.558.124-.543.538.025.7.024,1.4,0,2.105A1.251,1.251,0,0,1,61.278,38.6a1.273,1.273,0,0,1-1.314-1.26c-.114-1.4-.114-1.4-1.549-1.395a5.057,5.057,0,0,1-.546,0c-.454-.05-.58.158-.572.589.023,1.144,0,2.288.011,3.432A3.984,3.984,0,1,0,65.277,40c.011-.728,0-1.456,0-2.184m-37.327,10.5c0-.6-.018-1.092.006-1.584.02-.406-.085-.56-.527-.461a15.584,15.584,0,0,1-6.871,0c-.364-.082-.586-.071-.57.413.032.96-.025,1.924.024,2.883a3.975,3.975,0,0,0,7.792.815,8.786,8.786,0,0,0,.145-2.064m-13.927,14.3c-.934,0-1.869.017-2.8-.008-.422-.011-.607.092-.592.557.032.959.025,1.92,0,2.88-.01.414.083.608.553.6,1.868-.022,3.736-.018,5.6,0,.4,0,.554-.107.544-.525-.025-.986-.03-1.973,0-2.958.015-.465-.166-.566-.587-.554-.907.026-1.816.008-2.724.008m20.015,4.022c.908,0,1.816-.012,2.724.006.377.008.571-.071.559-.51-.027-1.011-.021-2.024,0-3.035.007-.373-.122-.492-.491-.489q-2.841.021-5.682,0c-.416,0-.535.143-.526.542q.033,1.478,0,2.958c-.009.408.133.547.539.537.959-.022,1.92-.007,2.88-.007m-.089-12c.935,0,1.871-.021,2.805.009.451.015.582-.143.567-.579-.029-.83-.04-1.664,0-2.493.026-.506-.177-.66-.64-.745a35.678,35.678,0,0,0-5.674-.217c-.393-.01-.385.249-.385.522,0,.987.023,1.975-.009,2.962-.016.479.195.558.6.548.909-.022,1.818-.007,2.728-.007m-20.013,0c.961,0,1.922-.01,2.883.006.348.006.521-.075.513-.47-.021-1.039-.01-2.078-.005-3.117,0-.267-.046-.454-.378-.444a33.091,33.091,0,0,0-5.747.239c-.393.08-.587.211-.571.651.03.882.022,1.766,0,2.649-.008.373.13.5.5.493.935-.018,1.87-.006,2.8-.006m-.015,5.315c.468,0,.936.016,1.4,0,.642-.028,1.5.285,1.87-.118.4-.432.059-1.287.133-1.951.057-.517-.172-.593-.62-.584-1.35.026-2.7.009-4.051.009-2.064,0-2.042,0-2.019,2.075.006.517.193.6.637.581.882-.029,1.766-.008,2.649-.008m20.039-2.648H32.639c-2.027,0-2.01,0-2.009,2,0,.5.114.671.641.656,1.349-.038,2.7,0,4.051-.019.641-.01,1.477.285,1.87-.12s.06-1.236.123-1.875c.048-.49-.09-.686-.625-.658-.907.047-1.817.013-2.726.013M13.979,71.966H15.3c2.108,0,2.1,0,2.031-2.129-.012-.4-.116-.533-.525-.527-1.373.023-2.748.008-4.122.008-2.135,0-2.123,0-2.041,2.126.015.407.129.54.535.529.933-.025,1.866-.008,2.8-.008m20.008,0h1.322c2.055,0,2.034,0,2.014-2.072,0-.509-.179-.593-.627-.585-1.348.025-2.7.009-4.044.009-2.076,0-2.056,0-2.024,2.068.008.509.189.6.637.588.906-.029,1.814-.009,2.722-.009M14.052,74.635H12.571c-1.968,0-1.951,0-1.94,2.011,0,.5.121.678.648.664,1.35-.036,2.7-.012,4.052-.012,2.032,0,2.016,0,2.009-2.011,0-.49-.108-.69-.639-.664-.881.043-1.766.012-2.649.012M34.037,77.3h1.247c2.082,0,2.067,0,2.045-2.053-.005-.466-.11-.634-.6-.622-1.35.033-2.7.011-4.052.011-2.148,0-2.136,0-2.051,2.132.016.4.119.55.533.539.96-.025,1.922-.008,2.883-.008M6.68,29.006c0-2.311-.005-4.565,0-6.819,0-.412-.064-.58-.524-.373a3.928,3.928,0,0,0-2.115,3.849A3.623,3.623,0,0,0,6.68,29.006m34.666-3.786c0,1.067.013,2.134-.006,3.2-.009.519.171.592.591.342a3.956,3.956,0,0,0-.049-6.92c-.41-.243-.548-.118-.541.333.014,1.015,0,2.029,0,3.044"/>
    <path id="Trazado_275593" data-name="Trazado 275593" d="M246.3,240.911c0,1.911.019,3.472-.006,5.033a4,4,0,0,0,1.523,3.269,2.653,2.653,0,1,1-3.108,4.3,4.444,4.444,0,0,0-3.8-.506,29.567,29.567,0,0,1-15.851.01,4.571,4.571,0,0,0-3.939.555,2.622,2.622,0,0,1-4.076-1.559,2.325,2.325,0,0,1,.794-2.534,4.8,4.8,0,0,0,1.807-4.252c-.081-2.756-.026-5.517-.02-8.275a13.327,13.327,0,0,1,26.562-1.772c.2,2.029.029,4.055.117,5.732" transform="translate(-171.666 -176.755)" fill="#22afd6"/>
    <path id="Trazado_275594" data-name="Trazado 275594" d="M44.89,105.109c2.051,2.075,4.3,2.3,6.873,1.626a30.529,30.529,0,0,1,15.42-.028c3.108.781,4.34.565,6.827-1.44.141.025.131.141.131.237-.009,2.653.064,5.309-.049,7.957a14.637,14.637,0,0,1-28.98,1.783,15.136,15.136,0,0,1-.225-3.182c.009-2.257,0-4.514,0-6.953M59.526,123.16a7.02,7.02,0,0,0,6.244-3.02,1.366,1.366,0,0,0-.167-2.058,1.294,1.294,0,0,0-1.94.467c-1.648,2.6-6.505,2.651-8.258.072-.584-.86-1.322-.985-1.989-.5-.69.506-.738,1.265-.1,2.116a7.1,7.1,0,0,0,6.207,2.92" transform="translate(-35.519 -83.172)" fill="#f1caab"/>
    <path id="Trazado_275595" data-name="Trazado 275595" d="M38.164,25.912q.029-1.32.059-2.641c1.042-.063,1.358-.325,1.617-1.335a11.972,11.972,0,0,1,11.92-9.306,60,60,0,0,1,6.777.124,12.006,12.006,0,0,1,10.253,10.93c.029.623,0,1.249.04,1.871.035.579-.093.737-.686.472a29.949,29.949,0,0,0-8.512-2.41c-6.6-.823-13.076-.374-19.238,2.366a2.356,2.356,0,0,1-2.229-.072" transform="translate(-30.199 -9.968)" fill="#2941a0"/>
    <path id="Trazado_275596" data-name="Trazado 275596" d="M95.779,262.038a6.76,6.76,0,0,0,7.824.051,1.035,1.035,0,0,1,.1.7c0,7-.009,13.993.022,20.989,0,.743-.227.9-.915.883-2.132-.042-4.265-.025-6.4-.008-.457,0-.7-.05-.7-.616q.029-10.846.015-21.692a2.458,2.458,0,0,1,.051-.308" transform="translate(-75.737 -207.349)" fill="#2941a0"/>
    <path id="Trazado_275597" data-name="Trazado 275597" d="M17.91,249.579v.854q0,11.747.014,23.494c0,.655-.115.958-.841.875-.591-.067-1.2,0-1.793-.018a2.636,2.636,0,0,1-2.687-2.671c-.023-4.605-.118-9.214.033-13.814a10.334,10.334,0,0,1,5.275-8.72" transform="translate(-9.932 -197.49)" fill="#2941a0"/>
    <path id="Trazado_275598" data-name="Trazado 275598" d="M191.5,249.573a10.686,10.686,0,0,1,4.988,6.585,9.961,9.961,0,0,1,.333,2.621q-.016,3.863,0,7.727a1.7,1.7,0,0,1-.686,1.474,5.189,5.189,0,0,0-1.608,6.041c.3.743.023.782-.557.766a16.762,16.762,0,0,0-1.794.007c-.56.044-.693-.165-.691-.7.021-4.267.012-8.534.012-12.8V249.573" transform="translate(-151.521 -197.485)" fill="#2941a0"/>
    <path id="Trazado_275599" data-name="Trazado 275599" d="M76.906,79.378c-.569.552-1.068,1.081-1.614,1.557a3.184,3.184,0,0,1-3.075.628A34.6,34.6,0,0,0,54.208,81.5a4.084,4.084,0,0,1-4.71-1.89c-.269-.424.106-.418.3-.51a26.8,26.8,0,0,1,7.113-2.224,34.432,34.432,0,0,1,16.841,1.179,19.109,19.109,0,0,1,3.15,1.323" transform="translate(-39.093 -60.418)" fill="#2941a0"/>
    <path id="Trazado_275600" data-name="Trazado 275600" d="M282.521,169.067c0,.728.008,1.456,0,2.184a3.984,3.984,0,1,1-7.968-.035c-.01-1.144.012-2.288-.011-3.432-.009-.43.119-.638.572-.589a5.061,5.061,0,0,0,.546,0c1.435,0,1.435,0,1.549,1.395a1.273,1.273,0,0,0,1.314,1.26,1.251,1.251,0,0,0,1.336-1.308c.025-.7.026-1.4,0-2.106-.015-.414.147-.519.543-.538,2.123-.1,2.123-.112,2.123,2q0,.585,0,1.17" transform="translate(-217.242 -131.25)" fill="#22afd6"/>
    <path id="Trazado_275601" data-name="Trazado 275601" d="M103.75,223.622a8.787,8.787,0,0,1-.145,2.064,3.975,3.975,0,0,1-7.792-.815c-.049-.959.007-1.923-.024-2.883-.016-.483.205-.494.57-.412a15.584,15.584,0,0,0,6.871,0c.443-.1.547.056.527.461-.024.493-.006.987-.006,1.585" transform="translate(-75.796 -175.3)" fill="#f1caab"/>
    <path id="Trazado_275602" data-name="Trazado 275602" d="M54.34,300.039c.908,0,1.816.018,2.724-.008.422-.012.6.09.587.554-.032.985-.027,1.972,0,2.958.011.419-.148.529-.543.525-1.868-.016-3.736-.02-5.6,0-.47.006-.563-.189-.553-.6.022-.959.029-1.921,0-2.88-.015-.465.17-.568.592-.557.933.025,1.868.008,2.8.008" transform="translate(-40.313 -237.412)" fill="#89ebd4"/>
    <path id="Trazado_275603" data-name="Trazado 275603" d="M150.146,304.066c-.96,0-1.92-.015-2.88.007-.406.009-.548-.13-.539-.537q.033-1.478,0-2.958c-.009-.4.11-.546.526-.542q2.841.027,5.682,0c.37,0,.5.116.491.489-.019,1.012-.025,2.024,0,3.035.012.439-.182.517-.559.51-.908-.018-1.816-.006-2.724-.006" transform="translate(-116.104 -237.416)" fill="#89ebd4"/>
    <path id="Trazado_275604" data-name="Trazado 275604" d="M150.047,246.56c-.909,0-1.819-.015-2.728.007-.409.01-.62-.07-.6-.548.032-.986.011-1.974.009-2.962,0-.273-.008-.532.385-.522a35.728,35.728,0,0,1,5.674.217c.463.086.667.24.64.745-.043.829-.033,1.663,0,2.493.015.436-.115.593-.567.579-.934-.031-1.87-.009-2.805-.009" transform="translate(-116.094 -191.913)" fill="#89ebd4"/>
    <path id="Trazado_275605" data-name="Trazado 275605" d="M54.254,246.553c-.935,0-1.87-.012-2.8.006-.368.007-.506-.12-.5-.493.018-.883.027-1.767,0-2.649-.015-.44.179-.571.571-.651a33.092,33.092,0,0,1,5.747-.239c.332-.009.379.177.378.444-.005,1.039-.016,2.078.005,3.117.008.4-.165.476-.513.47-.961-.016-1.922-.006-2.883-.006" transform="translate(-40.314 -191.906)" fill="#89ebd4"/>
    <path id="Trazado_275606" data-name="Trazado 275606" d="M54.245,277.227c-.883,0-1.767-.02-2.649.009-.443.014-.631-.064-.637-.581-.024-2.075-.045-2.075,2.019-2.075,1.351,0,2.7.016,4.051-.009.448-.009.677.067.62.584-.073.664.269,1.518-.133,1.951-.374.4-1.228.09-1.87.118-.467.02-.935,0-1.4,0" transform="translate(-40.32 -217.265)" fill="#fefefe"/>
    <path id="Trazado_275607" data-name="Trazado 275607" d="M150.095,274.559c.909,0,1.82.034,2.726-.013.535-.027.673.169.625.658-.063.64.266,1.474-.123,1.875s-1.229.11-1.87.12c-1.35.021-2.7-.019-4.051.019-.527.015-.64-.16-.641-.656,0-2-.019-2,2.009-2h1.324" transform="translate(-116.131 -217.245)" fill="#fefefe"/>
    <path id="Trazado_275608" data-name="Trazado 275608" d="M54.238,334.749c-.933,0-1.867-.017-2.8.008-.407.011-.52-.123-.536-.529-.081-2.126-.094-2.126,2.041-2.126,1.374,0,2.748.014,4.122-.008.409-.007.513.122.525.526.065,2.13.077,2.129-2.031,2.129H54.238" transform="translate(-40.259 -262.783)" fill="#fefefe"/>
    <path id="Trazado_275609" data-name="Trazado 275609" d="M150.083,334.744c-.907,0-1.815-.02-2.722.009-.448.014-.629-.079-.637-.588-.032-2.068-.052-2.068,2.024-2.068,1.348,0,2.7.016,4.044-.009.448-.008.623.076.627.585.019,2.072.04,2.072-2.014,2.072h-1.322" transform="translate(-116.096 -262.779)" fill="#fefefe"/>
    <path id="Trazado_275610" data-name="Trazado 275610" d="M54.351,357.554c.883,0,1.768.032,2.649-.012.532-.026.638.174.64.664.007,2.011.023,2.011-2.009,2.011-1.351,0-2.7-.024-4.052.012-.527.014-.645-.168-.648-.664-.012-2.011-.028-2.011,1.94-2.011h1.481" transform="translate(-40.3 -282.919)" fill="#89ebd4"/>
    <path id="Trazado_275611" data-name="Trazado 275611" d="M150.031,360.225c-.961,0-1.923-.017-2.883.008-.414.01-.517-.14-.533-.539-.085-2.132-.1-2.132,2.051-2.132,1.351,0,2.7.022,4.052-.011.494-.012.6.155.6.622.022,2.053.037,2.053-2.045,2.053h-1.247" transform="translate(-115.994 -282.927)" fill="#89ebd4"/>
    <path id="Trazado_275612" data-name="Trazado 275612" d="M22,111.377a3.623,3.623,0,0,1-2.634-3.343,3.928,3.928,0,0,1,2.115-3.849c.459-.207.525-.039.523.373-.01,2.254,0,4.508,0,6.819" transform="translate(-15.32 -82.371)" fill="#f1caab"/>
    <path id="Trazado_275613" data-name="Trazado 275613" d="M198.085,107.577c0-1.015.01-2.03,0-3.044-.006-.451.132-.576.541-.333a3.956,3.956,0,0,1,.049,6.92c-.42.25-.6.177-.591-.342.019-1.066.006-2.134.006-3.2" transform="translate(-156.739 -82.356)" fill="#f1caab"/>
    <path id="Trazado_275614" data-name="Trazado 275614" d="M89.781,171.352a7.1,7.1,0,0,1-6.207-2.92c-.642-.852-.593-1.611.1-2.116.667-.489,1.4-.363,1.989.5,1.753,2.579,6.611,2.525,8.258-.072a1.294,1.294,0,0,1,1.94-.467,1.366,1.366,0,0,1,.167,2.058,7.02,7.02,0,0,1-6.244,3.02" transform="translate(-65.774 -131.364)" fill="#383838"/>
  </g>
</svg>
