<svg xmlns="http://www.w3.org/2000/svg" width="220.002" height="105.001" viewBox="0 0 220.002 105.001">
  <g id="Unión_1" data-name="Unión 1" transform="translate(-10601.896 -10620)" fill="#89ebd4">
    <path d="M 10734.8974609375 10716.390625 L 10734.8974609375 10694.0009765625 L 10734.8974609375 10689.0009765625 L 10729.8974609375 10689.0009765625 L 10606.8955078125 10689.0009765625 L 10606.8955078125 10655.9990234375 L 10729.8974609375 10655.9990234375 L 10734.8974609375 10655.9990234375 L 10734.8974609375 10650.9990234375 L 10734.8974609375 10628.6103515625 L 10811.8095703125 10672.4990234375 L 10734.8974609375 10716.390625 Z" stroke="none"/>
    <path d="M 10739.8974609375 10707.7802734375 L 10801.7216796875 10672.4990234375 L 10739.8974609375 10637.2197265625 L 10739.8974609375 10660.9990234375 L 10611.8955078125 10660.9990234375 L 10611.8955078125 10684.0009765625 L 10739.8974609375 10684.0009765625 L 10739.8974609375 10707.7802734375 M 10729.8974609375 10725.0009765625 L 10729.8974609375 10694.0009765625 L 10601.8955078125 10694.0009765625 L 10601.8955078125 10650.9990234375 L 10729.8974609375 10650.9990234375 L 10729.8974609375 10620 L 10821.8974609375 10672.4990234375 L 10729.8974609375 10725.0009765625 Z" stroke="none" fill="#0f1e5a"/>
  </g>
</svg>
