<svg xmlns="http://www.w3.org/2000/svg" xmlns:xlink="http://www.w3.org/1999/xlink" width="187" height="187" viewBox="0 0 187 187">
  <defs>
    <clipPath id="clip-path">
      <circle id="Elipse_154" data-name="Elipse 154" cx="83.5" cy="83.5" r="83.5" transform="translate(0.08 0.269)" fill="#ebf9ff" stroke="#707070" stroke-width="1"/>
    </clipPath>
    <clipPath id="clip-path-2">
      <rect id="Rectángulo_46253" data-name="Rectángulo 46253" width="102.002" height="101.995"/>
    </clipPath>
  </defs>
  <g id="Grupo_147241" data-name="Grupo 147241" transform="translate(-285.001 -10130.25)">
    <g id="Grupo_131425" data-name="Grupo 131425" transform="translate(294.92 10139.98)">
      <g id="Enmascarar_grupo_17" data-name="Enmascarar grupo 17" transform="translate(0 0.001)" clip-path="url(#clip-path)">
        <g id="Elipse_5506" data-name="Elipse 5506" transform="translate(-35.92 -35.731)" fill="#ebf9ff" stroke="#707070" stroke-width="1">
          <circle cx="120" cy="120" r="120" stroke="none"/>
          <circle cx="120" cy="120" r="119.5" fill="none"/>
        </g>
      </g>
      <g id="Elipse_157" data-name="Elipse 157" transform="translate(0.081 0.27)" fill="none" stroke="#00ffe6" stroke-linejoin="round" stroke-width="10">
        <circle cx="83.5" cy="83.5" r="83.5" stroke="none"/>
        <circle cx="83.5" cy="83.5" r="88.5" fill="none"/>
      </g>
    </g>
    <g id="Grupo_146208" data-name="Grupo 146208" transform="translate(330.999 10172.686)">
      <g id="Grupo_146207" data-name="Grupo 146207" clip-path="url(#clip-path-2)">
        <path id="Trazado_277073" data-name="Trazado 277073" d="M444.2,95.756c-.317.113-.261.438-.343.663a6.568,6.568,0,1,1,.132-3.754c.047.176-.045.413.211.5Zm-3.312-1.445a3.282,3.282,0,0,0-3.292-3.273,3.315,3.315,0,0,0-3.263,3.318,3.278,3.278,0,0,0,6.556-.044" transform="translate(-342.198 -69.658)"/>
        <path id="Trazado_277074" data-name="Trazado 277074" d="M420.955,0a5.262,5.262,0,0,1,3.817,3.738,4.927,4.927,0,1,1-7.2-3.106c.391-.222.873-.271,1.188-.632Zm.658,4.9a1.585,1.585,0,0,0-1.685-1.577,1.6,1.6,0,0,0-1.562,1.609,1.634,1.634,0,0,0,1.643,1.642,1.617,1.617,0,0,0,1.6-1.675" transform="translate(-329.513)"/>
        <path id="Trazado_277075" data-name="Trazado 277075" d="M0,133.788a17.61,17.61,0,0,1,5.516-12.049Q16.907,110.384,28.266,99q11.443-11.443,22.9-22.876c.584-.581.756-.9.064-1.6a6.28,6.28,0,1,1,8.947-8.814q13.4,13.356,26.761,26.76a6.276,6.276,0,1,1-8.773,8.978c-.694-.668-1.013-.634-1.677.032q-22.75,22.813-45.544,45.582a17.849,17.849,0,0,1-12.985,5.562C8.037,152.653-.016,144.57,0,133.788m18.769-20.632h1.258q19.522,0,39.044.018a2.427,2.427,0,0,0,1.9-.8c5.192-5.232,10.426-10.422,15.605-15.665.642-.65.961-.6,1.514.033a33.444,33.444,0,0,0,2.387,2.4,2.941,2.941,0,0,0,3.5.454,2.987,2.987,0,0,0,1.5-3.2,3.86,3.86,0,0,0-1.311-2.059Q73.244,83.425,62.328,72.508c-1.479-1.479-2.948-2.969-4.441-4.433a3.02,3.02,0,0,0-3.558-.672c-1.984,1.012-2.241,3.358-.529,5.073q9.042,9.059,18.1,18.1c.534.535,1.447,1.1,1.445,1.649s-.955,1.081-1.429,1.67c-.487.6-.814.575-1.369.015q-7.077-7.15-14.214-14.24c-.656-.655-1.333-1.807-2-1.806-.847,0-1.407,1.251-2.164,1.879-.457.379-.376.629.015,1.011q2.424,2.364,4.79,4.788c.572.585,1.611,1.087,1.554,1.808-.048.612-1.037,1.122-1.542,1.733-.453.55-.736.4-1.161-.038-1.763-1.805-3.559-3.577-5.344-5.361-1.12-1.12-1.12-1.12-2.268.028-1.458,1.457-1.458,1.457-.036,2.88.188.188.385.368.561.566.55.615,1.664,1.149,1.576,1.793-.1.689-1.1,1.236-1.669,1.884-.366.419-.595.326-.936-.031-.917-.96-1.885-1.872-2.8-2.831-.349-.365-.589-.426-.952-.018a17.907,17.907,0,0,1-1.619,1.618c-.459.4-.451.651-.007,1.079,1.6,1.544,3.16,3.131,4.729,4.707.585.587,1.6,1.177,1.616,1.786.018.715-1.092,1.218-1.637,1.879-.378.459-.622.367-1-.021q-2.221-2.286-4.5-4.512c-.675-.663-1.308-1.882-2.061-1.813s-1.379,1.22-2.1,1.855c-.426.377-.416.631,0,1.021.943.887,1.811,1.853,2.766,2.726.481.44.428.705-.028,1.082-.633.523-1.107,1.588-1.8,1.568-.592-.017-1.146-.991-1.736-1.52-.7-.632-1.288-1.893-2.067-1.8-.756.089-1.367,1.243-2.087,1.878-.45.4-.36.639.026,1.016,1.638,1.6,3.247,3.232,4.867,4.852,1.7,1.7,1.674,1.675,0,3.412-.563.585-.835.438-1.313-.053-1.9-1.949-3.855-3.845-5.755-5.8-.459-.471-.758-.614-1.23-.034a12.471,12.471,0,0,1-1.475,1.48c-.435.38-.543.653-.031,1.075A15.5,15.5,0,0,1,29,106.912c.559.6,1.665,1.143,1.574,1.786-.1.691-1.105,1.236-1.671,1.883-.363.415-.591.328-.931-.028-.917-.96-1.874-1.882-2.808-2.826-.272-.275-.471-.515-.872-.106-1.762,1.8-3.553,3.568-5.521,5.535m37.879,3.26H16.538a1.766,1.766,0,0,0-1.46.419c-2.628,2.677-5.37,5.247-7.917,8a13.831,13.831,0,0,0-3.421,13.3,13.848,13.848,0,0,0,10.166,10.6,13.938,13.938,0,0,0,14.388-3.721Q42.258,131.151,56.123,117.2c.2-.2.5-.338.525-.78" transform="translate(0 -50.627)"/>
        <path id="Trazado_277076" data-name="Trazado 277076" d="M324.177,33.868a4.915,4.915,0,1,1,4.918-4.943,4.936,4.936,0,0,1-4.918,4.943m-.016-3.266a1.649,1.649,0,1,0-1.636-1.635,1.636,1.636,0,0,0,1.636,1.635" transform="translate(-253.407 -19.083)"/>
        <path id="Trazado_277077" data-name="Trazado 277077" d="M453.542,106.995a3.278,3.278,0,0,1-6.556.044,3.315,3.315,0,0,1,3.263-3.318,3.281,3.281,0,0,1,3.292,3.273" transform="translate(-354.852 -82.342)" fill="#22afd6"/>
        <path id="Trazado_277078" data-name="Trazado 277078" d="M434.321,17.68a1.617,1.617,0,0,1-1.6,1.675,1.634,1.634,0,0,1-1.643-1.642,1.6,1.6,0,0,1,1.562-1.609,1.585,1.585,0,0,1,1.685,1.577" transform="translate(-342.22 -12.783)" fill="#22afd6"/>
        <path id="Trazado_277079" data-name="Trazado 277079" d="M91.056,125.923c1.968-1.967,3.759-3.737,5.521-5.536.4-.409.6-.169.872.106.933.945,1.89,1.866,2.808,2.826.34.356.568.443.931.028.566-.647,1.573-1.192,1.671-1.883.092-.643-1.015-1.182-1.574-1.786a15.524,15.524,0,0,0-1.484-1.472c-.512-.421-.4-.695.031-1.075a12.489,12.489,0,0,0,1.475-1.48c.473-.58.771-.437,1.23.034,1.9,1.95,3.855,3.846,5.755,5.8.478.491.75.638,1.313.053,1.671-1.737,1.7-1.707,0-3.412-1.62-1.62-3.228-3.251-4.867-4.852-.386-.377-.476-.618-.026-1.016.72-.635,1.331-1.79,2.087-1.878.779-.091,1.362,1.17,2.067,1.8.59.529,1.145,1.5,1.736,1.52.7.02,1.169-1.045,1.8-1.568.456-.376.51-.642.028-1.082-.955-.872-1.824-1.839-2.766-2.726-.414-.39-.424-.643,0-1.021.718-.636,1.349-1.786,2.1-1.855s1.385,1.15,2.061,1.813q2.275,2.232,4.5,4.512c.377.389.621.48,1,.021.545-.661,1.655-1.164,1.637-1.879-.015-.608-1.032-1.2-1.616-1.786-1.57-1.576-3.129-3.163-4.729-4.707-.444-.428-.453-.68.006-1.079a17.905,17.905,0,0,0,1.619-1.618c.363-.408.6-.348.952.018.917.959,1.885,1.871,2.8,2.831.34.357.57.45.936.031.565-.648,1.574-1.194,1.668-1.884.089-.644-1.026-1.177-1.575-1.793-.177-.2-.374-.378-.561-.565-1.422-1.423-1.422-1.423.036-2.88,1.148-1.148,1.148-1.148,2.268-.028,1.784,1.784,3.581,3.556,5.343,5.361.426.436.709.588,1.162.038.5-.612,1.494-1.122,1.542-1.733.056-.721-.983-1.223-1.554-1.809q-2.366-2.423-4.79-4.787c-.391-.381-.472-.632-.015-1.011.757-.628,1.318-1.879,2.164-1.88.666,0,1.343,1.151,2,1.806q7.117,7.11,14.214,14.24c.555.561.882.59,1.369-.015.474-.589,1.427-1.114,1.429-1.67s-.911-1.114-1.445-1.649q-9.046-9.055-18.1-18.1c-1.712-1.716-1.455-4.061.529-5.073a3.021,3.021,0,0,1,3.558.672c1.493,1.464,2.962,2.954,4.441,4.433q10.918,10.916,21.836,21.831a3.862,3.862,0,0,1,1.311,2.059,2.987,2.987,0,0,1-1.5,3.2,2.941,2.941,0,0,1-3.5-.454,33.45,33.45,0,0,1-2.387-2.4c-.553-.632-.872-.682-1.514-.032-5.179,5.244-10.414,10.433-15.605,15.665a2.428,2.428,0,0,1-1.9.8q-19.522-.038-39.045-.018Z" transform="translate(-72.287 -63.393)" fill="#e4e7eb"/>
        <path id="Trazado_277080" data-name="Trazado 277080" d="M69.243,319.176c-.028.442-.327.582-.525.78q-13.9,13.915-27.828,27.808A13.938,13.938,0,0,1,26.5,351.485a14.6,14.6,0,0,1-6.745-23.894c2.548-2.75,5.289-5.32,7.917-8a1.766,1.766,0,0,1,1.46-.419h40.11ZM32.334,348.807a4.942,4.942,0,1,0-4.949-4.938,4.972,4.972,0,0,0,4.949,4.938m9.9-19.8a4.913,4.913,0,1,0,4.963-4.885,4.935,4.935,0,0,0-4.963,4.885m-8.28.046a4.912,4.912,0,1,0-4.9,4.959,4.92,4.92,0,0,0,4.9-4.959" transform="translate(-12.594 -253.386)" fill="#89ebd4"/>
        <path id="Trazado_277081" data-name="Trazado 277081" d="M336.963,43.187a1.649,1.649,0,1,1,1.6-1.662,1.648,1.648,0,0,1-1.6,1.662" transform="translate(-266.209 -31.668)" fill="#22afd6"/>
        <path id="Trazado_277082" data-name="Trazado 277082" d="M76.706,424.863a4.942,4.942,0,1,1,4.946-4.933,4.992,4.992,0,0,1-4.946,4.933m-.015-6.567a1.606,1.606,0,0,0-1.607,1.642,1.619,1.619,0,1,0,1.607-1.642" transform="translate(-56.966 -329.442)" fill="#1f1a15"/>
        <path id="Trazado_277083" data-name="Trazado 277083" d="M143.8,348.069a4.913,4.913,0,1,1,4.855,5.005,4.918,4.918,0,0,1-4.855-5.005m4.885,1.682a1.661,1.661,0,0,0,1.67-1.605,1.648,1.648,0,0,0-3.3-.042,1.651,1.651,0,0,0,1.626,1.648" transform="translate(-114.158 -272.445)" fill="#1f1a15"/>
        <path id="Trazado_277084" data-name="Trazado 277084" d="M65.789,348.115a4.912,4.912,0,1,1-4.918-4.932,4.93,4.93,0,0,1,4.918,4.932m-4.861,1.635a1.658,1.658,0,0,0,1.6-1.673,1.65,1.65,0,0,0-3.3.094,1.658,1.658,0,0,0,1.7,1.578" transform="translate(-44.429 -272.446)" fill="#1f1a15"/>
        <path id="Trazado_277085" data-name="Trazado 277085" d="M89.506,431.073a1.623,1.623,0,1,1-1.607,1.642,1.592,1.592,0,0,1,1.607-1.642" transform="translate(-69.781 -342.219)" fill="#dbd8b2"/>
        <path id="Trazado_277086" data-name="Trazado 277086" d="M161.238,362.55a1.651,1.651,0,0,1-1.626-1.648,1.648,1.648,0,0,1,3.3.042,1.661,1.661,0,0,1-1.67,1.605" transform="translate(-126.713 -285.244)" fill="#dbd8b2"/>
        <path id="Trazado_277087" data-name="Trazado 277087" d="M73.512,362.554a1.658,1.658,0,0,1-1.7-1.578,1.65,1.65,0,0,1,3.3-.094,1.658,1.658,0,0,1-1.6,1.673" transform="translate(-57.013 -285.25)" fill="#dbd8b2"/>
      </g>
    </g>
  </g>
</svg>
