<svg xmlns="http://www.w3.org/2000/svg" xmlns:xlink="http://www.w3.org/1999/xlink" width="505" height="442" viewBox="0 0 505 442">
  <defs>
    <clipPath id="clip-path">
      <rect id="Rectángulo_47443" data-name="Rectángulo 47443" width="457.41" height="419.828" fill="none"/>
    </clipPath>
    <clipPath id="clip-path-3">
      <rect id="Rectángulo_47433" data-name="Rectángulo 47433" width="58.182" height="90.625" fill="none"/>
    </clipPath>
  </defs>
  <g id="Grupo_147241" data-name="Grupo 147241" transform="translate(-809.896 -4100)">
    <path id="Trazado_278522" data-name="Trazado 278522" d="M0,0H505V442H0Z" transform="translate(809.896 4100)" fill="#fff"/>
    <g id="Grupo_147227" data-name="Grupo 147227" transform="translate(833.896 4111)">
      <g id="Grupo_147226" data-name="Grupo 147226" clip-path="url(#clip-path)">
        <g id="Grupo_147225" data-name="Grupo 147225">
          <g id="Grupo_147224" data-name="Grupo 147224" clip-path="url(#clip-path)">
            <path id="Trazado_278441" data-name="Trazado 278441" d="M456.345,211.473c-.9-.67-2.508-.745-5.374-.193-11.511,2.222-23.8,11.446-35.511,14.89a173.279,173.279,0,0,1-36.133,6.577c-5.228.384-10.64.5-15.54-1.362-3.153-1.2-5.959-3.175-9.082-4.45-4.244-1.733-8.9-2.1-13.464-2.515a573.555,573.555,0,0,1-61.132-8.815c-15.551-3.106-31.259-6.972-44.813-15.2-6.993-4.246-13.828-9.78-22-10.212-5.989-.317-12.264,2.183-17.832-.047-4.035-1.616-7.039-5.533-11.32-6.286-2.949-.518-5.9.583-8.8,1.352-27.243,7.23-57.916-14.471-83.167-1.946-8.97,4.45-17.666,13.148-27.255,10.258-2.628-.792-5.478-2.437-7.9-1.145-1.825.972-2.494,3.2-3.109,5.17-4,12.811-15.969,25.195-29.057,22.22-4.7-1.069-19.322-13.01-23.631-10.086C-.806,211.066.3,219.143.3,221.411q.007,16.934,0,33.869v53.531H457.313V219.878c0-4.412.551-7.267-.968-8.405" transform="translate(0 111.017)" fill="#f6e2cd"/>
            <path id="Trazado_278442" data-name="Trazado 278442" d="M244.14,274.805h-1.619V140.544H166.293v-1.619H244.14Z" transform="translate(102.97 86.023)"/>
            <path id="Trazado_278443" data-name="Trazado 278443" d="M264.17,284.822H262.55V124.368H166.293v-1.619H264.17Z" transform="translate(102.97 76.007)"/>
            <rect id="Rectángulo_47407" data-name="Rectángulo 47407" width="44.167" height="26.192" transform="translate(366.331 199.566)" fill="#b3b3b3"/>
            <path id="Trazado_278444" data-name="Trazado 278444" d="M271.527,150.56H225.741V122.749h45.786Zm-44.169-1.619h42.548V124.368H227.359Z" transform="translate(139.781 76.007)"/>
            <path id="Trazado_278445" data-name="Trazado 278445" d="M284.711,136.423c0,16.734-10.462,30.3-23.368,30.3s-23.367-13.567-23.367-30.3,10.462-30.3,23.367-30.3,23.368,13.567,23.368,30.3" transform="translate(147.357 65.711)" fill="#b3b3b3"/>
            <path id="Trazado_278446" data-name="Trazado 278446" d="M261.653,167.842c-13.331,0-24.178-13.956-24.178-31.11s10.847-31.111,24.178-31.111,24.178,13.956,24.178,31.111-10.847,31.11-24.178,31.11m0-60.6c-12.439,0-22.559,13.231-22.559,29.492s10.12,29.491,22.559,29.491,22.559-13.229,22.559-29.491-10.12-29.492-22.559-29.492" transform="translate(147.046 65.401)"/>
            <path id="Trazado_278447" data-name="Trazado 278447" d="M273.884,132.14c0,10.551-6.6,19.1-14.733,19.1s-14.732-8.553-14.732-19.1,6.6-19.1,14.732-19.1,14.733,8.553,14.733,19.1" transform="translate(151.346 69.993)" fill="#b3b3b3"/>
            <path id="Trazado_278448" data-name="Trazado 278448" d="M259.462,152.364c-8.569,0-15.543-8.933-15.543-19.913s6.974-19.915,15.543-19.915S275,121.471,275,132.451s-6.974,19.913-15.543,19.913m0-38.208c-7.677,0-13.924,8.206-13.924,18.3s6.247,18.294,13.924,18.294,13.924-8.208,13.924-18.294-6.247-18.3-13.924-18.3" transform="translate(151.036 69.683)"/>
            <path id="Trazado_278449" data-name="Trazado 278449" d="M216.512,195.258H86.5V116.087H216.512Zm-128.4-1.619H214.893V117.706H88.117Z" transform="translate(53.56 71.882)"/>
            <rect id="Rectángulo_47408" data-name="Rectángulo 47408" width="128.395" height="45.093" transform="translate(140.868 221.237)" fill="#78dcff"/>
            <path id="Trazado_278450" data-name="Trazado 278450" d="M216.512,182.846H86.5V136.132H216.512Zm-128.4-1.619H214.893V137.751H88.117Z" transform="translate(53.56 84.294)"/>
            <path id="Trazado_278451" data-name="Trazado 278451" d="M172.464,177.413H108.7V19.665h63.763Zm-62.144-1.619h60.524V21.284H110.32Z" transform="translate(67.308 12.177)"/>
            <path id="Trazado_278452" data-name="Trazado 278452" d="M201.17.5h-77.7V32.342h12.18V12.68H201.17V232.124H173.182V244.3H213.35V.5Z" transform="translate(76.456 0.31)" fill="#b3b3b3"/>
            <path id="Trazado_278453" data-name="Trazado 278453" d="M214.469,245.423H172.682v-13.8H200.67V13.8h-63.9V33.461h-13.8V0h91.495ZM174.3,243.8l38.548-.021V1.619H124.593V31.842h10.56V12.18h67.136V233.244H174.3Z" transform="translate(76.146)"/>
            <path id="Trazado_278454" data-name="Trazado 278454" d="M278.818,283.383H277.2V136.026H126.463V125.072h1.619v9.335H278.818Z" transform="translate(78.307 77.445)"/>
            <path id="Trazado_278455" data-name="Trazado 278455" d="M136.45,128.951h-14.26l7.131-10.143Z" transform="translate(75.66 73.567)"/>
            <path id="Trazado_278456" data-name="Trazado 278456" d="M90.947,119.6h14.26l-7.131,10.143Z" transform="translate(56.315 74.058)"/>
            <rect id="Rectángulo_47409" data-name="Rectángulo 47409" width="62.144" height="7.533" transform="translate(176.817 157.108)" fill="#ccc"/>
            <path id="Trazado_278457" data-name="Trazado 278457" d="M172.464,105.681H108.7V96.529h63.763Zm-62.144-1.619h60.524V98.148H110.32Z" transform="translate(67.308 59.771)"/>
            <rect id="Rectángulo_47410" data-name="Rectángulo 47410" width="1.619" height="24.138" transform="translate(186.623 164.643)"/>
            <rect id="Rectángulo_47411" data-name="Rectángulo 47411" width="1.619" height="24.138" transform="translate(205.84 164.643)"/>
            <rect id="Rectángulo_47412" data-name="Rectángulo 47412" width="1.619" height="24.138" transform="translate(225.055 164.898)"/>
            <rect id="Rectángulo_47413" data-name="Rectángulo 47413" width="62.144" height="1.619" transform="translate(176.819 179.581)"/>
            <rect id="Rectángulo_47414" data-name="Rectángulo 47414" width="62.144" height="97.58" transform="translate(176.817 59.529)" fill="#eed8c2"/>
            <path id="Trazado_278458" data-name="Trazado 278458" d="M172.464,135.463H108.7v-99.2h63.763Zm-62.144-1.619h60.524V37.883H110.32Z" transform="translate(67.308 22.455)"/>
            <path id="Trazado_278459" data-name="Trazado 278459" d="M136.45,73.128h-14.26l7.131-10.143Z" transform="translate(77.66 39.001)"/>
            <rect id="Rectángulo_47415" data-name="Rectángulo 47415" width="1.619" height="37.49" transform="translate(206.77 110.717)"/>
            <path id="Trazado_278460" data-name="Trazado 278460" d="M140.359,24.331V22.016h-14.1v2.315h-7.33v2.9h28.76v-2.9Z" transform="translate(73.641 13.632)" fill="gray"/>
            <path id="Trazado_278461" data-name="Trazado 278461" d="M148.807,28.356h-30.38V23.83h7.33V21.515h15.721V23.83h7.329Zm-28.76-1.619h27.141V25.45h-7.329V23.134H127.376V25.45h-7.33Z" transform="translate(73.331 13.322)"/>
            <rect id="Rectángulo_47416" data-name="Rectángulo 47416" width="8.933" height="2.905" transform="translate(202.482 32.651)" fill="gray"/>
            <path id="Trazado_278462" data-name="Trazado 278462" d="M135.1,24.191H124.55V19.665H135.1Zm-8.933-1.619h7.314V21.284h-7.314Z" transform="translate(77.122 12.177)"/>
            <rect id="Rectángulo_47417" data-name="Rectángulo 47417" width="6.253" height="1.619" transform="translate(186.136 49.19) rotate(-59.587)" fill="#0071bc"/>
            <rect id="Rectángulo_47418" data-name="Rectángulo 47418" width="8.767" height="1.619" transform="translate(188.425 55.306) rotate(-62.692)" fill="#0071bc"/>
            <rect id="Rectángulo_47419" data-name="Rectángulo 47419" width="3.982" height="1.619" transform="matrix(0.43, -0.903, 0.903, 0.43, 195.946, 53.446)" fill="#0071bc"/>
            <rect id="Rectángulo_47420" data-name="Rectángulo 47420" width="4.353" height="1.618" transform="matrix(0.33, -0.944, 0.944, 0.33, 200.28, 48.048)" fill="#0071bc"/>
            <rect id="Rectángulo_47421" data-name="Rectángulo 47421" width="3.024" height="1.618" transform="translate(192.692 45.918) rotate(-64.897)" fill="#0071bc"/>
            <rect id="Rectángulo_47422" data-name="Rectángulo 47422" width="4.938" height="1.619" transform="translate(181.224 55.325) rotate(-64.281)" fill="#0071bc"/>
            <rect id="Rectángulo_47423" data-name="Rectángulo 47423" width="4.14" height="1.619" transform="matrix(0.123, -0.992, 0.992, 0.123, 204.864, 48.901)" fill="#0071bc"/>
            <rect id="Rectángulo_47424" data-name="Rectángulo 47424" width="4.18" height="1.618" transform="matrix(0.184, -0.983, 0.983, 0.184, 203.758, 54.586)" fill="#0071bc"/>
            <rect id="Rectángulo_47425" data-name="Rectángulo 47425" width="1.619" height="4.281" transform="translate(209.904 44.206)" fill="#0071bc"/>
            <rect id="Rectángulo_47426" data-name="Rectángulo 47426" width="1.618" height="3.017" transform="translate(209.911 52.772) rotate(-6.504)" fill="#0071bc"/>
            <rect id="Rectángulo_47427" data-name="Rectángulo 47427" width="1.62" height="7.695" transform="translate(214.018 43.977) rotate(-27.131)" fill="#0071bc"/>
            <rect id="Rectángulo_47428" data-name="Rectángulo 47428" width="1.619" height="3.492" transform="matrix(0.809, -0.588, 0.588, 0.809, 219.134, 53.158)" fill="#0071bc"/>
            <rect id="Rectángulo_47429" data-name="Rectángulo 47429" width="1.619" height="3.302" transform="matrix(0.855, -0.518, 0.518, 0.855, 220.123, 45.311)" fill="#0071bc"/>
            <rect id="Rectángulo_47430" data-name="Rectángulo 47430" width="1.618" height="9.582" transform="translate(224.231 46.796) rotate(-41.383)" fill="#0071bc"/>
            <rect id="Rectángulo_47431" data-name="Rectángulo 47431" width="1.618" height="4.881" transform="matrix(0.815, -0.579, 0.579, 0.815, 222.979, 52.252)" fill="#0071bc"/>
            <path id="Trazado_278463" data-name="Trazado 278463" d="M126.454,138.4h-1.619V92.649H48.047v11.859H46.428V91.03h80.026Z" transform="translate(28.748 56.367)"/>
            <g id="Grupo_147223" data-name="Grupo 147223" transform="translate(46.423 171.286)" opacity="0.15">
              <g id="Grupo_147222" data-name="Grupo 147222">
                <g id="Grupo_147221" data-name="Grupo 147221" clip-path="url(#clip-path-3)">
                  <rect id="Rectángulo_47432" data-name="Rectángulo 47432" width="57.778" height="90.219" transform="translate(0.202 0.202)" fill="#662d91"/>
                  <path id="Trazado_278464" data-name="Trazado 278464" d="M86.853,196.409H28.67V105.784H86.853ZM29.076,196H86.45V106.189H29.076Z" transform="translate(-28.671 -105.784)"/>
                </g>
              </g>
            </g>
            <path id="Trazado_278465" data-name="Trazado 278465" d="M90.025,106.862c0,1.985-14.026,3.595-31.328,3.595s-31.328-1.61-31.328-3.595,14.026-3.595,31.328-3.595,31.328,1.609,31.328,3.595" transform="translate(16.946 63.944)" fill="#662d91"/>
            <path id="Trazado_278466" data-name="Trazado 278466" d="M58.774,110.736c-15.285,0-31.531-1.331-31.531-3.8s16.246-3.8,31.531-3.8,31.531,1.329,31.531,3.8-16.246,3.8-31.531,3.8m0-7.189c-18.344,0-31.126,1.788-31.126,3.392s12.782,3.392,31.126,3.392S89.9,108.544,89.9,106.939s-12.784-3.392-31.126-3.392" transform="translate(16.869 63.866)"/>
            <path id="Trazado_278467" data-name="Trazado 278467" d="M90.025,123.315c0,1.985-14.026,3.595-31.328,3.595s-31.328-1.609-31.328-3.595S41.394,119.72,58.7,119.72s31.328,1.609,31.328,3.595" transform="translate(16.946 74.132)" fill="#662d91"/>
            <path id="Trazado_278468" data-name="Trazado 278468" d="M58.774,127.189c-15.285,0-31.531-1.329-31.531-3.8s16.246-3.8,31.531-3.8,31.531,1.331,31.531,3.8-16.246,3.8-31.531,3.8m0-7.189c-18.344,0-31.126,1.788-31.126,3.394s12.782,3.391,31.126,3.391S89.9,125,89.9,123.394,77.116,120,58.774,120" transform="translate(16.869 74.054)"/>
            <path id="Trazado_278469" data-name="Trazado 278469" d="M90.025,144.13c0,1.985-14.026,3.595-31.328,3.595s-31.328-1.609-31.328-3.595,14.026-3.595,31.328-3.595,31.328,1.609,31.328,3.595" transform="translate(16.946 87.02)" fill="#662d91"/>
            <path id="Trazado_278470" data-name="Trazado 278470" d="M58.774,148c-15.285,0-31.531-1.331-31.531-3.8s16.246-3.8,31.531-3.8,31.531,1.329,31.531,3.8S74.059,148,58.774,148m0-7.189c-18.344,0-31.126,1.788-31.126,3.392S40.43,147.6,58.774,147.6,89.9,145.812,89.9,144.207s-12.784-3.392-31.126-3.392" transform="translate(16.869 86.943)"/>
            <path id="Trazado_278471" data-name="Trazado 278471" d="M90.025,163c0,1.985-14.026,3.595-31.328,3.595S27.368,164.988,27.368,163s14.026-3.595,31.328-3.595S90.025,161.017,90.025,163" transform="translate(16.946 98.707)" fill="#662d91"/>
            <path id="Trazado_278472" data-name="Trazado 278472" d="M58.774,166.876c-15.285,0-31.531-1.329-31.531-3.8s16.246-3.8,31.531-3.8,31.531,1.331,31.531,3.8-16.246,3.8-31.531,3.8m0-7.189c-18.344,0-31.126,1.788-31.126,3.394s12.782,3.391,31.126,3.391S89.9,164.685,89.9,163.081s-12.784-3.394-31.126-3.394" transform="translate(16.869 98.629)"/>
            <path id="Trazado_278473" data-name="Trazado 278473" d="M79.91,122.577c0,.92-10.75,1.666-24.013,1.666s-24.01-.746-24.01-1.666,10.75-1.666,24.01-1.666,24.013.746,24.013,1.666" transform="translate(19.745 74.869)" fill="#29abe2"/>
            <path id="Trazado_278474" data-name="Trazado 278474" d="M79.91,143.392c0,.92-10.75,1.666-24.013,1.666s-24.01-.746-24.01-1.666,10.75-1.666,24.01-1.666,24.013.746,24.013,1.666" transform="translate(19.745 87.758)" fill="#29abe2"/>
            <rect id="Rectángulo_47434" data-name="Rectángulo 47434" width="9.929" height="8.217" transform="translate(56.47 162.588)" fill="#d4145a"/>
            <path id="Trazado_278475" data-name="Trazado 278475" d="M45.923,109.747H34.375V99.912H45.923Zm-9.929-1.619H44.3v-6.6h-8.31Z" transform="translate(21.285 61.866)"/>
            <rect id="Rectángulo_47435" data-name="Rectángulo 47435" width="9.929" height="8.217" transform="translate(70.55 253.49)" fill="#d4145a"/>
            <path id="Trazado_278476" data-name="Trazado 278476" d="M54.619,165.89H43.071v-9.837H54.619Zm-9.929-1.619H53v-6.6H44.69Z" transform="translate(26.67 96.629)"/>
            <rect id="Rectángulo_47436" data-name="Rectángulo 47436" width="6.506" height="8.217" transform="translate(72.262 261.194)"/>
            <path id="Trazado_278477" data-name="Trazado 278477" d="M52.253,170.646H44.128v-9.835h8.125Zm-6.506-1.619h4.887v-6.6H45.747Z" transform="translate(27.324 99.575)"/>
            <rect id="Rectángulo_47437" data-name="Rectángulo 47437" width="4.964" height="4.108" transform="translate(50.435 166.697)"/>
            <path id="Trazado_278478" data-name="Trazado 278478" d="M37.232,108.176H30.648v-5.727h6.584Zm-4.964-1.619h3.345v-2.489H32.267Z" transform="translate(18.977 63.437)"/>
            <rect id="Rectángulo_47438" data-name="Rectángulo 47438" width="4.964" height="4.108" transform="translate(93.961 166.697)"/>
            <path id="Trazado_278479" data-name="Trazado 278479" d="M64.113,108.176H57.529v-5.727h6.584Zm-4.964-1.619h3.345v-2.489H59.148Z" transform="translate(35.622 63.437)"/>
            <rect id="Rectángulo_47439" data-name="Rectángulo 47439" width="9.929" height="8.217" transform="translate(83.69 162.588)" fill="#ed1e79"/>
            <path id="Trazado_278480" data-name="Trazado 278480" d="M62.734,109.747H51.186V99.912H62.734ZM52.8,108.128h8.31v-6.6H52.8Z" transform="translate(31.695 61.866)"/>
            <path id="Trazado_278481" data-name="Trazado 278481" d="M42.675,156.392c.661-.476.708-1.415.9-2.205s.926-1.658,1.673-1.331a27.969,27.969,0,0,1,1.074-4.924l-1.457-.437-1.758,1.127c-.586-.181-1.166.4-1.294,1a8.813,8.813,0,0,0,.031,1.835,1.53,1.53,0,0,1-.819,1.516,12.1,12.1,0,0,1-.674-2.644.874.874,0,0,0-.758.735,1.777,1.777,0,0,0-2.568.126c-.967-.006-1.676-.86-2.413-1.486s-1.992-1.012-2.57-.236l-.194-.748a7.076,7.076,0,0,0-2.239,3.373c.4-.285.913.261.963.751s-.079,1.041.21,1.441a1.625,1.625,0,0,0,.8.494l3.033,1.122.264,3.587c1.749-.251,3.088,1.676,3.255,3.434a1.3,1.3,0,0,0,.206.73c.41.491,1.253.479,1.746.836.385.28.643,1.1,1.154,1.213.959.211.84-.873.907-1.6.193-2.1,2-5.879.523-7.707" transform="translate(18.335 91.329)" fill="#29abe2"/>
            <rect id="Rectángulo_47440" data-name="Rectángulo 47440" width="5.347" height="6.163" transform="translate(56.301 255.545)"/>
            <path id="Trazado_278482" data-name="Trazado 278482" d="M56.732,156.392c-.661-.476-.708-1.415-.9-2.205s-.926-1.658-1.673-1.331a27.969,27.969,0,0,0-1.074-4.924l1.457-.437,1.758,1.127c.586-.181,1.166.4,1.294,1a8.812,8.812,0,0,1-.031,1.835,1.53,1.53,0,0,0,.819,1.516,12.1,12.1,0,0,0,.674-2.644.874.874,0,0,1,.758.735,1.777,1.777,0,0,1,2.568.126c.967-.006,1.676-.86,2.413-1.486s1.992-1.012,2.57-.236l.194-.748a7.076,7.076,0,0,1,2.239,3.373c-.4-.285-.913.261-.963.751s.079,1.041-.21,1.441a1.625,1.625,0,0,1-.8.494L64.786,155.9l-.264,3.587c-1.749-.251-3.088,1.676-3.255,3.434a1.3,1.3,0,0,1-.206.73c-.41.491-1.253.479-1.745.836-.385.28-.643,1.1-1.155,1.213-.959.211-.84-.873-.907-1.6-.193-2.1-2-5.879-.523-7.707" transform="translate(32.869 91.329)" fill="#29abe2"/>
            <rect id="Rectángulo_47441" data-name="Rectángulo 47441" width="5.347" height="6.163" transform="translate(88.961 255.545)"/>
          </g>
        </g>
      </g>
    </g>
    <path id="Trazado_278534" data-name="Trazado 278534" d="M-24.694,0V-10.664h3.486a4.047,4.047,0,0,1,2.611.718,2.587,2.587,0,0,1,.875,2.124A2.166,2.166,0,0,1-18.146-6.5a2.754,2.754,0,0,1-1.157.89,2.473,2.473,0,0,1,1.366.919,2.638,2.638,0,0,1,.5,1.615,2.852,2.852,0,0,1-.93,2.256A3.847,3.847,0,0,1-20.995,0Zm1.406-4.988V-1.15h2.322a2.236,2.236,0,0,0,1.549-.509,1.788,1.788,0,0,0,.568-1.4q0-1.926-2.095-1.926Zm0-1.128h2.124a2.226,2.226,0,0,0,1.476-.462,1.55,1.55,0,0,0,.553-1.255,1.524,1.524,0,0,0-.513-1.281,2.518,2.518,0,0,0-1.56-.4h-2.08ZM-14.1,0H-15.45V-7.925H-14.1ZM-15.56-10.027a.809.809,0,0,1,.2-.557.756.756,0,0,1,.6-.227.768.768,0,0,1,.6.227.8.8,0,0,1,.205.557.774.774,0,0,1-.205.549.782.782,0,0,1-.6.22.77.77,0,0,1-.6-.22A.782.782,0,0,1-15.56-10.027Zm3.274,5.991a4.681,4.681,0,0,1,.458-2.095,3.415,3.415,0,0,1,1.274-1.436A3.469,3.469,0,0,1-8.69-8.071,3.342,3.342,0,0,1-6.072-6.951a4.311,4.311,0,0,1,1,2.981v.1A4.722,4.722,0,0,1-5.515-1.8,3.365,3.365,0,0,1-6.782-.366,3.509,3.509,0,0,1-8.676.146,3.334,3.334,0,0,1-11.287-.974a4.29,4.29,0,0,1-1-2.966Zm1.362.161a3.39,3.39,0,0,0,.612,2.117,1.957,1.957,0,0,0,1.637.8,1.945,1.945,0,0,0,1.641-.809,3.707,3.707,0,0,0,.608-2.267,3.384,3.384,0,0,0-.619-2.113A1.968,1.968,0,0,0-8.69-6.958a1.946,1.946,0,0,0-1.619.8A3.68,3.68,0,0,0-10.924-3.875ZM-2.919,0V-6.877H-4.171V-7.925h1.252V-8.6a2.753,2.753,0,0,1,.758-2.065A2.94,2.94,0,0,1-.018-11.4a6.451,6.451,0,0,1,2.073.447L1.827-9.814a4.7,4.7,0,0,0-1.743-.366,1.705,1.705,0,0,0-1.256.392,1.615,1.615,0,0,0-.385,1.176v.688H.062v1.047H-1.556V0ZM2.728,0H1.366V-7.925H2.728ZM6.405,0H5.05V-11.25H6.405Zm4.006-9.844v1.919h1.479v1.047H10.411v4.921a1.1,1.1,0,0,0,.2.715A.832.832,0,0,0,11.283-1a3.281,3.281,0,0,0,.645-.088V0a3.951,3.951,0,0,1-1.04.146A1.687,1.687,0,0,1,9.518-.4a2.36,2.36,0,0,1-.461-1.56V-6.877H7.614V-7.925H9.056V-9.844ZM17.3-6.709a4.061,4.061,0,0,0-.667-.051,1.786,1.786,0,0,0-1.809,1.135V0H13.473V-7.925h1.318l.022.916A2.11,2.11,0,0,1,16.7-8.071a1.384,1.384,0,0,1,.6.1Zm.74,2.673A4.681,4.681,0,0,1,18.5-6.13a3.415,3.415,0,0,1,1.274-1.436,3.469,3.469,0,0,1,1.864-.505,3.342,3.342,0,0,1,2.618,1.121,4.311,4.311,0,0,1,1,2.981v.1A4.722,4.722,0,0,1,24.814-1.8,3.365,3.365,0,0,1,23.547-.366a3.509,3.509,0,0,1-1.893.513A3.334,3.334,0,0,1,19.043-.974a4.29,4.29,0,0,1-1-2.966Zm1.362.161a3.39,3.39,0,0,0,.612,2.117,1.957,1.957,0,0,0,1.637.8,1.945,1.945,0,0,0,1.641-.809A3.707,3.707,0,0,0,23.9-4.036a3.384,3.384,0,0,0-.619-2.113,1.968,1.968,0,0,0-1.644-.809,1.946,1.946,0,0,0-1.619.8A3.68,3.68,0,0,0,19.406-3.875Z" transform="translate(1042 4197.691)" fill="#12263f"/>
    <path id="Trazado_278537" data-name="Trazado 278537" d="M-30.154-10.664l3.486,8.7,3.486-8.7h1.824V0h-1.406V-4.153l.132-4.482L-26.133,0h-1.077L-30.7-8.613l.139,4.46V0H-31.97V-10.664ZM-17.615,0H-18.97V-7.925h1.355ZM-19.08-10.027a.809.809,0,0,1,.2-.557.756.756,0,0,1,.6-.227.768.768,0,0,1,.6.227.8.8,0,0,1,.205.557.774.774,0,0,1-.205.549.782.782,0,0,1-.6.22.77.77,0,0,1-.6-.22A.782.782,0,0,1-19.08-10.027Zm6.812,9.067A1.952,1.952,0,0,0-11-1.4a1.546,1.546,0,0,0,.6-1.1h1.282a2.457,2.457,0,0,1-.469,1.3,3.087,3.087,0,0,1-1.154.981,3.329,3.329,0,0,1-1.527.366,3.265,3.265,0,0,1-2.574-1.08A4.3,4.3,0,0,1-15.8-3.889v-.227a4.771,4.771,0,0,1,.425-2.058,3.236,3.236,0,0,1,1.219-1.4,3.464,3.464,0,0,1,1.879-.5,3.178,3.178,0,0,1,2.216.8A2.853,2.853,0,0,1-9.119-5.2H-10.4a1.867,1.867,0,0,0-.582-1.263,1.811,1.811,0,0,0-1.293-.494,1.9,1.9,0,0,0-1.6.743,3.491,3.491,0,0,0-.568,2.15v.256A3.422,3.422,0,0,0-13.879-1.7,1.906,1.906,0,0,0-12.268-.959Zm8.5-5.75a4.061,4.061,0,0,0-.667-.051A1.786,1.786,0,0,0-6.24-5.625V0H-7.6V-7.925h1.318l.022.916a2.11,2.11,0,0,1,1.89-1.062,1.384,1.384,0,0,1,.6.1Zm.74,2.673A4.681,4.681,0,0,1-2.567-6.13,3.415,3.415,0,0,1-1.293-7.566,3.469,3.469,0,0,1,.571-8.071,3.342,3.342,0,0,1,3.19-6.951a4.311,4.311,0,0,1,1,2.981v.1A4.722,4.722,0,0,1,3.746-1.8,3.365,3.365,0,0,1,2.479-.366,3.509,3.509,0,0,1,.586.146,3.334,3.334,0,0,1-2.025-.974a4.29,4.29,0,0,1-1-2.966Zm1.362.161a3.39,3.39,0,0,0,.612,2.117,1.957,1.957,0,0,0,1.637.8,1.945,1.945,0,0,0,1.641-.809,3.707,3.707,0,0,0,.608-2.267,3.384,3.384,0,0,0-.619-2.113A1.968,1.968,0,0,0,.571-6.958a1.946,1.946,0,0,0-1.619.8A3.68,3.68,0,0,0-1.663-3.875Zm14.26,0a4.712,4.712,0,0,1-.835,2.919A2.668,2.668,0,0,1,9.521.146,2.763,2.763,0,0,1,7.2-.916L7.134,0H5.889V-11.25H7.244v4.2A2.747,2.747,0,0,1,9.507-8.071,2.684,2.684,0,0,1,11.774-6.98,4.853,4.853,0,0,1,12.6-3.992Zm-1.355-.154a3.662,3.662,0,0,0-.535-2.139A1.77,1.77,0,0,0,9.17-6.921,1.989,1.989,0,0,0,7.244-5.676v3.428A2.045,2.045,0,0,0,9.185-1,1.76,1.76,0,0,0,10.7-1.758,3.894,3.894,0,0,0,11.243-4.028ZM15.776,0H14.421V-7.925h1.355ZM14.312-10.027a.809.809,0,0,1,.2-.557.756.756,0,0,1,.6-.227.768.768,0,0,1,.6.227.8.8,0,0,1,.205.557.774.774,0,0,1-.205.549.782.782,0,0,1-.6.22.77.77,0,0,1-.6-.22A.782.782,0,0,1,14.312-10.027Zm3.274,5.991a4.681,4.681,0,0,1,.458-2.095,3.415,3.415,0,0,1,1.274-1.436,3.469,3.469,0,0,1,1.864-.505A3.342,3.342,0,0,1,23.8-6.951a4.311,4.311,0,0,1,1,2.981v.1A4.722,4.722,0,0,1,24.357-1.8,3.365,3.365,0,0,1,23.09-.366,3.509,3.509,0,0,1,21.2.146,3.334,3.334,0,0,1,18.585-.974a4.29,4.29,0,0,1-1-2.966Zm1.362.161a3.39,3.39,0,0,0,.612,2.117,1.957,1.957,0,0,0,1.637.8,1.945,1.945,0,0,0,1.641-.809,3.707,3.707,0,0,0,.608-2.267,3.384,3.384,0,0,0-.619-2.113,1.968,1.968,0,0,0-1.644-.809,1.946,1.946,0,0,0-1.619.8A3.68,3.68,0,0,0,18.948-3.875ZM31.113-2.1a1,1,0,0,0-.414-.853,3.983,3.983,0,0,0-1.443-.524,6.822,6.822,0,0,1-1.633-.527,2.324,2.324,0,0,1-.894-.732A1.752,1.752,0,0,1,26.44-5.75,2.056,2.056,0,0,1,27.264-7.4a3.218,3.218,0,0,1,2.106-.674,3.311,3.311,0,0,1,2.186.7A2.21,2.21,0,0,1,32.4-5.6H31.033a1.223,1.223,0,0,0-.472-.959,1.77,1.77,0,0,0-1.19-.4,1.852,1.852,0,0,0-1.157.322,1.014,1.014,0,0,0-.417.842.822.822,0,0,0,.388.74,4.776,4.776,0,0,0,1.4.476,7.308,7.308,0,0,1,1.644.542,2.4,2.4,0,0,1,.934.758,1.864,1.864,0,0,1,.3,1.08,2.028,2.028,0,0,1-.85,1.7,3.564,3.564,0,0,1-2.2.641A3.991,3.991,0,0,1,27.729-.19a2.74,2.74,0,0,1-1.146-.941,2.268,2.268,0,0,1-.414-1.307h1.355a1.4,1.4,0,0,0,.546,1.08,2.117,2.117,0,0,0,1.344.4,2.185,2.185,0,0,0,1.234-.311A.956.956,0,0,0,31.113-2.1Z" transform="translate(907 4331.586)" fill="#12263f"/>
    <path id="Trazado_278535" data-name="Trazado 278535" d="M-13.971-1.868l3.047-8.8h1.538L-13.341,0h-1.245l-3.948-10.664H-17ZM-3.615,0A2.846,2.846,0,0,1-3.8-.835,3.023,3.023,0,0,1-6.061.146,2.8,2.8,0,0,1-7.983-.516,2.145,2.145,0,0,1-8.734-2.2,2.24,2.24,0,0,1-7.793-4.12,4.437,4.437,0,0,1-5.145-4.8h1.318v-.623a1.522,1.522,0,0,0-.425-1.132A1.707,1.707,0,0,0-5.5-6.98a1.976,1.976,0,0,0-1.216.366,1.079,1.079,0,0,0-.491.886H-8.573a1.87,1.87,0,0,1,.421-1.146,2.874,2.874,0,0,1,1.143-.875,3.844,3.844,0,0,1,1.586-.322,3.133,3.133,0,0,1,2.146.685A2.47,2.47,0,0,1-2.472-5.5v3.647A4.459,4.459,0,0,0-2.194-.117V0ZM-5.863-1.033a2.381,2.381,0,0,0,1.208-.33,1.994,1.994,0,0,0,.828-.857V-3.845H-4.889q-2.49,0-2.49,1.458a1.234,1.234,0,0,0,.425,1A1.633,1.633,0,0,0-5.863-1.033Zm8.694.073A1.952,1.952,0,0,0,4.1-1.4a1.546,1.546,0,0,0,.6-1.1H5.98a2.457,2.457,0,0,1-.469,1.3A3.087,3.087,0,0,1,4.358-.22,3.329,3.329,0,0,1,2.831.146,3.265,3.265,0,0,1,.256-.934,4.3,4.3,0,0,1-.7-3.889v-.227A4.771,4.771,0,0,1-.275-6.174a3.236,3.236,0,0,1,1.219-1.4,3.464,3.464,0,0,1,1.879-.5,3.178,3.178,0,0,1,2.216.8A2.853,2.853,0,0,1,5.98-5.2H4.7a1.867,1.867,0,0,0-.582-1.263,1.811,1.811,0,0,0-1.293-.494,1.9,1.9,0,0,0-1.6.743,3.491,3.491,0,0,0-.568,2.15v.256A3.422,3.422,0,0,0,1.219-1.7,1.906,1.906,0,0,0,2.831-.959ZM8.976,0H7.614V-7.925H8.976ZM8.99-11.228h1.641L8.668-9.075l-1.091,0Zm1.86,7.192a4.681,4.681,0,0,1,.458-2.095,3.415,3.415,0,0,1,1.274-1.436,3.469,3.469,0,0,1,1.864-.505,3.342,3.342,0,0,1,2.618,1.121,4.311,4.311,0,0,1,1,2.981v.1A4.722,4.722,0,0,1,17.622-1.8,3.365,3.365,0,0,1,16.355-.366a3.509,3.509,0,0,1-1.893.513A3.334,3.334,0,0,1,11.851-.974a4.29,4.29,0,0,1-1-2.966Zm1.362.161a3.39,3.39,0,0,0,.612,2.117,1.957,1.957,0,0,0,1.637.8A1.945,1.945,0,0,0,16.1-1.769a3.707,3.707,0,0,0,.608-2.267,3.384,3.384,0,0,0-.619-2.113,1.968,1.968,0,0,0-1.644-.809,1.946,1.946,0,0,0-1.619.8A3.68,3.68,0,0,0,12.213-3.875Z" transform="translate(1244 4277.586)" fill="#12263f"/>
    <path id="Trazado_278536" data-name="Trazado 278536" d="M-14.275-4.753a6.612,6.612,0,0,1-2.633-1.278A2.442,2.442,0,0,1-17.732-7.9a2.58,2.58,0,0,1,1.007-2.084,4,4,0,0,1,2.618-.824,4.369,4.369,0,0,1,1.959.425,3.222,3.222,0,0,1,1.333,1.172,3,3,0,0,1,.472,1.633h-1.414a1.95,1.95,0,0,0-.615-1.525,2.5,2.5,0,0,0-1.736-.555,2.561,2.561,0,0,0-1.622.459,1.53,1.53,0,0,0-.582,1.273,1.376,1.376,0,0,0,.553,1.1A5.424,5.424,0,0,0-13.876-6a8.734,8.734,0,0,1,2.08.825,3.157,3.157,0,0,1,1.113,1.051A2.683,2.683,0,0,1-10.32-2.71,2.492,2.492,0,0,1-11.331-.634a4.31,4.31,0,0,1-2.7.78,5.013,5.013,0,0,1-2.051-.421,3.451,3.451,0,0,1-1.469-1.154,2.815,2.815,0,0,1-.516-1.663h1.414a1.837,1.837,0,0,0,.714,1.527A3.007,3.007,0,0,0-14.033-1a2.764,2.764,0,0,0,1.707-.454A1.475,1.475,0,0,0-11.733-2.7a1.448,1.448,0,0,0-.549-1.212A6.333,6.333,0,0,0-14.275-4.753ZM-3.838-.784A2.878,2.878,0,0,1-6.16.146,2.464,2.464,0,0,1-8.09-.59a3.186,3.186,0,0,1-.67-2.179V-7.925H-7.4v5.12Q-7.4-1-5.94-1A2.028,2.028,0,0,0-3.875-2.161V-7.925H-2.52V0H-3.809Zm6.665.93A3.463,3.463,0,0,1,.205-.912,3.928,3.928,0,0,1-.806-3.743v-.249A4.756,4.756,0,0,1-.355-6.1,3.514,3.514,0,0,1,.9-7.548a3.167,3.167,0,0,1,1.754-.524,2.968,2.968,0,0,1,2.4,1.018,4.408,4.408,0,0,1,.857,2.915v.564H.549a2.817,2.817,0,0,0,.685,1.893A2.153,2.153,0,0,0,2.9-.959a2.36,2.36,0,0,0,1.216-.293,3.055,3.055,0,0,0,.872-.776l.828.645A3.328,3.328,0,0,1,2.827.146Zm-.168-7.1a1.807,1.807,0,0,0-1.377.6A2.9,2.9,0,0,0,.593-4.687h3.97v-.1a2.581,2.581,0,0,0-.557-1.6A1.7,1.7,0,0,0,2.659-6.958ZM8.958,0H7.6V-11.25H8.958Zm1.809-4.036a4.681,4.681,0,0,1,.458-2.095A3.415,3.415,0,0,1,12.5-7.566a3.469,3.469,0,0,1,1.864-.505,3.342,3.342,0,0,1,2.618,1.121,4.311,4.311,0,0,1,1,2.981v.1A4.722,4.722,0,0,1,17.538-1.8,3.365,3.365,0,0,1,16.271-.366a3.509,3.509,0,0,1-1.893.513A3.334,3.334,0,0,1,11.766-.974a4.29,4.29,0,0,1-1-2.966Zm1.362.161a3.39,3.39,0,0,0,.612,2.117,1.957,1.957,0,0,0,1.637.8,1.945,1.945,0,0,0,1.641-.809,3.707,3.707,0,0,0,.608-2.267,3.384,3.384,0,0,0-.619-2.113,1.968,1.968,0,0,0-1.644-.809,1.946,1.946,0,0,0-1.619.8A3.68,3.68,0,0,0,12.129-3.875ZM-39.785,16.041a1.952,1.952,0,0,0,1.267-.439,1.546,1.546,0,0,0,.6-1.1h1.282a2.457,2.457,0,0,1-.469,1.3,3.087,3.087,0,0,1-1.154.981,3.329,3.329,0,0,1-1.527.366,3.265,3.265,0,0,1-2.574-1.08,4.3,4.3,0,0,1-.956-2.955v-.227a4.771,4.771,0,0,1,.425-2.058,3.236,3.236,0,0,1,1.219-1.4,3.464,3.464,0,0,1,1.879-.5,3.178,3.178,0,0,1,2.216.8,2.853,2.853,0,0,1,.941,2.073h-1.282a1.867,1.867,0,0,0-.582-1.263,1.811,1.811,0,0,0-1.293-.494,1.9,1.9,0,0,0-1.6.743,3.491,3.491,0,0,0-.568,2.15v.256A3.422,3.422,0,0,0-41.4,15.3,1.906,1.906,0,0,0-39.785,16.041Zm4.314-3.076a4.681,4.681,0,0,1,.458-2.095,3.415,3.415,0,0,1,1.274-1.436,3.469,3.469,0,0,1,1.864-.505,3.342,3.342,0,0,1,2.618,1.121,4.311,4.311,0,0,1,1,2.981v.1A4.722,4.722,0,0,1-28.7,15.2a3.365,3.365,0,0,1-1.267,1.432,3.509,3.509,0,0,1-1.893.513,3.334,3.334,0,0,1-2.611-1.121,4.29,4.29,0,0,1-1-2.966Zm1.362.161a3.39,3.39,0,0,0,.612,2.117,1.957,1.957,0,0,0,1.637.8,1.945,1.945,0,0,0,1.641-.809,3.707,3.707,0,0,0,.608-2.267,3.384,3.384,0,0,0-.619-2.113,1.968,1.968,0,0,0-1.644-.809,1.946,1.946,0,0,0-1.619.8A3.68,3.68,0,0,0-34.109,13.125Zm8.833-4.05.044,1a2.888,2.888,0,0,1,2.373-1.143q2.512,0,2.534,2.834V17H-21.68V11.756a1.824,1.824,0,0,0-.392-1.267,1.57,1.57,0,0,0-1.2-.41,1.956,1.956,0,0,0-1.157.352,2.387,2.387,0,0,0-.776.923V17h-1.355V9.075Zm8.833-1.919V9.075h1.479v1.047h-1.479v4.921a1.1,1.1,0,0,0,.2.715.832.832,0,0,0,.674.238,3.281,3.281,0,0,0,.645-.088V17a3.951,3.951,0,0,1-1.04.146,1.687,1.687,0,0,1-1.37-.549,2.36,2.36,0,0,1-.461-1.56V10.123h-1.443V9.075H-17.8V7.156ZM-8.489,17a2.846,2.846,0,0,1-.19-.835,3.023,3.023,0,0,1-2.256.981,2.8,2.8,0,0,1-1.923-.663,2.145,2.145,0,0,1-.751-1.681,2.24,2.24,0,0,1,.941-1.923A4.437,4.437,0,0,1-10.02,12.2H-8.7v-.623a1.522,1.522,0,0,0-.425-1.132,1.707,1.707,0,0,0-1.252-.421,1.976,1.976,0,0,0-1.216.366,1.079,1.079,0,0,0-.491.886h-1.362a1.87,1.87,0,0,1,.421-1.146,2.874,2.874,0,0,1,1.143-.875A3.844,3.844,0,0,1-10.3,8.929a3.133,3.133,0,0,1,2.146.685A2.47,2.47,0,0,1-7.346,11.5v3.647a4.459,4.459,0,0,0,.278,1.736V17Zm-2.249-1.033a2.381,2.381,0,0,0,1.208-.33,1.994,1.994,0,0,0,.828-.857V13.155H-9.763q-2.49,0-2.49,1.458a1.234,1.234,0,0,0,.425,1A1.633,1.633,0,0,0-10.737,15.967Zm6.79-6.892.037.879A2.927,2.927,0,0,1-1.56,8.929,2.266,2.266,0,0,1,.7,10.2,3,3,0,0,1,1.732,9.28a3.039,3.039,0,0,1,1.5-.352q2.607,0,2.651,2.761V17H4.526V11.771A1.82,1.82,0,0,0,4.138,10.5a1.71,1.71,0,0,0-1.3-.421,1.8,1.8,0,0,0-1.252.45A1.827,1.827,0,0,0,1,11.741V17H-.359V11.807a1.512,1.512,0,0,0-1.692-1.729,1.813,1.813,0,0,0-1.824,1.135V17H-5.229V9.075ZM9.4,17H8.042V9.075H9.4ZM7.932,6.973a.809.809,0,0,1,.2-.557.756.756,0,0,1,.6-.227.768.768,0,0,1,.6.227.8.8,0,0,1,.205.557.774.774,0,0,1-.205.549.782.782,0,0,1-.6.22.77.77,0,0,1-.6-.22A.782.782,0,0,1,7.932,6.973Zm4.915,2.1.044,1a2.888,2.888,0,0,1,2.373-1.143q2.512,0,2.534,2.834V17H16.443V11.756a1.824,1.824,0,0,0-.392-1.267,1.57,1.57,0,0,0-1.2-.41,1.956,1.956,0,0,0-1.157.352,2.387,2.387,0,0,0-.776.923V17H11.565V9.075ZM24.734,17a2.846,2.846,0,0,1-.19-.835,3.023,3.023,0,0,1-2.256.981,2.8,2.8,0,0,1-1.923-.663,2.145,2.145,0,0,1-.751-1.681,2.24,2.24,0,0,1,.941-1.923A4.437,4.437,0,0,1,23.2,12.2h1.318v-.623a1.522,1.522,0,0,0-.425-1.132,1.707,1.707,0,0,0-1.252-.421,1.976,1.976,0,0,0-1.216.366,1.079,1.079,0,0,0-.491.886H19.775a1.87,1.87,0,0,1,.421-1.146,2.874,2.874,0,0,1,1.143-.875,3.844,3.844,0,0,1,1.586-.322,3.133,3.133,0,0,1,2.146.685,2.47,2.47,0,0,1,.806,1.886v3.647a4.459,4.459,0,0,0,.278,1.736V17Zm-2.249-1.033a2.381,2.381,0,0,0,1.208-.33,1.994,1.994,0,0,0,.828-.857V13.155H23.459q-2.49,0-2.49,1.458a1.234,1.234,0,0,0,.425,1A1.633,1.633,0,0,0,22.485,15.967Zm5.186-3a4.642,4.642,0,0,1,.864-2.933A2.941,2.941,0,0,1,33,9.881V5.75h1.355V17H33.113l-.066-.85a2.759,2.759,0,0,1-2.263,1,2.707,2.707,0,0,1-2.245-1.128,4.7,4.7,0,0,1-.868-2.944Zm1.355.154a3.515,3.515,0,0,0,.557,2.109A1.8,1.8,0,0,0,31.121,16,1.977,1.977,0,0,0,33,14.839V11.2a1.992,1.992,0,0,0-1.868-1.121,1.808,1.808,0,0,0-1.553.769A3.87,3.87,0,0,0,29.026,13.125Zm7.075-.161a4.681,4.681,0,0,1,.458-2.095,3.415,3.415,0,0,1,1.274-1.436A3.469,3.469,0,0,1,39.7,8.929a3.342,3.342,0,0,1,2.618,1.121,4.311,4.311,0,0,1,1,2.981v.1a4.722,4.722,0,0,1-.443,2.076,3.365,3.365,0,0,1-1.267,1.432,3.509,3.509,0,0,1-1.893.513A3.334,3.334,0,0,1,37.1,16.026a4.29,4.29,0,0,1-1-2.966Zm1.362.161a3.39,3.39,0,0,0,.612,2.117,2.072,2.072,0,0,0,3.278-.011,3.707,3.707,0,0,0,.608-2.267,3.384,3.384,0,0,0-.619-2.113,1.968,1.968,0,0,0-1.644-.809,1.946,1.946,0,0,0-1.619.8A3.68,3.68,0,0,0,37.463,13.125Z" transform="translate(932 4468.586)" fill="#12263f"/>
    <path id="Trazado_278524" data-name="Trazado 278524" d="M-16.1-1.868l3.047-8.8h1.538L-15.472,0h-1.245l-3.948-10.664h1.531ZM-11-4.036A4.681,4.681,0,0,1-10.54-6.13,3.415,3.415,0,0,1-9.265-7.566,3.469,3.469,0,0,1-7.4-8.071,3.342,3.342,0,0,1-4.783-6.951a4.311,4.311,0,0,1,1,2.981v.1A4.722,4.722,0,0,1-4.226-1.8,3.365,3.365,0,0,1-5.493-.366,3.509,3.509,0,0,1-7.386.146,3.334,3.334,0,0,1-10-.974,4.29,4.29,0,0,1-11-3.94Zm1.362.161a3.39,3.39,0,0,0,.612,2.117,1.957,1.957,0,0,0,1.637.8,1.945,1.945,0,0,0,1.641-.809,3.707,3.707,0,0,0,.608-2.267,3.384,3.384,0,0,0-.619-2.113A1.968,1.968,0,0,0-7.4-6.958a1.946,1.946,0,0,0-1.619.8A3.68,3.68,0,0,0-9.635-3.875ZM-.612,0H-1.967V-11.25H-.612ZM6.449,0a2.846,2.846,0,0,1-.19-.835A3.023,3.023,0,0,1,4,.146,2.8,2.8,0,0,1,2.08-.516,2.145,2.145,0,0,1,1.329-2.2,2.24,2.24,0,0,1,2.271-4.12,4.437,4.437,0,0,1,4.918-4.8H6.237v-.623a1.522,1.522,0,0,0-.425-1.132A1.707,1.707,0,0,0,4.559-6.98a1.976,1.976,0,0,0-1.216.366,1.079,1.079,0,0,0-.491.886H1.49a1.87,1.87,0,0,1,.421-1.146,2.874,2.874,0,0,1,1.143-.875A3.844,3.844,0,0,1,4.64-8.071a3.133,3.133,0,0,1,2.146.685A2.47,2.47,0,0,1,7.592-5.5v3.647A4.459,4.459,0,0,0,7.87-.117V0ZM4.2-1.033a2.381,2.381,0,0,0,1.208-.33,1.994,1.994,0,0,0,.828-.857V-3.845H5.175q-2.49,0-2.49,1.458a1.234,1.234,0,0,0,.425,1A1.633,1.633,0,0,0,4.2-1.033Zm1.252-10.2H7.094L5.131-9.082l-1.091,0Zm6.1,1.392v1.919h1.479v1.047H11.554v4.921a1.1,1.1,0,0,0,.2.715A.832.832,0,0,0,12.426-1a3.281,3.281,0,0,0,.645-.088V0a3.951,3.951,0,0,1-1.04.146A1.687,1.687,0,0,1,10.66-.4a2.36,2.36,0,0,1-.461-1.56V-6.877H8.756V-7.925H10.2V-9.844ZM16.088,0H14.733V-7.925h1.355ZM14.623-10.027a.809.809,0,0,1,.2-.557.756.756,0,0,1,.6-.227.768.768,0,0,1,.6.227.8.8,0,0,1,.205.557.774.774,0,0,1-.205.549.782.782,0,0,1-.6.22.77.77,0,0,1-.6-.22A.782.782,0,0,1,14.623-10.027ZM19.728,0H18.373V-11.25h1.355Z" transform="translate(1106.396 4468.586)" fill="#12263f"/>
    <path id="Trazado_278525" data-name="Trazado 278525" d="M-16.1-1.868l3.047-8.8h1.538L-15.472,0h-1.245l-3.948-10.664h1.531ZM-11-4.036A4.681,4.681,0,0,1-10.54-6.13,3.415,3.415,0,0,1-9.265-7.566,3.469,3.469,0,0,1-7.4-8.071,3.342,3.342,0,0,1-4.783-6.951a4.311,4.311,0,0,1,1,2.981v.1A4.722,4.722,0,0,1-4.226-1.8,3.365,3.365,0,0,1-5.493-.366,3.509,3.509,0,0,1-7.386.146,3.334,3.334,0,0,1-10-.974,4.29,4.29,0,0,1-11-3.94Zm1.362.161a3.39,3.39,0,0,0,.612,2.117,1.957,1.957,0,0,0,1.637.8,1.945,1.945,0,0,0,1.641-.809,3.707,3.707,0,0,0,.608-2.267,3.384,3.384,0,0,0-.619-2.113A1.968,1.968,0,0,0-7.4-6.958a1.946,1.946,0,0,0-1.619.8A3.68,3.68,0,0,0-9.635-3.875ZM-.612,0H-1.967V-11.25H-.612ZM6.449,0a2.846,2.846,0,0,1-.19-.835A3.023,3.023,0,0,1,4,.146,2.8,2.8,0,0,1,2.08-.516,2.145,2.145,0,0,1,1.329-2.2,2.24,2.24,0,0,1,2.271-4.12,4.437,4.437,0,0,1,4.918-4.8H6.237v-.623a1.522,1.522,0,0,0-.425-1.132A1.707,1.707,0,0,0,4.559-6.98a1.976,1.976,0,0,0-1.216.366,1.079,1.079,0,0,0-.491.886H1.49a1.87,1.87,0,0,1,.421-1.146,2.874,2.874,0,0,1,1.143-.875A3.844,3.844,0,0,1,4.64-8.071a3.133,3.133,0,0,1,2.146.685A2.47,2.47,0,0,1,7.592-5.5v3.647A4.459,4.459,0,0,0,7.87-.117V0ZM4.2-1.033a2.381,2.381,0,0,0,1.208-.33,1.994,1.994,0,0,0,.828-.857V-3.845H5.175q-2.49,0-2.49,1.458a1.234,1.234,0,0,0,.425,1A1.633,1.633,0,0,0,4.2-1.033Zm1.252-10.2H7.094L5.131-9.082l-1.091,0Zm6.1,1.392v1.919h1.479v1.047H11.554v4.921a1.1,1.1,0,0,0,.2.715A.832.832,0,0,0,12.426-1a3.281,3.281,0,0,0,.645-.088V0a3.951,3.951,0,0,1-1.04.146A1.687,1.687,0,0,1,10.66-.4a2.36,2.36,0,0,1-.461-1.56V-6.877H8.756V-7.925H10.2V-9.844ZM16.088,0H14.733V-7.925h1.355ZM14.623-10.027a.809.809,0,0,1,.2-.557.756.756,0,0,1,.6-.227.768.768,0,0,1,.6.227.8.8,0,0,1,.205.557.774.774,0,0,1-.205.549.782.782,0,0,1-.6.22.77.77,0,0,1-.6-.22A.782.782,0,0,1,14.623-10.027ZM19.728,0H18.373V-11.25h1.355Z" transform="translate(1126 4499.586)" fill="#12263f"/>
    <path id="Trazado_278526" data-name="Trazado 278526" d="M-16.1-1.868l3.047-8.8h1.538L-15.472,0h-1.245l-3.948-10.664h1.531ZM-11-4.036A4.681,4.681,0,0,1-10.54-6.13,3.415,3.415,0,0,1-9.265-7.566,3.469,3.469,0,0,1-7.4-8.071,3.342,3.342,0,0,1-4.783-6.951a4.311,4.311,0,0,1,1,2.981v.1A4.722,4.722,0,0,1-4.226-1.8,3.365,3.365,0,0,1-5.493-.366,3.509,3.509,0,0,1-7.386.146,3.334,3.334,0,0,1-10-.974,4.29,4.29,0,0,1-11-3.94Zm1.362.161a3.39,3.39,0,0,0,.612,2.117,1.957,1.957,0,0,0,1.637.8,1.945,1.945,0,0,0,1.641-.809,3.707,3.707,0,0,0,.608-2.267,3.384,3.384,0,0,0-.619-2.113A1.968,1.968,0,0,0-7.4-6.958a1.946,1.946,0,0,0-1.619.8A3.68,3.68,0,0,0-9.635-3.875ZM-.612,0H-1.967V-11.25H-.612ZM6.449,0a2.846,2.846,0,0,1-.19-.835A3.023,3.023,0,0,1,4,.146,2.8,2.8,0,0,1,2.08-.516,2.145,2.145,0,0,1,1.329-2.2,2.24,2.24,0,0,1,2.271-4.12,4.437,4.437,0,0,1,4.918-4.8H6.237v-.623a1.522,1.522,0,0,0-.425-1.132A1.707,1.707,0,0,0,4.559-6.98a1.976,1.976,0,0,0-1.216.366,1.079,1.079,0,0,0-.491.886H1.49a1.87,1.87,0,0,1,.421-1.146,2.874,2.874,0,0,1,1.143-.875A3.844,3.844,0,0,1,4.64-8.071a3.133,3.133,0,0,1,2.146.685A2.47,2.47,0,0,1,7.592-5.5v3.647A4.459,4.459,0,0,0,7.87-.117V0ZM4.2-1.033a2.381,2.381,0,0,0,1.208-.33,1.994,1.994,0,0,0,.828-.857V-3.845H5.175q-2.49,0-2.49,1.458a1.234,1.234,0,0,0,.425,1A1.633,1.633,0,0,0,4.2-1.033Zm1.252-10.2H7.094L5.131-9.082l-1.091,0Zm6.1,1.392v1.919h1.479v1.047H11.554v4.921a1.1,1.1,0,0,0,.2.715A.832.832,0,0,0,12.426-1a3.281,3.281,0,0,0,.645-.088V0a3.951,3.951,0,0,1-1.04.146A1.687,1.687,0,0,1,10.66-.4a2.36,2.36,0,0,1-.461-1.56V-6.877H8.756V-7.925H10.2V-9.844ZM16.088,0H14.733V-7.925h1.355ZM14.623-10.027a.809.809,0,0,1,.2-.557.756.756,0,0,1,.6-.227.768.768,0,0,1,.6.227.8.8,0,0,1,.205.557.774.774,0,0,1-.205.549.782.782,0,0,1-.6.22.77.77,0,0,1-.6-.22A.782.782,0,0,1,14.623-10.027ZM19.728,0H18.373V-11.25h1.355Z" transform="translate(1192 4511.586)" fill="#12263f"/>
    <path id="Trazado_278523" data-name="Trazado 278523" d="M-16.1-1.868l3.047-8.8h1.538L-15.472,0h-1.245l-3.948-10.664h1.531ZM-11-4.036A4.681,4.681,0,0,1-10.54-6.13,3.415,3.415,0,0,1-9.265-7.566,3.469,3.469,0,0,1-7.4-8.071,3.342,3.342,0,0,1-4.783-6.951a4.311,4.311,0,0,1,1,2.981v.1A4.722,4.722,0,0,1-4.226-1.8,3.365,3.365,0,0,1-5.493-.366,3.509,3.509,0,0,1-7.386.146,3.334,3.334,0,0,1-10-.974,4.29,4.29,0,0,1-11-3.94Zm1.362.161a3.39,3.39,0,0,0,.612,2.117,1.957,1.957,0,0,0,1.637.8,1.945,1.945,0,0,0,1.641-.809,3.707,3.707,0,0,0,.608-2.267,3.384,3.384,0,0,0-.619-2.113A1.968,1.968,0,0,0-7.4-6.958a1.946,1.946,0,0,0-1.619.8A3.68,3.68,0,0,0-9.635-3.875ZM-.612,0H-1.967V-11.25H-.612ZM6.449,0a2.846,2.846,0,0,1-.19-.835A3.023,3.023,0,0,1,4,.146,2.8,2.8,0,0,1,2.08-.516,2.145,2.145,0,0,1,1.329-2.2,2.24,2.24,0,0,1,2.271-4.12,4.437,4.437,0,0,1,4.918-4.8H6.237v-.623a1.522,1.522,0,0,0-.425-1.132A1.707,1.707,0,0,0,4.559-6.98a1.976,1.976,0,0,0-1.216.366,1.079,1.079,0,0,0-.491.886H1.49a1.87,1.87,0,0,1,.421-1.146,2.874,2.874,0,0,1,1.143-.875A3.844,3.844,0,0,1,4.64-8.071a3.133,3.133,0,0,1,2.146.685A2.47,2.47,0,0,1,7.592-5.5v3.647A4.459,4.459,0,0,0,7.87-.117V0ZM4.2-1.033a2.381,2.381,0,0,0,1.208-.33,1.994,1.994,0,0,0,.828-.857V-3.845H5.175q-2.49,0-2.49,1.458a1.234,1.234,0,0,0,.425,1A1.633,1.633,0,0,0,4.2-1.033Zm1.252-10.2H7.094L5.131-9.082l-1.091,0Zm6.1,1.392v1.919h1.479v1.047H11.554v4.921a1.1,1.1,0,0,0,.2.715A.832.832,0,0,0,12.426-1a3.281,3.281,0,0,0,.645-.088V0a3.951,3.951,0,0,1-1.04.146A1.687,1.687,0,0,1,10.66-.4a2.36,2.36,0,0,1-.461-1.56V-6.877H8.756V-7.925H10.2V-9.844ZM16.088,0H14.733V-7.925h1.355ZM14.623-10.027a.809.809,0,0,1,.2-.557.756.756,0,0,1,.6-.227.768.768,0,0,1,.6.227.8.8,0,0,1,.205.557.774.774,0,0,1-.205.549.782.782,0,0,1-.6.22.77.77,0,0,1-.6-.22A.782.782,0,0,1,14.623-10.027ZM19.728,0H18.373V-11.25h1.355Z" transform="translate(1245 4499.586)" fill="#12263f"/>
    <path id="Trazado_278527" data-name="Trazado 278527" d="M-16.1-1.868l3.047-8.8h1.538L-15.472,0h-1.245l-3.948-10.664h1.531ZM-11-4.036A4.681,4.681,0,0,1-10.54-6.13,3.415,3.415,0,0,1-9.265-7.566,3.469,3.469,0,0,1-7.4-8.071,3.342,3.342,0,0,1-4.783-6.951a4.311,4.311,0,0,1,1,2.981v.1A4.722,4.722,0,0,1-4.226-1.8,3.365,3.365,0,0,1-5.493-.366,3.509,3.509,0,0,1-7.386.146,3.334,3.334,0,0,1-10-.974,4.29,4.29,0,0,1-11-3.94Zm1.362.161a3.39,3.39,0,0,0,.612,2.117,1.957,1.957,0,0,0,1.637.8,1.945,1.945,0,0,0,1.641-.809,3.707,3.707,0,0,0,.608-2.267,3.384,3.384,0,0,0-.619-2.113A1.968,1.968,0,0,0-7.4-6.958a1.946,1.946,0,0,0-1.619.8A3.68,3.68,0,0,0-9.635-3.875ZM-.612,0H-1.967V-11.25H-.612ZM6.449,0a2.846,2.846,0,0,1-.19-.835A3.023,3.023,0,0,1,4,.146,2.8,2.8,0,0,1,2.08-.516,2.145,2.145,0,0,1,1.329-2.2,2.24,2.24,0,0,1,2.271-4.12,4.437,4.437,0,0,1,4.918-4.8H6.237v-.623a1.522,1.522,0,0,0-.425-1.132A1.707,1.707,0,0,0,4.559-6.98a1.976,1.976,0,0,0-1.216.366,1.079,1.079,0,0,0-.491.886H1.49a1.87,1.87,0,0,1,.421-1.146,2.874,2.874,0,0,1,1.143-.875A3.844,3.844,0,0,1,4.64-8.071a3.133,3.133,0,0,1,2.146.685A2.47,2.47,0,0,1,7.592-5.5v3.647A4.459,4.459,0,0,0,7.87-.117V0ZM4.2-1.033a2.381,2.381,0,0,0,1.208-.33,1.994,1.994,0,0,0,.828-.857V-3.845H5.175q-2.49,0-2.49,1.458a1.234,1.234,0,0,0,.425,1A1.633,1.633,0,0,0,4.2-1.033Zm1.252-10.2H7.094L5.131-9.082l-1.091,0Zm6.1,1.392v1.919h1.479v1.047H11.554v4.921a1.1,1.1,0,0,0,.2.715A.832.832,0,0,0,12.426-1a3.281,3.281,0,0,0,.645-.088V0a3.951,3.951,0,0,1-1.04.146A1.687,1.687,0,0,1,10.66-.4a2.36,2.36,0,0,1-.461-1.56V-6.877H8.756V-7.925H10.2V-9.844ZM16.088,0H14.733V-7.925h1.355ZM14.623-10.027a.809.809,0,0,1,.2-.557.756.756,0,0,1,.6-.227.768.768,0,0,1,.6.227.8.8,0,0,1,.205.557.774.774,0,0,1-.205.549.782.782,0,0,1-.6.22.77.77,0,0,1-.6-.22A.782.782,0,0,1,14.623-10.027ZM19.728,0H18.373V-11.25h1.355Z" transform="translate(1261 4468.586)" fill="#12263f"/>
    <path id="Trazado_278528" data-name="Trazado 278528" d="M-10.188-2.791h-4.468l-1,2.791h-1.45l4.072-10.664h1.23L-7.727,0H-9.17Zm-4.043-1.15h3.625l-1.816-4.988Zm7.4-.088a4.658,4.658,0,0,1,.857-2.948A2.741,2.741,0,0,1-3.7-8.071,2.726,2.726,0,0,1-1.436-7.046l.066-.879H-.132V-.19a3.224,3.224,0,0,1-.912,2.424,3.365,3.365,0,0,1-2.45.886,4.076,4.076,0,0,1-1.677-.366,2.887,2.887,0,0,1-1.252-1l.7-.813A2.65,2.65,0,0,0-3.589,2.014a2.076,2.076,0,0,0,1.542-.557A2.128,2.128,0,0,0-1.494-.11V-.791A2.785,2.785,0,0,1-3.713.146,2.707,2.707,0,0,1-5.966-.974,4.9,4.9,0,0,1-6.826-4.028Zm1.362.154a3.553,3.553,0,0,0,.549,2.106A1.785,1.785,0,0,0-3.376-1,1.985,1.985,0,0,0-1.494-2.168V-5.786A2.008,2.008,0,0,0-3.362-6.921a1.8,1.8,0,0,0-1.545.769A3.87,3.87,0,0,0-5.464-3.875ZM6.8-.784a2.878,2.878,0,0,1-2.322.93A2.464,2.464,0,0,1,2.552-.59a3.186,3.186,0,0,1-.67-2.179V-7.925H3.237v5.12Q3.237-1,4.7-1A2.028,2.028,0,0,0,6.768-2.161V-7.925H8.123V0H6.833ZM15.073,0a2.846,2.846,0,0,1-.19-.835,3.023,3.023,0,0,1-2.256.981A2.8,2.8,0,0,1,10.7-.516,2.145,2.145,0,0,1,9.954-2.2a2.24,2.24,0,0,1,.941-1.923A4.437,4.437,0,0,1,13.542-4.8h1.318v-.623a1.522,1.522,0,0,0-.425-1.132,1.707,1.707,0,0,0-1.252-.421,1.976,1.976,0,0,0-1.216.366,1.079,1.079,0,0,0-.491.886H10.115a1.87,1.87,0,0,1,.421-1.146,2.874,2.874,0,0,1,1.143-.875,3.844,3.844,0,0,1,1.586-.322,3.133,3.133,0,0,1,2.146.685A2.47,2.47,0,0,1,16.216-5.5v3.647a4.459,4.459,0,0,0,.278,1.736V0ZM12.825-1.033a2.381,2.381,0,0,0,1.208-.33,1.994,1.994,0,0,0,.828-.857V-3.845H13.8q-2.49,0-2.49,1.458a1.234,1.234,0,0,0,.425,1A1.633,1.633,0,0,0,12.825-1.033Z" transform="translate(1037 4360.691)" fill="#12263f"/>
    <path id="Trazado_278483" data-name="Trazado 278483" d="M90.947,119.6h14.26l-7.131,10.143Z" transform="translate(1041.256 4561.663) rotate(-90)"/>
    <path id="Trazado_278484" data-name="Trazado 278484" d="M90.947,119.6h14.26l-7.131,10.143Z" transform="matrix(-0.454, -0.891, 0.891, -0.454, 1101.37, 4625.574)"/>
    <path id="Trazado_278485" data-name="Trazado 278485" d="M90.947,119.6h14.26l-7.131,10.143Z" transform="translate(1288.474 4608.808) rotate(-180)"/>
    <path id="Trazado_278486" data-name="Trazado 278486" d="M90.947,119.6h14.26l-7.131,10.143Z" transform="translate(1368.138 4456.463) rotate(120)"/>
    <path id="Trazado_278487" data-name="Trazado 278487" d="M90.947,119.6h14.26l-7.131,10.143Z" transform="translate(1345.803 4365.508) rotate(90)"/>
    <path id="Trazado_278529" data-name="Trazado 278529" d="M0,0H33" transform="translate(1129.396 4463.5)" fill="none" stroke="#000" stroke-width="1"/>
    <path id="Trazado_278530" data-name="Trazado 278530" d="M0,8,16,0" transform="translate(1150.396 4482.242)" fill="none" stroke="#000" stroke-width="1"/>
    <path id="Trazado_278531" data-name="Trazado 278531" d="M0,12V0" transform="translate(1190.396 4485.5)" fill="none" stroke="#000" stroke-width="1"/>
    <path id="Trazado_278532" data-name="Trazado 278532" d="M12,8,0,0" transform="translate(1212.396 4479.5)" fill="none" stroke="#000" stroke-width="1"/>
    <path id="Trazado_278533" data-name="Trazado 278533" d="M18,0H0" transform="translate(1222.396 4463.5)" fill="none" stroke="#000" stroke-width="1"/>
  </g>
</svg>
