<svg xmlns="http://www.w3.org/2000/svg" xmlns:xlink="http://www.w3.org/1999/xlink" width="1029.896" height="503" viewBox="0 0 1029.896 503">
  <defs>
    <clipPath id="clip-path">
      <rect id="Rectángulo_47450" data-name="Rectángulo 47450" width="683.485" height="291.668" fill="none"/>
    </clipPath>
    <clipPath id="clip-path-2">
      <rect id="Rectángulo_47449" data-name="Rectángulo 47449" width="617.222" height="433.834" fill="none"/>
    </clipPath>
    <clipPath id="clip-path-3">
      <rect id="Rectángulo_47454" data-name="Rectángulo 47454" width="683.485" height="25.311" fill="none"/>
    </clipPath>
  </defs>
  <g id="Grupo_147241" data-name="Grupo 147241" transform="translate(-285 -4866.133)">
    <path id="Trazado_278522" data-name="Trazado 278522" d="M0,0H1029.9V503H0Z" transform="translate(285 4866.133)" fill="#fff"/>
    <path id="Trazado_278526" data-name="Trazado 278526" d="M30.3,8.563a6.172,6.172,0,0,1-2.458-1.193,2.279,2.279,0,0,1-.769-1.747,2.408,2.408,0,0,1,.94-1.945,3.736,3.736,0,0,1,2.444-.769,4.078,4.078,0,0,1,1.829.4A3.007,3.007,0,0,1,33.53,4.4a2.8,2.8,0,0,1,.441,1.524H32.651A1.82,1.82,0,0,0,32.077,4.5a2.335,2.335,0,0,0-1.62-.518,2.391,2.391,0,0,0-1.514.428A1.428,1.428,0,0,0,28.4,5.6a1.285,1.285,0,0,0,.516,1.031,5.062,5.062,0,0,0,1.757.77,8.151,8.151,0,0,1,1.941.77,2.946,2.946,0,0,1,1.039.981,2.5,2.5,0,0,1,.338,1.319,2.326,2.326,0,0,1-.943,1.938,4.022,4.022,0,0,1-2.522.728,4.678,4.678,0,0,1-1.914-.393,3.221,3.221,0,0,1-1.371-1.077,2.627,2.627,0,0,1-.482-1.552h1.319a1.714,1.714,0,0,0,.667,1.425,2.806,2.806,0,0,0,1.781.523,2.58,2.58,0,0,0,1.593-.424,1.377,1.377,0,0,0,.554-1.155,1.351,1.351,0,0,0-.513-1.131A5.911,5.911,0,0,0,30.3,8.563ZM36.849,13H35.584V5.6h1.265ZM35.481,3.642a.755.755,0,0,1,.188-.52.706.706,0,0,1,.557-.212.717.717,0,0,1,.561.212.747.747,0,0,1,.191.52.722.722,0,0,1-.191.513.73.73,0,0,1-.561.205.718.718,0,0,1-.557-.205A.73.73,0,0,1,35.481,3.642Zm7.7,7.4a.931.931,0,0,0-.386-.8,3.718,3.718,0,0,0-1.347-.489,6.367,6.367,0,0,1-1.524-.492,2.169,2.169,0,0,1-.834-.684,1.635,1.635,0,0,1-.27-.943A1.919,1.919,0,0,1,39.586,6.1a3,3,0,0,1,1.965-.629,3.091,3.091,0,0,1,2.041.649,2.063,2.063,0,0,1,.783,1.661H43.1a1.142,1.142,0,0,0-.441-.9,1.652,1.652,0,0,0-1.111-.376,1.729,1.729,0,0,0-1.08.3.947.947,0,0,0-.39.786.767.767,0,0,0,.362.69,4.458,4.458,0,0,0,1.309.444,6.821,6.821,0,0,1,1.535.506,2.239,2.239,0,0,1,.872.708,1.74,1.74,0,0,1,.284,1.008,1.893,1.893,0,0,1-.793,1.589,3.326,3.326,0,0,1-2.058.6,3.725,3.725,0,0,1-1.572-.314,2.557,2.557,0,0,1-1.07-.878,2.117,2.117,0,0,1-.386-1.22h1.265a1.309,1.309,0,0,0,.509,1.008,1.976,1.976,0,0,0,1.254.373,2.039,2.039,0,0,0,1.152-.291A.893.893,0,0,0,43.179,11.038Zm4.628-7.226V5.6h1.381v.978H47.807v4.593a1.027,1.027,0,0,0,.185.667.777.777,0,0,0,.629.222,3.062,3.062,0,0,0,.6-.082V13a3.688,3.688,0,0,1-.971.136,1.575,1.575,0,0,1-1.278-.513,2.2,2.2,0,0,1-.431-1.456V6.581H45.2V5.6h1.347V3.813Zm5.927,9.324a3.232,3.232,0,0,1-2.447-.988,3.666,3.666,0,0,1-.943-2.642V9.274a4.438,4.438,0,0,1,.42-1.965,3.28,3.28,0,0,1,1.176-1.354,2.956,2.956,0,0,1,1.637-.489,2.77,2.77,0,0,1,2.242.95,4.114,4.114,0,0,1,.8,2.721v.526H51.607a2.629,2.629,0,0,0,.639,1.767A2.009,2.009,0,0,0,53.8,12.1a2.2,2.2,0,0,0,1.135-.273,2.851,2.851,0,0,0,.813-.725l.772.6A3.106,3.106,0,0,1,53.733,13.137Zm-.157-6.631a1.687,1.687,0,0,0-1.285.557,2.708,2.708,0,0,0-.643,1.562h3.705v-.1a2.409,2.409,0,0,0-.52-1.494A1.588,1.588,0,0,0,53.576,6.506Zm5.694-.9.034.82A2.732,2.732,0,0,1,61.5,5.467a2.115,2.115,0,0,1,2.112,1.189,2.8,2.8,0,0,1,.96-.861,2.837,2.837,0,0,1,1.4-.328q2.434,0,2.475,2.577V13H67.18V8.119a1.7,1.7,0,0,0-.362-1.186A1.6,1.6,0,0,0,65.6,6.54a1.677,1.677,0,0,0-1.169.42,1.705,1.705,0,0,0-.54,1.131V13H62.62V8.153A1.411,1.411,0,0,0,61.041,6.54a1.692,1.692,0,0,0-1.7,1.06V13H58.074V5.6ZM74.918,13a2.657,2.657,0,0,1-.178-.779,2.822,2.822,0,0,1-2.105.916,2.611,2.611,0,0,1-1.794-.619,2,2,0,0,1-.7-1.569,2.091,2.091,0,0,1,.878-1.794,4.141,4.141,0,0,1,2.471-.639h1.23V7.935a1.42,1.42,0,0,0-.4-1.056,1.593,1.593,0,0,0-1.169-.393,1.844,1.844,0,0,0-1.135.342,1.007,1.007,0,0,0-.458.827H70.29a1.745,1.745,0,0,1,.393-1.07,2.683,2.683,0,0,1,1.066-.817,3.588,3.588,0,0,1,1.48-.3,2.924,2.924,0,0,1,2,.639,2.306,2.306,0,0,1,.752,1.76v3.4a4.162,4.162,0,0,0,.26,1.62V13Zm-2.1-.964a2.223,2.223,0,0,0,1.128-.308,1.861,1.861,0,0,0,.772-.8V9.411h-.991q-2.324,0-2.324,1.36a1.151,1.151,0,0,0,.4.93A1.524,1.524,0,0,0,72.819,12.036Zm8.306-2.8A4.333,4.333,0,0,1,81.932,6.5a2.745,2.745,0,0,1,4.17-.147V2.5h1.265V13H86.2l-.062-.793a2.575,2.575,0,0,1-2.112.93,2.526,2.526,0,0,1-2.1-1.053,4.382,4.382,0,0,1-.81-2.748Zm1.265.144a3.281,3.281,0,0,0,.52,1.969,1.68,1.68,0,0,0,1.436.711,1.845,1.845,0,0,0,1.757-1.08v-3.4A1.859,1.859,0,0,0,84.358,6.54a1.687,1.687,0,0,0-1.449.718A3.612,3.612,0,0,0,82.39,9.384ZM92.4,13.137a3.232,3.232,0,0,1-2.447-.988,3.666,3.666,0,0,1-.943-2.642V9.274a4.438,4.438,0,0,1,.42-1.965A3.28,3.28,0,0,1,90.6,5.956a2.956,2.956,0,0,1,1.637-.489,2.77,2.77,0,0,1,2.242.95,4.114,4.114,0,0,1,.8,2.721v.526H90.271a2.629,2.629,0,0,0,.639,1.767,2.009,2.009,0,0,0,1.555.673,2.2,2.2,0,0,0,1.135-.273,2.851,2.851,0,0,0,.813-.725l.772.6A3.106,3.106,0,0,1,92.4,13.137ZM92.24,6.506a1.687,1.687,0,0,0-1.285.557,2.708,2.708,0,0,0-.643,1.562h3.705v-.1a2.409,2.409,0,0,0-.52-1.494A1.588,1.588,0,0,0,92.24,6.506ZM17.561,24.24a4.333,4.333,0,0,1,.807-2.738,2.745,2.745,0,0,1,4.17-.147V17.5H23.8V28H22.64l-.062-.793a2.575,2.575,0,0,1-2.112.93,2.526,2.526,0,0,1-2.1-1.053,4.382,4.382,0,0,1-.81-2.748Zm1.265.144a3.281,3.281,0,0,0,.52,1.969,1.68,1.68,0,0,0,1.436.711,1.845,1.845,0,0,0,1.757-1.08v-3.4a1.859,1.859,0,0,0-1.743-1.046,1.687,1.687,0,0,0-1.449.718A3.612,3.612,0,0,0,18.826,24.384Zm10.008,3.753a3.232,3.232,0,0,1-2.447-.988,3.666,3.666,0,0,1-.943-2.642v-.232a4.438,4.438,0,0,1,.42-1.965,3.28,3.28,0,0,1,1.176-1.354,2.956,2.956,0,0,1,1.637-.489,2.77,2.77,0,0,1,2.242.95,4.114,4.114,0,0,1,.8,2.721v.526H26.708a2.629,2.629,0,0,0,.639,1.767A2.009,2.009,0,0,0,28.9,27.1a2.2,2.2,0,0,0,1.135-.273,2.851,2.851,0,0,0,.813-.725l.772.6A3.106,3.106,0,0,1,28.833,28.137Zm-.157-6.631a1.687,1.687,0,0,0-1.285.557,2.708,2.708,0,0,0-.643,1.562h3.705v-.1a2.409,2.409,0,0,0-.52-1.494A1.588,1.588,0,0,0,28.676,21.506Zm10.753,2.878a4.429,4.429,0,0,1-.772,2.721,2.476,2.476,0,0,1-2.092,1.032,2.713,2.713,0,0,1-2.119-.854v3.562H33.181V20.6h1.155l.062.82a2.605,2.605,0,0,1,2.146-.957,2.522,2.522,0,0,1,2.109,1,4.477,4.477,0,0,1,.776,2.8Zm-1.265-.144a3.268,3.268,0,0,0-.533-1.976,1.718,1.718,0,0,0-1.463-.725,1.859,1.859,0,0,0-1.723,1.019v3.534A1.863,1.863,0,0,0,36.182,27.1a1.71,1.71,0,0,0,1.446-.721A3.567,3.567,0,0,0,38.165,24.24ZM45.6,27.269a2.686,2.686,0,0,1-2.167.868,2.3,2.3,0,0,1-1.8-.687,2.974,2.974,0,0,1-.625-2.034V20.6h1.265v4.778q0,1.682,1.367,1.682a1.893,1.893,0,0,0,1.928-1.08V20.6h1.265V28h-1.2Zm6.727-5.53a3.79,3.79,0,0,0-.622-.048,1.667,1.667,0,0,0-1.688,1.06V28H48.753V20.6h1.23l.021.854a1.969,1.969,0,0,1,1.764-.991,1.292,1.292,0,0,1,.561.1ZM57.784,28a2.657,2.657,0,0,1-.178-.779,2.822,2.822,0,0,1-2.105.916,2.611,2.611,0,0,1-1.794-.619,2,2,0,0,1-.7-1.569,2.091,2.091,0,0,1,.878-1.794,4.142,4.142,0,0,1,2.471-.639h1.23v-.581a1.42,1.42,0,0,0-.4-1.056,1.593,1.593,0,0,0-1.169-.393,1.844,1.844,0,0,0-1.135.342,1.007,1.007,0,0,0-.458.827H53.156a1.745,1.745,0,0,1,.393-1.07,2.683,2.683,0,0,1,1.066-.817,3.588,3.588,0,0,1,1.48-.3,2.924,2.924,0,0,1,2,.639,2.306,2.306,0,0,1,.752,1.76v3.4a4.162,4.162,0,0,0,.26,1.62V28Zm-2.1-.964a2.223,2.223,0,0,0,1.128-.308,1.861,1.861,0,0,0,.772-.8V24.411h-.991q-2.324,0-2.324,1.36a1.151,1.151,0,0,0,.4.93A1.524,1.524,0,0,0,55.685,27.036ZM63.8,27.1a1.822,1.822,0,0,0,1.183-.41,1.443,1.443,0,0,0,.561-1.025h1.2a2.293,2.293,0,0,1-.437,1.21,2.882,2.882,0,0,1-1.077.916,3.107,3.107,0,0,1-1.425.342,3.047,3.047,0,0,1-2.4-1.008A4.016,4.016,0,0,1,60.5,24.37v-.212a4.453,4.453,0,0,1,.4-1.921,3.02,3.02,0,0,1,1.138-1.306,3.233,3.233,0,0,1,1.753-.465,2.966,2.966,0,0,1,2.068.745,2.663,2.663,0,0,1,.878,1.935h-1.2A1.743,1.743,0,0,0,65,21.967a1.691,1.691,0,0,0-1.207-.461A1.77,1.77,0,0,0,62.3,22.2a3.259,3.259,0,0,0-.53,2.006v.239a3.194,3.194,0,0,0,.526,1.969A1.779,1.779,0,0,0,63.8,27.1Zm5.735.9H68.27V20.6h1.265Zm-1.367-9.358a.755.755,0,0,1,.188-.52.706.706,0,0,1,.557-.212.717.717,0,0,1,.561.212.747.747,0,0,1,.191.52.722.722,0,0,1-.191.513.73.73,0,0,1-.561.205.718.718,0,0,1-.557-.205A.73.73,0,0,1,68.167,18.642Zm3.056,5.592a4.369,4.369,0,0,1,.427-1.955,3.187,3.187,0,0,1,1.189-1.34,3.238,3.238,0,0,1,1.74-.472,3.119,3.119,0,0,1,2.444,1.046,4.024,4.024,0,0,1,.933,2.782v.089a4.407,4.407,0,0,1-.414,1.938,3.14,3.14,0,0,1-1.183,1.336,3.275,3.275,0,0,1-1.767.479,3.111,3.111,0,0,1-2.437-1.046,4,4,0,0,1-.933-2.769Zm1.271.15a3.164,3.164,0,0,0,.571,1.976,1.934,1.934,0,0,0,3.059-.01,3.46,3.46,0,0,0,.567-2.116,3.159,3.159,0,0,0-.578-1.972,1.836,1.836,0,0,0-1.535-.755,1.816,1.816,0,0,0-1.511.745A3.434,3.434,0,0,0,72.495,24.384Zm2.659-6.87h1.531l-1.832,2.01-1.019,0Zm5.585,3.09.041.93a2.7,2.7,0,0,1,2.215-1.066q2.345,0,2.365,2.646V28H84.1V23.105a1.7,1.7,0,0,0-.366-1.183,1.466,1.466,0,0,0-1.118-.383,1.825,1.825,0,0,0-1.08.328,2.228,2.228,0,0,0-.725.861V28H79.542V20.6Zm9.687,3.637a4.333,4.333,0,0,1,.807-2.738,2.745,2.745,0,0,1,4.17-.147V17.5h1.265V28H95.5l-.062-.793a2.575,2.575,0,0,1-2.112.93,2.526,2.526,0,0,1-2.1-1.053,4.382,4.382,0,0,1-.81-2.748Zm1.265.144a3.281,3.281,0,0,0,.52,1.969,1.68,1.68,0,0,0,1.436.711,1.845,1.845,0,0,0,1.757-1.08v-3.4a1.859,1.859,0,0,0-1.743-1.046,1.687,1.687,0,0,0-1.449.718A3.612,3.612,0,0,0,91.69,24.384ZM101.7,28.137a3.232,3.232,0,0,1-2.447-.988,3.666,3.666,0,0,1-.943-2.642v-.232a4.438,4.438,0,0,1,.42-1.965A3.28,3.28,0,0,1,99.9,20.956a2.956,2.956,0,0,1,1.637-.489,2.77,2.77,0,0,1,2.242.95,4.114,4.114,0,0,1,.8,2.721v.526H99.572a2.629,2.629,0,0,0,.639,1.767,2.009,2.009,0,0,0,1.555.673,2.2,2.2,0,0,0,1.135-.273,2.851,2.851,0,0,0,.813-.725l.772.6A3.106,3.106,0,0,1,101.7,28.137Zm-.157-6.631a1.687,1.687,0,0,0-1.285.557,2.708,2.708,0,0,0-.643,1.562h3.705v-.1a2.409,2.409,0,0,0-.52-1.494A1.588,1.588,0,0,0,101.541,21.506ZM42.994,39.24a4.347,4.347,0,0,1,.8-2.751,2.757,2.757,0,0,1,4.231-.065l.062-.82h1.155v7.219a3.009,3.009,0,0,1-.851,2.263,3.141,3.141,0,0,1-2.287.827,3.8,3.8,0,0,1-1.565-.342,2.7,2.7,0,0,1-1.169-.937l.656-.759a2.473,2.473,0,0,0,1.989,1,1.938,1.938,0,0,0,1.439-.52,1.986,1.986,0,0,0,.516-1.463v-.636a2.6,2.6,0,0,1-2.071.875,2.526,2.526,0,0,1-2.1-1.046A4.571,4.571,0,0,1,42.994,39.24Zm1.271.144a3.316,3.316,0,0,0,.513,1.965,1.666,1.666,0,0,0,1.436.714,1.852,1.852,0,0,0,1.757-1.087V37.6a1.874,1.874,0,0,0-1.743-1.06,1.681,1.681,0,0,0-1.442.718A3.612,3.612,0,0,0,44.266,39.384ZM55.716,43a2.657,2.657,0,0,1-.178-.779,2.822,2.822,0,0,1-2.105.916,2.611,2.611,0,0,1-1.794-.619,2,2,0,0,1-.7-1.569,2.091,2.091,0,0,1,.878-1.794,4.142,4.142,0,0,1,2.471-.639h1.23v-.581a1.42,1.42,0,0,0-.4-1.056,1.593,1.593,0,0,0-1.169-.393,1.844,1.844,0,0,0-1.135.342,1.007,1.007,0,0,0-.458.827H51.088a1.745,1.745,0,0,1,.393-1.07,2.683,2.683,0,0,1,1.066-.817,3.588,3.588,0,0,1,1.48-.3,2.924,2.924,0,0,1,2,.639,2.306,2.306,0,0,1,.752,1.76v3.4a4.162,4.162,0,0,0,.26,1.62V43Zm-2.1-.964a2.223,2.223,0,0,0,1.128-.308,1.861,1.861,0,0,0,.772-.8V39.411h-.991q-2.324,0-2.324,1.36a1.151,1.151,0,0,0,.4.93A1.524,1.524,0,0,0,53.617,42.036Zm9.454-1a.931.931,0,0,0-.386-.8,3.718,3.718,0,0,0-1.347-.489,6.367,6.367,0,0,1-1.524-.492,2.169,2.169,0,0,1-.834-.684,1.635,1.635,0,0,1-.27-.943,1.919,1.919,0,0,1,.769-1.538,3,3,0,0,1,1.965-.629,3.091,3.091,0,0,1,2.041.649,2.063,2.063,0,0,1,.783,1.661H63a1.142,1.142,0,0,0-.441-.9,1.652,1.652,0,0,0-1.111-.376,1.729,1.729,0,0,0-1.08.3.947.947,0,0,0-.39.786.767.767,0,0,0,.362.69,4.458,4.458,0,0,0,1.309.444,6.821,6.821,0,0,1,1.535.506,2.239,2.239,0,0,1,.872.708,1.74,1.74,0,0,1,.284,1.008,1.893,1.893,0,0,1-.793,1.589,3.326,3.326,0,0,1-2.058.6,3.725,3.725,0,0,1-1.572-.314,2.557,2.557,0,0,1-1.07-.878,2.117,2.117,0,0,1-.386-1.22h1.265a1.309,1.309,0,0,0,.509,1.008,1.976,1.976,0,0,0,1.254.373,2.039,2.039,0,0,0,1.152-.291A.893.893,0,0,0,63.071,41.038Zm5.981,2.1a3.232,3.232,0,0,1-2.447-.988,3.666,3.666,0,0,1-.943-2.642v-.232a4.438,4.438,0,0,1,.42-1.965,3.28,3.28,0,0,1,1.176-1.354,2.956,2.956,0,0,1,1.637-.489,2.77,2.77,0,0,1,2.242.95,4.114,4.114,0,0,1,.8,2.721v.526H66.927a2.629,2.629,0,0,0,.639,1.767,2.009,2.009,0,0,0,1.555.673,2.2,2.2,0,0,0,1.135-.273,2.851,2.851,0,0,0,.813-.725l.772.6A3.106,3.106,0,0,1,69.053,43.137ZM68.9,36.506a1.687,1.687,0,0,0-1.285.557,2.708,2.708,0,0,0-.643,1.562h3.705v-.1a2.409,2.409,0,0,0-.52-1.494A1.588,1.588,0,0,0,68.9,36.506Zm8.812,4.532a.931.931,0,0,0-.386-.8,3.718,3.718,0,0,0-1.347-.489,6.367,6.367,0,0,1-1.524-.492,2.169,2.169,0,0,1-.834-.684,1.635,1.635,0,0,1-.27-.943,1.919,1.919,0,0,1,.769-1.538,3,3,0,0,1,1.965-.629,3.091,3.091,0,0,1,2.041.649,2.063,2.063,0,0,1,.783,1.661H77.632a1.142,1.142,0,0,0-.441-.9,1.652,1.652,0,0,0-1.111-.376,1.729,1.729,0,0,0-1.08.3.947.947,0,0,0-.39.786.767.767,0,0,0,.362.69,4.458,4.458,0,0,0,1.309.444,6.821,6.821,0,0,1,1.535.506,2.239,2.239,0,0,1,.872.708,1.74,1.74,0,0,1,.284,1.008,1.893,1.893,0,0,1-.793,1.589,3.326,3.326,0,0,1-2.058.6,3.725,3.725,0,0,1-1.572-.314,2.557,2.557,0,0,1-1.07-.878,2.117,2.117,0,0,1-.386-1.22h1.265a1.309,1.309,0,0,0,.509,1.008,1.976,1.976,0,0,0,1.254.373,2.039,2.039,0,0,0,1.152-.291A.893.893,0,0,0,77.707,41.038Z" transform="translate(495 4907.586)" fill="#12263f"/>
    <path id="Trazado_278527" data-name="Trazado 278527" d="M9.374,10.4H5.2L4.268,13H2.914l3.8-9.953H7.863L11.671,13H10.324ZM5.6,9.322H8.984l-1.7-4.655ZM14.187,13H12.922V5.6h1.265ZM12.819,3.642a.755.755,0,0,1,.188-.52.706.706,0,0,1,.557-.212.717.717,0,0,1,.561.212.747.747,0,0,1,.191.52.722.722,0,0,1-.191.513.73.73,0,0,1-.561.205.718.718,0,0,1-.557-.205A.73.73,0,0,1,12.819,3.642Zm6.966,3.1a3.79,3.79,0,0,0-.622-.048,1.667,1.667,0,0,0-1.688,1.06V13H16.21V5.6h1.23l.021.854a1.969,1.969,0,0,1,1.764-.991,1.292,1.292,0,0,1,.561.1Zm4.1,6.4a3.232,3.232,0,0,1-2.447-.988A3.666,3.666,0,0,1,20.5,9.507V9.274a4.438,4.438,0,0,1,.42-1.965,3.28,3.28,0,0,1,1.176-1.354,2.956,2.956,0,0,1,1.637-.489,2.77,2.77,0,0,1,2.242.95,4.114,4.114,0,0,1,.8,2.721v.526H21.761a2.629,2.629,0,0,0,.639,1.767,2.009,2.009,0,0,0,1.555.673,2.2,2.2,0,0,0,1.135-.273,2.851,2.851,0,0,0,.813-.725l.772.6A3.106,3.106,0,0,1,23.887,13.137Zm-.157-6.631a1.687,1.687,0,0,0-1.285.557A2.708,2.708,0,0,0,21.8,8.625h3.705v-.1a2.409,2.409,0,0,0-.52-1.494A1.588,1.588,0,0,0,23.729,6.506Z" transform="translate(469 5012.586)" fill="#12263f"/>
    <path id="Trazado_278528" data-name="Trazado 278528" d="M9.491,10.4H5.321L4.385,13H3.031l3.8-9.953H7.98L11.788,13H10.441ZM5.718,9.322H9.1l-1.7-4.655Zm6.911-.082a4.347,4.347,0,0,1,.8-2.751,2.558,2.558,0,0,1,2.119-1.022,2.544,2.544,0,0,1,2.112.957l.062-.82h1.155v7.219a3.009,3.009,0,0,1-.851,2.263,3.141,3.141,0,0,1-2.287.827,3.8,3.8,0,0,1-1.565-.342A2.7,2.7,0,0,1,13,14.634l.656-.759a2.473,2.473,0,0,0,1.989,1,1.938,1.938,0,0,0,1.439-.52,1.986,1.986,0,0,0,.516-1.463v-.636a2.6,2.6,0,0,1-2.071.875,2.527,2.527,0,0,1-2.1-1.046A4.571,4.571,0,0,1,12.629,9.24Zm1.271.144a3.316,3.316,0,0,0,.513,1.965,1.666,1.666,0,0,0,1.436.714,1.852,1.852,0,0,0,1.757-1.087V7.6a1.874,1.874,0,0,0-1.743-1.06,1.681,1.681,0,0,0-1.442.718A3.612,3.612,0,0,0,13.9,9.384Zm11.45,2.885a2.686,2.686,0,0,1-2.167.868,2.3,2.3,0,0,1-1.8-.687,2.974,2.974,0,0,1-.625-2.034V5.6h1.265v4.778q0,1.682,1.367,1.682a1.893,1.893,0,0,0,1.928-1.08V5.6h1.265V13h-1.2ZM33.068,13a2.657,2.657,0,0,1-.178-.779,2.822,2.822,0,0,1-2.105.916,2.611,2.611,0,0,1-1.794-.619,2,2,0,0,1-.7-1.569,2.091,2.091,0,0,1,.878-1.794,4.142,4.142,0,0,1,2.471-.639h1.23V7.935a1.42,1.42,0,0,0-.4-1.056A1.593,1.593,0,0,0,31.3,6.485a1.844,1.844,0,0,0-1.135.342,1.007,1.007,0,0,0-.458.827H28.44a1.745,1.745,0,0,1,.393-1.07A2.683,2.683,0,0,1,29.9,5.768a3.588,3.588,0,0,1,1.48-.3,2.924,2.924,0,0,1,2,.639,2.306,2.306,0,0,1,.752,1.76v3.4a4.162,4.162,0,0,0,.26,1.62V13Zm-2.1-.964a2.223,2.223,0,0,0,1.128-.308,1.861,1.861,0,0,0,.772-.8V9.411h-.991q-2.324,0-2.324,1.36a1.151,1.151,0,0,0,.4.93A1.524,1.524,0,0,0,30.97,12.036Z" transform="translate(842 5039.586)" fill="#12263f"/>
    <path id="Trazado_278529" data-name="Trazado 278529" d="M9.491,10.4H5.321L4.385,13H3.031l3.8-9.953H7.98L11.788,13H10.441ZM5.718,9.322H9.1l-1.7-4.655Zm6.911-.082a4.347,4.347,0,0,1,.8-2.751,2.558,2.558,0,0,1,2.119-1.022,2.544,2.544,0,0,1,2.112.957l.062-.82h1.155v7.219a3.009,3.009,0,0,1-.851,2.263,3.141,3.141,0,0,1-2.287.827,3.8,3.8,0,0,1-1.565-.342A2.7,2.7,0,0,1,13,14.634l.656-.759a2.473,2.473,0,0,0,1.989,1,1.938,1.938,0,0,0,1.439-.52,1.986,1.986,0,0,0,.516-1.463v-.636a2.6,2.6,0,0,1-2.071.875,2.527,2.527,0,0,1-2.1-1.046A4.571,4.571,0,0,1,12.629,9.24Zm1.271.144a3.316,3.316,0,0,0,.513,1.965,1.666,1.666,0,0,0,1.436.714,1.852,1.852,0,0,0,1.757-1.087V7.6a1.874,1.874,0,0,0-1.743-1.06,1.681,1.681,0,0,0-1.442.718A3.612,3.612,0,0,0,13.9,9.384Zm11.45,2.885a2.686,2.686,0,0,1-2.167.868,2.3,2.3,0,0,1-1.8-.687,2.974,2.974,0,0,1-.625-2.034V5.6h1.265v4.778q0,1.682,1.367,1.682a1.893,1.893,0,0,0,1.928-1.08V5.6h1.265V13h-1.2ZM33.068,13a2.657,2.657,0,0,1-.178-.779,2.822,2.822,0,0,1-2.105.916,2.611,2.611,0,0,1-1.794-.619,2,2,0,0,1-.7-1.569,2.091,2.091,0,0,1,.878-1.794,4.142,4.142,0,0,1,2.471-.639h1.23V7.935a1.42,1.42,0,0,0-.4-1.056A1.593,1.593,0,0,0,31.3,6.485a1.844,1.844,0,0,0-1.135.342,1.007,1.007,0,0,0-.458.827H28.44a1.745,1.745,0,0,1,.393-1.07A2.683,2.683,0,0,1,29.9,5.768a3.588,3.588,0,0,1,1.48-.3,2.924,2.924,0,0,1,2,.639,2.306,2.306,0,0,1,.752,1.76v3.4a4.162,4.162,0,0,0,.26,1.62V13Zm-2.1-.964a2.223,2.223,0,0,0,1.128-.308,1.861,1.861,0,0,0,.772-.8V9.411h-.991q-2.324,0-2.324,1.36a1.151,1.151,0,0,0,.4.93A1.524,1.524,0,0,0,30.97,12.036Z" transform="translate(1111 5010.586)" fill="#12263f"/>
    <path id="Trazado_278530" data-name="Trazado 278530" d="M30.3,8.563a6.172,6.172,0,0,1-2.458-1.193,2.279,2.279,0,0,1-.769-1.747,2.408,2.408,0,0,1,.94-1.945,3.736,3.736,0,0,1,2.444-.769,4.078,4.078,0,0,1,1.829.4A3.007,3.007,0,0,1,33.53,4.4a2.8,2.8,0,0,1,.441,1.524H32.651A1.82,1.82,0,0,0,32.077,4.5a2.335,2.335,0,0,0-1.62-.518,2.391,2.391,0,0,0-1.514.428A1.428,1.428,0,0,0,28.4,5.6a1.285,1.285,0,0,0,.516,1.031,5.062,5.062,0,0,0,1.757.77,8.151,8.151,0,0,1,1.941.77,2.946,2.946,0,0,1,1.039.981,2.5,2.5,0,0,1,.338,1.319,2.326,2.326,0,0,1-.943,1.938,4.022,4.022,0,0,1-2.522.728,4.678,4.678,0,0,1-1.914-.393,3.221,3.221,0,0,1-1.371-1.077,2.627,2.627,0,0,1-.482-1.552h1.319a1.714,1.714,0,0,0,.667,1.425,2.806,2.806,0,0,0,1.781.523,2.58,2.58,0,0,0,1.593-.424,1.377,1.377,0,0,0,.554-1.155,1.351,1.351,0,0,0-.513-1.131A5.911,5.911,0,0,0,30.3,8.563ZM36.849,13H35.584V5.6h1.265ZM35.481,3.642a.755.755,0,0,1,.188-.52.706.706,0,0,1,.557-.212.717.717,0,0,1,.561.212.747.747,0,0,1,.191.52.722.722,0,0,1-.191.513.73.73,0,0,1-.561.205.718.718,0,0,1-.557-.205A.73.73,0,0,1,35.481,3.642Zm7.7,7.4a.931.931,0,0,0-.386-.8,3.718,3.718,0,0,0-1.347-.489,6.367,6.367,0,0,1-1.524-.492,2.169,2.169,0,0,1-.834-.684,1.635,1.635,0,0,1-.27-.943A1.919,1.919,0,0,1,39.586,6.1a3,3,0,0,1,1.965-.629,3.091,3.091,0,0,1,2.041.649,2.063,2.063,0,0,1,.783,1.661H43.1a1.142,1.142,0,0,0-.441-.9,1.652,1.652,0,0,0-1.111-.376,1.729,1.729,0,0,0-1.08.3.947.947,0,0,0-.39.786.767.767,0,0,0,.362.69,4.458,4.458,0,0,0,1.309.444,6.821,6.821,0,0,1,1.535.506,2.239,2.239,0,0,1,.872.708,1.74,1.74,0,0,1,.284,1.008,1.893,1.893,0,0,1-.793,1.589,3.326,3.326,0,0,1-2.058.6,3.725,3.725,0,0,1-1.572-.314,2.557,2.557,0,0,1-1.07-.878,2.117,2.117,0,0,1-.386-1.22h1.265a1.309,1.309,0,0,0,.509,1.008,1.976,1.976,0,0,0,1.254.373,2.039,2.039,0,0,0,1.152-.291A.893.893,0,0,0,43.179,11.038Zm4.628-7.226V5.6h1.381v.978H47.807v4.593a1.027,1.027,0,0,0,.185.667.777.777,0,0,0,.629.222,3.062,3.062,0,0,0,.6-.082V13a3.688,3.688,0,0,1-.971.136,1.575,1.575,0,0,1-1.278-.513,2.2,2.2,0,0,1-.431-1.456V6.581H45.2V5.6h1.347V3.813Zm5.927,9.324a3.232,3.232,0,0,1-2.447-.988,3.666,3.666,0,0,1-.943-2.642V9.274a4.438,4.438,0,0,1,.42-1.965,3.28,3.28,0,0,1,1.176-1.354,2.956,2.956,0,0,1,1.637-.489,2.77,2.77,0,0,1,2.242.95,4.114,4.114,0,0,1,.8,2.721v.526H51.607a2.629,2.629,0,0,0,.639,1.767A2.009,2.009,0,0,0,53.8,12.1a2.2,2.2,0,0,0,1.135-.273,2.851,2.851,0,0,0,.813-.725l.772.6A3.106,3.106,0,0,1,53.733,13.137Zm-.157-6.631a1.687,1.687,0,0,0-1.285.557,2.708,2.708,0,0,0-.643,1.562h3.705v-.1a2.409,2.409,0,0,0-.52-1.494A1.588,1.588,0,0,0,53.576,6.506Zm5.694-.9.034.82A2.732,2.732,0,0,1,61.5,5.467a2.115,2.115,0,0,1,2.112,1.189,2.8,2.8,0,0,1,.96-.861,2.837,2.837,0,0,1,1.4-.328q2.434,0,2.475,2.577V13H67.18V8.119a1.7,1.7,0,0,0-.362-1.186A1.6,1.6,0,0,0,65.6,6.54a1.677,1.677,0,0,0-1.169.42,1.705,1.705,0,0,0-.54,1.131V13H62.62V8.153A1.411,1.411,0,0,0,61.041,6.54a1.692,1.692,0,0,0-1.7,1.06V13H58.074V5.6ZM74.918,13a2.657,2.657,0,0,1-.178-.779,2.822,2.822,0,0,1-2.105.916,2.611,2.611,0,0,1-1.794-.619,2,2,0,0,1-.7-1.569,2.091,2.091,0,0,1,.878-1.794,4.141,4.141,0,0,1,2.471-.639h1.23V7.935a1.42,1.42,0,0,0-.4-1.056,1.593,1.593,0,0,0-1.169-.393,1.844,1.844,0,0,0-1.135.342,1.007,1.007,0,0,0-.458.827H70.29a1.745,1.745,0,0,1,.393-1.07,2.683,2.683,0,0,1,1.066-.817,3.588,3.588,0,0,1,1.48-.3,2.924,2.924,0,0,1,2,.639,2.306,2.306,0,0,1,.752,1.76v3.4a4.162,4.162,0,0,0,.26,1.62V13Zm-2.1-.964a2.223,2.223,0,0,0,1.128-.308,1.861,1.861,0,0,0,.772-.8V9.411h-.991q-2.324,0-2.324,1.36a1.151,1.151,0,0,0,.4.93A1.524,1.524,0,0,0,72.819,12.036Zm8.306-2.8A4.333,4.333,0,0,1,81.932,6.5a2.745,2.745,0,0,1,4.17-.147V2.5h1.265V13H86.2l-.062-.793a2.575,2.575,0,0,1-2.112.93,2.526,2.526,0,0,1-2.1-1.053,4.382,4.382,0,0,1-.81-2.748Zm1.265.144a3.281,3.281,0,0,0,.52,1.969,1.68,1.68,0,0,0,1.436.711,1.845,1.845,0,0,0,1.757-1.08v-3.4A1.859,1.859,0,0,0,84.358,6.54a1.687,1.687,0,0,0-1.449.718A3.612,3.612,0,0,0,82.39,9.384ZM92.4,13.137a3.232,3.232,0,0,1-2.447-.988,3.666,3.666,0,0,1-.943-2.642V9.274a4.438,4.438,0,0,1,.42-1.965A3.28,3.28,0,0,1,90.6,5.956a2.956,2.956,0,0,1,1.637-.489,2.77,2.77,0,0,1,2.242.95,4.114,4.114,0,0,1,.8,2.721v.526H90.271a2.629,2.629,0,0,0,.639,1.767,2.009,2.009,0,0,0,1.555.673,2.2,2.2,0,0,0,1.135-.273,2.851,2.851,0,0,0,.813-.725l.772.6A3.106,3.106,0,0,1,92.4,13.137ZM92.24,6.506a1.687,1.687,0,0,0-1.285.557,2.708,2.708,0,0,0-.643,1.562h3.705v-.1a2.409,2.409,0,0,0-.52-1.494A1.588,1.588,0,0,0,92.24,6.506ZM23.252,28.137a3.232,3.232,0,0,1-2.447-.988,3.666,3.666,0,0,1-.943-2.642v-.232a4.438,4.438,0,0,1,.42-1.965,3.28,3.28,0,0,1,1.176-1.354,2.956,2.956,0,0,1,1.637-.489,2.77,2.77,0,0,1,2.242.95,4.114,4.114,0,0,1,.8,2.721v.526H21.126a2.629,2.629,0,0,0,.639,1.767,2.009,2.009,0,0,0,1.555.673,2.2,2.2,0,0,0,1.135-.273,2.851,2.851,0,0,0,.813-.725l.772.6A3.106,3.106,0,0,1,23.252,28.137Zm-.157-6.631a1.687,1.687,0,0,0-1.285.557,2.708,2.708,0,0,0-.643,1.562h3.705v-.1a2.409,2.409,0,0,0-.52-1.494A1.588,1.588,0,0,0,23.095,21.506Zm6.986,1.8,1.641-2.7H33.2l-2.42,3.657L33.273,28H31.811L30.1,25.231,28.393,28h-1.47l2.5-3.739L27,20.6h1.463Zm6.173-4.491V20.6h1.381v.978H36.254v4.593a1.027,1.027,0,0,0,.185.667.777.777,0,0,0,.629.222,3.062,3.062,0,0,0,.6-.082V28a3.688,3.688,0,0,1-.971.136,1.575,1.575,0,0,1-1.278-.513,2.2,2.2,0,0,1-.431-1.456V21.581H33.643V20.6h1.347V18.813Zm6.433,2.926a3.79,3.79,0,0,0-.622-.048,1.667,1.667,0,0,0-1.688,1.06V28H39.111V20.6h1.23l.021.854a1.969,1.969,0,0,1,1.764-.991,1.292,1.292,0,0,1,.561.1ZM48.142,28a2.657,2.657,0,0,1-.178-.779,2.822,2.822,0,0,1-2.105.916,2.611,2.611,0,0,1-1.794-.619,2,2,0,0,1-.7-1.569,2.091,2.091,0,0,1,.878-1.794,4.142,4.142,0,0,1,2.471-.639h1.23v-.581a1.42,1.42,0,0,0-.4-1.056,1.593,1.593,0,0,0-1.169-.393,1.844,1.844,0,0,0-1.135.342,1.007,1.007,0,0,0-.458.827H43.514a1.745,1.745,0,0,1,.393-1.07,2.683,2.683,0,0,1,1.066-.817,3.588,3.588,0,0,1,1.48-.3,2.924,2.924,0,0,1,2,.639,2.306,2.306,0,0,1,.752,1.76v3.4a4.162,4.162,0,0,0,.26,1.62V28Zm-2.1-.964a2.223,2.223,0,0,0,1.128-.308,1.861,1.861,0,0,0,.772-.8V24.411h-.991q-2.324,0-2.324,1.36a1.151,1.151,0,0,0,.4.93A1.524,1.524,0,0,0,46.043,27.036Zm8.114.068a1.822,1.822,0,0,0,1.183-.41,1.443,1.443,0,0,0,.561-1.025h1.2a2.293,2.293,0,0,1-.437,1.21,2.881,2.881,0,0,1-1.077.916,3.107,3.107,0,0,1-1.425.342,3.047,3.047,0,0,1-2.4-1.008,4.016,4.016,0,0,1-.892-2.758v-.212a4.453,4.453,0,0,1,.4-1.921A3.02,3.02,0,0,1,52.4,20.932a3.233,3.233,0,0,1,1.753-.465,2.966,2.966,0,0,1,2.068.745,2.663,2.663,0,0,1,.878,1.935H55.9a1.743,1.743,0,0,0-.543-1.179,1.691,1.691,0,0,0-1.207-.461,1.77,1.77,0,0,0-1.494.694,3.259,3.259,0,0,0-.53,2.006v.239a3.194,3.194,0,0,0,.526,1.969A1.779,1.779,0,0,0,54.157,27.1Zm7.328,0a1.822,1.822,0,0,0,1.183-.41,1.443,1.443,0,0,0,.561-1.025h1.2a2.293,2.293,0,0,1-.437,1.21,2.881,2.881,0,0,1-1.077.916,3.107,3.107,0,0,1-1.425.342,3.047,3.047,0,0,1-2.4-1.008,4.016,4.016,0,0,1-.892-2.758v-.212a4.453,4.453,0,0,1,.4-1.921,3.02,3.02,0,0,1,1.138-1.306,3.233,3.233,0,0,1,1.753-.465,2.966,2.966,0,0,1,2.068.745,2.663,2.663,0,0,1,.878,1.935h-1.2a1.743,1.743,0,0,0-.543-1.179,1.691,1.691,0,0,0-1.207-.461,1.77,1.77,0,0,0-1.494.694,3.259,3.259,0,0,0-.53,2.006v.239a3.194,3.194,0,0,0,.526,1.969A1.779,1.779,0,0,0,61.485,27.1Zm5.735.9H65.956V20.6h1.265Zm-1.367-9.358a.755.755,0,0,1,.188-.52.706.706,0,0,1,.557-.212.717.717,0,0,1,.561.212.747.747,0,0,1,.191.52.722.722,0,0,1-.191.513.73.73,0,0,1-.561.205.718.718,0,0,1-.557-.205A.73.73,0,0,1,65.854,18.642Zm3.056,5.592a4.369,4.369,0,0,1,.427-1.955,3.187,3.187,0,0,1,1.189-1.34,3.238,3.238,0,0,1,1.74-.472,3.119,3.119,0,0,1,2.444,1.046,4.024,4.024,0,0,1,.933,2.782v.089a4.407,4.407,0,0,1-.414,1.938,3.14,3.14,0,0,1-1.183,1.336,3.275,3.275,0,0,1-1.767.479,3.111,3.111,0,0,1-2.437-1.046,4,4,0,0,1-.933-2.769Zm1.271.15a3.164,3.164,0,0,0,.571,1.976,1.934,1.934,0,0,0,3.059-.01,3.46,3.46,0,0,0,.567-2.116,3.159,3.159,0,0,0-.578-1.972,1.836,1.836,0,0,0-1.535-.755,1.816,1.816,0,0,0-1.511.745A3.434,3.434,0,0,0,70.181,24.384Zm2.659-6.87h1.531l-1.832,2.01-1.019,0Zm5.585,3.09.041.93a2.7,2.7,0,0,1,2.215-1.066q2.345,0,2.365,2.646V28H81.781V23.105a1.7,1.7,0,0,0-.366-1.183A1.466,1.466,0,0,0,80.3,21.54a1.825,1.825,0,0,0-1.08.328,2.228,2.228,0,0,0-.725.861V28H77.229V20.6Zm9.687,3.637a4.333,4.333,0,0,1,.807-2.738,2.745,2.745,0,0,1,4.17-.147V17.5h1.265V28H93.19l-.062-.793a2.575,2.575,0,0,1-2.112.93,2.526,2.526,0,0,1-2.1-1.053,4.382,4.382,0,0,1-.81-2.748Zm1.265.144a3.281,3.281,0,0,0,.52,1.969,1.68,1.68,0,0,0,1.436.711,1.845,1.845,0,0,0,1.757-1.08v-3.4a1.859,1.859,0,0,0-1.743-1.046,1.687,1.687,0,0,0-1.449.718A3.612,3.612,0,0,0,89.376,24.384Zm10.008,3.753a3.232,3.232,0,0,1-2.447-.988,3.666,3.666,0,0,1-.943-2.642v-.232a4.438,4.438,0,0,1,.42-1.965,3.28,3.28,0,0,1,1.176-1.354,2.956,2.956,0,0,1,1.637-.489,2.77,2.77,0,0,1,2.242.95,4.114,4.114,0,0,1,.8,2.721v.526H97.258a2.629,2.629,0,0,0,.639,1.767,2.009,2.009,0,0,0,1.555.673,2.2,2.2,0,0,0,1.135-.273,2.851,2.851,0,0,0,.813-.725l.772.6A3.106,3.106,0,0,1,99.384,28.137Zm-.157-6.631a1.687,1.687,0,0,0-1.285.557,2.708,2.708,0,0,0-.643,1.562H101v-.1a2.409,2.409,0,0,0-.52-1.494A1.588,1.588,0,0,0,99.227,21.506ZM39.709,41.284,41.542,35.6h1.292L40.181,43h-.964l-2.68-7.4H37.83ZM48.514,43a2.657,2.657,0,0,1-.178-.779,2.822,2.822,0,0,1-2.105.916,2.611,2.611,0,0,1-1.794-.619,2,2,0,0,1-.7-1.569,2.091,2.091,0,0,1,.878-1.794,4.142,4.142,0,0,1,2.471-.639h1.23v-.581a1.42,1.42,0,0,0-.4-1.056,1.593,1.593,0,0,0-1.169-.393,1.844,1.844,0,0,0-1.135.342,1.007,1.007,0,0,0-.458.827H43.886a1.745,1.745,0,0,1,.393-1.07,2.683,2.683,0,0,1,1.066-.817,3.588,3.588,0,0,1,1.48-.3,2.924,2.924,0,0,1,2,.639,2.306,2.306,0,0,1,.752,1.76v3.4a4.162,4.162,0,0,0,.26,1.62V43Zm-2.1-.964a2.223,2.223,0,0,0,1.128-.308,1.861,1.861,0,0,0,.772-.8V39.411h-.991Q45,39.411,45,40.771a1.151,1.151,0,0,0,.4.93A1.524,1.524,0,0,0,46.416,42.036Zm11.4-2.652a4.429,4.429,0,0,1-.772,2.721,2.476,2.476,0,0,1-2.092,1.032,2.713,2.713,0,0,1-2.119-.854v3.562H51.563V35.6h1.155l.062.82a2.605,2.605,0,0,1,2.146-.957,2.522,2.522,0,0,1,2.109,1,4.477,4.477,0,0,1,.776,2.8Zm-1.265-.144a3.268,3.268,0,0,0-.533-1.976,1.718,1.718,0,0,0-1.463-.725,1.859,1.859,0,0,0-1.723,1.019v3.534A1.863,1.863,0,0,0,54.564,42.1a1.71,1.71,0,0,0,1.446-.721A3.567,3.567,0,0,0,56.546,39.24Zm2.536-.007a4.369,4.369,0,0,1,.427-1.955,3.187,3.187,0,0,1,1.189-1.34,3.238,3.238,0,0,1,1.74-.472,3.119,3.119,0,0,1,2.444,1.046,4.024,4.024,0,0,1,.933,2.782v.089a4.407,4.407,0,0,1-.414,1.938,3.14,3.14,0,0,1-1.183,1.336,3.275,3.275,0,0,1-1.767.479,3.111,3.111,0,0,1-2.437-1.046,4,4,0,0,1-.933-2.769Zm1.271.15a3.164,3.164,0,0,0,.571,1.976,1.934,1.934,0,0,0,3.059-.01,3.46,3.46,0,0,0,.567-2.116,3.159,3.159,0,0,0-.578-1.972,1.836,1.836,0,0,0-1.535-.755,1.816,1.816,0,0,0-1.511.745A3.435,3.435,0,0,0,60.354,39.384Zm10.623-2.646a3.79,3.79,0,0,0-.622-.048,1.667,1.667,0,0,0-1.688,1.06V43H67.4V35.6h1.23l.021.854a1.969,1.969,0,0,1,1.764-.991,1.292,1.292,0,0,1,.561.1Zm4.1,6.4a3.232,3.232,0,0,1-2.447-.988,3.666,3.666,0,0,1-.943-2.642v-.232a4.438,4.438,0,0,1,.42-1.965,3.28,3.28,0,0,1,1.176-1.354,2.956,2.956,0,0,1,1.637-.489,2.77,2.77,0,0,1,2.242.95,4.114,4.114,0,0,1,.8,2.721v.526H72.953a2.629,2.629,0,0,0,.639,1.767,2.009,2.009,0,0,0,1.555.673,2.2,2.2,0,0,0,1.135-.273,2.851,2.851,0,0,0,.813-.725l.772.6A3.106,3.106,0,0,1,75.079,43.137Zm-.157-6.631a1.687,1.687,0,0,0-1.285.557,2.708,2.708,0,0,0-.643,1.562H76.7v-.1a2.409,2.409,0,0,0-.52-1.494A1.588,1.588,0,0,0,74.921,36.506Zm8.812,4.532a.931.931,0,0,0-.386-.8A3.718,3.718,0,0,0,82,39.753a6.367,6.367,0,0,1-1.524-.492,2.169,2.169,0,0,1-.834-.684,1.635,1.635,0,0,1-.27-.943,1.919,1.919,0,0,1,.769-1.538,3,3,0,0,1,1.965-.629,3.091,3.091,0,0,1,2.041.649,2.063,2.063,0,0,1,.783,1.661H83.658a1.142,1.142,0,0,0-.441-.9,1.652,1.652,0,0,0-1.111-.376,1.729,1.729,0,0,0-1.08.3.947.947,0,0,0-.39.786.767.767,0,0,0,.362.69,4.458,4.458,0,0,0,1.309.444,6.821,6.821,0,0,1,1.535.506,2.239,2.239,0,0,1,.872.708A1.74,1.74,0,0,1,85,40.949a1.893,1.893,0,0,1-.793,1.589,3.326,3.326,0,0,1-2.058.6,3.725,3.725,0,0,1-1.572-.314,2.557,2.557,0,0,1-1.07-.878,2.117,2.117,0,0,1-.386-1.22h1.265a1.309,1.309,0,0,0,.509,1.008,1.976,1.976,0,0,0,1.254.373,2.039,2.039,0,0,0,1.152-.291A.893.893,0,0,0,83.733,41.038Z" transform="translate(648 4907.586)" fill="#12263f"/>
    <path id="Trazado_278531" data-name="Trazado 278531" d="M12.078,9.1V13H10.766V3.047h3.671A3.688,3.688,0,0,1,17,3.881a2.827,2.827,0,0,1,.926,2.208,2.79,2.79,0,0,1-.906,2.232,3.853,3.853,0,0,1-2.594.783Zm0-1.073h2.358a2.358,2.358,0,0,0,1.613-.5A1.815,1.815,0,0,0,16.61,6.1a1.876,1.876,0,0,0-.561-1.424,2.209,2.209,0,0,0-1.538-.555H12.078Zm10.9-1.292a3.79,3.79,0,0,0-.622-.048,1.667,1.667,0,0,0-1.688,1.06V13H19.4V5.6h1.23l.021.854a1.969,1.969,0,0,1,1.764-.991,1.292,1.292,0,0,1,.561.1Zm.69,2.5a4.369,4.369,0,0,1,.427-1.955,3.187,3.187,0,0,1,1.189-1.34,3.238,3.238,0,0,1,1.74-.472,3.119,3.119,0,0,1,2.444,1.046A4.024,4.024,0,0,1,30.4,9.295v.089a4.407,4.407,0,0,1-.414,1.938A3.14,3.14,0,0,1,28.8,12.658a3.275,3.275,0,0,1-1.767.479A3.111,3.111,0,0,1,24.6,12.091a4,4,0,0,1-.933-2.769Zm1.271.15a3.164,3.164,0,0,0,.571,1.976,1.934,1.934,0,0,0,3.059-.01,3.46,3.46,0,0,0,.567-2.116,3.159,3.159,0,0,0-.578-1.972,1.836,1.836,0,0,0-1.535-.755,1.816,1.816,0,0,0-1.511.745A3.435,3.435,0,0,0,24.937,9.384Zm6.74-.144A4.333,4.333,0,0,1,32.483,6.5a2.745,2.745,0,0,1,4.17-.147V2.5h1.265V13H36.756l-.062-.793a2.575,2.575,0,0,1-2.112.93,2.526,2.526,0,0,1-2.1-1.053,4.382,4.382,0,0,1-.81-2.748Zm1.265.144a3.281,3.281,0,0,0,.52,1.969,1.68,1.68,0,0,0,1.436.711,1.845,1.845,0,0,0,1.757-1.08v-3.4A1.859,1.859,0,0,0,34.91,6.54a1.687,1.687,0,0,0-1.449.718A3.612,3.612,0,0,0,32.941,9.384Zm11.5,2.885a2.686,2.686,0,0,1-2.167.868,2.3,2.3,0,0,1-1.8-.687,2.974,2.974,0,0,1-.625-2.034V5.6h1.265v4.778q0,1.682,1.367,1.682a1.893,1.893,0,0,0,1.928-1.08V5.6h1.265V13h-1.2Zm6.118-.164a1.822,1.822,0,0,0,1.183-.41,1.443,1.443,0,0,0,.561-1.025h1.2a2.293,2.293,0,0,1-.437,1.21,2.881,2.881,0,0,1-1.077.916,3.107,3.107,0,0,1-1.425.342,3.047,3.047,0,0,1-2.4-1.008A4.016,4.016,0,0,1,47.27,9.37V9.158a4.453,4.453,0,0,1,.4-1.921A3.02,3.02,0,0,1,48.8,5.932a3.233,3.233,0,0,1,1.753-.465,2.966,2.966,0,0,1,2.068.745A2.663,2.663,0,0,1,53.5,8.146h-1.2a1.743,1.743,0,0,0-.543-1.179,1.691,1.691,0,0,0-1.207-.461,1.77,1.77,0,0,0-1.494.694,3.259,3.259,0,0,0-.53,2.006v.239a3.194,3.194,0,0,0,.526,1.969A1.779,1.779,0,0,0,50.564,12.1Zm6.077-8.292V5.6h1.381v.978H56.642v4.593a1.027,1.027,0,0,0,.185.667.777.777,0,0,0,.629.222,3.062,3.062,0,0,0,.6-.082V13a3.688,3.688,0,0,1-.971.136,1.575,1.575,0,0,1-1.278-.513,2.2,2.2,0,0,1-.431-1.456V6.581H54.03V5.6h1.347V3.813Zm2.386,5.421a4.369,4.369,0,0,1,.427-1.955,3.187,3.187,0,0,1,1.189-1.34,3.238,3.238,0,0,1,1.74-.472,3.119,3.119,0,0,1,2.444,1.046,4.024,4.024,0,0,1,.933,2.782v.089a4.407,4.407,0,0,1-.414,1.938,3.14,3.14,0,0,1-1.183,1.336,3.275,3.275,0,0,1-1.767.479,3.111,3.111,0,0,1-2.437-1.046,4,4,0,0,1-.933-2.769Zm1.271.15a3.164,3.164,0,0,0,.571,1.976,1.934,1.934,0,0,0,3.059-.01A3.46,3.46,0,0,0,64.5,9.233a3.159,3.159,0,0,0-.578-1.972,1.836,1.836,0,0,0-1.535-.755,1.816,1.816,0,0,0-1.511.745A3.435,3.435,0,0,0,60.3,9.384ZM26.994,28H25.729V17.5h1.265Zm3.4,0H29.127V20.6h1.265Zm-1.367-9.358a.755.755,0,0,1,.188-.52.706.706,0,0,1,.557-.212.717.717,0,0,1,.561.212.747.747,0,0,1,.191.52.722.722,0,0,1-.191.513.73.73,0,0,1-.561.205.718.718,0,0,1-.557-.205A.73.73,0,0,1,29.024,18.642Zm9.652,5.742a4.4,4.4,0,0,1-.779,2.724,2.49,2.49,0,0,1-2.092,1.029,2.578,2.578,0,0,1-2.167-.991L33.577,28H32.415V17.5H33.68v3.917a2.564,2.564,0,0,1,2.112-.95,2.505,2.505,0,0,1,2.116,1.019,4.53,4.53,0,0,1,.769,2.789Zm-1.265-.144a3.417,3.417,0,0,0-.5-2,1.652,1.652,0,0,0-1.436-.7,1.857,1.857,0,0,0-1.8,1.162v3.2a1.909,1.909,0,0,0,1.812,1.162,1.643,1.643,0,0,0,1.415-.7A3.634,3.634,0,0,0,37.412,24.24Zm6.433-2.5a3.79,3.79,0,0,0-.622-.048,1.667,1.667,0,0,0-1.688,1.06V28H40.27V20.6H41.5l.021.854a1.969,1.969,0,0,1,1.764-.991,1.292,1.292,0,0,1,.561.1Zm4.1,6.4a3.232,3.232,0,0,1-2.447-.988,3.666,3.666,0,0,1-.943-2.642v-.232a4.438,4.438,0,0,1,.42-1.965,3.279,3.279,0,0,1,1.176-1.354,2.956,2.956,0,0,1,1.637-.489,2.77,2.77,0,0,1,2.242.95,4.114,4.114,0,0,1,.8,2.721v.526H45.82a2.629,2.629,0,0,0,.639,1.767,2.009,2.009,0,0,0,1.555.673,2.2,2.2,0,0,0,1.135-.273,2.851,2.851,0,0,0,.813-.725l.772.6A3.106,3.106,0,0,1,47.946,28.137Zm-.157-6.631a1.687,1.687,0,0,0-1.285.557,2.708,2.708,0,0,0-.643,1.562h3.705v-.1a2.409,2.409,0,0,0-.52-1.494A1.588,1.588,0,0,0,47.789,21.506Z" transform="translate(790 4956.371)" fill="#12263f"/>
    <path id="Trazado_278532" data-name="Trazado 278532" d="M10.144,8.563A6.172,6.172,0,0,1,7.686,7.371a2.279,2.279,0,0,1-.769-1.747,2.408,2.408,0,0,1,.94-1.945A3.736,3.736,0,0,1,10.3,2.91a4.078,4.078,0,0,1,1.829.4A3.007,3.007,0,0,1,13.374,4.4a2.8,2.8,0,0,1,.441,1.524H12.5A1.82,1.82,0,0,0,11.921,4.5a2.335,2.335,0,0,0-1.62-.518,2.391,2.391,0,0,0-1.514.428A1.428,1.428,0,0,0,8.243,5.6,1.285,1.285,0,0,0,8.759,6.63a5.062,5.062,0,0,0,1.757.77,8.152,8.152,0,0,1,1.941.77,2.946,2.946,0,0,1,1.039.981,2.5,2.5,0,0,1,.338,1.319,2.326,2.326,0,0,1-.943,1.938,4.022,4.022,0,0,1-2.522.728,4.678,4.678,0,0,1-1.914-.393,3.221,3.221,0,0,1-1.371-1.077A2.627,2.627,0,0,1,6.6,10.115H7.922a1.714,1.714,0,0,0,.667,1.425,2.806,2.806,0,0,0,1.781.523,2.58,2.58,0,0,0,1.593-.424,1.377,1.377,0,0,0,.554-1.155A1.351,1.351,0,0,0,12,9.353,5.911,5.911,0,0,0,10.144,8.563Zm8.244,4.573a3.232,3.232,0,0,1-2.447-.988A3.666,3.666,0,0,1,15,9.507V9.274a4.438,4.438,0,0,1,.42-1.965,3.28,3.28,0,0,1,1.176-1.354,2.956,2.956,0,0,1,1.637-.489,2.77,2.77,0,0,1,2.242.95,4.114,4.114,0,0,1,.8,2.721v.526H16.262a2.629,2.629,0,0,0,.639,1.767,2.009,2.009,0,0,0,1.555.673,2.2,2.2,0,0,0,1.135-.273,2.851,2.851,0,0,0,.813-.725l.772.6A3.106,3.106,0,0,1,18.388,13.137ZM18.23,6.506a1.687,1.687,0,0,0-1.285.557A2.708,2.708,0,0,0,16.3,8.625h3.705v-.1a2.409,2.409,0,0,0-.52-1.494A1.588,1.588,0,0,0,18.23,6.506ZM28.983,9.384a4.429,4.429,0,0,1-.772,2.721,2.476,2.476,0,0,1-2.092,1.032A2.713,2.713,0,0,1,24,12.282v3.562H22.735V5.6h1.155l.062.82A2.605,2.605,0,0,1,26.1,5.467a2.522,2.522,0,0,1,2.109,1,4.477,4.477,0,0,1,.776,2.8ZM27.719,9.24a3.268,3.268,0,0,0-.533-1.976,1.718,1.718,0,0,0-1.463-.725A1.859,1.859,0,0,0,24,7.559v3.534A1.863,1.863,0,0,0,25.736,12.1a1.71,1.71,0,0,0,1.446-.721A3.567,3.567,0,0,0,27.719,9.24ZM35.156,13a2.657,2.657,0,0,1-.178-.779,2.822,2.822,0,0,1-2.105.916,2.611,2.611,0,0,1-1.794-.619,2,2,0,0,1-.7-1.569,2.091,2.091,0,0,1,.878-1.794,4.142,4.142,0,0,1,2.471-.639h1.23V7.935a1.42,1.42,0,0,0-.4-1.056,1.593,1.593,0,0,0-1.169-.393,1.844,1.844,0,0,0-1.135.342,1.007,1.007,0,0,0-.458.827H30.528a1.745,1.745,0,0,1,.393-1.07,2.683,2.683,0,0,1,1.066-.817,3.588,3.588,0,0,1,1.48-.3,2.924,2.924,0,0,1,2,.639,2.306,2.306,0,0,1,.752,1.76v3.4a4.162,4.162,0,0,0,.26,1.62V13Zm-2.1-.964a2.223,2.223,0,0,0,1.128-.308,1.861,1.861,0,0,0,.772-.8V9.411h-.991q-2.324,0-2.324,1.36a1.151,1.151,0,0,0,.4.93A1.524,1.524,0,0,0,33.058,12.036Zm8.723-5.3a3.79,3.79,0,0,0-.622-.048A1.667,1.667,0,0,0,39.47,7.75V13H38.205V5.6h1.23l.021.854a1.969,1.969,0,0,1,1.764-.991,1.292,1.292,0,0,1,.561.1ZM47.235,13a2.657,2.657,0,0,1-.178-.779,2.822,2.822,0,0,1-2.105.916,2.611,2.611,0,0,1-1.794-.619,2,2,0,0,1-.7-1.569,2.091,2.091,0,0,1,.878-1.794,4.142,4.142,0,0,1,2.471-.639h1.23V7.935a1.42,1.42,0,0,0-.4-1.056,1.593,1.593,0,0,0-1.169-.393,1.844,1.844,0,0,0-1.135.342,1.007,1.007,0,0,0-.458.827H42.607A1.745,1.745,0,0,1,43,6.584a2.683,2.683,0,0,1,1.066-.817,3.588,3.588,0,0,1,1.48-.3,2.924,2.924,0,0,1,2,.639,2.306,2.306,0,0,1,.752,1.76v3.4a4.162,4.162,0,0,0,.26,1.62V13Zm-2.1-.964a2.223,2.223,0,0,0,1.128-.308,1.861,1.861,0,0,0,.772-.8V9.411h-.991q-2.324,0-2.324,1.36a1.151,1.151,0,0,0,.4.93A1.524,1.524,0,0,0,45.137,12.036Zm4.84-2.8A4.333,4.333,0,0,1,50.783,6.5a2.745,2.745,0,0,1,4.17-.147V2.5h1.265V13H55.056l-.062-.793a2.575,2.575,0,0,1-2.112.93,2.526,2.526,0,0,1-2.1-1.053,4.382,4.382,0,0,1-.81-2.748Zm1.265.144a3.281,3.281,0,0,0,.52,1.969,1.68,1.68,0,0,0,1.436.711,1.845,1.845,0,0,0,1.757-1.08v-3.4A1.859,1.859,0,0,0,53.21,6.54a1.687,1.687,0,0,0-1.449.718A3.612,3.612,0,0,0,51.241,9.384Zm6.6-.15a4.369,4.369,0,0,1,.427-1.955,3.187,3.187,0,0,1,1.189-1.34,3.238,3.238,0,0,1,1.74-.472,3.119,3.119,0,0,1,2.444,1.046,4.024,4.024,0,0,1,.933,2.782v.089a4.407,4.407,0,0,1-.414,1.938,3.14,3.14,0,0,1-1.183,1.336,3.275,3.275,0,0,1-1.767.479,3.111,3.111,0,0,1-2.437-1.046,4,4,0,0,1-.933-2.769Zm1.271.15a3.164,3.164,0,0,0,.571,1.976,1.934,1.934,0,0,0,3.059-.01,3.46,3.46,0,0,0,.567-2.116,3.159,3.159,0,0,0-.578-1.972A1.836,1.836,0,0,0,61.2,6.506a1.816,1.816,0,0,0-1.511.745A3.435,3.435,0,0,0,59.116,9.384ZM69.739,6.738a3.79,3.79,0,0,0-.622-.048,1.667,1.667,0,0,0-1.688,1.06V13H66.164V5.6h1.23l.021.854a1.969,1.969,0,0,1,1.764-.991,1.292,1.292,0,0,1,.561.1ZM12.1,24.24A4.333,4.333,0,0,1,12.9,21.5a2.551,2.551,0,0,1,2.112-1.036,2.565,2.565,0,0,1,2.058.889V17.5h1.265V28H17.174l-.062-.793a2.575,2.575,0,0,1-2.112.93,2.526,2.526,0,0,1-2.1-1.053,4.382,4.382,0,0,1-.81-2.748Zm1.265.144a3.281,3.281,0,0,0,.52,1.969,1.68,1.68,0,0,0,1.436.711,1.845,1.845,0,0,0,1.757-1.08v-3.4a1.859,1.859,0,0,0-1.743-1.046,1.687,1.687,0,0,0-1.449.718A3.612,3.612,0,0,0,13.36,24.384Zm10.008,3.753a3.232,3.232,0,0,1-2.447-.988,3.666,3.666,0,0,1-.943-2.642v-.232a4.438,4.438,0,0,1,.42-1.965,3.28,3.28,0,0,1,1.176-1.354,2.956,2.956,0,0,1,1.637-.489,2.77,2.77,0,0,1,2.242.95,4.114,4.114,0,0,1,.8,2.721v.526H21.242a2.629,2.629,0,0,0,.639,1.767,2.009,2.009,0,0,0,1.555.673,2.2,2.2,0,0,0,1.135-.273,2.851,2.851,0,0,0,.813-.725l.772.6A3.106,3.106,0,0,1,23.368,28.137Zm-.157-6.631a1.687,1.687,0,0,0-1.285.557,2.708,2.708,0,0,0-.643,1.562h3.705v-.1a2.409,2.409,0,0,0-.52-1.494A1.588,1.588,0,0,0,23.21,21.506ZM31.8,28V21.581H30.634V20.6H31.8v-.759a2.519,2.519,0,0,1,.636-1.839,2.4,2.4,0,0,1,1.8-.649,3.339,3.339,0,0,1,.868.115l-.068,1.019a3.632,3.632,0,0,0-.684-.062,1.234,1.234,0,0,0-.95.36,1.46,1.46,0,0,0-.335,1.032V20.6h1.579v.978H33.068V28Zm8.8,0a2.657,2.657,0,0,1-.178-.779,2.822,2.822,0,0,1-2.105.916,2.611,2.611,0,0,1-1.794-.619,2,2,0,0,1-.7-1.569,2.091,2.091,0,0,1,.878-1.794,4.142,4.142,0,0,1,2.471-.639h1.23v-.581a1.42,1.42,0,0,0-.4-1.056,1.593,1.593,0,0,0-1.169-.393,1.844,1.844,0,0,0-1.135.342,1.007,1.007,0,0,0-.458.827H35.98a1.745,1.745,0,0,1,.393-1.07,2.683,2.683,0,0,1,1.066-.817,3.588,3.588,0,0,1,1.48-.3,2.924,2.924,0,0,1,2,.639,2.306,2.306,0,0,1,.752,1.76v3.4a4.162,4.162,0,0,0,.26,1.62V28Zm-2.1-.964a2.223,2.223,0,0,0,1.128-.308,1.861,1.861,0,0,0,.772-.8V24.411h-.991q-2.324,0-2.324,1.36a1.151,1.151,0,0,0,.4.93A1.524,1.524,0,0,0,38.509,27.036Zm9.454-1a.931.931,0,0,0-.386-.8,3.718,3.718,0,0,0-1.347-.489,6.367,6.367,0,0,1-1.524-.492,2.169,2.169,0,0,1-.834-.684,1.635,1.635,0,0,1-.27-.943,1.919,1.919,0,0,1,.769-1.538,3,3,0,0,1,1.965-.629,3.091,3.091,0,0,1,2.041.649,2.063,2.063,0,0,1,.783,1.661H47.888a1.142,1.142,0,0,0-.441-.9,1.652,1.652,0,0,0-1.111-.376,1.729,1.729,0,0,0-1.08.3.947.947,0,0,0-.39.786.767.767,0,0,0,.362.69,4.458,4.458,0,0,0,1.309.444,6.821,6.821,0,0,1,1.535.506,2.239,2.239,0,0,1,.872.708,1.74,1.74,0,0,1,.284,1.008,1.893,1.893,0,0,1-.793,1.589,3.326,3.326,0,0,1-2.058.6,3.725,3.725,0,0,1-1.572-.314,2.557,2.557,0,0,1-1.07-.878,2.117,2.117,0,0,1-.386-1.22h1.265a1.309,1.309,0,0,0,.509,1.008,1.976,1.976,0,0,0,1.254.373,2.039,2.039,0,0,0,1.152-.291A.893.893,0,0,0,47.963,26.038Zm5.981,2.1a3.232,3.232,0,0,1-2.447-.988,3.666,3.666,0,0,1-.943-2.642v-.232a4.438,4.438,0,0,1,.42-1.965,3.279,3.279,0,0,1,1.176-1.354,2.956,2.956,0,0,1,1.637-.489,2.77,2.77,0,0,1,2.242.95,4.114,4.114,0,0,1,.8,2.721v.526H51.819a2.629,2.629,0,0,0,.639,1.767,2.009,2.009,0,0,0,1.555.673,2.2,2.2,0,0,0,1.135-.273,2.851,2.851,0,0,0,.813-.725l.772.6A3.106,3.106,0,0,1,53.945,28.137Zm-.157-6.631a1.687,1.687,0,0,0-1.285.557,2.708,2.708,0,0,0-.643,1.562h3.705v-.1a2.409,2.409,0,0,0-.52-1.494A1.588,1.588,0,0,0,53.788,21.506ZM62.6,26.038a.931.931,0,0,0-.386-.8,3.718,3.718,0,0,0-1.347-.489,6.367,6.367,0,0,1-1.524-.492,2.169,2.169,0,0,1-.834-.684,1.635,1.635,0,0,1-.27-.943,1.919,1.919,0,0,1,.769-1.538,3,3,0,0,1,1.965-.629,3.091,3.091,0,0,1,2.041.649,2.063,2.063,0,0,1,.783,1.661H62.524a1.142,1.142,0,0,0-.441-.9,1.652,1.652,0,0,0-1.111-.376,1.729,1.729,0,0,0-1.08.3.947.947,0,0,0-.39.786.767.767,0,0,0,.362.69,4.458,4.458,0,0,0,1.309.444,6.821,6.821,0,0,1,1.535.506,2.239,2.239,0,0,1,.872.708,1.74,1.74,0,0,1,.284,1.008,1.893,1.893,0,0,1-.793,1.589,3.326,3.326,0,0,1-2.058.6,3.725,3.725,0,0,1-1.572-.314,2.557,2.557,0,0,1-1.07-.878,2.117,2.117,0,0,1-.386-1.22H59.25a1.309,1.309,0,0,0,.509,1.008,1.976,1.976,0,0,0,1.254.373,2.039,2.039,0,0,0,1.152-.291A.893.893,0,0,0,62.6,26.038Z" transform="translate(876 4915.086)" fill="#12263f"/>
    <path id="Trazado_278533" data-name="Trazado 278533" d="M7.3,8.563A6.172,6.172,0,0,1,4.842,7.371a2.279,2.279,0,0,1-.769-1.747,2.408,2.408,0,0,1,.94-1.945A3.736,3.736,0,0,1,7.457,2.91a4.078,4.078,0,0,1,1.829.4A3.007,3.007,0,0,1,10.53,4.4a2.8,2.8,0,0,1,.441,1.524H9.651A1.82,1.82,0,0,0,9.077,4.5a2.335,2.335,0,0,0-1.62-.518,2.391,2.391,0,0,0-1.514.428A1.428,1.428,0,0,0,5.4,5.6,1.285,1.285,0,0,0,5.916,6.63a5.062,5.062,0,0,0,1.757.77,8.152,8.152,0,0,1,1.941.77,2.946,2.946,0,0,1,1.039.981,2.5,2.5,0,0,1,.338,1.319,2.326,2.326,0,0,1-.943,1.938,4.022,4.022,0,0,1-2.522.728,4.678,4.678,0,0,1-1.914-.393,3.221,3.221,0,0,1-1.371-1.077,2.627,2.627,0,0,1-.482-1.552H5.078a1.714,1.714,0,0,0,.667,1.425,2.806,2.806,0,0,0,1.781.523,2.58,2.58,0,0,0,1.593-.424,1.377,1.377,0,0,0,.554-1.155,1.351,1.351,0,0,0-.513-1.131A5.911,5.911,0,0,0,7.3,8.563ZM13.849,13H12.584V5.6h1.265ZM12.481,3.642a.755.755,0,0,1,.188-.52.706.706,0,0,1,.557-.212.717.717,0,0,1,.561.212.747.747,0,0,1,.191.52.722.722,0,0,1-.191.513.73.73,0,0,1-.561.205.718.718,0,0,1-.557-.205A.73.73,0,0,1,12.481,3.642Zm7.7,7.4a.931.931,0,0,0-.386-.8,3.718,3.718,0,0,0-1.347-.489,6.367,6.367,0,0,1-1.524-.492,2.169,2.169,0,0,1-.834-.684,1.635,1.635,0,0,1-.27-.943A1.919,1.919,0,0,1,16.586,6.1a3,3,0,0,1,1.965-.629,3.091,3.091,0,0,1,2.041.649,2.063,2.063,0,0,1,.783,1.661H20.1a1.142,1.142,0,0,0-.441-.9,1.652,1.652,0,0,0-1.111-.376,1.729,1.729,0,0,0-1.08.3.947.947,0,0,0-.39.786.767.767,0,0,0,.362.69,4.458,4.458,0,0,0,1.309.444,6.821,6.821,0,0,1,1.535.506,2.239,2.239,0,0,1,.872.708,1.74,1.74,0,0,1,.284,1.008,1.893,1.893,0,0,1-.793,1.589,3.326,3.326,0,0,1-2.058.6,3.725,3.725,0,0,1-1.572-.314,2.557,2.557,0,0,1-1.07-.878,2.117,2.117,0,0,1-.386-1.22h1.265a1.309,1.309,0,0,0,.509,1.008,1.976,1.976,0,0,0,1.254.373,2.039,2.039,0,0,0,1.152-.291A.893.893,0,0,0,20.179,11.038Zm4.628-7.226V5.6h1.381v.978H24.807v4.593a1.027,1.027,0,0,0,.185.667.777.777,0,0,0,.629.222,3.062,3.062,0,0,0,.6-.082V13a3.688,3.688,0,0,1-.971.136,1.575,1.575,0,0,1-1.278-.513,2.2,2.2,0,0,1-.431-1.456V6.581H22.2V5.6h1.347V3.813Zm5.927,9.324a3.232,3.232,0,0,1-2.447-.988,3.666,3.666,0,0,1-.943-2.642V9.274a4.438,4.438,0,0,1,.42-1.965,3.28,3.28,0,0,1,1.176-1.354,2.956,2.956,0,0,1,1.637-.489,2.77,2.77,0,0,1,2.242.95,4.114,4.114,0,0,1,.8,2.721v.526H28.607a2.629,2.629,0,0,0,.639,1.767A2.009,2.009,0,0,0,30.8,12.1a2.2,2.2,0,0,0,1.135-.273,2.851,2.851,0,0,0,.813-.725l.772.6A3.106,3.106,0,0,1,30.733,13.137Zm-.157-6.631a1.687,1.687,0,0,0-1.285.557,2.708,2.708,0,0,0-.643,1.562h3.705v-.1a2.409,2.409,0,0,0-.52-1.494A1.588,1.588,0,0,0,30.576,6.506Zm5.694-.9.034.82A2.732,2.732,0,0,1,38.5,5.467a2.115,2.115,0,0,1,2.112,1.189,2.8,2.8,0,0,1,.96-.861,2.837,2.837,0,0,1,1.4-.328q2.434,0,2.475,2.577V13H44.18V8.119a1.7,1.7,0,0,0-.362-1.186A1.6,1.6,0,0,0,42.6,6.54a1.677,1.677,0,0,0-1.169.42,1.706,1.706,0,0,0-.54,1.131V13H39.62V8.153A1.411,1.411,0,0,0,38.041,6.54a1.692,1.692,0,0,0-1.7,1.06V13H35.074V5.6ZM51.918,13a2.657,2.657,0,0,1-.178-.779,2.822,2.822,0,0,1-2.105.916,2.611,2.611,0,0,1-1.794-.619,2,2,0,0,1-.7-1.569,2.091,2.091,0,0,1,.878-1.794,4.142,4.142,0,0,1,2.471-.639h1.23V7.935a1.42,1.42,0,0,0-.4-1.056,1.593,1.593,0,0,0-1.169-.393,1.844,1.844,0,0,0-1.135.342,1.007,1.007,0,0,0-.458.827H47.29a1.745,1.745,0,0,1,.393-1.07,2.683,2.683,0,0,1,1.066-.817,3.588,3.588,0,0,1,1.48-.3,2.924,2.924,0,0,1,2,.639,2.306,2.306,0,0,1,.752,1.76v3.4a4.162,4.162,0,0,0,.26,1.62V13Zm-2.1-.964a2.223,2.223,0,0,0,1.128-.308,1.861,1.861,0,0,0,.772-.8V9.411h-.991q-2.324,0-2.324,1.36a1.151,1.151,0,0,0,.4.93A1.524,1.524,0,0,0,49.819,12.036Zm8.306-2.8A4.333,4.333,0,0,1,58.932,6.5a2.745,2.745,0,0,1,4.17-.147V2.5h1.265V13H63.2l-.062-.793a2.575,2.575,0,0,1-2.112.93,2.526,2.526,0,0,1-2.1-1.053,4.382,4.382,0,0,1-.81-2.748Zm1.265.144a3.281,3.281,0,0,0,.52,1.969,1.68,1.68,0,0,0,1.436.711,1.845,1.845,0,0,0,1.757-1.08v-3.4A1.859,1.859,0,0,0,61.358,6.54a1.687,1.687,0,0,0-1.449.718A3.612,3.612,0,0,0,59.39,9.384ZM69.4,13.137a3.232,3.232,0,0,1-2.447-.988,3.666,3.666,0,0,1-.943-2.642V9.274a4.438,4.438,0,0,1,.42-1.965A3.28,3.28,0,0,1,67.6,5.956a2.956,2.956,0,0,1,1.637-.489,2.77,2.77,0,0,1,2.242.95,4.114,4.114,0,0,1,.8,2.721v.526H67.271a2.629,2.629,0,0,0,.639,1.767,2.009,2.009,0,0,0,1.555.673,2.2,2.2,0,0,0,1.135-.273,2.851,2.851,0,0,0,.813-.725l.772.6A3.106,3.106,0,0,1,69.4,13.137ZM69.24,6.506a1.687,1.687,0,0,0-1.285.557,2.708,2.708,0,0,0-.643,1.562h3.705v-.1a2.409,2.409,0,0,0-.52-1.494A1.588,1.588,0,0,0,69.24,6.506ZM3.95,24.24A4.333,4.333,0,0,1,4.757,21.5a2.551,2.551,0,0,1,2.112-1.036,2.565,2.565,0,0,1,2.058.889V17.5h1.265V28H9.029l-.062-.793a2.575,2.575,0,0,1-2.112.93,2.526,2.526,0,0,1-2.1-1.053,4.382,4.382,0,0,1-.81-2.748Zm1.265.144a3.281,3.281,0,0,0,.52,1.969,1.68,1.68,0,0,0,1.436.711,1.845,1.845,0,0,0,1.757-1.08v-3.4A1.859,1.859,0,0,0,7.184,21.54a1.687,1.687,0,0,0-1.449.718A3.612,3.612,0,0,0,5.215,24.384Zm10.008,3.753a3.232,3.232,0,0,1-2.447-.988,3.666,3.666,0,0,1-.943-2.642v-.232a4.438,4.438,0,0,1,.42-1.965,3.28,3.28,0,0,1,1.176-1.354,2.956,2.956,0,0,1,1.637-.489,2.77,2.77,0,0,1,2.242.95,4.114,4.114,0,0,1,.8,2.721v.526H13.1a2.629,2.629,0,0,0,.639,1.767,2.009,2.009,0,0,0,1.555.673,2.2,2.2,0,0,0,1.135-.273,2.851,2.851,0,0,0,.813-.725l.772.6A3.106,3.106,0,0,1,15.223,28.137Zm-.157-6.631a1.687,1.687,0,0,0-1.285.557,2.708,2.708,0,0,0-.643,1.562h3.705v-.1a2.409,2.409,0,0,0-.52-1.494A1.588,1.588,0,0,0,15.065,21.506Zm10.753,2.878a4.429,4.429,0,0,1-.772,2.721,2.476,2.476,0,0,1-2.092,1.032,2.713,2.713,0,0,1-2.119-.854v3.562H19.57V20.6h1.155l.062.82a2.605,2.605,0,0,1,2.146-.957,2.522,2.522,0,0,1,2.109,1,4.477,4.477,0,0,1,.776,2.8Zm-1.265-.144a3.268,3.268,0,0,0-.533-1.976,1.718,1.718,0,0,0-1.463-.725,1.859,1.859,0,0,0-1.723,1.019v3.534A1.863,1.863,0,0,0,22.571,27.1a1.71,1.71,0,0,0,1.446-.721A3.567,3.567,0,0,0,24.554,24.24Zm7.438,3.028a2.686,2.686,0,0,1-2.167.868,2.3,2.3,0,0,1-1.8-.687,2.974,2.974,0,0,1-.625-2.034V20.6h1.265v4.778q0,1.682,1.367,1.682a1.893,1.893,0,0,0,1.928-1.08V20.6h1.265V28h-1.2Zm6.727-5.53a3.79,3.79,0,0,0-.622-.048,1.667,1.667,0,0,0-1.688,1.06V28H35.143V20.6h1.23l.021.854a1.969,1.969,0,0,1,1.764-.991,1.292,1.292,0,0,1,.561.1ZM44.173,28A2.657,2.657,0,0,1,44,27.221a2.822,2.822,0,0,1-2.105.916,2.611,2.611,0,0,1-1.794-.619,2,2,0,0,1-.7-1.569,2.091,2.091,0,0,1,.878-1.794,4.142,4.142,0,0,1,2.471-.639h1.23v-.581a1.42,1.42,0,0,0-.4-1.056,1.593,1.593,0,0,0-1.169-.393,1.844,1.844,0,0,0-1.135.342,1.007,1.007,0,0,0-.458.827H39.545a1.745,1.745,0,0,1,.393-1.07A2.683,2.683,0,0,1,41,20.768a3.588,3.588,0,0,1,1.48-.3,2.924,2.924,0,0,1,2,.639,2.306,2.306,0,0,1,.752,1.76v3.4a4.162,4.162,0,0,0,.26,1.62V28Zm-2.1-.964a2.223,2.223,0,0,0,1.128-.308,1.861,1.861,0,0,0,.772-.8V24.411h-.991q-2.324,0-2.324,1.36a1.151,1.151,0,0,0,.4.93A1.524,1.524,0,0,0,42.074,27.036Zm8.114.068a1.822,1.822,0,0,0,1.183-.41,1.443,1.443,0,0,0,.561-1.025h1.2a2.293,2.293,0,0,1-.437,1.21,2.881,2.881,0,0,1-1.077.916,3.107,3.107,0,0,1-1.425.342,3.047,3.047,0,0,1-2.4-1.008,4.016,4.016,0,0,1-.892-2.758v-.212a4.453,4.453,0,0,1,.4-1.921,3.02,3.02,0,0,1,1.138-1.306,3.233,3.233,0,0,1,1.753-.465,2.966,2.966,0,0,1,2.068.745,2.663,2.663,0,0,1,.878,1.935h-1.2a1.743,1.743,0,0,0-.543-1.179,1.691,1.691,0,0,0-1.207-.461,1.77,1.77,0,0,0-1.494.694,3.259,3.259,0,0,0-.53,2.006v.239a3.194,3.194,0,0,0,.526,1.969A1.779,1.779,0,0,0,50.188,27.1Zm5.735.9H54.659V20.6h1.265Zm-1.367-9.358a.755.755,0,0,1,.188-.52.706.706,0,0,1,.557-.212.717.717,0,0,1,.561.212.747.747,0,0,1,.191.52.722.722,0,0,1-.191.513.73.73,0,0,1-.561.205.718.718,0,0,1-.557-.205A.73.73,0,0,1,54.557,18.642Zm3.056,5.592a4.369,4.369,0,0,1,.427-1.955,3.187,3.187,0,0,1,1.189-1.34,3.238,3.238,0,0,1,1.74-.472,3.119,3.119,0,0,1,2.444,1.046,4.024,4.024,0,0,1,.933,2.782v.089a4.407,4.407,0,0,1-.414,1.938,3.14,3.14,0,0,1-1.183,1.336,3.275,3.275,0,0,1-1.767.479,3.111,3.111,0,0,1-2.437-1.046,4,4,0,0,1-.933-2.769Zm1.271.15a3.164,3.164,0,0,0,.571,1.976,1.934,1.934,0,0,0,3.059-.01,3.46,3.46,0,0,0,.567-2.116,3.159,3.159,0,0,0-.578-1.972,1.836,1.836,0,0,0-1.535-.755,1.816,1.816,0,0,0-1.511.745A3.434,3.434,0,0,0,58.884,24.384Zm2.659-6.87h1.531l-1.832,2.01-1.019,0Zm5.585,3.09.041.93a2.7,2.7,0,0,1,2.215-1.066q2.345,0,2.365,2.646V28H70.484V23.105a1.7,1.7,0,0,0-.366-1.183A1.466,1.466,0,0,0,69,21.54a1.825,1.825,0,0,0-1.08.328,2.228,2.228,0,0,0-.725.861V28H65.932V20.6ZM13.859,39.24a4.333,4.333,0,0,1,.807-2.738,2.551,2.551,0,0,1,2.112-1.036,2.565,2.565,0,0,1,2.058.889V32.5H20.1V43H18.938l-.062-.793a2.575,2.575,0,0,1-2.112.93,2.526,2.526,0,0,1-2.1-1.053,4.382,4.382,0,0,1-.81-2.748Zm1.265.144a3.281,3.281,0,0,0,.52,1.969,1.68,1.68,0,0,0,1.436.711,1.845,1.845,0,0,0,1.757-1.08v-3.4a1.859,1.859,0,0,0-1.743-1.046,1.687,1.687,0,0,0-1.449.718A3.612,3.612,0,0,0,15.124,39.384Zm10.008,3.753a3.232,3.232,0,0,1-2.447-.988,3.666,3.666,0,0,1-.943-2.642v-.232a4.438,4.438,0,0,1,.42-1.965,3.28,3.28,0,0,1,1.176-1.354,2.956,2.956,0,0,1,1.637-.489,2.77,2.77,0,0,1,2.242.95,4.114,4.114,0,0,1,.8,2.721v.526H23.005a2.629,2.629,0,0,0,.639,1.767A2.009,2.009,0,0,0,25.2,42.1a2.2,2.2,0,0,0,1.135-.273,2.851,2.851,0,0,0,.813-.725l.772.6A3.106,3.106,0,0,1,25.131,43.137Zm-.157-6.631a1.687,1.687,0,0,0-1.285.557,2.708,2.708,0,0,0-.643,1.562h3.705v-.1a2.409,2.409,0,0,0-.52-1.494A1.588,1.588,0,0,0,24.974,36.506ZM37.511,43a2.657,2.657,0,0,1-.178-.779,2.822,2.822,0,0,1-2.105.916,2.611,2.611,0,0,1-1.794-.619,2,2,0,0,1-.7-1.569,2.091,2.091,0,0,1,.878-1.794,4.142,4.142,0,0,1,2.471-.639h1.23v-.581a1.42,1.42,0,0,0-.4-1.056,1.593,1.593,0,0,0-1.169-.393,1.844,1.844,0,0,0-1.135.342,1.007,1.007,0,0,0-.458.827H32.883a1.745,1.745,0,0,1,.393-1.07,2.683,2.683,0,0,1,1.066-.817,3.588,3.588,0,0,1,1.48-.3,2.924,2.924,0,0,1,2,.639,2.306,2.306,0,0,1,.752,1.76v3.4a4.162,4.162,0,0,0,.26,1.62V43Zm-2.1-.964a2.223,2.223,0,0,0,1.128-.308,1.861,1.861,0,0,0,.772-.8V39.411h-.991Q34,39.411,34,40.771a1.151,1.151,0,0,0,.4.93A1.524,1.524,0,0,0,35.413,42.036Zm4.847-2.8a4.347,4.347,0,0,1,.8-2.751,2.757,2.757,0,0,1,4.231-.065l.062-.82h1.155v7.219a3.009,3.009,0,0,1-.851,2.263,3.141,3.141,0,0,1-2.287.827A3.8,3.8,0,0,1,41.8,45.57a2.7,2.7,0,0,1-1.169-.937l.656-.759a2.473,2.473,0,0,0,1.989,1,1.938,1.938,0,0,0,1.439-.52,1.986,1.986,0,0,0,.516-1.463v-.636a2.6,2.6,0,0,1-2.071.875,2.526,2.526,0,0,1-2.1-1.046A4.571,4.571,0,0,1,40.259,39.24Zm1.271.144a3.316,3.316,0,0,0,.513,1.965,1.666,1.666,0,0,0,1.436.714,1.852,1.852,0,0,0,1.757-1.087V37.6a1.874,1.874,0,0,0-1.743-1.06,1.681,1.681,0,0,0-1.442.718A3.612,3.612,0,0,0,41.531,39.384Zm11.45,2.885a2.686,2.686,0,0,1-2.167.868,2.3,2.3,0,0,1-1.8-.687,2.974,2.974,0,0,1-.625-2.034V35.6h1.265v4.778q0,1.682,1.367,1.682a1.893,1.893,0,0,0,1.928-1.08V35.6h1.265V43h-1.2ZM60.7,43a2.657,2.657,0,0,1-.178-.779,2.822,2.822,0,0,1-2.105.916,2.611,2.611,0,0,1-1.794-.619,2,2,0,0,1-.7-1.569,2.091,2.091,0,0,1,.878-1.794,4.142,4.142,0,0,1,2.471-.639H60.5v-.581a1.42,1.42,0,0,0-.4-1.056,1.593,1.593,0,0,0-1.169-.393,1.844,1.844,0,0,0-1.135.342,1.007,1.007,0,0,0-.458.827H56.071a1.745,1.745,0,0,1,.393-1.07,2.683,2.683,0,0,1,1.066-.817,3.588,3.588,0,0,1,1.48-.3,2.924,2.924,0,0,1,2,.639,2.306,2.306,0,0,1,.752,1.76v3.4a4.162,4.162,0,0,0,.26,1.62V43Zm-2.1-.964a2.223,2.223,0,0,0,1.128-.308,1.861,1.861,0,0,0,.772-.8V39.411h-.991q-2.324,0-2.324,1.36a1.151,1.151,0,0,0,.4.93A1.524,1.524,0,0,0,58.6,42.036Z" transform="translate(1011 4915.086)" fill="#12263f"/>
    <g id="Grupo_147239" data-name="Grupo 147239" transform="translate(9327.588 10372.988)">
      <path id="Trazado_278488" data-name="Trazado 278488" d="M54.087,44.764a3.674,3.674,0,0,0-1.82-1.087,3.126,3.126,0,0,0-.805,2.069c-.169-.436-.337-.873-.506-1.308A5.622,5.622,0,0,1,50.2,47.07a12.207,12.207,0,0,1-1.359-3.711l-.8,4.119A11.786,11.786,0,0,1,45.8,43.013q-.384,2.5-.767,4.99a16.784,16.784,0,0,1-2.662-4.135,6.753,6.753,0,0,1-1.058,2.717,7.063,7.063,0,0,1-2.351-2.954,5.786,5.786,0,0,1-.868,2.389,10.581,10.581,0,0,1-2.014-3.158l-1.7,4.795a17.067,17.067,0,0,1-3.931-4.807,14.847,14.847,0,0,1-.785,3.568,10.873,10.873,0,0,1-1.993-2.482q-.493,1.356-.987,2.712A26.63,26.63,0,0,0,23,42.463a5.986,5.986,0,0,0-.781,2.078c.126-.43-.621-.645-.923-.311a1.843,1.843,0,0,0-.259,1.286c.005.448-.1.985-.52,1.151q-.84-1.2-1.682-2.4a3.016,3.016,0,0,0-.439,1.544,5.634,5.634,0,0,1-1.331-2.036L16.549,45.8q-.666-1.076-1.331-2.15a10.477,10.477,0,0,0-.128,3.26,15.556,15.556,0,0,1-1.913-4.155,29.655,29.655,0,0,0-1.182,5.561Q9.98,45.394,7.967,42.47a5.282,5.282,0,0,1-.46,2.292l-3.175-4a18.1,18.1,0,0,0-.7,7.367A17.5,17.5,0,0,1,0,42.621c.026,2.975.233,5.937.233,8.933H54.391V47.562c0-1.44.1-2.219-.3-2.8" transform="translate(-8873.483 -5355.924)" fill="#39b54a"/>
      <path id="Trazado_278489" data-name="Trazado 278489" d="M258.306,44.764a3.674,3.674,0,0,0-1.82-1.087,3.126,3.126,0,0,0-.805,2.069c-.169-.436-.337-.873-.506-1.308a5.622,5.622,0,0,1-.754,2.633,12.207,12.207,0,0,1-1.359-3.711l-.8,4.119a11.785,11.785,0,0,1-2.244-4.465q-.384,2.5-.767,4.99a16.784,16.784,0,0,1-2.662-4.135,6.754,6.754,0,0,1-1.058,2.717,7.063,7.063,0,0,1-2.351-2.954,5.786,5.786,0,0,1-.868,2.389,10.581,10.581,0,0,1-2.014-3.158l-1.7,4.795a17.068,17.068,0,0,1-3.931-4.807,14.848,14.848,0,0,1-.785,3.568,10.874,10.874,0,0,1-1.993-2.482q-.493,1.356-.987,2.712a26.629,26.629,0,0,0-3.689-4.185,5.986,5.986,0,0,0-.781,2.078c.126-.43-.621-.645-.923-.311a1.843,1.843,0,0,0-.259,1.286c.005.448-.1.985-.52,1.151q-.84-1.2-1.682-2.4a3.016,3.016,0,0,0-.439,1.544,5.635,5.635,0,0,1-1.331-2.036l-.517,2.026q-.666-1.076-1.331-2.15a10.476,10.476,0,0,0-.128,3.26,15.556,15.556,0,0,1-1.913-4.155,29.655,29.655,0,0,0-1.182,5.561q-2.015-2.922-4.027-5.846a5.282,5.282,0,0,1-.46,2.292l-3.175-4a18.1,18.1,0,0,0-.7,7.367,17.5,17.5,0,0,1-3.633-5.505c.026,2.975.233,5.937.233,8.933H258.61V47.562c0-1.44.1-2.219-.3-2.8" transform="translate(-8724.707 -5355.924)" fill="#39b54a"/>
      <path id="Trazado_278490" data-name="Trazado 278490" d="M417.951,44.764a3.674,3.674,0,0,0-1.82-1.087,3.126,3.126,0,0,0-.805,2.069c-.169-.436-.337-.873-.506-1.308a5.622,5.622,0,0,1-.754,2.633,12.207,12.207,0,0,1-1.359-3.711l-.8,4.119a11.787,11.787,0,0,1-2.244-4.465q-.384,2.5-.767,4.99a16.786,16.786,0,0,1-2.662-4.135,6.755,6.755,0,0,1-1.058,2.717,7.063,7.063,0,0,1-2.351-2.954,5.786,5.786,0,0,1-.868,2.389,10.581,10.581,0,0,1-2.014-3.158l-1.7,4.795a17.068,17.068,0,0,1-3.931-4.807,14.844,14.844,0,0,1-.785,3.568,10.874,10.874,0,0,1-1.993-2.482q-.493,1.356-.987,2.712a26.63,26.63,0,0,0-3.689-4.185,5.985,5.985,0,0,0-.781,2.078c.126-.43-.621-.645-.923-.311a1.843,1.843,0,0,0-.259,1.286c.005.448-.1.985-.52,1.151l-1.682-2.4a3.016,3.016,0,0,0-.439,1.544,5.634,5.634,0,0,1-1.331-2.036q-.259,1.014-.517,2.026-.666-1.076-1.331-2.15a10.476,10.476,0,0,0-.128,3.26,15.555,15.555,0,0,1-1.913-4.155,29.659,29.659,0,0,0-1.182,5.561q-2.015-2.922-4.027-5.846a5.282,5.282,0,0,1-.46,2.292l-3.175-4a18.1,18.1,0,0,0-.7,7.367,17.5,17.5,0,0,1-3.633-5.505c.026,2.975.233,5.937.233,8.933h54.158V47.562c0-1.44.1-2.219-.3-2.8" transform="translate(-8608.403 -5355.924)" fill="#39b54a"/>
      <path id="Trazado_278491" data-name="Trazado 278491" d="M229.847,44.764a3.681,3.681,0,0,0-1.822-1.087,3.126,3.126,0,0,0-.805,2.069c-.168-.436-.335-.873-.506-1.308a5.641,5.641,0,0,1-.752,2.633,12.211,12.211,0,0,1-1.36-3.711q-.4,2.059-.8,4.119a11.761,11.761,0,0,1-2.244-4.465q-.384,2.5-.767,4.99a16.784,16.784,0,0,1-2.662-4.135,6.781,6.781,0,0,1-1.06,2.717,7.046,7.046,0,0,1-2.349-2.954,5.789,5.789,0,0,1-.869,2.389,10.615,10.615,0,0,1-2.014-3.158q-.845,2.4-1.7,4.795a17.1,17.1,0,0,1-3.931-4.807,14.764,14.764,0,0,1-.785,3.568,10.967,10.967,0,0,1-1.993-2.482l-.985,2.712a26.73,26.73,0,0,0-3.69-4.185,5.982,5.982,0,0,0-.78,2.078c.126-.43-.622-.645-.923-.311a1.835,1.835,0,0,0-.261,1.286c.007.448-.1.985-.519,1.151q-.843-1.2-1.684-2.4a3.016,3.016,0,0,0-.439,1.544,5.608,5.608,0,0,1-1.329-2.036c-.173.676-.344,1.35-.519,2.026q-.666-1.076-1.329-2.15a10.423,10.423,0,0,0-.128,3.26,15.5,15.5,0,0,1-1.913-4.155,29.517,29.517,0,0,0-1.182,5.561q-2.017-2.922-4.029-5.846a5.283,5.283,0,0,1-.46,2.292l-3.174-4a18.1,18.1,0,0,0-.7,7.367,17.468,17.468,0,0,1-3.632-5.505c.026,2.975.233,5.937.233,8.933h54.158V47.562c0-1.44.1-2.219-.3-2.8" transform="translate(-8745.439 -5355.924)" fill="#39b54a"/>
      <rect id="Rectángulo_47447" data-name="Rectángulo 47447" width="683.485" height="291.669" transform="translate(-8873.226 -5304.371)" fill="#c69c6d"/>
      <g id="Grupo_147235" data-name="Grupo 147235" transform="translate(-8873.226 -5304.369)">
        <g id="Grupo_147234" data-name="Grupo 147234" clip-path="url(#clip-path)">
          <g id="Grupo_147233" data-name="Grupo 147233" transform="translate(33.131 4.23)" opacity="0.43">
            <g id="Grupo_147232" data-name="Grupo 147232">
              <g id="Grupo_147231" data-name="Grupo 147231" clip-path="url(#clip-path-2)">
                <path id="Trazado_278492" data-name="Trazado 278492" d="M636.538,266.369c0,119.8-138.17,216.916-308.611,216.916S19.317,386.169,19.317,266.369,157.486,49.453,327.928,49.453,636.538,146.57,636.538,266.369" transform="translate(-19.316 -49.451)" fill="#f7c28d"/>
              </g>
            </g>
          </g>
        </g>
      </g>
      <path id="Trazado_278493" data-name="Trazado 278493" d="M590.753,225.067c-7.675-7.676-19.736-15.351-55.921-15.351s-79.5-3.457-108.554-3.457-71.272-14.627-71.272-14.627l-.275-20.294H278.524l-.275,20.294s-42.214,14.627-71.272,14.627-72.369,3.457-108.554,3.457S50.179,217.391,42.5,225.067s-7.675,23.027-7.675,23.027h563.6s0-15.353-7.676-23.027" transform="translate(-8848.11 -5260.796)" fill="#ba1c9c"/>
      <rect id="Rectángulo_47451" data-name="Rectángulo 47451" width="76.395" height="194.093" transform="translate(-8569.682 -5304.371)" fill="#f2f2f2"/>
      <rect id="Rectángulo_47452" data-name="Rectángulo 47452" width="76.395" height="194.093" transform="translate(-8569.682 -5304.371)" fill="none" stroke="#000" stroke-miterlimit="10" stroke-width="0.25"/>
      <g id="Grupo_147238" data-name="Grupo 147238" transform="translate(-8873.226 -5038.013)" opacity="0.34">
        <g id="Grupo_147237" data-name="Grupo 147237">
          <g id="Grupo_147236" data-name="Grupo 147236" clip-path="url(#clip-path-3)">
            <rect id="Rectángulo_47453" data-name="Rectángulo 47453" width="683.485" height="25.311" transform="translate(0 -0.001)" fill="#fff"/>
          </g>
        </g>
      </g>
      <rect id="Rectángulo_47455" data-name="Rectángulo 47455" width="76.395" height="25.311" transform="translate(-8569.682 -5038.014)" fill="#ccc"/>
      <rect id="Rectángulo_47456" data-name="Rectángulo 47456" width="76.395" height="25.311" transform="translate(-8569.682 -5038.014)" fill="none" stroke="#000" stroke-miterlimit="10" stroke-width="0.25"/>
      <line id="Línea_360" data-name="Línea 360" x2="3.457" transform="translate(-8873.226 -5038.013)" fill="none" stroke="#fff" stroke-miterlimit="10" stroke-width="0.5"/>
      <line id="Línea_361" data-name="Línea 361" x2="666.109" transform="translate(-8862.794 -5038.013)" fill="none" stroke="#fff" stroke-miterlimit="10" stroke-width="0.5" stroke-dasharray="4.035 4.035"/>
      <line id="Línea_362" data-name="Línea 362" x2="3.457" transform="translate(-8193.198 -5038.013)" fill="none" stroke="#fff" stroke-miterlimit="10" stroke-width="0.5"/>
      <rect id="Rectángulo_47457" data-name="Rectángulo 47457" width="17.067" height="216.455" transform="translate(-8539.695 -5321.513)" fill="none" stroke="#000" stroke-miterlimit="10" stroke-width="0.75"/>
      <rect id="Rectángulo_47458" data-name="Rectángulo 47458" width="11.916" height="198.378" transform="translate(-8563.334 -5303.436)" fill="#ccc"/>
      <rect id="Rectángulo_47459" data-name="Rectángulo 47459" width="11.916" height="198.378" transform="translate(-8563.334 -5303.436)" fill="none" stroke="#000" stroke-miterlimit="10" stroke-width="0.75"/>
      <rect id="Rectángulo_47460" data-name="Rectángulo 47460" width="76.395" height="25.311" transform="translate(-8569.682 -5110.278)" fill="#ccc"/>
      <rect id="Rectángulo_47461" data-name="Rectángulo 47461" width="76.395" height="25.311" transform="translate(-8569.682 -5110.278)" fill="none" stroke="#000" stroke-miterlimit="10" stroke-width="0.25"/>
      <path id="Trazado_278494" data-name="Trazado 278494" d="M209.282,214.494l5.341-4.022V171.544l-6.9-3.836v-20.1h-7.31v20.1l-6.9,3.836v38.928l5.35,4.022h-9.094v17.627h28.6V214.494Z" transform="translate(-8735.232 -5278.084)" fill="#ccc"/>
      <path id="Trazado_278495" data-name="Trazado 278495" d="M209.282,214.494l5.341-4.022V171.544l-6.9-3.836v-20.1h-7.31v20.1l-6.9,3.836v38.928l5.35,4.022h-9.094v17.627h28.6V214.494Z" transform="translate(-8735.232 -5278.084)" fill="none" stroke="#000" stroke-miterlimit="10" stroke-width="0.25"/>
      <line id="Línea_363" data-name="Línea 363" y2="30.522" transform="translate(-8535.91 -5094.111)" fill="none" stroke="#000" stroke-miterlimit="10" stroke-width="0.5"/>
      <path id="Trazado_278496" data-name="Trazado 278496" d="M8.356,83.6H89.214c52.263,87.8,153.964,115.209,153.964,115.209l4.933-22.2,44.957,37.007L235.5,230.6l6.031-20.832S62.529,195.516,8.356,83.6" transform="translate(-8867.396 -5324.716)" fill="#fff"/>
      <path id="Trazado_278497" data-name="Trazado 278497" d="M506.777,83.6H425.919c-52.263,87.8-153.964,115.209-153.964,115.209l-4.933-22.2-44.957,37.007L279.631,230.6,273.6,209.772S452.6,195.516,506.777,83.6" transform="translate(-8711.707 -5324.716)" fill="#fff"/>
      <rect id="Rectángulo_47462" data-name="Rectángulo 47462" width="23.722" height="3.443" transform="translate(-8622.81 -5049.332)" fill="#fff"/>
      <path id="Trazado_278498" data-name="Trazado 278498" d="M157.755,202.153v-9.336l9.336,4.667Z" transform="translate(-8758.557 -5245.148)" fill="#fff"/>
      <rect id="Rectángulo_47463" data-name="Rectángulo 47463" width="23.722" height="3.443" transform="translate(-8452.444 -5049.438)" fill="#fff"/>
      <path id="Trazado_278499" data-name="Trazado 278499" d="M248.51,192.817v9.336l-9.336-4.667Z" transform="translate(-8699.241 -5245.148)" fill="#fff"/>
      <rect id="Rectángulo_47464" data-name="Rectángulo 47464" width="23.722" height="3.443" transform="translate(-8851.859 -5370.839)" fill="blue"/>
      <path id="Trazado_278500" data-name="Trazado 278500" d="M17.437,6.876v9.336L8.1,11.545Z" transform="translate(-8867.582 -5380.608)" fill="blue"/>
      <rect id="Rectángulo_47465" data-name="Rectángulo 47465" width="23.722" height="3.443" transform="translate(-8474.799 -5342.011)" fill="#f0f"/>
      <path id="Trazado_278501" data-name="Trazado 278501" d="M235.577,23.555V32.89l-9.336-4.667Z" transform="translate(-8708.663 -5368.458)" fill="#f0f"/>
      <rect id="Rectángulo_47466" data-name="Rectángulo 47466" width="23.722" height="3.443" transform="translate(-8213.034 -5370.839)" fill="blue"/>
      <path id="Trazado_278502" data-name="Trazado 278502" d="M394.823,6.876v9.336l9.336-4.667Z" transform="translate(-8585.851 -5380.608)" fill="blue"/>
      <rect id="Rectángulo_47467" data-name="Rectángulo 47467" width="249.411" height="5.483" transform="translate(-8819.091 -5309.854)" fill="#f2f2f2"/>
      <rect id="Rectángulo_47468" data-name="Rectángulo 47468" width="249.411" height="5.483" transform="translate(-8819.091 -5309.854)" fill="none" stroke="#000" stroke-miterlimit="10" stroke-width="0.25"/>
      <rect id="Rectángulo_47469" data-name="Rectángulo 47469" width="249.411" height="5.483" transform="translate(-8466.748 -5309.854)" fill="#f2f2f2"/>
      <rect id="Rectángulo_47470" data-name="Rectángulo 47470" width="249.411" height="5.483" transform="translate(-8466.748 -5309.854)" fill="none" stroke="#000" stroke-miterlimit="10" stroke-width="0.25"/>
      <rect id="Rectángulo_47471" data-name="Rectángulo 47471" width="65.241" height="3.015" transform="translate(-8799.079 -5312.868)" fill="#f2f2f2"/>
      <rect id="Rectángulo_47472" data-name="Rectángulo 47472" width="65.241" height="3.015" transform="translate(-8799.079 -5312.868)" fill="none" stroke="#000" stroke-miterlimit="10" stroke-width="0.25"/>
      <rect id="Rectángulo_47473" data-name="Rectángulo 47473" width="55.648" height="70.451" transform="translate(-8794.146 -5383.319)" fill="#f2f2f2"/>
      <rect id="Rectángulo_47474" data-name="Rectángulo 47474" width="55.648" height="70.451" transform="translate(-8794.146 -5383.319)" fill="none" stroke="#000" stroke-miterlimit="10" stroke-width="0.25"/>
      <rect id="Rectángulo_47475" data-name="Rectángulo 47475" width="22.752" height="7.676" transform="translate(-8816.899 -5372.903)" fill="#f2f2f2"/>
      <rect id="Rectángulo_47476" data-name="Rectángulo 47476" width="22.752" height="7.676" transform="translate(-8816.899 -5372.903)" fill="none" stroke="#000" stroke-miterlimit="10" stroke-width="0.25"/>
      <rect id="Rectángulo_47477" data-name="Rectángulo 47477" width="65.241" height="3.015" transform="translate(-8303.737 -5312.868)" fill="#f2f2f2"/>
      <rect id="Rectángulo_47478" data-name="Rectángulo 47478" width="65.241" height="3.015" transform="translate(-8303.737 -5312.868)" fill="none" stroke="#000" stroke-miterlimit="10" stroke-width="0.25"/>
      <rect id="Rectángulo_47479" data-name="Rectángulo 47479" width="55.648" height="70.451" transform="translate(-8299.078 -5383.319)" fill="#f2f2f2"/>
      <rect id="Rectángulo_47480" data-name="Rectángulo 47480" width="55.648" height="70.451" transform="translate(-8299.078 -5383.319)" fill="none" stroke="#000" stroke-miterlimit="10" stroke-width="0.25"/>
      <rect id="Rectángulo_47481" data-name="Rectángulo 47481" width="64.418" height="73.465" transform="translate(-8441.621 -5383.319)" fill="#f2f2f2"/>
      <rect id="Rectángulo_47482" data-name="Rectángulo 47482" width="64.418" height="73.465" transform="translate(-8441.621 -5383.319)" fill="none" stroke="#000" stroke-miterlimit="10" stroke-width="0.25"/>
      <rect id="Rectángulo_47483" data-name="Rectángulo 47483" width="64.418" height="29.606" transform="translate(-8441.621 -5355.176)" fill="#f0f"/>
      <rect id="Rectángulo_47484" data-name="Rectángulo 47484" width="64.418" height="29.606" transform="translate(-8441.621 -5355.176)" fill="none" stroke="#000" stroke-miterlimit="10" stroke-width="0.25"/>
      <rect id="Rectángulo_47485" data-name="Rectángulo 47485" width="22.752" height="7.676" transform="translate(-8243.43 -5372.903)" fill="#f2f2f2"/>
      <rect id="Rectángulo_47486" data-name="Rectángulo 47486" width="22.752" height="7.676" transform="translate(-8243.43 -5372.903)" fill="none" stroke="#000" stroke-miterlimit="10" stroke-width="0.25"/>
      <path id="Trazado_278503" data-name="Trazado 278503" d="M174.722,11.8H127.435V37.016H78.092v5.758h55.1V17.553h41.529Z" transform="translate(-8816.592 -5377.023)" fill="#f2f2f2"/>
      <path id="Trazado_278504" data-name="Trazado 278504" d="M174.722,11.8H127.435V37.016H78.092v5.758h55.1V17.553h41.529Z" transform="translate(-8816.592 -5377.023)" fill="none" stroke="#000" stroke-miterlimit="10" stroke-width="0.25"/>
      <rect id="Rectángulo_47487" data-name="Rectángulo 47487" width="34.266" height="27.96" transform="translate(-8632.688 -5337.813)" fill="#f2f2f2"/>
      <rect id="Rectángulo_47488" data-name="Rectángulo 47488" width="34.266" height="27.96" transform="translate(-8632.688 -5337.813)" fill="none" stroke="#000" stroke-miterlimit="10" stroke-width="0.25"/>
      <rect id="Rectángulo_47489" data-name="Rectángulo 47489" width="53.043" height="30.427" transform="translate(-8641.87 -5368.241)" fill="#f2f2f2"/>
      <rect id="Rectángulo_47490" data-name="Rectángulo 47490" width="53.043" height="30.427" transform="translate(-8641.87 -5368.241)" fill="none" stroke="#000" stroke-miterlimit="10" stroke-width="0.25"/>
      <path id="Trazado_278505" data-name="Trazado 278505" d="M187.039,12.074H134l26.315-4.8Z" transform="translate(-8775.866 -5380.316)" fill="#f2f2f2"/>
      <path id="Trazado_278506" data-name="Trazado 278506" d="M187.039,12.074H134l26.315-4.8Z" transform="translate(-8775.866 -5380.316)" fill="none" stroke="#000" stroke-miterlimit="10" stroke-width="0.25"/>
      <rect id="Rectángulo_47491" data-name="Rectángulo 47491" width="16.447" height="3.837" transform="translate(-8565.601 -5304.371)" fill="#f2f2f2"/>
      <rect id="Rectángulo_47492" data-name="Rectángulo 47492" width="16.447" height="3.837" transform="translate(-8565.601 -5304.371)" fill="none" stroke="#000" stroke-miterlimit="10" stroke-width="0.25"/>
      <rect id="Rectángulo_47493" data-name="Rectángulo 47493" width="48.789" height="6.854" transform="translate(-8561.886 -5311.225)"/>
      <path id="Trazado_278507" data-name="Trazado 278507" d="M196.978,31.568H159.132v6.4h37.846V58.249h6.4V31.568Z" transform="translate(-8757.554 -5362.62)" fill="#f2f2f2"/>
      <path id="Trazado_278508" data-name="Trazado 278508" d="M196.978,31.568H159.132v6.4h37.846V58.249h6.4V31.568Z" transform="translate(-8757.554 -5362.62)" fill="none" stroke="#000" stroke-miterlimit="10" stroke-width="0.25"/>
      <path id="Trazado_278509" data-name="Trazado 278509" d="M352.9,60.423V5H299.543V60.423h-12.43v7.31h19.74V12.315h38.741V67.732h19.738v-7.31Z" transform="translate(-8664.318 -5381.972)" fill="#f2f2f2"/>
      <path id="Trazado_278510" data-name="Trazado 278510" d="M352.9,60.423V5H299.543V60.423h-12.43v7.31h19.74V12.315h38.741V67.732h19.738v-7.31Z" transform="translate(-8664.318 -5381.972)" fill="none" stroke="#000" stroke-miterlimit="10" stroke-width="0.25"/>
      <path id="Trazado_278511" data-name="Trazado 278511" d="M327.045,12.4A12.4,12.4,0,1,1,314.641,0a12.4,12.4,0,0,1,12.4,12.4" transform="translate(-8653.301 -5385.618)" fill="#1b1464"/>
      <path id="Trazado_278512" data-name="Trazado 278512" d="M309.357.583,321,12.225l-11.642,11.64Z" transform="translate(-8648.112 -5385.192)" fill="#fff"/>
      <rect id="Rectángulo_47494" data-name="Rectángulo 47494" width="15.731" height="6.874" transform="translate(-8351.93 -5376.749)" fill="#fff"/>
      <rect id="Rectángulo_47495" data-name="Rectángulo 47495" width="7.218" height="7.218" transform="translate(-8448.839 -5343.845)" fill="#f2f2f2"/>
      <rect id="Rectángulo_47496" data-name="Rectángulo 47496" width="7.218" height="7.218" transform="translate(-8448.839 -5343.845)" fill="none" stroke="#000" stroke-miterlimit="10" stroke-width="0.25"/>
      <path id="Trazado_278513" data-name="Trazado 278513" d="M289.118,11.8H195.938V246.545h7.282V18.512h85.9Z" transform="translate(-8730.739 -5377.023)" fill="#f0f"/>
      <path id="Trazado_278514" data-name="Trazado 278514" d="M289.118,11.8H195.938V246.545h7.282V18.512h85.9Z" transform="translate(-8730.739 -5377.023)" fill="none" stroke="#000" stroke-miterlimit="10" stroke-width="0.25"/>
    </g>
    <path id="Trazado_278523" data-name="Trazado 278523" d="M16.805,11.257l2.844-8.21h1.436L17.393,13H16.231L12.546,3.047h1.429ZM26.471,13a2.657,2.657,0,0,1-.178-.779,2.822,2.822,0,0,1-2.105.916,2.611,2.611,0,0,1-1.794-.619,2,2,0,0,1-.7-1.569,2.091,2.091,0,0,1,.878-1.794,4.142,4.142,0,0,1,2.471-.639h1.23V7.935a1.42,1.42,0,0,0-.4-1.056,1.593,1.593,0,0,0-1.169-.393,1.844,1.844,0,0,0-1.135.342,1.007,1.007,0,0,0-.458.827H21.843a1.745,1.745,0,0,1,.393-1.07A2.683,2.683,0,0,1,23.3,5.768a3.588,3.588,0,0,1,1.48-.3,2.924,2.924,0,0,1,2,.639,2.306,2.306,0,0,1,.752,1.76v3.4a4.162,4.162,0,0,0,.26,1.62V13Zm-2.1-.964a2.223,2.223,0,0,0,1.128-.308,1.861,1.861,0,0,0,.772-.8V9.411h-.991q-2.324,0-2.324,1.36a1.151,1.151,0,0,0,.4.93A1.524,1.524,0,0,0,24.373,12.036Zm11.4-2.652A4.429,4.429,0,0,1,35,12.1,2.476,2.476,0,0,1,32.9,13.137a2.713,2.713,0,0,1-2.119-.854v3.562H29.52V5.6h1.155l.062.82a2.605,2.605,0,0,1,2.146-.957,2.522,2.522,0,0,1,2.109,1,4.477,4.477,0,0,1,.776,2.8ZM34.5,9.24a3.268,3.268,0,0,0-.533-1.976,1.718,1.718,0,0,0-1.463-.725,1.859,1.859,0,0,0-1.723,1.019v3.534A1.863,1.863,0,0,0,32.521,12.1a1.71,1.71,0,0,0,1.446-.721A3.567,3.567,0,0,0,34.5,9.24Zm2.536-.007a4.369,4.369,0,0,1,.427-1.955,3.187,3.187,0,0,1,1.189-1.34,3.238,3.238,0,0,1,1.74-.472A3.119,3.119,0,0,1,42.84,6.513a4.024,4.024,0,0,1,.933,2.782v.089a4.407,4.407,0,0,1-.414,1.938,3.14,3.14,0,0,1-1.183,1.336,3.275,3.275,0,0,1-1.767.479,3.111,3.111,0,0,1-2.437-1.046,4,4,0,0,1-.933-2.769Zm1.271.15a3.164,3.164,0,0,0,.571,1.976,1.934,1.934,0,0,0,3.059-.01,3.46,3.46,0,0,0,.567-2.116,3.159,3.159,0,0,0-.578-1.972A1.836,1.836,0,0,0,40.4,6.506a1.816,1.816,0,0,0-1.511.745A3.435,3.435,0,0,0,38.311,9.384ZM48.934,6.738a3.79,3.79,0,0,0-.622-.048,1.667,1.667,0,0,0-1.688,1.06V13H45.359V5.6h1.23l.021.854a1.969,1.969,0,0,1,1.764-.991,1.292,1.292,0,0,1,.561.1Zm4.1,6.4a3.232,3.232,0,0,1-2.447-.988,3.666,3.666,0,0,1-.943-2.642V9.274a4.438,4.438,0,0,1,.42-1.965,3.28,3.28,0,0,1,1.176-1.354,2.956,2.956,0,0,1,1.637-.489,2.77,2.77,0,0,1,2.242.95,4.114,4.114,0,0,1,.8,2.721v.526H50.91a2.629,2.629,0,0,0,.639,1.767A2.009,2.009,0,0,0,53.1,12.1a2.2,2.2,0,0,0,1.135-.273,2.851,2.851,0,0,0,.813-.725l.772.6A3.106,3.106,0,0,1,53.036,13.137Zm-.157-6.631a1.687,1.687,0,0,0-1.285.557,2.708,2.708,0,0,0-.643,1.562h3.705v-.1a2.409,2.409,0,0,0-.52-1.494A1.588,1.588,0,0,0,52.878,6.506Zm8.812,4.532a.931.931,0,0,0-.386-.8,3.718,3.718,0,0,0-1.347-.489,6.367,6.367,0,0,1-1.524-.492,2.169,2.169,0,0,1-.834-.684,1.635,1.635,0,0,1-.27-.943A1.919,1.919,0,0,1,58.1,6.1a3,3,0,0,1,1.965-.629,3.091,3.091,0,0,1,2.041.649,2.063,2.063,0,0,1,.783,1.661H61.615a1.142,1.142,0,0,0-.441-.9,1.652,1.652,0,0,0-1.111-.376,1.729,1.729,0,0,0-1.08.3.947.947,0,0,0-.39.786.767.767,0,0,0,.362.69,4.458,4.458,0,0,0,1.309.444,6.821,6.821,0,0,1,1.535.506,2.239,2.239,0,0,1,.872.708,1.74,1.74,0,0,1,.284,1.008,1.893,1.893,0,0,1-.793,1.589,3.326,3.326,0,0,1-2.058.6,3.725,3.725,0,0,1-1.572-.314,2.557,2.557,0,0,1-1.07-.878,2.117,2.117,0,0,1-.386-1.22H58.34a1.309,1.309,0,0,0,.509,1.008A1.976,1.976,0,0,0,60.1,12.1a2.039,2.039,0,0,0,1.152-.291A.893.893,0,0,0,61.69,11.038Z" transform="translate(1035 5138.086)" fill="#12263f"/>
    <path id="Trazado_278534" data-name="Trazado 278534" d="M16.805,11.257l2.844-8.21h1.436L17.393,13H16.231L12.546,3.047h1.429ZM26.471,13a2.657,2.657,0,0,1-.178-.779,2.822,2.822,0,0,1-2.105.916,2.611,2.611,0,0,1-1.794-.619,2,2,0,0,1-.7-1.569,2.091,2.091,0,0,1,.878-1.794,4.142,4.142,0,0,1,2.471-.639h1.23V7.935a1.42,1.42,0,0,0-.4-1.056,1.593,1.593,0,0,0-1.169-.393,1.844,1.844,0,0,0-1.135.342,1.007,1.007,0,0,0-.458.827H21.843a1.745,1.745,0,0,1,.393-1.07A2.683,2.683,0,0,1,23.3,5.768a3.588,3.588,0,0,1,1.48-.3,2.924,2.924,0,0,1,2,.639,2.306,2.306,0,0,1,.752,1.76v3.4a4.162,4.162,0,0,0,.26,1.62V13Zm-2.1-.964a2.223,2.223,0,0,0,1.128-.308,1.861,1.861,0,0,0,.772-.8V9.411h-.991q-2.324,0-2.324,1.36a1.151,1.151,0,0,0,.4.93A1.524,1.524,0,0,0,24.373,12.036Zm11.4-2.652A4.429,4.429,0,0,1,35,12.1,2.476,2.476,0,0,1,32.9,13.137a2.713,2.713,0,0,1-2.119-.854v3.562H29.52V5.6h1.155l.062.82a2.605,2.605,0,0,1,2.146-.957,2.522,2.522,0,0,1,2.109,1,4.477,4.477,0,0,1,.776,2.8ZM34.5,9.24a3.268,3.268,0,0,0-.533-1.976,1.718,1.718,0,0,0-1.463-.725,1.859,1.859,0,0,0-1.723,1.019v3.534A1.863,1.863,0,0,0,32.521,12.1a1.71,1.71,0,0,0,1.446-.721A3.567,3.567,0,0,0,34.5,9.24Zm2.536-.007a4.369,4.369,0,0,1,.427-1.955,3.187,3.187,0,0,1,1.189-1.34,3.238,3.238,0,0,1,1.74-.472A3.119,3.119,0,0,1,42.84,6.513a4.024,4.024,0,0,1,.933,2.782v.089a4.407,4.407,0,0,1-.414,1.938,3.14,3.14,0,0,1-1.183,1.336,3.275,3.275,0,0,1-1.767.479,3.111,3.111,0,0,1-2.437-1.046,4,4,0,0,1-.933-2.769Zm1.271.15a3.164,3.164,0,0,0,.571,1.976,1.934,1.934,0,0,0,3.059-.01,3.46,3.46,0,0,0,.567-2.116,3.159,3.159,0,0,0-.578-1.972A1.836,1.836,0,0,0,40.4,6.506a1.816,1.816,0,0,0-1.511.745A3.435,3.435,0,0,0,38.311,9.384ZM48.934,6.738a3.79,3.79,0,0,0-.622-.048,1.667,1.667,0,0,0-1.688,1.06V13H45.359V5.6h1.23l.021.854a1.969,1.969,0,0,1,1.764-.991,1.292,1.292,0,0,1,.561.1Zm4.1,6.4a3.232,3.232,0,0,1-2.447-.988,3.666,3.666,0,0,1-.943-2.642V9.274a4.438,4.438,0,0,1,.42-1.965,3.28,3.28,0,0,1,1.176-1.354,2.956,2.956,0,0,1,1.637-.489,2.77,2.77,0,0,1,2.242.95,4.114,4.114,0,0,1,.8,2.721v.526H50.91a2.629,2.629,0,0,0,.639,1.767A2.009,2.009,0,0,0,53.1,12.1a2.2,2.2,0,0,0,1.135-.273,2.851,2.851,0,0,0,.813-.725l.772.6A3.106,3.106,0,0,1,53.036,13.137Zm-.157-6.631a1.687,1.687,0,0,0-1.285.557,2.708,2.708,0,0,0-.643,1.562h3.705v-.1a2.409,2.409,0,0,0-.52-1.494A1.588,1.588,0,0,0,52.878,6.506Zm8.812,4.532a.931.931,0,0,0-.386-.8,3.718,3.718,0,0,0-1.347-.489,6.367,6.367,0,0,1-1.524-.492,2.169,2.169,0,0,1-.834-.684,1.635,1.635,0,0,1-.27-.943A1.919,1.919,0,0,1,58.1,6.1a3,3,0,0,1,1.965-.629,3.091,3.091,0,0,1,2.041.649,2.063,2.063,0,0,1,.783,1.661H61.615a1.142,1.142,0,0,0-.441-.9,1.652,1.652,0,0,0-1.111-.376,1.729,1.729,0,0,0-1.08.3.947.947,0,0,0-.39.786.767.767,0,0,0,.362.69,4.458,4.458,0,0,0,1.309.444,6.821,6.821,0,0,1,1.535.506,2.239,2.239,0,0,1,.872.708,1.74,1.74,0,0,1,.284,1.008,1.893,1.893,0,0,1-.793,1.589,3.326,3.326,0,0,1-2.058.6,3.725,3.725,0,0,1-1.572-.314,2.557,2.557,0,0,1-1.07-.878,2.117,2.117,0,0,1-.386-1.22H58.34a1.309,1.309,0,0,0,.509,1.008A1.976,1.976,0,0,0,60.1,12.1a2.039,2.039,0,0,0,1.152-.291A.893.893,0,0,0,61.69,11.038Z" transform="translate(475 5138.086)" fill="#12263f"/>
    <path id="Trazado_278524" data-name="Trazado 278524" d="M15.7,9.493V13H13.65V3.047h3.883a4.492,4.492,0,0,1,1.972.41,3.022,3.022,0,0,1,1.309,1.166,3.25,3.25,0,0,1,.458,1.719,2.858,2.858,0,0,1-1,2.307,4.171,4.171,0,0,1-2.772.844Zm0-1.661h1.832a1.8,1.8,0,0,0,1.241-.383A1.392,1.392,0,0,0,19.2,6.355a1.642,1.642,0,0,0-.431-1.183,1.609,1.609,0,0,0-1.189-.465H15.7Zm11.006-.376A5.367,5.367,0,0,0,26,7.4a1.447,1.447,0,0,0-1.47.759V13H22.551V5.6h1.866l.055.882a1.831,1.831,0,0,1,1.647-1.019,2.07,2.07,0,0,1,.615.089Zm.4,1.777a4.387,4.387,0,0,1,.424-1.962,3.1,3.1,0,0,1,1.22-1.333A3.56,3.56,0,0,1,30.6,5.467a3.368,3.368,0,0,1,2.444.916A3.676,3.676,0,0,1,34.1,8.871l.014.506a3.866,3.866,0,0,1-.95,2.731,3.683,3.683,0,0,1-5.1,0A3.934,3.934,0,0,1,27.1,9.322Zm1.976.14a2.765,2.765,0,0,0,.4,1.612,1.424,1.424,0,0,0,2.256.007,3.025,3.025,0,0,0,.4-1.763,2.737,2.737,0,0,0-.4-1.6A1.311,1.311,0,0,0,30.6,7.06a1.29,1.29,0,0,0-1.121.565A3.076,3.076,0,0,0,29.079,9.374Zm5.94-.127A4.457,4.457,0,0,1,35.8,6.492a2.517,2.517,0,0,1,2.123-1.025,2.265,2.265,0,0,1,1.784.807V2.5h1.982V13H39.9l-.1-.786a2.325,2.325,0,0,1-1.9.923,2.511,2.511,0,0,1-2.1-1.029A4.6,4.6,0,0,1,35.02,9.247ZM37,9.388a2.936,2.936,0,0,0,.362,1.6,1.179,1.179,0,0,0,1.053.556,1.321,1.321,0,0,0,1.292-.776V7.836a1.3,1.3,0,0,0-1.278-.776Q37,7.06,37,9.388Zm10.65,2.86a2.477,2.477,0,0,1-2.023.889,2.337,2.337,0,0,1-1.815-.684,2.918,2.918,0,0,1-.639-2V5.6h1.976v4.784q0,1.157,1.053,1.157a1.426,1.426,0,0,0,1.381-.7V5.6H49.56V13H47.7Zm6.48-.7a1.3,1.3,0,0,0,.889-.3,1.054,1.054,0,0,0,.355-.8h1.853a2.534,2.534,0,0,1-.41,1.377,2.706,2.706,0,0,1-1.1.971,3.455,3.455,0,0,1-1.548.345,3.211,3.211,0,0,1-2.5-1.008,3.99,3.99,0,0,1-.916-2.786v-.13a3.944,3.944,0,0,1,.909-2.728,3.174,3.174,0,0,1,2.5-1.019,3.111,3.111,0,0,1,2.225.79,2.8,2.8,0,0,1,.851,2.1H55.37a1.358,1.358,0,0,0-.355-.938,1.321,1.321,0,0,0-1.945.142A2.916,2.916,0,0,0,52.718,9.2V9.4a2.953,2.953,0,0,0,.349,1.643A1.2,1.2,0,0,0,54.126,11.544Zm6.59-7.759V5.6H61.98V7.053H60.716v3.691a.881.881,0,0,0,.157.588.79.79,0,0,0,.6.178,3.15,3.15,0,0,0,.581-.048v1.5a4.067,4.067,0,0,1-1.2.178,1.886,1.886,0,0,1-2.119-2.1V7.053H57.66V5.6h1.08V3.785Zm1.853,5.448a4.387,4.387,0,0,1,.424-1.962,3.1,3.1,0,0,1,1.22-1.333,3.56,3.56,0,0,1,1.849-.472,3.368,3.368,0,0,1,2.444.916,3.676,3.676,0,0,1,1.056,2.488l.014.506a3.866,3.866,0,0,1-.95,2.731,3.683,3.683,0,0,1-5.1,0,3.934,3.934,0,0,1-.954-2.789Zm1.976.14a2.765,2.765,0,0,0,.4,1.612,1.424,1.424,0,0,0,2.256.007,3.025,3.025,0,0,0,.4-1.763,2.737,2.737,0,0,0-.4-1.6,1.311,1.311,0,0,0-1.135-.568,1.29,1.29,0,0,0-1.121.565A3.076,3.076,0,0,0,64.544,9.374Zm11.915,1.979h4.354V13H74.408V3.047h2.051ZM83.944,13H81.962V5.6h1.982Zm-2.1-9.311a.973.973,0,0,1,.3-.731,1.281,1.281,0,0,1,1.617,0,.967.967,0,0,1,.3.731.97.97,0,0,1-.3.738,1.267,1.267,0,0,1-1.606,0A.97.97,0,0,1,81.846,3.689ZM92.236,9.37a4.479,4.479,0,0,1-.759,2.772,2.513,2.513,0,0,1-2.119.995,2.309,2.309,0,0,1-1.921-.923L87.349,13H85.571V2.5h1.976V6.267a2.25,2.25,0,0,1,1.8-.8,2.534,2.534,0,0,1,2.123.995,4.485,4.485,0,0,1,.769,2.8ZM90.261,9.22a2.959,2.959,0,0,0-.355-1.642,1.2,1.2,0,0,0-1.06-.518,1.3,1.3,0,0,0-1.3.775v2.928a1.32,1.32,0,0,0,1.313.782,1.22,1.22,0,0,0,1.258-.946A4.9,4.9,0,0,0,90.261,9.22Zm7.349-1.763A5.367,5.367,0,0,0,96.9,7.4a1.447,1.447,0,0,0-1.47.759V13H93.453V5.6h1.866l.055.882a1.831,1.831,0,0,1,1.647-1.019,2.07,2.07,0,0,1,.615.089Zm4.225,5.681a3.631,3.631,0,0,1-2.649-1,3.548,3.548,0,0,1-1.022-2.659V9.288A4.468,4.468,0,0,1,98.594,7.3a3.161,3.161,0,0,1,1.22-1.354,3.425,3.425,0,0,1,1.8-.475A3.07,3.07,0,0,1,104,6.424a3.889,3.889,0,0,1,.872,2.714v.807h-4.71a1.835,1.835,0,0,0,.578,1.162,1.746,1.746,0,0,0,1.22.438,2.132,2.132,0,0,0,1.784-.827l.971,1.087a2.966,2.966,0,0,1-1.2.981A3.947,3.947,0,0,1,101.834,13.137Zm-.226-6.077a1.234,1.234,0,0,0-.954.4,2.062,2.062,0,0,0-.468,1.14h2.748V8.44a1.471,1.471,0,0,0-.355-1.02A1.274,1.274,0,0,0,101.608,7.06Z" transform="translate(594 5338.086)" fill="#fff"/>
    <path id="Trazado_278525" data-name="Trazado 278525" d="M47.232,10.389a1.052,1.052,0,0,0-.41-.892,5.38,5.38,0,0,0-1.477-.656,10.467,10.467,0,0,1-1.688-.68,2.759,2.759,0,0,1-1.7-2.468,2.4,2.4,0,0,1,.455-1.439,2.965,2.965,0,0,1,1.306-.988,4.914,4.914,0,0,1,1.911-.355,4.473,4.473,0,0,1,1.9.386,3.026,3.026,0,0,1,1.3,1.09,2.853,2.853,0,0,1,.461,1.6H47.239a1.342,1.342,0,0,0-.431-1.063,1.77,1.77,0,0,0-1.21-.379,1.891,1.891,0,0,0-1.169.318,1,1,0,0,0-.417.837.96.96,0,0,0,.489.813,5.522,5.522,0,0,0,1.439.615,6.217,6.217,0,0,1,2.55,1.306,2.6,2.6,0,0,1,.8,1.941,2.4,2.4,0,0,1-.978,2.027,4.279,4.279,0,0,1-2.632.735,5.082,5.082,0,0,1-2.092-.42,3.31,3.31,0,0,1-1.439-1.152,2.95,2.95,0,0,1-.5-1.7h2.058q0,1.647,1.969,1.647a1.915,1.915,0,0,0,1.142-.3A.967.967,0,0,0,47.232,10.389Zm7.745,1.859a2.477,2.477,0,0,1-2.023.889,2.337,2.337,0,0,1-1.815-.684,2.918,2.918,0,0,1-.639-2V5.6h1.976v4.784q0,1.157,1.053,1.157a1.426,1.426,0,0,0,1.381-.7V5.6h1.982V13H55.032Zm6.809.889a3.631,3.631,0,0,1-2.649-1,3.548,3.548,0,0,1-1.022-2.659V9.288A4.468,4.468,0,0,1,58.545,7.3a3.161,3.161,0,0,1,1.22-1.354,3.425,3.425,0,0,1,1.8-.475,3.07,3.07,0,0,1,2.389.957,3.889,3.889,0,0,1,.872,2.714v.807h-4.71a1.835,1.835,0,0,0,.578,1.162,1.746,1.746,0,0,0,1.22.438,2.132,2.132,0,0,0,1.784-.827L64.67,11.8a2.966,2.966,0,0,1-1.2.981A3.947,3.947,0,0,1,61.786,13.137ZM61.56,7.06a1.234,1.234,0,0,0-.954.4,2.062,2.062,0,0,0-.468,1.14h2.748V8.44a1.471,1.471,0,0,0-.355-1.02A1.274,1.274,0,0,0,61.56,7.06ZM68.034,13H66.051V2.5h1.982Zm1.319-3.767a4.387,4.387,0,0,1,.424-1.962A3.1,3.1,0,0,1,71,5.938a3.56,3.56,0,0,1,1.849-.472,3.368,3.368,0,0,1,2.444.916,3.676,3.676,0,0,1,1.056,2.488l.014.506a3.866,3.866,0,0,1-.95,2.731,3.683,3.683,0,0,1-5.1,0,3.934,3.934,0,0,1-.954-2.789Zm1.976.14a2.765,2.765,0,0,0,.4,1.612,1.424,1.424,0,0,0,2.256.007,3.025,3.025,0,0,0,.4-1.763,2.737,2.737,0,0,0-.4-1.6,1.311,1.311,0,0,0-1.135-.568,1.29,1.29,0,0,0-1.121.565A3.076,3.076,0,0,0,71.329,9.374ZM21.7,26.544a1.3,1.3,0,0,0,.889-.3,1.054,1.054,0,0,0,.355-.8h1.853a2.534,2.534,0,0,1-.41,1.377,2.706,2.706,0,0,1-1.1.971,3.455,3.455,0,0,1-1.548.345,3.211,3.211,0,0,1-2.5-1.008,3.99,3.99,0,0,1-.916-2.786v-.13a3.944,3.944,0,0,1,.909-2.728,3.174,3.174,0,0,1,2.5-1.019,3.111,3.111,0,0,1,2.225.79,2.8,2.8,0,0,1,.851,2.1H22.94a1.358,1.358,0,0,0-.355-.938,1.321,1.321,0,0,0-1.945.142,2.916,2.916,0,0,0-.352,1.633V24.4a2.953,2.953,0,0,0,.349,1.643A1.2,1.2,0,0,0,21.7,26.544Zm3.917-2.311a4.387,4.387,0,0,1,.424-1.962,3.1,3.1,0,0,1,1.22-1.333,3.56,3.56,0,0,1,1.849-.472,3.368,3.368,0,0,1,2.444.916,3.676,3.676,0,0,1,1.056,2.488l.014.506a3.866,3.866,0,0,1-.95,2.731,3.3,3.3,0,0,1-2.55,1.029,3.319,3.319,0,0,1-2.553-1.025,3.934,3.934,0,0,1-.954-2.789Zm1.976.14a2.765,2.765,0,0,0,.4,1.612,1.424,1.424,0,0,0,2.256.007,3.025,3.025,0,0,0,.4-1.763,2.737,2.737,0,0,0-.4-1.6,1.311,1.311,0,0,0-1.135-.568,1.29,1.29,0,0,0-1.121.565A3.076,3.076,0,0,0,27.589,24.374Zm8.066-3.77.062.854a2.582,2.582,0,0,1,2.126-.991,2.146,2.146,0,0,1,1.75.69,3.221,3.221,0,0,1,.588,2.064V28H38.205V23.259a1.287,1.287,0,0,0-.273-.915,1.222,1.222,0,0,0-.909-.284,1.359,1.359,0,0,0-1.251.713V28H33.8V20.6Zm8.388-1.818V20.6h1.265v1.449H44.043v3.691a.881.881,0,0,0,.157.588.79.79,0,0,0,.6.178,3.151,3.151,0,0,0,.581-.048v1.5a4.067,4.067,0,0,1-1.2.178,1.886,1.886,0,0,1-2.119-2.1V22.053h-1.08V20.6h1.08V18.785ZM50.694,28a2.194,2.194,0,0,1-.2-.663,2.39,2.39,0,0,1-1.866.8,2.626,2.626,0,0,1-1.8-.629,2.023,2.023,0,0,1-.714-1.586,2.09,2.09,0,0,1,.872-1.8,4.3,4.3,0,0,1,2.519-.636h.909v-.424a1.219,1.219,0,0,0-.263-.82,1.035,1.035,0,0,0-.831-.308,1.177,1.177,0,0,0-.783.239.813.813,0,0,0-.284.656H46.278a1.984,1.984,0,0,1,.4-1.189,2.621,2.621,0,0,1,1.121-.858,4.086,4.086,0,0,1,1.627-.311,3.228,3.228,0,0,1,2.17.687,2.4,2.4,0,0,1,.8,1.931v3.206a3.536,3.536,0,0,0,.294,1.593V28Zm-1.634-1.374a1.7,1.7,0,0,0,.807-.195,1.28,1.28,0,0,0,.547-.523V24.637h-.738q-1.483,0-1.579,1.025l-.007.116a.791.791,0,0,0,.26.608A1.009,1.009,0,0,0,49.061,26.626ZM55.767,20.6l.062.827a2.6,2.6,0,0,1,2.126-.964,1.973,1.973,0,0,1,1.962,1.128,2.54,2.54,0,0,1,2.222-1.128,2.206,2.206,0,0,1,1.791.7,3.221,3.221,0,0,1,.588,2.109V28H62.534V23.272a1.414,1.414,0,0,0-.246-.922,1.089,1.089,0,0,0-.868-.291,1.233,1.233,0,0,0-1.23.85L60.2,28H58.221V23.279a1.4,1.4,0,0,0-.253-.932,1.1,1.1,0,0,0-.861-.288,1.28,1.28,0,0,0-1.217.7V28H53.914V20.6ZM68.119,28H66.137V20.6h1.982Zm-2.1-9.311a.973.973,0,0,1,.3-.731,1.281,1.281,0,0,1,1.617,0,1.044,1.044,0,0,1,0,1.47,1.267,1.267,0,0,1-1.606,0A.97.97,0,0,1,66.021,18.689ZM71.564,20.6l.062.854a2.582,2.582,0,0,1,2.126-.991,2.146,2.146,0,0,1,1.75.69,3.221,3.221,0,0,1,.588,2.064V28H74.114V23.259a1.287,1.287,0,0,0-.273-.915,1.222,1.222,0,0,0-.909-.284,1.359,1.359,0,0,0-1.251.713V28H69.705V20.6ZM81.873,28a2.194,2.194,0,0,1-.2-.663,2.39,2.39,0,0,1-1.866.8,2.626,2.626,0,0,1-1.8-.629,2.023,2.023,0,0,1-.714-1.586,2.09,2.09,0,0,1,.872-1.8,4.3,4.3,0,0,1,2.519-.636h.909v-.424a1.219,1.219,0,0,0-.263-.82,1.035,1.035,0,0,0-.831-.308,1.177,1.177,0,0,0-.783.239.813.813,0,0,0-.284.656H77.457a1.985,1.985,0,0,1,.4-1.189,2.621,2.621,0,0,1,1.121-.858,4.086,4.086,0,0,1,1.627-.311,3.228,3.228,0,0,1,2.17.687,2.4,2.4,0,0,1,.8,1.931v3.206a3.536,3.536,0,0,0,.294,1.593V28Zm-1.634-1.374a1.7,1.7,0,0,0,.807-.195,1.28,1.28,0,0,0,.547-.523V24.637h-.738q-1.483,0-1.579,1.025l-.007.116a.791.791,0,0,0,.26.608A1.009,1.009,0,0,0,80.239,26.626Zm4.546-2.379a4.457,4.457,0,0,1,.776-2.755,2.517,2.517,0,0,1,2.123-1.025,2.265,2.265,0,0,1,1.784.807V17.5H91.45V28H89.666l-.1-.786a2.325,2.325,0,0,1-1.9.923,2.511,2.511,0,0,1-2.1-1.029A4.6,4.6,0,0,1,84.785,24.247Zm1.976.141a2.936,2.936,0,0,0,.362,1.6,1.179,1.179,0,0,0,1.053.556,1.321,1.321,0,0,0,1.292-.776V22.836a1.3,1.3,0,0,0-1.278-.776Q86.761,22.06,86.761,24.388Zm5.913-.154a4.387,4.387,0,0,1,.424-1.962,3.1,3.1,0,0,1,1.22-1.333,3.56,3.56,0,0,1,1.849-.472,3.368,3.368,0,0,1,2.444.916,3.676,3.676,0,0,1,1.056,2.488l.014.506a3.866,3.866,0,0,1-.95,2.731,3.683,3.683,0,0,1-5.1,0,3.934,3.934,0,0,1-.954-2.789Zm1.976.14a2.765,2.765,0,0,0,.4,1.612,1.424,1.424,0,0,0,2.256.007,3.025,3.025,0,0,0,.4-1.763,2.737,2.737,0,0,0-.4-1.6,1.311,1.311,0,0,0-1.135-.568,1.29,1.29,0,0,0-1.121.565A3.076,3.076,0,0,0,94.649,24.374Z" transform="translate(547 5275.086)" fill="#12263f"/>
    <path id="Trazado_278535" data-name="Trazado 278535" d="M4.5,0A4.5,4.5,0,1,1,0,4.5,4.5,4.5,0,0,1,4.5,0Z" transform="translate(551.5 5000)" fill="#89ebd4"/>
    <path id="Trazado_278536" data-name="Trazado 278536" d="M4.5,0A4.5,4.5,0,1,1,0,4.5,4.5,4.5,0,0,1,4.5,0Z" transform="translate(705 5003.586)" fill="#89ebd4"/>
    <path id="Trazado_278537" data-name="Trazado 278537" d="M4.5,0A4.5,4.5,0,1,1,0,4.5,4.5,4.5,0,0,1,4.5,0Z" transform="translate(915 4994.586)" fill="#89ebd4"/>
    <path id="Trazado_278538" data-name="Trazado 278538" d="M4.5,0A4.5,4.5,0,1,1,0,4.5,4.5,4.5,0,0,1,4.5,0Z" transform="translate(1049 5010.882)" fill="#89ebd4"/>
    <path id="Trazado_278539" data-name="Trazado 278539" d="M4.5,0A4.5,4.5,0,1,1,0,4.5,4.5,4.5,0,0,1,4.5,0Z" transform="translate(810 5006.419)" fill="#89ebd4"/>
    <path id="Trazado_278540" data-name="Trazado 278540" d="M4.5,0A4.5,4.5,0,1,1,0,4.5,4.5,4.5,0,0,1,4.5,0Z" transform="translate(915 5030.586)" fill="#89ebd4"/>
    <path id="Trazado_278541" data-name="Trazado 278541" d="M4.5,0A4.5,4.5,0,1,1,0,4.5,4.5,4.5,0,0,1,4.5,0Z" transform="translate(901 5051.086)" fill="#89ebd4"/>
    <path id="Trazado_278542" data-name="Trazado 278542" d="M2.5,0A2.5,2.5,0,1,1,0,2.5,2.5,2.5,0,0,1,2.5,0Z" transform="translate(553.5 5002)" fill="#2941a0"/>
    <path id="Trazado_278543" data-name="Trazado 278543" d="M2.5,0A2.5,2.5,0,1,1,0,2.5,2.5,2.5,0,0,1,2.5,0Z" transform="translate(707 5005.586)" fill="#2941a0"/>
    <path id="Trazado_278544" data-name="Trazado 278544" d="M2.5,0A2.5,2.5,0,1,1,0,2.5,2.5,2.5,0,0,1,2.5,0Z" transform="translate(917 4996.586)" fill="#2941a0"/>
    <path id="Trazado_278545" data-name="Trazado 278545" d="M2.5,0A2.5,2.5,0,1,1,0,2.5,2.5,2.5,0,0,1,2.5,0Z" transform="translate(1051 5012.882)" fill="#2941a0"/>
    <path id="Trazado_278546" data-name="Trazado 278546" d="M2.5,0A2.5,2.5,0,1,1,0,2.5,2.5,2.5,0,0,1,2.5,0Z" transform="translate(812 5008.419)" fill="#2941a0"/>
    <path id="Trazado_278547" data-name="Trazado 278547" d="M2.5,0A2.5,2.5,0,1,1,0,2.5,2.5,2.5,0,0,1,2.5,0Z" transform="translate(917 5032.586)" fill="#2941a0"/>
    <path id="Trazado_278548" data-name="Trazado 278548" d="M2.5,0A2.5,2.5,0,1,1,0,2.5,2.5,2.5,0,0,1,2.5,0Z" transform="translate(903 5053.086)" fill="#2941a0"/>
    <path id="Trazado_278515" data-name="Trazado 278515" d="M106.013,62.037V15.907" transform="translate(449.981 4942.5)" fill="none" stroke="#2941a0" stroke-width="1"/>
    <path id="Trazado_278516" data-name="Trazado 278516" d="M106.013,62.037V15.907" transform="translate(603.481 4946.086)" fill="none" stroke="#2941a0" stroke-width="1"/>
    <path id="Trazado_278517" data-name="Trazado 278517" d="M106.013,62.037V15.907" transform="translate(813.481 4937.086)" fill="none" stroke="#2941a0" stroke-width="1"/>
    <path id="Trazado_278518" data-name="Trazado 278518" d="M106.013,62.037V15.907" transform="translate(947.481 4953.382)" fill="none" stroke="#2941a0" stroke-width="1"/>
    <path id="Trazado_278519" data-name="Trazado 278519" d="M106.013,62.037,116.88,39.152" transform="translate(708.481 4948.919)" fill="none" stroke="#2941a0" stroke-width="1"/>
    <path id="Trazado_278521" data-name="Trazado 278521" d="M96.583,51.83l26.345,5.492" transform="translate(782.481 4998.434)" fill="none" stroke="#2941a0" stroke-width="1"/>
    <path id="Trazado_278520" data-name="Trazado 278520" d="M161.895,86.005,81.428,39.486" transform="translate(757.481 4948.919)" fill="none" stroke="#2941a0" stroke-width="1"/>
  </g>
</svg>
